<svg xmlns="http://www.w3.org/2000/svg" viewBox="0 0 36 36">
  <path fill="#0568ae" d="M28.076 8.675c0 1.958-1.201 3.746-3 4.498v5.282c0 .527-.375.968-.871 1.072V31.2c0 .552-.448 1-1 1s-1-.448-1-1V19.528c-.5-.101-.879-.544-.879-1.073v-5.282c-1.8-.752-3-2.539-3-4.498 0-2.688 2.187-4.875 4.875-4.875s4.875 2.187 4.875 4.875zM17.982 20.248c-.732 0-1.42.285-1.938.803s-.803 1.207-.803 1.939v3.351l.001.052c-.025.386-.347.693-.74.693-.409 0-.741-.333-.741-.745v-6.809c.52-.085.918-.534.918-1.077v-9.78c0-2.634-2.131-4.809-4.76-4.871L9.864 3.8h-.121c-1.001 0-1.815.814-1.815 1.815v6.12c0 1.001.814 1.815 1.815 1.815h.121l.065-.006c.337-.009.67-.054.999-.133v5.044c0 .513.355.941.832 1.059v6.83c0 1.512 1.23 2.742 2.741 2.742 1.512 0 2.742-1.23 2.742-2.742l-.003-.076v-3.279c0-.409.333-.742.742-.742s.741.333.741.76V31.2c0 .552.448 1 1 1s1-.448 1-1v-8.21c0-1.512-1.23-2.742-2.741-2.742z"/>
</svg>
