<svg xmlns="http://www.w3.org/2000/svg" viewBox="0 0 36 36">
  <path fill="#0568ae" d="M28.063 8.487c0-2.688-2.187-4.875-4.875-4.875s-4.875 2.187-4.875 4.875c0 1.959 1.2 3.746 3 4.498v5.282c0 .604.492 1.095 1.096 1.095h.408v11.651c0 .207.168.375.375.375s.375-.168.375-.375V19.362h.401c.604 0 1.095-.491 1.095-1.095v-5.282c1.798-.751 3-2.54 3-4.498zm-3 3.664V9.987c0-.207-.168-.375-.375-.375s-.375.168-.375.375v8.28c0 .19-.155.345-.345.345h-1.56c-.19 0-.346-.155-.346-.345v-8.28c0-.207-.168-.375-.375-.375s-.375.168-.375.375v2.164c-1.359-.7-2.25-2.115-2.25-3.664 0-2.275 1.851-4.125 4.125-4.125s4.125 1.851 4.125 4.125c.001 1.548-.891 2.965-2.249 3.664zm-7.095 8.534c-.565 0-1.097.22-1.496.62-.4.4-.62.932-.62 1.497v3.351l.002.041c-.02.736-.625 1.329-1.366 1.329-.753 0-1.366-.613-1.366-1.37v-6.792h.449c.604 0 1.095-.491 1.095-1.095v-9.78c0-2.661-2.144-4.827-4.794-4.871l-.02-.004h-.123c-1 0-1.814.814-1.814 1.815v6.12c0 1.001.814 1.815 1.814 1.815h.121l.035-.007c.35-.007.693-.057 1.029-.137v5.049c0 .604.491 1.095 1.094 1.095h.362v6.795c0 1.167.949 2.117 2.116 2.117 1.167 0 2.117-.95 2.117-2.117l-.003-.045v-3.309c0-.753.613-1.367 1.367-1.367.753 0 1.366.613 1.366 1.385v8.192c0 .207.168.375.375.375s.375-.168.375-.375v-8.21c.001-1.167-.948-2.117-2.115-2.117zm-6.303-2.418v-5.28l-.002-.011c.297-.124.586-.266.856-.449.171-.116.217-.349.1-.521-.116-.172-.349-.217-.521-.1-.683.462-1.481.706-2.308.706h-.061c-.587 0-1.064-.478-1.064-1.065v-6.12c0-.587.478-1.065 1.064-1.065h.061c2.274 0 4.125 1.851 4.125 4.125v9.78c0 .19-.155.345-.345.345h-1.561c-.189 0-.344-.155-.344-.345z"/>
</svg>
