<svg xmlns="http://www.w3.org/2000/svg" viewBox="0 0 36 36">
  <path fill="#0568ae" d="M14 13.6c-.2 0-.4-.2-.4-.4V8.7c0-.5.4-.9.9-.9h5.1c.5 0 .9.4.9.9v6.2c0 .5-.4.9-.9.9h-5.1c-.2 0-.4-.2-.4-.4s.2-.4.4-.4h5.1c.1 0 .1 0 .1-.1V8.7c0-.1 0-.1-.1-.1h-5.1c-.1 0-.1 0-.1.1v4.5c0 .3-.2.4-.4.4zm.4 5.1h.5c.2 0 .4-.2.4-.4v-.5c0-.2-.2-.4-.4-.4h-.5c-.2 0-.4.2-.4.4v.5c0 .2.2.4.4.4zm2.3 0h.5c.2 0 .4-.2.4-.4v-.5c0-.2-.2-.4-.4-.4h-.5c-.2 0-.4.2-.4.4v.5c.1.2.2.4.4.4zm2.3 0h.5c.2 0 .4-.2.4-.4v-.5c0-.2-.2-.4-.4-.4H19c-.2 0-.4.2-.4.4v.5c.1.2.2.4.4.4zm-4 1.1h-.5c-.2 0-.4.2-.4.4v.5c0 .2.2.4.4.4h.5c.2 0 .4-.2.4-.4v-.5c-.1-.2-.2-.4-.4-.4zm2.3 0h-.5c-.2 0-.4.2-.4.4v.5c0 .2.2.4.4.4h.5c.2 0 .4-.2.4-.4v-.5c-.1-.2-.2-.4-.4-.4zm2.3 0h-.5c-.2 0-.4.2-.4.4v.5c0 .2.2.4.4.4h.5c.2 0 .4-.2.4-.4v-.5c0-.2-.2-.4-.4-.4zM20 23v-.5c0-.2-.2-.4-.4-.4h-.5c-.2 0-.4.2-.4.4v.5c0 .2.2.4.4.4h.5c.2 0 .4-.2.4-.4zm-2.7-.8h-.5c-.2 0-.4.2-.4.4v.4c0 .2.2.4.4.4h.5c.2 0 .4-.2.4-.4v-.5c-.1-.2-.2-.3-.4-.3zm-2.3 0h-.5c-.2 0-.4.2-.4.4v.4c0 .2.2.4.4.4h.5c.2 0 .4-.2.4-.4v-.5c-.1-.2-.2-.3-.4-.3zM32.7 26c0 3.5-2.9 6.4-6.4 6.4-3.2 0-5.9-2.4-6.3-5.6-.9.5-1.9.8-3 .8-2.9 0-5.3-1.9-5.4-4.4V9.9c-.7.5-1.4 1.1-2 1.8-1 1.2-1.7 2.7-2.1 4.2.5.2.9.6.9 1.1v6c0 .5-.3 1-.9 1.2.6 3.6 3.1 6.5 6.5 7.6.2-.7.8-1.2 1.6-1.2h2.9c.9 0 1.6.7 1.6 1.6 0 .9-.7 1.7-1.6 1.7h-2.9c-.8 0-1.5-.6-1.6-1.4-3.8-1.2-6.6-4.4-7.2-8.3-1.2 0-2.1-1.1-2.1-2.3v-3.8c0-1.3 1-2.4 2.2-2.4.4-1.7 1.1-3.2 2.2-4.5.7-.9 1.6-1.6 2.5-2.2v-.4c0-1.1.5-2.2 1.4-3V2.2c0-.2.2-.4.4-.4s.4.2.4.4V5c.9-.6 2-.9 3.2-.9 3 0 5.4 2 5.4 4.5v.5c1 .6 1.8 1.3 2.6 2.2 1.1 1.3 1.9 2.9 2.2 4.5 1.1.1 2 1.1 2 2.3v2.2c2 1 3.5 3.2 3.5 5.7zm-18 6.3c0 .5.4.9.9.9h2.9c.5 0 .9-.4.9-.9s-.4-.9-.9-.9h-2.9c-.5 0-.9.4-.9.9zm-7-15.2c0-.3-.5-.6-.9-.6-.8 0-1.5.7-1.5 1.6v3.8c0 .9.7 1.6 1.5 1.6.6 0 .9-.3.9-.6v-5.8zm19.2-.6c-.4 0-.9.3-.9.6v2.6h.3c.7 0 1.4.1 2.1.3v-1.9c0-.9-.7-1.6-1.5-1.6zm-4.5-6.6V21c.8-.7 1.8-1.1 2.9-1.3V17c0-.6.5-1 1.1-1.2-.3-1.5-1-2.9-2-4.1-.6-.7-1.3-1.3-2-1.8zM17 26.8c1.1 0 2.1-.3 2.9-.9 0-1.7.6-3.2 1.7-4.3v-13c0-2.1-2.1-3.7-4.6-3.7-2.5 0-4.6 1.7-4.6 3.7v14.6c0 2 2.1 3.6 4.6 3.6zm14.9-.8c0-3.1-2.5-5.6-5.6-5.6-3.1 0-5.6 2.5-5.6 5.6s2.5 5.6 5.6 5.6c3.1 0 5.6-2.5 5.6-5.6zm-2.4-.4h-2.8v-2.8c0-.2-.2-.4-.4-.4s-.4.2-.4.4v2.8h-2.8c-.2 0-.4.2-.4.4s.2.4.4.4h2.8v2.8c0 .2.2.4.4.4s.4-.2.4-.4v-2.8h2.8c.2 0 .4-.2.4-.4s-.2-.4-.4-.4z"/>
</svg>
