<svg xmlns="http://www.w3.org/2000/svg" viewBox="0 0 36 36">
  <path fill="#0568ae" d="M11.7 8.6v2.3c-1.3 1.3-2.2 3-2.5 4.9.3.4.4.9.4 1.5v4.1c0 .6-.2 1.2-.5 1.5.3 3.6 2.9 6.6 6.2 7.5.3-.2.6-.3.9-.3H19c.8 0 1.5.6 1.6 1.3v.3c0 .9-.7 1.7-1.7 1.7h-2.8c-.7 0-1.2-.4-1.5-1-4.1-1.2-7.2-4.7-7.8-9-1.1-.1-1.9-1-1.9-2.1v-4.1c0-1.1.9-2.1 2-2.1.5-2.9 2.2-5.4 4.5-7 .4.2.3.3.3.5zM33 27c0 3.3-2.7 6-6 6s-6-2.7-6-6 2.7-6 6-6 6 2.7 6 6zm-2.1 0c0-.6-.4-1-1-1H28v-1.9c0-.6-.4-1-1-1s-1 .4-1 1V26h-1.9c-.6 0-1 .4-1 1s.4 1 1 1H26v1.9c0 .6.4 1 1 1s1-.4 1-1V28h1.9c.5 0 1-.4 1-1zm-11.4 0c-.5.1-1 .2-1.5.2-2.7 0-4.9-1.8-5-4V8.6c0-1 .4-1.9 1.1-2.6V2.7c0-.5.4-1 1-1 .5 0 1 .4 1 1v2.1c.6-.2 1.3-.3 2-.3 2.8 0 5 1.8 5 4.1v12.1c-.8.5-1.5 1.1-2 1.9v-.1c0-.2-.2-.4-.4-.4h-.5c-.2 0-.4.2-.4.4v.5c0 .2.2.4.4.4h.4c-.8 1-1.1 2.3-1.1 3.6zm.5-8.3h.5c.2 0 .4-.2.4-.4v-.5c0-.2-.2-.4-.4-.4H20c-.2 0-.4.2-.4.4v.5c.1.3.2.4.4.4zm1 1.5c0-.2-.2-.4-.4-.4h-.5c-.2 0-.4.2-.4.4v.5c0 .2.2.4.4.4h.5c.2 0 .4-.2.4-.4v-.5zm-6-5.3c0 .3.2.5.5.5h5c.3 0 .5-.2.5-.5V8.8c0-.3-.2-.5-.5-.5h-5c-.3 0-.5.2-.5.5v6.1zm0 3.5c0 .2.2.4.4.4h.5c.2 0 .4-.2.4-.4v-.5c0-.2-.2-.4-.4-.4h-.5c-.2 0-.4.2-.4.4v.5zm1.3 4.1c0-.2-.2-.4-.4-.4h-.5c-.2 0-.4.2-.4.4v.5c0 .2.2.4.4.4h.6c.2 0 .4-.2.4-.4v-.5zm0-2.3c0-.2-.2-.4-.4-.4h-.5c-.2 0-.4.2-.4.4v.5c0 .2.2.4.4.4h.6c.2 0 .4-.2.4-.4v-.5zm1.1-1.8c0 .2.2.4.4.4h.5c.2 0 .4-.2.4-.4v-.5c0-.2-.2-.4-.4-.4h-.5c-.2 0-.4.2-.4.4v.5zm1.2 4.1c0-.2-.2-.4-.4-.4h-.5c-.2 0-.4.2-.4.4v.5c0 .2.2.4.4.4h.5c.2 0 .4-.2.4-.4v-.5zm0-2.3c0-.2-.2-.4-.4-.4h-.5c-.2 0-.4.2-.4.4v.5c0 .2.2.4.4.4h.5c.2 0 .4-.2.4-.4v-.5zm11.8.1v-3.1c0-1.1-.9-2.1-2-2.1-.5-2.7-2-5.1-4.2-6.7v2.9c1.1 1.2 1.8 2.8 2.1 4.4-.3.4-.4.9-.4 1.5v2.3c.4-.1.7-.1 1.1-.1 1.2.1 2.4.4 3.4.9z"/>
</svg>
