<svg xmlns="http://www.w3.org/2000/svg" viewBox="0 0 36 36">
  <path fill="#0568ae" d="M32.915 16.267v3.466c0 1.123-.914 2.037-2.038 2.037h-.41v1.542c0 1.525-1.241 2.767-2.766 2.767H5.848c-.207 0-.375-.168-.375-.375s.168-.375.375-.375h21.853c1.111 0 2.016-.905 2.016-2.017v-1.917c0-.207.168-.375.375-.375h.785c.71 0 1.288-.577 1.288-1.287v-3.466c0-.71-.578-1.288-1.288-1.288h-.785c-.207 0-.375-.168-.375-.375V12.69c0-1.113-.904-2.018-2.016-2.018H5.848c-1.11 0-2.013.905-2.013 2.018V21c0 .207-.168.375-.375.375s-.375-.168-.375-.375v-8.31c0-1.526 1.239-2.768 2.763-2.768h21.853c1.525 0 2.766 1.242 2.766 2.768v1.539h.41c1.123 0 2.038.915 2.038 2.038zm-25.182 6.08v-8.669c0-.207-.168-.375-.375-.375s-.375.168-.375.375v8.669c0 .207.168.375.375.375s.375-.168.375-.375zm3.805 0v-8.669c0-.207-.168-.375-.375-.375s-.375.168-.375.375v8.669c0 .207.168.375.375.375s.375-.168.375-.375z"/>
</svg>
