<svg xmlns="http://www.w3.org/2000/svg" viewBox="0 0 36 36">
  <path fill="#0568ae" d="M22.263 17.339l-7.941 9.807c-.088.109-.218.167-.35.167l-.208-.051c-.19-.099-.283-.319-.223-.525l2.142-7.334-3.794-.007c-.173 0-.331-.1-.405-.257-.075-.156-.052-.342.057-.477l7.941-9.807c.135-.167.369-.215.559-.115.19.1.283.319.223.525l-2.158 7.351 3.809-.01c.163.012.332.099.407.256.072.156.05.342-.059.477zm-9.524 6.789H6.03c-.396 0-.72-.324-.72-.72V12.592c0-.396.324-.72.72-.72h9.077l1.619-2H6.03c-1.5 0-2.72 1.22-2.72 2.72v10.817c0 1.5 1.22 2.72 2.72 2.72h6.125l.584-2.001zm19.034-9.719h-1.281v-1.817c0-1.5-1.22-2.72-2.72-2.72h-6.126l-.587 2h6.713c.396 0 .72.324.72.72v10.817c0 .396-.324.72-.72.72h-9.077l-1.619 2h10.697c1.5 0 2.72-1.22 2.72-2.72v-1.817h1.281c.594 0 1.08-.486 1.08-1.08V15.49c-.001-.595-.487-1.081-1.081-1.081z"/>
</svg>
