<svg xmlns="http://www.w3.org/2000/svg" viewBox="0 0 36 36">
  <path fill="#0568ae" d="M30.876 14.229h-.41V12.69c0-1.526-1.241-2.768-2.766-2.768H5.848c-1.523 0-2.763 1.242-2.763 2.768V21c0 .207.168.375.375.375s.375-.168.375-.375v-8.31c0-1.113.903-2.018 2.013-2.018h21.853c1.111 0 2.016.905 2.016 2.018v1.914c0 .207.168.375.375.375h.785c.711 0 1.288.578 1.288 1.288v3.466c0 .709-.578 1.287-1.288 1.287h-.785c-.207 0-.375.168-.375.375v1.917c0 1.112-.904 2.017-2.016 2.017H5.848c-.207 0-.375.168-.375.375s.168.375.375.375h21.853c1.525 0 2.766-1.241 2.766-2.767V21.77h.41c1.124 0 2.038-.913 2.038-2.037v-3.466c0-1.123-.915-2.038-2.039-2.038z"/>
</svg>
