<svg xmlns="http://www.w3.org/2000/svg" viewBox="0 0 36 36">
  <path fill="#0568ae" d="M32.968 16.267v3.466c0 1.123-.914 2.037-2.038 2.037h-.41v1.542c0 1.525-1.241 2.767-2.766 2.767H5.902c-.207 0-.375-.168-.375-.375s.168-.375.375-.375h21.853c1.111 0 2.016-.905 2.016-2.017v-1.917c0-.207.168-.375.375-.375h.785c.71 0 1.288-.577 1.288-1.287v-3.466c0-.71-.578-1.288-1.288-1.288h-.785c-.207 0-.375-.168-.375-.375V12.69c0-1.113-.904-2.018-2.016-2.018H5.902c-1.11 0-2.013.905-2.013 2.018V21c0 .207-.168.375-.375.375s-.375-.168-.375-.375v-8.31c0-1.526 1.239-2.768 2.763-2.768h21.853c1.525 0 2.766 1.242 2.766 2.768v1.539h.41c1.123 0 2.037.915 2.037 2.038zm-17.885 7.972l5.379-6.643c.091-.112.109-.267.047-.398-.063-.131-.212-.217-.339-.213l-2.487.006 1.436-4.889c.05-.172-.027-.355-.186-.438-.157-.083-.354-.043-.466.096l-5.379 6.643c-.091.113-.109.267-.047.397s.193.213.338.214l2.476.005-1.424 4.879c-.05.171.028.354.186.437l.174.043c.111 0 .219-.048.292-.139zm2.789-10.55l-1.049 3.573c-.033.114-.011.236.06.331.071.095.182.15.3.15h.001l2.2-.006-3.709 4.58 1.041-3.566c.033-.113.011-.235-.06-.33-.071-.094-.182-.15-.3-.15l-2.191-.004 3.707-4.578z"/>
</svg>
