<svg xmlns="http://www.w3.org/2000/svg" viewBox="0 0 36 36">
  <path fill="#0568ae" d="M31.73 14.409h-1.28v-1.817c0-1.5-1.22-2.72-2.72-2.72H5.987c-1.5 0-2.72 1.22-2.72 2.72v10.817c0 1.5 1.22 2.72 2.72 2.72H27.73c1.5 0 2.72-1.22 2.72-2.72v-1.817h1.281c.594 0 1.08-.486 1.08-1.08V15.49c-.001-.595-.487-1.081-1.081-1.081zm-3.28 8.999c0 .396-.324.72-.72.72H5.987c-.396 0-.72-.324-.72-.72V12.592c0-.396.324-.72.72-.72H27.73c.396 0 .72.324.72.72v10.816zm-10.302-.78c-.297 0-.54-.243-.54-.54v-8.177c0-.297.243-.54.54-.54h2.841c.297 0 .54.243.54.54v8.177c0 .297-.243.54-.54.54h-2.841zm-5.42 0c-.297 0-.54-.243-.54-.54v-8.177c0-.297.243-.54.54-.54h2.841c.297 0 .54.243.54.54v8.177c0 .297-.243.54-.54.54h-2.841zm-2.04-.54c0 .297-.243.54-.54.54H7.307c-.297 0-.54-.243-.54-.54v-8.177c0-.297.243-.54.54-.54h2.841c.297 0 .54.243.54.54v8.177zm12.881.54c-.297 0-.54-.243-.54-.54v-8.177c0-.297.243-.54.54-.54h2.841c.297 0 .54.243.54.54v8.177c0 .297-.243.54-.54.54h-2.841z"/>
</svg>
