<svg xmlns="http://www.w3.org/2000/svg" viewBox="0 0 36 36">
  <path fill="#0568ae" d="M18 13.458c1.527 0 2.769-1.242 2.769-2.769S19.527 7.921 18 7.921c-1.527 0-2.769 1.242-2.769 2.769s1.242 2.768 2.769 2.768zm0-4.787c1.113 0 2.019.906 2.019 2.019s-.906 2.019-2.019 2.019-2.019-.906-2.019-2.019c0-1.114.906-2.019 2.019-2.019zm0 14.888c.951 0 1.725-.774 1.725-1.725s-.774-1.725-1.725-1.725c-.951 0-1.725.774-1.725 1.725s.774 1.725 1.725 1.725zm0-2.7c.538 0 .975.438.975.975s-.437.975-.975.975-.975-.437-.975-.975.437-.975.975-.975zm9.375-.215V6.246c0-.802-.653-1.455-1.455-1.455H10.08c-.802 0-1.455.653-1.455 1.455v23.509c0 .802.653 1.455 1.455 1.455h12.145c1.169 1.325 2.874 2.166 4.775 2.166 3.515 0 6.375-2.86 6.375-6.375 0-3.39-2.66-6.161-6-6.357zM10.08 30.459c-.389 0-.705-.316-.705-.705V6.246c0-.389.316-.705.705-.705h15.84c.389 0 .705.316.705.705v14.398c-.813.048-1.584.246-2.287.571-.312-3.256-3.022-5.756-6.338-5.756-3.515 0-6.375 2.86-6.375 6.375 0 .659.1 1.308.298 1.93.051.16.198.261.357.261l.113-.017c.197-.063.307-.273.244-.471-.174-.549-.262-1.122-.262-1.703 0-3.102 2.523-5.625 5.625-5.625 3.033 0 5.498 2.369 5.62 5.395-1.742 1.096-2.916 3.007-2.984 5.196-.807.429-1.715.659-2.635.659-.867 0-1.699-.192-2.472-.571-.186-.091-.411-.014-.502.172-.091.186-.014.411.172.502.876.429 1.819.647 2.802.647.92 0 1.826-.211 2.656-.592.101 1.041.455 2.008.997 2.842H10.08zM27 32.625c-3.102 0-5.625-2.523-5.625-5.625s2.523-5.625 5.625-5.625 5.625 2.523 5.625 5.625c0 3.101-2.523 5.625-5.625 5.625zm.654-2.374c0 .341-.278.619-.618.619-.343 0-.619-.277-.619-.619s.276-.619.619-.619c.34.001.618.278.618.619zm1.352-1.864c.165.126.196.361.07.526-.074.096-.185.147-.298.147-.079 0-.159-.025-.228-.077-.308-.236-.664-.393-1.058-.467-.692-.129-1.411.04-1.972.467-.165.125-.4.093-.525-.072-.125-.165-.093-.4.072-.525.729-.554 1.664-.775 2.564-.607.51.096.973.301 1.375.608zm1.09-1.509c.164.127.194.362.068.526-.074.096-.185.146-.297.146-.08 0-.161-.025-.229-.078-.534-.412-1.142-.684-1.808-.808-1.177-.222-2.401.067-3.358.791-.165.125-.4.092-.525-.073-.125-.165-.092-.4.073-.525 1.126-.851 2.564-1.188 3.949-.93.782.145 1.499.465 2.127.951zm1.126-.974c-.13.161-.366.185-.527.056-.741-.599-1.632-1.01-2.576-1.188-1.686-.316-3.413.128-4.741 1.217-.069.057-.154.085-.238.085-.108 0-.216-.047-.29-.137-.131-.16-.108-.396.052-.528 1.499-1.23 3.451-1.73 5.355-1.375 1.066.201 2.071.665 2.909 1.342.161.131.186.367.056.528z"/>
</svg>
