<svg xmlns="http://www.w3.org/2000/svg" viewBox="0 0 36 36">
  <path fill="#0568ae" d="M27 21c-3.313 0-6 2.686-6 6s2.687 6 6 6c3.314 0 6-2.687 6-6s-2.686-6-6-6zm-.006 9.625c-.509 0-.923-.414-.923-.922 0-.509.414-.923.923-.923.508 0 .922.414.922.923 0 .508-.414.922-.922.922zm2.644-2.638c-.099.129-.248.196-.398.196-.106 0-.212-.034-.303-.103-.396-.302-.852-.504-1.356-.599-.888-.167-1.81.052-2.531.599-.221.167-.534.123-.701-.096-.167-.22-.124-.534.096-.701.945-.717 2.156-1.002 3.32-.785.66.125 1.259.389 1.779.787.219.169.261.482.094.702zm1.402-1.945c-.099.127-.247.194-.397.194-.106 0-.214-.034-.305-.104-.686-.53-1.468-.879-2.324-1.039-1.511-.284-3.083.086-4.315 1.016-.22.166-.535.123-.7-.097-.166-.22-.123-.534.098-.701 1.455-1.099 3.314-1.538 5.101-1.201 1.013.189 1.938.602 2.751 1.23.219.169.259.483.091.702zM18 27.834c-3.314 0-6-2.686-6-6s2.686-6 6-6c2.76 0 5.078 1.866 5.778 4.403.978-.467 2.068-.737 3.222-.737V6.245c0-.594-.486-1.08-1.08-1.08H10.08c-.594 0-1.08.487-1.08 1.08v23.509c0 .594.486 1.08 1.08 1.08h10.486c-.57-.954-.937-2.04-1.034-3.205-.49.13-1.001.205-1.532.205zm0-19.539c1.322 0 2.394 1.072 2.394 2.394S19.322 13.083 18 13.083s-2.394-1.072-2.394-2.394S16.678 8.295 18 8.295zm1.688 13.539c0 .932-.756 1.688-1.688 1.688-.932 0-1.687-.756-1.687-1.688 0-.932.755-1.688 1.687-1.688.932.001 1.688.756 1.688 1.688z"/>
</svg>
