<svg xmlns="http://www.w3.org/2000/svg" viewBox="0 0 36 36">
  <path fill="#0568ae" d="M29.791 16.979H6.241c-1.066 0-1.932-.866-1.932-1.93 0-1.041.83-1.893 1.863-1.929l.074.003h16.087l.165-.017c.31.87 1.134 1.498 2.108 1.498H30.6c.207 0 .375-.168.375-.375v-.484h1.721c.207 0 .375-.168.375-.375v-2.48c0-.207-.168-.375-.375-.375h-1.721v-.484c0-.207-.168-.375-.375-.375h-5.993c-.969 0-1.789.621-2.103 1.483l-.17-.017H6.329l-.088-.004c-2.168 0-3.932 1.763-3.932 3.93s1.764 3.93 3.937 3.93H29.76c1.065 0 1.931.865 1.931 1.929 0 .515-.201 1-.566 1.365-.364.365-.849.565-1.364.565H13.502l-.02.002c-.325-.842-1.137-1.444-2.091-1.444H5.398c-.207 0-.375.168-.375.375v.484H3.302c-.207 0-.375.168-.375.375v2.479c0 .207.168.375.375.375h1.721v.484c0 .207.168.375.375.375h5.993c.977 0 1.803-.632 2.111-1.506l16.258.001c2.167 0 3.931-1.763 3.931-3.931 0-2.145-1.731-3.895-3.9-3.927z"/>
</svg>
