<svg xmlns="http://www.w3.org/2000/svg" viewBox="0 0 36 36">
  <path fill="#0568ae" d="M6.195 12.494l.051.003h15.892c.074 1.173 1.042 2.107 2.232 2.107h5.993c.207 0 .375-.168.375-.375v-.484h1.953c.207 0 .375-.168.375-.375v-2.48c0-.207-.168-.375-.375-.375h-1.953v-.484c0-.207-.168-.375-.375-.375H24.37c-1.185 0-2.149.926-2.23 2.091H6.295l-.054-.004c-1.823 0-3.307 1.483-3.307 3.305s1.484 3.305 3.312 3.305H29.76c1.41 0 2.556 1.146 2.556 2.554 0 .682-.266 1.324-.749 1.807-.483.483-1.124.749-1.806.749H13.859c-.094-1.154-1.051-2.066-2.228-2.066H5.637c-.207 0-.375.168-.375.375v.484H3.309c-.207 0-.375.168-.375.375v2.479c0 .207.168.375.375.375h1.953v.484c0 .207.168.375.375.375h5.993c.207 0 .375-.168.375-.375s-.168-.375-.375-.375H6.012v-3.448h5.618c.825 0 1.497.671 1.497 1.497v.194c0 .207.168.375.375.375l16.258.001c1.823 0 3.306-1.483 3.306-3.306 0-1.807-1.458-3.28-3.291-3.304H6.241c-1.41 0-2.557-1.146-2.557-2.555 0-1.393 1.122-2.53 2.511-2.554zm26.121-1.229v1.729h-1.578v-1.729h1.578zm-9.442.638c0-.826.671-1.497 1.496-1.497h5.618v3.448H24.37c-.825 0-1.496-.672-1.496-1.498v-.453zM3.684 24.735v-1.729h1.578v1.729H3.684z"/>
</svg>
