<svg xmlns="http://www.w3.org/2000/svg" viewBox="0 0 36 36">
  <path fill="#0568ae" d="M15.5 27.7l-.7-.5c-.2-.2-.4-.1-.4.2V29h-1.7c-1 0-1.9-.8-1.9-1.9v-2.6h.5c2.4 0 4.3-1.6 4.3-3.5V8.3c0-2-1.9-3.6-4.3-3.6-.6 0-1.2.1-1.7.3V3.3c0-.5-.4-.8-.8-.8-.5 0-.8.4-.8.8v2.9c-.7.6-1.1 1.3-1.1 2.2v12.7c0 1.2.7 2.2 1.8 2.8v3.2c0 2.1 1.7 3.9 3.9 3.9h1.7v1.6c0 .3.2.4.4.2l1.2-.9 2.4-1.7c.2-.1.2-.3 0-.5l-2.8-2zm-5.7-8.8c0 .2-.1.3-.3.3H9c-.2 0-.3-.1-.3-.3v-.4c0-.2.1-.3.3-.3h.5c.2 0 .3.1.3.3v.4zm2 2c0 .2-.1.3-.3.3H11c-.2 0-.3-.1-.3-.3v-.4c0-.2.1-.3.3-.3h.5c.2 0 .3.1.3.3v.4zm-1.1-4.1v-.4c0-.2.1-.3.3-.3h.5c.2 0 .3.1.3.3v.4c0 .2-.1.3-.3.3H11c-.2 0-.3-.1-.3-.3zm1.1 2.1c0 .2-.1.3-.3.3H11c-.2 0-.3-.1-.3-.3v-.4c0-.2.1-.3.3-.3h.5c.2 0 .3.1.3.3v.4zm2 2c0 .2-.1.3-.3.3H13c-.2 0-.3-.1-.3-.3v-.4c0-.2.1-.3.3-.3h.5c.2 0 .3.1.3.3v.4zm-1.1-4.1v-.4c0-.2.1-.3.3-.3h.5c.2 0 .3.1.3.3v.4c0 .2-.1.3-.3.3H13c-.2 0-.3-.1-.3-.3zm1.1 2.1c0 .2-.1.3-.3.3H13c-.2 0-.3-.1-.3-.3v-.4c0-.2.1-.3.3-.3h.5c.2 0 .3.1.3.3v.4zM8.6 8.5c0-.2.2-.5.5-.5h4.3c.2 0 .5.2.5.5v5.3c0 .2-.2.5-.5.5H9.1c-.2 0-.5-.2-.5-.5V8.5zm.1 7.9c0-.2.1-.3.3-.3h.5c.2 0 .3.1.3.3v.4c0 .2-.1.3-.3.3H9c-.2 0-.3-.1-.3-.3v-.4zm0 4c0-.2.1-.3.3-.3h.5c.2 0 .3.1.3.3v.4c0 .2-.1.3-.3.3H9c-.2 0-.3-.1-.3-.3v-.4zm18.7-5.8V9.8c0-2.1-1.7-3.9-3.9-3.9h-1.7V4.3c0-.3-.2-.4-.4-.2l-1.2.9-2.4 1.7c-.2.1-.2.3 0 .5l2.9 2.1.7.5c.2.2.4.1.4-.2V8h1.7c1 0 1.9.8 1.9 1.9V14h-.6c-.6 0-1.2.1-1.7.3v-1.8c0-.5-.4-.8-.8-.8-.5 0-.8.4-.8.8v2.9c-.6.6-.9 1.4-.9 2.2v12.7c.1 1.9 2 3.5 4.3 3.5 2.4 0 4.3-1.6 4.3-3.5V17.6c-.1-1.3-.8-2.4-1.8-3zm-4.1 15.3c0 .2-.1.3-.3.3h-.5c-.2 0-.3-.1-.3-.3v-.4c0-.2.1-.3.3-.3h.5c.2 0 .3.1.3.3v.4zm-1.1-4v-.4c0-.2.1-.3.3-.3h.5c.2 0 .3.1.3.3v.4c0 .2-.1.3-.3.3h-.5c-.2 0-.3-.2-.3-.3zm1.1 2c0 .2-.1.3-.3.3h-.5c-.2 0-.3-.1-.3-.3v-.4c0-.2.1-.3.3-.3h.5c.2 0 .3.1.3.3v.4zm2 2c0 .2-.1.3-.3.3h-.5c-.2 0-.3-.1-.3-.3v-.4c0-.2.1-.3.3-.3h.5c.2 0 .3.1.3.3v.4zm-1.1-4v-.4c0-.2.1-.3.3-.3h.5c.2 0 .3.1.3.3v.4c0 .2-.1.3-.3.3h-.5c-.2 0-.3-.2-.3-.3zm1.1 2c0 .2-.1.3-.3.3h-.5c-.2 0-.3-.1-.3-.3v-.4c0-.2.1-.3.3-.3h.5c.2 0 .3.1.3.3v.4zm2 2c0 .2-.1.3-.3.3h-.5c-.2 0-.3-.1-.3-.3v-.4c0-.2.1-.3.3-.3h.5c.2 0 .3.1.3.3v.4zm-1.1-4v-.4c0-.2.1-.3.3-.3h.5c.2 0 .3.1.3.3v.4c0 .2-.1.3-.3.3h-.5c-.2 0-.3-.2-.3-.3zm1.1 2c0 .2-.1.3-.3.3h-.5c-.2 0-.3-.1-.3-.3v-.4c0-.2.1-.3.3-.3h.5c.2 0 .3.1.3.3v.4zm.1-5c0 .2-.2.5-.5.5h-4.3c-.2 0-.5-.2-.5-.5v-5.3c0-.2.2-.5.5-.5h4.3c.2 0 .5.2.5.5v5.3z"/>
</svg>
