<svg xmlns="http://www.w3.org/2000/svg" viewBox="0 0 36 36">
  <path fill="#0568ae" d="M12.8 22.3c-.8 0-1.5-.2-2.1-.6-.6-.4-1.1-.9-1.4-1.5-.3-.6-.5-1.4-.5-2.2 0-.9.2-1.6.5-2.3.4-.7.8-1.2 1.5-1.5.6-.4 1.3-.5 2.1-.5.4 0 .8.1 1.2.2.4.1.8.3 1.1.5l-.3.8c-.4-.2-.7-.3-1-.4-.3-.1-.7-.1-1-.1-.6 0-1.2.1-1.7.4-.5.3-.8.7-1.1 1.2-.2.5-.4 1.1-.4 1.8s.1 1.3.4 1.8c.3.5.6.9 1.1 1.2.5.3 1 .4 1.6.4.4 0 .7 0 1.1-.1.3-.1.7-.3 1-.5l.3.8c-.3.2-.7.4-1.2.6h-1.2zm4.4-8.5h.9v8.4h-.9v-8.4zm10 4.2c0 .9-.2 1.6-.5 2.3-.3.6-.8 1.1-1.4 1.4-.6.3-1.3.5-2.2.5h-2.6v-8.4h2.6c.9 0 1.6.2 2.2.5.6.3 1.1.8 1.4 1.5.3.6.5 1.4.5 2.2zm-1 0c0-1-.3-1.9-.8-2.4-.6-.6-1.3-.9-2.3-.9h-1.7v6.6h1.7c1 0 1.8-.3 2.3-.9.6-.5.8-1.3.8-2.4zm4.5 9.9H5.3c-.2 0-.4-.2-.4-.4s.2-.4.4-.4h25.4c.8 0 1.4-.6 1.4-1.4V10.3c0-.8-.6-1.4-1.4-1.4H5.3c-.8 0-1.4.6-1.4 1.4v13.4c0 .2-.2.4-.4.4s-.4-.2-.4-.4V10.3c0-1.2 1-2.2 2.2-2.2h25.4c1.2 0 2.2 1 2.2 2.2v15.5c0 1.1-1 2.1-2.2 2.1z"/>
</svg>
