<svg xmlns="http://www.w3.org/2000/svg" viewBox="0 0 36 36">
  <path fill="#0568ae" d="M27 21c-3.3 0-6 2.7-6 6s2.7 6 6 6 6-2.7 6-6-2.7-6-6-6zm.5 9.1c0 .1-.1.2-.1.2h-.2s-2.2-2-2.3-2h-1.2c-.2 0-.4-.2-.4-.4v-1.8c0-.2.2-.4.4-.4h1.2l2.3-2.1s.1-.1.2-.1h.1c.1 0 .1.1.1.2v6.4zm1.3-1.3c-.1 0-.1 0-.2-.1-.2-.1-.2-.3-.1-.5.3-.5.5-1 .4-1.6-.1-.3-.2-.6-.4-.9-.1-.2-.1-.4.1-.5.2-.1.4-.1.5.1.3.3.4.7.5 1.2.1.8 0 1.5-.5 2.2-.1.1-.2.1-.3.1zm1.4.7c-.1.1-.2.1-.3.1-.1 0-.1 0-.2-.1-.2-.1-.2-.3-.1-.5.6-.8.8-1.8.6-2.8-.1-.5-.3-1-.7-1.5-.1-.2-.1-.4.1-.5.2-.1.4-.1.5.1.4.5.7 1.1.8 1.8.3 1.3 0 2.5-.7 3.4zm-10.7-2.4c0 .3 0 .6.1.9-2.9 3-6.9 4.2-10.2 2.9l-.4-.1c-.4-.2-.6-.6-.4-.9.2-.3.3-.5.3-.5l3-5.1s.2-.3.4-.7c.2-.4.7-.5 1.1-.3.4.2.7.4.7.4 1.4.8 3.1.3 3.9-1.1l3.5-6.1c.8-1.4.3-3.1-1.1-3.9 0 0-.3-.2-.7-.4-.4-.2-.6-.7-.3-1.1.2-.4.4-.7.4-.7l2.8-4.8s.2-.3.4-.7c.2-.4.8-.4 1.3-.1 0 0 .1 0 .5.4 3 2.9 3.5 8.3.9 12.8l-1.1 2c-3 1-5.1 3.8-5.1 7.1z"/>
</svg>
