<svg xmlns="http://www.w3.org/2000/svg" viewBox="0 0 36 36">
  <path fill="#0568ae" d="M25.2 16.1c.4.4.6 1.1.6 1.9s-.2 1.4-.6 1.9c-.4.4-1 .7-1.7.7h-1.1v-5.1h1.1c.8 0 1.3.2 1.7.6zm7.3-5.8v15.5c0 1-.8 1.8-1.8 1.8H5.3c-1 0-1.8-.8-1.8-1.8V10.3c0-1 .8-1.8 1.8-1.8h25.4c1 0 1.8.8 1.8 1.8zM15 21.5l-.5-1.5c-.6.3-1.2.5-1.9.5s-1.3-.2-1.8-.7c-.4-.5-.7-1.1-.7-1.9 0-.8.2-1.4.7-1.9.4-.5 1-.7 1.8-.7.3 0 .6 0 .9.1.3.1.6.2.9.4l.5-1.5c-.3-.2-.7-.4-1.2-.5-.4-.1-.9-.2-1.4-.2-.8 0-1.5.2-2.1.5-.6.4-1.1.9-1.5 1.5-.4.7-.6 1.4-.6 2.3 0 .8.2 1.6.5 2.2.3.6.8 1.2 1.4 1.5.6.4 1.4.6 2.2.6 1.2.1 2.1-.2 2.8-.7zm3.5-7.6h-1.9v8.3h1.9v-8.3zm9.3 4.1c0-.8-.2-1.6-.5-2.2-.3-.6-.8-1.1-1.4-1.4-.6-.3-1.4-.5-2.3-.5h-3v8.3h3c.8 0 1.6-.2 2.2-.5.6-.3 1.1-.8 1.5-1.4.3-.7.5-1.4.5-2.3z"/>
</svg>
