<svg xmlns="http://www.w3.org/2000/svg" viewBox="0 0 36 36">
  <path fill="#0568ae" d="M27 21c-3.3 0-6 2.7-6 6s2.7 6 6 6 6-2.7 6-6-2.7-6-6-6zm2.6 9.3h-5.2c-.3 0-.6-.3-.6-.6s.3-.6.6-.6h5.2c.3 0 .6.3.6.6s-.3.6-.6.6zm0-2.7h-5.2c-.3 0-.6-.3-.6-.6s.3-.6.6-.6h5.2c.3 0 .6.3.6.6s-.3.6-.6.6zm0-2.6h-5.2c-.3 0-.6-.3-.6-.6s.3-.6.6-.6h5.2c.3 0 .6.3.6.6s-.3.6-.6.6zm-10.1 2c0 .3 0 .7.1 1-2.9 3-6.9 4.2-10.2 2.9l-.4-.1c-.4-.2-.6-.6-.4-.9.2-.3.3-.5.3-.5l3-5.1s.2-.3.4-.7c.2-.4.7-.5 1.1-.3.4.2.7.4.7.4 1.4.8 3.1.3 3.9-1.1l3.5-6.1c.8-1.4.3-3.1-1.1-3.9 0 0-.3-.2-.7-.4-.4-.2-.6-.7-.3-1.1.2-.4.4-.7.4-.7l2.8-4.8s.2-.3.4-.7c.2-.4.8-.4 1.3-.1 0 0 .1 0 .5.4 3 2.9 3.5 8.3.9 12.8l-1.1 1.8c-2.9 1.1-5.1 3.9-5.1 7.2z"/>
</svg>
