<svg xmlns="http://www.w3.org/2000/svg" viewBox="0 0 36 36">
  <path fill="#0568ae" d="M26.6 13.2V10c0-1.8-1.5-3.3-3.3-3.3h-4.9l1.5-1.2c.2-.1.2-.4.1-.5-.1-.2-.4-.2-.5-.1l-1.8 1.4c-.2.2-.4.5-.4.7 0 .3.1.5.4.7l1.8 1.4c.1.1.1.1.2.1s.2-.1.3-.1c.1-.2.1-.4-.1-.5l-1.5-1.1h4.9c1.4 0 2.5 1.1 2.5 2.5v3H25c-1 0-1.9.3-2.7.7v-2.3c0-.2-.2-.4-.4-.4s-.4.2-.4.4v2.8c-.7.7-1.2 1.6-1.2 2.6v12.5c.1 2.1 2.1 3.8 4.6 3.8 2.5 0 4.6-1.7 4.6-3.8V16.9c.1-1.7-1.1-3.1-2.9-3.7zm2.3 16.1c0 1.7-1.8 3.1-3.9 3.1-2.1 0-3.8-1.4-3.9-3.1V16.9c0-1.7 1.7-3.1 3.9-3.1 2.1 0 3.9 1.4 3.9 3.1v12.4zM28 17v5.3c0 .4-.4.8-.8.8h-4.3c-.2 0-.4-.2-.4-.4s.2-.4.4-.4h4.3V17h-4.4v3.9c0 .2-.2.4-.4.4s-.4-.2-.4-.4V17c0-.4.4-.8.8-.8h4.3c.5 0 .9.4.9.8zm-5.5 7.8v-.4c0-.2.1-.3.3-.3h.5c.2 0 .3.1.3.3v.4c0 .2-.1.3-.3.3h-.5c-.2 0-.3-.2-.3-.3zm2 0v-.4c0-.2.1-.3.3-.3h.5c.2 0 .3.1.3.3v.4c0 .2-.1.3-.3.3h-.5c-.2 0-.3-.2-.3-.3zm2 0v-.4c0-.2.1-.3.3-.3h.5c.2 0 .3.1.3.3v.4c0 .2-.1.3-.3.3h-.5c-.2 0-.3-.2-.3-.3zm-2.9 1.5v.4c0 .2-.1.3-.3.3h-.5c-.2 0-.3-.1-.3-.3v-.4c0-.2.1-.3.3-.3h.5c.2 0 .3.2.3.3zm2 0v.4c0 .2-.1.3-.3.3h-.5c-.2 0-.3-.1-.3-.3v-.4c0-.2.1-.3.3-.3h.5c.1 0 .3.2.3.3zm1.9 0v.4c0 .2-.1.3-.3.3h-.4c-.2 0-.3-.1-.3-.3v-.4c0-.2.1-.3.3-.3h.4c.2 0 .3.2.3.3zm0 2v.4c0 .2-.1.3-.3.3h-.4c-.2 0-.3-.1-.3-.3v-.4c0-.2.1-.3.3-.3h.4c.2 0 .3.2.3.3zm-1.9 0v.4c0 .2-.1.3-.3.3h-.5c-.2 0-.3-.1-.3-.3v-.4c0-.2.1-.3.3-.3h.5c.1 0 .3.2.3.3zm-2 0v.4c0 .2-.1.3-.3.3h-.5c-.2 0-.3-.1-.3-.3v-.4c0-.2.1-.3.3-.3h.5c.2 0 .3.2.3.3zM13.1 14.1V8.8H8.7v3.9c0 .2-.2.4-.4.4-.1-.1-.3-.3-.3-.5V8.8c0-.5.4-.8.8-.8h4.3c.4 0 .8.4.8.8V14c0 .4-.4.8-.8.8H8.8c-.2 0-.4-.2-.4-.4s.2-.4.4-.4h4.3zm-4.6 2.4v-.4c0-.2.1-.3.3-.3h.5c.2 0 .3.1.3.3v.4c0 .2-.1.3-.3.3h-.5c-.2 0-.3-.1-.3-.3zm1.9 0v-.4c0-.2.1-.3.3-.3h.5c.2 0 .3.1.3.3v.4c0 .2-.1.3-.3.3h-.5c-.1 0-.3-.1-.3-.3zm2 0v-.4c0-.2.1-.3.3-.3h.5c.2 0 .3.1.3.3v.4c0 .2-.1.3-.3.3h-.5c-.2 0-.3-.1-.3-.3zm-2.9 1.6v.4c0 .2-.1.3-.3.3h-.4c-.2 0-.3-.1-.3-.3v-.4c0-.2.1-.3.3-.3h.5c.1 0 .2.1.2.3zm2 0v.4c0 .2-.1.3-.3.3h-.5c-.2 0-.3-.1-.3-.3v-.4c0-.2.1-.3.3-.3h.5c.2 0 .3.1.3.3zm2 0v.4c0 .2-.1.3-.3.3h-.4c-.2 0-.3-.1-.3-.3v-.4c0-.2.1-.3.3-.3h.4c.2 0 .3.1.3.3zm0 2v.4c0 .2-.1.3-.3.3h-.4c-.2 0-.3-.1-.3-.3v-.4c0-.2.1-.3.3-.3h.4c.2 0 .3.1.3.3zm-2.3.7h-.5c-.2 0-.3-.1-.3-.3v-.4c0-.2.1-.3.3-.3h.5c.2 0 .3.1.3.3v.4c0 .2-.1.3-.3.3zm-1.7-.7v.4c0 .2-.1.3-.3.3h-.4c-.2 0-.3-.1-.3-.3v-.4c0-.2.1-.3.3-.3h.5c.1 0 .2.1.2.3zm8.6 8.5l-1.8-1.4c-.2-.1-.4-.1-.5.1-.1.2-.1.4.1.5l1.5 1.1h-4.9c-1.4 0-2.5-1.1-2.5-2.5v-1.6c.3.1.7.1 1.1.1 2.5 0 4.6-1.7 4.6-3.8V8.6c0-2.1-2.1-3.9-4.6-3.9-1.1 0-2.1.3-2.8.8V3.2c0-.2-.2-.4-.4-.4s-.4.2-.4.4V6c-.7.7-1.1 1.6-1.1 2.6v12.5c0 1.6 1.2 2.9 2.8 3.5v1.8c0 1.8 1.5 3.3 3.3 3.3h4.9l-1.5 1.2c-.2.1-.2.4-.1.5.1.1.2.1.3.1.1 0 .2 0 .2-.1l1.8-1.4c.2-.2.4-.5.4-.7 0-.2-.2-.5-.4-.7zm-11-7.5V8.6c0-1.7 1.7-3.1 3.9-3.1 2.1 0 3.9 1.4 3.9 3.1v12.5c0 1.7-1.8 3.1-3.9 3.1-2.1 0-3.9-1.4-3.9-3.1z"/>
</svg>
