<svg xmlns="http://www.w3.org/2000/svg" viewBox="0 0 36 36">
  <g fill="#0568ae">
    <path d="M21.1 8.5c.2 0 .4-.2.4-.4v-.9c0-.7.5-1.2 1.2-1.2h4.4c.7 0 1.2.5 1.2 1.2v.9c0 .2.2.4.4.4s.3-.2.3-.4v-.9c0-1.1-.9-2-1.9-2h-4.4c-1.1 0-2 .9-2 2v.9c0 .2.2.4.4.4m2.8 19H5.3c-.6 0-1.1-.5-1.1-1.1V10.9c0-.6.5-1.1 1.1-1.1h.3c.2 0 .4-.2.4-.4S5.8 9 5.6 9h-.3c-1 0-1.9.8-1.9 1.9v15.5c0 1 .8 1.9 1.9 1.9H24c.2 0 .4-.2.4-.4-.1-.2-.3-.4-.5-.4"/>
    <path d="M32.6 26.4V10.9c0-1-.8-1.9-1.9-1.9H10L5.3 4.4c-.1-.1-.4-.1-.5 0-.1.1-.1.4 0 .5l4.8 4.8 21.9 21.9c.1.1.2.1.3.1.1 0 .2 0 .3-.1.1-.1.1-.4 0-.5l-2.9-2.9h1.5c1.1.1 1.9-.8 1.9-1.8M20 19l-6.9-6.9h.3c3.6 0 6.6 3 6.6 6.6v.3m.7.7c0-.3.1-.7.1-1 0-4.1-3.3-7.4-7.4-7.4-.3 0-.7 0-1 .1l-1.6-1.6h20c.6 0 1.1.5 1.1 1.1v15.5c0 .6-.5 1.1-1.1 1.1h-2.3l-7.8-7.8z"/>
    <path d="M28.4 11.9h-4.8c-.6 0-1.2.5-1.2 1.1v1.1c0 .7.6 1.3 1.3 1.3h4.8c.7 0 1.3-.6 1.3-1.3V13c-.2-.6-.7-1.1-1.4-1.1m.5 2.2c0 .3-.2.5-.5.5h-4.8c-.3 0-.5-.2-.5-.5v-1c0-.2.3-.4.5-.4h4.8c.2 0 .5.2.5.4v1zm-18 .8c.2-.1.2-.3.1-.5s-.3-.2-.5-.1c-1.5 1-2.4 2.7-2.4 4.5 0 .5.1 1 .2 1.4 0 .2.2.3.4.3h.1c.1-.1.2-.3.2-.5-.1-.4-.2-.8-.2-1.2 0-1.6.8-3 2.1-3.9m4.2 8.9h.1c1.1-.4 2.1-1.1 2.7-2.1.1-.2.1-.4-.1-.5-.2-.1-.4-.1-.5.1-.6.8-1.4 1.5-2.3 1.8-.2.1-.3.3-.2.5 0 .2.1.2.3.2"/>
    <path d="M9 12.9c-1.9 1.4-2.9 3.5-2.9 5.9 0 4.1 3.3 7.4 7.4 7.4 2.3 0 4.5-1.1 5.9-2.9.1-.2.1-.4-.1-.5-.2-.1-.4-.1-.5.1-1.3 1.7-3.2 2.6-5.3 2.6-3.6 0-6.6-3-6.6-6.6 0-2.1 1-4 2.6-5.3.2-.1.2-.4.1-.5-.2-.3-.4-.3-.6-.2"/>
  </g>  
</svg>
