<svg xmlns="http://www.w3.org/2000/svg" viewBox="0 0 36 36">
  <path fill="#0568ae" d="M30.43 11.571l-5.208 3.34V11.71c0-1.252-1.024-2.276-2.276-2.276H7.971c-1.252 0-2.276 1.024-2.276 2.276v.678h-.884c-.594 0-1.08.486-1.08 1.08v3.727c0 .594.486 1.08 1.08 1.08h.884v5.3c0 1.252 1.024 2.276 2.276 2.276h14.975c1.252 0 2.276-1.024 2.276-2.276v-3.201l5.208 3.34c1.012.649 1.839.196 1.839-1.006V12.576c0-1.202-.828-1.654-1.839-1.005zm-10.881 8.596c.205.206.319.479.319.77 0 .29-.113.564-.319.769-.205.206-.479.319-.769.319s-.564-.113-.769-.319l-2.527-2.526-2.531 2.531c-.206.205-.479.318-.769.318-.29 0-.563-.113-.769-.318-.206-.206-.319-.479-.319-.77s.113-.564.319-.769l2.531-2.531-2.527-2.527c-.206-.206-.319-.479-.319-.769 0-.291.113-.564.319-.769.411-.411 1.127-.412 1.538 0l2.527 2.527 2.527-2.527c.411-.411 1.127-.412 1.538 0 .205.205.318.478.318.769 0 .29-.113.564-.319.769l-2.527 2.527 2.528 2.526z"/>
</svg>
