<svg xmlns="http://www.w3.org/2000/svg" viewBox="0 0 36 36">
  <path fill="#0568ae" d="M20.707 8.545v-.902c0-1.077.881-1.953 1.966-1.953h4.386c1.069 0 1.939.876 1.939 1.953v.902c0 .207-.168.375-.375.375s-.375-.168-.375-.375v-.902c0-.674-.523-1.203-1.189-1.203h-4.386c-.67 0-1.216.54-1.216 1.203v.902c0 .207-.169.375-.375.375s-.375-.168-.375-.375zm11.899 2.826l-.001 15.47c0 1.024-.833 1.857-1.857 1.857H5.251c-1.024 0-1.857-.833-1.857-1.857v-15.47c0-1.024.833-1.858 1.857-1.858h25.498c1.024 0 1.857.833 1.857 1.858zm-.75 0c0-.611-.497-1.108-1.107-1.108H5.251c-.61 0-1.107.497-1.107 1.108v15.47c0 .61.497 1.107 1.107 1.107h25.498c.61 0 1.106-.497 1.106-1.107l.001-15.47zm-2.18 2.085l.003.051-.008 1.035c0 .695-.567 1.262-1.265 1.262h-4.791c-.696 0-1.262-.568-1.262-1.265l-.014-1.03.003-.053c.08-.629.618-1.103 1.249-1.103h4.834c.634-.001 1.171.474 1.251 1.103zm-.747.073c-.042-.245-.254-.427-.503-.427h-4.834c-.247 0-.458.182-.501.426l.013 1.005c0 .289.23.52.512.52h4.791c.284 0 .515-.231.515-.515l.007-1.009zm-15.497.293c-2.957.006-5.367 2.415-5.371 5.374.002.483.066.958.19 1.409.054.199.259.317.46.263.2-.055.317-.261.263-.461-.106-.388-.16-.796-.163-1.212.004-2.544 2.077-4.618 4.621-4.622 2.545.005 4.62 2.079 4.623 4.622-.003 1.966-1.252 3.721-3.107 4.368-.195.068-.298.282-.23.477.054.155.199.252.354.252l.124-.021c2.155-.751 3.606-2.791 3.61-5.076-.006-2.957-2.415-5.367-5.374-5.373zm7.358 5.372c-.001 4.054-3.302 7.352-7.357 7.352-4.054 0-7.352-3.298-7.352-7.352 0-4.056 3.298-7.356 7.352-7.356 4.055 0 7.356 3.3 7.357 7.356zm-.75 0c-.001-3.642-2.965-6.606-6.607-6.606-3.64 0-6.602 2.963-6.602 6.606 0 3.64 2.962 6.602 6.602 6.602 3.641 0 6.606-2.962 6.607-6.602z"/>
</svg>
