<svg xmlns="http://www.w3.org/2000/svg" viewBox="0 0 36 36">
  <path fill="#0568ae" d="M30.749 9.916h-2.125v-.703c0-.873-.694-1.578-1.565-1.578h-4.386c-.87 0-1.59.704-1.59 1.578v.703H5.25c-.818 0-1.481.661-1.481 1.483v15.47c0 .82.661 1.482 1.481 1.482h25.498c.817 0 1.482-.662 1.482-1.482v-15.47c.001-.822-.665-1.483-1.481-1.483zM13.433 26.251c-3.876 0-7.029-3.153-7.029-7.029 0-3.878 3.153-7.033 7.029-7.033 3.878 0 7.033 3.155 7.034 7.033-.002 3.876-3.157 7.029-7.034 7.029zm15.863-11.685c0 .489-.398.89-.889.89h-4.791c-.489 0-.887-.401-.887-.89l-.013-1.035c.056-.436.425-.776.877-.776h4.834c.453 0 .823.341.878.776l-.009 1.035zm-10.33 4.656c-.001 3.049-2.483 5.529-5.534 5.529-3.049 0-5.529-2.48-5.529-5.529 0-3.051 2.48-5.533 5.529-5.533 3.051 0 5.533 2.482 5.534 5.533z"/>
</svg>
