<svg xmlns="http://www.w3.org/2000/svg" viewBox="0 0 36 36">
  <path fill="#0568ae" d="M26.048 10.344c.099.182.031.41-.15.509l-13.202 7.163-.178.045c-.133 0-.262-.071-.33-.196-.099-.182-.031-.41.151-.509l13.201-7.163c.182-.099.409-.031.508.151zm5.848 10.562v5.467c0 .207-.168.375-.375.375s-.375-.168-.375-.375v-2.415h-5.257c-.934 0-2.008-.648-2.443-1.474l-1.197-2.271-7.562 4.104c-.264.143-.561.219-.861.219-.669 0-1.282-.363-1.6-.948l-.15-.277-2 3.261c-.346.567-.817.877-1.328.877l-.032-.001c-.524-.013-.991-.349-1.316-.946l-3.079-5.677c-.324-.596-.351-1.17-.079-1.616.273-.446.798-.683 1.476-.666l3.825.101-.149-.276c-.23-.425-.281-.915-.143-1.381.138-.466.448-.85.873-1.08l15.406-8.36c.263-.143.562-.219.861-.219.669 0 1.282.363 1.6.948l2.832 5.22c.477.879.149 1.983-.729 2.46l-7.185 3.899 1.201 2.279c.307.582 1.122 1.074 1.78 1.074h5.257v-2.302c0-.207.168-.375.375-.375.206 0 .374.168.374.375zm-20.233 1.642l-1.712-3.154-.048.008-4.204-.11c-.396-.006-.692.102-.817.308-.126.205-.09.521.098.867l3.079 5.676c.188.346.435.548.676.555.223-.003.496-.183.701-.519l2.227-3.631zm18.073-7.252c.515-.28.707-.928.428-1.444l-2.832-5.22c-.186-.343-.547-.556-.94-.556-.176 0-.35.044-.504.128l-15.406 8.36c-.25.135-.431.36-.512.634-.082.274-.052.561.083.81l2.832 5.219c.269.496.944.7 1.444.429l15.407-8.36z"/>
</svg>
