<svg xmlns="http://www.w3.org/2000/svg" viewBox="0 0 36 36">
  <path fill="#0568ae" d="M31.573 19.772c-.552 0-1 .448-1 1v1.677h-4.632c-.422 0-1.03-.367-1.227-.74l-1.349-2.56-.036-.054 6.638-3.602c.695-.377.956-1.256.578-1.952l-2.832-5.22c-.379-.696-1.256-.957-1.953-.579l-15.406 8.36c-.697.378-.957 1.257-.58 1.953l.679 1.251-5.14-.335c-.849-.055-1.207.509-.795 1.253l3.471 6.275c.412.744 1.08.741 1.484-.007l2.434-4.506.699 1.288c.378.696 1.257.957 1.952.579l7.02-3.809.015.038 1.35 2.561c.544 1.03 1.832 1.807 2.996 1.807h4.632v1.79c0 .552.448 1 1 1s1-.448 1-1v-5.467c.002-.553-.446-1.001-.998-1.001zm-17.825-1.253c-.113.062-.236.091-.357.091-.266 0-.524-.142-.66-.392-.198-.364-.063-.819.302-1.017l12.223-6.632c.363-.197.82-.063 1.017.302.198.364.063.819-.301 1.017l-12.224 6.631z"/>
</svg>
