<svg xmlns="http://www.w3.org/2000/svg" viewBox="0 0 36 36">
  <path fill="#0568ae" d="M18.015 33.375C9.537 33.375 2.64 26.478 2.64 18S9.537 2.625 18.015 2.625 33.39 9.522 33.39 18s-6.897 15.375-15.375 15.375zm0-30C9.951 3.375 3.39 9.936 3.39 18s6.561 14.625 14.625 14.625c8.065 0 14.625-6.561 14.625-14.625S26.079 3.375 18.015 3.375zm0 19.05c-2.44 0-4.425-1.985-4.425-4.425 0-2.44 1.985-4.425 4.425-4.425 2.44 0 4.425 1.985 4.425 4.425 0 2.44-1.985 4.425-4.425 4.425zm0-8.1c-2.026 0-3.675 1.649-3.675 3.675s1.648 3.675 3.675 3.675c2.026 0 3.675-1.649 3.675-3.675s-1.649-3.675-3.675-3.675zM25.14 18c0-3.929-3.196-7.125-7.125-7.125S10.89 14.071 10.89 18c0 .721.108 1.434.32 2.119.061.198.271.308.469.247.198-.062.308-.271.247-.47-.19-.612-.286-1.251-.286-1.896 0-3.515 2.86-6.375 6.375-6.375S24.39 14.485 24.39 18s-2.86 6.375-6.375 6.375c-.753 0-1.49-.13-2.192-.387-.196-.072-.41.028-.481.223-.071.195.029.41.223.481.785.287 1.609.433 2.45.433 3.928 0 7.125-3.196 7.125-7.125z"/>
</svg>
