<svg xmlns="http://www.w3.org/2000/svg" viewBox="0 0 36 36">
  <path fill="#0568ae" d="M25 20.6h-.3l1.4-2.4c2.6-4.6 2.2-10.1-1-13.2-.4-.4-.5-.4-.5-.5-.4-.3-.8-.4-1.2-.3-.3.1-.5.2-.6.5l-3.5 6.1c-.3.6-.1 1.3.5 1.6l.7.4c1.2.7 1.6 2.2.9 3.4l-3.5 6.1c-.3.6-.9 1-1.5 1.2-.6.2-1.3.1-1.9-.2l-.9-.3c-.6-.3-1.3-.2-1.7.4l-2.6 4.5c-.1.2 0 .4.1.5.1 0 .1.1.2.1s.3-.1.3-.2l2.6-4.5c.1-.2.4-.3.6-.1l.7.4c.8.4 1.6.5 2.5.3.8-.2 1.5-.8 2-1.5l3.5-6.1c.9-1.6.4-3.5-1.2-4.4l-.6-.5c-.2-.1-.3-.4-.2-.6l3.5-6.1s.1-.1.2-.1.4 0 .6.1l.4.4c3 2.8 3.3 8 .9 12.3l-1.7 2.9c-2.9.6-5.1 3.2-5.1 6.2 0 .4 0 .8.1 1.3-2.4 2.2-5.5 3.2-8.3 2.6-.2 0-.4.1-.4.3 0 .2.1.4.3.4.6.1 1.2.2 1.9.2 2.4 0 4.8-1 6.8-2.7.9 2.5 3.2 4.3 6 4.3 3.5 0 6.4-2.9 6.4-6.4s-2.9-6.4-6.4-6.4zm0 12c-3.1 0-5.6-2.5-5.6-5.6s2.5-5.6 5.6-5.6c3.1 0 5.6 2.5 5.6 5.6s-2.5 5.6-5.6 5.6zm3-7.9l-3.3 5.4c-.1.2-.3.3-.5.3s-.3-.1-.5-.2l-2-2.5c-.1-.2-.1-.4.1-.5.2-.1.4-.1.5.1l1.8 2.3 3.2-5.2c.1-.2.3-.2.5-.1.3 0 .3.2.2.4z"/>
</svg>
