<svg xmlns="http://www.w3.org/2000/svg" viewBox="0 0 36 36">
  <path fill="#0568ae" d="M30.5 6.1H11v-.3c0-.6-.5-1.3-1.2-1.4-1.7-.4-3.6-.4-5.3 0-.6.2-1.2.8-1.2 1.4v5.7c0 .5.3.9.8 1.1.3.1.3.2.3.4v7c0 .2-.1.3-.4.4-.4.2-.8.4-.8 1.1v5.7c0 .6.5 1.3 1.2 1.4 1 .3 1.9.4 2.8.4.9 0 1.8-.1 2.7-.3.6-.1 1.2-.8 1.2-1.4v-5.7c0-.5-.3-.9-.8-1.1-.3-.1-.3-.2-.3-.4v-6.9c0-.2.1-.3.4-.4.3-.1.8-.4.8-1.1V6.8h19.5c.8 0 1.4.6 1.4 1.4v21.3c0 .8-.6 1.4-1.4 1.4H7.2c-.2 0-.4.2-.4.4s.2.4.4.4h23.3c1.2 0 2.2-1 2.2-2.2V8.3c0-1.3-1-2.2-2.2-2.2zm-20.3 5.5c0 .2 0 .3-.3.4-.5.2-.8.6-.8 1.1V20c0 .7.5 1 .8 1.1.3.1.3.2.3.4v5.7c0 .2-.3.6-.6.7-1.6.3-3.4.3-5 0-.3-.1-.6-.4-.6-.7v-5.7c0-.2 0-.3.3-.4.6-.1.9-.5.9-1.1v-6.9c0-.7-.5-1-.8-1.1-.3-.1-.3-.2-.3-.4V5.8c0-.2.3-.6.6-.7.8-.1 1.6-.2 2.5-.2.8 0 1.6.1 2.5.3.3.1.6.4.6.7v5.7zm18.7 3.3v-3.5c0-.7-.6-1.3-1.3-1.3H14.9c-.7 0-1.3.6-1.3 1.3v3.5c0 .7.6 1.3 1.3 1.3h12.7c.7 0 1.3-.6 1.3-1.3zm-.8 0c0 .3-.2.6-.5.6H14.9c-.3 0-.5-.3-.5-.6v-3.5c0-.3.2-.6.5-.6h12.7c.3 0 .5.2.5.6v3.5zm-10.3 5.6c0 .2-.1.3-.3.3h-2.8c-.2 0-.3-.1-.3-.3v-.8c0-.2.1-.3.3-.3h2.8c.2 0 .3.1.3.3v.8zm5.1 0c0 .2-.1.3-.3.3h-2.8c-.2 0-.3-.1-.3-.3v-.8c0-.2.1-.3.3-.3h2.8c.2 0 .3.1.3.3v.8zm5.2 0c0 .2-.1.3-.3.3H25c-.2 0-.3-.1-.3-.3v-.8c0-.2.1-.3.3-.3h2.8c.2 0 .3.1.3.3v.8zm-10.3 3.2c0 .2-.1.3-.3.3h-2.8c-.2 0-.3-.1-.3-.3v-.8c0-.2.1-.3.3-.3h2.8c.2 0 .3.1.3.3v.8zm5.1 0c0 .2-.1.3-.3.3h-2.8c-.2 0-.3-.1-.3-.3v-.8c0-.2.1-.3.3-.3h2.8c.2 0 .3.1.3.3v.8zm5.2 0c0 .2-.1.3-.3.3H25c-.2 0-.3-.1-.3-.3v-.8c0-.2.1-.3.3-.3h2.8c.2 0 .3.1.3.3v.8zm-10.3 2.4v.8c0 .2-.1.3-.3.3h-2.8c-.2 0-.3-.1-.3-.3v-.8c0-.2.1-.3.3-.3h2.8c.1 0 .3.1.3.3zm5.1 0v.8c0 .2-.1.3-.3.3h-2.8c-.2 0-.3-.1-.3-.3v-.8c0-.2.1-.3.3-.3h2.8c.2 0 .3.1.3.3zm5.2 0v.8c0 .2-.1.3-.3.3H25c-.2 0-.3-.1-.3-.3v-.8c0-.2.1-.3.3-.3h2.8c.2 0 .3.1.3.3z"/>
</svg>
