<svg xmlns="http://www.w3.org/2000/svg" viewBox="0 0 36 36">
  <path fill="#0568ae" d="M9.7 19.9c0 .5.2.6.6.8.3.1.6.3.6.8v5.7c0 .4-.4.9-.9 1-1.7.4-3.5.4-5.2 0-.5-.1-.9-.6-.9-1v-5.7c0-.4.2-.6.6-.8.3-.1.5-.3.5-.8V13c0-.5-.2-.6-.6-.8-.3-.1-.6-.3-.6-.8V5.7c0-.4.4-.9.9-1 1.7-.4 3.5-.4 5.2 0 .5.1.9.6.9 1v5.7c0 .4-.2.6-.6.8-.3.1-.6.3-.6.8.1 2.3.1 4.6.1 6.9zM32.1 7.8v22.3c0 .8-.7 1.5-1.5 1.5H8.5c-.8 0-1.5-.7-1.5-1.5V30c1 0 1.9-.1 2.9-.3 1.2-.3 2.1-1.3 2.1-2.5v-5.7c0-.4-.1-1.4-1.1-2v-6.1c.5-.3 1.1-.8 1.1-2V6.3h18.7c.7 0 1.4.7 1.4 1.5zM18 26c0-.2-.1-.3-.3-.3h-2.8c-.2 0-.3.1-.3.3v.8c0 .2.1.3.3.3h2.8c.2 0 .3-.1.3-.3V26zm0-3.2c0-.2-.1-.3-.3-.3h-2.8c-.2 0-.3.1-.3.3v.8c0 .2.1.3.3.3h2.8c.2 0 .3-.1.3-.3v-.8zm0-3.3c0-.2-.1-.3-.3-.3h-2.8c-.2 0-.3.1-.3.3v.8c0 .2.1.3.3.3h2.8c.2 0 .3-.1.3-.3v-.8zm5.1 6.5c0-.2-.1-.3-.3-.3H20c-.2 0-.3.1-.3.3v.8c0 .2.1.3.3.3h2.8c.2 0 .3-.1.3-.3V26zm0-3.2c0-.2-.1-.3-.3-.3H20c-.2 0-.3.1-.3.3v.8c0 .2.1.3.3.3h2.8c.2 0 .3-.1.3-.3v-.8zm0-3.3c0-.2-.1-.3-.3-.3H20c-.2 0-.3.1-.3.3v.8c0 .2.1.3.3.3h2.8c.2 0 .3-.1.3-.3v-.8zm5.2 6.5c0-.2-.1-.3-.3-.3h-2.8c-.2 0-.3.1-.3.3v.8c0 .2.1.3.3.3H28c.2 0 .3-.1.3-.3V26zm0-3.2c0-.2-.1-.3-.3-.3h-2.8c-.2 0-.3.1-.3.3v.8c0 .2.1.3.3.3H28c.2 0 .3-.1.3-.3v-.8zm0-3.3c0-.2-.1-.3-.3-.3h-2.8c-.2 0-.3.1-.3.3v.8c0 .2.1.3.3.3H28c.2 0 .3-.1.3-.3v-.8zm0-8c0-.5-.4-.9-.9-.9H15.5c-.5 0-.9.4-.9.9v3.3c0 .5.4.9.9.9h11.9c.5 0 .9-.4.9-.9v-3.3z"/>
</svg>
