<svg xmlns="http://www.w3.org/2000/svg" viewBox="0 0 36 36">
  <path fill="#0568ae" d="M32.487 19.364H29.95V7.427c0-.55-.45-1-1-1H11.783c-.55 0-.999.45-.999 1v3.506H7.661c-.549 0-.999.45-.999 1v3.506H3.577c-.55 0-1 .45-1 1v12.165c0 .55.45 1 1 1h6.259c.549 0 .999-.45.999-1v-.996h8.169c.55 0 1-.45 1-1v-4.809h12.482c.672 0 1.218-.545 1.218-1.217 0-.673-.545-1.218-1.217-1.218zM7.536 28.637H5.852c-.334 0-.607-.272-.607-.608 0-.335.273-.607.607-.607h1.684c.336 0 .607.271.607.607 0 .336-.271.607-.607.608zm1.942-2.578c0 .208-.169.378-.377.378H4.313c-.208 0-.378-.169-.378-.378v-8.895c0-.208.17-.378.378-.378H9.1c.208 0 .377.169.377.378v8.895zm6.22.491h-1.684c-.334-.001-.607-.272-.607-.608 0-.335.273-.606.607-.606h1.684c.336 0 .607.271.607.606 0 .336-.271.607-.607.608zm2.197 0c-.351-.001-.634-.275-.634-.615 0-.339.283-.613.634-.613.348 0 .632.274.632.613.001.34-.284.614-.632.615zm.752-7.186v4.546c0 .208-.169.378-.377.378h-7.434v-7.849c0-.106-.021-.206-.052-.302-.129-.403-.504-.698-.948-.698H8.02v-2.78c0-.208.169-.378.377-.378h9.872c.208 0 .377.169.377.378v6.705zm3.028 1.377h-1.67v-1.218h1.67c.336 0 .609.273.609.609 0 .337-.273.609-.609.609zm6.918-2.72c0 .208-.169.378-.378.378h-8.21v-6.466c0-.55-.45-1-1-1h-6.863v-2.78c0-.208.169-.378.378-.378h15.695c.208 0 .378.169.378.378v9.868z"/>
</svg>
