<svg xmlns="http://www.w3.org/2000/svg" viewBox="0 0 36 36">
  <path fill="#0568ae" d="M31.534 18.815H29.68V8.641c0-1.148-.934-2.082-2.083-2.082H12.771c-1.148 0-2.081.934-2.081 2.082v3.143H8.534c-1.139 0-2.065.927-2.065 2.067v2.801c-.616.007-1.465.025-1.97.073-.975.092-1.512.656-1.512 1.59v10.922c0 .933.537 1.498 1.512 1.591.762.072 2.31.076 2.654.076h.066c.078 0 1.871.004 2.713-.076.974-.093 1.51-.658 1.51-1.591v-.885h6.827c1.139 0 2.066-.927 2.066-2.066v-4.479h11.198c.705 0 1.278-.573 1.278-1.278v-.435c.001-.706-.572-1.279-1.277-1.279zM11.44 8.641c0-.735.597-1.332 1.331-1.332h14.826c.735 0 1.333.598 1.333 1.332v10.174h-8.594v-.669h6.869c.539 0 .977-.439.977-.977V9.044c0-.539-.438-.977-.977-.977H13.136c-.539 0-.977.438-.977.977v2.74h-.719V8.641zm12.306 6.912c-.226-.506-.761-.928-1.516-1.206.266-.298.463-.653.573-1.039.07-.24.105-.487.105-.734 0-1.472-1.199-2.67-2.673-2.67-1.175 0-2.201.779-2.544 1.88h-4.783v-2.74c0-.123.104-.227.227-.227h14.069c.123 0 .227.104.227.227v8.125c0 .123-.104.227-.227.227H24.33c-.192-.837-.391-1.467-.584-1.843zM10.693 29.237c0 .543-.241.788-.831.844-.806.076-2.619.072-2.643.073-.017 0-1.844.003-2.65-.073-.591-.056-.832-.3-.832-.844V18.314c0-.543.241-.788.832-.844.736-.07 2.32-.073 2.604-.073h.044c.017-.001 1.838-.003 2.645.073.59.056.831.3.831.844v10.923zm7.502-4.75h-6.752v-6.172c0-.934-.537-1.499-1.511-1.59-.326-.031-.794-.049-1.25-.06v-2.58c0-.043.033-.089.089-.089h9.332c.06 0 .087.013.087.089v8.663l.005 1.739zm1.391 1.798c0 .726-.59 1.316-1.316 1.316h-6.827v-2.365h6.752c.414 0 .752-.332.752-.74l-.007-10.412c0-.486-.352-.839-.837-.839H8.771c-.462 0-.839.376-.839.839v2.567l-.714-.004V13.85c0-.726.59-1.317 1.315-1.317h9.736c.725 0 1.316.591 1.316 1.317v12.435zm-1.109-14.48c.301-.684.985-1.151 1.758-1.151 1.06 0 1.923.862 1.923 1.92 0 .176-.025.352-.076.526-.125.438-.405.82-.79 1.075l-.05.036c-.119.087-.164.238-.134.383.03.144.154.26.298.292.835.186 1.469.558 1.663.991.157.308.325.836.489 1.518h-3.223V13.85c.001-1.068-.817-1.939-1.858-2.045zm13.585 8.723c0 .292-.237.528-.528.528H20.336v-.371h1.292c.207 0 .375-.168.375-.375s-.168-.375-.375-.375h-1.292v-.371h11.197c.292 0 .528.237.528.528v.436zm-23.877 8.39c0 .207-.168.375-.375.375H6.574c-.207 0-.375-.168-.375-.375s.168-.375.375-.375H7.81c.207 0 .375.168.375.375zm8.564-2.488c0 .207-.168.375-.375.375h-1.236c-.207 0-.375-.168-.375-.375s.168-.375.375-.375h1.236c.207 0 .375.167.375.375zm-6.61-7.083v7.722c0 .363-.295.659-.658.659H4.95c-.207 0-.375-.168-.375-.375s.168-.375.375-.375h4.438V19.44H5.044v2.99c0 .207-.168.375-.375.375s-.375-.168-.375-.375v-3.083c0-.31.22-.559.51-.627l.146-.03h4.531c.362.001.658.295.658.657zm8.289 7.072c0 .321-.268.58-.597.581-.331-.001-.598-.26-.598-.581 0-.32.267-.579.598-.579.329 0 .597.259.597.579z"/>
</svg>
