<svg xmlns="http://www.w3.org/2000/svg" viewBox="0 0 36 36">
  <path fill="#0568ae" d="M10.557 9.467v-.845c0-.186.152-.337.338-.337h.845c.186 0 .338.152.338.337v.844c0 .187-.151.338-.338.338h-.845c-.186.001-.338-.151-.338-.337zm0 2.588c0 .186.152.338.338.338h.845c.186 0 .338-.153.338-.338v-.845c0-.186-.151-.339-.338-.339h-.845c-.186 0-.338.153-.338.339v.845zm0 2.588c0 .186.152.338.338.338h.845c.186 0 .338-.153.338-.338v-.844c0-.186-.151-.338-.338-.338h-.845c-.186 0-.338.153-.338.338v.844zm3.02-4.837h.845c.185 0 .338-.153.338-.338v-.846c0-.186-.153-.337-.338-.337h-.845c-.188 0-.339.152-.339.337v.845c0 .186.152.339.339.339zm-.339 4.837c0 .186.151.338.339.338h.845c.185 0 .338-.153.338-.338v-.845c0-.186-.153-.338-.338-.338h-.845c-.188 0-.339.152-.339.338v.845zm3.02-2.25h.845c.185 0 .338-.153.338-.338v-.845c0-.186-.152-.339-.338-.339h-.845c-.188 0-.339.153-.339.339v.844c0 .187.151.339.339.339zm-.339 2.25c0 .186.151.338.339.338h.845c.185 0 .338-.153.338-.338v-.844c0-.186-.152-.338-.338-.338h-.845c-.188 0-.339.153-.339.338v.844zm3.019-4.838h.845c.186 0 .338-.152.338-.338v-.845c0-.186-.152-.337-.338-.337h-.845c-.187 0-.339.152-.339.337v.844c.001.187.153.339.339.339zm-.338 2.25c0 .186.152.338.339.338h.845c.186 0 .338-.153.338-.338v-.845c0-.186-.152-.339-.338-.339h-.845c-.187 0-.339.153-.339.339v.845zm0 2.588c0 .186.152.338.339.338h.845c.186 0 .338-.153.338-.338v-.844c0-.186-.152-.338-.338-.338h-.845c-.187 0-.339.153-.339.338v.844zm3.02-4.837h.845c.185 0 .338-.153.338-.338v-.846c0-.186-.153-.337-.338-.337h-.845c-.186 0-.338.152-.338.337v.845c-.001.186.152.339.338.339zm-.339 2.249c0 .187.152.338.338.338h.845c.185 0 .338-.152.338-.338v-.845c0-.186-.153-.339-.338-.339h-.844c-.186 0-.338.153-.338.339v.845zm3.019.338h.846c.188 0 .338-.153.338-.338v-.845c0-.186-.151-.339-.338-.339H24.3c-.185 0-.337.153-.337.339v.844c0 .187.151.339.337.339zm-.337 2.25c0 .186.151.338.337.338h.846c.188 0 .338-.153.338-.338v-.844c0-.186-.151-.338-.338-.338H24.3c-.185 0-.337.153-.337.338v.844zm-10.725 2.571c0 .186.151.338.339.338h.845c.185 0 .338-.152.338-.338v-.845c0-.186-.153-.337-.338-.337h-.845c-.188 0-.339.152-.339.337v.845zm5.362 0c0 .186.152.337.339.337h.845c.186 0 .338-.151.338-.337v-.845c0-.186-.152-.337-.338-.337h-.845c-.187 0-.339.152-.339.337v.845zm2.681 0c0 .186.152.338.338.338h.845c.185 0 .338-.152.338-.338v-.845c0-.186-.153-.337-.338-.337h-.844c-.186 0-.338.152-.338.337v.845zm5.225-10.743H9.495c-.412 0-.748.336-.748.75v7.265c0 .207.168.375.375.375s.375-.168.375-.375l-.002-7.265h17.008l.002 11.369h-15.6c-.207 0-.375.168-.375.375s.168.375.375.375h15.6c.413 0 .748-.336.748-.75V7.221c0-.414-.335-.75-.747-.75zm5.718 24.648c0 .207-.168.375-.375.375H4.151c-.207 0-.375-.168-.375-.375s.168-.375.375-.375h2.401V6.294c0-1.001.814-1.815 1.814-1.815h19.265c1 0 1.815.814 1.815 1.815v24.451h2.401c.209-.001.377.167.377.374zm-24.921-.375h21.395V6.294c0-.587-.478-1.065-1.065-1.065H8.367c-.587 0-1.064.478-1.064 1.065v24.45z"/>
</svg>
