<svg xmlns="http://www.w3.org/2000/svg" viewBox="0 0 36 36">
  <path fill="#0568ae" d="M31.183 13.558v17.328c0 .676-.55 1.226-1.226 1.226H9.761c-.676 0-1.226-.55-1.226-1.226v-4.83c0-.371.305-.565.678-.431l.661.216c4.755 1.49 10.161 1.792 13.017 1.836l1.296.017c.396-.015.719-.352.719-.748v-6.487c0-.396-.324-.72-.72-.72H9.254c-.396 0-.72-.324-.72-.72v-5.46c0-.676.55-1.226 1.226-1.226h20.196c.677-.001 1.227.549 1.227 1.225zM6.817 18.324V4.887c0-.552-.448-1-1-1s-1 .448-1 1v13.437c0 .552.448 1 1 1s1-.447 1-1zm17.08 3.035c0-.373-.302-.675-.675-.675h-3.394c-.373 0-.675.302-.675.675 0 .373.302.675.675.675h3.394c.373 0 .675-.302.675-.675zm0 2.296c0-.373-.302-.675-.675-.675h-3.394c-.373 0-.675.302-.675.675 0 .373.302.675.675.675h3.394c.373 0 .675-.302.675-.675zm0 2.296c0-.373-.302-.675-.675-.675h-3.394c-.373 0-.675.302-.675.675s.302.675.675.675h3.394c.373 0 .675-.302.675-.675z"/>
</svg>
