<svg xmlns="http://www.w3.org/2000/svg" viewBox="0 0 36 36">
  <path fill="#0568ae" d="M10 28.3c-.1.1-.2.2-.3.2-.1 0-.1 0-.2-.1-.2-.1-.2-.3-.1-.5l2.6-4.5c.3-.6 1.1-.7 1.7-.4l.7.4c.6.3 1.3.4 1.9.2.6-.2 1.2-.6 1.5-1.2l.2-.4c.1-.2.3-.2.5-.1s.2.3.1.5l-.2.4c-.4.8-1.1 1.3-2 1.5-.8.2-1.7.1-2.5-.3l-.7-.4c-.2-.1-.5-.1-.6.1L10 28.3zm11.7-3.2c-.2-.1-.4 0-.5.1l-.1.1c-2.4 4.1-6.8 6.4-10.7 5.5-.2 0-.4.1-.4.3 0 .2.1.4.3.4.6.1 1.2.2 1.9.2 3.7 0 7.4-2.3 9.6-6.1l.1-.1c0-.1-.1-.3-.2-.4zm8.6 5.2c-.1.1-.2.1-.3.1-.1 0-.2 0-.3-.1l-24-24c-.1-.1-.1-.4 0-.5.1-.1.4-.1.5 0l13.4 13.4 1.6-2.8c.7-1.2.3-2.7-.9-3.4l-.7-.4c-.3-.2-.5-.4-.6-.7-.1-.3-.1-.6.1-.9l3.5-6.1c.1-.2.4-.4.6-.5.4-.1.8 0 1.2.3l.5.5c3.2 3.1 3.6 8.6 1 13.2L23.2 23l6.9 6.9c.3 0 .3.2.2.4zM20.2 19.7l2.6 2.6 2.6-4.5c2.5-4.3 2.1-9.5-.9-12.3l-.4-.4c-.2-.1-.4-.1-.6-.1-.1 0-.1.1-.2.1l-3.5 6.1c-.1.1-.1.2 0 .3 0 .1.1.2.2.3l.7.4c1.6.9 2.1 2.9 1.2 4.4l-1.7 3.1z"/>
</svg>
