<svg xmlns="http://www.w3.org/2000/svg" viewBox="0 0 36 36">
  <path fill="#0568ae" d="M33.8 9.7H28v-.9c0-.2-.2-.4-.4-.4s-.4.2-.4.4v.9h-5.8c-.2 0-.4.2-.4.4s.2.4.4.4h5.8v4.2c0 .4-.4.8-.8.8H9.7c-.4 0-.8-.4-.8-.8v-4.2h5.8c.2 0 .4-.2.4-.4s-.2-.4-.4-.4H9v-.9c0-.2-.2-.4-.4-.4s-.4.2-.4.4v.9H2.4c-.2 0-.4.2-.4.4s.2.4.4.4h5.8v4.2c0 .8.7 1.5 1.5 1.5h1.9L5 26.9c-.1.2-.1.4.1.5.1 0 .1.1.2.1s.2-.1.3-.2l6.9-11.1h5.1v3h-4.5c-.5 0-.9.4-.9.9V26c0 .5.4.9.9.9h9.7c.5 0 .9-.4.9-.9v-5.9c0-.5-.4-.9-.9-.9h-4.5v-3h5.2l6.8 11.1c.1.1.2.2.3.2.1 0 .1 0 .2-.1.2-.1.2-.3.1-.5l-6.6-10.7h2c.8 0 1.5-.7 1.5-1.5v-4.2h5.8c.2 0 .4-.2.4-.4.2-.2 0-.4-.2-.4zM23 20.1V26c0 .1-.1.2-.2.2h-9.7c-.1 0-.2-.1-.2-.2v-5.9c0-.1.1-.2.2-.2h9.7c.2 0 .2.1.2.2zm-6.7 5.7c.3 0 .7-.1 1-.2 1.1-.4 1.8-1.4 1.8-2.6 0-1.5-1.2-2.8-2.8-2.8-1.5 0-2.8 1.2-2.8 2.8 0 .3 0 .5.1.8.3 1.2 1.4 2 2.7 2zm0-4.8c1.1 0 2 .9 2 2 0 .8-.5 1.6-1.3 1.9-.2.1-.5.1-.7.1-.9 0-1.7-.6-1.9-1.4-.1-.2-.1-.4-.1-.6-.1-1.1.8-2 2-2zm3.1-.1c0-.2.2-.4.4-.4H22c.2 0 .4.2.4.4s-.2.4-.4.4h-2.2c-.2 0-.4-.2-.4-.4z"/>
</svg>
