<svg xmlns="http://www.w3.org/2000/svg" viewBox="0 0 36 36">
  <path fill="#0568ae" d="M28.4 15.4v-3.9c.7.1 1.4.2 2.3.2 2.4 0 4.3-.5 4.3-1.1s-2-1-4.4-1c-.8 0-1.6.1-2.3.2v-.2c0-.6-.4-1-1-1s-1 .4-1 1v.1c-.7-.1-1.4-.2-2.3-.2-2.4 0-4.3.5-4.3 1.1s1.9 1.1 4.3 1.1c.8 0 1.6-.1 2.3-.2v2.9H9.6v-2.9c.7.1 1.4.2 2.3.2 2.4 0 4.3-.5 4.3-1.1s-1.9-1.1-4.3-1.1c-.8 0-1.6.1-2.3.2 0-.6-.4-1-1-1s-1 .4-1 1c-.6 0-1.4-.1-2.2-.1-2.4 0-4.3.5-4.3 1.1s1.9 1.1 4.3 1.1c.8 0 1.6-.1 2.3-.2v3.9c0 .6.4 1 1 1h2.2L5.5 25c-.3.5-.1 1.1.3 1.4.2.1.3.2.5.2.3 0 .7-.2.9-.5l5.9-9.5s0-.1.1-.1h2.6v2h-2.4c-.3 0-.5.2-.5.5v5.7c0 .3.2.5.5.5h9.4c.3 0 .5-.2.5-.5V19c0-.3-.2-.5-.5-.5h-2.4v-2H23s0 .1.1.1l5.9 9.5c.2.3.5.5.9.5.2 0 .4 0 .5-.2.5-.3.6-.9.3-1.4l-5.3-8.6h2.2c.3 0 .8-.4.8-1zm-12.1 9c-1.4 0-2.6-1.2-2.6-2.6 0-1.4 1.2-2.6 2.6-2.6 1.4 0 2.6 1.2 2.6 2.6 0 1.5-1.1 2.6-2.6 2.6zm5.9-4.7v.4c0 .2-.1.3-.3.3h-1.8c-.2 0-.3-.1-.3-.3v-.4c0-.2.2-.3.3-.3h1.8l.3.3zm-4.1 2.1c0 1-.8 1.8-1.8 1.8s-1.8-.8-1.8-1.8.8-1.8 1.8-1.8 1.8.8 1.8 1.8z"/>
</svg>
