<svg xmlns="http://www.w3.org/2000/svg" viewBox="0 0 36 36">
  <path fill="#0568ae" d="M25.907 20.755h6.839C31.452 27.722 25.346 33 18.003 33c-7.354 0-13.468-5.294-14.749-12.277h6.884v1.747c0 .349.282.634.632.634h4.341c.198 0 .36-.162.36-.36v-2.431c0-.198-.162-.36-.36-.36h-1.265c-.196-.002-.356-.165-.356-.363v-3.238c0-.197.16-.355.356-.355h1.265c.198 0 .36-.162.36-.36v-2.413c0-.198-.162-.36-.36-.36H10.77c-.349.001-.632.285-.632.634v1.695H3.269C4.584 8.251 10.678 3 18.003 3c7.336 0 13.438 5.267 14.74 12.225h-6.834V13.53c0-.349-.285-.633-.632-.634H20.23l-.144.029-.187.076-.016.01-.133.113-.047.069-.061.104-.045.224v2.507h-1.624c-.198 0-.357.158-.357.355v3.237c0 .198.159.362.357.363h1.624v2.485l.045.229.063.114.045.07.135.126.013.01.188.085.146.033h5.045c.35 0 .631-.285.631-.634v-1.746z"/>
</svg>
