<svg xmlns="http://www.w3.org/2000/svg" viewBox="0 0 36 36">
  <path fill="#0568ae" d="M20.143 13.426l-.078.147c-.046.124-.068.24-.068.354v2.132h-1.249c-.404 0-.732.328-.732.73v3.237c0 .405.328.736.732.738h1.249v2.109c0 .114.022.231.067.357l.095.181.077.115c.063.076.132.141.208.193l.024.017c.094.062.194.106.315.139l.224.04h5.045c.555 0 1.006-.453 1.006-1.009v-1.372h5.137c-1.501 6.033-6.768 10.648-13.213 11.076-.207.014-.363.192-.349.399.013.198.178.35.374.35l.025-.001c8.043-.533 14.343-7.272 14.343-15.341 0-8.478-6.897-15.375-15.375-15.375-7.085 0-13.222 4.796-14.924 11.663-.299 1.207-.451 2.455-.451 3.712 0 1.869.331 3.694.984 5.424 1.073 2.846 2.953 5.294 5.438 7.077.169.121.403.082.523-.086.121-.168.082-.403-.086-.523-2.364-1.697-4.153-4.024-5.174-6.732-.207-.549-.377-1.108-.515-1.675h6.424v1.372c0 .556.452 1.009 1.007 1.009h4.341c.405 0 .735-.33.735-.735v-2.431c0-.405-.33-.735-.735-.735l-1.246.012-.019-3.218h1.265c.405 0 .735-.33.735-.735v-2.413c0-.405-.33-.735-.735-.735h-4.342c-.555.001-1.006.454-1.006 1.009v1.32H3.645c.048-.247.098-.493.159-.736C5.423 7.953 11.261 3.391 18 3.391c7.12 0 13.064 5.115 14.36 11.863h-5.301v-1.32c0-.555-.451-1.008-1.007-1.009h-5.046l-.229.039c-.106.025-.207.066-.321.136-.076.049-.146.108-.22.19l-.059.083-.034.053zm-9.549 2.545c.207 0 .375-.168.375-.375v-1.695c0-.142.115-.259.257-.259l4.326-.015.015 2.398h-1.265c-.403 0-.731.327-.731.73v3.238c0 .404.327.735.731.738l1.25-.015.015 2.416h-4.341c-.142 0-.257-.116-.257-.259v-1.747c0-.207-.168-.375-.375-.375H3.632c-.169-.896-.257-1.809-.257-2.735 0-.687.053-1.37.148-2.045h7.071zm16.089 4.812c-.207 0-.375.168-.375.375v1.747c0 .143-.115.259-.256.259l-5.042-.005-.052-.016-.073-.033-.009-.006-.075-.085-.029-.043-.023-.103v-2.484c0-.207-.168-.375-.375-.375l-1.606.012-.018-3.218h1.624c.207 0 .375-.168.375-.375v-2.507l.024-.091.031-.054.068-.056.083-.033.053-.018h5.045c.142.001.258.117.258.259v1.695c0 .207.168.375.375.375h5.749l.049-.01c.092.661.143 1.336.143 2.022 0 .944-.092 1.869-.265 2.767h-5.679z"/>
</svg>
