<svg xmlns="http://www.w3.org/2000/svg" viewBox="0 0 36 36">
  <path fill="#0568ae" d="M16.02 24.457v.583c0 .232-.189.425-.422.425h-.628c-.234 0-.423-.193-.423-.425v-.583c0-.233.189-.42.423-.42h.629c.232 0 .421.187.421.42zm1.644-1.748h.634c.226 0 .417-.186.417-.422V21.7c0-.23-.191-.418-.417-.418h-.634c-.227 0-.416.188-.416.418v.587c-.001.236.189.422.416.422zm-2.065 4.079h-.629c-.234 0-.423.187-.423.42v.588c0 .232.189.423.423.423h.629c.233 0 .422-.191.422-.423v-.588c-.001-.233-.19-.42-.422-.42zm-.667-4.079h.629c.23 0 .421-.186.421-.422V21.7c0-.23-.191-.418-.421-.418h-.629c-.234 0-.424.188-.424.418v.587c0 .236.189.422.424.422zm-.11-6.444V10.92c0-.104.083-.189.186-.189h5.982c.104 0 .188.085.188.189v7.317c0 .102-.086.188-.188.188h-5.982c-.207 0-.375.168-.375.375s.168.375.375.375h5.982c.518 0 .938-.421.938-.938V10.92c0-.518-.421-.939-.938-.939h-5.982c-.516 0-.936.421-.936.939v5.345c0 .207.168.375.375.375s.375-.168.375-.375zm5.583 6.444h.631c.229 0 .417-.186.417-.422V21.7c0-.23-.188-.418-.417-.418h-.631c-.229 0-.419.188-.419.418v.587c-.001.236.19.422.419.422zm9.774 3.916h-2.804V23.82c0-.207-.168-.375-.375-.375s-.375.168-.375.375v2.805H23.82c-.207 0-.375.168-.375.375s.168.375.375.375h2.805v2.805c0 .207.168.375.375.375s.375-.168.375-.375v-2.805h2.804c.207 0 .375-.168.375-.375s-.168-.375-.375-.375zm3.196.375c0 3.515-2.86 6.375-6.375 6.375-1.745 0-3.328-.706-4.48-1.846-1.135.991-2.732 1.606-4.521 1.606-3.433 0-6.183-2.247-6.259-5.116V10.736c0-1.348.618-2.574 1.624-3.503l-.004-.019V3.24c0-.207.168-.375.375-.375s.375.168.375.375v3.405c1.069-.712 2.42-1.14 3.889-1.14 3.452 0 6.26 2.347 6.26 5.231v10.517c.832-.398 1.758-.628 2.74-.628 3.516 0 6.376 2.86 6.376 6.375zM18 32.385c1.573 0 2.999-.555 4.009-1.432-.622-.784-1.065-1.715-1.263-2.734h-.297c-.233 0-.424-.191-.424-.423v-.588c0-.234.191-.42.424-.42h.187c.015-.455.078-.897.184-1.323h-.371c-.233 0-.424-.193-.424-.425v-.583c0-.233.191-.42.424-.42h.623c.095 0 .177.036.247.087.506-.996 1.263-1.842 2.191-2.452V10.736c0-2.471-2.472-4.481-5.51-4.481s-5.509 2.01-5.509 4.481V28.01c.064 2.408 2.535 4.375 5.509 4.375zM32.625 27c0-3.102-2.524-5.625-5.625-5.625-.995 0-1.929.262-2.74.717-.264.148-.514.317-.75.505-1.279 1.016-2.107 2.574-2.131 4.325l-.004.078.025.493.062.461c.158.917.537 1.758 1.083 2.467.157.205.325.401.509.582 1.016 1.002 2.41 1.622 3.946 1.622 3.101 0 5.625-2.524 5.625-5.625zm-14.288-.212h-.627c-.235 0-.426.187-.426.42v.588c0 .232.191.423.426.423h.627c.231 0 .42-.191.42-.423v-.588c.001-.233-.188-.42-.42-.42zm0-2.751h-.627c-.235 0-.426.187-.426.42v.583c0 .232.191.425.426.425h.627c.231 0 .42-.193.42-.425v-.583c.001-.233-.188-.42-.42-.42z"/>
</svg>
