<svg xmlns="http://www.w3.org/2000/svg" viewBox="0 0 36 36">
  <path fill="#0568ae" d="M7.16 3.555c.866 0 1.733.091 2.582.272.483.104.873.586.873 1.027v5.732c0 .443-.224.587-.567.752-.331.124-.569.327-.569.783v6.94c0 .456.228.645.571.783.285.114.565.309.565.752v5.731c0 .441-.39.923-.872 1.028-.849.181-1.715.272-2.581.272s-1.732-.091-2.581-.272c-.486-.105-.872-.586-.872-1.028v-5.731c0-.443.223-.587.564-.752.332-.124.57-.327.57-.783v-6.94c0-.456-.227-.645-.571-.783-.285-.115-.563-.31-.563-.752V4.854c0-.441.386-.923.87-1.027.849-.181 1.715-.272 2.581-.272M27 21c-3.313 0-6 2.686-6 6 0 3.313 2.687 6 6 6s6-2.687 6-6c0-3.314-2.687-6-6-6zm2.861 7H28v1.862c0 .552-.448 1-1 1s-1-.448-1-1V28h-1.862c-.552 0-1-.448-1-1s.448-1 1-1H26v-1.862c0-.552.448-1 1-1s1 .448 1 1V26h1.861c.552 0 1 .448 1 1s-.448 1-1 1zM19.5 27c0-1.451.421-2.803 1.138-3.952h-.398c-.179 0-.323-.146-.323-.324v-.81c0-.178.144-.324.323-.324h1.579c.925-.887 2.076-1.535 3.357-1.857-.054-.058-.089-.135-.089-.221v-.81c0-.178.144-.324.323-.324h2.764c.178 0 .324.146.324.324v.81l-.031.133c1.476.294 2.797 1.021 3.824 2.045V7.261c0-.99-.81-1.8-1.8-1.8H12.116v5.125c0 1.138-.684 1.694-1.135 1.957v6.088c1.016.585 1.135 1.548 1.135 1.966v5.731c0 1.167-.883 2.239-2.059 2.494-.934.199-1.893.301-2.851.304.089.909.852 1.628 1.782 1.628h11.53C19.875 29.649 19.5 28.369 19.5 27zm3.828-7.487c0 .178-.146.324-.324.324h-2.765c-.179 0-.323-.146-.323-.324v-.81c0-.178.144-.324.323-.324h2.765c.177 0 .324.146.324.324v.81zm-8.582-8.895c0-.514.414-.931.918-.931h11.915c.506 0 .92.418.92.931v3.305c0 .511-.414.931-.92.931H15.664c-.504 0-.918-.42-.918-.931v-3.305zm3.413 15.317c0 .178-.146.324-.324.324H15.07c-.178 0-.324-.146-.324-.324v-.809c0-.178.146-.324.324-.324h2.765c.178 0 .324.146.324.324v.809zm0-3.211c0 .178-.146.324-.324.324H15.07c-.178 0-.324-.146-.324-.324v-.81c0-.178.146-.324.324-.324h2.765c.178 0 .324.146.324.324v.81zm0-3.211c0 .178-.146.324-.324.324H15.07c-.178 0-.324-.146-.324-.324v-.81c0-.178.146-.324.324-.324h2.765c.178 0 .324.146.324.324v.81z"/>
</svg>
