<svg xmlns="http://www.w3.org/2000/svg" viewBox="0 0 36 36">
  <path fill="#0568ae" d="M27 21c-3.3 0-6 2.7-6 6s2.7 6 6 6 6-2.7 6-6-2.7-6-6-6zm2.9 7H28v1.9c0 .6-.4 1-1 1s-1-.4-1-1V28h-1.9c-.6 0-1-.4-1-1s.4-1 1-1H26v-1.9c0-.6.4-1 1-1s1 .4 1 1V26h1.9c.6 0 1 .4 1 1s-.5 1-1 1zm-10.1 1.1c.3.9.7 1.8 1.3 2.5-.3.6-.9 1-1.6 1h-3.1c-.7 0-1.3-.4-1.6-1-4.4-1.2-7.7-5-8.3-9.7-1.1-.1-2-1.1-2-2.3v-4.4c0-1.2.9-2.2 2.1-2.3 1-5.4 5.7-9.5 11.4-9.5s10.4 4.1 11.4 9.5c1.2.1 2.1 1.1 2.1 2.3v4.4c0 .4-.1.8-.3 1.2-1.2-.8-2.7-1.3-4.2-1.3h-.3v-4.3c0-.6.2-1.2.5-1.6-.7-4.5-4.5-7.9-9.1-7.9S9.6 9.1 9 13.6c.3.4.5 1 .5 1.6v4.4c0 .7-.2 1.2-.5 1.7.3 3.9 3.1 7.1 6.7 8.1.3-.2.6-.3 1-.3h3.1c-.2 0-.1 0 0 0z"/>
</svg>
