<svg xmlns="http://www.w3.org/2000/svg" viewBox="0 0 36 36">
  <path fill="#0568ae" d="M30.6 20.7c.2-.4.3-.7.3-1.1v-4.4c0-1.3-.9-2.4-2.2-2.6C27.5 7 22.7 3 17 3 11.3 3 6.5 7 5.3 12.6c-1.3.2-2.2 1.3-2.2 2.6v4.4c0 1.2.9 2.3 2.1 2.6.7 4.6 3.9 8.4 8.4 9.7.4.7 1.1 1.1 1.9 1.1h3.1c1.2 0 2.1-1 2.1-2.1v-.4c-.2-1-1.1-1.7-2.1-1.7h-3.1c-.4 0-.7.1-1 .3-3.4-1-5.9-4-6.3-7.6.3-.5.5-1.1.5-1.8v-4.4c0-.6-.2-1.2-.5-1.7.7-4.3 4.4-7.4 8.8-7.4 4.3 0 8.1 3.2 8.7 7.4-.3.5-.5 1.1-.5 1.7V20c-2.7.7-4.7 3.2-4.7 6.1 0 3.5 2.9 6.4 6.4 6.4 3.5 0 6.4-2.9 6.4-6.4.1-2.3-1-4.2-2.7-5.4zM26 19.6v-4.4c0-.5.1-1 .4-1.4.1-.1.1-.2.1-.3-.7-4.7-4.8-8.2-9.5-8.2s-8.8 3.5-9.5 8.2c0 .1 0 .2.1.3.2.4.4.9.4 1.4v4.4c0 .5-.2 1.1-.5 1.4-.1.1-.1.2-.1.3.3 3.9 3.1 7.3 7 8.4h.3c.2-.2.5-.2.8-.2h3.1c.7 0 1.3.5 1.4 1.2v.2c0 .8-.6 1.4-1.4 1.4h-3.1c-.5 0-1-.3-1.3-.8 0-.1-.1-.2-.2-.2-4.3-1.2-7.5-4.9-8.1-9.4 0-.2-.2-.3-.3-.3-1-.1-1.7-1-1.7-1.9v-4.4c0-1 .8-1.9 1.8-1.9.2 0 .3-.1.3-.3 1-5.3 5.6-9.2 11-9.2s10 3.9 11 9.2c0 .2.2.3.3.3 1 .1 1.8.9 1.8 1.9v4.4c0 .3-.1.5-.2.8-.9-.5-1.9-.7-2.9-.7-.3 0-.6 0-1 .1v-.3zm1 12c-3.1 0-5.6-2.5-5.6-5.6 0-3.1 2.5-5.6 5.6-5.6 3.1 0 5.6 2.5 5.6 5.6 0 3.1-2.5 5.6-5.6 5.6zm3.6-5.6c0 .2-.2.4-.4.4h-2.8v2.8c0 .2-.2.4-.4.4s-.4-.2-.4-.4v-2.8h-2.8c-.2 0-.4-.2-.4-.4s.2-.4.4-.4h2.8v-2.8c0-.2.2-.4.4-.4s.4.2.4.4v2.8h2.8c.2 0 .4.2.4.4z"/>
</svg>
