<svg xmlns="http://www.w3.org/2000/svg" viewBox="0 0 36 36">
  <path fill="#0568ae" d="M32.667 24.092V7.281c0-1.21-.984-2.194-2.194-2.194H10.99v-.233c0-.63-.524-1.255-1.17-1.394-1.741-.371-3.58-.372-5.32 0-.642.139-1.166.764-1.166 1.394v5.732c0 .517.268.887.798 1.1.27.108.336.194.336.435v6.94c0 .237-.076.338-.358.446-.392.189-.775.43-.775 1.089v5.732c0 .63.524 1.255 1.169 1.394.87.186 1.764.279 2.659.279.895 0 1.791-.093 2.661-.279.644-.14 1.167-.765 1.167-1.394v-5.732c0-.517-.269-.887-.799-1.1-.27-.109-.336-.194-.336-.435v-6.94c0-.238.076-.339.357-.446.31-.149.778-.376.778-1.09v-4.75h19.482c.796 0 1.444.648 1.444 1.444v15.666c-1.17-1.417-2.94-2.321-4.917-2.321-1.538 0-2.95.547-4.052 1.457v-.168c0-.178-.146-.324-.324-.324h-2.765c-.179 0-.323.146-.323.324v.81c0 .178.144.324.323.324h2.149c-.416.524-.747 1.115-.983 1.753h-1.166c-.179 0-.323.146-.323.324v.809c0 .178.144.324.323.324h.813c-.028.243-.047.49-.047.741 0 1.113.29 2.158.794 3.069H7.188c-.207 0-.375.168-.375.375s.168.375.375.375h14.72c1.164 1.548 3.01 2.556 5.092 2.556 3.515 0 6.375-2.86 6.375-6.375 0-1.046-.259-2.033-.708-2.906zM10.24 10.587c0 .214-.043.264-.323.401-.539.202-.813.583-.813 1.134v6.94c0 .723.46.992.806 1.131.276.111.329.228.329.404v5.732c0 .248-.252.591-.575.661-1.637.35-3.368.35-5.005 0-.324-.07-.576-.413-.576-.661v-5.732c0-.214.043-.265.32-.401.54-.202.813-.584.813-1.134v-6.94c0-.724-.46-.992-.806-1.131-.275-.111-.328-.228-.328-.404V4.854c0-.248.25-.591.573-.66.818-.175 1.66-.262 2.503-.262.842 0 1.684.087 2.503.262.325.07.577.412.577.66v5.733zM27 32.625c-3.102 0-5.625-2.524-5.625-5.625 0-3.102 2.523-5.625 5.625-5.625 3.101 0 5.625 2.523 5.625 5.625 0 3.101-2.524 5.625-5.625 5.625zm3.179-6h-2.804V23.82c0-.207-.168-.375-.375-.375s-.375.168-.375.375v2.805H23.82c-.207 0-.375.168-.375.375s.168.375.375.375h2.805v2.805c0 .207.168.375.375.375s.375-.168.375-.375v-2.805h2.804c.207 0 .375-.168.375-.375s-.168-.375-.375-.375zm-12.401-4.711c0-.178-.146-.324-.324-.324h-2.765c-.178 0-.324.146-.324.324v.81c0 .178.146.324.324.324h2.765c.178 0 .324-.146.324-.324v-.81zm-.324 2.887h-2.765c-.178 0-.324.146-.324.324v.809c0 .178.146.324.324.324h2.765c.178 0 .324-.146.324-.324v-.809c0-.178-.146-.324-.324-.324zm11.419-10.878v-3.55c0-.72-.581-1.306-1.295-1.306H14.897c-.713 0-1.292.586-1.292 1.306v3.55c0 .72.58 1.306 1.292 1.306h12.681c.714 0 1.295-.586 1.295-1.306zm-.75 0c0 .307-.245.556-.545.556H14.897c-.294 0-.542-.255-.542-.556v-3.55c0-.307.243-.556.542-.556h12.681c.3 0 .545.249.545.556v3.55zm-10.345 4.781c0-.178-.146-.324-.324-.324h-2.765c-.178 0-.324.146-.324.324v.81c0 .178.146.324.324.324h2.765c.178 0 .324-.146.324-.324v-.81zm7.251-.325c-.179 0-.323.146-.323.324v.81c0 .178.144.324.323.324h2.764c.178 0 .324-.146.324-.324v-.81c0-.178-.146-.324-.324-.324h-2.764zm-5.171 0c-.179 0-.323.146-.323.324v.81c0 .178.144.324.323.324h2.765c.177 0 .324-.146.324-.324v-.81c0-.178-.146-.324-.324-.324h-2.765z"/>
</svg>
