<svg xmlns="http://www.w3.org/2000/svg" viewBox="0 0 36 36">
  <path fill="#0568ae" d="M27 21c-3.314 0-6 2.686-6 6s2.686 6 6 6c3.313 0 6-2.687 6-6s-2.687-6-6-6zm2.861 7H28v1.862c0 .552-.448 1-1 1s-1-.448-1-1V28h-1.862c-.552 0-1-.448-1-1s.448-1 1-1H26v-1.862c0-.552.448-1 1-1s1 .448 1 1V26h1.861c.552 0 1 .448 1 1s-.448 1-1 1zM19.5 27c0-1.494.444-2.885 1.2-4.055h-.32c-.227 0-.415-.184-.415-.417v-.581c0-.228.188-.414.415-.414h.624c.226 0 .413.186.413.414v.063c.671-.749 1.487-1.362 2.408-1.794v-9.122c0-2.657-2.606-4.807-5.826-4.807-.811 0-1.583.137-2.285.384V4.239c0-.626-.507-1.133-1.134-1.133s-1.134.507-1.134 1.133v3.858c-.795.822-1.273 1.862-1.273 2.997v17.099c.07 2.607 2.649 4.702 5.825 4.702 1.275 0 2.45-.341 3.409-.914C20.226 30.654 19.5 28.912 19.5 27zm-5.017-15.672c0-.337.275-.612.612-.612h5.811c.337 0 .612.276.612.612v7.135c0 .337-.275.612-.612.612h-5.811c-.337 0-.612-.275-.612-.612v-7.135zm.06 10.618c0-.228.188-.414.42-.414h.623c.227 0 .417.186.417.414v.581c0 .233-.189.417-.417.417h-.623c-.232 0-.42-.184-.42-.417v-.581zm1.497 6.035c0 .229-.187.418-.417.418H15c-.232 0-.419-.189-.419-.418v-.583c0-.231.187-.416.419-.416h.623c.23 0 .417.184.417.416v.583zm0-2.729c0 .23-.187.421-.417.421H15c-.232 0-.419-.191-.419-.421v-.577c0-.231.187-.416.419-.416h.623c.23 0 .417.185.417.416v.577zm1.215-3.306c0-.228.188-.414.412-.414h.628c.224 0 .413.186.413.414v.581c0 .233-.189.417-.413.417h-.628c-.225 0-.412-.184-.412-.417v-.581zm1.495 6.035c0 .229-.187.418-.416.418h-.621c-.233 0-.422-.189-.422-.418v-.583c0-.231.189-.416.422-.416h.621c.229 0 .416.184.416.416v.583zm0-2.729c0 .23-.187.421-.416.421h-.621c-.233 0-.422-.191-.422-.421v-.577c0-.231.189-.416.422-.416h.621c.229 0 .416.185.416.416v.577z"/>
</svg>
