<svg xmlns="http://www.w3.org/2000/svg" viewBox="0 0 36 36">
  <path fill="#0568ae" d="M27.178 32.487H8.831c-.833 0-1.51-.729-1.51-1.625-.002-1.698-.021-16.609-.001-16.921.018-.264.072-1.06.97-1.099l.521.004c.025.001.165.006.256-.078.086-.081.107-.232.11-.345V9.259c0-.181-.061-.24-.082-.259-.095-.091-.266-.094-.272-.094l-.55-.007c-.614-.019-.959-.396-.954-1.037V5.147c0-.896.678-1.625 1.512-1.625l13.673-.009.034.001c.759.068 1.29.335 1.777.893l3.723 3.767c.652.626.65 1.752.649 1.8l.001 20.889c.002.896-.676 1.624-1.51 1.624zM8.303 13.592c-.154.007-.21.027-.235.397-.014.328-.004 11.181.003 16.873 0 .483.341.875.76.875h18.347c.42 0 .761-.392.761-.875l-.001-20.891c.001-.238-.074-.924-.426-1.262l-3.746-3.791c-.375-.428-.718-.602-1.279-.655l-13.656.009c-.42 0-.762.393-.762.875v2.718c-.002.277.058.279.22.284l.524.007c.031-.002.475-.011.801.302.142.137.312.386.312.8v3.173c-.01.484-.203.755-.362.898-.329.296-.741.269-.788.265l-.473-.002zm18.073 15.494V18.594c0-.565-.459-1.025-1.024-1.025-.207 0-.375.168-.375.375s.168.375.375.375c.151 0 .274.123.274.275v10.492c0 .153-.123.277-.274.277H10.649c-.207 0-.375.168-.375.375s.168.375.375.375h14.702c.566 0 1.025-.461 1.025-1.027zm-16.002-3.444v-7.049c0-.152.124-.275.275-.275h14.702c.207 0 .375-.168.375-.375s-.168-.375-.375-.375H10.649c-.565 0-1.025.46-1.025 1.025v7.049c0 .207.168.375.375.375s.375-.167.375-.375zm6.228 2.778l-.212-.045c-.229-.102-.34-.344-.277-.603l.762-3.318-.641-.001-.502.002c-.373 0-.544-.163-.622-.299-.124-.217-.067-.465.027-.625l1.52-3.51c.056-.165.293-.489.758-.489h1.833c.322 0 .49.134.574.247.124.167.126.367.087.498l-.004.012-.511 1.526h.936c.327 0 .484.149.559.274.122.205.074.444-.011.6l-3.799 5.472c-.114.165-.295.259-.477.259zm1.008-3.824l-.507 2.214 2.949-4.243-.783-.001c-.269 0-.465-.085-.584-.253-.173-.244-.078-.519-.042-.622l.471-1.406-1.701-.003-.06.012-1.479 3.411.354-.002.698.002c.336.007.512.156.6.279.185.258.102.554.084.612z"/>
</svg>
