<svg xmlns="http://www.w3.org/2000/svg" viewBox="0 0 36 36">
  <path fill="#0568ae" d="M28.313 9.971s.009-1.004-.541-1.533l-3.739-3.784c-.436-.499-.881-.708-1.528-.766l-13.674.009c-.628 0-1.137.56-1.137 1.25v2.718c-.005.573.321.651.584.659l.53.007s.743-.031.743.728v3.173c-.019.852-.743.79-.743.79l-.502-.004c-.542.023-.591.438-.612.747-.019.31.002 16.898.002 16.898 0 .691.51 1.25 1.135 1.25h18.347c.629 0 1.136-.558 1.136-1.25l-.001-20.892zm-2.312 19.407c0 .198-.162.36-.36.36H10.359c-.198 0-.36-.162-.36-.36V18.304c0-.198.162-.36.36-.36h15.282c.198 0 .36.162.36.36v11.074zm-6.452-9.208l-.544 1.625c-.035.103-.162.395.265.395h1.061c.392 0 .219.319.219.319s-3.672 5.281-3.78 5.44c-.108.157-.341.114-.292-.09.027-.111.776-3.378.776-3.378s.127-.392-.333-.401h-1.188c-.483 0-.272-.358-.272-.358L17 20.17s.092-.264.414-.264h1.833c.38 0 .302.264.302.264"/>
</svg>
