<svg xmlns="http://www.w3.org/2000/svg" viewBox="0 0 36 36">
  <path fill="#0568ae" d="M22.816 19.245c.524-.599.845-1.532.866-2.287l.005-8.822h-.008c-.064-2.205-2.577-3.981-5.676-3.981-.838 0-1.63.133-2.346.367V2.663c0-.552-.448-1-1-1s-1 .448-1 1v2.941c-.806.687-1.301 1.568-1.329 2.531h-.009l.001 8.822c.021.755.347 1.689.868 2.287-.524.6-.845 1.534-.866 2.288l-.003 8.822h.009c.063 2.205 2.575 3.981 5.676 3.981 3.099 0 5.61-1.776 5.673-3.981h.01l-.003-8.822c-.023-.754-.346-1.687-.868-2.287zm-1.63-10.574c.243 0 .44.196.44.439v6.334c0 .24-.197.439-.44.439h-6.369c-.243 0-.439-.199-.439-.439V9.11c0-.242.195-.439.439-.439h6.369zM14.17 22.843c0-.253.208-.459.465-.459h.69c.252 0 .462.206.462.459v.645c0 .259-.21.463-.462.463h-.69c-.257 0-.465-.204-.465-.463v-.645zm1.658 6.689c0 .254-.207.464-.462.464h-.692c-.256 0-.463-.209-.463-.464v-.646c0-.256.207-.461.463-.461h.692c.254 0 .462.205.462.461v.646zm0-3.024c0 .255-.207.466-.462.466h-.692c-.256 0-.463-.211-.463-.466v-.64c0-.256.207-.461.463-.461h.692c.254 0 .462.205.462.461v.64zm1.347-3.665c0-.253.208-.459.457-.459h.696c.248 0 .458.206.458.459v.645c0 .259-.21.463-.458.463h-.696c-.249 0-.457-.204-.457-.463v-.645zm1.658 6.689c0 .254-.207.464-.461.464h-.689c-.258 0-.467-.209-.467-.464v-.646c0-.256.209-.461.467-.461h.689c.254 0 .461.205.461.461v.646zm0-3.024c0 .255-.207.466-.461.466h-.689c-.258 0-.467-.211-.467-.466v-.64c0-.256.209-.461.467-.461h.689c.254 0 .461.205.461.461v.64zm1.347-3.665c0-.253.208-.459.46-.459h.692c.251 0 .458.206.458.459v.645c0 .259-.207.463-.458.463h-.692c-.251 0-.46-.204-.46-.463v-.645zm1.655 6.689c0 .254-.205.464-.464.464h-.684c-.255 0-.465-.209-.465-.464v-.646c0-.256.21-.461.465-.461h.684c.259 0 .464.205.464.461v.646zm0-3.024c0 .255-.205.466-.464.466h-.684c-.255 0-.465-.211-.465-.466v-.64c0-.256.21-.461.465-.461h.684c.259 0 .464.205.464.461v.64z"/>
</svg>
