<svg xmlns="http://www.w3.org/2000/svg" viewBox="0 0 36 36">
  <path fill="#0568ae" d="M24.032 20.196v-.005c-.023-.772-.323-1.648-.767-2.276.448-.628.743-1.49.766-2.288l.004-8.822-.011-.085c-.122-2.401-2.76-4.271-6.048-4.271-1.724 0-3.264.517-4.36 1.352V1.332c0-.207-.168-.375-.375-.375-.208 0-.375.168-.375.375v3.07l.016.081c-.56.642-.906 1.398-.951 2.22l-.014.102.003 8.822.001.005v.005c.021.771.321 1.647.767 2.276-.449.63-.743 1.492-.765 2.289l-.004 8.822.013.094c.128 2.398 2.763 4.263 6.048 4.263 3.281 0 5.913-1.862 6.045-4.257l.013-.1-.003-8.822-.003-.006zm-.756 8.818c-.058 1.995-2.435 3.617-5.299 3.617-2.866 0-5.244-1.622-5.302-3.617l-.009-.071.004-8.729c.02-.71.338-1.554.774-2.052l.025-.043.036-.064.019-.069.009-.07-.009-.071-.018-.068-.037-.065-.024-.043c-.437-.502-.756-1.344-.775-2.048l-.003-8.729.009-.075c.058-1.995 2.436-3.617 5.3-3.617 2.865 0 5.244 1.623 5.302 3.617l.007.062-.004 8.739c-.019.653-.289 1.418-.669 1.923h-5.42c-.207 0-.375.168-.375.375s.168.375.375.375h5.416c.382.508.655 1.271.675 1.922l.003 8.729-.01.072zm-8.493-6.407v-.537c0-.211.173-.383.387-.383h.575c.21 0 .385.172.385.383v.537c0 .215-.175.385-.385.385h-.575c-.214.001-.387-.169-.387-.385zm2.504 0v-.537c0-.211.174-.383.38-.383h.581c.207 0 .382.172.382.383v.537c0 .215-.174.385-.382.385h-.581c-.206.001-.38-.169-.38-.385zm2.504 0v-.537c0-.211.174-.383.384-.383h.576c.21 0 .382.172.382.383v.537c0 .215-.172.385-.382.385h-.576c-.21.001-.384-.169-.384-.385zm-3.626 1.984v.533c0 .213-.172.389-.385.389h-.577c-.213 0-.385-.176-.385-.389v-.533c0-.213.172-.384.385-.384h.577c.213 0 .385.171.385.384zm2.504 0v.533c0 .213-.173.389-.385.389h-.574c-.215 0-.389-.176-.389-.389v-.533c0-.213.174-.384.389-.384h.574c.212 0 .385.171.385.384zm2.502 0v.533c0 .213-.171.389-.387.389h-.57c-.213 0-.387-.176-.387-.389v-.533c0-.213.174-.384.387-.384h.57c.216 0 .387.171.387.384zm0 2.515v.538c0 .212-.171.387-.387.387h-.57c-.213 0-.387-.175-.387-.387v-.538c0-.213.174-.384.387-.384h.57c.216.001.387.171.387.384zm-2.502 0v.538c0 .212-.173.387-.385.387h-.574c-.215 0-.389-.175-.389-.387v-.538c0-.213.174-.384.389-.384h.574c.212.001.385.171.385.384zm-2.504 0v.538c0 .212-.172.387-.385.387h-.577c-.213 0-.385-.175-.385-.387v-.538c0-.213.172-.384.385-.384h.577c.213.001.385.171.385.384zm4.995-12.179c.449 0 .814-.365.814-.814V7.779c0-.449-.365-.814-.814-.814h-6.37c-.448 0-.813.365-.813.814v6.334c0 .449.365.814.813.814h6.37zm-6.432-.814V7.779l.063-.064h6.37l.064.064v6.334l-.064.064h-6.37l-.063-.064z"/>
</svg>
