<svg xmlns="http://www.w3.org/2000/svg" viewBox="0 0 36 36">
  <path fill="#0568ae" d="M13.118 26.18c0 .404-.205.792-.562 1.064l-3.193 2.44c-.068.052-.148.077-.228.077-.113 0-.224-.051-.298-.148-.126-.164-.094-.4.07-.525l3.193-2.44.1-.091H8.925c-3.602 0-6.532-2.931-6.532-6.533 0-2.631 1.566-4.994 3.99-6.019.191-.081.411.009.491.2.081.191-.009.411-.2.491-2.145.907-3.532 2.999-3.532 5.328 0 3.188 2.594 5.783 5.782 5.783h3.281l-.106-.097-3.194-2.439c-.165-.125-.196-.361-.071-.525.126-.165.361-.197.526-.07l3.194 2.438c.359.273.564.661.564 1.066zm20.158-12.529l-4.016-.139c-.442-.016-.853.154-1.109.466-.257.313-.345.743-.242 1.181l.922 3.911c.041.173.194.289.364.289l.086-.01c.202-.047.327-.249.279-.451l-.922-3.911-.015-.101c1.913.988 3.127 2.958 3.127 5.138 0 3.188-2.594 5.783-5.782 5.783h-2.095c-.207 0-.375.168-.375.375s.168.375.375.375h2.095c3.602 0 6.532-2.931 6.532-6.533 0-2.425-1.332-4.619-3.438-5.751l.169-.012 4.017.139h.013c.201 0 .368-.159.375-.362.009-.206-.153-.38-.36-.387zm-6.915-2.888l-.001 9.282c0 .697-.567 1.265-1.264 1.265H9.798c-.697 0-1.264-.567-1.264-1.265v-9.282c0-.698.567-1.265 1.264-1.265h9.124v-.69c0-.729.596-1.321 1.329-1.321h2.631c.725 0 1.315.593 1.315 1.321v.69h.9c.697 0 1.264.568 1.264 1.265zm-.75 0c0-.284-.231-.515-.515-.515h-1.275c-.207 0-.375-.168-.375-.375V8.809c0-.32-.248-.571-.565-.571H20.25c-.319 0-.579.256-.579.571v.69h2.072c.207 0 .375.168.375.375s-.168.375-.375.375H9.798c-.283 0-.514.231-.514.515v9.282c0 .284.23.515.514.515h15.299c.283 0 .514-.231.514-.515v-9.283zm-9.393 8.552c1.6-.626 2.634-2.14 2.634-3.859-.001-2.285-1.861-4.144-4.145-4.144s-4.143 1.859-4.143 4.144c0 .4.057.796.169 1.177.517 1.746 2.151 2.965 3.973 2.965.522.002 1.03-.094 1.512-.283zm1.884-3.858c0 1.407-.847 2.647-2.157 3.16-.395.154-.811.232-1.238.232-1.493 0-2.831-.999-3.254-2.428-.092-.311-.139-.636-.139-.965 0-1.872 1.522-3.394 3.393-3.394 1.871 0 3.394 1.523 3.395 3.395zm5.961-3.372c0-.207-.168-.375-.375-.375h-3.443c-.207 0-.375.168-.375.375s.168.375.375.375h3.443c.207 0 .375-.168.375-.375z"/>
</svg>
