<svg xmlns="http://www.w3.org/2000/svg" viewBox="0 0 36 36">
  <path fill="#0568ae" d="M16.494 25.138c.175.125.176.332.001.458l-2.878 2.093-.709.516c-.232.169-.423.072-.424-.215l-.005-1.627H7.575c-3.034 0-5.502-2.468-5.502-5.501 0-2.424 1.623-4.595 3.947-5.278.528-.156 1.085.147 1.242.677.156.53-.147 1.086-.677 1.242-1.478.435-2.511 1.817-2.511 3.36 0 1.931 1.571 3.501 3.502 3.501h4.898l-.005-1.592c-.001-.287.189-.385.422-.218l.712.511 2.647 1.898.139.1.105.075zm14.588-9.137l-.038-.016.469-1.472c.087-.274-.065-.424-.338-.335l-4.091 1.342-.124.041c-.205.067-.267.264-.139.437l.077.105.466.63 1.573 2.127.521.705c.171.231.382.196.469-.078l.493-1.546c.981.644 1.583 1.733 1.583 2.921 0 1.931-1.57 3.501-3.501 3.501h-6.2c-.552 0-1 .448-1 1s.448 1 1 1h6.2c3.033 0 5.501-2.468 5.501-5.501.001-2.04-1.119-3.903-2.921-4.861zm-5.624-6.064l-.001 9.149c0 .485-.393.876-.876.876H9.501c-.485 0-.876-.391-.876-.876V9.937c0-.486.392-.877.876-.877h9.363v-.416c0-.517.426-.933.941-.933h2.594c.516 0 .926.416.926.933v.416h1.257c.483 0 .876.391.876.877zm-6.915 4.627c-.001-2.317-1.886-4.201-4.202-4.201s-4.2 1.885-4.2 4.202c0 2.315 1.884 4.199 4.2 4.199 2.316-.001 4.201-1.884 4.202-4.2zm5.184-3.366c-.033-.258-.252-.459-.519-.459h-2.859c-.267 0-.485.202-.518.459l.008.612c0 .289.236.526.525.526h2.833c.291 0 .526-.237.526-.526l.004-.612zm-9.387.136c-1.78 0-3.228 1.449-3.228 3.23 0 1.78 1.448 3.228 3.228 3.228 1.781 0 3.23-1.448 3.231-3.228 0-1.781-1.45-3.23-3.231-3.23z"/>
</svg>
