<svg xmlns="http://www.w3.org/2000/svg" viewBox="0 0 36 36">
  <path fill="#0568ae" d="M29.515 8.961H6.649c-1.188 0-2.161.972-2.161 2.16v13.757c0 1.188.973 2.16 2.161 2.16h22.866c1.188 0 2.16-.972 2.16-2.16V11.121c.001-1.188-.972-2.16-2.16-2.16zm.159 15.311c0 .412-.337.75-.75.75H7.237c-.413 0-.75-.338-.75-.75V11.696c0-.412.337-.75.75-.75h21.688c.413 0 .75.338.75.75v12.576zm-1.491-11.567v10.588c0 .137-.112.25-.25.25H15.948v-4.691c0-.101.089-.19.19-.19h4.028l-.008.294v1.354c0 .319.198.41.44.202l3.178-2.724.11-.094c.182-.156.182-.41 0-.566l-.11-.094-3.178-2.724c-.242-.208-.44-.116-.44.202v1.354l.002.295h-4.022c-1.483 0-2.69 1.207-2.69 2.69v4.691H8.237c-.137 0-.25-.113-.25-.25V12.705c0-.137.113-.25.25-.25h19.696c.137 0 .25.112.25.25z"/>
</svg>
