<svg xmlns="http://www.w3.org/2000/svg" viewBox="0 0 36 36">
  <path fill="#0568ae" d="M29.487 8.612H6.621c-1.398 0-2.536 1.137-2.536 2.535v13.758c0 1.397 1.138 2.535 2.536 2.535h22.866c1.398 0 2.536-1.137 2.536-2.535V11.147c0-1.398-1.138-2.535-2.536-2.535zm1.786 16.292c0 .984-.801 1.785-1.786 1.785H6.621c-.985 0-1.786-.801-1.786-1.785V11.147c0-.984.801-1.785 1.786-1.785h22.866c.985 0 1.786.801 1.786 1.785v13.757zm-1.625-12.516v11.274c0 .773-.629 1.401-1.401 1.401H7.862c-.207 0-.375-.168-.375-.375s.168-.375.375-.375h5.252v-5.437c0-1.001.815-1.815 1.815-1.815h8.358l-.08-.073-2.992-2.297c-.164-.126-.195-.361-.069-.526.126-.164.361-.195.526-.069l2.991 2.297c.34.261.535.633.534 1.02-.001.387-.198.757-.54 1.016l-3 2.282c-.068.052-.147.077-.226.077-.114 0-.225-.051-.299-.148-.125-.165-.094-.4.071-.525l3.002-2.284.022-.02H14.93c-.587 0-1.065.478-1.065 1.065v5.437h14.382c.359 0 .651-.293.651-.651V12.388c0-.359-.292-.651-.651-.651H7.862c-.359 0-.651.292-.651.651v7.262c0 .207-.168.375-.375.375s-.375-.168-.375-.375v-7.262c0-.773.628-1.401 1.401-1.401h20.385c.772 0 1.401.628 1.401 1.401z"/>
</svg>
