<svg xmlns="http://www.w3.org/2000/svg" viewBox="0 0 36 36">
  <path fill="#0568ae" d="M30.473 6.086H10.99v-.232c0-.63-.524-1.255-1.17-1.394-1.741-.372-3.58-.372-5.32 0-.642.139-1.166.764-1.166 1.394v5.732c0 .517.268.887.798 1.1.27.108.336.194.336.435v6.94c0 .237-.076.338-.358.446-.392.189-.775.43-.775 1.089v5.732c0 .63.524 1.255 1.168 1.394.87.186 1.764.279 2.659.279.895 0 1.791-.093 2.661-.279.644-.14 1.167-.765 1.167-1.394v-5.732c0-.517-.269-.887-.799-1.1-.27-.109-.336-.194-.336-.435v-6.94c0-.238.076-.339.357-.446.31-.149.778-.376.778-1.09v-4.75h19.482c.796 0 1.444.648 1.444 1.444v21.345c0 .796-.648 1.443-1.444 1.443H7.188c-.207 0-.375.168-.375.375s.168.375.375.375h23.285c1.209 0 2.194-.984 2.194-2.193V8.281c0-1.21-.985-2.195-2.194-2.195zM10.24 11.587c0 .214-.043.264-.323.401-.539.202-.813.583-.813 1.134v6.94c0 .723.46.992.806 1.131.276.111.329.228.329.404v5.732c0 .248-.252.591-.575.661-1.637.349-3.368.35-5.005 0-.324-.07-.576-.413-.576-.661v-5.732c0-.214.043-.265.32-.401.54-.202.813-.584.813-1.134v-6.94c0-.724-.46-.992-.806-1.131-.275-.111-.328-.228-.328-.404V5.854c0-.248.251-.591.573-.66.818-.175 1.66-.262 2.503-.262.842 0 1.684.087 2.503.262.325.07.577.412.577.66v5.733zm18.633 3.336v-3.55c0-.72-.581-1.306-1.295-1.306h-12.68c-.713 0-1.293.586-1.293 1.306v3.55c0 .72.58 1.306 1.293 1.306h12.681c.713 0 1.294-.586 1.294-1.306zm-.75 0c0 .307-.245.556-.545.556h-12.68c-.294 0-.543-.255-.543-.556v-3.55c0-.307.243-.556.543-.556h12.681c.3 0 .545.249.545.556v3.55zm-10.345 5.59c0 .178-.146.324-.324.324h-2.765c-.178 0-.324-.146-.324-.324v-.81c0-.178.146-.324.324-.324h2.765c.178 0 .324.146.324.324v.81zm5.17 0c0 .178-.146.324-.324.324h-2.765c-.179 0-.323-.146-.323-.324v-.81c0-.178.144-.324.323-.324h2.765c.177 0 .324.146.324.324v.81zm5.169 0c0 .178-.146.324-.324.324h-2.764c-.179 0-.324-.146-.324-.324v-.81c0-.178.144-.324.324-.324h2.764c.178 0 .324.146.324.324v.81zm-10.339 3.211c0 .178-.146.324-.324.324h-2.765c-.178 0-.324-.146-.324-.324v-.81c0-.178.146-.324.324-.324h2.765c.178 0 .324.146.324.324v.81zm5.17 0c0 .178-.146.324-.324.324h-2.765c-.179 0-.323-.146-.323-.324v-.81c0-.178.144-.324.323-.324h2.765c.177 0 .324.146.324.324v.81zm5.169 0c0 .178-.146.324-.324.324h-2.764c-.179 0-.324-.146-.324-.324v-.81c0-.178.144-.324.324-.324h2.764c.178 0 .324.146.324.324v.81zm-10.339 2.401v.809c0 .178-.146.324-.324.324h-2.765c-.178 0-.324-.146-.324-.324v-.809c0-.178.146-.324.324-.324h2.765c.178 0 .324.146.324.324zm5.17 0v.809c0 .178-.146.324-.324.324h-2.765c-.179 0-.323-.146-.323-.324v-.809c0-.178.144-.324.323-.324h2.765c.177 0 .324.146.324.324zm5.169 0v.809c0 .178-.146.324-.324.324h-2.764c-.179 0-.324-.146-.324-.324v-.809c0-.178.144-.324.324-.324h2.764c.178 0 .324.146.324.324zM9.016 23.352c.126.165.095.4-.069.526-.165.126-.4.095-.526-.069l-.87-1.134v4.082c0 .207-.168.375-.375.375s-.375-.168-.375-.375v-4.053l-.844 1.11c-.074.097-.186.148-.299.148-.079 0-.159-.025-.227-.077-.165-.125-.197-.36-.071-.525l1.161-1.526c.167-.22.409-.346.664-.347h.001c.254 0 .496.125.664.345l1.166 1.52z"/>
</svg>
