<svg xmlns="http://www.w3.org/2000/svg" viewBox="0 0 36 36">
  <path fill="#0568ae" d="M30.491 6.461H12.115v5.125c0 1.138-.684 1.694-1.135 1.957v6.088c1.016.585 1.135 1.548 1.135 1.966v5.731c0 1.167-.883 2.239-2.059 2.494-.934.199-1.893.301-2.851.304.089.909.852 1.628 1.783 1.628h21.503c.99 0 1.8-.81 1.8-1.8V8.261c.001-.99-.81-1.8-1.8-1.8zM18.159 26.935c0 .178-.146.324-.324.324H15.07c-.178 0-.324-.146-.324-.324v-.809c0-.178.146-.324.324-.324h2.765c.178 0 .324.146.324.324v.809zm0-3.211c0 .178-.146.324-.324.324H15.07c-.178 0-.324-.146-.324-.324v-.81c0-.178.146-.324.324-.324h2.765c.178 0 .324.146.324.324v.81zm0-3.211c0 .178-.146.324-.324.324H15.07c-.178 0-.324-.146-.324-.324v-.81c0-.178.146-.324.324-.324h2.765c.178 0 .324.146.324.324v.81zm5.169 6.422c0 .178-.146.324-.324.324h-2.765c-.179 0-.323-.146-.323-.324v-.809c0-.178.144-.324.323-.324h2.765c.177 0 .324.146.324.324v.809zm0-3.211c0 .178-.146.324-.324.324h-2.765c-.179 0-.323-.146-.323-.324v-.81c0-.178.144-.324.323-.324h2.765c.177 0 .324.146.324.324v.81zm0-3.211c0 .178-.146.324-.324.324h-2.765c-.179 0-.323-.146-.323-.324v-.81c0-.178.144-.324.323-.324h2.765c.177 0 .324.146.324.324v.81zm5.17 6.422c0 .178-.146.324-.324.324H25.41c-.179 0-.323-.146-.323-.324v-.809c0-.178.144-.324.323-.324h2.764c.178 0 .324.146.324.324v.809zm0-3.211c0 .178-.146.324-.324.324H25.41c-.179 0-.323-.146-.323-.324v-.81c0-.178.144-.324.323-.324h2.764c.178 0 .324.146.324.324v.81zm0-3.211c0 .178-.146.324-.324.324H25.41c-.179 0-.323-.146-.323-.324v-.81c0-.178.144-.324.323-.324h2.764c.178 0 .324.146.324.324v.81zm0-5.59c0 .511-.414.931-.92.931H15.664c-.504 0-.917-.42-.917-.931v-3.305c0-.514.414-.931.917-.931h11.915c.506 0 .92.418.92.931v3.305zm-18.449-2.584c.342-.165.566-.31.566-.752V5.855c0-.441-.39-.923-.873-1.027-.849-.182-1.716-.273-2.582-.273s-1.732.091-2.581.272c-.484.104-.87.586-.87 1.027v5.732c0 .443.278.637.563.752.343.138.571.327.571.783v6.94c0 .456-.238.659-.57.783-.341.165-.564.309-.564.752v5.731c0 .441.386.923.872 1.028.849.181 1.715.272 2.581.272s1.732-.091 2.581-.272c.483-.105.872-.586.872-1.028v-5.731c0-.443-.279-.638-.564-.752-.343-.138-.571-.327-.571-.783v-6.94c0-.455.238-.658.569-.782zM9.535 24.33c.157.183.088.333-.153.333H8.18v1.979c0 .131-.107.238-.238.238H6.434c-.131 0-.238-.107-.238-.238v-1.979H4.995c-.241 0-.31-.15-.153-.333l.424-.495.854-.997.783-.913.071-.083c.118-.137.311-.137.428 0l1.708 1.993.425.495z"/>
</svg>
