<svg xmlns="http://www.w3.org/2000/svg" viewBox="0 0 36 36">
  <g fill="#0568ae">
    <path d="M32 26.3c0 .4-.1.8-.2 1.1-.2.3-.4.5-.7.7-.3.2-.6.2-1 .2h-1.3v-4H30c.4 0 .8.1 1.1.2.3.2.5.4.7.7.1.3.2.7.2 1.1z"/>
    <path d="M31.3 26.3c0-.4-.1-.8-.3-1-.2-.2-.6-.4-1-.4h-.7v2.8h.7c.4 0 .7-.1 1-.4.2-.2.3-.6.3-1z"/>
  </g>
  <path fill="#0568ae" d="M12.8 3.9c-2.5 1-4.8 2.5-6.6 4.6-2 2.3-3.3 5-3.7 8-.1.4-.1.8-.2 1.2 0 .5-.1.9-.1 1.4 0 .9.1 1.8.2 2.7 0 .2.2.3.4.3h.1c.2 0 .3-.2.3-.4-.2-1.1-.2-2.1-.2-3.2.1-2.2.7-4.4 1.6-6.3C5.3 11.1 6 10 6.8 9c1.7-2 3.9-3.5 6.3-4.4m1.8 8.2l-.1.1c-.5.4-1 .8-1.5 1.4-1.7 2-2.5 4.6-2.2 7.1 0 .2.2.3.4.3s.4-.2.3-.4c-.3-2.4.4-4.8 2-6.6.4-.5.9-1 1.5-1.3.1-.1.2-.1.3-.2.2-.1.4-.3.6-.4.3-.2.6-.3.9-.4.2-.1.3-.3.2-.5-.1-.2-.3-.3-.5-.2-.6.2-1.1.5-1.6.9-.1.1-.2.1-.3.2zm-6.2 1.9s0-.1.1-.1c0-.1.1-.2.1-.2 0-.2.1-.3.1-.4 0-.1.1-.1.1-.2.1-.1.1-.3.2-.4.1-.1.2-.3.3-.4l.1-.1c.2-.4.5-.7.8-1 1.3-1.5 2.8-2.6 4.6-3.3.2-.1.3-.3.2-.5-.1-.2-.3-.3-.5-.2-1.9.8-3.5 2-4.9 3.5C8.1 13.5 7 16 6.8 18.7V20c0 .5 0 .9.1 1.4 0 .2.2.3.4.3s.4-.2.3-.4c-.3-2.2.1-4.5 1.1-6.6zm15.6-9.4c-.3.1-.5.2-.6.5l-3.5 6.1c-.3.6-.1 1.3.5 1.6l.7.4c1.2.7 1.6 2.2.9 3.4l-3.5 6.1c-.3.6-.9 1-1.5 1.2-.6.2-1.3.1-1.9-.2l-.7-.4c-.3-.2-.6-.2-.9-.1-.3.1-.6.3-.7.5L10.3 29c-.1.2 0 .4.1.5.1 0 .1.1.2.1s.3-.1.3-.2l2.6-4.5c.1-.1.1-.2.3-.2.1 0 .3 0 .4.1l.7.4c.8.4 1.6.5 2.5.3.8-.2 1.5-.8 2-1.5l3.5-6.1c.9-1.6.4-3.5-1.2-4.4l-.7-.6c-.2-.1-.3-.4-.2-.6l3.5-6.1s.1-.1.2-.1.4 0 .6.1l.4.4c3 2.8 3.3 8 .9 12.3l-.9 1.5c-2.3 1-3.9 3.2-3.9 5.9v.7c-2.4 3.7-6.7 5.7-10.3 4.9-.2 0-.4.1-.4.3 0 .2.1.4.3.4.6.1 1.2.2 1.9.2 3.2 0 6.5-1.8 8.8-4.9.8 2.7 3.2 4.7 6.1 4.7 3.5 0 6.4-2.9 6.4-6.4 0-3.5-2.9-6.4-6.4-6.4-.5 0-1 .1-1.4.2l.4-.8c2.6-4.6 2.2-10.1-1-13.2-.4-.4-.5-.4-.5-.5-.3-.2-.8-.2-1.2-.2"/>
  <path fill="#0568ae" d="M28 31.9c-3.1 0-5.6-2.5-5.6-5.6 0-3.1 2.5-5.6 5.6-5.6 3.1 0 5.6 2.5 5.6 5.6.1 3.1-2.5 5.6-5.6 5.6z"/>
</svg>
