<svg xmlns="http://www.w3.org/2000/svg" viewBox="0 0 36 36">
  <path fill="#0568ae" d="M9.1 20.9c.1.6-.3 1.2-1 1.3-.6.1-1.2-.3-1.3-1-.2-2.1 0-4.2.7-6.2 1.2-3.5 4-6.4 7.4-7.9.3-.1.7-.1 1 .1.2.1.4.3.5.5.2.6 0 1.2-.6 1.5-2.9 1.2-5.1 3.6-6.2 6.6-.5 1.6-.7 3.3-.5 5.1zm16.4-.8l1.1-1.8c2.6-4.5 2.1-9.9-.9-12.8-.5-.4-.6-.5-.6-.5-.5-.3-1.1-.3-1.3.1-.2.4-.4.7-.4.7l-2.8 4.8s-.2.3-.4.7c-.2.4-.1.9.3 1.1.4.2.7.4.7.4 1.4.8 1.8 2.6 1.1 3.9l-3.5 6.1c-.8 1.4-2.6 1.8-3.9 1.1 0 0-.3-.2-.7-.4-.4-.2-.9-.1-1.1.3-.2.4-.4.7-.4.7l-3 5.1s-.1.2-.3.5c-.2.3 0 .7.4.9l.4.1c3.3 1.2 7.3 0 10.2-2.9 0-.3-.1-.6-.1-1 0-3.3 2.2-6.2 5.2-7.1zM14.3 5c.6-.2.9-.9.7-1.4-.1-.3-.3-.5-.5-.6-.3-.2-.6-.2-1-.1C8.7 4.7 4.9 8.5 3.2 13.4c-1 2.7-1.2 5.7-.8 8.5.1.6.7 1 1.3.9.6-.1 1-.7.9-1.3-.4-2.5-.2-5 .7-7.4 1.5-4.2 4.8-7.5 9-9.1zm-2.5 11.5c-.5 1.3-.6 2.7-.4 4 .1.6.6 1.1 1.3 1 .6-.1 1.1-.6 1-1.3-.1-1 0-2 .3-3 .6-1.7 1.9-3.1 3.6-3.8.6-.2.8-.9.6-1.5-.1-.2-.3-.4-.5-.5-.3-.2-.7-.2-1-.1-2.3 1-4.1 2.8-4.9 5.2zm18.1 9.3h-.6v2.7h.6c.4 0 .7-.1.9-.4.2-.2.3-.6.3-1s-.1-.8-.3-1c-.2-.2-.5-.3-.9-.3zm3.9 1.4c0 3.3-2.7 6-6 6s-6-2.7-6-6 2.7-6 6-6 6 2.7 6 6zM27.4 25h-1v1.7h-1.7V25h-1v4.4h1v-1.8h1.7v1.8h1V25zm4.7 2.2c0-.4-.1-.8-.3-1.2-.2-.3-.4-.6-.8-.8-.3-.2-.7-.3-1.2-.3h-1.6v4.4h1.6c.4 0 .8-.1 1.2-.3.3-.2.6-.4.8-.8.2-.2.3-.6.3-1z"/>
</svg>
