<svg xmlns="http://www.w3.org/2000/svg" viewBox="0 0 36 36">
  <path fill="#0568ae" d="M29.496 14.246h-1.62v-.666c0-5.451-4.435-9.886-9.886-9.886S8.104 8.129 8.104 13.58l.001.665h-1.62c-.961 0-1.742.795-1.742 1.772v5.191c0 .977.781 1.772 1.742 1.772h1.64c.214 3.79 2.571 7.012 5.877 8.477v.48c0 .802.653 1.455 1.455 1.455h5.086c.802 0 1.455-.653 1.455-1.455v-1.463c0-.802-.653-1.455-1.455-1.455h-5.086c-.802 0-1.455.653-1.455 1.455v.151c-3.029-1.478-5.129-4.575-5.146-8.162l.009-.045-.011-8.838c0-5.038 4.098-9.136 9.136-9.136s9.136 4.098 9.136 9.136v9.025c0 .207.168.375.375.375h1.995c.96 0 1.742-.795 1.742-1.772v-5.191c0-.976-.782-1.771-1.742-1.771zM14.752 30.475c0-.389.316-.705.705-.705h5.086c.389 0 .705.316.705.705v1.463c0 .389-.316.705-.705.705h-5.086c-.389 0-.705-.317-.705-.705v-1.463zm-9.259-9.267v-5.191c0-.564.445-1.022.992-1.022h1.621l.009 7.234h-1.63c-.547.001-.992-.457-.992-1.021zm24.995 0c0 .563-.445 1.022-.992 1.022h-1.62v-7.234h1.62c.547 0 .992.458.992 1.022v5.19z"/>
</svg>
