<svg xmlns="http://www.w3.org/2000/svg" viewBox="0 0 36 36">
  <path fill="#0568ae" d="M28.902 13.409h-.311c-.404-5.502-4.998-9.858-10.601-9.858-5.603 0-10.197 4.356-10.601 9.858h-.291c-.862 0-1.568.847-1.568 1.882v5.644c0 1.035.705 1.881 1.568 1.881h.301c.3 4.244 3.124 7.793 6.982 9.157.02.577.495 1.043 1.076 1.043h5.086c.594 0 1.08-.486 1.08-1.08v-1.463c0-.594-.486-1.08-1.08-1.08h-5.086c-.384 0-.721.205-.913.51-3.044-1.298-5.183-4.32-5.183-7.832l-.012-.119v-7.76c0-4.765 3.876-8.641 8.641-8.641 4.715 0 8.553 3.797 8.633 8.493v8.396c0 .207.169.376.376.376h1.902c.862 0 1.568-.847 1.568-1.881v-5.644c.001-1.035-.705-1.882-1.567-1.882z"/>
</svg>
