<svg xmlns="http://www.w3.org/2000/svg" viewBox="0 0 36 36">
  <path fill="#0568ae" d="M16.78 17.443h-5.224c-.207 0-.375-.168-.375-.375s.168-.375.375-.375h5.224c.063 0 .117-.053.117-.117v-6.39c0-.065-.052-.118-.117-.118h-5.224c-.065 0-.115.052-.115.118v4.668c0 .207-.168.375-.375.375s-.375-.168-.375-.375v-4.668c0-.478.388-.868.865-.868h5.224c.478 0 .867.389.867.868v6.39c0 .478-.389.867-.867.867zm12.211 8.327v5.357c0 .817-.664 1.481-1.48 1.481H6.485c-.815 0-1.479-.665-1.479-1.481V25.77c0-.783.439-1.003 1.102-1.337l.206-.104c.03-.017 1.038-.574 2.34-.952V10.026c0-1.182.538-2.259 1.415-3.076V3.48c0-.207.168-.375.375-.375s.375.168.375.375v2.888c.93-.598 2.089-.958 3.349-.958 3.041 0 5.515 2.071 5.515 4.616v11.947c4.449.615 7.851 2.283 7.995 2.354.631.25 1.313.522 1.313 1.443zm-19.587-.659c.056 2.076 2.193 3.773 4.764 3.773 2.573 0 4.71-1.697 4.765-3.783V10.026c0-2.132-2.137-3.866-4.765-3.866-2.627 0-4.764 1.734-4.764 3.866v15.085zm18.837.659c0-.329-.085-.446-.869-.759-.061-.029-3.415-1.67-7.69-2.28v2.38c-.067 2.541-2.489 4.523-5.515 4.523-3.024 0-5.446-1.982-5.513-4.513v-.958c-1.116.351-1.978.823-1.987.828l-.222.112c-.65.327-.689.364-.689.667v5.357c0 .403.327.732.729.732h21.026c.402 0 .73-.328.73-.732V25.77zm-1.723 2.596c0-.98-.798-1.777-1.778-1.777-.984 0-1.785.797-1.785 1.777 0 .98.801 1.778 1.785 1.778.98 0 1.778-.798 1.778-1.778zm-.75 0c0 .567-.462 1.028-1.028 1.028-.57 0-1.035-.461-1.035-1.028 0-.566.464-1.027 1.035-1.027.566 0 1.028.46 1.028 1.027zm-14.279-7.884h.549c.201 0 .368-.162.368-.368v-.513c0-.201-.167-.365-.368-.365h-.549c-.205 0-.37.164-.37.365v.513c0 .205.165.368.37.368m2.386 0h.554c.198 0 .364-.162.364-.368v-.513c0-.201-.166-.365-.364-.365h-.554c-.198 0-.364.164-.364.365v.513c0 .205.166.368.364.368m2.394 0h.551c.2 0 .364-.162.364-.368v-.513c0-.201-.165-.365-.364-.365h-.551c-.2 0-.366.164-.366.365v.513c-.001.205.165.368.366.368m-4.747 2.407h.549c.203 0 .368-.168.368-.371v-.509c0-.204-.165-.367-.368-.367h-.549c-.205 0-.37.163-.37.367v.509c0 .203.165.371.37.371m2.393 0h.548c.202 0 .367-.168.367-.371v-.509c0-.204-.165-.367-.367-.367h-.548c-.205 0-.372.163-.372.367v.509c0 .203.167.371.372.371m2.392 0h.544c.207 0 .369-.168.369-.371v-.509c0-.204-.162-.367-.369-.367h-.544c-.204 0-.371.163-.371.367v.509c0 .203.167.371.371.371m0 2.405h.544c.207 0 .369-.167.369-.369v-.514c0-.204-.162-.367-.369-.367h-.544c-.204 0-.371.163-.371.367v.514c0 .203.167.369.371.369m-2.764-.369c0 .202.167.369.372.369h.548c.202 0 .367-.167.367-.369v-.514c0-.204-.165-.367-.367-.367h-.548c-.205 0-.372.163-.372.367v.514m-2.021.369h.549c.203 0 .368-.167.368-.369v-.514c0-.204-.165-.367-.368-.367h-.549c-.205 0-.37.163-.37.367v.514c0 .203.165.369.37.369"/>
</svg>
