<svg xmlns="http://www.w3.org/2000/svg" viewBox="0 0 36 36">
  <path fill="#0568ae" d="M12.327 27.818c2.803 0 5.079-1.849 5.14-4.149V8.584c0-2.344-2.299-4.241-5.14-4.241-.716 0-1.397.121-2.016.339V2.537c0-.552-.448-1-1-1s-1 .448-1 1V5.94c-.701.726-1.123 1.643-1.123 2.644v15.085c.062 2.3 2.337 4.149 5.139 4.149zm-1.728-4.335c0 .202-.165.369-.368.369h-.55c-.205 0-.37-.167-.37-.369v-.514c0-.204.165-.367.37-.367h.549c.203 0 .368.163.368.367v.514zm-1.321-4.811v-.513c0-.201.165-.365.37-.365h.549c.201 0 .368.164.368.365v.513c0 .206-.167.368-.368.368h-.549c-.205 0-.37-.162-.37-.368zm1.321 2.404c0 .203-.165.371-.368.371h-.55c-.205 0-.37-.168-.37-.371v-.509c0-.204.165-.367.37-.367h.549c.203 0 .368.163.368.367v.509zm2.39 2.407c0 .202-.165.369-.367.369h-.548c-.205 0-.372-.167-.372-.369v-.514c0-.204.167-.367.372-.367h.548c.202 0 .367.163.367.367v.514zm-1.319-4.811v-.513c0-.201.165-.365.364-.365h.554c.198 0 .364.164.364.365v.513c0 .206-.167.368-.364.368h-.554c-.198 0-.364-.162-.364-.368zm1.319 2.404c0 .203-.165.371-.367.371h-.548c-.205 0-.372-.168-.372-.371v-.509c0-.204.167-.367.372-.367h.548c.202 0 .367.163.367.367v.509zm2.39 2.407c0 .202-.162.369-.369.369h-.544c-.204 0-.371-.167-.371-.369v-.514c0-.204.167-.367.371-.367h.544c.207 0 .369.163.369.367v.514zm-1.318-4.811v-.513c0-.201.166-.365.366-.365h.551c.2 0 .364.164.364.365v.513c0 .206-.164.368-.364.368h-.551c-.2 0-.366-.162-.366-.368zm1.318 2.404c0 .203-.162.371-.369.371h-.544c-.204 0-.371-.168-.371-.371v-.509c0-.204.167-.367.371-.367h.544c.207 0 .369.163.369.367v.509zM9.225 8.792c0-.297.243-.54.54-.54h5.127c.297 0 .54.243.54.54v6.294c0 .297-.243.54-.54.54H9.765c-.297 0-.54-.243-.54-.54V8.792zm24.41 19.114c0 3.313-2.687 6-6 6-1.198 0-2.311-.355-3.247-.96l-.131-.094 2.092-2.093c.403.181.837.272 1.271.272.796 0 1.593-.304 2.201-.913.798-.799 1.066-1.919.826-2.939-.021-.087-.093-.16-.189-.16-.061 0-.131.029-.203.102l-1.715 1.714c-.253.253-.583.379-.913.379-.328 0-.655-.125-.904-.374-.501-.5-.499-1.314.004-1.818l1.75-1.75c.179-.179.027-.327-.088-.355-.243-.06-.492-.089-.741-.089-.796 0-1.594.305-2.204.914-.94.939-1.155 2.33-.642 3.471l-2.097 2.098-.096-.131c-.614-.942-.975-2.064-.975-3.272 0-3.314 2.686-6 6-6 3.314-.002 6.001 2.684 6.001 5.998zm-13.5 0c0 1.136.26 2.246.752 3.261H4.644c-.815 0-1.478-.664-1.478-1.481v-5.358c0-.783.438-1.003 1.101-1.336l.207-.105c.021-.012.502-.275 1.215-.56v1.363l.001.02c.084 3.145 3 5.609 6.638 5.609 3.64 0 6.556-2.464 6.639-5.609v-2.996c1.658.303 3.125.731 4.276 1.127-1.879 1.363-3.108 3.571-3.108 6.065z"/>
</svg>
