<svg xmlns="http://www.w3.org/2000/svg" viewBox="0 0 36 36">
  <path d="M14.83 23.058v.514c0 .202-.165.369-.367.369h-.548c-.205 0-.372-.167-.372-.369v-.514c0-.204.167-.367.372-.367h.548c.202 0 .367.163.367.367zm-.955-3.93h.554c.198 0 .364-.162.364-.368v-.513c0-.201-.167-.365-.364-.365h-.554c-.198 0-.364.164-.364.365v.513c0 .206.166.368.364.368zm-1.804 1.16h-.549c-.205 0-.37.163-.37.367v.509c0 .203.165.371.37.371h.549c.203 0 .368-.168.368-.371v-.509c.001-.204-.165-.367-.368-.367zm2.392 0h-.548c-.205 0-.372.163-.372.367v.509c0 .203.167.371.372.371h.548c.202 0 .367-.168.367-.371v-.509c0-.204-.165-.367-.367-.367zm-2.392 2.403h-.549c-.205 0-.37.163-.37.367v.514c0 .202.165.369.37.369h.549c.203 0 .368-.167.368-.369v-.514c.001-.204-.165-.367-.368-.367zm-.582-3.563h.549c.201 0 .368-.162.368-.368v-.513c0-.201-.167-.365-.368-.365h-.549c-.205 0-.37.164-.37.365v.513c0 .206.165.368.37.368zm5.362 1.16h-.544c-.204 0-.371.163-.371.367v.509c0 .203.167.371.371.371h.544c.207 0 .369-.168.369-.371v-.509c0-.204-.162-.367-.369-.367zm16.778 7.247c0 3.515-2.86 6.375-6.375 6.375-2.126 0-4.007-1.05-5.166-2.655H6.485c-.815 0-1.478-.665-1.478-1.481v-5.358c0-.783.438-1.003 1.101-1.336l.206-.104c.031-.017 1.038-.573 2.34-.951V8.674c0-1.182.538-2.259 1.415-3.076v-3.47c0-.207.168-.375.375-.375s.375.168.375.375v2.888c.93-.598 2.089-.958 3.349-.958 3.041 0 5.515 2.071 5.515 4.616v11.947c1.873.259 3.556.704 4.894 1.139.816-.38 1.721-.598 2.679-.598 3.514-.002 6.373 2.858 6.373 6.373zM9.404 23.757c.056 2.077 2.193 3.774 4.764 3.774 2.572 0 4.71-1.697 4.765-3.784V8.673c0-2.132-2.137-3.866-4.765-3.866-2.627 0-4.764 1.734-4.764 3.866v15.084zm12.214 6.748c-.47-.888-.739-1.898-.739-2.97 0-2.187 1.108-4.119 2.791-5.268-1.157-.347-2.515-.679-3.987-.89v2.38c-.067 2.541-2.489 4.524-5.515 4.524-3.024 0-5.446-1.983-5.513-4.514v-.958c-1.116.351-1.978.822-1.987.827l-.223.114c-.65.327-.688.364-.688.667v5.358c0 .403.327.731.728.731h15.133zm11.261-2.97c0-3.102-2.523-5.625-5.625-5.625-3.101 0-5.625 2.523-5.625 5.625 0 3.101 2.524 5.625 5.625 5.625 3.102 0 5.625-2.523 5.625-5.625zM11.066 13.876c.207 0 .375-.168.375-.375V8.833c0-.066.05-.118.115-.118h5.224c.065 0 .117.053.117.118v6.39c0 .063-.054.117-.117.117h-5.224c-.207 0-.375.168-.375.375s.168.375.375.375h5.224c.478 0 .867-.389.867-.867v-6.39c0-.479-.389-.868-.867-.868h-5.224c-.477 0-.865.389-.865.868v4.668c0 .207.167.375.375.375zm5.785 8.815h-.544c-.204 0-.371.163-.371.367v.514c0 .202.167.369.371.369h.544c.207 0 .369-.167.369-.369v-.514c0-.204-.162-.367-.369-.367zm13.844 2.78c-.126-.028-.255.01-.345.101l-1.572 1.572c-.315.314-.825.316-1.138.003-.312-.311-.31-.821.004-1.136l1.573-1.573c.09-.09.128-.22.101-.345-.027-.125-.116-.227-.235-.271-1.178-.438-2.516-.146-3.408.747-.881.88-1.172 2.2-.762 3.357l-1.527 1.528c-.146.147-.146.384 0 .53.147.147.384.146.53 0l1.702-1.703c.11-.11.141-.277.077-.42-.419-.929-.214-2.039.511-2.763.535-.535 1.281-.789 2.006-.716l-1.098 1.098c-.606.608-.607 1.593-.003 2.196.603.603 1.588.603 2.197-.003l1.097-1.097c.073.729-.181 1.472-.715 2.006-.725.723-1.835.927-2.765.511-.141-.064-.308-.033-.419.077l-1.701 1.703c-.146.146-.146.384 0 .53.073.073.169.11.265.11s.192-.037.265-.11l1.526-1.528c1.157.409 2.478.118 3.358-.762.891-.893 1.184-2.23.746-3.408-.043-.118-.146-.207-.27-.234zm-14.426-6.343h.551c.2 0 .364-.162.364-.368v-.513c0-.201-.164-.365-.364-.365h-.551c-.2 0-.366.164-.366.365v.513c-.001.206.165.368.366.368z" fill="#0568ae"/>
</svg>
