<svg xmlns="http://www.w3.org/2000/svg" viewBox="0 0 36 36">
  <path fill="#0568ae" d="M27 21c-3.314 0-6 2.687-6 6s2.686 6 6 6c3.313 0 6-2.686 6-6s-2.687-6-6-6zm-3.447 4.389c-.099-.072-.099-.19 0-.262l.865-.623 1.189-.857.121-.047c.072 0 .12.061.12.171l-.001.825h3.719c.367 0 .664.297.664.664 0 .367-.297.664-.664.664h-3.72l-.001.825c0 .109-.048.17-.12.17l-.122-.047-1.99-1.44-.06-.043zm6.893 3.484l-.865.623-1.189.857-.121.047c-.072 0-.12-.061-.12-.171l.001-.825h-3.719c-.367 0-.664-.297-.664-.664 0-.367.297-.664.664-.664h3.721l.001-.825c0-.109.048-.17.12-.17l.122.047 1.99 1.44.06.044c.099.071.099.189-.001.261zm-10.942-1.786H9.002c-.396 0-.72-.324-.72-.72V7.577c0-.396.324-.72.72-.72h12.279c.396 0 .72.324.72.72v13.848c.591-.53 1.262-.971 1.999-1.294V5.68c0-1.766-.984-2.792-2.845-2.967-1.688-.16-5.208-.168-5.896-.168h-.233c-.689 0-4.21.008-5.898.168-1.861.175-2.845 1.201-2.845 2.967v24.4c0 1.764.983 2.791 2.845 2.967 1.688.16 5.216.167 5.906.167h.235c.688 0 4.2-.008 5.886-.167.411-.039.772-.126 1.096-.247-1.657-1.359-2.72-3.413-2.747-5.713zm-2.855 4.035h-3.015c-.598-.001-1.086-.487-1.086-1.088 0-.6.489-1.086 1.086-1.086h3.015c.602 0 1.086.486 1.086 1.086 0 .601-.484 1.087-1.086 1.088z"/>
</svg>
