<svg xmlns="http://www.w3.org/2000/svg" viewBox="0 0 36 36">
  <path fill="#0568ae" d="M18.399 28.573h-3.015c-.806 0-1.462.655-1.462 1.461 0 .805.655 1.461 1.462 1.462h3.015c.806-.001 1.461-.657 1.461-1.462 0-.805-.655-1.461-1.461-1.461zm0 2.174h-3.014c-.393 0-.712-.32-.712-.712 0-.392.319-.711.712-.711H18.4c.392 0 .711.319.711.711-.001.391-.32.711-.712.712zM27 20.625c-.385 0-.759.04-1.125.105V5.68c0-1.84-1.023-2.909-2.958-3.092-1.861-.176-5.857-.168-6.023-.168-.167.001-4.167-.008-6.027.168-1.936.183-2.959 1.252-2.959 3.092v24.4c0 1.839 1.023 2.908 2.958 3.092 1.683.159 5.12.167 5.886.167h.148c.171-.002 4.157.008 6.017-.167.555-.053 1.026-.187 1.428-.383.809.373 1.706.586 2.654.586 3.515 0 6.375-2.86 6.375-6.375.001-3.515-2.859-6.375-6.374-6.375zm-4.153 11.799c-1.824.172-5.904.166-5.946.165-.04-.002-4.139.008-5.964-.165-1.554-.147-2.279-.893-2.279-2.345V5.68c0-1.454.724-2.199 2.279-2.345 1.668-.158 5.229-.165 5.86-.165h.096c.041 0 4.129-.008 5.953.165 1.554.147 2.278.892 2.278 2.345v15.227c-.422.13-.824.307-1.204.518V7.25c0-.612-.499-1.111-1.113-1.111H10.975c-.614 0-1.113.498-1.113 1.111v13.513c0 .207.168.375.375.375s.375-.168.375-.375V7.25c0-.199.163-.361.363-.361h11.834c.2 0 .363.162.363.361v14.663c-1.472 1.11-2.446 2.84-2.535 4.799h-9.662c-.207 0-.375.168-.375.375s.168.375.375.375h9.68c.147 2.023 1.23 3.789 2.83 4.851-.197.049-.405.089-.638.111zm4.153.201c-3.102 0-5.625-2.523-5.625-5.625s2.523-5.625 5.625-5.625c3.101 0 5.625 2.523 5.625 5.625S30.101 32.625 27 32.625zm3.226-3.959c0 .255-.127.498-.348.666l-1.533 1.178c-.068.052-.148.078-.228.078-.113 0-.224-.05-.298-.147-.126-.165-.095-.4.069-.526l1.13-.868h-4.666c-.207 0-.375-.168-.375-.375s.168-.375.375-.375h4.682l-1.151-.874c-.165-.125-.197-.361-.072-.526.126-.164.361-.196.526-.072l1.541 1.171c.221.17.348.413.348.67zm-6.104-2.662c-.221-.169-.348-.413-.348-.669 0-.255.126-.499.346-.667l1.534-1.177c.165-.127.4-.095.526.069.126.165.095.4-.069.526l-1.13.868h4.667c.207 0 .375.168.375.375s-.168.375-.375.375h-4.681l1.151.874c.164.125.197.361.072.526-.074.097-.186.148-.299.148-.079 0-.159-.025-.227-.076l-1.542-1.172z"/>
</svg>
