<svg xmlns="http://www.w3.org/2000/svg" viewBox="0 0 36 36">
  <path fill="#0568ae" d="M7.2 11.9h-1c-.6 0-1.1.5-1.1 1.1v1c0 .6.5 1.1 1.1 1.1h1c.6 0 1.1-.5 1.1-1.1v-1c0-.6-.5-1.1-1.1-1.1zm.4 2.1c0 .2-.2.3-.3.3h-1c-.2 0-.3-.2-.3-.3v-1c0-.2.2-.3.3-.3h1c.2 0 .3.2.3.3v1zm4.1-2.1h-1c-.6 0-1.1.5-1.1 1.1v1c0 .6.5 1.1 1.1 1.1h1c.6 0 1.1-.5 1.1-1.1v-1c0-.6-.5-1.1-1.1-1.1zm.4 2.1c0 .2-.2.3-.3.3h-1c-.2 0-.3-.2-.3-.3v-1c0-.2.2-.3.3-.3h1c.2 0 .3.2.3.3v1zm4.1-2.1h-1c-.6 0-1.1.5-1.1 1.1v1c0 .6.5 1.1 1.1 1.1h1c.6 0 1.1-.5 1.1-1.1v-1c0-.6-.5-1.1-1.1-1.1zm.4 2.1c0 .2-.2.3-.3.3h-1c-.2 0-.3-.2-.3-.3v-1c0-.2.2-.3.3-.3h1c.2 0 .3.2.3.3v1zm4.1-2.1h-1c-.6 0-1.1.5-1.1 1.1v1c0 .6.5 1.1 1.1 1.1h1c.6 0 1.1-.5 1.1-1.1v-1c0-.6-.5-1.1-1.1-1.1zm.4 2.1c0 .2-.2.3-.3.3h-1c-.2 0-.3-.2-.3-.3v-1c0-.2.2-.3.3-.3h1c.2 0 .3.2.3.3v1zm4.1-2.1h-1c-.6 0-1.1.5-1.1 1.1v1c0 .6.5 1.1 1.1 1.1h1c.6 0 1.1-.5 1.1-1.1v-1c0-.6-.5-1.1-1.1-1.1zm.4 2.1c0 .2-.2.3-.3.3h-1c-.2 0-.3-.2-.3-.3v-1c0-.2.2-.3.3-.3h1c.2 0 .3.2.3.3v1zm4.1 1.1c.6 0 1.1-.5 1.1-1.1v-1c0-.6-.5-1.1-1.1-1.1h-1c-.6 0-1.1.5-1.1 1.1v1c0 .6.5 1.1 1.1 1.1h1zM28.4 14v-1c0-.2.2-.3.3-.3h1c.2 0 .3.2.3.3v1c0 .2-.2.3-.3.3h-1c-.1 0-.3-.1-.3-.3zM8.5 16.4c-.6 0-1.1.5-1.1 1.1v1c0 .6.5 1.1 1.1 1.1h1c.6 0 1.1-.5 1.1-1.1v-1c0-.6-.5-1.1-1.1-1.1h-1zm1.3 1.1v1c0 .2-.2.3-.3.3h-1c-.2 0-.3-.2-.3-.3v-1c0-.2.2-.3.3-.3h1c.2-.1.3.1.3.3zm3.2-1.1c-.6 0-1.1.5-1.1 1.1v1c0 .6.5 1.1 1.1 1.1h1c.6 0 1.1-.5 1.1-1.1v-1c0-.6-.5-1.1-1.1-1.1h-1zm1.3 1.1v1c0 .2-.2.3-.3.3h-1c-.2 0-.3-.2-.3-.3v-1c0-.2.2-.3.3-.3h1c.2-.1.3.1.3.3zm3.2-1.1c-.6 0-1.1.5-1.1 1.1v1c0 .6.5 1.1 1.1 1.1h1c.6 0 1.1-.5 1.1-1.1v-1c0-.6-.5-1.1-1.1-1.1h-1zm1.3 1.1v1c0 .2-.2.3-.3.3h-1c-.2 0-.3-.2-.3-.3v-1c0-.2.2-.3.3-.3h1c.2-.1.3.1.3.3zm3.2-1.1c-.6 0-1.1.5-1.1 1.1v1c0 .6.5 1.1 1.1 1.1h1c.6 0 1.1-.5 1.1-1.1v-1c0-.6-.5-1.1-1.1-1.1h-1zm1.3 1.1v1c0 .2-.2.3-.3.3h-1c-.2 0-.3-.2-.3-.3v-1c0-.2.2-.3.3-.3h1c.2-.1.3.1.3.3zm2.1 0v1c0 .6.5 1.1 1.1 1.1h3.2c.6 0 1.1-.5 1.1-1.1v-1c0-.6-.5-1.1-1.1-1.1h-3.2c-.6 0-1.1.5-1.1 1.1zm4.7 0v1c0 .2-.2.3-.3.3h-3.2c-.2 0-.3-.2-.3-.3v-1c0-.2.2-.3.3-.3h3.2c.1-.1.3.1.3.3zM5.2 23c0 .6.5 1.1 1.1 1.1h1c.6 0 1.1-.5 1.1-1.1v-1c0-.6-.5-1.1-1.1-1.1h-1c-.6 0-1.1.5-1.1 1.1v1zm.7-1c0-.2.2-.3.3-.3h1c.2 0 .3.2.3.3v1c0 .2-.2.3-.3.3h-1c-.2 0-.3-.2-.3-.3v-1zm4.9-1.1c-.6 0-1.1.5-1.1 1.1v1c0 .6.5 1.1 1.1 1.1h10c.6 0 1.1-.5 1.1-1.1v-1c0-.6-.5-1.1-1.1-1.1h-10zM21.1 22v1c0 .2-.2.3-.3.3h-10c-.2 0-.3-.2-.3-.3v-1c0-.2.2-.3.3-.3h10c.1-.1.3.1.3.3zm3.2-1.1c-.6 0-1.1.5-1.1 1.1v1c0 .6.5 1.1 1.1 1.1h1c.6 0 1.1-.5 1.1-1.1v-1c0-.6-.5-1.1-1.1-1.1h-1zm1.3 1.1v1c0 .2-.2.3-.3.3h-1c-.2 0-.3-.2-.3-.3v-1c0-.2.2-.3.3-.3h1c.1-.1.3.1.3.3zm4.1-1.1h-1c-.6 0-1.1.5-1.1 1.1v1c0 .6.5 1.1 1.1 1.1h1c.6 0 1.1-.5 1.1-1.1v-1c0-.6-.5-1.1-1.1-1.1zm.4 2.1c0 .2-.2.3-.3.3h-1c-.2 0-.3-.2-.3-.3v-1c0-.2.2-.3.3-.3h1c.2 0 .3.2.3.3v1zm3.3-11.9v13.6c0 1-.8 1.8-1.8 1.8H4.4c-.2 0-.4-.2-.4-.4s.2-.4.4-.4h27.1c.6 0 1.1-.5 1.1-1.1V11.1c0-.6-.5-1.1-1.1-1.1H4.4c-.6 0-1.1.5-1.1 1.1V23c0 .2-.2.4-.4.4s-.4-.2-.4-.4V11.1c0-1 .8-1.8 1.8-1.8h27.1c1.2 0 2 .8 2 1.8z"/>
</svg>
