<svg xmlns="http://www.w3.org/2000/svg" viewBox="0 0 36 36">
  <path fill="#0568ae" d="M32 9.7H4c-.6 0-1 .4-1 1v14.5c0 .6.5 1 1 1h28c.6 0 1-.4 1-1V10.7c0-.5-.5-1-1-1zm-8.5 3.2c0-.3.3-.6.6-.6h1.2c.3 0 .6.3.6.6v1.2c0 .3-.3.6-.6.6h-1.2c-.3 0-.6-.3-.6-.6v-1.2zm-4.5 0c0-.3.3-.6.6-.6h1.2c.3 0 .6.3.6.6v1.2c0 .3-.3.6-.6.6h-1.2c-.3 0-.6-.3-.6-.6v-1.2zm-1.6 3.9h1.2c.3 0 .6.3.6.6v1.2c0 .3-.3.6-.6.6h-1.2c-.3 0-.6-.3-.6-.6v-1.2c0-.3.3-.6.6-.6zm-2.9-3.9c0-.3.3-.6.6-.6h1.2c.3 0 .6.3.6.6v1.2c0 .3-.3.6-.6.6h-1.2c-.3 0-.6-.3-.6-.6v-1.2zm-1.6 3.9h1.2c.3 0 .6.3.6.6v1.2c0 .3-.3.6-.6.6h-1.2c-.3 0-.6-.3-.6-.6v-1.2c0-.3.3-.6.6-.6zM10 12.9c0-.3.3-.6.6-.6h1.2c.3 0 .6.3.6.6v1.2c0 .3-.3.6-.6.6h-1.2c-.3 0-.6-.3-.6-.6v-1.2zm-4.5 0c0-.3.3-.6.6-.6h1.2c.3 0 .6.3.6.6v1.2c0 .3-.3.6-.6.6H6.2c-.3 0-.6-.3-.6-.6v-1.2zM8 23.1c0 .3-.3.6-.6.6H6.2c-.3 0-.6-.3-.6-.6v-1.2c0-.3.3-.6.6-.6h1.2c.3 0 .6.3.6.6v1.2zm.4-3.9c-.3 0-.6-.3-.6-.6v-1.2c0-.3.3-.6.6-.6h1.2c.3 0 .6.3.6.6v1.2c0 .3-.3.6-.6.6H8.4zm13.1 3.9c0 .3-.3.6-.6.6H10.7c-.3 0-.6-.3-.6-.6v-1.2c0-.3.3-.6.6-.6h10.2c.3 0 .6.3.6.6v1.2zm.4-3.9c-.3 0-.6-.3-.6-.6v-1.2c0-.3.3-.6.6-.6h1.2c.3 0 .6.3.6.6v1.2c0 .3-.3.6-.6.6h-1.2zm4.1 3.9c0 .3-.3.6-.6.6h-1.2c-.3 0-.6-.3-.6-.6v-1.2c0-.3.3-.6.6-.6h1.2c.3 0 .6.3.6.6v1.2zm4.5 0c0 .3-.3.6-.6.6h-1.2c-.3 0-.6-.3-.6-.6v-1.2c0-.3.3-.6.6-.6h1.2c.3 0 .6.3.6.6v1.2zm0-4.5c0 .3-.3.6-.6.6h-3.4c-.3 0-.6-.3-.6-.6v-1.2c0-.3.3-.6.6-.6h3.4c.3 0 .6.3.6.6v1.2zm0-4.5c0 .3-.3.6-.6.6h-1.2c-.3 0-.6-.3-.6-.6v-1.2c0-.3.3-.6.6-.6h1.2c.3 0 .6.3.6.6v1.2z"/>
</svg>
