<svg xmlns="http://www.w3.org/2000/svg" viewBox="0 0 36 36">
  <path fill="#0568ae" d="M24.242 18.618l-6.839-6.841c-.575-.573-1.577-.571-2.145.001L8.373 18.66c-1.807 1.807-2.286 4.442-1.452 6.697-.291.233-.577.486-.851.759-.854.854-1.523 1.814-1.882 2.703-.634 1.569-.121 2.41.241 2.772.385.384.865.55 1.395.55 1.287 0 2.867-.978 4.08-2.192.274-.274.527-.56.759-.85.7.26 1.445.402 2.213.402 1.693 0 3.285-.659 4.483-1.856l6.886-6.88c.59-.594.588-1.557-.003-2.147zM8.49 28.535c-1.162 1.162-2.201 1.571-2.603 1.597.027-.402.436-1.441 1.598-2.602.142-.142.288-.275.437-.404.142.176.293.347.457.511.165.165.339.317.518.462-.126.143-.259.289-.407.436zm4.17-6.615c-.524.525-1.376.525-1.897 0-.528-.524-.526-1.375-.001-1.898.524-.525 1.374-.525 1.898 0 .525.523.525 1.374 0 1.898zm1.438-5.233c.52-.525 1.374-.525 1.896 0 .526.525.526 1.374 0 1.899-.523.524-1.376.524-1.899 0-.523-.524-.521-1.374.003-1.899zm1.899 8.57c-.524.526-1.374.526-1.898 0-.523-.522-.524-1.373.002-1.897.522-.525 1.373-.524 1.896 0 .524.523.526 1.373 0 1.897zm3.337-3.333c-.527.523-1.375.524-1.901 0-.524-.526-.524-1.375.001-1.9.525-.523 1.375-.524 1.9 0 .521.525.521 1.374 0 1.9zm11.907-5.194l-.131.009c-.494 0-.924-.367-.99-.87-.239-1.826-.89-3.526-1.936-5.055v-.001c-1.841-2.699-4.753-4.508-7.99-4.963-.547-.077-.928-.583-.851-1.129.077-.547.582-.929 1.129-.851 3.793.533 7.206 2.653 9.364 5.815v.001c1.224 1.79 1.986 3.783 2.267 5.923.072.547-.314 1.049-.862 1.121zm-4.248.918l-.133.009c-.494 0-.923-.366-.99-.868-.162-1.216-.6-2.354-1.302-3.384-1.253-1.826-3.224-3.046-5.407-3.346-.547-.075-.93-.58-.854-1.127.075-.547.575-.931 1.127-.855 2.74.376 5.213 1.906 6.785 4.197v.001l.001.001c.88 1.291 1.429 2.72 1.633 4.248.072.548-.312 1.051-.86 1.124z"/>
</svg>
