<svg xmlns="http://www.w3.org/2000/svg" viewBox="0 0 36 36">
  <path fill="#0568ae" d="M15.547 25.531c-.459 0-.891-.18-1.215-.505-.323-.323-.502-.754-.502-1.212 0-.459.179-.891.505-1.215.323-.324.753-.502 1.211-.503h.002c.459 0 .89.179 1.214.503.326.327.504.759.504 1.219-.001.458-.18.888-.505 1.21-.324.324-.756.503-1.214.503zm0-2.686c-.259 0-.5.101-.682.283l-.001.001c-.183.183-.284.426-.285.684 0 .258.1.5.282.683.184.184.426.285.684.285.258 0 .501-.101.683-.284.184-.183.284-.424.285-.681 0-.259-.101-.503-.285-.688-.18-.182-.423-.283-.681-.283zm3.106-.423c-.44 0-.88-.167-1.214-.499-.67-.671-.669-1.762 0-2.432h.001c.671-.669 1.761-.668 2.43 0 .665.671.665 1.761.001 2.43-.336.334-.777.501-1.218.501zm-.683-2.4c-.377.378-.377.992 0 1.37.377.375.993.373 1.372-.002.373-.376.373-.992-.002-1.37-.378-.375-.993-.374-1.37.002zm-5.76 2.172h-.002c-.459-.001-.889-.18-1.211-.505-.324-.321-.503-.752-.504-1.21 0-.46.179-.892.504-1.217.324-.324.755-.503 1.214-.503h.001c.459 0 .89.179 1.214.504.324.323.503.754.503 1.213 0 .459-.179.891-.503 1.215-.326.324-.757.503-1.216.503zm0-2.686c-.258 0-.501.101-.683.284-.184.183-.284.426-.284.685.001.258.101.5.284.681.183.184.424.285.682.285h.001c.259 0 .502-.101.684-.284.183-.183.284-.426.284-.684 0-.258-.101-.5-.283-.683-.184-.182-.427-.284-.685-.284zm3.106-.421c-.46 0-.892-.179-1.215-.504-.668-.668-.667-1.757.002-2.428.322-.325.752-.504 1.211-.504h.002c.46 0 .891.179 1.215.504.325.324.504.756.504 1.215 0 .458-.18.89-.505 1.214-.322.324-.753.503-1.214.503zm.001-2.686h-.001c-.258 0-.5.101-.68.283l-.001.001c-.378.378-.379.993-.003 1.369.182.183.425.283.685.283.259 0 .502-.101.684-.283.184-.184.285-.426.285-.684 0-.258-.101-.501-.285-.685-.183-.183-.425-.284-.684-.284zm14.001-6.359c-2.059-3.018-5.315-5.04-8.935-5.549-.201-.027-.395.114-.424.319-.029.205.114.395.319.424 3.41.48 6.48 2.386 8.42 5.229v.001c1.101 1.611 1.787 3.403 2.04 5.327.024.189.185.326.371.326l.049-.003c.205-.027.35-.215.323-.421-.267-2.042-.994-3.944-2.163-5.653zm-3.615 2.593c-1.473-2.147-3.789-3.58-6.355-3.932-.203-.027-.394.116-.422.321-.028.205.115.394.321.423 2.357.324 4.484 1.64 5.837 3.611v.001c.758 1.111 1.231 2.341 1.406 3.655.025.188.186.326.371.326l.05-.003c.206-.027.35-.216.322-.421-.191-1.434-.706-2.772-1.53-3.981zm-1.463 5.988l-6.838-6.84c-.289-.288-.659-.446-1.079-.444-.404.002-.783.16-1.066.445l-6.885 6.882c-1.97 1.97-2.364 4.924-1.195 7.296-.227.189-.451.388-.666.602-.797.796-1.416 1.682-1.745 2.495-.37.915-.334 1.66.103 2.096.239.239.57.353.961.353.986 0 2.358-.723 3.63-1.995.217-.216.417-.44.605-.666.883.434 1.845.657 2.809.657 1.624 0 3.248-.618 4.483-1.854l6.886-6.88c.591-.594.589-1.557-.003-2.147zM8.931 28.983c-1.602 1.602-3.135 2.037-3.53 1.642-.205-.205-.181-.685.061-1.286.292-.721.852-1.518 1.58-2.246.165-.165.336-.319.509-.468.235.36.51.701.825 1.017.318.318.662.594 1.024.83-.147.173-.303.344-.469.511zm14.781-8.742l-6.885 6.879c-1.699 1.699-4.227 2.067-6.296 1.116.284-.411.515-.824.675-1.219.37-.915.333-1.66-.103-2.096-.147-.147-.384-.147-.53 0-.147.146-.147.384 0 .53.204.204.181.684-.062 1.285-.148.367-.368.754-.643 1.142-.34-.216-.664-.469-.961-.766-2.184-2.184-2.186-5.735-.005-7.917l6.886-6.883c.142-.144.333-.223.537-.224h.003c.205 0 .399.08.544.225l6.839 6.841c.299.299.3.787.001 1.087z"/>
</svg>
