<svg xmlns="http://www.w3.org/2000/svg" viewBox="0 0 36 36">
  <path fill="#0568ae" d="M31.146 23.265h-2.244V10.976c0-1.127-.916-2.041-2.042-2.041H9.137c-1.125 0-2.04.914-2.04 2.041v12.289H4.853c-.829 0-1.5.672-1.5 1.5s.671 1.5 1.5 1.5h26.293c.829 0 1.5-.672 1.5-1.5 0-.829-.671-1.5-1.5-1.5zm-11.881 1.696h-2.531c-.414 0-.75-.336-.75-.75s.336-.75.75-.75h2.531c.414 0 .75.336.75.75 0 .415-.336.75-.75.75zm7.643-3.59c0 .396-.324.72-.72.72H9.814c-.396 0-.72-.324-.72-.72v-9.697c0-.396.324-.72.72-.72h16.374c.396 0 .72.324.72.72v9.697z"/>
</svg>
