<svg xmlns="http://www.w3.org/2000/svg" viewBox="0 0 36 36" enable-background="new 0 0 36 36"><path d="M19.725 25.369h-3.45c-.207 0-.375-.168-.375-.375s.168-.375.375-.375h3.45c.207 0 .375.168.375.375s-.168.375-.375.375zm13.296-.704v.52c0 .802-.653 1.455-1.455 1.455h-27.132c-.802 0-1.455-.653-1.455-1.455v-.52c0-.802.653-1.455 1.455-1.455h2.289v-12.235c0-1.332 1.083-2.416 2.415-2.416h17.722c1.333 0 2.417 1.084 2.417 2.416v12.235h2.289c.803 0 1.455.653 1.455 1.455zm-25.549-1.455h21.055v-12.235c0-.919-.748-1.666-1.667-1.666h-17.723c-.918 0-1.665.747-1.665 1.666v12.235zm24.799 1.455c0-.389-.316-.705-.705-.705h-27.132c-.389 0-.705.316-.705.705v.52c0 .389.316.705.705.705h27.133c.389 0 .705-.316.705-.705v-.52zm-5.255-3.246v-9.661c0-.604-.491-1.095-1.095-1.095h-15.842c-.604 0-1.095.491-1.095 1.095v5.842c0 .207.168.375.375.375s.375-.168.375-.375v-5.842c0-.19.155-.345.345-.345h15.842c.191 0 .345.155.345.345v9.661c0 .191-.155.345-.345.345h-15.842c-.207 0-.375.168-.375.375s.168.375.375.375h15.842c.604 0 1.095-.491 1.095-1.095z" fill="#0568ae"/></svg>