<svg xmlns="http://www.w3.org/2000/svg" viewBox="0 0 36 36">
  <path fill="#0568ae" d="M25.849 29.747H4.909c-1.021 0-1.852-.831-1.852-1.854V13.212c0-1.022.831-1.853 1.852-1.853h20.939c1.021 0 1.852.831 1.852 1.853l.001 14.681c0 1.023-.831 1.854-1.852 1.854zM4.909 12.109c-.608 0-1.102.495-1.102 1.103v14.681c0 .609.494 1.104 1.102 1.104h20.94c.608 0 1.102-.495 1.102-1.104l-.001-14.681c0-.608-.494-1.103-1.102-1.103H4.909zm27.987 10.678l-.001-14.681c0-1.022-.831-1.853-1.851-1.853h-20.94c-1.021 0-1.852.831-1.852 1.853v1.302c0 .207.168.375.375.375s.375-.168.375-.375V8.106c0-.608.494-1.103 1.102-1.103h20.94c.607 0 1.101.495 1.101 1.103l.001 14.681c0 .609-.495 1.104-1.102 1.104h-1.302c-.207 0-.375.168-.375.375s.168.375.375.375h1.302c1.021 0 1.852-.832 1.852-1.854z"/>
</svg>
