<svg xmlns="http://www.w3.org/2000/svg" viewBox="0 0 36 36">
  <path fill="#0568ae" d="M29.16 11.419l-3.912-3.033c-.544-.442-1.366-.95-2.905-.956H8.736c-1.891 0-3.429 1.537-3.429 3.426v14.287c0 1.889 1.538 3.427 3.429 3.427h18.606c1.89 0 3.428-1.539 3.428-3.43V14.705c0-1.753-.77-2.612-1.61-3.286zm-.39 13.721c0 .788-.641 1.43-1.428 1.43H8.736c-.788 0-1.429-.64-1.429-1.427V10.856c0-.786.641-1.426 1.429-1.426H22.34c.947.003 1.347.264 1.669.525l3.907 3.03c.59.474.853.834.853 1.72V25.14zm-5.658-13.989c-.156-.122-.446-.221-.644-.221h-13.3c-.198 0-.36.162-.36.36v13.42c0 .198.162.36.36.36h1.328c.013-.909.752-1.643 1.664-1.643.912 0 1.651.734 1.664 1.643h8.43c.013-.909.752-1.643 1.664-1.643.912 0 1.651.734 1.664 1.643h1.328c.198 0 .36-.162.36-.36v-9.965c0-.198-.128-.459-.284-.581l-3.874-3.013zm-.507 9.762c0 .198-.162.36-.36.36h-8.412c-.198 0-.36-.162-.36-.36v-5.617c0-.198.162-.36.36-.36h8.412c.198 0 .36.162.36.36v5.617z"/>
</svg>
