<svg xmlns="http://www.w3.org/2000/svg" viewBox="0 0 36 36">
  <path fill="#0568ae" d="M28.749 11.408L24.831 8.37c-.494-.4-1.178-.81-2.511-.815H8.713c-1.546 0-2.804 1.256-2.804 2.801v14.287c0 1.545 1.258 2.802 2.804 2.802h18.605c1.546 0 2.803-1.258 2.803-2.805V14.205c.001-1.406-.546-2.134-1.372-2.797zm.623 13.231c0 1.133-.921 2.055-2.053 2.055H8.713c-1.133 0-2.054-.92-2.054-2.052V10.355c0-1.131.921-2.051 2.054-2.051h13.606c1.096.004 1.628.314 2.046.653l3.919 3.039c.689.553 1.087 1.091 1.087 2.207v10.436zm-1.726-10.434v10.117c0 .351-.296.647-.646.647h-1.192c-.198 0-.362-.154-.374-.352-.027-.449-.4-.801-.848-.801-.447 0-.82.352-.849.802-.012.197-.176.351-.374.351H12.667c-.198 0-.362-.154-.374-.352-.028-.449-.4-.801-.848-.801-.447 0-.819.352-.847.801-.012.198-.176.352-.374.352H9.065c-.207 0-.375-.168-.375-.375s.168-.375.375-.375h.845c.196-.669.813-1.153 1.534-1.153.721 0 1.339.484 1.535 1.153H23.05c.197-.669.815-1.153 1.535-1.153.722 0 1.339.484 1.535 1.153h.774V14.205l-.004-.166-.162-.115-1.417-1.098-2.517-1.952c-.065-.052-.114-.092-.478-.093H9.135v8.852c0 .207-.168.375-.375.375s-.375-.168-.375-.375v-8.961c0-.36.283-.641.643-.641h13.29c.582.002.768.115.951.261l2.503 1.941 1.422 1.102c.378.306.452.405.452.87zm-5.507 6.942c.513 0 .93-.417.93-.929V14.99c0-.513-.417-.931-.93-.931h-8.022c-.512 0-.929.417-.929.931v5.228c0 .512.417.929.929.929h8.022zm-8.201-.929V14.99c0-.098.082-.181.179-.181h8.022c.098 0 .18.083.18.181v5.228c0 .097-.082.179-.18.179h-8.022c-.097 0-.179-.082-.179-.179z"/>
</svg>
