<svg xmlns="http://www.w3.org/2000/svg" viewBox="0 0 36 36">
  <path fill="#0568ae" d="M3 18c0 2.3.6 4.7 1.7 6.9.5 1 1.6 1.7 2.8 1.7h21.1c1.2 0 2.2-.6 2.8-1.7 1.1-2.1 1.7-4.5 1.7-6.9 0-8.3-6.7-15-15-15C9.7 3.1 3 9.8 3 18zM18.7 7c0 .4-.3.7-.7.7-.4 0-.7-.3-.7-.7V5c0-.4.3-.7.7-.7.4 0 .7.3.7.7v2zm9.7 11.6c0-.4.3-.7.7-.7H31c.4 0 .7.3.7.7 0 .4-.3.7-.7.7h-1.9c-.4.1-.7-.3-.7-.7zm-1.2-6.4l1.6-1c.3-.2.8-.1 1 .2.2.3.1.8-.2 1l-1.6 1c-.1.1-.2.1-.4.1s-.5-.1-.6-.4c-.2-.2-.1-.7.2-.9zm-4.3-4l.9-1.7c.2-.4.6-.5 1-.3s.5.6.3 1l-.9 1.7c-.1.2-.4.4-.6.4-.1 0-.2 0-.4-.1-.4-.2-.5-.6-.3-1zm-11.2 4.1c.2-.2.5-.1.7.1l6.9 8.6c.2.3.4.6.4 1 0 .9-.7 1.6-1.6 1.6-.6 0-1.1-.3-1.4-.8L11.5 13c-.1-.2-.1-.5.2-.7zm-.6-6.1c.4-.2.8-.1 1 .3l.9 1.7c.2.4.1.8-.3 1-.1.1-.2.1-.4.1-.3 0-.5-.1-.6-.4l-.9-1.7c-.1-.3 0-.8.3-1zM8 13.5l-1.6-1c-.3-.2-.5-.7-.2-1 .2-.3.7-.5 1-.2l1.6 1c.3.2.5.7.2 1-.1.2-.4.4-.6.4-.2-.1-.3-.2-.4-.2zm-3.7 5.1c0-.4.3-.7.7-.7h1.9c.4 0 .7.3.7.7 0 .4-.3.7-.7.7H5c-.4.1-.7-.3-.7-.7z"/>
</svg>
