<svg xmlns="http://www.w3.org/2000/svg" viewBox="0 0 36 36">
  <path fill="#0568ae" d="M10.6 10.7l6 9.1c-.5.4-.8 1-.8 1.7 0 1.2 1 2.3 2.3 2.3 1.2 0 2.3-1 2.3-2.3 0-1.2-1-2.3-2.3-2.3-.3 0-.6.1-.8.2l-6-9.1c-.1-.2-.3-.2-.5-.1-.3.1-.3.4-.2.5zm5.9 10.8c0-.8.7-1.5 1.5-1.5s1.5.7 1.5 1.5S18.8 23 18 23s-1.5-.7-1.5-1.5zM18 2.7c8.5 0 15.4 6.9 15.4 15.4 0 2.7-.7 5.3-2 7.7-.1.2-.3.2-.5.1s-.2-.3-.1-.5c1.2-2.1 1.9-4.5 1.9-6.9h-1.9c-.2 0-.4-.2-.4-.4s.2-.4.4-.4h1.9c-.1-2.4-.7-4.7-1.8-6.6l-1.7 1c-.1 0-.1.1-.2.1s-.3-.1-.3-.2c-.1-.2 0-.4.1-.5l1.7-1c-1.2-2-2.9-3.6-4.9-4.9l-1 1.7c-.1.1-.2.2-.3.2-.1 0-.1 0-.2-.1s-.2-.3-.1-.5l1-1.7c-2-1.1-4.2-1.7-6.6-1.8v2c0 .2-.2.4-.4.4s-.4-.2-.4-.4v-2c-2.4.1-4.6.7-6.6 1.8l1 1.7c.1.2 0 .4-.1.5-.1 0-.1.1-.2.1s-.3-.1-.3-.2l-1-1.7c-2 1.2-3.6 2.9-4.8 4.9l1.7 1c.2.1.2.3.1.5-.2 0-.3.1-.4.1-.1 0-.1 0-.2-.1l-1.7-1c-1.1 2-1.7 4.2-1.8 6.6h1.9c.2 0 .4.2.4.4s-.2.4-.4.4H3.4c.1 2.4.7 4.8 1.9 6.9.1.2 0 .4-.1.5-.1 0-.1.1-.2.1s-.3-.1-.3-.2c-1.3-2.3-2.1-5-2.1-7.7C2.6 9.6 9.5 2.7 18 2.7z"/>
</svg>
