<svg xmlns="http://www.w3.org/2000/svg" viewBox="0 0 36 36">
  <path fill="#0568ae" d="M18.083 3.056c-8.258 0-14.976 6.717-14.976 14.974 0 2.376.574 4.747 1.66 6.858.526 1.023 1.584 1.658 2.761 1.658l21.06.025c1.171 0 2.291-.663 2.791-1.65 1.097-2.168 1.677-4.551 1.677-6.891 0-8.257-6.717-14.974-14.973-14.974zm-.73 2c0-.403.327-.73.73-.73.403 0 .73.327.73.73v1.956c0 .403-.327.73-.73.73-.403 0-.73-.327-.73-.73V5.056zM6.986 19.373H5.12c-.403 0-.73-.327-.73-.73 0-.403.327-.73.73-.73h1.865c.403 0 .73.327.73.73.001.403-.326.73-.729.73zm2.135-6.168c-.137.227-.378.352-.625.352-.129 0-.259-.034-.377-.106l-1.615-.978c-.345-.209-.455-.658-.247-1.003.209-.345.658-.455 1.002-.247l1.615.978c.345.211.456.66.247 1.004zm3.788-3.995c-.111.061-.232.09-.351.09-.258 0-.507-.137-.64-.378l-.933-1.694c-.195-.353-.066-.797.287-.991.353-.195.797-.066.991.287l.933 1.694c.195.353.067.797-.287.992zm11.669 3.825l-5.118 9.917-.005-.003c-.28.47-.788.788-1.374.788-.886 0-1.604-.719-1.604-1.604 0-.397.15-.756.389-1.036l-.006-.004 6.88-8.601c.15-.231.46-.298.691-.147.232.149.298.459.147.69zm.647-5.806l-.932 1.693c-.133.242-.383.378-.64.378-.119 0-.24-.029-.352-.091-.353-.195-.482-.638-.288-.992l.932-1.693c.195-.353.639-.481.992-.288.354.196.482.64.288.993zm2.489 6.329c-.247 0-.488-.126-.625-.352-.209-.345-.099-.794.247-1.002l1.615-.978c.344-.208.793-.099 1.002.247.209.345.099.794-.247 1.003l-1.615.978c-.117.07-.248.104-.377.104zm3.329 5.815h-1.867c-.403 0-.73-.327-.73-.73 0-.403.327-.73.73-.73h1.867c.403 0 .73.327.73.73 0 .403-.327.73-.73.73z"/>
</svg>
