<svg xmlns="http://www.w3.org/2000/svg" viewBox="0 0 36 36">
  <path fill="#0568ae" d="M25.368 10.207c-.173-.114-.406-.065-.52.107l-5.964 9.076c-.258-.102-.537-.163-.831-.163-1.242 0-2.252 1.01-2.252 2.251s1.01 2.251 2.252 2.251c1.242 0 2.252-1.01 2.252-2.251 0-.678-.308-1.28-.783-1.693l5.953-9.059c.114-.172.066-.405-.107-.519zM18.053 22.98c-.828 0-1.502-.673-1.502-1.501s.674-1.501 1.502-1.501 1.502.673 1.502 1.501-.674 1.501-1.502 1.501zm15.404-4.924c0 2.704-.71 5.365-2.056 7.693-.069.12-.196.188-.325.188l-.187-.05c-.18-.103-.241-.333-.137-.512 1.212-2.1 1.875-4.483 1.942-6.917h-1.943c-.207 0-.375-.168-.375-.375s.168-.375.375-.375h1.948c-.056-2.39-.683-4.641-1.756-6.618l-1.678.969-.187.05c-.13 0-.256-.067-.325-.188-.104-.179-.042-.409.137-.512l1.679-.969c-1.207-1.975-2.868-3.643-4.837-4.859l-.977 1.693c-.069.12-.195.188-.325.188l-.188-.05c-.179-.103-.241-.333-.137-.512l.979-1.696c-1.985-1.09-4.249-1.73-6.654-1.791v1.973c0 .207-.168.375-.375.375s-.375-.168-.375-.375V3.412c-2.39.061-4.64.691-6.615 1.768l.992 1.719c.104.179.042.409-.137.512l-.187.05c-.13 0-.256-.067-.325-.188l-.991-1.717c-1.98 1.214-3.649 2.883-4.863 4.861l1.718.992c.179.103.241.333.137.512-.069.12-.195.188-.325.188l-.187-.05-1.72-.993c-1.081 1.983-1.713 4.242-1.769 6.642h1.948c.207 0 .375.168.375.375s-.168.375-.375.375H3.413c.066 2.421.723 4.795 1.925 6.887.103.179.041.409-.138.512-.18.103-.409.041-.512-.138-1.333-2.322-2.038-4.971-2.038-7.662 0-8.493 6.911-15.403 15.406-15.403 8.492-.001 15.401 6.909 15.401 15.402z"/>
</svg>
