<svg xmlns="http://www.w3.org/2000/svg" viewBox="0 0 36 36">
  <path fill="#0568ae" d="M23.442 31.225h-5.067v-3.869c2.985-.196 5.355-2.679 5.355-5.711V9.754c0-3.159-2.572-5.729-5.733-5.729-3.158 0-5.727 2.57-5.727 5.729v11.891c0 3.034 2.37 5.518 5.355 5.711v3.868h-5.067c-.207 0-.375.168-.375.375s.168.375.375.375h10.884c.207 0 .375-.168.375-.375s-.168-.374-.375-.374zm-10.422-9.58v-3.27h4.798c.207 0 .375-.168.375-.375s-.168-.375-.375-.375H13.02v-3.131h4.798c.207 0 .375-.168.375-.375s-.168-.375-.375-.375H13.02v-3.131h4.798c.207 0 .375-.168.375-.375s-.168-.375-.375-.375H13.02v-.109c0-2.745 2.233-4.979 4.977-4.979 2.747 0 4.983 2.233 4.983 4.979v11.891c0 2.746-2.235 4.98-4.983 4.98-2.744 0-4.977-2.234-4.977-4.98z"/>
</svg>
