<svg xmlns="http://www.w3.org/2000/svg" viewBox="0 0 36 36">
  <path fill="#0568ae" d="M28.212 2.989H7.788c-.99 0-1.8.81-1.8 1.8v26.422c0 .99.81 1.8 1.8 1.8h20.424c.99 0 1.8-.81 1.8-1.8V4.789c0-.99-.81-1.8-1.8-1.8zM22.11 30.942h-2.396c-.414 0-.75-.336-.75-.75s.336-.75.75-.75h2.396c.414 0 .75.336.75.75s-.336.75-.75.75zm4.972-.452c-.114.565-.579 1.024-1.145 1.128-1.019.186-1.896-.697-1.7-1.715.109-.566.573-1.029 1.14-1.137 1.026-.194 1.912.697 1.705 1.724zm.93-3.799c0 .375-.305.68-.68.68H8.68c-.375 0-.68-.305-.68-.68V5.669c0-.375.305-.68.68-.68h18.651c.375 0 .68.305.68.68v21.022zM17.064 10.493v3.616c0 .624-.507 1.131-1.131 1.131h-3.617c-.623 0-1.131-.507-1.131-1.131v-3.616c0-.624.507-1.131 1.131-1.131h3.617c.623 0 1.131.507 1.131 1.131zm7.831 7.785v3.616c0 .624-.507 1.131-1.131 1.131h-3.616c-.624 0-1.131-.507-1.131-1.131v-3.616c0-.624.507-1.131 1.131-1.131h3.616c.623 0 1.131.507 1.131 1.131zm-7.832 0v3.616c0 .624-.507 1.131-1.131 1.131h-3.617c-.623 0-1.131-.507-1.131-1.131v-3.616c0-.624.507-1.131 1.131-1.131h3.617c.624 0 1.131.507 1.131 1.131zm7.832-7.785v3.616c0 .624-.507 1.131-1.131 1.131h-3.616c-.624 0-1.131-.507-1.131-1.131v-3.616c0-.624.507-1.131 1.131-1.131h3.616c.624 0 1.131.507 1.131 1.131z"/>
</svg>
