<svg xmlns="http://www.w3.org/2000/svg" viewBox="0 0 36 36">
  <path fill="#0568ae" d="M28.8 33.011H7.203c-.944 0-1.711-.75-1.711-1.672l-.004-26.68c0-.921.769-1.67 1.715-1.67H28.8c.943 0 1.711.749 1.711 1.67l.001 26.68c0 .922-.768 1.672-1.712 1.672zM7.203 3.739c-.532 0-.965.413-.965.92l.003 26.68c0 .509.431.922.961.922H28.8c.53 0 .961-.414.961-.922l-.001-26.68c0-.507-.431-.92-.961-.92H7.203zm20.739 22.459V6.833c0-.58-.481-1.051-1.073-1.051H9.13c-.591 0-1.072.472-1.072 1.051v12.784c0 .207.168.375.375.375s.375-.168.375-.375V6.833c0-.166.144-.301.322-.301h17.739c.178 0 .323.135.323.301v19.365c0 .164-.145.298-.323.298H9.13c-.207 0-.375.168-.375.375s.168.375.375.375h17.739c.592 0 1.073-.47 1.073-1.048zm-2.835 5.022c-.818-.002-1.482-.653-1.482-1.45 0-.797.665-1.446 1.481-1.446.818 0 1.483.649 1.483 1.446.001.797-.664 1.448-1.482 1.45zm-.001-2.146c-.403 0-.731.313-.731.696 0 .385.329.698.732.7.403-.001.733-.315.733-.7 0-.383-.329-.696-.734-.696zm-2.701.696c0-.207-.168-.375-.375-.375h-3c-.207 0-.375.168-.375.375s.168.375.375.375h3c.207 0 .375-.167.375-.375zm-6.27-13.926h-3.444c-.604 0-1.095-.491-1.095-1.095v-3.444c0-.604.491-1.095 1.095-1.095h3.444c.604 0 1.095.491 1.095 1.095v3.444c0 .604-.491 1.095-1.095 1.095zm-3.444-4.883c-.19 0-.345.155-.345.345v3.444c0 .19.155.345.345.345h3.444c.19 0 .345-.155.345-.345v-3.444c0-.19-.155-.345-.345-.345h-3.444zm10.819 4.883h-3.444c-.604 0-1.095-.491-1.095-1.095v-3.444c0-.604.491-1.095 1.095-1.095h3.444c.604 0 1.095.491 1.095 1.095v3.444c0 .604-.491 1.095-1.095 1.095zm-3.444-4.883c-.19 0-.345.155-.345.345v3.444c0 .19.155.345.345.345h3.444c.19 0 .345-.155.345-.345v-3.444c0-.19-.155-.345-.345-.345h-3.444zm3.444 11.861h-3.444c-.603 0-1.095-.491-1.095-1.095v-3.444c0-.604.491-1.095 1.095-1.095h3.444c.604 0 1.095.491 1.095 1.095v3.444c0 .603-.491 1.095-1.095 1.095zm-3.444-4.884c-.19 0-.345.155-.345.345v3.444c0 .19.155.345.345.345h3.444c.19 0 .345-.155.345-.345v-3.444c0-.19-.155-.345-.345-.345h-3.444zm-3.931 4.884H12.69c-.603 0-1.094-.491-1.094-1.095v-3.444c0-.604.491-1.095 1.094-1.095h3.445c.604 0 1.095.491 1.095 1.095v3.444c0 .603-.491 1.095-1.095 1.095zm-3.444-4.884c-.19 0-.344.155-.344.345v3.444c0 .19.155.345.344.345h3.445c.19 0 .345-.155.345-.345v-3.444c0-.19-.154-.345-.345-.345h-3.445z"/>
</svg>
