<svg xmlns="http://www.w3.org/2000/svg" viewBox="0 0 36 36">
  <path fill="#0568ae" d="M20.239 7.962h1.289c2.163 0 3.922-1.762 3.922-3.927 0-.552-.448-1-1-1s-1 .448-1 1c0 1.063-.862 1.927-1.922 1.927h-1.289c-2.165 0-3.926 1.761-3.926 3.926v.827h-2.706c-1.686 0-3.057 1.371-3.057 3.057V25.51c0 3.736 3.04 6.776 6.776 6.776 3.736 0 6.775-3.039 6.775-6.776V13.772c0-1.686-1.371-3.057-3.057-3.057h-2.732v-.827c.001-1.062.865-1.926 1.927-1.926zm-1.926 9.697c0 .552-.448 1-1 1s-1-.448-1-1v-2.507c0-.552.448-1 1-1s1 .448 1 1v2.507z"/>
</svg>
