<svg xmlns="http://www.w3.org/2000/svg" viewBox="0 0 36 36">
  <path fill="#0568ae" d="M18.013 13.751c-.717 0-1.3.583-1.3 1.3v2.128c0 .717.583 1.3 1.3 1.3.717 0 1.3-.583 1.3-1.3v-2.128c0-.716-.583-1.3-1.3-1.3zm.55 3.428c0 .303-.247.55-.55.55-.303 0-.55-.247-.55-.55v-2.128c0-.303.247-.55.55-.55.304 0 .55.247.55.55v2.128zm3.169-6.589h-3.357v-.702c0-1.407 1.144-2.551 2.551-2.551h1.289c1.818 0 3.297-1.481 3.297-3.302 0-.207-.168-.375-.375-.375s-.375.168-.375.375c0 1.407-1.142 2.552-2.547 2.552h-1.289c-1.82 0-3.301 1.481-3.301 3.301v.702h-3.331c-1.754 0-3.182 1.427-3.182 3.182V25.51c0 3.805 3.096 6.901 6.901 6.901 3.805 0 6.9-3.096 6.9-6.901V13.772c.001-1.755-1.427-3.182-3.181-3.182zm2.432 14.92c0 3.392-2.759 6.151-6.15 6.151-3.391 0-6.151-2.759-6.151-6.151V13.772c0-1.341 1.091-2.432 2.432-2.432h7.438c1.341 0 2.432 1.091 2.432 2.432V25.51z"/>
</svg>
