<svg xmlns="http://www.w3.org/2000/svg" viewBox="0 0 36 36">
  <path fill="#0568ae" d="M13.513 8.044c-.079 0-.159-.025-.227-.076-.165-.126-.197-.361-.072-.526L15.52 4.41c.262-.343.635-.541 1.024-.542h.002c.389 0 .762.196 1.024.537l2.319 3.022c.126.164.095.4-.069.526-.165.126-.4.095-.526-.069l-2.319-3.022c-.121-.157-.273-.244-.428-.244h-.001c-.156 0-.308.088-.429.246l-2.305 3.032c-.074.097-.186.148-.299.148zm3.047 24.087c.389-.001.763-.198 1.024-.542l2.305-3.031c.125-.165.094-.4-.071-.525-.166-.125-.4-.094-.525.071l-2.305 3.031c-.121.158-.273.246-.429.246h-.001c-.155 0-.307-.086-.428-.244l-2.319-3.021c-.127-.165-.362-.196-.526-.069-.164.126-.195.361-.069.525l2.319 3.023c.262.341.635.537 1.023.537h.002zm14.341-17.855v7.026c0 .726-.266 1.28-.749 1.559-.208.12-.44.18-.687.18-.327 0-.679-.104-1.037-.311l-3.481-2.01-.006 1.79c0 1.637-1.071 2.78-2.604 2.78H10.436c-1.437 0-2.606-1.248-2.606-2.781v-9.331c0-1.343 1.182-2.478 2.581-2.478h11.988c1.418 0 2.573 1.107 2.573 2.468v1.674l3.457-1.994c.629-.363 1.241-.41 1.724-.131.482.279.748.833.748 1.559zm-.75 0c0-.44-.136-.772-.374-.909-.237-.138-.592-.089-.974.131l-3.832 2.21v1.815c0 .207-.168.375-.375.375s-.375-.168-.375-.375v-4.355c0-1.061-.946-1.718-1.823-1.718H10.41c-.975 0-1.831.808-1.831 1.728v9.331c0 1.12.833 2.031 1.856 2.031h11.903c1.281 0 1.854-1.02 1.854-2.031l.008-2.438.004-.022.015-.072.024-.072.007-.021.03-.034.052-.059.057-.039.065-.032.075-.015.046-.009h.001l.021.004.073.015.072.024.021.007 4.041 2.333c.382.221.737.267.974.131.238-.137.374-.469.374-.909v-7.025zM7.259 17.385c0-.207-.168-.375-.375-.375h-.891c-.124 0-.229-.105-.229-.229v-3.102c0-.125.105-.229.229-.229h.892c.207 0 .375-.168.375-.375s-.168-.375-.375-.375h-.892c-.54 0-.979.439-.979.979v3.102c0 .54.439.979.979.979h.892c.206 0 .374-.168.374-.375zm10.056-3.517c0-.207-.168-.375-.375-.375h-6.123c-.207 0-.375.168-.375.375s.168.375.375.375h6.123c.206 0 .375-.168.375-.375z"/>
</svg>
