<svg xmlns="http://www.w3.org/2000/svg" viewBox="0 0 36 36">
  <path fill="#0568ae" d="M32.4 20.4c.2-.9.3-1.8.3-2.8 0-8.5-6.9-15.4-15.4-15.4C10.2 2.2 4 7 2.3 13.9c-.3 1.2-.5 2.5-.5 3.7 0 1.9.3 3.7 1 5.4 1.1 2.8 3 5.3 5.4 7.1.1 0 .1.1.2.1s.2-.1.3-.2c.1-.2.1-.4-.1-.5-2.4-1.7-4.2-4-5.2-6.7-.2-.5-.4-1.1-.5-1.7h6.4v1.4c0 .6.5 1 1 1h4.3c.4 0 .7-.3.7-.7v-2.4c0-.4-.3-.7-.7-.7h-1.2v-3.2h1.3c.4 0 .7-.3.7-.7v-2.4c0-.4-.3-.7-.7-.7h-4.3c-.6 0-1 .5-1 1V15H2.9c0-.2.1-.5.2-.7C4.7 7.5 10.5 3 17.3 3c7.1 0 13.1 5.1 14.4 11.9h-5.3v-1.3c0-.6-.5-1-1-1h-5.2c-.1 0-.2.1-.3.1-.1 0-.1.1-.2.2 0 0 0 .1-.1.1l-.1.1c0 .1-.1.2-.1.4v2.1H18c-.4 0-.7.3-.7.7v3.2c0 .4.3.7.7.7h1.2v2.1c0 .1 0 .2.1.4 0 .1.1.1.1.2 0 0 0 .1.1.1l.2.2c.1.1.2.1.3.1h1.8c-.1.5-.2 1-.2 1.5 0 2.2 1.1 4.2 2.9 5.3-1.9 1.1-4.1 1.7-6.3 1.9-.2 0-.4.2-.3.4 0 .2.2.4.4.4 2.5-.2 4.9-.9 7-2.2.8.4 1.8.6 2.8.6 3.5 0 6.4-2.9 6.4-6.4-.1-1.6-.9-3.3-2.1-4.4zM9.8 15.6c.2 0 .4-.2.4-.4v-1.7c0-.1.1-.3.3-.3h4.3v2.4h-1.3c-.4 0-.7.3-.7.7v3.2c0 .4.3.7.7.7h1.3v2.4h-4.3c-.1 0-.3-.1-.3-.3v-1.7c0-.2-.2-.4-.4-.4h-7c-.2-.9-.3-1.8-.3-2.7 0-.7.1-1.4.1-2h7.2zm10.5 7.2s-.1-.1 0 0h-.1l-.1-.1V20c0-.2-.2-.4-.4-.4h-1.6v-3.2h1.6c.2 0 .4-.2.4-.4v-2.7l.1-.1h5.2c.1 0 .3.1.3.3v1.7c0 .2.2.4.4.4h5.7c.1.7.1 1.3.1 2s-.1 1.5-.2 2.2c-1-.8-2.3-1.2-3.7-1.2-2.7 0-5.1 1.7-6 4.1l-1.7.1zm7.7 7.8c-3.1 0-5.6-2.5-5.6-5.6 0-3.1 2.5-5.6 5.6-5.6s5.6 2.5 5.6 5.6c0 3.1-2.5 5.6-5.6 5.6zm3.6-5.6c0 .2-.2.4-.4.4h-2.8v2.8c0 .2-.2.4-.4.4s-.4-.2-.4-.4v-2.8h-2.8c-.2 0-.4-.2-.4-.4s.2-.4.4-.4h2.8v-2.8c0-.2.2-.4.4-.4s.4.2.4.4v2.8h2.8c.2 0 .4.2.4.4z"/>
</svg>
