<svg xmlns="http://www.w3.org/2000/svg" viewBox="0 0 36 36">
  <path fill="#0568ae" d="M28.1 19.1c-3.3 0-6 2.7-6 6s2.7 6 6 6 6-2.7 6-6-2.6-6-6-6zm2.9 7h-1.9V28c0 .6-.4 1-1 1s-1-.4-1-1v-1.9h-1.9c-.6 0-1-.4-1-1s.4-1 1-1h1.9v-1.9c0-.6.4-1 1-1s1 .4 1 1v1.9H31c.6 0 1 .4 1 1s-.4 1-1 1zm-7 5.3c-2 1-4.4 1.6-6.8 1.6-7.4 0-13.5-5.3-14.8-12.3h6.9v1.7c0 .3.3.6.6.6h4.3c.2 0 .4-.2.4-.4v-2.4c0-.2-.2-.4-.4-.4H13c-.2 0-.4-.2-.4-.4v-3.2c0-.2.2-.4.4-.4h1.3c.2 0 .4-.2.4-.4V13c0-.2-.2-.4-.4-.4H9.9c-.3 0-.6.3-.6.6v1.7H2.4C3.7 8.3 9.8 3 17.1 3c7.3 0 13.4 5.3 14.7 12.2H25v-1.7c0-.3-.3-.6-.6-.6h-5.1c-.1 0-.1 0-.2.1l-.1.1v.1s0 .1-.1.1V16h-1.6c-.2 0-.4.2-.4.4v3.2c0 .2.2.4.4.4h1.6v2.6s0 .1.1.1v.1l.1.1c.1 0 .1.1.2.1H21c-.2.6-.3 1.3-.3 2-.1 2.7 1.3 5 3.3 6.4z"/>
</svg>
