<svg xmlns="http://www.w3.org/2000/svg" viewBox="0 0 36 36">
  <path fill="#0568ae" d="M18.822 28.138l-2.684 3.131-.093.108c-.153.179-.404.179-.558 0l-.093-.108-2.684-3.131c-.204-.239-.115-.434.199-.434h5.712c.316 0 .406.195.201.434zm0-20.276l-2.684-3.131-.093-.108c-.153-.179-.404-.179-.558 0l-.093.108-2.684 3.131c-.204.238-.115.434.199.434h5.712c.316 0 .406-.195.201-.434zm12.096 5.482v9.173c0 1.088-.75 1.498-1.665.91l-4.715-3.024v2.898c0 1.133-.927 2.06-2.06 2.06H8.92c-1.133 0-2.06-.927-2.06-2.06v-4.799h-.878c-.495 0-.9-.405-.9-.9v-3.53c0-.495.405-.9.9-.9h.878v-.612c0-1.133.927-2.06 2.06-2.06h13.557c1.133 0 2.06.927 2.06 2.06v2.898l4.715-3.024c.917-.587 1.666-.178 1.666.91zm-14.848.481c0-.359-.293-.652-.652-.652h-5.287c-.359 0-.652.293-.652.652v1.552c0 .358.293.652.652.652h5.287c.358 0 .652-.293.652-.652v-1.552z"/>
</svg>
