<svg xmlns="http://www.w3.org/2000/svg" viewBox="0 0 36 36">
  <path fill="#0568ae" d="M29.253 12.434l-4.715 3.024V12.56c0-1.133-.927-2.06-2.06-2.06H8.92c-1.133 0-2.06.927-2.06 2.06v.614h-.879c-.495 0-.9.405-.9.9v3.53c0 .495.405.9.9.9h.879v4.799c0 1.133.927 2.06 2.06 2.06h13.557c1.133 0 2.06-.927 2.06-2.06v-2.898l4.715 3.024c.916.587 1.665.178 1.665-.91v-9.173c.001-1.09-.748-1.499-1.664-.912zm-9.665 7.867c.188.188.291.437.291.702s-.104.515-.291.702c-.187.188-.437.291-.702.291-.265 0-.515-.103-.702-.291l-2.307-2.307-2.31 2.31c-.188.188-.437.291-.702.291-.265 0-.514-.103-.702-.291-.188-.188-.291-.437-.291-.702 0-.266.103-.515.291-.702l2.31-2.31-2.307-2.307c-.387-.387-.387-1.017 0-1.404.375-.375 1.029-.375 1.404 0l2.307 2.307 2.307-2.307c.376-.375 1.029-.375 1.404 0 .188.188.291.437.291.702 0 .265-.104.515-.291.702l-2.307 2.307 2.307 2.307zM12.712 7.862l2.684-3.131.093-.108c.153-.179.404-.179.558 0l.093.108 2.684 3.131c.205.238.115.434-.199.434h-5.712c-.316 0-.406-.195-.201-.434zm6.11 20.276l-2.684 3.131-.093.108c-.153.179-.404.179-.558 0l-.093-.108-2.684-3.131c-.204-.239-.115-.434.2-.434h5.712c.315 0 .405.195.2.434z"/>
</svg>
