<svg xmlns="http://www.w3.org/2000/svg" viewBox="0 0 36 36">
  <path fill="#0568ae" d="M17.9 28.1l-2.7 3.1-.1.1c-.2.2-.4.2-.6 0l-.1-.1-2.7-3.1c-.2-.2-.1-.4.2-.4h5.7c.5 0 .5.2.3.4zM12 8.3h5.7c.3 0 .4-.2.2-.4l-2.7-3.1-.1-.1c-.2-.2-.4-.2-.6 0l-.1.1-2.7 3.1c-.1.2 0 .4.3.4zM9.3 16c-.4 0-.7-.3-.7-.7v-1.8l-2.3-2.3c-.2.5-.3.9-.3 1.4v.6h-.9c-.5 0-.9.4-.9.9v3.5c0 .5.4.9.9.9H6v4.8c0 1.1.9 2.1 2.1 2.1h12.3L11.1 16H9.3zm19.1-3.6l-4.7 3v-2.9c0-1.1-.9-2.1-2.1-2.1H10.5L4.6 4.6c-.4-.4-1-.4-1.4 0-.4.4-.4 1 0 1.4l24 24c.2.2.5.3.7.3.3 0 .5-.1.7-.3.4-.4.4-1 0-1.4l-5-5v-3.3l4.7 3c.9.6 1.7.2 1.7-.9v-9.2c0-.9-.7-1.4-1.6-.8z"/>
</svg>
