<svg xmlns="http://www.w3.org/2000/svg" viewBox="0 0 36 36">
  <path fill="#0568ae" d="M23.345 31.344c0 .552-.448 1-1 1h-8.691c-.552 0-1-.448-1-1s.448-1 1-1H17v-3.446c-2.601-.472-4.582-2.751-4.582-5.488v-5.959l9.706 9.706c-.808.888-1.895 1.516-3.125 1.74v3.447h3.346c.553 0 1 .448 1 1zm7.364-1.137c-.195.195-.451.293-.707.293-.256 0-.512-.098-.707-.293L22.988 23.9l-9.17-9.17-8.523-8.523c-.391-.39-.391-1.024 0-1.414.391-.391 1.023-.391 1.414 0l5.916 5.916h4.769c.414 0 .75-.336.75-.75s-.336-.75-.75-.75h-4.976c.015-3.065 2.51-5.554 5.578-5.554 3.08 0 5.585 2.503 5.585 5.581V21.41l-.012.243 7.14 7.14c.391.39.391 1.024 0 1.414zM18.145 13.98c0-.414-.336-.75-.75-.75h-2.249l1.5 1.5h.749c.414 0 .75-.336.75-.75z"/>
</svg>
