<svg xmlns="http://www.w3.org/2000/svg" viewBox="0 0 36 36">
  <path fill="#0568ae" d="M23.817 31.6c0 .207-.168.375-.375.375H12.558c-.207 0-.375-.168-.375-.375s.168-.375.375-.375h5.067v-3.868c-2.984-.194-5.355-2.677-5.355-5.711v-4.542c0-.207.168-.375.375-.375s.375.168.375.375v4.542c0 2.746 2.233 4.98 4.977 4.98 1.119 0 2.176-.362 3.057-1.046.163-.128.399-.098.526.066.127.163.098.399-.066.526-.914.711-1.992 1.116-3.139 1.189v3.865h5.067c.207-.001.375.166.375.374zm6.448-1.335c-.073.073-.169.11-.265.11s-.192-.037-.265-.11l-24-24c-.146-.147-.146-.384 0-.53.147-.146.384-.146.53 0l6.005 6.005V9.754c0-3.159 2.569-5.729 5.727-5.729 3.161 0 5.733 2.57 5.733 5.729v11.891c0 .452-.053.901-.156 1.336l-.019.044 6.71 6.71c.147.146.147.384 0 .53zM13.011 12.48l1.275 1.275.056-.011h3.477c.207 0 .375.168.375.375s-.168.375-.375.375h-2.794l7.894 7.894c.037-.245.062-.493.062-.743V9.754c0-2.745-2.235-4.979-4.983-4.979-2.744 0-4.977 2.233-4.977 4.979v.109h4.798c.207 0 .375.168.375.375s-.168.375-.375.375H13.02v1.82l-.009.047z"/>
</svg>
