<svg xmlns="http://www.w3.org/2000/svg" viewBox="0 0 36 36">
  <path fill="#0568ae" d="M31.2 13.6v17.3c0 .7-.6 1.2-1.2 1.2H9.8c-.7 0-1.2-.5-1.2-1.2V26c0-.4.3-.6.7-.4 0 0 .2.1.7.2 4.8 1.5 10.2 1.8 13 1.8h1.3c.4 0 .7-.4.7-.7v-6.5c0-.4-.3-.7-.7-.7h-15c-.4 0-.7-.3-.7-.7v-5.5c0-.7.6-1.2 1.2-1.2H30c.6 0 1.2.6 1.2 1.3zM6.8 18.3V4.9c0-.6-.4-1-1-1s-1 .4-1 1v13.4c0 .6.4 1 1 1s1-.4 1-1zm17.1 3.1c0-.4-.3-.7-.7-.7h-3.4c-.4 0-.7.3-.7.7 0 .4.3.7.7.7h3.4c.4-.1.7-.4.7-.7zm0 2.3c0-.4-.3-.7-.7-.7h-3.4c-.4 0-.7.3-.7.7 0 .4.3.7.7.7h3.4c.4-.1.7-.4.7-.7zm0 2.3c0-.4-.3-.7-.7-.7h-3.4c-.4 0-.7.3-.7.7s.3.7.7.7h3.4c.4-.1.7-.4.7-.7z"/>
</svg>
