<svg xmlns="http://www.w3.org/2000/svg" viewBox="0 0 36 36">
  <path fill="#0568ae" d="M25.1 5c-.4-.4-.5-.4-.5-.5-.4-.3-.8-.4-1.2-.3-.3.1-.5.2-.6.5l-3.5 6.1c-.3.6-.1 1.3.5 1.6l.7.4c1.2.7 1.6 2.2.9 3.4l-3.5 6.1c-.3.6-.9 1-1.5 1.2-.6.2-1.3.1-1.9-.2l-.9-.3c-.6-.3-1.3-.2-1.7.4l-2.6 4.5c-.1.2 0 .4.1.5.2.1.4 0 .5-.1l2.6-4.5c.1-.2.4-.3.6-.1l.7.4c.8.4 1.6.5 2.5.3.8-.2 1.5-.8 2-1.5l3.5-6.1c.9-1.6.4-3.5-1.2-4.4l-.6-.5c-.2-.1-.3-.4-.2-.6l3.5-6.1s.1-.1.2-.1.4 0 .6.1l.4.4c3 2.8 3.3 8 .9 12.3l-4.3 7.5c-2.4 4.1-6.8 6.4-10.7 5.5-.2 0-.4.1-.4.3 0 .2.1.4.3.4.6.1 1.2.2 1.9.2 3.7 0 7.4-2.3 9.6-6.1l4.3-7.5c2.6-4.6 2.2-10.1-1-13.2z"/>
</svg>
