<svg xmlns="http://www.w3.org/2000/svg" viewBox="0 0 36 36">
  <path fill="#0568ae" d="M18 5.5c-1.5 0-2.8.4-3.9 1.1V3.2c0-.2-.2-.4-.4-.4s-.3.2-.3.4v4c-1 .9-1.6 2.2-1.6 3.5V28c.1 2.9 2.8 5.1 6.3 5.1 3.4 0 6.2-2.2 6.3-5.1V10.7c-.1-2.8-2.9-5.2-6.4-5.2zm0 26.9c-3 0-5.4-2-5.5-4.4V10.7c0-2.5 2.5-4.5 5.5-4.5s5.5 2 5.5 4.5V28c-.1 2.4-2.5 4.4-5.5 4.4zm3.9-21.5v7.3c0 .5-.4.9-.9.9h-6c-.2 0-.4-.2-.4-.4s.2-.4.4-.4h6c.1 0 .2-.1.2-.2v-7.3c0-.1-.1-.2-.2-.2h-6c-.1 0-.2.1-.2.2v5.3c0 .2-.2.4-.4.4s-.4-.2-.4-.4v-5.3c0-.5.4-.9.9-.9h6c.6.1 1 .5 1 1zm-7.4 11.4v-.6c0-.2.2-.4.4-.4h.6c.2 0 .4.2.4.4v.6c0 .2-.2.4-.4.4h-.6c-.2 0-.4-.2-.4-.4zm2.7 0v-.6c0-.2.2-.4.4-.4h.6c.2 0 .4.2.4.4v.6c0 .2-.2.4-.4.4h-.6c-.2 0-.4-.2-.4-.4zm2.8 0v-.6c0-.2.2-.4.4-.4h.6c.2 0 .4.2.4.4v.6c0 .2-.2.4-.4.4h-.6c-.2 0-.4-.2-.4-.4zm-4 2.2v.5c0 .2-.2.4-.4.4H15c-.2 0-.4-.2-.4-.4v-.6c0-.2.2-.4.4-.4h.6c.2 0 .4.2.4.5zm2.8 0v.5c0 .2-.2.4-.4.4h-.6c-.2 0-.4-.2-.4-.4v-.6c0-.2.2-.4.4-.4h.6c.2 0 .4.2.4.5zm2.7 0v.5c0 .2-.2.4-.4.4h-.6c-.2 0-.4-.2-.4-.4v-.6c0-.2.2-.4.4-.4h.6c.2 0 .4.2.4.5zm0 2.7v.6c0 .2-.2.4-.4.4h-.6c-.2 0-.4-.2-.4-.4v-.6c0-.2.2-.4.4-.4h.6c.2 0 .4.2.4.4zm-2.7 0v.6c0 .2-.2.4-.4.4h-.6c-.2 0-.4-.2-.4-.4v-.6c0-.2.2-.4.4-.4h.6c.2 0 .4.2.4.4zm-2.8 0v.6c0 .2-.2.4-.4.4H15c-.2 0-.4-.2-.4-.4v-.6c0-.2.2-.4.4-.4h.6c.2 0 .4.2.4.4z"/>
</svg>
