<svg xmlns="http://www.w3.org/2000/svg" viewBox="0 0 36 36">
  <path fill="#0568ae" d="M8.6 14.5l-3.1 2.6c-.3.2-.6.3-.9.3h-.3c-.4-.1-.7-.4-.9-.8l-1.7-3.7c-.1-.2 0-.4.2-.5.2-.1.4 0 .5.2l1.7 3.7c0 .1.1.1.1.2.5-4.3 2.8-8 6.5-10.3 6.5-4 15.1-2 19.1 4.5.1.2.1.4-.1.5-.2.1-.4.1-.5-.1-3.8-6.2-12-8.1-18.1-4.3C7.6 9 5.4 12.5 5 16.5l3.1-2.6c.2-.1.4-.1.5.1.2.2.1.4 0 .5zm25.6 8.6l-1.7-3.7c-.2-.4-.5-.7-.9-.8-.4-.1-.8 0-1.2.3l-3.1 2.6c-.2.1-.2.4-.1.5.1.2.4.2.5.1l3.1-2.6c-.5 4-2.7 7.6-6.1 9.7-6.2 3.8-14.3 1.9-18.1-4.3-.1-.2-.3-.2-.5-.1s-.2.3-.1.5c2.6 4.2 7.2 6.6 11.8 6.6 2.5 0 5-.7 7.3-2.1 3.6-2.2 6-6.1 6.5-10.3 0 .1.1.1.1.2l1.7 3.7c.1.1.2.2.3.2h.2c.3-.1.4-.3.3-.5zm-12.7-14c1.2.1 1.8.8 1.8 1.9v14c0 1.1-.7 1.8-1.8 1.9-1.1.1-3.4.1-3.5.1h-.1c-.4 0-2.4 0-3.4-.1-1.2-.1-1.8-.8-1.8-1.9V11c0-1.1.7-1.8 1.8-1.9C15.6 9 17.9 9 18 9c.1 0 2.4 0 3.5.1zm-.1.7c-1-.1-3.4-.1-3.4-.1h-.1c-.4 0-2.4 0-3.3.1-.8.1-1.2.4-1.2 1.2v14c0 .7.4 1.1 1.2 1.2 1 .1 3.4.1 3.4.1s2.4 0 3.4-.1c.8-.1 1.2-.4 1.2-1.2V11c0-.7-.4-1.1-1.2-1.2zm-2.5 14.5H17c-.2 0-.4.2-.4.4s.2.4.4.4h1.8c.2 0 .4-.2.4-.4.1-.2-.1-.4-.3-.4zm-3.8-12.5c-.4 0-.7.3-.7.7v7c0 .2.2.4.4.4s.4-.2.4-.4v-7H21v9.9h-5.8c-.2 0-.4.2-.4.4s.2.4.4.4H21c.4 0 .7-.3.7-.7v-9.9c0-.4-.3-.7-.7-.7h-5.9z"/>
</svg>
