<svg xmlns="http://www.w3.org/2000/svg" viewBox="0 0 36 36">
  <path fill="#0568ae" d="M16.412 30.524l5.227-.01v.005c0 1.301-.625 2.233-2.304 2.392-1.64.155-5.263.146-5.263.146s-3.639.008-5.28-.146c-1.68-.159-2.304-1.091-2.304-2.392V9.047c0-1.302.624-2.234 2.304-2.392 1.035-.098 2.862-.131 4.071-.141v3.268H8.856c-.358 0-.65.291-.65.647v16.779c0 .465.304.678.65.678h4.147c.162.657.462 1.209.875 1.638h-1.141c-.526 0-.956.427-.956.955s.43.956.956.957h2.653c.515-.001.929-.407.952-.916l.07.004zM28.367 7.6v6.877c0 .348.258.634.573.634.315 0 .573.285.573.634v10.93c0 1.191-.637 2.33-2 2.33l-11.101.02c-1.543 0-2.05-1.121-2.05-2.35V5.201c0-1.301.624-2.234 2.304-2.392 1.641-.155 5.273-.147 5.273-.147s3.631-.009 5.27.147c1.679.158 2.304 1.091 2.304 2.392v1.131c0 .348-.258.634-.573.634-.315 0-.573.285-.573.634zm-5.475-1.522c0-.94-.761-1.701-1.702-1.701h-3.467c-.939 0-1.701.762-1.701 1.701 0 .939.762 1.701 1.701 1.701h3.467c.941 0 1.702-.762 1.702-1.701z"/>
</svg>
