<svg xmlns="http://www.w3.org/2000/svg" viewBox="0 0 36 36">
  <path fill="#0568ae" d="M30 10.6l-1 .6c-.2.1-.4.1-.5-.1 0 0-.2-.3-.4-.5C24.3 5.4 17 3.9 11.4 7.4 8.6 9.1 6.7 11.8 5.9 15h1.5c.3 0 .4.2.2.4l-2.5 3.5-.1.1c-.1.2-.3.2-.5 0l-.9-1.3L2 15.4c-.2-.2-.1-.4.2-.4h1.6c.8-3.9 3.1-7.2 6.6-9.3 6.5-4 15.1-2.3 19.4 3.9.2.3.3.5.3.5.2.1.1.4-.1.5zM5.9 25.9s.1.2.3.5c4.4 6.2 12.9 8 19.4 3.9 3.4-2.1 5.7-5.5 6.6-9.3h1.6c.3 0 .4-.2.2-.4l-1.7-2.3-.9-1.3c-.1-.2-.3-.2-.5 0l-.1.1-2.5 3.5c-.2.2-.1.4.2.4H30c-.8 3.2-2.7 5.9-5.6 7.6-5.6 3.5-12.8 2-16.7-3.2-.2-.3-.4-.5-.4-.5-.1-.2-.3-.2-.5-.1l-.8.6c-.2.1-.2.4-.1.5zm17.5-14.5v13.1c0 1.3-.7 2.1-2.1 2.2-1.3.1-2.9.1-3.4.1h-.2c-.5 0-1.7 0-2.9-.1-1.4-.1-2.1-.9-2.1-2.2V11c0-1.3.7-1.7 2.1-1.8 1.3-.1 2.4-.1 2.9-.1h.2c.5 0 2.2 0 3.4.1 1.4.2 2.1.9 2.1 2.2zM19.5 25c0-.4-.3-.6-.6-.6h-1.8c-.3 0-.6.3-.6.6 0 .4.3.6.6.6h1.8c.3.1.6-.2.6-.6zm2.4-13c0-.3-.2-.5-.5-.5h-6.7c-.3 0-.5.2-.5.5v10.7c0 .3.2.5.5.5h6.7c.3 0 .5-.2.5-.5V12z"/>
</svg>
