<svg xmlns="http://www.w3.org/2000/svg" viewBox="0 0 36 36">
  <path fill="#0568ae" d="M22.3 25.4l-3.1 3.2c-.3.3-.8.5-1.2.5-.5 0-.9-.2-1.2-.5l-3.1-3.2c-.1-.1-.1-.4 0-.5.1-.1.4-.1.5 0l3.1 3.2c.1.1.2.2.4.2v-9.1c0-.2.2-.4.4-.4s.4.2.4.4v9.1c.1-.1.2-.1.3-.2l3.1-3.2c.1-.1.4-.2.5 0 .1.1.1.3-.1.5zm8.6-6.5c0-.2-.2-.4-.4-.4h-5.2c-.2 0-.4-.2-.4-.5v-.9c0-1.8-1.5-3.3-3.3-3.3h-7.1c-1.8 0-3.3 1.5-3.3 3.3v.9c0 .3-.2.5-.4.5h-7c-.1 0-.1 0-.2-.1s-.2-.3-.2-.6c0 0 0-.1.1-.6 1-4 5.3-6.9 10.2-6.9h8.6c4.8 0 8.9 2.7 10.1 6.5.1.2.3.3.5.2.2-.1.3-.3.2-.5-1.3-4.1-5.7-7-10.8-7h-8.6c-5.3 0-9.9 3.1-10.9 7.5-.1.6-.1.6-.1.7 0 .5.1.9.4 1.2.2.2.4.3.7.3h7.1c.7 0 1.2-.6 1.2-1.2v-.9c0-1.4 1.1-2.5 2.5-2.5h7.1c1.4 0 2.5 1.1 2.5 2.5v.9c0 .7.5 1.2 1.2 1.2h5.2c.2.1.3 0 .3-.3z"/>
</svg>
