<svg xmlns="http://www.w3.org/2000/svg" viewBox="0 0 36 36">
  <path fill="#0568ae" d="M21.22 31.144c.172.116.217.349.102.521-.435.645-1.176 1.022-2.202 1.12-1.64.155-5.151.147-5.3.148h-.129c-.672 0-3.701-.008-5.185-.148-1.73-.164-2.644-1.12-2.644-2.765V8.547c0-1.647.914-2.603 2.644-2.765 1.134-.107 3.208-.137 4.344-.145h.003c.206 0 .374.166.375.372.002.207-.165.376-.372.378-1.123.008-3.172.037-4.278.142-1.34.126-1.965.768-1.965 2.019V30.02c0 1.25.624 1.892 1.965 2.019 1.604.151 5.21.145 5.243.145.04-.001 3.625.007 5.229-.145.792-.076 1.347-.342 1.651-.792.115-.173.348-.218.519-.103zM8.606 9.656h4.247c.207 0 .375-.168.375-.375s-.168-.375-.375-.375H8.606c-.565 0-1.025.458-1.025 1.022v16.779c0 .62.421 1.053 1.025 1.053h4.247c.207 0 .375-.168.375-.375s-.168-.375-.375-.375H8.606c-.246 0-.275-.173-.275-.303V9.929c0-.151.123-.273.275-.273zm3.88 21.655h2.125c.207 0 .375-.168.375-.375s-.168-.375-.375-.375h-2.125c-.321-.001-.582-.262-.582-.582 0-.32.261-.58.581-.58h.366c.207 0 .375-.168.375-.375s-.168-.375-.375-.375h-.366c-.734 0-1.331.597-1.331 1.33.001.733.598 1.331 1.332 1.332zM28.992 8.38v6.877c0 .138.093.259.198.259.523 0 .948.452.948 1.009v10.93c0 1.303-.743 2.705-2.375 2.705l-11.1.02h-.001c-1.518 0-2.425-1.019-2.425-2.725V5.981c0-1.646.914-2.603 2.644-2.765 1.493-.141 4.599-.148 5.206-.148h.203c.607 0 3.712.007 5.204.148 1.729.163 2.644 1.119 2.644 2.765v1.131c0 .556-.425 1.009-.948 1.009-.105 0-.198.121-.198.259zm-.75 6.877V8.38c0-.556.425-1.008.948-1.008.105 0 .198-.121.198-.259V5.981c0-1.251-.624-1.893-1.964-2.019-1.459-.138-4.532-.145-5.134-.145h-.203c-.602 0-3.676.007-5.136.145-1.34.126-1.964.768-1.964 2.019v21.472c0 1.31.563 1.975 1.674 1.975l11.101-.02c1.2 0 1.626-1.053 1.626-1.955v-10.93c0-.138-.093-.258-.198-.258-.523 0-.948-.452-.948-1.008zm-4.725-8.399c0 1.145-.932 2.076-2.077 2.076h-3.467c-1.145 0-2.076-.931-2.076-2.076s.931-2.076 2.076-2.076h3.467c1.146 0 2.077.931 2.077 2.076zm-.75 0c0-.732-.595-1.326-1.327-1.326h-3.467c-.731 0-1.326.595-1.326 1.326 0 .731.595 1.326 1.326 1.326h3.467c.732 0 1.327-.595 1.327-1.326z"/>
</svg>
