<svg xmlns="http://www.w3.org/2000/svg" viewBox="0 0 36 36">
  <path fill="#0568ae" d="M27.588 11.478h-3.663v-6.8c0-.207-.167-.375-.375-.375s-.375.168-.375.375v6.8h-10.4v-6.8c0-.207-.168-.375-.375-.375s-.375.168-.375.375v6.8H8.363c-.604 0-1.095.491-1.095 1.095v1.657c0 .604.491 1.095 1.095 1.095h.275v3.622c0 4.561 3.288 8.361 7.617 9.171v4.015c0 .207.168.375.375.375s.375-.168.375-.375v-3.9c.319.033.643.051.97.051.327 0 .65-.018.97-.051v3.9c0 .207.168.375.375.375s.375-.168.375-.375v-4.015c4.329-.81 7.617-4.611 7.617-9.171v-3.622h.275c.604 0 1.096-.491 1.096-1.095v-1.657c.001-.604-.491-1.095-1.095-1.095zm.346 2.752c0 .19-.155.345-.346.345h-.65c-.207 0-.375.168-.375.375v3.997c0 4.735-3.853 8.587-8.587 8.587-4.735 0-8.587-3.852-8.587-8.587v-3.622h13.179c.207 0 .375-.168.375-.375s-.168-.375-.375-.375H8.363c-.19 0-.345-.155-.345-.345v-1.657c0-.19.155-.345.345-.345h19.225c.191 0 .346.155.346.345v1.657zm-4.992 4.5c0 .207-.168.375-.375.375h-9.184c-.207 0-.375-.168-.375-.375s.168-.375.375-.375h9.184c.207 0 .375.168.375.375zm0 2.88c0 .207-.168.375-.375.375h-9.184c-.207 0-.375-.168-.375-.375s.168-.375.375-.375h9.184c.207 0 .375.168.375.375z"/>
</svg>
