<svg xmlns="http://www.w3.org/2000/svg" viewBox="0 0 36 36">
  <path fill="#0568ae" d="M8.542 18.462c0 4.531 3.203 8.324 7.462 9.245v3.178c0 1.104.896 2 2 2 1.105 0 2-.896 2-2v-3.178c4.259-.921 7.462-4.714 7.462-9.245V16.84H8.542v1.622zm5.368 2.413h8.185c.414 0 .75.336.75.75s-.336.75-.75.75H13.91c-.414 0-.75-.336-.75-.75s.336-.75.75-.75zm14.638-8.052v1.516c0 .552-.449 1.002-1.002 1.002H8.462c-.552 0-1.001-.449-1.001-1.002v-1.516c0-.552.449-1.002 1.001-1.002h3.258V5.332c0-.69.559-1.25 1.25-1.25.69 0 1.25.56 1.25 1.25v6.489h7.65V5.332c0-.69.559-1.25 1.25-1.25.69 0 1.25.56 1.25 1.25v6.489h3.176c.552 0 1.002.449 1.002 1.002z"/>
</svg>
