<svg xmlns="http://www.w3.org/2000/svg" viewBox="0 0 36 36">
  <path fill="#0568ae" d="M20.1 22.4l3.6 3.6c-1.1.8-2.3 1.4-3.7 1.7v3.2c0 1.1-.9 2-2 2s-2-.9-2-2v-3.2c-4.3-.9-7.5-4.7-7.5-9.2v-1.6h6l4 4h-4.7c-.4 0-.8.3-.8.8 0 .4.3.8.8.8h6.3zM9.5 11.8h-1c-.6 0-1 .4-1 1v1.5c0 .6.4 1 1 1H13l-3.5-3.5zm21.2 16.3L26 23.4c.9-1.4 1.4-3.1 1.4-4.9v-1.6h-8L18 15.3h9.6c.6 0 1-.4 1-1v-1.5c0-.6-.4-1-1-1h-3.2V5.3c0-.7-.6-1.3-1.3-1.3-.7 0-1.3.6-1.3 1.3v6.5h-7.4l-.3-.3V5.3c0-.7-.6-1.3-1.3-1.3-.7 0-1.3.6-1.3 1.3V9l-5-5c-.4-.4-1-.4-1.4 0-.4.4-.4 1 0 1.4l24 24c.2.2.5.3.7.3.3 0 .5-.1.7-.3.6-.3.6-.9.2-1.3z"/>
</svg>
