<svg xmlns="http://www.w3.org/2000/svg" viewBox="0 0 36 36">
  <path fill="#0568ae" d="M30.3 28.9l-4.6-4.6c1.1-1.6 1.7-3.4 1.7-5.3v-3.6h.3c.6 0 1.1-.5 1.1-1.1v-1.7c0-.6-.5-1.1-1.1-1.1H24V4.7c0-.2-.2-.4-.4-.4s-.4.2-.4.4v6.8H12.9l-.1-.1V4.7c0-.2-.2-.4-.4-.4s-.4.2-.4.4v6L6.3 4.9c-.1-.1-.4-.1-.5 0-.2.1-.2.4-.1.5l24 24c.1.1.2.1.3.1.1 0 .2 0 .3-.1.1-.1.1-.4 0-.5zm-2.7-16.7c.2 0 .3.2.3.3v1.7c0 .2-.2.3-.3.3H27c-.2 0-.4.2-.4.4v4c0 1.7-.5 3.4-1.5 4.8l-4.6-4.6h2.1c.2 0 .4-.2.4-.4s-.2-.4-.4-.4h-2.8l-3-3h5.9c.2 0 .4-.2.4-.4s-.2-.4-.4-.4H16l-2.4-2.4h14zM23.5 26c.1.2.1.4-.1.5-1.1.8-2.4 1.3-3.7 1.6v4c0 .2-.2.4-.4.4s-.4-.2-.4-.4v-3.9c-.3 0-.6.1-1 .1-.3 0-.7 0-1-.1v3.9c0 .2-.2.4-.4.4s-.4-.2-.4-.4v-4c-4.1-.8-7.4-4.6-7.4-9.1v-3.6h-.3c-.6 0-1.1-.5-1.1-1.1v-1.7c0-.6.5-1.1 1.1-1.1h.5c.2 0 .4.2.4.4s-.2.4-.4.4h-.5c-.2 0-.3.2-.3.3v1.7c0 .2.2.3.3.3H12c.2 0 .4.2.4.4s-.2.4-.4.4H9.4V19c0 4.7 3.9 8.6 8.6 8.6 1.8 0 3.5-.6 5-1.6.2-.2.4-.2.5 0zM13 18.7c0-.2.2-.4.4-.4h2.3c.2 0 .4.2.4.4s-.2.4-.4.4h-2.3c-.2 0-.4-.1-.4-.4zm0 2.9c0-.2.2-.4.4-.4h5.2c.2 0 .4.2.4.4s-.2.4-.4.4h-5.2c-.2 0-.4-.2-.4-.4z"/>
</svg>
