<svg xmlns="http://www.w3.org/2000/svg" viewBox="0 0 36 36">
  <path fill="#0568ae" d="M11.959 23.909H6.97c-.207 0-.375-.168-.375-.375s.168-.375.375-.375h4.989c.207 0 .375.168.375.375s-.168.375-.375.375zm17.791-.375c0-.207-.168-.375-.375-.375h-4.989c-.207 0-.375.168-.375.375s.168.375.375.375h4.989c.207 0 .375-.168.375-.375zm2.465-3.394v-8.837c0-1.199-.976-2.175-2.175-2.175H6.15c-1.199 0-2.175.976-2.175 2.175v7.914c0 .207.168.375.375.375s.375-.168.375-.375v-7.914c0-.786.639-1.425 1.425-1.425h23.89c.786 0 1.425.639 1.425 1.425v8.837c0 .786-.639 1.425-1.425 1.425H6.15c-.207 0-.375.168-.375.375s.168.375.375.375h23.89c1.199-.001 2.175-.976 2.175-2.175zm-23.574-.923v-6.991c0-.207-.168-.375-.375-.375s-.375.168-.375.375v6.991c0 .207.168.375.375.375s.375-.168.375-.375zm2.731 0v-6.991c0-.207-.168-.375-.375-.375s-.375.168-.375.375v6.991c0 .207.168.375.375.375s.375-.168.375-.375zm2.73 0v-6.991c0-.207-.168-.375-.375-.375s-.375.168-.375.375v6.991c0 .207.168.375.375.375s.375-.168.375-.375zm14.54-3.496c0-2.536-2.063-4.599-4.599-4.599s-4.599 2.063-4.599 4.599 2.063 4.599 4.599 4.599 4.599-2.063 4.599-4.599zm-.75 0c0 2.122-1.727 3.849-3.849 3.849s-3.849-1.726-3.849-3.849 1.727-3.849 3.849-3.849c2.122.001 3.849 1.727 3.849 3.849z"/>
</svg>
