<svg xmlns="http://www.w3.org/2000/svg" viewBox="0 0 36 36">
  <path fill="#0568ae" d="M25.299 21.69c-.147.196-.372.299-.6.299-.157 0-.315-.049-.451-.151-.331-.249-.397-.719-.148-1.05 1.225-1.627 1.712-3.709 1.335-5.71-.212-1.133-.675-2.169-1.374-3.079-.252-.329-.19-.799.138-1.052.328-.251.799-.19 1.051.138.844 1.099 1.402 2.349 1.659 3.715v.001c.455 2.414-.132 4.925-1.61 6.889zm-1.339-6.43l-.002-.005c-.187-.99-.59-1.892-1.197-2.681-.252-.328-.724-.389-1.052-.137-.328.253-.39.724-.137 1.052.462.601.769 1.289.912 2.046v.001c.252 1.346-.076 2.74-.902 3.825-.251.33-.187.8.143 1.051.136.103.295.153.454.153.226 0 .45-.102.598-.296 1.083-1.421 1.513-3.247 1.183-5.009zm5.978-.881c-.334-1.781-1.109-3.456-2.241-4.844-.261-.321-.734-.37-1.055-.107-.321.262-.369.734-.107 1.055.974 1.194 1.641 2.637 1.929 4.172.511 2.734-.207 5.536-1.972 7.688-.263.32-.216.793.104 1.056.14.114.308.17.475.17.217 0 .432-.094.581-.274 2.046-2.496 2.879-5.746 2.286-8.916zm-10.255-2.344v7.539c0 .931-.253 1.526-.359 1.693-.118.181-.361.761-.361 1.692v7.902c0 .93-.762 1.691-1.692 1.691H8.288c-.931 0-1.692-.762-1.692-1.691V22.96c0-.932-.243-1.512-.361-1.692-.106-.167-.359-.762-.359-1.693v-7.539c0-.883.69-1.607 1.556-1.678l.136-.014h.189V4.037c0-.552.448-1 1-1s1 .448 1 1v6.307h3.679v-.488c0-.492.4-.894.892-.894h2.31c.491 0 .894.403.894.894v.488h.458l.068.007c.899.036 1.625.778 1.625 1.684zm-6.374 2.596c0 .45.365.814.816.814.451 0 .815-.364.815-.814 0-.45-.365-.815-.815-.815-.451 0-.816.365-.816.815zm-2.718 0c0 .45.366.814.815.814.451 0 .816-.364.816-.814 0-.45-.365-.815-.816-.815-.449 0-.815.365-.815.815zm-.53 3.332c.449 0 .814-.365.814-.815 0-.45-.366-.816-.814-.816-.451 0-.815.365-.815.816.001.45.364.815.815.815zm2.161 1.701c0-.452-.365-.816-.816-.816-.449 0-.815.365-.815.816 0 .45.366.815.815.815.451 0 .816-.365.816-.815zm.557-1.701c.45 0 .813-.365.813-.815 0-.45-.363-.816-.813-.816-.45 0-.815.365-.815.816 0 .45.365.815.815.815zm2.16 1.701c0-.452-.365-.816-.815-.816-.45 0-.816.365-.816.816 0 .45.365.815.816.815.451 0 .815-.365.815-.815zm1.373-2.516c0-.45-.365-.816-.814-.816-.451 0-.816.365-.816.816 0 .45.365.815.816.815.449 0 .814-.365.814-.815z"/>
</svg>
