<svg xmlns="http://www.w3.org/2000/svg" viewBox="0 0 36 36">
  <path fill="#0568ae" d="M19.752 9.945h-.083v-.381c0-.7-.569-1.27-1.269-1.27h-2.31c-.699 0-1.268.57-1.268 1.27v.381h-3.929V3.531c0-.207-.168-.375-.375-.375s-.375.168-.375.375v6.415h-.814c-1.14 0-2.068.927-2.068 2.066v7.539c0 .976.295 1.595.417 1.851l.022.047c.122.259.325.692.325 1.487v5.619c0 .207.168.375.375.375s.375-.168.375-.375v-5.619c0-.963-.268-1.532-.396-1.807l-.035-.074c-.091-.191-.333-.698-.333-1.505v-7.539c0-.726.591-1.316 1.318-1.316h10.422c.726 0 1.317.591 1.317 1.316v7.539c0 .833-.223 1.369-.299 1.489-.194.298-.421.975-.421 1.897v7.902c0 .726-.591 1.316-1.317 1.316h-8.938c-.207 0-.375.168-.375.375s.168.375.375.375h8.938c1.14 0 2.067-.927 2.067-2.066v-7.902c0-.843.216-1.359.302-1.491.155-.244.418-.917.418-1.895v-7.539c.001-1.139-.927-2.066-2.066-2.066zm-4.179-.381c0-.286.232-.52.518-.52h2.31c.286 0 .519.233.519.52v.381h-3.346v-.381zm-1.59 5.044c0 .45-.365.814-.816.814-.449 0-.815-.364-.815-.814s.366-.815.815-.815c.451 0 .816.364.816.815zm2.718 0c0 .45-.365.814-.815.814-.45 0-.815-.364-.815-.814s.365-.815.815-.815c.45 0 .815.364.815.815zm-2.718 5.033c0 .45-.365.815-.816.815-.449 0-.815-.365-.815-.815 0-.452.366-.816.815-.816.451-.001.816.364.816.816zm2.718 0c0 .45-.365.815-.815.815-.45 0-.815-.365-.815-.815 0-.452.365-.816.815-.816.45-.001.815.364.815.816zm-4.878-3.332c.449 0 .814.365.814.816 0 .45-.366.815-.814.815-.451 0-.815-.365-.815-.815 0-.451.363-.816.815-.816zm2.717 0c.45 0 .814.365.814.816 0 .45-.363.815-.814.815s-.815-.365-.815-.815c0-.451.365-.816.815-.816zm2.719 1.631c-.451 0-.816-.365-.816-.815 0-.45.365-.816.816-.816.449 0 .814.365.814.816 0 .449-.364.815-.814.815zm11.534 4.727c-.074.09-.182.137-.29.137-.084 0-.168-.028-.238-.085-.161-.131-.184-.368-.052-.528 1.706-2.081 2.401-4.791 1.907-7.435-.278-1.486-.924-2.881-1.867-4.036-.13-.16-.106-.397.054-.528.161-.132.397-.107.528.054 1.021 1.252 1.72 2.764 2.023 4.372.534 2.862-.218 5.796-2.065 8.049zm-2.089-1.485c-.073.098-.185.149-.3.149-.078 0-.157-.024-.225-.075-.166-.125-.199-.359-.074-.525 1.197-1.591 1.672-3.625 1.304-5.581-.207-1.106-.659-2.119-1.343-3.01-.126-.164-.095-.4.069-.526s.399-.095.525.069c.757.985 1.256 2.105 1.485 3.328v.002c.408 2.161-.117 4.41-1.441 6.169zm-1.151-5.742c.291 1.553-.089 3.163-1.042 4.416-.074.097-.186.148-.299.148-.079 0-.159-.025-.226-.076-.165-.126-.197-.361-.071-.526.824-1.085 1.154-2.479.902-3.824-.143-.757-.451-1.446-.913-2.048-.126-.164-.096-.399.069-.526.165-.126.4-.095.526.069.533.696.888 1.492 1.054 2.367z"/>
</svg>
