<svg xmlns="http://www.w3.org/2000/svg" viewBox="0 0 36 36">
  <path fill="#0568ae" d="M7.6 15.4l-2.5 3.5-.1.1c-.1.2-.3.2-.5 0l-.9-1.3L2 15.4c-.2-.2-.1-.4.2-.4h1.6c.8-3.9 3.1-7.2 6.6-9.3 6.5-4 15.1-2.3 19.4 3.9.2.3.3.5.3.5.1.2.1.4-.1.5l-1.1.7c-.2.1-.4.1-.5-.1 0 0-.2-.3-.4-.5-3.7-5.3-11-6.8-16.6-3.3-2.8 1.7-4.8 4.4-5.5 7.6h1.5c.3 0 .4.2.2.4zM34 20.6l-1.7-2.3-.9-1.3c-.1-.2-.3-.2-.5 0l-.1.1-2.5 3.5c-.2.2-.1.4.2.4H30c-.8 3.2-2.7 5.9-5.6 7.6-5.6 3.5-12.8 2-16.7-3.2-.2-.3-.4-.5-.4-.5-.1-.2-.3-.2-.5-.1l-.8.6c-.2.1-.2.3-.1.5 0 0 .1.2.3.5 4.4 6.2 12.9 8 19.4 3.9 3.4-2.1 5.7-5.5 6.6-9.3h1.6c.3 0 .4-.2.2-.4zm-17.7 2h.1c.1 0 .1 0 .2-.1l4-4.9c.1-.1.1-.2 0-.2 0-.1-.1-.1-.2-.1h-1.9l1.1-3.7c0-.1 0-.2-.1-.3-.1 0-.2 0-.3.1l-4 4.9c-.1.1-.1.2 0 .2 0 .1.1.1.2.1h1.9l-1.1 3.7c0 .2 0 .3.1.3zm8.4-1.9v-.9h.6c.3 0 .5-.2.5-.5v-2.5c0-.3-.2-.5-.5-.5h-.6v-.9c0-.7-.6-1.4-1.4-1.4h-3.1l-.3 1h3.4c.2 0 .4.2.4.4v5.4c0 .2-.2.4-.4.4h-4.5l-.8 1h5.3c.8-.1 1.4-.7 1.4-1.5zm-12.2-5.8H17l.8-1h-5.3c-.7 0-1.4.6-1.4 1.4v5.4c0 .7.6 1.4 1.4 1.4h3.1l.3-1h-3.4c-.2 0-.4-.2-.4-.4v-5.4c0-.2.2-.4.4-.4z"/>
</svg>
