<svg xmlns="http://www.w3.org/2000/svg" viewBox="0 0 36 36">
  <path fill="#0568ae" d="M8.6 14.5l-3.1 2.6c-.3.2-.6.3-.9.3h-.3c-.4-.1-.7-.4-.9-.8l-1.7-3.7c-.1-.2 0-.4.2-.5.2-.1.4 0 .5.2l1.7 3.7c0 .1.1.1.1.2.5-4.3 2.8-8 6.5-10.3 6.5-4 15.1-2 19.1 4.5.1.2.1.4-.1.5-.2.1-.4.1-.5-.1-3.9-6.2-12-8.1-18.1-4.3C7.6 9 5.4 12.5 5 16.5l3.1-2.6c.2-.1.4-.1.5.1.2.2.1.4 0 .5zm25.6 8.6l-1.7-3.7c-.2-.4-.5-.7-.9-.8-.4-.1-.8 0-1.2.3l-3.1 2.6c-.2.1-.2.4-.1.5.1.2.4.2.5.1l3.1-2.6c-.5 4-2.7 7.6-6.1 9.7-3 1.8-6.5 2.4-9.9 1.6-3.4-.8-6.3-2.9-8.2-5.9-.1-.2-.3-.2-.5-.1s-.2.3-.1.5c2 3.2 5 5.4 8.6 6.2 1.1.3 2.1.4 3.2.4 2.5 0 5.1-.7 7.3-2.1 3.6-2.2 6-6.1 6.5-10.3 0 .1.1.1.1.2l1.7 3.7c.1.1.2.2.3.2h.2c.3-.1.4-.3.3-.5zm-21.8-8.7h4c.2 0 .4-.2.4-.4s-.2-.4-.4-.4h-4c-.9 0-1.6.7-1.6 1.6v5.4c0 1 .6 1.6 1.6 1.6h2.1c.2 0 .4-.2.4-.4s-.2-.4-.4-.4h-2.1c-.7 0-.8-.5-.8-.8v-5.4c0-.4.4-.8.8-.8zm6.4 7.9h4.8c.9 0 1.6-.7 1.6-1.6v-.6c.7 0 1.2-.5 1.2-1.2v-1.8c0-.7-.6-1.2-1.2-1.2v-.6c0-.9-.7-1.6-1.6-1.6h-2.8c-.2 0-.4.2-.4.4s.2.4.4.4h2.8c.5 0 .8.4.8.9v1c0 .2.2.4.4.4h.4c.3 0 .5.2.5.5v1.8c0 .3-.2.5-.5.5h-.4c-.2 0-.4.2-.4.4v1c0 .5-.4.8-.8.8h-4.8c-.2 0-.4.2-.4.4 0 0 .2.1.4.1zm-3.2.6l1.2-4h-2c-.1 0-.3-.1-.3-.2-.1-.1 0-.3 0-.4l4.5-5.6c.1-.1.3-.2.5-.1s.2.3.2.4l-1.2 4h2c.1 0 .3.1.3.2.1.1 0 .3 0 .4l-4.5 5.6c-.1.1-.2.1-.3.1h-.2c-.2 0-.3-.2-.2-.4zm1.7-4.7c.1 0 .2.1.3.2.1.1.1.2.1.3l-.8 2.7 2.8-3.5H18c-.1 0-.2-.1-.3-.1-.1-.1-.1-.2-.1-.3l.8-2.7-2.8 3.5 1.7-.1z"/>
</svg>
