<svg xmlns="http://www.w3.org/2000/svg" viewBox="0 0 36 36">
  <path fill="#0568ae" d="M5.8 21.7c0 .2-.1.4-.3.4h-.1c-.1 0-.2 0-.2-.1-.1 0-.2-.1-.2-.2-.1-.9-.2-1.8-.2-2.7v-.3-.6-.1c0-.3 0-.5.1-.8 0-.2 0-.3.1-.5 0-.1 0-.3.1-.4 0-.2.1-.4.1-.6 0-.1 0-.2.1-.3 0-.2.1-.4.1-.6 0-.1 0-.2.1-.3.2-.6.3-1.1.6-1.6.1-.2.2-.5.3-.7v-.1c.2-.5.5-.9.7-1.4 0-.1.1-.1.1-.2.1-.2.2-.4.3-.5 0-.1.1-.1.1-.2.1-.2.3-.4.4-.5 0-.1.1-.1.1-.2.2-.1.3-.2.4-.3.1-.1.2-.3.3-.4 1.8-2.1 4-3.7 6.6-4.6.2-.1.4 0 .5.2.1.2 0 .4-.2.5-1.6.6-3.2 1.5-4.5 2.7-.1.1-.3.2-.4.3-.6.5-1 .9-1.5 1.4-3 3.5-4.3 8.2-3.5 12.7zm7.2-9.8c.6-.7 1.3-1.4 2.1-1.9.8-.6 1.6-1 2.5-1.4.2-.1.3-.3.2-.5-.1-.2-.3-.3-.5-.2-.9.4-1.7.8-2.5 1.4-.1 0-.1.1-.2.1l-.1.1c-.8.6-1.5 1.2-2.1 2-2.4 2.8-3.5 6.4-3.1 10 0 .2.2.3.4.3s.4-.2.3-.4c-.3-3.4.7-6.9 3-9.5zm2.8 2.3c-.1.1-.2.3-.3.4l-.3.3c-.1.1-.2.3-.2.4-.1.1-.2.3-.3.4l-.3.6c0 .1-.1.1-.1.2-.6 1.5-.9 3.1-.7 4.7 0 .2.2.3.4.3s.4-.2.3-.4c-.2-1.8.1-3.6 1-5.1.3-.5.6-1 1-1.5.9-1 1.9-1.8 3.2-2.3.2-.1.3-.3.2-.5-.1-.2-.3-.3-.5-.2-1.3.8-2.4 1.6-3.4 2.7zm12.7-8.1c-.4-.4-.5-.4-.5-.5-.4-.3-.8-.4-1.2-.3-.3.1-.5.2-.6.5l-3.5 6.1c-.3.6-.1 1.3.5 1.6l.7.4c1.2.7 1.6 2.2.9 3.4l-3.5 6.1c-.3.6-.9 1-1.5 1.2-.6.2-1.3.1-1.9-.2l-.7-.4c-.3-.2-.6-.2-.9-.1-.3.1-.6.3-.7.5L12.8 29c-.1.2 0 .4.1.5.2.1.4 0 .5-.1l2.6-4.5c.1-.1.1-.2.3-.2.1 0 .3 0 .4.1l.7.4c.8.4 1.6.5 2.5.3.8-.2 1.5-.8 2-1.5l3.5-6.1c.9-1.6.4-3.5-1.2-4.4l-.7-.4c-.2-.1-.3-.4-.2-.6l3.5-6.1s.1-.1.2-.1.4 0 .6.1l.4.4c3 2.8 3.3 8 .9 12.3l-4.3 7.5c-2.4 4.1-6.8 6.4-10.7 5.5-.2 0-.4.1-.4.3 0 .2.1.4.3.4.6.1 1.2.2 1.9.2 3.7 0 7.4-2.3 9.6-6.1l4.3-7.5c2.6-4.7 2.2-10.3-1.1-13.3z"/>
</svg>
