<svg xmlns="http://www.w3.org/2000/svg" viewBox="0 0 36 36">
  <path fill="#0568ae" d="M17.1 3.8c.2.1.4.3.5.6.2.6-.1 1.2-.7 1.4-4.2 1.6-7.5 4.9-9 9.2-.8 2.4-1.1 4.9-.7 7.4.2.6-.2 1.2-.9 1.3-.6.1-1.2-.3-1.3-.9-.4-2.8-.2-5.8.8-8.5 1.7-4.9 5.5-8.7 10.3-10.5.4-.2.7-.2 1 0zm.5 4.1c-3.5 1.5-6.2 4.3-7.4 7.9-.7 2-.9 4.1-.6 6.2.1.6.7 1 1.3 1 .6-.1 1-.7 1-1.3-.2-1.7-.1-3.5.5-5.2 1-3 3.3-5.3 6.2-6.6.4-.2.7-.9.5-1.4-.1-.2-.3-.4-.5-.5-.3-.2-.7-.3-1-.1zm1.7 4.2c-2.3 1-4 2.8-4.9 5.2-.5 1.3-.6 2.7-.4 4 .1.6.6 1.1 1.3 1 .6-.1 1.1-.6 1-1.3-.1-1 0-2 .3-3 .6-1.7 1.9-3.1 3.6-3.8.6-.2.8-.9.6-1.5-.1-.2-.3-.4-.5-.5-.3-.2-.7-.2-1-.1zM12.9 32c4.1 1.5 9.3-.7 12-5.4l4.3-7.5c2.6-4.5 2.1-9.9-.9-12.8-.4-.4-.5-.4-.5-.4-.5-.3-1.1-.3-1.3.1-.2.4-.4.7-.4.7l-2.8 4.8s-.2.3-.4.7c-.2.4-.1.9.3 1.1.4.2.7.4.7.4 1.4.8 1.8 2.6 1.1 3.9l-3.5 6.1c-.8 1.4-2.6 1.8-3.9 1.1 0 0-.3-.2-.7-.4-.4-.2-.9-.1-1.1.3-.2.4-.4.7-.4.7l-3 5.1s-.1.2-.3.5c-.2.3 0 .7.4.9 0-.1 0-.1.4.1z"/>
</svg>
