<svg xmlns="http://www.w3.org/2000/svg" viewBox="0 0 36 36">
  <path fill="#0568ae" d="M14.7 26.4c-.4 0-.8 0-1.1-.1-.2 0-.3-.2-.3-.4s.2-.3.4-.3c2.3.5 4.8-.8 6.2-3.2l2.6-4.5c1.4-2.5 1.2-5.5-.5-7.2l-.2-.2c-.1-.1-.2-.1-.2-.1l-.2.4-1.9 3.2v.1s0 .1.1.1l.4.3c1 .6 1.3 1.9.8 2.9L18.6 21c-.6 1-1.9 1.3-2.9.8l-.4-.3h-.2l-1.6 2.7c-.1.2-.3.2-.5.1s-.2-.3-.1-.5l1.6-2.7c.1-.2.3-.3.5-.4.2-.1.5 0 .7.1l.4.3c.6.4 1.5.2 1.8-.5l2.1-3.7c.4-.6.2-1.5-.5-1.8l-.4-.3c-.2-.1-.3-.3-.4-.5-.1-.2 0-.5.1-.7l2.1-3.7c.1-.2.3-.3.5-.3.3-.1.6 0 .8.2 0 0 .1 0 .3.3 2 1.9 2.2 5.3.6 8.1l-2.6 4.5c-1.2 2.3-3.5 3.7-5.8 3.7zm15-15.2c-.2.1-.4.1-.5-.1-3.8-6.2-12-8.1-18.1-4.3C7.6 9 5.4 12.5 5 16.5l3.1-2.6c.2-.1.4-.1.5.1.1.2.1.4-.1.5l-3.1 2.6c-.3.2-.6.3-.9.3h-.3c-.4-.1-.7-.4-.9-.8l-1.7-3.7c-.1-.2 0-.4.2-.5.2-.1.4 0 .5.2L4 16.3c0 .1.1.1.1.2.5-4.3 2.8-8 6.5-10.3 6.5-4 15.1-2 19.1 4.5.2.2.2.4 0 .5zm4.4 12.4h-.2c-.1 0-.3-.1-.3-.2l-1.7-3.7c0-.1-.1-.1-.1-.2-.5 4.2-2.9 8-6.5 10.3-2.3 1.4-4.8 2.1-7.3 2.1-4.7 0-9.2-2.3-11.8-6.6-.1-.2-.1-.4.1-.5.2-.1.4-.1.5.1 3.8 6.2 11.9 8.1 18.1 4.3 3.4-2.1 5.7-5.7 6.1-9.7l-3.1 2.6c-.2.1-.4.1-.5-.1-.1-.2-.1-.4.1-.5l3.1-2.6c.3-.3.8-.4 1.2-.3.4.1.7.4.9.8l1.7 3.7c-.1.2-.2.4-.3.5z"/>
</svg>
