<svg xmlns="http://www.w3.org/2000/svg" viewBox="0 0 36 36">
  <path fill="#0568ae" d="M12.6 25.7c-.2-.1-.3-.4-.2-.5.1-.2.2-.3.2-.3l1.8-3.1.2-.4c.1-.2.4-.3.7-.2.2.1.4.3.4.3.8.5 1.9.2 2.4-.6l2.1-3.7c.5-.8.2-1.9-.6-2.4 0 0-.2-.1-.4-.3-.2-.1-.3-.4-.2-.7l.2-.4 1.7-2.9.2-.4c.1-.2.5-.2.8 0l.3.3c1.8 1.7 2.1 5 .6 7.7l-2.6 4.5c-1.6 2.8-4.7 4.2-7.2 3.2l-.4-.1zM30 10.6l-1.1.7c-.2.1-.4.1-.5-.1 0 0-.2-.3-.4-.5-3.7-5.3-11-6.8-16.6-3.3-2.8 1.7-4.8 4.4-5.5 7.6h1.5c.3 0 .4.2.2.4l-2.5 3.5-.1.1c-.1.2-.3.2-.5 0l-.9-1.3L2 15.4c-.2-.2-.1-.4.2-.4h1.6c.8-3.9 3.1-7.2 6.6-9.3 6.5-4 15.1-2.3 19.4 3.9.2.3.3.5.3.5.2.1.1.4-.1.5zM6 25.4l1.1-.7c.2-.1.4-.1.5.1 0 0 .2.3.4.5 3.8 5.2 11.1 6.7 16.7 3.2 2.8-1.7 4.8-4.5 5.6-7.6h-1.5c-.3 0-.4-.2-.2-.4l2.5-3.5H31c.1-.2.3-.2.5 0l.9 1.3 1.7 2.3c.2.2.1.4-.2.4h-1.6c-.8 3.9-3.1 7.2-6.6 9.3-6.5 4-15.1 2.3-19.4-3.9-.2-.3-.3-.5-.3-.5-.2-.1-.2-.4 0-.5z"/>
</svg>
