<svg xmlns="http://www.w3.org/2000/svg" viewBox="0 0 36 36">
  <path fill="#0568ae" d="M24.025 2.589c-1.86-.176-5.856-.168-6.024-.168-.169.001-4.166-.008-6.027.168-1.934.182-2.957 1.251-2.957 3.091v24.4c0 1.839 1.023 2.908 2.958 3.092 1.683.159 5.12.167 5.886.167h.148c.173 0 4.157.008 6.017-.167 1.935-.184 2.958-1.253 2.958-3.092V5.68c-.001-1.84-1.024-2.909-2.959-3.091zm2.208 27.491c0 1.452-.724 2.197-2.278 2.345-1.824.172-5.904.163-5.946.165-.042-.002-4.139.008-5.964-.165-1.554-.147-2.278-.892-2.278-2.345V5.68c0-1.454.724-2.199 2.278-2.345 1.668-.158 5.229-.165 5.86-.165h.093c.045 0 4.132-.008 5.957.165 1.554.147 2.278.892 2.278 2.345v24.4zM25.03 7.25v19.096c0 .616-.499 1.116-1.113 1.116H12.083c-.207 0-.375-.168-.375-.375s.168-.375.375-.375h11.834c.204 0 .363-.161.363-.366V7.25c0-.199-.163-.361-.363-.361H12.083c-.2 0-.363.162-.363.361v13.513c0 .207-.168.375-.375.375s-.375-.168-.375-.375V7.25c0-.612.499-1.111 1.113-1.111h11.834c.614.001 1.113.499 1.113 1.111zm-5.523 21.324h-3.014c-.806 0-1.462.655-1.462 1.461 0 .805.656 1.461 1.462 1.462h3.014c.806-.002 1.461-.657 1.461-1.462.001-.806-.655-1.461-1.461-1.461zm0 2.173h-3.013c-.393 0-.712-.32-.712-.712s.319-.711.712-.711h3.014c.392 0 .711.319.711.711s-.32.711-.712.712zm1.734-9.928h-1.655l.399.31c.164.127.193.362.066.526-.074.095-.184.145-.296.145-.08 0-.161-.026-.229-.079l-.963-.748c-.172-.133-.27-.327-.269-.531.001-.205.102-.398.276-.53l.977-.732c.166-.125.401-.09.525.075.125.166.091.401-.075.525l-.385.289h1.629c.331 0 .576-.097.674-.266.098-.169.059-.43-.106-.716l-1.181-2.045c-.103-.179-.042-.409.137-.512.18-.104.409-.042.512.137l1.181 2.045c.303.524.341 1.059.106 1.466-.238.414-.709.641-1.323.641zm-7.7-2.107l.767-1.328-.462.188c-.193.078-.411-.015-.489-.206-.078-.192.014-.411.206-.489l1.129-.459c.201-.083.418-.071.594.033.177.104.293.287.32.504l.146 1.211c.025.206-.122.393-.327.417l-.045.003c-.187 0-.349-.14-.372-.33l-.059-.485-.76 1.316c-.165.286-.203.547-.105.716.098.169.343.266.672.266h2.443c.207 0 .375.168.375.375s-.168.375-.375.375h-2.443c-.614 0-1.083-.228-1.322-.641-.233-.407-.195-.941.107-1.466zm7.354-4.493l-.167 1.208c-.03.215-.149.397-.326.498-.098.056-.206.083-.318.083-.093 0-.188-.019-.279-.058l-1.122-.479c-.19-.082-.279-.302-.198-.492.081-.191.301-.279.492-.198l.458.196-.869-1.505c-.33-.572-.804-.572-1.134 0l-1.263 2.189c-.104.179-.333.241-.512.137-.179-.103-.241-.333-.137-.512l1.263-2.189c.303-.524.746-.825 1.216-.825s.914.301 1.217.825l.868 1.504.067-.485c.028-.205.215-.347.423-.32.205.028.349.218.321.423z"/>
</svg>
