<svg xmlns="http://www.w3.org/2000/svg" viewBox="0 0 36 36">
  <path fill="#0568ae" d="M24.014 2.713c-1.688-.16-5.208-.168-5.896-.168h-.233c-.689 0-4.21.008-5.898.168-1.862.175-2.845 1.201-2.845 2.967v24.4c0 1.764.983 2.79 2.845 2.967 1.688.159 5.216.167 5.906.167h.235c.688 0 4.2-.008 5.886-.167 1.861-.177 2.845-1.203 2.845-2.967V5.68c-.001-1.766-.984-2.792-2.845-2.967zm-4.507 28.409h-3.015c-.598-.001-1.086-.487-1.086-1.088 0-.6.489-1.086 1.086-1.086h3.015c.602 0 1.086.486 1.086 1.086.001.601-.484 1.087-1.086 1.088zm5.352-4.754c0 .396-.324.72-.72.72H11.861c-.396 0-.72-.324-.72-.72V7.577c0-.396.324-.72.72-.72H24.14c.396 0 .72.324.72.72v18.791zm-7.1-12.581l-.543.94c-.207.359-.667.481-1.024.274-.359-.207-.482-.666-.274-1.024l.543-.941c.372-.643.933-1.012 1.541-1.012.608 0 1.17.369 1.541 1.013l.784 1.357.634-.365c.142-.082.244-.016.228.148l-.252 2.443-.008.074c-.013.122-.115.181-.227.13l-.972-.437-1.336-.601c-.149-.067-.156-.189-.013-.271l.647-.373-.783-1.355c-.12-.207-.223-.26-.244-.263-.02.003-.122.056-.242.263zm-1.073 6.785c0 .414-.336.75-.75.75H14.85c-.743 0-1.343-.302-1.648-.829-.304-.527-.265-1.198.107-1.841l.783-1.357-.633-.366c-.142-.082-.135-.204.014-.271l2.242-1.003.068-.031c.112-.05.214.009.227.131l.107 1.06.147 1.458c.017.163-.086.229-.228.147l-.646-.374-.783 1.356c-.12.207-.114.323-.106.343.012.015.109.078.348.078h1.086c.415-.001.751.335.751.749zm6.215-.077c-.304.527-.905.829-1.648.829h-1.567l-.001.731c0 .164-.108.219-.241.123l-1.99-1.44-.06-.044c-.1-.072-.1-.19 0-.262l.865-.623 1.189-.857c.133-.096.242-.04.241.124l-.001.747h1.565c.239 0 .336-.063.35-.08.007-.018.013-.133-.106-.34l-.543-.94c-.207-.359-.085-.817.274-1.024.358-.206.817-.085 1.024.274l.543.94c.372.645.41 1.316.106 1.842z"/>
</svg>
