<svg xmlns="http://www.w3.org/2000/svg" viewBox="0 0 36 36">
  <path fill-rule="evenodd" clip-rule="evenodd" fill="#0568ae" d="M22.917 14.893c.053-3.438 1.644-6.258 1.678-8.282.021-1.314-2.936-3.217-6.595-3.266-3.658.049-6.616 1.952-6.595 3.265.034 2.024 1.625 4.845 1.678 8.282.026 1.761-.846 4.602-.99 6.043-.303 3.08.095 6.782 1.028 8.313 1.817 2.976 3.964 3.404 4.878 3.406.914-.002 3.06-.431 4.878-3.406.934-1.531 1.332-5.233 1.028-8.313-.142-1.44-1.014-4.281-.988-6.042zm-4.935-9.441c.664-.009 1.21.524 1.219 1.187.009.665-.523 1.209-1.19 1.218-.663.008-1.207-.522-1.213-1.186-.009-.664.521-1.211 1.184-1.219zm-3.493 9.559c0-.524.116-1.032.343-1.509.119-.249.418-.354.667-.235.249.119.355.418.235.667-.163.341-.246.703-.246 1.077 0 .375.082.737.246 1.077.119.249.014.548-.235.667l-.216.049c-.186 0-.365-.104-.451-.284-.227-.476-.343-.983-.343-1.509zm1.662 12.412c0 .218-.178.396-.396.396h-.579c-.218 0-.396-.178-.396-.396v-.58c0-.218.178-.396.396-.396h.579c.218 0 .396.178.396.396v.58zm0-2.623c0 .218-.178.396-.396.396h-.579c-.218 0-.396-.178-.396-.396v-.58c0-.218.178-.396.396-.396h.579c.218 0 .396.178.396.396v.58zm0-2.624c0 .218-.178.396-.396.396h-.579c-.218 0-.396-.178-.396-.396v-.58c0-.218.178-.396.396-.396h.579c.218 0 .396.178.396.396v.58zm2.534 5.247c0 .218-.178.396-.396.396h-.579c-.218 0-.396-.178-.396-.396v-.58c0-.218.178-.396.396-.396h.579c.218 0 .396.178.396.396v.58zm0-2.623c0 .218-.178.396-.396.396h-.579c-.218 0-.396-.178-.396-.396v-.58c0-.218.178-.396.396-.396h.579c.218 0 .396.178.396.396v.58zm0-2.624c0 .218-.178.396-.396.396h-.579c-.218 0-.396-.178-.396-.396v-.58c0-.218.178-.396.396-.396h.579c.218 0 .396.178.396.396v.58zm.822-3.997c-.479.227-.985.343-1.507.343-.522 0-1.029-.116-1.507-.343-.25-.119-.355-.417-.237-.666.119-.25.417-.355.666-.237.687.327 1.47.326 2.155 0 .25-.118.547-.012.667.236.118.251.012.549-.237.667zm-2.488-3.155c-.008-.542.426-.987.969-.994.542-.006.986.427.993.969.008.544-.425.986-.968.994-.542.006-.987-.424-.994-.969zm2.725-2.513c-.086.179-.265.284-.452.284l-.215-.049c-.683-.327-1.472-.326-2.154 0-.249.119-.548.014-.667-.235s-.014-.548.235-.667c.954-.456 2.063-.456 3.017 0 .249.119.355.418.236.667zm1.476 14.912c0 .218-.179.396-.396.396h-.579c-.217 0-.397-.178-.397-.396v-.58c0-.218.179-.396.397-.396h.579c.218 0 .396.178.396.396v.58zm0-2.623c0 .218-.179.396-.396.396h-.579c-.217 0-.397-.178-.397-.396v-.58c0-.218.179-.396.397-.396h.579c.218 0 .396.178.396.396v.58zm0-2.624c0 .218-.179.396-.396.396h-.579c-.217 0-.397-.178-.397-.396v-.58c0-.218.179-.396.397-.396h.579c.218 0 .396.178.396.396v.58zm-.053-5.656c-.086.18-.265.285-.452.285l-.214-.049c-.249-.119-.355-.417-.236-.667.164-.344.247-.707.247-1.079s-.083-.734-.247-1.078c-.119-.249-.013-.548.236-.666.25-.12.548-.013.667.236.229.479.345.987.345 1.509-.002.522-.117 1.029-.346 1.509z"/>
</svg>
