<svg xmlns="http://www.w3.org/2000/svg" viewBox="0 0 36 36">
  <path fill="#0568ae" d="M24.28 20.899c.327 3.324-.138 6.997-1.081 8.545-2.029 3.321-4.492 3.585-5.199 3.586h-.002c-.423-.001-1.284-.085-2.297-.643-.182-.1-.248-.328-.148-.509s.329-.247.509-.148c.866.477 1.585.549 1.936.55.609-.002 2.734-.239 4.559-3.227.855-1.402 1.283-4.952.975-8.081-.054-.541-.221-1.318-.399-2.14-.286-1.326-.609-2.829-.593-3.945.031-1.999.559-3.761 1.024-5.316.344-1.149.641-2.14.654-2.967.004-.24-.165-.549-.475-.868-.916-.946-3.106-1.979-5.743-2.015-2.638.036-4.827 1.07-5.745 2.015-.31.319-.479.628-.474.868.014.826.311 1.819.654 2.968.465 1.555.992 3.317 1.023 5.315.017 1.114-.307 2.615-.592 3.939-.177.824-.345 1.603-.399 2.146-.131 1.326-.131 2.813-.001 4.189.086.911.229 1.762.415 2.46.054.2-.066.406-.266.459l-.097.013c-.166 0-.317-.111-.362-.278-.196-.738-.348-1.631-.437-2.583-.135-1.422-.134-2.961.001-4.333.058-.586.23-1.385.412-2.231.277-1.285.59-2.741.575-3.77-.03-1.895-.541-3.604-.992-5.112-.359-1.202-.67-2.24-.686-3.17-.007-.448.23-.933.686-1.403 1.057-1.089 3.408-2.205 6.279-2.243H18l.005.001V2.97c2.87.038 5.221 1.154 6.279 2.243.457.47.694.956.687 1.404-.016.93-.326 1.968-.686 3.169-.451 1.508-.963 3.218-.992 5.113-.015 1.03.299 2.489.576 3.776.181.843.353 1.64.411 2.224zM18.018 8.366c.458-.006.887-.189 1.206-.517.32-.327.493-.76.486-1.217-.014-.936-.779-1.689-1.711-1.689h-.023c-.456.005-.882.188-1.2.515-.32.328-.492.762-.485 1.219.005.456.186.883.512 1.202.322.314.745.487 1.194.487h.021zm.942-1.723c.003.257-.093.499-.273.683-.18.184-.421.287-.679.29-.242.007-.499-.094-.681-.273-.182-.178-.284-.418-.287-.675-.004-.258.093-.502.273-.687.178-.183.417-.285.672-.288h.013c.524.001.954.424.962.95zm-.973 7.387c-.543.007-.976.452-.968.994.007.545.452.976.993.969.543-.008.976-.45.968-.994-.007-.543-.451-.976-.993-.969zm-2.541 2.612c.187-.09.266-.314.176-.5-.171-.357-.258-.737-.258-1.131 0-.393.087-.773.258-1.131.089-.187.01-.411-.177-.5-.188-.089-.411-.01-.5.177-.22.46-.331.949-.331 1.455 0 .507.112.996.332 1.455.064.135.199.213.338.213l.162-.038zm5.607-.176c.221-.463.333-.953.333-1.455 0-.503-.112-.992-.333-1.455-.089-.187-.311-.267-.5-.177-.187.089-.266.313-.177.5.172.361.259.742.259 1.132 0 .39-.087.771-.259 1.133-.089.187-.01.411.177.5l.161.036c.141 0 .276-.079.339-.214zm-1.422-4.009c.089-.187.01-.411-.177-.5-.92-.44-1.99-.44-2.909 0-.187.09-.266.313-.177.5.089.187.313.265.5.177.716-.343 1.545-.343 2.262 0l.161.037c.141-.001.275-.079.34-.214zm-.178 5.609c.187-.089.267-.313.178-.5-.089-.187-.311-.267-.5-.177-.72.342-1.543.342-2.263 0-.187-.089-.411-.01-.5.177-.089.187-.01.411.177.5.462.219.951.331 1.454.331s.992-.111 1.454-.331zm-3.134 3.795c0-.198-.162-.36-.36-.36h-.527c-.198 0-.36.162-.36.36v.527c0 .198.162.36.36.36h.527c.198 0 .36-.162.36-.36v-.527zm2.304 0c0-.198-.162-.36-.36-.36h-.527c-.198 0-.36.162-.36.36v.527c0 .198.162.36.36.36h.527c.198 0 .36-.162.36-.36v-.527zm2.304 0c0-.198-.162-.36-.36-.36h-.527c-.198 0-.361.162-.361.36v.527c0 .198.163.36.361.36h.527c.198 0 .36-.162.36-.36v-.527zm-4.608 2.385c0-.198-.162-.36-.36-.36h-.527c-.198 0-.36.162-.36.36v.527c0 .198.162.36.36.36h.527c.198 0 .36-.162.36-.36v-.527zm2.304 0c0-.198-.162-.36-.36-.36h-.527c-.198 0-.36.162-.36.36v.527c0 .198.162.36.36.36h.527c.198 0 .36-.162.36-.36v-.527zm2.304 0c0-.198-.162-.36-.36-.36h-.527c-.198 0-.361.162-.361.36v.527c0 .198.163.36.361.36h.527c.198 0 .36-.162.36-.36v-.527zm-4.608 2.385c0-.198-.162-.36-.36-.36h-.527c-.198 0-.36.162-.36.36v.527c0 .198.162.36.36.36h.527c.198 0 .36-.162.36-.36v-.527zm2.304 0c0-.198-.162-.36-.36-.36h-.527c-.198 0-.36.162-.36.36v.527c0 .198.162.36.36.36h.527c.198 0 .36-.162.36-.36v-.527zm2.304 0c0-.198-.162-.36-.36-.36h-.527c-.198 0-.361.162-.361.36v.527c0 .198.163.36.361.36h.527c.198 0 .36-.162.36-.36v-.527z"/>
</svg>
