<svg xmlns="http://www.w3.org/2000/svg" viewBox="0 0 36 36">
  <path fill="#0568ae" d="M20.999 3.194h-5.998c-.604 0-1.095.491-1.095 1.095v21.358c0 .604.491 1.095 1.095 1.095h5.998c.604 0 1.095-.491 1.095-1.095V4.289c0-.604-.492-1.095-1.095-1.095zM18.81 14.083c0 .198-.162.36-.36.36h-.9c-.198 0-.36-.162-.36-.36v-.899c0-.199.162-.36.36-.36h.9c.198 0 .36.161.36.36v.899zm0-3.151c0 .197-.162.36-.36.36h-.9c-.198 0-.36-.163-.36-.36v-.9c0-.198.162-.361.36-.361h.9c.198 0 .36.163.36.361v.9zm0-3.152c0 .198-.162.36-.36.36h-.9c-.198 0-.36-.162-.36-.36v-.9c0-.198.162-.36.36-.36h.9c.198 0 .36.162.36.36v.9zm3.659 25.027h-8.94c-.273 0-.52-.149-.642-.393-.053-.095-.079-.208-.079-.329 0-.149.045-.295.13-.417l2.569-3.098c.117-.171.338-.284.573-.284h3.839c.234 0 .453.112.59.297l2.531 3.059c.104.137.153.285.153.442 0 .11-.027.224-.076.324-.127.247-.374.399-.648.399"/>
</svg>
