<svg xmlns="http://www.w3.org/2000/svg" viewBox="0 0 36 36">
  <path fill="#0568ae" d="M21 27.1h-6c-.8 0-1.5-.7-1.5-1.5V4.3c0-.8.7-1.5 1.5-1.5h6c.8 0 1.5.7 1.5 1.5v21.4c0 .8-.7 1.4-1.5 1.4zM15 3.6c-.4 0-.7.3-.7.7v21.4c0 .4.3.7.7.7h6c.4 0 .7-.3.7-.7V4.3c0-.4-.3-.7-.7-.7h-6zm2.5 9.2c-.2 0-.4.2-.4.4v.9c0 .2.2.4.4.4h.9c.2 0 .4-.2.4-.4v-.9c0-.2-.2-.4-.4-.4h-.9zm0-3.1c-.2 0-.4.2-.4.4v.9c0 .2.2.4.4.4h.9c.2 0 .4-.2.4-.4v-1c0-.2-.2-.4-.4-.4h-.9zm0-3.2c-.2 0-.4.2-.4.4v.9c0 .2.2.4.4.4h.9c.2 0 .4-.2.4-.4v-.9c0-.2-.2-.4-.4-.4h-.9zm6 26.1c.1-.2.1-.3.1-.5s-.1-.5-.2-.7l-2.5-3.1c-.1-.2-.4-.2-.5 0-.2.1-.2.4-.1.5l2.5 3c.1.1.1.1.1.2v.2c-.1.1-.2.2-.3.2h-8.9c-.1 0-.2-.1-.3-.2V31.9l2.6-3.1c.1-.2.1-.4 0-.5-.2-.1-.4-.1-.5 0l-2.6 3.1c-.1.2-.2.4-.2.6 0 .2 0 .4.1.5.2.4.6.6 1 .6h8.9c.2.1.6-.1.8-.5z"/>
</svg>
