<svg xmlns="http://www.w3.org/2000/svg" viewBox="0 0 36 36">
  <path fill="#0568ae" d="M30.706 6.711H15.823l.043-.29c.052-.454-.274-.865-.728-.918s-.85.278-.918.728c-.229 1.99-.967 3.917-2.133 5.571l-.001.002c-2.077 2.949-5.331 4.818-8.931 5.127-.384.033-.683.322-.745.685l-.009.211c.039.456.44.793.896.754l.197-.022v5.434c0 .99.81 1.8 1.8 1.8H17v2.089h-4.761c-.552 0-1 .448-1 1s.448 1 1 1h11.522c.552 0 1-.448 1-1s-.448-1-1-1H19v-2.089h11.706c.99 0 1.8-.81 1.8-1.8V8.511c0-.99-.81-1.8-1.8-1.8zm-.2 16.361c0 .396-.324.72-.72.72H6.214c-.396 0-.72-.324-.72-.72v-4.859c3.197-.801 6.018-2.717 7.945-5.454l.002-.002c.871-1.236 1.526-2.608 1.951-4.045h14.393c.396 0 .72.324.72.72v13.64zM1.84 14.375l.005-.245c.06-.35.342-.634.712-.681 2.631-.334 5.014-1.77 6.538-3.941.865-1.227 1.405-2.594 1.624-4.078.048-.473.485-.767.938-.702s.767.485.702.938c-.251 1.73-.892 3.352-1.908 4.795v.001c-1.792 2.551-4.592 4.238-7.684 4.631-.455.058-.869-.264-.927-.718zm.129-2.715c-.454.056-.867-.267-.924-.721l.006-.242c.06-.351.344-.636.715-.682 1.775-.218 3.385-1.185 4.419-2.652v-.001c.58-.827.938-1.741 1.088-2.731l.003-.023c.076-.44.49-.743.934-.678.453.065.767.484.702.937-.181 1.248-.64 2.406-1.372 3.449l-.001.002c-1.302 1.848-3.332 3.066-5.57 3.342z"/>
</svg>
