<?xml version="1.0" encoding="utf-8"?>
<!-- Generator: Adobe Illustrator 18.1.0, SVG Export Plug-In . SVG Version: 6.00 Build 0)  -->
<svg version="1.1" id="Layer_1" xmlns="http://www.w3.org/2000/svg" xmlns:xlink="http://www.w3.org/1999/xlink" x="0px" y="0px"
	 viewBox="0 0 36 36" enable-background="new 0 0 36 36" xml:space="preserve">
<polyline fill="none" points="0,0 36,0 36,36 "/>
<path fill="#009FDB" d="M1.8,14.4c0-0.1,0-0.2,0-0.2c0.1-0.3,0.3-0.6,0.7-0.7c2.6-0.3,5-1.8,6.5-3.9l0,0l0,0
	c0.9-1.2,1.4-2.6,1.6-4.1c0-0.5,0.5-0.8,0.9-0.7c0.5,0.1,0.8,0.5,0.7,0.9c-0.3,1.7-0.9,3.4-1.9,4.8l0,0l0,0l0,0l0,0
	c-1.8,2.6-4.6,4.2-7.7,4.6C2.3,15.2,1.9,14.8,1.8,14.4z M7.5,8.3C7.5,8.3,7.5,8.3,7.5,8.3c0.7-1,1.2-2.2,1.4-3.5
	C9,4.4,8.7,4,8.2,3.9C7.8,3.9,7.4,4.2,7.3,4.6c0,0,0,0,0,0c-0.1,1-0.5,1.9-1.1,2.7l0,0c-1,1.5-2.6,2.4-4.4,2.7
	c-0.4,0-0.7,0.3-0.7,0.7c0,0.1,0,0.2,0,0.2c0.1,0.5,0.5,0.8,0.9,0.7C4.2,11.4,6.2,10.2,7.5,8.3z M28.3,21c-3.3,0-6,2.7-6,6
	c0,1.2,0.4,2.3,1,3.3c0,0,0.1,0.1,0.1,0.1l2.1-2.1c-0.5-1.1-0.3-2.5,0.6-3.5c0.6-0.6,1.4-0.9,2.2-0.9c0.2,0,0.5,0,0.7,0.1
	c0.1,0,0.3,0.2,0.1,0.4l-1.8,1.8c-0.5,0.5-0.5,1.3,0,1.8c0.2,0.2,0.6,0.4,0.9,0.4c0.3,0,0.7-0.1,0.9-0.4l1.7-1.7
	c0.1-0.1,0.1-0.1,0.2-0.1c0.1,0,0.2,0.1,0.2,0.2c0.2,1,0,2.1-0.8,2.9c-0.6,0.6-1.4,0.9-2.2,0.9c-0.4,0-0.9-0.1-1.3-0.3l-2.1,2.1
	c0,0,0.1,0.1,0.1,0.1c0.9,0.6,2,1,3.2,1c3.3,0,6-2.7,6-6C34.3,23.7,31.6,21,28.3,21z M20.9,25.8c0.1-0.7,0.3-1.4,0.6-2H6.2
	c-0.4,0-0.7-0.3-0.7-0.7v-4.9c3.2-0.8,6-2.7,7.9-5.5c0,0,0,0,0,0c0.9-1.2,1.5-2.6,2-4h14.4c0.4,0,0.7,0.3,0.7,0.7v10.4
	c0.7,0.2,1.4,0.6,2,1V8.5c0-1-0.8-1.8-1.8-1.8H15.8c0-0.1,0-0.2,0-0.3c0.1-0.5-0.3-0.9-0.7-0.9s-0.8,0.3-0.9,0.7
	c-0.2,2-1,3.9-2.1,5.6c0,0,0,0,0,0c-2.1,2.9-5.3,4.8-8.9,5.1c-0.4,0-0.7,0.3-0.7,0.7c0,0.1,0,0.1,0,0.2c0,0.5,0.4,0.8,0.9,0.8
	c0.1,0,0.1,0,0.2,0V24c0,1,0.8,1.8,1.8,1.8H17v2.1h-4.8c-0.6,0-1,0.4-1,1c0,0.6,0.4,1,1,1h9.1c-0.3-0.6-0.4-1.3-0.5-2H19v-2.1H20.9z
	"/>
</svg>
