<svg xmlns="http://www.w3.org/2000/svg" viewBox="0 0 36 36">
  <path fill="#0568ae" d="M7.465 11.359c-1.502.872-3.14 1.362-4.871 1.459-.207.012-.384-.147-.395-.353-.011-.207.147-.384.354-.395 1.617-.091 3.133-.545 4.536-1.359 2.478-1.434 4.245-3.863 4.851-6.654.044-.202.244-.331.446-.287.202.044.331.244.287.446-.651 2.997-2.546 5.602-5.208 7.143zM5.53 8.184c1.894-1.1 3.242-2.951 3.699-5.091.044-.203-.086-.402-.288-.446-.203-.043-.402.086-.445.289-.412 1.931-1.632 3.606-3.342 4.599-.964.557-2.004.871-3.109.933-.206.012-.365.189-.353.396.012.206.189.365.396.353 1.221-.068 2.381-.42 3.442-1.033zm26.351-1.018v17.669c0 .367-.15.703-.391.943-.241.24-.577.389-.944.389H18.375v2.339h5.386c.207 0 .375.168.375.375s-.168.375-.375.375H12.239c-.207 0-.375-.168-.375-.375s.168-.375.375-.375h5.386v-2.339H5.451c-.366 0-.702-.149-.942-.389-.241-.24-.39-.575-.39-.942v-8.435c-.35.037-.701.066-1.054.076-.207.006-.379-.157-.385-.365-.006-.207.157-.379.364-.385 2.142-.059 4.26-.666 6.122-1.745 3.329-1.933 5.623-5.215 6.29-9.018.036-.204.23-.34.434-.304.204.036.34.23.304.434-.044.25-.094.498-.151.743h14.503c.737 0 1.335.593 1.335 1.329zM9.543 14.63c-.82.476-1.688.859-2.584 1.155v7.174c0 .06.048.107.105.107h21.875c.055 0 .103-.047.104-.107V8.849c0-.059-.05-.107-.104-.107H15.014c-1.185 2.44-3.074 4.497-5.471 5.888zm21.588-7.464c0-.32-.259-.58-.584-.58h-14.7c-.14.479-.305.949-.494 1.406h13.585c.474.001.854.385.854.857v14.11c0 .47-.378.856-.854.857H7.064c-.475 0-.854-.387-.855-.857V16.01c-.442.119-.888.217-1.34.291v8.534c0 .323.259.581.582.582h25.095c.326-.001.584-.259.584-.582V7.166z"/>
</svg>
