<?xml version="1.0" encoding="utf-8"?>
<!-- Generator: Adobe Illustrator 18.1.0, SVG Export Plug-In . SVG Version: 6.00 Build 0)  -->
<svg version="1.1" id="Layer_1" xmlns="http://www.w3.org/2000/svg" xmlns:xlink="http://www.w3.org/1999/xlink" x="0px" y="0px"
	 viewBox="0 0 36 36" enable-background="new 0 0 36 36" xml:space="preserve">
<polyline fill="none" points="0,36 0,0 36,0 36,36 "/>
<path fill="#009FDB" d="M7.5,11.4c-1.5,0.9-3.1,1.4-4.9,1.5c-0.2,0-0.4-0.1-0.4-0.4c0-0.2,0.1-0.4,0.4-0.4c1.6-0.1,3.1-0.5,4.5-1.4
	l0,0l0,0c2.5-1.4,4.2-3.9,4.9-6.7c0-0.2,0.2-0.3,0.4-0.3c0.2,0,0.3,0.2,0.3,0.4C12,7.2,10.1,9.8,7.5,11.4L7.5,11.4L7.5,11.4
	L7.5,11.4L7.5,11.4z M5.5,8.2L5.5,8.2c1.9-1.1,3.2-3,3.7-5.1c0-0.2-0.1-0.4-0.3-0.4c-0.2,0-0.4,0.1-0.4,0.3C8.1,4.9,6.9,6.5,5.2,7.5
	c-1,0.6-2,0.9-3.1,0.9c-0.2,0-0.4,0.2-0.4,0.4c0,0.2,0.2,0.4,0.4,0.4C3.3,9.1,4.5,8.8,5.5,8.2L5.5,8.2z M33.4,27
	c0,3.5-2.9,6.4-6.4,6.4c-2.7,0-5-1.7-6-4.1l0,0h-3h-5.8c-0.2,0-0.4-0.2-0.4-0.4s0.2-0.4,0.4-0.4h5.4v-2.3H5.5
	c-0.4,0-0.7-0.1-0.9-0.4c-0.2-0.2-0.4-0.6-0.4-0.9v-8.4c-0.4,0-0.7,0.1-1.1,0.1c-0.2,0-0.4-0.2-0.4-0.4c0-0.2,0.2-0.4,0.4-0.4
	c2.1-0.1,4.3-0.7,6.1-1.7c3.3-1.9,5.6-5.2,6.3-9l0,0c0-0.2,0.2-0.3,0.4-0.3c0.2,0,0.3,0.2,0.3,0.4c0,0.3-0.1,0.5-0.2,0.7h14.5
	c0.7,0,1.3,0.6,1.3,1.3v15.7C32.8,24,33.4,25.4,33.4,27z M15.4,8h13.6c0.5,0,0.9,0.4,0.9,0.9v12.4c0.5,0.2,0.9,0.5,1.3,0.9v-15
	c0-0.3-0.3-0.6-0.6-0.6H15.8C15.7,7.1,15.5,7.5,15.4,8z M7,23c0,0.1,0,0.1,0.1,0.1H22l0,0c1.2-1.5,3-2.4,5-2.4c0.7,0,1.4,0.1,2,0.3
	h0V8.8c0-0.1-0.1-0.1-0.1-0.1H15c-1.2,2.4-3.1,4.5-5.5,5.9l0,0l0,0c-0.8,0.5-1.7,0.9-2.6,1.2V23z M20.8,25.4
	c0.1-0.6,0.4-1.1,0.7-1.6H7.1c-0.5,0-0.9-0.4-0.9-0.9V16c-0.4,0.1-0.9,0.2-1.3,0.3v8.5c0,0.3,0.3,0.6,0.6,0.6H20.8z M20.8,28.5
	c-0.1-0.5-0.2-1-0.2-1.5c0-0.3,0-0.6,0.1-0.8l0,0h-2.3v2.3L20.8,28.5L20.8,28.5z M32.6,27c0-1.6-0.6-3-1.6-4c-1-1-2.4-1.6-4-1.6
	c-1.6,0-3,0.6-4,1.6c-1,1-1.6,2.4-1.6,4c0,1.6,0.6,3,1.6,4c1,1,2.4,1.6,4,1.6c1.6,0,3-0.6,4-1.6C32,30,32.6,28.6,32.6,27z M25.4,24
	L25.4,24L25.4,24L25.4,24z M26.9,27.1L26.9,27.1L26.9,27.1L26.9,27.1z M30.4,24.9c-0.1,0-0.3,0-0.3,0.1l-1.6,1.6
	c-0.2,0.2-0.4,0.2-0.6,0.2c-0.2,0-0.4-0.1-0.6-0.2l0,0c-0.2-0.2-0.2-0.4-0.2-0.6c0-0.2,0.1-0.4,0.2-0.6l1.6-1.6
	c0.1-0.1,0.1-0.2,0.1-0.3c0-0.1-0.1-0.2-0.2-0.3c-0.4-0.1-0.7-0.2-1.1-0.2c-0.8,0-1.7,0.3-2.3,0.9c-0.6,0.6-0.9,1.5-0.9,2.3
	c0,0.4,0.1,0.7,0.2,1.1l-1.5,1.5c-0.1,0.1-0.1,0.4,0,0.5c0.1,0.1,0.4,0.1,0.5,0l1.7-1.7c0.1-0.1,0.1-0.3,0.1-0.4
	c-0.1-0.3-0.2-0.7-0.2-1c0-0.6,0.2-1.3,0.7-1.8l0,0c0.5-0.5,1.1-0.7,1.8-0.7c0.1,0,0.2,0,0.2,0l-1.1,1.1l0,0
	c-0.3,0.3-0.5,0.7-0.5,1.1c0,0.4,0.2,0.8,0.5,1.1c0.3,0.3,0.7,0.5,1.1,0.5c0.4,0,0.8-0.2,1.1-0.5l0,0l1.1-1.1c0,0.1,0,0.2,0,0.2
	c0,0.6-0.2,1.3-0.7,1.8c-0.5,0.5-1.1,0.7-1.8,0.7c-0.3,0-0.7-0.1-1-0.2c-0.1-0.1-0.3,0-0.4,0.1l-1.7,1.7c-0.1,0.1-0.1,0.4,0,0.5
	c0.1,0.1,0.4,0.1,0.5,0l1.5-1.5c0.3,0.1,0.7,0.2,1.1,0.2c0.8,0,1.7-0.3,2.3-0.9l0,0c0.6-0.6,0.9-1.5,0.9-2.3c0-0.4-0.1-0.8-0.2-1.1
	C30.7,25.1,30.6,25,30.4,24.9z"/>
</svg>
