<svg xmlns="http://www.w3.org/2000/svg" viewBox="0 0 36 36">
  <path fill="#0568ae" d="M29.9 16.8H6.1c-1.2 0-2.2 1-2.2 2.2v3.3c0 1.2 1 2.2 2.2 2.2h2.3v5.1c0 .2.2.4.4.4s.4-.2.4-.4v-5.1h2.3v7.1c0 .2.2.4.4.4s.4-.2.4-.4v-7.1h2.3v5.1c0 .2.2.4.4.4s.4-.2.4-.4v-5.1h2.3v7.1c0 .2.2.4.4.4s.4-.2.4-.4v-7.1h2.3v5.1c0 .2.2.4.4.4s.4-.2.4-.4v-5.1h2.3v7.1c0 .2.2.4.4.4s.4-.2.4-.4v-7.1H27v5.1c0 .2.2.4.4.4s.4-.2.4-.4v-5.1h2.3c1.2 0 2.2-1 2.2-2.2V19c-.2-1.3-1.2-2.2-2.4-2.2m1.5 5.5c0 .8-.6 1.4-1.4 1.4H6.1c-.8 0-1.4-.6-1.4-1.4V19c0-.8.6-1.4 1.4-1.4H30c.8 0 1.4.6 1.4 1.4v3.3z"/>
  <path fill="#0568ae" d="M11.1 19H6.7c-.2 0-.4.2-.4.4s.2.4.4.4h4.4c.2 0 .4-.2.4-.4s-.2-.4-.4-.4m-2.3-4.3c.2 0 .4-.2.4-.4V6.5c0-.6.5-1 1.1-1h11.6c.1 0 .2 0 .3.1v4.3c0 .2.2.4.4.4h4.3c0 .1.1.2.1.3v3.7c0 .2.2.4.4.4s.4-.2.4-.4v-3.7c0-.5-.3-1.1-.6-1.5l-3.7-3.7c-.4-.4-1-.6-1.5-.6H10.2c-1 0-1.8.8-1.8 1.8v7.8c0 .2.1.3.4.3m17.5-5.1h-3.5V6.1l3.5 3.5z"/>
</svg>
