<svg xmlns="http://www.w3.org/2000/svg" viewBox="0 0 36 36">
  <path fill="#0568ae" d="M24.8 30.4c-.7 0-1.4-.2-2-.6l.3-.6c.5.3 1.1.5 1.6.5s.9-.1 1.2-.4c.3-.3.4-.6.4-1.1 0-.5-.2-.8-.5-1-.3-.2-.8-.4-1.4-.4h-1.3l.2-3.3h3.3v.7H24l-.1 2h.8c.8 0 1.3.2 1.7.5.4.3.6.8.6 1.5 0 .6-.2 1.1-.6 1.5-.3.5-.9.7-1.6.7zm.2-9.8h-.3l1.4-2.4c2.6-4.6 2.2-10.1-1-13.2-.4-.4-.5-.4-.5-.5-.4-.3-.8-.4-1.2-.3-.3.1-.5.2-.6.5l-3.5 6.1c-.2.3-.2.6-.1.9.1.3.3.6.6.7l.7.4c1.2.7 1.6 2.2.9 3.4l-3.5 6.1c-.3.6-.9 1-1.5 1.2-.6.2-1.3.1-1.9-.2l-.9-.3c-.6-.3-1.3-.2-1.7.4l-2.6 4.5c-.1.2 0 .4.1.5.1 0 .1.1.2.1s.3-.1.3-.2l2.6-4.5c.1-.2.4-.3.6-.1l.7.4c.8.4 1.6.5 2.5.3.8-.2 1.5-.8 2-1.5l3.5-6.1c.9-1.6.4-3.5-1.2-4.4l-.6-.5c-.1-.1-.2-.2-.2-.3v-.3l3.5-6.1s.1-.1.2-.1.4 0 .6.1l.4.4c3 2.8 3.3 8 .9 12.3l-1.7 2.9c-2.9.6-5.1 3.2-5.1 6.2 0 .4 0 .9.1 1.3-2.4 2.2-5.6 3.2-8.3 2.6-.2 0-.4.1-.4.3 0 .2.1.4.3.4.6.1 1.2.2 1.8.2 2.4 0 4.8-1 6.8-2.7.9 2.5 3.2 4.3 6 4.3 3.5 0 6.4-2.9 6.4-6.4s-2.8-6.4-6.3-6.4zm0 12c-3.1 0-5.6-2.5-5.6-5.6 0-3.1 2.5-5.6 5.6-5.6 3.1 0 5.6 2.5 5.6 5.6 0 3.1-2.5 5.6-5.6 5.6z"/>
</svg>
