<svg xmlns="http://www.w3.org/2000/svg" viewBox="0 0 36 36">
  <path fill="#0568ae" d="M27 21.1c-3.3 0-6 2.7-6 6s2.7 6 6 6 6-2.7 6-6-2.7-6-6-6zm1.9 8.4c-.2.3-.5.6-.8.7-.4.2-.8.3-1.2.3-.8 0-1.4-.2-2-.6l.3-.8c.5.3 1.1.5 1.7.5.4 0 .8-.1 1-.3.2-.2.4-.5.4-.9s-.1-.7-.4-.9c-.3-.2-.7-.3-1.2-.3h-1.4l.2-3.5H29v.9h-2.6l-.1 1.7h.7c.8 0 1.4.2 1.8.5.4.4.6.9.6 1.5-.2.5-.3.9-.5 1.2zm-9.4-2.4c0 .3 0 .6.1.9-2.9 3-6.9 4.2-10.2 2.9l-.4-.1c-.4-.2-.6-.6-.4-.9.2-.3.3-.5.3-.5l3-5.1s.2-.3.4-.7c.2-.4.7-.5 1.1-.3.4.2.7.4.7.4 1.4.8 3.1.3 3.9-1.1l3.5-6.1c.8-1.4.3-3.1-1.1-3.9 0 0-.3-.2-.7-.4-.4-.2-.6-.7-.3-1.1.2-.4.4-.7.4-.7l2.8-4.8s.2-.3.4-.7c.2-.4.8-.4 1.3-.1 0 0 .1 0 .5.4 3 2.9 3.5 8.3.9 12.8l-1.1 2c-3 1-5.1 3.8-5.1 7.1z"/>
</svg>
