<svg xmlns="http://www.w3.org/2000/svg" viewBox="0 0 36 36">
  <path fill="#0568ae" d="M22.455 12.608c.838 0 1.519.676 1.519 1.511v6.827c.116-.723.751-1.271 1.504-1.272h.006c.837 0 1.511.675 1.514 1.512l.003.329c.176-.636.759-1.102 1.452-1.105h.002c.841 0 1.516.677 1.52 1.514l.002.877c.235-.503.742-.853 1.335-.853h.004c.815 0 1.473.657 1.477 1.472v4.818c0 2.661-2.857 4.769-6.068 4.775h-.014c-2.106 0-3.965-.891-5.052-2.264-.349-.43-1.158-1.744-1.993-3.857-1.496-3.791-3.696-4.726-3.433-5.311.14-.309.842-.881 1.743-.881.789 0 1.73.439 2.578 1.876.134.229.25.436.385.633V14.12c-.001-.837.678-1.51 1.514-1.511h.002m-1.96 19.084c-.152-.187-.345-.469-.56-.821-.095.044-.2.07-.312.07h-2.396c-.414 0-.75-.336-.75-.75s.336-.75.75-.75h1.928c-.286-.58-.586-1.245-.884-2.002l-.03-.069H6.192c-.375 0-.68-.305-.68-.68V5.67c0-.375.305-.68.68-.68h18.651c.375 0 .68.305.68.68v12.505c.771.01 1.472.313 2 .8V4.79c0-.99-.81-1.8-1.8-1.8H5.3c-.99 0-1.8.81-1.8 1.8v26.422c0 .99.81 1.8 1.8 1.8h16.603c-.531-.38-1.011-.817-1.408-1.319z"/>
</svg>
