<svg xmlns="http://www.w3.org/2000/svg" viewBox="0 0 36 36">
  <path fill="#0568ae" d="M31.598 20.188c.005-.628-.341-1.192-.906-1.474l-.181-.065-.001-13.99c0-.921-.767-1.67-1.71-1.67H7.203c-.945 0-1.715.749-1.715 1.67l.003 26.68c0 .922.768 1.672 1.711 1.672h12.324c.207 0 .375-.168.375-.375s-.168-.375-.375-.375H7.203c-.53 0-.961-.414-.961-.922l-.004-26.68c0-.507.433-.92.965-.92H28.8c.53 0 .96.413.96.92l.001 13.9c-.154.014-.349.044-.546.12-.062-.559-.394-1.044-.902-1.295-.117-.058-.242-.099-.372-.129V6.833c0-.58-.482-1.051-1.073-1.051H9.13c-.591 0-1.072.472-1.072 1.051v12.784c0 .207.168.375.375.375s.375-.168.375-.375V6.833c0-.166.144-.301.322-.301h17.739c.178 0 .323.135.323.301v10.428c-.223.046-.439.12-.62.235-.156-.33-.421-.606-.766-.779-.225-.108-.465-.165-.711-.168-.276-.001-.592.068-.85.198V13.56c0-.892-.726-1.618-1.618-1.618-.892 0-1.618.726-1.618 1.618v8.255c-.726-1.023-1.968-2.238-3.56-1.736-.781.29-1.594.899-1.315 1.664l.098.147c.02.018 1.665 1.563 3.288 4.606H9.13c-.207 0-.375.168-.375.375s.168.375.375.375h10.775c.233.475.463.978.684 1.515.093.226.202.434.317.634H19.03c-.207 0-.375.168-.375.375s.168.375.375.375h2.392c1.13 1.387 2.626 1.933 2.706 1.961l.125.021c.155 0 .299-.096.354-.25.069-.195-.034-.41-.229-.478-.022-.008-2.221-.803-3.095-2.924-1.752-4.25-3.965-6.573-4.448-7.048.028-.206.508-.507.859-.639 1.906-.593 3.336 2.53 3.35 2.562.072.161.248.249.421.213.173-.037.296-.19.296-.367V13.56c0-.479.389-.868.868-.868s.868.389.868.868v6.816c0 .207.168.375.375.375s.375-.168.375-.375v-2.564c.001-.083.042-.165.122-.244.165-.164.445-.266.718-.269.137.002.27.033.39.091.315.158.509.476.506.833v2.752c0 .207.168.375.375.375s.375-.168.375-.375v-2.487c.002-.097.042-.184.123-.265.159-.159.45-.264.718-.264h.009c.145.005.278.038.398.097.31.153.499.469.495.827v2.69c0 .207.168.375.375.375s.375-.168.375-.375v-1.946l.061-.129c.126-.124.417-.203.694-.202.134.003.266.036.379.091.304.152.491.456.488.799 0 0 .009 6.577.009 9.197 0 .207.168.375.375.375s.375-.168.375-.375c0-2.619-.009-9.191-.009-9.195z"/>
</svg>
