<svg xmlns="http://www.w3.org/2000/svg" viewBox="0 0 36 36">
  <path fill="#0568ae" d="M23.1 21.1c0 .5.3.6.6.3l.9-.8 3.8-3.3c.3-.2.3-.6 0-.8l-.2-.1-1.7-1.5-1.9-1.6-.9-.8c-.4-.3-.6-.2-.6.3V15h-7.8v-4.5c0-2.6-2.6-4.7-5.7-4.7-.8-.1-1.6.1-2.3.3V3.7c0-.6-.5-1.1-1.1-1.1-.6 0-1.1.5-1.1 1.1v3.8c-.8.8-1.3 1.8-1.3 2.9v16.8c.1 2.6 2.6 4.6 5.7 4.6s5.7-2.1 5.7-4.6v-8.5H23v2.4zm-15.5 6c0 .2-.2.4-.4.4h-.6c-.2 0-.4-.2-.4-.4v-.6c0-.2.2-.4.4-.4h.6c.2 0 .4.2.4.4v.6zm-1.4-5.4v-.6c0-.2.2-.4.4-.4h.6c.2 0 .4.2.4.4v.6c0 .2-.2.4-.4.4h-.6c-.3 0-.4-.2-.4-.4zm1.4 2.7c0 .2-.2.4-.4.4h-.6c-.2 0-.4-.2-.4-.4v-.6c0-.2.2-.4.4-.4h.6c.2 0 .4.2.4.4v.6zm2.7 2.7c0 .2-.2.4-.4.4h-.6c-.2 0-.4-.2-.4-.4v-.6c0-.2.2-.4.4-.4h.6c.2 0 .4.2.4.4v.6zm-1.5-5.4v-.6c0-.2.2-.4.4-.4h.6c.2 0 .4.2.4.4v.6c0 .2-.2.4-.4.4h-.6c-.2 0-.4-.2-.4-.4zm1.5 2.7c0 .2-.2.4-.4.4h-.6c-.2 0-.4-.2-.4-.4v-.6c0-.2.2-.4.4-.4h.6c.2 0 .4.2.4.4v.6zm2.7 2.7c0 .2-.2.4-.4.4H12c-.2 0-.4-.2-.4-.4v-.6c0-.2.2-.4.4-.4h.6c.2 0 .4.2.4.4v.6zm-1.5-5.4v-.6c0-.2.2-.4.4-.4h.6c.2 0 .4.2.4.4v.6c0 .2-.2.4-.4.4h-.6c-.2 0-.4-.2-.4-.4zm1.5 2.7c0 .2-.2.4-.4.4H12c-.2 0-.4-.2-.4-.4v-.6c0-.2.2-.4.4-.4h.6c.2 0 .4.2.4.4v.6zm0-6.7c0 .3-.3.6-.6.6H6.7c-.3 0-.6-.3-.6-.6v-7c0-.3.3-.6.6-.6h5.7c.3 0 .6.3.6.6v7zM29.7 6.8c-1.5-.1-3.5-.2-4.1-.2h-.2c-.6 0-2 0-3.5.2-1.7.2-2.5.6-2.5 2.2v4.6h1.8v-2.8c0-.4.3-.6.6-.6h8c.4 0 .6.3.6.6V23c0 .4-.3.6-.6.6h-8c-.4 0-.6-.3-.6-.6v-2.6h-1.8v4.8c0 1.6.9 2.5 2.5 2.7 1.5.1 2.9.1 3.5.1h.2c.6 0 2.6 0 4.1-.1 1.7-.2 2.5-1.1 2.5-2.7V9.4c.1-1.6-.8-2.5-2.5-2.6zm-3.1 19.6h-2.1c-.4 0-.8-.3-.8-.8 0-.4.3-.8.8-.8h2.1c.4 0 .8.3.8.8s-.3.8-.8.8z"/>
</svg>
