<svg xmlns="http://www.w3.org/2000/svg" viewBox="0 0 36 36">
  <path fill="#0568ae" d="M32.5 8.7V25c0 1.3-.7 2.1-2.1 2.2-1.2.1-3.9.1-4 .1h-.1c-.5 0-2.8 0-3.9-.1-1.4-.2-2.1-.9-2.1-2.2v-6.6c0-.2.2-.4.4-.4s.4.2.4.4V25c0 .9.4 1.3 1.4 1.4 1.2.1 3.9.1 4 .1 0 0 2.7 0 3.9-.1 1-.1 1.4-.5 1.4-1.4V8.7c0-.9-.4-1.3-1.4-1.4-1.2-.1-3.9-.1-4-.1 0 0-2.7 0-4 .1-1 .1-1.4.5-1.4 1.4v5c0 .2-.2.4-.4.4s-.4-.2-.4-.4v-5c0-1.3.7-2.1 2.1-2.2 1.2-.1 3.9-.1 4-.1.1 0 2.8 0 4 .1 1.5.2 2.2 1 2.2 2.2zm-1.7 13.8V9.8c0-.5-.4-.9-.8-.9h-7c-.5 0-.8.4-.8.9v3.9c0 .2.2.4.4.4s.4-.2.4-.4V9.8c0-.1 0-.1.1-.1h7l.1.1v12.7c0 .1 0 .1-.1.1h-7c-.2 0-.4.2-.4.4s.2.4.4.4h7c.3 0 .7-.4.7-.9zm-5.9 2c-.2 0-.4.2-.4.4s.2.4.4.4h3c.2 0 .4-.2.4-.4s-.2-.4-.4-.4h-3zm-9.3-8.1v11.1c-.1 2.8-2.7 5-6.1 5-3.3 0-6-2.2-6.1-5V10.9c0-1.3.6-2.5 1.6-3.4V3.6c0-.2.2-.4.4-.4s.4.2.4.4v3.3c1-.7 2.3-1.1 3.7-1.1 3.3 0 6.1 2.3 6.1 5.1v4.8H28c0-.1-.1-.1-.2-.2l-3.6-2.7c-.2-.1-.2-.4-.1-.5.1-.2.4-.2.5-.1l3.6 2.7c.4.3.6.7.6 1.1 0 .4-.2.9-.6 1.2L24.8 20h-.2c-.1 0-.2-.1-.3-.1-.1-.2-.1-.4.1-.5l3.5-2.7.2-.2H15.6zm-.8-5.5c0-2.4-2.4-4.3-5.3-4.3s-5.3 1.9-5.3 4.3v16.7c.1 2.3 2.4 4.2 5.3 4.2s5.3-1.9 5.3-4.2V10.9zm-2.4-.8H6.6c-.5 0-.9.4-.9.9v5.2c0 .2.2.4.4.4s.4-.2.4-.4V11c0-.1.1-.2.2-.2h5.8c.1 0 .2.1.2.2v7.1c0 .1-.1.2-.2.2H6.6c-.2 0-.4.2-.4.4s.2.4.4.4h5.8c.5 0 .9-.4.9-.9V11c0-.5-.4-.9-.9-.9zM6.6 21.8h.6c.2 0 .4-.2.4-.4v-.6c0-.2-.2-.4-.4-.4h-.6c-.2 0-.4.2-.4.4v.6c0 .3.1.4.4.4zm2.6 0h.6c.2 0 .4-.2.4-.4v-.6c0-.2-.2-.4-.4-.4h-.6c-.2 0-.4.2-.4.4v.6c0 .3.2.4.4.4zm2.7 0h.6c.2 0 .4-.2.4-.4v-.6c0-.2-.2-.4-.4-.4h-.6c-.2 0-.4.2-.4.4v.6c-.1.3.1.4.4.4zm-4.7 1.3h-.6c-.2 0-.4.2-.4.4v.6c0 .2.2.4.4.4h.6c.2 0 .4-.2.4-.4v-.6c0-.2-.2-.4-.4-.4zm2.7 0h-.7c-.2 0-.4.2-.4.4v.6c0 .2.2.4.4.4h.6c.2 0 .4-.2.4-.4v-.6c.1-.2-.1-.4-.3-.4zm2.6 0h-.6c-.2 0-.4.2-.4.4v.6c0 .2.2.4.4.4h.6c.2 0 .4-.2.4-.4v-.6c0-.2-.2-.4-.4-.4zm0 2.7h-.6c-.2 0-.4.2-.4.4v.6c0 .2.2.4.4.4h.6c.2 0 .4-.2.4-.4v-.6c0-.2-.2-.4-.4-.4zm-2.6 0h-.7c-.2 0-.4.2-.4.4v.6c0 .2.2.4.4.4h.6c.2 0 .4-.2.4-.4v-.6c.1-.2-.1-.4-.3-.4zm-2.7 0h-.6c-.2 0-.4.2-.4.4v.6c0 .2.2.4.4.4h.6c.2 0 .4-.2.4-.4v-.6c0-.2-.2-.4-.4-.4z"/>
</svg>
