<svg xmlns="http://www.w3.org/2000/svg" viewBox="0 0 36 36">
  <path d="M31.638 13.907H4.362c-.604 0-1.095.491-1.095 1.095V21c0 .604.491 1.095 1.095 1.095h27.276c.604 0 1.095-.491 1.095-1.095v-5.998c0-.604-.491-1.095-1.095-1.095zM10.11 18.75H6.395c-.414 0-.75-.336-.75-.75s.336-.75.75-.75h3.715c.414 0 .75.336.75.75 0 .415-.336.75-.75.75zm15.128.22c.107.224.013.493-.212.6l-.194.044c-.168 0-.329-.094-.406-.256-.206-.429-.31-.886-.31-1.358 0-.471.104-.928.31-1.358.107-.224.375-.32.6-.212.224.107.319.376.212.6-.147.308-.221.634-.221.97 0 .337.074.663.221.97zm3.394 1.881c-.43.205-.886.309-1.356.309-.469 0-.926-.104-1.356-.309-.225-.106-.32-.375-.213-.6.106-.225.374-.32.6-.213.619.294 1.323.294 1.939 0 .226-.107.493-.011.6.213.106.225.011.494-.214.6zm-2.238-2.839c-.007-.488.383-.889.872-.895.488-.006.887.384.893.872.008.49-.382.888-.871.895-.487.006-.888-.382-.894-.872zm2.451-2.262c-.077.161-.238.256-.406.256l-.194-.044c-.613-.294-1.323-.294-1.939 0-.225.108-.493.012-.6-.212-.107-.224-.012-.493.212-.6.859-.411 1.857-.41 2.715 0 .225.107.32.376.212.6zm1.282 3.608c-.077.162-.238.257-.407.257l-.193-.044c-.225-.107-.32-.375-.213-.6.147-.31.222-.636.222-.971 0-.335-.075-.661-.222-.97-.107-.224-.012-.493.212-.6.224-.107.493-.012.6.212.206.431.31.888.31 1.358.001.47-.104.927-.309 1.358z" fill="#0568ae"/>
</svg>
