<svg xmlns="http://www.w3.org/2000/svg" viewBox="0 0 36 36">
  <path fill="#0568ae" d="M28.882 21c3.314 0 6 2.686 6 6 0 3.313-2.686 6-6 6-1.198 0-2.311-.355-3.247-.96l-.131-.094 2.092-2.093c.403.181.837.272 1.271.272.796 0 1.593-.304 2.201-.913.798-.799 1.066-1.919.826-2.938-.021-.087-.093-.16-.189-.16-.061 0-.131.029-.203.101l-1.715 1.714c-.253.253-.583.379-.913.379-.328 0-.655-.125-.904-.374-.501-.5-.499-1.314.004-1.818l1.75-1.75c.179-.179.027-.327-.088-.355-.243-.06-.492-.09-.741-.09-.796 0-1.594.305-2.204.914-.94.939-1.155 2.33-.642 3.471l-2.097 2.098-.096-.131c-.614-.942-.975-2.064-.975-3.272.001-3.315 2.688-6.001 6.001-6.001m-7.5 6c0-.223.014-.442.034-.66h-1.42v-2.089h1.915c.288-.728.682-1.404 1.172-2h-13.01c-.187-.945-.517-2.219-.505-3.082.033-2.146 1.026-3.907 1.048-5.171.011-.697-1.323-1.657-3.126-1.949V8.39c0-.396.324-.72.72-.72h21.572c.396 0 .72.324.72.72v11.291c.709.157 1.381.412 2 .755V7.47c0-.99-.81-1.8-1.8-1.8H7.291c-.99 0-1.8.81-1.8 1.8v4.582c-1.794.295-3.121 1.252-3.11 1.947.021 1.264 1.015 3.025 1.048 5.171.016 1.1-.528 2.874-.618 3.773-.189 1.923.059 4.234.642 5.19 1.135 1.858 2.475 2.125 3.046 2.127.571-.002 1.911-.269 3.045-2.127.455-.745.704-2.314.703-3.881h7.748v2.089h-4.261c-.552 0-1 .448-1 1s.448 1 1 1h7.773c-.079-.441-.125-.889-.125-1.341zM6.487 13.275c.415-.005.755.327.761.741.006.415-.327.755-.743.761-.414.005-.753-.326-.758-.74-.005-.416.326-.757.74-.762zm-2.18 5.968c0-.338.078-.657.215-.942.074-.156.261-.221.416-.147.156.074.221.261.147.416-.098.206-.153.431-.153.673 0 .241.055.468.153.672.075.155.009.342-.147.416-.155.075-.342.009-.416-.146-.137-.284-.216-.604-.215-.942zm1.037 7.749c0 .136-.111.247-.247.247h-.362c-.136 0-.247-.111-.247-.247v-.362c0-.136.111-.247.247-.247h.362c.136 0 .247.111.247.247v.362zm0-1.638c0 .136-.111.247-.247.247h-.362c-.136 0-.247-.111-.247-.247v-.362c0-.136.111-.247.247-.247h.362c.136 0 .247.111.247.247v.362zm0-1.638c0 .136-.111.247-.247.247h-.362c-.136 0-.247-.111-.247-.247v-.362c0-.136.111-.247.247-.247h.362c.136 0 .247.111.247.247v.362zm1.582 3.276c0 .136-.111.247-.247.247h-.362c-.136 0-.247-.111-.247-.247v-.362c0-.136.111-.247.247-.247h.362c.136 0 .247.111.247.247v.362zm0-1.638c0 .136-.111.247-.247.247h-.362c-.136 0-.247-.111-.247-.247v-.362c0-.136.111-.247.247-.247h.362c.136 0 .247.111.247.247v.362zm0-1.638c0 .136-.111.247-.247.247h-.362c-.136 0-.247-.111-.247-.247v-.362c0-.136.111-.247.247-.247h.362c.136 0 .247.111.247.247v.362zm.513-2.495c-.284.135-.603.214-.941.214-.338 0-.657-.079-.941-.214-.156-.074-.222-.26-.148-.416.074-.156.26-.222.416-.148.206.098.433.153.673.153.241 0 .467-.056.673-.153.156-.074.342-.008.416.148.074.156.008.342-.148.416zm-1.553-1.97c-.005-.338.266-.616.605-.621.339-.004.615.267.62.605.005.34-.265.616-.604.621-.339.004-.616-.265-.621-.605zm1.701-1.569c-.074.156-.261.221-.416.147-.205-.098-.431-.153-.672-.154-.241 0-.467.056-.673.154-.155.074-.342.009-.416-.147-.074-.155-.009-.342.147-.416.284-.136.604-.215.942-.215.338 0 .658.079.942.215.155.074.22.26.146.416zm.922 9.31c0 .136-.111.247-.247.247H7.9c-.136 0-.248-.111-.248-.247v-.362c0-.136.112-.247.248-.247h.362c.136 0 .247.111.247.247v.362zm0-1.638c0 .136-.111.247-.247.247H7.9c-.136 0-.248-.111-.248-.247v-.362c0-.136.112-.247.248-.247h.362c.136 0 .247.111.247.247v.362zm0-1.638c0 .136-.111.247-.247.247H7.9c-.136 0-.248-.111-.248-.247v-.362c0-.136.112-.247.248-.247h.362c.136 0 .247.111.247.247v.362zm-.033-3.531c-.074.156-.26.222-.416.148-.156-.074-.222-.26-.148-.416.098-.206.154-.433.154-.674 0-.24-.056-.467-.154-.673-.074-.156-.008-.342.147-.416.156-.074.342-.008.416.147.135.284.215.604.215.942.001.338-.079.658-.214.942z"/>
</svg>
