<svg xmlns="http://www.w3.org/2000/svg" viewBox="0 0 36 36">
  <g fill="#0568ae">
    <path d="M8.335 24.753h.08c.199 0 .361-.162.361-.36v-.081c0-.198-.162-.36-.361-.36h-.08c-.199 0-.36.162-.36.36v.081c0 .198.161.36.36.36zm.454-1.78c0-.198-.161-.36-.361-.36h-.08c-.199 0-.361.162-.361.36v.082c0 .198.162.36.361.36h.08c.199 0 .361-.162.361-.36v-.082zm-.74-4.736c-.187.219.149.273.156.79.004.617-.334.622-.101.872.245.259.672-.229.663-.86-.007-.608-.43-1.139-.718-.802zm-1.185 6.516h.083c.198 0 .36-.162.36-.36v-.081c0-.198-.162-.36-.36-.36h-.083c-.197 0-.359.162-.359.36v.081c0 .198.162.36.359.36zm.014 1.337h.081c.199 0 .361-.162.361-.36v-.081c0-.198-.162-.36-.361-.36h-.081c-.197 0-.359.162-.359.36v.081c0 .198.162.36.359.36zm1.47 0h.08c.199 0 .361-.162.361-.36v-.081c0-.198-.161-.36-.361-.36h-.08c-.199 0-.361.162-.361.36v.081c.001.198.162.36.361.36zM7.32 22.973c0-.198-.162-.36-.361-.36h-.081c-.197 0-.359.162-.359.36v.082c0 .198.162.36.359.36h.081c.199 0 .361-.162.361-.36v-.082zm-1.619-8.421v-.002zm0-.02v.018c.006.687.565 1.238 1.25 1.238h.016c.685-.01 1.237-.565 1.238-1.251v-.019c-.01-.686-.568-1.236-1.253-1.237h-.017c-.685.009-1.234.567-1.234 1.251zm1.244-.501h.007c.274 0 .5.222.503.498v.008c.001.272-.221.497-.499.501h-.005c-.276-.001-.497-.219-.5-.495v-.011c0-.274.221-.498.494-.501zm19.944 13.112h.001zm3.585-2.208c-.125-.027-.255.011-.345.101l-1.572 1.572c-.16.159-.365.237-.572.238-.206-.001-.408-.077-.564-.234-.156-.156-.233-.357-.233-.563 0-.207.078-.413.238-.573l1.573-1.573c.09-.09.128-.22.101-.345-.027-.125-.116-.227-.236-.272-.361-.134-.741-.201-1.121-.201-.826 0-1.656.317-2.287.948-.63.629-.948 1.458-.947 2.282 0 .364.064.726.187 1.073l-1.53 1.531c-.146.146-.146.384 0 .53.146.146.384.146.53 0l1.702-1.703c.11-.111.141-.277.076-.419-.145-.32-.217-.665-.217-1.011 0-.634.242-1.266.727-1.752.487-.486 1.121-.728 1.757-.729l.241.021-1.089 1.089c-.303.304-.457.705-.457 1.102 0 .395.151.793.453 1.094.301.302.7.454 1.095.453.397 0 .798-.153 1.102-.456l1.089-1.089.021.242c0 .635-.242 1.268-.728 1.755-.486.485-1.119.727-1.753.727-.346 0-.691-.072-1.012-.216-.142-.064-.309-.034-.419.077l-1.701 1.703c-.146.147-.146.384 0 .53.147.146.384.146.53 0l1.529-1.531c.347.122.709.187 1.072.187.825 0 1.653-.317 2.284-.947.631-.631.948-1.461.947-2.285 0-.38-.067-.761-.201-1.122-.043-.118-.145-.206-.27-.234zm-25.356-.543c0 .198.161.36.359.36h.082c.199 0 .36-.162.36-.36v-.081c0-.198-.162-.36-.36-.36h-.082c-.198 0-.359.162-.359.36v.081zm.454 1.698c.199 0 .361-.162.361-.36v-.081c0-.198-.162-.36-.361-.36H5.49c-.197 0-.359.162-.359.36v.081c0 .198.162.36.359.36h.082zm26.753-2.646V6.496c0-.715-.58-1.291-1.295-1.292H6.932c-.715.002-1.296.577-1.296 1.292v5.506l.01.051c-.651.133-1.243.339-1.724.597-.394.212-.72.453-.962.715-.238.262-.411.554-.416.899v.015c.016.713.278 1.466.524 2.309.248.841.487 1.762.503 2.757v.042c.001.483-.122 1.166-.263 1.827-.139.666-.293 1.306-.341 1.785-.043.433-.063.882-.063 1.332 0 .455.021.91.062 1.347.055.581.145 1.128.272 1.603.053.2.259.319.459.266.2-.053.319-.259.266-.459-.113-.423-.198-.934-.25-1.481-.039-.412-.059-.844-.059-1.276 0-.427.02-.853.06-1.258.036-.387.186-1.031.328-1.703.141-.676.277-1.383.279-1.981v-.053c-.018-1.108-.281-2.101-.533-2.958-.254-.855-.489-1.584-.493-2.109v-.003c-.005-.056.048-.21.218-.391.249-.273.719-.585 1.321-.817.601-.233 1.334-.394 2.12-.405 1.049.014 2.005.296 2.677.659.336.181.6.382.766.563.17.181.222.335.218.392v.002c-.005.525-.239 1.255-.494 2.109-.252.857-.516 1.85-.533 2.958v.053c.001.598.137 1.305.279 1.981.142.672.291 1.316.329 1.705.04.405.059.83.059 1.256 0 .746-.06 1.493-.173 2.132-.111.638-.282 1.173-.463 1.465-.527.861-1.082 1.329-1.559 1.59-.476.26-.882.313-1.105.314-.225-.001-.635-.054-1.114-.318-.181-.1-.41-.034-.509.148-.1.181-.034.409.148.509.602.331 1.137.411 1.475.411h.002c.336-.001.866-.079 1.464-.405.598-.325 1.255-.898 1.84-1.858.264-.437.437-1.033.561-1.725.099-.566.157-1.195.176-1.836h7.612v2.172h-5.388c-.207 0-.375.168-.375.375s.168.375.375.375h7.477c.34 3.201 3.048 5.695 6.338 5.695 3.521 0 6.375-2.854 6.375-6.375-.003-1.317-.403-2.54-1.087-3.556zM7.642 8.113v3.834c-.223-.025-.451-.041-.684-.044v.002l-.01-.002c-.193.003-.376.025-.562.042V6.496c0-.299.243-.542.546-.542H31.03c.303 0 .545.243.545.542v16.033c-.374-.38-.797-.708-1.256-.985V8.113c-.001-.458-.369-.837-.834-.838H8.478c-.465.001-.835.376-.836.838zm13.02 18.813v.003h-1.306v-2.172h1.716c-.263.699-.41 1.378-.41 2.169zm-9.667-2.919c-.007-.34-.023-.678-.056-1.006-.049-.479-.202-1.12-.342-1.785-.14-.661-.264-1.344-.262-1.827v-.042c.015-.995.254-1.916.502-2.757.245-.843.508-1.596.524-2.309v-.014c-.004-.345-.178-.637-.416-.899-.363-.392-.916-.741-1.602-1.009-.298-.116-.625-.21-.968-.286l.014-.069v-3.89c0-.048.041-.088.086-.088h21.007c.045 0 .084.037.084.088v13.039c-.778-.337-1.634-.527-2.536-.527-1.342 0-2.585.417-3.612 1.125h-7.477c-.207 0-.375.168-.375.375s.168.375.375.375h6.575c-.442.443-.817.951-1.113 1.508H10.995zm20.016 6.97c-1.019 1.019-2.423 1.647-3.978 1.648-1.554 0-2.958-.629-3.977-1.648-1.019-1.019-1.648-2.423-1.648-3.978 0-1.554.629-2.958 1.648-3.978 1.019-1.018 2.423-1.647 3.977-1.647 1.555 0 2.958.629 3.978 1.647 1.019 1.019 1.647 2.423 1.648 3.978-.001 1.555-.629 2.959-1.648 3.978zM5.572 22.613H5.49c-.197 0-.359.162-.359.36v.082c0 .198.162.36.359.36h.082c.199 0 .361-.162.361-.36v-.082c0-.198-.162-.36-.361-.36zm2.209-2.445c-.22-.187-.276.149-.791.156-.617.004-.622-.333-.872-.1-.26.243.23.673.858.664.61-.009 1.142-.432.805-.72zm0-2.255c.257-.242-.231-.672-.862-.665-.608.008-1.139.431-.801.719.218.188.273-.148.79-.155.617-.003.621.335.873.101z"/>
    <circle cx="6.948" cy="19.068" r=".631"/>
    <path d="M5.13 19.098c.008.608.431 1.139.72.802.186-.219-.148-.273-.156-.79-.004-.617.334-.621.099-.873-.242-.26-.671.23-.663.861z"/>
  </g>
</svg>
