<svg xmlns="http://www.w3.org/2000/svg" viewBox="0 0 36 36">
  <path fill-rule="evenodd" clip-rule="evenodd" fill="#0568ae" d="M31.292 5.706H7.88c-.99 0-1.8.81-1.8 1.8v4.582c-1.794.295-3.121 1.252-3.11 1.946.021 1.264 1.015 3.025 1.048 5.171.016 1.1-.528 2.873-.618 3.773-.189 1.923.059 4.234.642 5.19 1.135 1.858 2.475 2.125 3.045 2.127.571-.001 1.911-.269 3.045-2.127.455-.746.705-2.314.703-3.881h7.748v2.089h-4.261c-.552 0-1 .448-1 1s.448 1 1 1h10.522c.552 0 1-.448 1-1s-.448-1-1-1h-4.261v-2.089h10.706c.99 0 1.8-.81 1.8-1.8V7.506c.003-.99-.807-1.8-1.797-1.8zM7.077 13.311c.415-.005.755.327.761.741.006.415-.327.755-.743.76-.414.005-.753-.326-.758-.74-.005-.415.326-.756.74-.761zm-2.181 5.968c0-.328.072-.645.215-.942.074-.155.261-.222.416-.147.156.074.221.261.147.416-.102.213-.153.44-.153.673 0 .233.052.459.153.672.074.155.009.342-.147.417l-.135.03c-.116 0-.228-.065-.282-.177-.142-.298-.214-.615-.214-.942zm1.038 7.749c0 .136-.111.247-.247.247h-.362c-.136 0-.247-.111-.247-.247v-.362c0-.136.111-.247.247-.247h.362c.136 0 .247.111.247.247v.362zm0-1.638c0 .136-.111.247-.247.247h-.362c-.136 0-.247-.111-.247-.247v-.362c0-.136.111-.247.247-.247h.362c.136 0 .247.111.247.247v.362zm0-1.638c0 .136-.111.247-.247.247h-.362c-.136 0-.247-.111-.247-.247v-.362c0-.136.111-.247.247-.247h.362c.136 0 .247.111.247.247v.362zm1.582 3.276c0 .136-.111.247-.247.247h-.362c-.136 0-.247-.111-.247-.247v-.362c0-.136.111-.247.247-.247h.362c.136 0 .247.111.247.247v.362zm0-1.638c0 .136-.111.247-.247.247h-.362c-.136 0-.247-.111-.247-.247v-.362c0-.136.111-.247.247-.247h.362c.136 0 .247.111.247.247v.362zm0-1.638c0 .136-.111.247-.247.247h-.362c-.136 0-.247-.111-.247-.247v-.362c0-.136.111-.247.247-.247h.362c.136 0 .247.111.247.247v.362zm.513-2.496c-.298.143-.615.214-.941.214-.326 0-.642-.072-.941-.214-.155-.074-.222-.26-.147-.416.074-.156.26-.221.416-.147.428.205.918.204 1.345 0 .157-.073.343-.008.416.147.074.155.008.342-.148.416zm-1.553-1.97c-.005-.338.266-.616.605-.621.339-.004.615.266.62.605.005.34-.265.616-.604.621-.339.004-.617-.264-.621-.605zm1.701-1.569c-.054.112-.165.178-.282.178l-.134-.031c-.427-.204-.919-.204-1.345 0-.155.074-.342.009-.416-.147-.074-.156-.009-.342.147-.416.596-.284 1.287-.285 1.883 0 .155.074.221.261.147.416zm.922 9.311c0 .136-.111.247-.247.247H8.49c-.136 0-.248-.111-.248-.247v-.362c0-.136.112-.247.248-.247h.362c.136 0 .247.111.247.247v.362zm0-1.638c0 .136-.111.247-.247.247H8.49c-.136 0-.248-.111-.248-.247v-.362c0-.136.112-.247.248-.247h.362c.136 0 .247.111.247.247v.362zm0-1.638c0 .136-.111.247-.247.247H8.49c-.136 0-.248-.111-.248-.247v-.362c0-.136.112-.247.248-.247h.362c.136 0 .247.111.247.247v.362zm-.034-3.531c-.053.112-.165.178-.282.178l-.134-.03c-.156-.074-.222-.26-.147-.416.102-.214.154-.441.154-.673 0-.232-.052-.459-.154-.673-.074-.156-.008-.342.147-.416.157-.074.342-.008.416.147.143.299.215.616.215.942 0 .324-.072.641-.215.941zm22.027 1.346c0 .396-.324.72-.72.72H10.663c-.187-.945-.517-2.219-.505-3.082.033-2.146 1.026-3.907 1.048-5.171.011-.697-1.323-1.657-3.126-1.949v-3.66c0-.396.324-.72.72-.72h21.572c.396 0 .72.324.72.72v13.142z"/>
</svg>
