<svg xmlns="http://www.w3.org/2000/svg" viewBox="0 0 36 36">
  <path fill="#0568ae" d="M6.922 15.788c-.33 0-.64-.126-.875-.356-.239-.234-.372-.547-.375-.881-.005-.333.121-.65.355-.89.233-.24.546-.374.88-.378.705-.017 1.26.546 1.27 1.237.005.333-.12.649-.353.888-.234.241-.548.376-.885.381h-.001l-.016-.001zm.001-1.756h-.007c-.134.002-.259.055-.352.151-.094.096-.144.224-.142.358.001.136.054.261.149.355.095.093.224.134.357.142.136-.002.263-.057.357-.154.093-.096.143-.222.141-.355-.004-.275-.229-.497-.503-.497zm1.476 9.134c.061 0 .111-.049.111-.11v-.082c0-.061-.049-.11-.111-.11h-.08c-.062 0-.111.049-.111.11v.082c0 .061.049.11.111.11h.08zm0-.552h-.08c-.199 0-.361.162-.361.36v.082c0 .198.162.36.361.36h.08c.199 0 .361-.162.361-.36v-.082c0-.198-.162-.36-.361-.36zm-.013 1.889c.062 0 .111-.049.111-.11v-.081c0-.061-.049-.11-.111-.11h-.08c-.061 0-.11.049-.11.11v.081c0 .061.049.11.11.11h.08zm0-.551h-.08c-.199 0-.36.162-.36.36v.081c0 .198.161.36.36.36h.08c.199 0 .361-.162.361-.36v-.081c0-.198-.162-.36-.361-.36zm.013 1.888c.061 0 .111-.049.111-.11v-.082c0-.061-.049-.11-.111-.11h-.08c-.062 0-.111.049-.111.11v.082c0 .061.049.11.111.11h.08zm0-.552h-.08c-.199 0-.361.162-.361.36v.082c0 .198.162.36.361.36h.08c.199 0 .361-.162.361-.36v-.082c0-.198-.162-.36-.361-.36zm-2.856-2.122c.062 0 .111-.049.111-.11v-.082c0-.061-.049-.11-.111-.11h-.082c-.059 0-.109.049-.109.11v.082c0 .061.05.11.109.11h.082zm0-.552h-.082c-.197 0-.359.162-.359.36v.082c0 .198.162.36.359.36h.082c.2 0 .361-.162.361-.36v-.082c0-.198-.162-.36-.361-.36zm-.013 1.889c.06 0 .11-.049.11-.11v-.081c0-.061-.05-.11-.11-.11h-.082c-.06 0-.109.049-.109.11v.081c0 .061.049.11.109.11h.082zm0-.551h-.082c-.198 0-.359.162-.359.36v.081c0 .198.161.36.359.36h.082c.199 0 .36-.162.36-.36v-.081c0-.198-.161-.36-.36-.36zm.013 1.888c.062 0 .111-.049.111-.11v-.082c0-.061-.049-.11-.111-.11h-.082c-.059 0-.109.049-.109.11v.082c0 .061.05.11.109.11h.082zm0-.552h-.082c-.197 0-.359.162-.359.36v.082c0 .198.162.36.359.36h.082c.2 0 .361-.162.361-.36v-.082c0-.198-.162-.36-.361-.36zm1.387-2.122c.061 0 .111-.049.111-.11v-.082c0-.061-.05-.11-.111-.11h-.081c-.061 0-.109.049-.109.11v.082c0 .061.049.11.109.11h.081zm0-.552h-.081c-.197 0-.359.162-.359.36v.082c0 .198.162.36.359.36h.081c.199 0 .361-.162.361-.36v-.082c0-.198-.162-.36-.361-.36zm-.012 1.889c.061 0 .11-.049.11-.11v-.081c0-.061-.049-.11-.11-.11h-.083c-.059 0-.109.049-.109.11v.081c0 .061.049.11.109.11h.083zm0-.551h-.083c-.197 0-.359.162-.359.36v.081c0 .198.162.36.359.36h.083c.198 0 .36-.162.36-.36v-.081c-.001-.198-.162-.36-.36-.36zm.012 1.888c.061 0 .111-.049.111-.11v-.082c0-.061-.05-.11-.111-.11h-.081c-.061 0-.109.049-.109.11v.082c0 .061.049.11.109.11h.081zm0-.552h-.081c-.197 0-.359.162-.359.36v.082c0 .198.162.36.359.36h.081c.199 0 .361-.162.361-.36v-.082c0-.198-.162-.36-.361-.36zm-.04-8.039c.631-.008 1.119.422.862.664-.253.234-.256-.104-.873-.101-.517.007-.572.343-.79.155-.338-.287.193-.71.801-.718zm.659 1.811c.005.349-.272.634-.622.639-.348.004-.635-.273-.639-.623-.004-.348.275-.634.623-.639.349-.004.636.275.638.623zm-1.785-.822c.235.251-.103.255-.099.873.008.517.342.571.156.79-.289.337-.712-.194-.72-.802-.008-.632.422-1.121.663-.861zm1.184 2.649c-.628.009-1.119-.421-.858-.664.25-.233.255.104.872.1.515-.007.571-.343.791-.156.336.29-.196.712-.805.72zm1.127-.987c-.233-.25.105-.255.101-.872-.007-.517-.343-.571-.156-.79.289-.337.711.194.718.802.009.63-.419 1.119-.663.86zM31.001 5.205H6.903c-.714 0-1.296.58-1.296 1.292v5.506l.008.04c-1.194.243-2.142.764-2.639 1.276-.307.316-.466.649-.461.962.01.589.202 1.233.425 1.979.273.913.583 1.948.601 3.087.009.612-.181 1.495-.348 2.273-.112.522-.219 1.015-.255 1.382-.083.849-.084 1.8-.001 2.678.056.59.15 1.145.272 1.603.045.168.196.279.362.279l.097-.013c.2-.053.319-.259.266-.458-.112-.419-.198-.932-.25-1.481-.079-.832-.078-1.732.001-2.535.032-.324.134-.796.242-1.297.176-.818.375-1.744.365-2.442-.019-1.243-.345-2.331-.632-3.291-.207-.693-.386-1.291-.394-1.776-.001-.039.015-.187.249-.427.541-.557 1.838-1.166 3.41-1.188 1.571.022 2.869.631 3.41 1.188.234.241.25.388.25.427-.008.486-.187 1.083-.394 1.776-.287.96-.613 2.048-.632 3.292-.01.698.19 1.626.366 2.444.108.499.209.971.241 1.294.183 1.855-.075 4.033-.576 4.853-1.076 1.763-2.31 1.903-2.664 1.904-.201 0-.613-.042-1.114-.318-.181-.099-.409-.034-.51.148-.1.181-.034.409.148.509.648.357 1.202.411 1.475.411h.002c.451-.001 2.023-.167 3.304-2.263.467-.766.697-2.181.737-3.561h7.612v2.172h-5.388c-.207 0-.375.168-.375.375s.168.375.375.375h11.524c.207 0 .375-.168.375-.375s-.168-.375-.375-.375H19.33v-2.172h11.674c.714 0 1.295-.58 1.295-1.293V6.497c-.003-.712-.584-1.292-1.298-1.292zm.545 18.259c0 .3-.245.543-.545.543H10.968c-.007-.35-.026-.69-.058-1.006-.036-.366-.142-.858-.254-1.378-.168-.779-.358-1.663-.349-2.275.018-1.139.327-2.174.601-3.088.223-.746.416-1.389.426-1.978.005-.313-.155-.646-.461-.962-.481-.495-1.386-.995-2.523-1.247l.014-.069v-3.89c0-.048.039-.088.086-.088h21.007c.046 0 .084.04.084.088v13.55c0 .048-.038.087-.085.087h-13.54c-.207 0-.375.168-.375.375s.168.375.375.375h13.54c.46 0 .835-.376.835-.837V8.113c0-.462-.374-.838-.834-.838H8.449c-.461 0-.836.376-.836.838v3.833c-.222-.025-.45-.04-.684-.043v.001l-.005-.001h-.005c-.192.003-.378.017-.562.034v-5.44c0-.299.245-.542.546-.542h24.098c.3 0 .545.243.545.542v16.967z"/>
</svg>
