<svg xmlns="http://www.w3.org/2000/svg" viewBox="0 0 36 36">
  <path fill="#0568ae" d="M7.049 19.099c0-.198.162-.36.359-.36h.9c.197 0 .359.162.359.36v.899c0 .198-.162.36-.359.36h-.9c-.197 0-.359-.162-.359-.36v-.899zm-.017-2.095c0 .198.162.36.361.36h.899c.198 0 .359-.162.359-.36v-.9c0-.198-.161-.36-.359-.36h-.899c-.199 0-.361.162-.361.36v.9zm25.651-4.739v11.47c0 .594-.486 1.08-1.08 1.08H11.488c-.594 0-1.08-.486-1.08-1.08v-.062H5.529c-1.202 0-2.18-.978-2.18-2.18v-6.985c0-1.202.978-2.18 2.18-2.18h4.879v-.063c0-.594.486-1.08 1.08-1.08h20.115c.595 0 1.08.486 1.08 1.08zm-22.275 9.408v-7.345H5.529c-.099 0-.18.081-.18.18v6.985c0 .099.081.18.18.18h4.879zm19.41-5.915c0-.414-.336-.75-.75-.75s-.75.336-.75.75v4.624c0 .414.336.75.75.75s.75-.336.75-.75v-4.624z"/>
</svg>
