<svg xmlns="http://www.w3.org/2000/svg" viewBox="0 0 36 36">
  <path fill="#0568ae" d="M28.718 15.768v4.624c0 .207-.168.375-.375.375s-.375-.168-.375-.375v-4.624c0-.207.168-.375.375-.375s.375.168.375.375zm3.133-2.445v9.187c0 .207-.168.375-.375.375s-.375-.168-.375-.375v-9.187c0-.726-.528-1.253-1.255-1.253H12.164c-.692 0-1.255.562-1.255 1.253v9.375c0 .691.563 1.252 1.255 1.252h14.813c.207 0 .375.168.375.375s-.168.375-.375.375H12.164c-1.106 0-2.005-.898-2.005-2.002v-.248H6.104c-1.104 0-2.003-.899-2.003-2.003v-4.873c0-1.104.899-2.002 2.003-2.002h4.054v-.249c0-1.104.899-2.003 2.005-2.003h17.683c1.143 0 2.005.861 2.005 2.003zm-21.692 8.376v-7.378H6.104c-.691 0-1.253.562-1.253 1.252v4.873c0 .691.563 1.253 1.253 1.253h4.055zm-2.225-2.95h-.9c-.197 0-.359.162-.359.36v.899c0 .198.162.36.359.36h.9c.197 0 .359-.162.359-.36v-.899c0-.198-.162-.36-.359-.36zm-.915-1.375h.899c.198 0 .359-.162.359-.36v-.9c0-.198-.161-.36-.359-.36h-.899c-.199 0-.361.162-.361.36v.9c0 .198.162.36.361.36z"/>
</svg>
