<svg xmlns="http://www.w3.org/2000/svg" viewBox="0 0 36 36">
  <path fill="#0568ae" d="M17.254 5.087c-1.265.45-3.796 1.623-4.29 1.854l-.084.039-.084.039c-.495.23-3.02 1.415-4.179 2.096-1.278.749-1.641 1.815-1.049 3.084l8.171 17.523c.591 1.267 1.641 1.675 3.037 1.178 1.266-.451 3.802-1.626 4.298-1.858l.084-.039.084-.039c.495-.231 3.014-1.412 4.172-2.092 1.278-.75 1.64-1.816 1.049-3.084L20.291 6.265c-.591-1.268-1.642-1.675-3.037-1.178zm10.873 13.345l-.101-.007c-.411-.055-.698-.433-.643-.844l.362-2.675c.01-.076-.073-.233-.141-.268l-1.38-.697c-.667-.337-1.041-1.139-.871-1.866l.354-1.506c.011-.049-.042-.161-.086-.185l-1.38-.697c-.667-.337-1.042-1.14-.87-1.867l.353-1.505c.017-.074-.05-.24-.115-.28l-2.282-1.443c-.35-.221-.455-.685-.233-1.035.221-.35.684-.454 1.035-.233l2.282 1.443c.604.382.936 1.195.773 1.891l-.354 1.505c-.011.05.041.162.086.185l1.381.697c.667.337 1.041 1.139.87 1.866l-.354 1.506c-.011.049.042.162.087.185l1.38.697c.639.322 1.048 1.1.952 1.808l-.362 2.675c-.051.377-.373.65-.743.65zm3.204-1.475l-.101-.007c-.41-.056-.698-.433-.643-.844l.361-2.675c.01-.076-.073-.234-.141-.268l-1.381-.697c-.667-.336-1.041-1.139-.87-1.866l.353-1.506c.011-.049-.042-.162-.086-.185l-1.381-.697c-.666-.336-1.041-1.139-.87-1.866l.354-1.506c.017-.074-.05-.24-.115-.28L24.53 3.117c-.35-.222-.455-.685-.233-1.035.221-.35.684-.454 1.035-.233l2.281 1.442c.604.382.937 1.195.773 1.891l-.354 1.506c-.011.049.042.161.086.185l1.382.697c.667.337 1.041 1.139.87 1.866l-.354 1.506c-.011.049.041.161.086.185l1.381.697c.639.322 1.047 1.1.951 1.808l-.361 2.675c-.05.377-.372.65-.742.65zM14.272 32.792c-.137 0-.276-.038-.4-.116l-2.282-1.443c-.604-.382-.937-1.195-.773-1.891l.353-1.505c.011-.049-.041-.161-.086-.184l-1.381-.698c-.667-.337-1.041-1.14-.87-1.867l.353-1.505c.011-.049-.041-.162-.086-.185l-1.38-.697c-.639-.323-1.047-1.1-.951-1.808l.362-2.675c.055-.41.437-.698.844-.643.411.055.698.433.643.844l-.362 2.676c-.01.076.073.233.141.268l1.38.697c.667.337 1.041 1.139.871 1.866l-.353 1.506c-.011.05.042.162.086.184l1.38.697c.667.336 1.041 1.139.87 1.867l-.353 1.505c-.017.075.05.239.115.28l2.282 1.443c.35.221.454.685.233 1.035-.144.225-.387.349-.636.349zm-3.203 1.475c-.137 0-.276-.038-.4-.116l-2.281-1.442c-.605-.382-.937-1.195-.773-1.891l.353-1.505c.012-.049-.041-.162-.086-.185L6.5 28.43c-.667-.337-1.041-1.139-.871-1.866l.353-1.506c.011-.05-.041-.162-.086-.184l-1.38-.697c-.638-.322-1.047-1.099-.951-1.808l.362-2.675c.055-.411.431-.704.844-.643.41.056.698.433.643.844l-.362 2.675c-.01.076.073.233.141.267l1.381.698c.667.337 1.041 1.14.87 1.867l-.354 1.504c-.011.049.041.162.086.185l1.38.697c.667.337 1.041 1.139.871 1.866l-.353 1.506c-.018.075.05.239.115.28l2.282 1.443c.35.221.454.685.233 1.035-.143.225-.387.349-.635.349z"/>
</svg>
