<svg xmlns="http://www.w3.org/2000/svg" viewBox="0 0 36 36">
  <path fill="#0568ae" d="M5.943 12.283v11.108c0 1.786 1.36 3.238 3.031 3.238h14.17c1.783 0 3.028-1.332 3.028-3.239l.008-2.253 4.251 2.455c.726.419 1.43.474 1.98.156.551-.318.855-.956.855-1.794V13.59c0-.838-.304-1.475-.855-1.794-.553-.319-1.255-.262-1.98.156l-4.223 2.435v-2.116c0-1.581-1.343-2.867-2.992-2.867H8.943c-1.626 0-3 1.318-3 2.879zm.75 0c0-1.134 1.052-2.129 2.25-2.129h14.272c1.078 0 2.242.81 2.242 2.117v5.185c0 .207.167.375.374.375s.376-.168.376-.375v-2.203l4.598-2.651c.484-.28.92-.335 1.231-.157.31.179.481.585.481 1.144v8.364c0 .559-.171.965-.481 1.145-.308.178-.746.124-1.231-.156l-4.811-2.778-.187-.05-.187.05c-.116.067-.187.19-.188.324l-.01 2.901c0 1.24-.704 2.49-2.278 2.49H8.974c-1.258 0-2.281-1.116-2.281-2.488V12.283zm-3.008-.5h1.062c.207 0 .375.168.375.375s-.168.375-.375.375H3.685c-.19 0-.345.155-.345.345v3.693c0 .19.155.345.345.345h1.062c.207 0 .375.168.375.375s-.168.375-.375.375H3.685c-.604 0-1.095-.491-1.095-1.095v-3.693c0-.604.492-1.095 1.095-1.095zm5.743.946h7.288c.207 0 .375.168.375.375s-.168.375-.375.375H9.428c-.207 0-.375-.168-.375-.375 0-.208.168-.375.375-.375z"/>
</svg>
