<svg xmlns="http://www.w3.org/2000/svg" viewBox="0 0 36 36">
  <path fill="#0568ae" d="M19.725 25.369h-3.451c-.207 0-.375-.168-.375-.375s.168-.375.375-.375h3.451c.207 0 .375.168.375.375s-.168.375-.375.375zm13.296-.704v.519c0 .802-.653 1.455-1.455 1.455H4.434c-.802 0-1.455-.653-1.455-1.455v-.519c0-.802.653-1.455 1.455-1.455h2.289V10.975c0-1.332 1.083-2.416 2.415-2.416H26.86c1.332 0 2.417 1.084 2.417 2.416V23.21h2.289c.803 0 1.455.653 1.455 1.455zM7.472 23.21h21.055V10.975c0-.919-.748-1.666-1.667-1.666H9.137c-.918 0-1.665.747-1.665 1.666V23.21zm24.799 1.455c0-.389-.316-.705-.705-.705H4.434c-.389 0-.705.316-.705.705v.519c0 .389.316.705.705.705h27.133c.389 0 .705-.316.705-.705v-.519zm-5.255-12.907v9.661c0 .604-.491 1.095-1.095 1.095H10.079c-.207 0-.375-.168-.375-.375s.168-.375.375-.375h3.089c.136-.621.276-1.165.417-1.61.115-.364.235-.669.355-.906.048-.105.11-.21.182-.308.338-.467.925-.852 1.684-1.114-.346-.362-.6-.799-.741-1.277-.085-.289-.128-.583-.128-.873 0-1.72 1.401-3.119 3.123-3.119 1.721 0 3.122 1.399 3.122 3.119 0 .289-.041.577-.122.857-.139.486-.395.929-.742 1.293.929.32 1.598.828 1.873 1.441.256.498.514 1.344.763 2.496h2.967c.19 0 .345-.155.345-.345v-9.661c0-.19-.155-.345-.345-.345H10.079c-.191 0-.345.155-.345.345V17.6c0 .207-.168.375-.375.375s-.375-.168-.375-.375v-5.842c0-.604.491-1.095 1.095-1.095h15.842c.604 0 1.095.491 1.095 1.095zm-13.08 10.006h8.25c-.222-.997-.453-1.743-.673-2.172-.24-.535-1.017-.997-2.037-1.223-.154-.015-.274-.122-.316-.27-.043-.148.018-.307.14-.401l.068-.049c.47-.312.815-.783.97-1.323.062-.213.093-.431.093-.649 0-1.306-1.064-2.369-2.372-2.369-1.308 0-2.373 1.063-2.373 2.369 0 .218.033.441.098.661.154.525.489.985.945 1.296l.047.035c.135.084.209.249.175.404-.034.156-.156.277-.314.297-.9.206-1.59.574-1.91 1.015l-.113.191c-.108.213-.212.48-.316.806-.12.385-.242.851-.362 1.382z"/>
</svg>
