<svg xmlns="http://www.w3.org/2000/svg" viewBox="0 0 36 36">
  <path fill="#0568ae" d="M3.731 13.825v3.727c0 .594.486 1.08 1.08 1.08h.884v5.3c0 1.252 1.024 2.276 2.276 2.276h14.975c1.252 0 2.276-1.024 2.276-2.276v-3.201l5.208 3.34c1.012.649 1.839.196 1.839-1.006V12.934c0-1.202-.828-1.654-1.839-1.005l-5.208 3.34v-3.201c0-1.252-1.024-2.276-2.276-2.276H7.971c-1.252 0-2.276 1.024-2.276 2.276v.678h-.884c-.594-.001-1.08.485-1.08 1.079zm4.858-.36c0-.396.324-.72.72-.72h5.84c.396 0 .72.324.72.72v1.714c0 .396-.324.72-.72.72h-5.84c-.396 0-.72-.324-.72-.72v-1.714z"/>
</svg>
