<svg xmlns="http://www.w3.org/2000/svg" viewBox="0 0 36 36">
  <path fill="#0568ae" d="M31.146 23.265h-2.244V10.976c0-1.128-.916-2.041-2.042-2.041H9.137c-1.125 0-2.04.913-2.04 2.041v12.289H4.853c-.829 0-1.5.672-1.5 1.5s.671 1.5 1.5 1.5h26.293c.829 0 1.5-.672 1.5-1.5s-.671-1.5-1.5-1.5zm-11.881 1.697h-2.531c-.414 0-.75-.336-.75-.75s.336-.75.75-.75h2.531c.414 0 .75.336.75.75s-.336.75-.75.75zm7.642-3.591c0 .396-.324.72-.72.72h-3.951l-.009-.058-.101-.592c-.166-.924-.468-2.35-.833-3.065-.25-.559-1.004-1.013-1.992-1.233l-.025-.006.038-.027c.469-.311.821-.782.98-1.336.06-.208.094-.426.094-.654 0-1.32-1.07-2.386-2.389-2.386-1.318 0-2.389 1.067-2.389 2.386 0 .233.037.456.098.667.158.537.498.994.95 1.303l.064.047-.045.011c-.843.19-1.512.552-1.841 1.005l-.13.221c-.101.2-.198.455-.289.739-.234.734-.425 1.662-.546 2.328l-.102.592-.006.058h-3.95c-.396 0-.72-.324-.72-.72v-9.697c0-.396.324-.72.72-.72h16.373c.396 0 .72.324.72.72v9.697z"/>
</svg>
