<svg xmlns="http://www.w3.org/2000/svg" viewBox="0 0 36 36">
  <path fill="#0568ae" d="M23.068 20.669c.031.178.027.226.027.338 0 1.332-2.264 2.405-5.091 2.405-1.067 0-2.055-.153-2.872-.415-1.346-.432-2.227-1.161-2.227-1.99l.036-.338.122-.709c.145-.799.373-1.91.653-2.788.108-.341.224-.646.346-.885l.156-.265c.393-.541 1.195-.975 2.205-1.203l.054-.013-.077-.056c-.541-.37-.949-.918-1.138-1.561-.074-.253-.118-.52-.118-.799 0-1.581 1.283-2.858 2.861-2.858 1.58 0 2.861 1.277 2.861 2.858 0 .274-.04.535-.112.783-.191.663-.612 1.227-1.174 1.6l-.045.033.029.007c1.184.263 2.086.808 2.386 1.477.437.856.799 2.564.997 3.67l.121.709zm6.944-15.88v26.422c0 .99-.81 1.8-1.8 1.8H7.788c-.99 0-1.8-.81-1.8-1.8V4.789c0-.99.81-1.8 1.8-1.8h20.424c.989 0 1.8.81 1.8 1.8zM22.86 30.192c0-.414-.336-.75-.75-.75h-2.395c-.414 0-.75.336-.75.75s.336.75.75.75h2.395c.414 0 .75-.336.75-.75zm2.517-1.425c-.567.108-1.031.57-1.14 1.137-.196 1.018.681 1.901 1.7 1.715.567-.104 1.031-.564 1.145-1.128.207-1.027-.679-1.919-1.705-1.724zm2.635-23.098c0-.375-.305-.68-.68-.68H8.68c-.375 0-.68.305-.68.68v21.022c0 .375.305.68.68.68h18.651c.375 0 .68-.305.68-.68V5.669z"/>
</svg>
