<svg xmlns="http://www.w3.org/2000/svg" viewBox="0 0 36 36">
  <path fill="#0568ae" d="M18.005 23.787c-1.047 0-2.057-.146-2.922-.424-1.549-.498-2.437-1.337-2.437-2.302 0-.118.013-.245.041-.397l.053-.304.067-.388c.141-.776.368-1.887.65-2.772.119-.374.24-.684.36-.92.044-.096.107-.205.182-.309.348-.479.948-.873 1.723-1.139-.351-.365-.615-.814-.759-1.305-.086-.296-.13-.594-.13-.887 0-1.747 1.423-3.168 3.171-3.168 1.749 0 3.171 1.421 3.171 3.168 0 .291-.042.583-.124.869-.144.499-.408.953-.763 1.324.959.33 1.636.845 1.914 1.465.457.894.824 2.686 1.001 3.674l.096.558.023.138c.033.188.032.255.032.361.002 1.586-2.298 2.758-5.349 2.758zm0-13.565c-1.335 0-2.421 1.085-2.421 2.418 0 .222.034.449.1.676.157.534.499 1.003.964 1.322l.084.061c.119.086.176.233.147.377-.029.144-.139.257-.281.291l-.053.012c-.905.204-1.609.58-1.938 1.031l-.114.194c-.109.215-.215.487-.322.823-.271.848-.49 1.924-.627 2.678l-.065.378-.055.316-.028.261c0 .6.734 1.208 1.916 1.588.792.253 1.723.388 2.692.388 2.752 0 4.601-1.021 4.601-1.976l-.021-.266-.023-.143-.094-.546-.001-.002c-.289-1.611-.632-2.881-.939-3.483-.245-.545-1.038-1.016-2.079-1.248-.144-.032-.27-.149-.3-.293-.03-.144.013-.296.132-.383l.044-.032c.495-.329.848-.81 1.008-1.365.063-.219.095-.441.095-.662 0-1.331-1.087-2.415-2.422-2.415zM28.8 33.011H7.203c-.944 0-1.711-.75-1.711-1.672l-.004-26.68c0-.921.769-1.67 1.715-1.67H28.8c.943 0 1.71.749 1.71 1.67l.001 26.68c.001.922-.767 1.672-1.711 1.672zM7.203 3.739c-.532 0-.965.413-.965.92l.003 26.68c0 .509.431.922.961.922H28.8c.53 0 .961-.414.961-.922l-.001-26.68c0-.507-.431-.92-.96-.92H7.203zm20.739 22.459V6.833c0-.58-.482-1.051-1.073-1.051H9.13c-.591 0-1.072.472-1.072 1.051v12.784c0 .207.168.375.375.375s.375-.168.375-.375V6.833c0-.166.144-.301.322-.301h17.739c.178 0 .323.135.323.301v19.365c0 .165-.145.298-.323.298H9.13c-.207 0-.375.168-.375.375s.168.375.375.375h17.739c.592 0 1.073-.47 1.073-1.048zm-2.835 5.022c-.818-.002-1.482-.653-1.482-1.45 0-.797.665-1.446 1.481-1.446.818 0 1.483.649 1.483 1.446.001.797-.664 1.448-1.482 1.45zm-.001-2.146c-.403 0-.731.313-.731.696 0 .385.329.698.732.7.403-.001.732-.315.732-.7.001-.383-.328-.696-.733-.696zm-2.701.697c0-.207-.168-.375-.375-.375h-3c-.207 0-.375.168-.375.375s.168.375.375.375h3c.207 0 .375-.168.375-.375z"/>
</svg>
