<svg xmlns="http://www.w3.org/2000/svg" viewBox="0 0 36 36">
  <path fill="#0568ae" d="M14.451 16.111l-.163.277c-.107.21-.214.484-.32.815-.249.782-.449 1.758-.572 2.439l-.06.347-.045.26c-.022.119-.037.24-.037.358 0 .868.791 1.621 2.171 2.064.763.245 1.655.374 2.578.374 2.703 0 4.741-1.048 4.741-2.466l-.028-.324-.022-.135-.083-.478c-.191-1.063-.501-2.489-.882-3.234-.243-.541-.823-.993-1.64-1.287.292-.321.511-.707.632-1.129.074-.257.111-.517.111-.775 0-1.558-1.269-2.826-2.829-2.826-1.56 0-2.829 1.268-2.829 2.826 0 .261.039.527.116.791.122.415.339.796.628 1.113-.656.234-1.166.576-1.467.99zm.608.44c.281-.387.89-.71 1.67-.887l.05-.012c.142-.034.252-.148.281-.291.029-.144-.029-.291-.147-.377l-.075-.054c-.399-.273-.693-.677-.828-1.135-.057-.195-.086-.391-.086-.58 0-1.145.933-2.076 2.079-2.076 1.147 0 2.079.931 2.079 2.076 0 .188-.027.379-.082.568-.137.476-.44.889-.854 1.164l-.054.039c-.118.087-.162.239-.132.382.03.144.154.26.298.292.9.2 1.584.604 1.794 1.071.366.717.671 2.215.82 3.044l.001.002.08.465.023.139.017.226c0 .798-1.639 1.688-3.991 1.688-.847 0-1.659-.117-2.349-.338-1.018-.327-1.65-.845-1.65-1.35l.024-.221.047-.274.058-.336c.12-.659.312-1.601.549-2.345.093-.292.185-.528.28-.717l.098-.163zm8.966-13.962c-1.86-.176-5.856-.168-6.023-.168-.169.001-4.166-.008-6.027.168-1.936.182-2.959 1.251-2.959 3.091v24.4c0 1.839 1.023 2.908 2.958 3.092 1.683.159 5.12.167 5.886.167h.148c.173 0 4.157.008 6.017-.167 1.935-.184 2.958-1.253 2.958-3.092V5.68c0-1.84-1.023-2.909-2.958-3.091zm2.208 27.491c0 1.452-.724 2.197-2.278 2.345-1.824.172-5.904.163-5.946.165-.042-.002-4.139.008-5.964-.165-1.554-.147-2.279-.892-2.279-2.345V5.68c0-1.454.724-2.199 2.279-2.345 1.668-.158 5.229-.165 5.86-.165h.096c.041 0 4.129-.008 5.953.165 1.554.147 2.278.892 2.278 2.345v24.4zM25.03 7.25v19.096c0 .616-.499 1.116-1.113 1.116H12.083c-.207 0-.375-.168-.375-.375s.168-.375.375-.375h11.834c.203 0 .363-.161.363-.366V7.25c0-.199-.163-.361-.363-.361H12.083c-.2 0-.363.162-.363.361v13.513c0 .207-.168.375-.375.375s-.375-.168-.375-.375V7.25c0-.612.5-1.111 1.113-1.111h11.834c.614 0 1.113.499 1.113 1.111zm-5.523 21.323h-3.014c-.806 0-1.462.655-1.462 1.461 0 .805.656 1.461 1.462 1.462h3.014c.806-.002 1.461-.657 1.461-1.462.001-.805-.655-1.461-1.461-1.461zm0 2.174h-3.013c-.393 0-.712-.32-.712-.712s.319-.711.712-.711h3.014c.392 0 .712.319.712.711s-.321.711-.713.712z"/>
</svg>
