<svg xmlns="http://www.w3.org/2000/svg" viewBox="0 0 36 36">
  <path fill="#0568ae" d="M22.347 20.316l.023.29c0 1.142-1.942 2.063-4.367 2.063-.915 0-1.763-.131-2.464-.356-1.154-.371-1.91-.996-1.91-1.707l.031-.29.105-.608c.124-.685.32-1.638.56-2.392.093-.292.192-.554.297-.759l.133-.227c.337-.464 1.025-.836 1.891-1.032l.046-.011-.066-.048c-.464-.318-.814-.787-.976-1.339-.063-.217-.101-.446-.101-.685 0-1.356 1.1-2.451 2.454-2.451 1.356 0 2.454 1.096 2.454 2.451 0 .235-.035.459-.096.672-.164.569-.525 1.053-1.007 1.372l-.039.028.025.006c1.015.226 1.789.693 2.046 1.267.375.734.685 2.199.855 3.148l.106.608zM26.858 5.68v24.4c0 1.764-.983 2.791-2.845 2.967-1.687.159-5.198.167-5.886.167h-.235c-.69 0-4.218-.008-5.906-.167-1.861-.177-2.845-1.203-2.845-2.967V5.68c0-1.766.984-2.792 2.845-2.967 1.688-.16 5.209-.168 5.898-.168h.233c.688 0 4.208.008 5.896.168 1.861.175 2.845 1.201 2.845 2.967zm-6.265 24.354c0-.6-.484-1.085-1.086-1.085h-3.015c-.598 0-1.086.486-1.086 1.085 0 .601.489 1.087 1.086 1.088h3.015c.602-.001 1.086-.487 1.086-1.088zm4.266-22.457c0-.396-.324-.72-.72-.72H11.86c-.396 0-.72.324-.72.72v18.79c0 .396.324.72.72.72h12.279c.396 0 .72-.324.72-.72V7.577z"/>
</svg>
