<svg xmlns="http://www.w3.org/2000/svg" viewBox="0 0 36 36">
  <path fill="#0568ae" d="M15.1 13.1l2.5-1.9h1.2v8.3h-1.3v-6.9L15.7 14l-.6-.9zm-8.7.1c.6 0 1.5 0 2.3.1V9.5c0-.6.5-1.1 1.2-1.1h16.3c.6 0 1.1.5 1.1 1.1v3.7c.9-.1 1.6-.1 1.9-.1h1V8.7c0-1.6-1.3-2.8-2.8-2.8H8.7c-1.6 0-2.8 1.3-2.8 2.8v4.5h.5zm15.1 8.2v1.4c0 .4-.3.6-.7.6H15c-.4 0-.6-.3-.6-.6v-1.4h-1.6V26h10.5v-4.6h-1.8zM7.4 29.1H5.8c-.3 0-.6-.2-.6-.6 0-.3.2-.5.6-.5h1.5c.3 0 .6.2.6.5s-.2.6-.5.6zm2-14.3c-1.1-.1-2.5-.1-3-.1h-.2c-.4 0-1.4 0-2.5.1-1.2.1-1.9.4-1.9 1.6v11.7c0 1.1.6 1.8 1.9 1.9 1.1.1 2.1.1 2.5.1h.2c.4 0 1.9 0 3-.1 1.2-.1 1.9-.8 1.9-1.9V16.7c0-1.1-.7-1.8-1.9-1.9zm.6 11.7c0 .3-.2.5-.5.5H3.7c-.3 0-.5-.2-.5-.5v-9.3c0-.3.2-.5.5-.5h5.8c.3 0 .5.2.5.5v9.3zm22.2-11.7c-1.1-.1-2.5-.1-3-.1H29c-.4 0-1.4 0-2.5.1-1.2.1-1.9.4-1.9 1.6v11.7c0 1.1.6 1.8 1.9 1.9 1.1.1 2.1.1 2.5.1h.2c.4 0 1.9 0 3-.1 1.2-.1 1.9-.8 1.9-1.9V16.7c0-1.1-.7-1.8-1.9-1.9zm-2 14.3h-1.5c-.3 0-.6-.2-.6-.6 0-.3.2-.5.6-.5h1.5c.3 0 .6.2.6.5-.1.3-.3.6-.6.6zm2.6-2.6c0 .3-.2.5-.5.5h-5.8c-.3 0-.5-.2-.5-.5v-9.3c0-.3.2-.5.5-.5h5.8c.3 0 .5.2.5.5v9.3z"/>
</svg>
