<svg xmlns="http://www.w3.org/2000/svg" viewBox="0 0 36 36">
  <path fill="#0568ae" d="M28.212 2.989H7.788c-.99 0-1.8.81-1.8 1.8v26.422c0 .99.81 1.8 1.8 1.8h20.424c.99 0 1.8-.81 1.8-1.8V4.789c0-.99-.81-1.8-1.8-1.8zM22.11 30.942h-2.396c-.414 0-.75-.336-.75-.75s.336-.75.75-.75h2.396c.414 0 .75.336.75.75s-.336.75-.75.75zm4.972-.452c-.114.565-.579 1.024-1.145 1.128-1.019.186-1.896-.697-1.7-1.715.109-.566.573-1.029 1.14-1.137 1.026-.195 1.912.697 1.705 1.724zm.93-3.799c0 .375-.305.68-.68.68H8.68c-.375 0-.68-.305-.68-.68V5.669c0-.375.305-.68.68-.68h18.651c.375 0 .68.305.68.68v21.022zM13.426 11.869c-.006-.241.12-.458.323-.577.201-.128.449-.133.662-.023l8.228 4.308c.121.061.224.158.291.283.174.332.05.741-.284.913l-8.229 4.318c-.215.113-.459.1-.666-.02-.2-.119-.324-.338-.325-.576v-8.626z"/>
</svg>
