<svg xmlns="http://www.w3.org/2000/svg" viewBox="0 0 36 36">
  <path fill="#0568ae" d="M30.511 4.659c0-.921-.767-1.67-1.71-1.67H7.203c-.946 0-1.715.749-1.715 1.67l.003 26.68c0 .922.768 1.672 1.712 1.672H28.8c.944 0 1.711-.75 1.711-1.672V4.659zM28.8 32.261H7.203c-.53 0-.962-.414-.962-.922l-.003-26.68c0-.507.433-.92.965-.92H28.8c.53 0 .96.413.96.92l.001 26.68c.001.508-.43.922-.961.922zm-.858-25.428v19.365c0 .578-.481 1.048-1.073 1.048H9.13c-.207 0-.375-.168-.375-.375s.168-.375.375-.375h17.739c.178 0 .323-.134.323-.298V6.833c0-.166-.145-.301-.323-.301H9.13c-.177 0-.322.135-.322.301v12.784c0 .207-.168.375-.375.375s-.375-.168-.375-.375V6.833c0-.58.481-1.051 1.072-1.051h17.739c.592 0 1.073.471 1.073 1.051zm-2.835 21.491c-.817 0-1.482.649-1.482 1.446 0 .797.664 1.447 1.482 1.45.817-.003 1.482-.653 1.482-1.45.001-.797-.665-1.446-1.482-1.446zm0 2.146c-.404-.002-.732-.315-.732-.7 0-.384.328-.696.732-.696.404 0 .733.313.733.696 0 .385-.33.699-.733.7zm-2.702-.7c0 .207-.168.375-.375.375h-3c-.207 0-.375-.168-.375-.375s.168-.375.375-.375h3c.207 0 .375.168.375.375zm-7.926-8.315c.157 0 .314-.038.458-.113l7.478-3.924c.234-.121.407-.325.487-.576.081-.254.056-.524-.07-.764-.096-.18-.243-.323-.421-.412l-7.482-3.917c-.317-.164-.682-.149-.963.03-.303.177-.486.503-.479.852v7.841c.003.345.186.668.482.845.159.092.335.138.51.138zm-.243-8.837c-.002-.079.038-.151.12-.199l.114-.033.112.029 7.485 3.919.101.096c.031.059.037.125.018.187-.019.059-.06.107-.118.137l-7.481 3.926c-.097.05-.186.022-.239-.008-.069-.042-.112-.12-.113-.202v-7.852z"/>
</svg>
