<svg xmlns="http://www.w3.org/2000/svg" viewBox="0 0 36 36">
  <path fill="#0568ae" d="M14.66 21.19c-.236 0-.469-.112-.615-.32-.237-.339-.155-.807.185-1.044l3.021-2.113-.011-4.055c-.001-.414.333-.751.748-.752h.002c.413 0 .749.334.75.748l.012 4.447c.001.245-.119.476-.32.617l-3.342 2.338c-.131.09-.281.134-.43.134zm4.84 5.807c0-.954.186-1.863.512-2.703H13.15c-.832 0-1.512-.68-1.512-1.512V13.16c0-.832.681-1.512 1.512-1.512h9.702c.832 0 1.512.68 1.512 1.512v6.825c.606-.229 1.247-.387 1.916-.451v-6.353c0-1.564-1.067-2.853-2.489-3.312-.257-.083-1.487-.469-1.487-1.677v-4.47c0-.396-.324-.72-.72-.72h-7.165c-.396 0-.72.324-.72.72v4.469c0 1.208-1.23 1.594-1.488 1.677-1.421.459-2.488 1.748-2.488 3.312v9.633c0 1.564 1.067 2.853 2.488 3.313.258.083 1.488.469 1.488 1.677v4.469c0 .396.324.72.72.72h7.165c.231 0 .435-.112.567-.283-1.62-1.377-2.651-3.425-2.651-5.712zm13.5 0c0 3.314-2.687 6-6 6s-6-2.686-6-6 2.687-6 6-6 6 2.687 6 6zM27.916 29.7c0-.509-.414-.923-.922-.923-.509 0-.923.414-.923.923 0 .509.414.922.923.922.508 0 .922-.414.922-.922zm1.628-2.417c-.521-.398-1.119-.663-1.779-.787-1.163-.218-2.375.068-3.32.785-.22.167-.263.48-.096.701.167.219.48.263.701.096.721-.547 1.643-.766 2.531-.599.505.095.961.297 1.356.599.091.069.197.103.303.103.15 0 .299-.068.398-.196.167-.22.125-.534-.094-.702zm1.405-1.945c-.813-.628-1.738-1.041-2.751-1.23-1.787-.337-3.647.102-5.101 1.201-.221.167-.264.48-.098.701.165.22.48.264.7.097 1.232-.93 2.804-1.3 4.315-1.016.856.16 1.638.509 2.324 1.039.091.07.199.104.305.104.15 0 .298-.067.396-.194.169-.22.128-.533-.09-.702z"/>
</svg>
