<svg xmlns="http://www.w3.org/2000/svg" viewBox="0 0 36 36">
  <path fill="#0568ae" d="M14.065 27.81v5.189c0 .207-.168.375-.375.375s-.375-.168-.375-.375V27.81c0-.612-.41-1.056-1.22-1.317-1.652-.534-2.756-2.009-2.756-3.672l.004-.021-.004-.021v-9.59c0-1.663 1.104-3.138 2.748-3.669.818-.264 1.229-.708 1.229-1.32V3.009c0-.207.168-.375.375-.375s.375.168.375.375v5.189c0 .549-.227 1.542-1.74 2.031-1.341.433-2.237 1.621-2.237 2.958v9.59l-.004.021.004.021c0 1.337.896 2.524 2.229 2.956 1.52.493 1.747 1.486 1.747 2.035zm.28-7.148c.073.104.189.16.308.16.074 0 .149-.022.214-.068l3.342-2.338c.101-.071.161-.186.16-.308l-.012-4.447c-.001-.207-.169-.374-.375-.374h-.001c-.207 0-.375.169-.374.376l.011 4.251-3.181 2.226c-.17.119-.211.352-.092.522zm19.023 6.342c0 3.515-2.859 6.375-6.375 6.375-1.669 0-3.185-.649-4.322-1.703v1.323c0 .207-.168.375-.375.375s-.375-.168-.375-.375V30.85c-.813-1.07-1.303-2.4-1.303-3.846 0-.818.161-1.599.442-2.318h-7.706c-.207 0-.375-.168-.375-.375s.168-.375.375-.375h8.054c.594-1.077 1.49-1.965 2.573-2.548v-8.009c0-.744-.605-1.35-1.349-1.35h-9.278c-.744 0-1.35.606-1.35 1.35v8.209c0 .207-.168.375-.375.375s-.375-.168-.375-.375v-8.209c0-1.158.942-2.1 2.1-2.1h9.278c1.157 0 2.099.942 2.099 2.1v7.672c.373-.142.763-.25 1.166-.321v-7.542c0-1.337-.896-2.525-2.229-2.955-1.521-.494-1.747-1.486-1.747-2.034v-5.19c0-.207.168-.375.375-.375s.375.168.375.375v5.189c0 .611.41 1.055 1.219 1.317 1.653.534 2.758 2.009 2.758 3.672v7.459l.346-.018c3.514.001 6.374 2.861 6.374 6.376zm-.75 0c0-3.102-2.523-5.625-5.625-5.625s-5.625 2.523-5.625 5.625 2.523 5.625 5.625 5.625 5.625-2.524 5.625-5.625zm-4.658-1.159c-1.383-.26-2.821.079-3.948.929-.166.125-.198.36-.073.525.125.165.359.198.525.073.958-.724 2.183-1.012 3.358-.791.666.124 1.274.396 1.808.808.068.053.149.078.229.078.112 0 .224-.05.298-.146.126-.164.096-.399-.068-.526-.629-.484-1.345-.804-2.129-.95zm-.336 1.938c-.899-.167-1.835.053-2.565.607-.165.125-.197.361-.072.525.125.165.36.198.525.072.562-.426 1.282-.595 1.974-.467.392.075.749.231 1.058.467.068.052.147.077.226.077.114 0 .225-.051.299-.147.126-.165.094-.4-.07-.526-.402-.307-.865-.512-1.375-.608zm3.536-2.403c-.838-.677-1.845-1.141-2.91-1.341-1.904-.357-3.856.144-5.355 1.374-.161.132-.184.368-.052.528.074.09.182.137.29.137.084 0 .168-.028.238-.085 1.327-1.089 3.055-1.534 4.741-1.218.943.178 1.835.589 2.576 1.188.161.129.398.105.527-.057.13-.16.106-.396-.055-.526zm-4.131 4.257c-.344 0-.619.277-.619.619 0 .341.275.619.619.619.34 0 .618-.277.618-.619 0-.342-.278-.619-.618-.619z"/>
</svg>
