<svg xmlns="http://www.w3.org/2000/svg" viewBox="0 0 36 36">
  <path fill="#0568ae" d="M20.387 30.442c.405.781.945 1.479 1.587 2.069H6.831c-.99 0-1.8-.81-1.8-1.8V4.289c0-.99.81-1.8 1.8-1.8h20.424c.99 0 1.8.81 1.8 1.8v15.493c-.638-.178-1.307-.28-2-.281V5.169c0-.375-.305-.68-.68-.68H7.723c-.375 0-.68.305-.68.68v21.022c0 .375.305.68.68.68h11.826l-.007.129c0 .672.097 1.321.264 1.942h-1.049c-.414 0-.75.336-.75.75s.336.75.75.75h1.63zM33.043 27c0 3.313-2.686 6-6 6s-6-2.687-6-6 2.687-6 6-6 6 2.686 6 6zm-5.084 2.702c0-.509-.414-.923-.922-.923-.509 0-.923.414-.923.923 0 .509.414.922.923.922.508.001.922-.413.922-.922zm1.628-2.416c-.521-.398-1.119-.663-1.779-.787-1.164-.217-2.375.068-3.32.785-.22.167-.263.48-.096.701.167.219.479.263.701.096.721-.547 1.643-.766 2.531-.599.505.095.961.297 1.356.599.091.069.197.103.303.103.15 0 .299-.068.398-.196.167-.221.125-.534-.094-.702zm1.405-1.946c-.812-.628-1.738-1.041-2.751-1.23-1.787-.337-3.647.102-5.101 1.201-.221.167-.264.48-.098.701.165.22.48.264.7.097 1.231-.93 2.804-1.3 4.315-1.016.856.16 1.638.509 2.324 1.039.091.07.199.104.305.104.15 0 .298-.067.396-.194.169-.219.128-.533-.09-.702z"/>
</svg>
