<svg xmlns="http://www.w3.org/2000/svg" viewBox="0 0 36 36">
  <path fill="#0568ae" d="M30.526 21.567l-.001-17.408c0-.921-.767-1.67-1.71-1.67H7.217c-.945 0-1.715.749-1.715 1.67l.003 26.68c0 .922.768 1.672 1.711 1.672h16.802c.94.546 2.027.864 3.19.864 3.515 0 6.375-2.86 6.375-6.375.001-2.299-1.227-4.312-3.057-5.433zm-24.27 9.272l-.003-26.68c0-.507.433-.92.965-.92h21.598c.53 0 .96.413.96.92l.001 17.01c-.568-.251-1.179-.421-1.819-.497V6.333c0-.58-.482-1.051-1.073-1.051H9.145c-.591 0-1.072.472-1.072 1.051v12.784c0 .207.168.375.375.375s.375-.168.375-.375V6.333c0-.166.144-.301.322-.301h17.739c.178 0 .323.135.323.301v14.292h.001c.174 0 .346.011.516.026l-.516-.026c-3.173 0-5.804 2.332-6.288 5.371H9.145c-.207 0-.375.168-.375.375s.168.375.375.375h11.702l-.013.254c0 .66.101 1.296.288 1.895h-2.076c-.207 0-.375.168-.375.375s.168.375.375.375h2.371c.372.811.909 1.53 1.568 2.116H7.217c-.53 0-.961-.414-.961-.922zm17.225 1.321l.001.001-.001-.001zm3.728.465c-3.102 0-5.625-2.524-5.625-5.625 0-3.102 2.523-5.625 5.625-5.625s5.625 2.523 5.625 5.625c0 3.101-2.524 5.625-5.625 5.625zm2.005-4.238c.165.125.196.361.07.525-.074.097-.185.147-.298.147-.079 0-.159-.025-.227-.077-.309-.236-.665-.393-1.059-.467-.693-.13-1.411.04-1.972.467-.166.125-.4.092-.526-.072-.125-.165-.093-.4.072-.525.73-.554 1.666-.775 2.564-.607.512.097.974.302 1.376.609zm1.091-1.509c.164.126.194.362.068.526-.074.096-.185.146-.297.146-.08 0-.161-.025-.228-.078-.534-.412-1.142-.684-1.808-.808-1.177-.222-2.401.067-3.358.791-.167.124-.401.092-.525-.073-.125-.165-.092-.4.073-.525 1.126-.85 2.563-1.188 3.949-.929.781.144 1.497.464 2.126.95zm1.126-.974c-.13.162-.367.185-.527.056-.741-.599-1.632-1.01-2.576-1.188-1.687-.317-3.413.128-4.741 1.217-.07.057-.154.085-.238.085-.108 0-.216-.047-.29-.137-.131-.16-.108-.396.052-.528 1.499-1.23 3.453-1.73 5.354-1.375 1.066.201 2.072.665 2.909 1.342.162.13.187.367.057.528zm-3.568 4.347c0 .341-.278.619-.618.619-.343 0-.619-.277-.619-.619 0-.341.276-.619.619-.619.34.001.618.278.618.619z"/>
</svg>
