<svg xmlns="http://www.w3.org/2000/svg" viewBox="0 0 36 36">
  <path fill="#0568ae" d="M31.696 19.359H4.42c-.604 0-1.095.491-1.095 1.095v5.998c0 .604.491 1.095 1.095 1.095h27.276c.604 0 1.095-.491 1.095-1.095v-5.998c0-.604-.492-1.095-1.095-1.095zm-21.528 4.844H6.453c-.414 0-.75-.336-.75-.75s.336-.75.75-.75h3.715c.414 0 .75.336.75.75s-.336.75-.75.75zm15.128.219c.107.224.013.493-.212.6l-.194.045c-.168 0-.329-.094-.406-.256-.205-.429-.31-.886-.31-1.358 0-.471.104-.928.31-1.358.107-.224.376-.32.6-.212.225.107.319.376.212.6-.147.308-.222.634-.222.97.001.336.075.662.222.969zm3.394 1.882c-.43.205-.886.309-1.356.309-.469 0-.926-.104-1.357-.309-.225-.107-.32-.375-.213-.6.107-.224.374-.32.6-.213.619.294 1.323.294 1.94 0 .226-.107.493-.011.6.213.106.224.011.493-.214.6zm-2.239-2.84c-.007-.488.383-.889.872-.895.488-.006.887.384.893.872.008.49-.382.888-.871.895-.487.006-.887-.381-.894-.872zm2.452-2.261c-.107.224-.375.32-.6.211-.613-.293-1.324-.294-1.939 0l-.194.045c-.168 0-.329-.094-.406-.256-.107-.224-.013-.493.211-.6.86-.412 1.859-.412 2.716 0 .225.107.32.376.212.6zm1.281 3.608c-.077.162-.238.257-.407.257l-.193-.044c-.225-.107-.32-.375-.213-.6.147-.31.222-.637.222-.971 0-.335-.075-.662-.222-.97-.107-.224-.012-.493.212-.6.224-.107.493-.012.6.212.206.431.31.887.31 1.358.001.47-.103.927-.309 1.358zm-16.998-10.89c-.225 0-.448-.101-.595-.293-.252-.329-.19-.8.138-1.052 1.1-.844 2.35-1.402 3.716-1.658 2.413-.454 4.925.133 6.889 1.611.331.249.397.719.148 1.05-.249.331-.72.396-1.05.148-1.628-1.225-3.71-1.712-5.71-1.335-1.133.213-2.169.675-3.08 1.374-.136.104-.296.155-.456.155zm1.49 2.489c-.225 0-.447-.101-.595-.293-.253-.328-.191-.799.137-1.052.79-.608 1.694-1.011 2.686-1.198 1.761-.33 3.587.1 5.01 1.182.33.251.394.721.143 1.051-.252.33-.722.393-1.051.143-1.085-.825-2.479-1.152-3.825-.902-.757.143-1.447.45-2.048.913-.136.105-.297.156-.457.156zm9.786-4.904c-.167 0-.335-.056-.475-.17-2.152-1.764-4.954-2.484-7.688-1.971-1.534.288-2.977.955-4.171 1.929-.322.262-.794.213-1.056-.107-.262-.321-.214-.793.107-1.056 1.388-1.132 3.063-1.906 4.843-2.241 3.172-.593 6.42.24 8.916 2.286.32.262.367.735.104 1.055-.148.181-.363.275-.58.275z"/>
</svg>
