<svg xmlns="http://www.w3.org/2000/svg" viewBox="0 0 36 36">
  <path d="M28.538 5.033H7.462c-.99 0-1.8.81-1.8 1.8v15.214c0 .99.81 1.8 1.8 1.8h6.598l-1.362 2.456c-.288.52-.038.945.556.945h9.49c.594 0 .844-.425.556-.945l-1.362-2.456h6.598c.99 0 1.8-.81 1.8-1.8V6.833c.002-.99-.808-1.8-1.798-1.8zm-.222 14.531c0 .396-.324.72-.72.72H8.405c-.396 0-.72-.324-.72-.72V7.772c0-.396.324-.72.72-.72h19.191c.396 0 .72.324.72.72v11.792zm2.732 10.349c0 .579-.108 1.053-.687 1.053H5.684c-.579 0-.733-.474-.733-1.053s.153-1.053.733-1.053h.78c.014-.221.194-.398.419-.398h1.152c.225 0 .404.177.419.398h1.024c.014-.221.194-.398.419-.398h1.15c.225 0 .404.177.419.398h1.025c.014-.221.194-.398.419-.398h1.149c.225 0 .404.177.419.398h1.025c.014-.221.194-.398.419-.398h1.15c.225 0 .404.177.419.398h1.024c.014-.221.194-.398.419-.398h1.15c.225 0 .404.177.419.398h1.024c.014-.221.194-.398.419-.398h1.151c.225 0 .404.177.419.398h1.024c.014-.221.194-.398.419-.398h1.151c.225 0 .404.177.419.398h1.024c.014-.221.194-.398.419-.398h1.15c.225 0 .404.177.419.398h.826c.574.001.681.474.681 1.053z" fill="#0568ae"/>
</svg>
