<svg xmlns="http://www.w3.org/2000/svg" viewBox="0 0 36 36">
  <path fill="#0568ae" d="M28.391 7.84v11.02c0 .604-.491 1.095-1.095 1.095H8.805c-.207 0-.375-.168-.375-.375s.168-.375.375-.375h18.491c.19 0 .345-.155.345-.345V7.84c0-.19-.155-.345-.345-.345H8.805c-.19 0-.345.155-.345.345v7.269c0 .207-.168.375-.375.375s-.375-.168-.375-.375V7.84c0-.604.491-1.095 1.095-1.095h18.491c.604.001 1.095.492 1.095 1.095zm2.372-1.21v14.714c0 1.199-.976 2.175-2.175 2.175h-5.962l1.053 1.899c.203.367.221.746.047 1.039-.173.294-.512.462-.932.462h-9.49c-.419 0-.759-.168-.932-.462-.173-.294-.156-.673.047-1.04l1.053-1.899h-5.96c-1.199 0-2.175-.976-2.175-2.175V6.63c0-1.199.976-2.175 2.175-2.175h21.076c1.199 0 2.175.975 2.175 2.175zm-8.994 16.889h-7.438l-1.255 2.263c-.068.123-.091.239-.057.295.033.056.145.093.286.093h9.49c.14 0 .253-.037.286-.093.033-.057.011-.172-.058-.295l-1.254-2.263zM30.013 6.63c0-.786-.639-1.425-1.425-1.425H7.512c-.786 0-1.425.639-1.425 1.425v14.714c0 .786.639 1.425 1.425 1.425h21.076c.786 0 1.425-.639 1.425-1.425V6.63zM8.428 29.86c.206-.013.363-.191.35-.398-.025-.397-.355-.709-.751-.709H6.991c-.396 0-.725.311-.751.708-.013.207.145.382.351.395.205.011.386-.146.4-.354h1.036l.003.007c.013.199.178.351.374.351h.024zm3.012 0c.207-.013.363-.192.35-.398-.026-.397-.356-.708-.751-.708h-1.035c-.396 0-.726.312-.751.709-.013.207.145.382.352.395.204.013.386-.147.399-.354h1.034l.003.008c.013.198.178.351.374.351l.025-.003zm3.011 0c.207-.013.363-.192.35-.398-.026-.397-.356-.708-.751-.708h-1.034c-.395 0-.725.311-.751.708-.013.207.145.382.351.395.205.011.386-.146.4-.354h1.034l.003.008c.013.198.178.351.374.351l.024-.002zm3.012 0c.206-.013.363-.191.35-.398-.025-.397-.355-.709-.751-.709h-1.035c-.396 0-.726.312-.751.709-.013.207.145.382.351.395.207.013.386-.147.399-.354h1.034l.003.007c.013.199.178.351.374.351l.026-.001zm3.011 0c.207-.013.363-.191.35-.398-.025-.397-.355-.709-.75-.709h-1.035c-.396 0-.726.312-.751.709-.013.207.145.382.352.395.191.007.386-.147.399-.354h1.035l.003.007c.012.199.177.351.373.351l.024-.001zm3.013 0c.207-.013.363-.191.35-.398-.025-.397-.355-.709-.75-.709H22.05c-.395 0-.725.311-.751.708-.014.207.144.381.351.395.215.021.387-.147.4-.353h1.036l.003.007c.012.199.177.351.373.351l.025-.001zm3.012 0c.207-.014.363-.192.349-.399-.026-.397-.356-.708-.751-.708h-1.036c-.395 0-.726.312-.75.709-.013.207.145.382.351.395.213.014.386-.147.399-.354h1.035l.003.008c.013.198.178.35.374.35l.026-.001zm3.012 0c.207-.014.363-.192.349-.399-.026-.397-.356-.708-.751-.708h-1.035c-.396 0-.726.312-.751.709-.013.207.145.382.351.395.188.007.386-.147.399-.354h1.035l.003.008c.013.198.178.35.374.35l.026-.001zm1.275 1.014c0-.207-.168-.375-.375-.375H5.734c-.207 0-.375.168-.375.375s.168.375.375.375h24.677c.208 0 .375-.168.375-.375z"/>
</svg>
