<svg xmlns="http://www.w3.org/2000/svg" viewBox="0 0 36 36" enable-background="new 0 0 36 36">
   <path fill="#0568ae" d="M21.506 17.352c.473.475.312.864-.359.864h-1.849v7.727l-.007-.016.005.016c0 .476-.389.867-.859.867h-3.255v-5.687c0-.287-.225-.518-.5-.518h-3.882c-.273 0-.498.231-.498.518v5.687h-3.283c-.472 0-.862-.39-.862-.867v-7.727h-1.846c-.671 0-.832-.389-.359-.864l7.976-8.007c.215-.211.5-.328.8-.328.303 0 .587.116.802.328l7.976 8.007zm10.79 7.116l-.107-.624c-.175-.975-.493-2.479-.879-3.233-.264-.589-1.058-1.069-2.1-1.301l-.026-.006.039-.029c.495-.328.867-.825 1.034-1.409.064-.219.099-.449.099-.69 0-1.392-1.128-2.517-2.52-2.517-1.391 0-2.519 1.125-2.519 2.517 0 .246.037.481.102.704.167.567.527 1.049 1.003 1.375l.067.049-.047.011c-.888.201-1.596.583-1.942 1.06l-.137.234c-.107.211-.209.48-.305.779-.247.774-.448 1.753-.575 2.456l-.108.624-.032.298c0 .73.776 1.372 1.962 1.753.72.231 1.59.366 2.53.366 2.49 0 4.484-.945 4.484-2.118l-.023-.299z" fill="#0568ae"/>
</svg>