<svg xmlns="http://www.w3.org/2000/svg" viewBox="0 0 35.999 36" enable-background="new 0 0 35.999 36"><path d="M18.513 21.577v-1.97c0-.344-.28-.623-.624-.623h-2.308c-.344 0-.623.279-.623.623v1.97c0 .344.279.624.623.624h2.308c.344 0 .624-.28.624-.624zm-.75-.126h-2.054v-1.717h2.054v1.717zm-4.468 1.668h-2.308c-.345 0-.624.279-.624.623v1.969c0 .344.279.624.624.624h2.308c.344 0 .623-.28.623-.624v-1.969c0-.343-.279-.623-.623-.623zm-.127 2.467h-2.055v-1.716h2.055v1.716zm.127-6.601h-2.308c-.345 0-.624.279-.624.623v1.97c0 .344.279.624.624.624h2.308c.344 0 .623-.28.623-.624v-1.97c0-.344-.279-.623-.623-.623zm-.127 2.466h-2.055v-1.717h2.055v1.717zm.127-6.601h-2.308c-.345 0-.624.28-.624.623v1.97c0 .344.279.624.624.624h2.308c.344 0 .623-.28.623-.624v-1.97c0-.343-.279-.623-.623-.623zm-.127 2.467h-2.055v-1.717h2.055v1.717zm2.413.75h2.308c.344 0 .624-.28.624-.624v-1.97c0-.344-.28-.623-.624-.623h-2.308c-.344 0-.623.28-.623.623v1.97c0 .344.28.624.623.624zm.127-2.467h2.054v1.717h-2.054v-1.717zm9.515 10.883h-2.308c-.343 0-.624.28-.624.624v1.969c0 .344.28.624.624.624h2.308c.344 0 .623-.28.623-.624v-1.969c0-.343-.279-.624-.623-.624zm-.127 2.468h-2.055v-1.717h2.055v1.717zm4.04-12.5h-2.308c-.344 0-.624.28-.624.624v1.97c0 .344.279.624.624.624h2.308c.343 0 .623-.28.623-.624v-1.97c0-.344-.279-.624-.623-.624zm-.127 2.467h-2.054v-1.717h2.054v1.717zm.127-6.602h-2.308c-.345 0-.624.28-.624.624v1.969c0 .344.279.624.624.624h2.308c.344 0 .623-.28.623-.624v-1.969c0-.344-.279-.624-.623-.624zm-.127 2.467h-2.055v-1.717h2.055v1.717zm3.149-2.978v18.828c0 .207-.168.375-.375.375s-.375-.168-.375-.375v-18.828c0-.636-.517-1.153-1.152-1.153h-5.856v4.079c0 .207-.168.375-.375.375s-.375-.168-.375-.375v-8.051c0-.517-.421-.938-.938-.938h-8.053c-.516 0-.936.421-.936.938v5.631h5.372c.931 0 1.689.757 1.689 1.688v10.175h5.645c.931 0 1.688.758 1.688 1.688v4.77c0 .207-.168.375-.375.375-.208 0-.375-.168-.375-.375v-4.77c0-.518-.42-.938-.938-.938h-8.931c-.518 0-.938.421-.938.938v4.77c0 .207-.168.375-.375.375s-.375-.168-.375-.375v-4.77c0-.931.757-1.688 1.687-1.688h2.536v-10.174c0-.518-.421-.938-.939-.938h-9.347c-.517-.001-.937.42-.937.938v7.149c0 .207-.168.375-.375.375s-.375-.168-.375-.375v-2.468h-2.318c-.635 0-1.151.517-1.151 1.152v10.8c0 .207-.168.375-.375.375s-.375-.168-.375-.375v-10.8c0-1.049.853-1.903 1.901-1.903h2.318v-3.93c0-.931.757-1.688 1.688-1.688h3.226v-5.632c0-.931.756-1.688 1.686-1.688h8.053c.931 0 1.688.757 1.688 1.688v3.222h5.856c1.048 0 1.901.853 1.901 1.903zm-16.194-4.408c-.344 0-.623.28-.623.623v1.97c0 .344.279.624.623.624h2.309c.343 0 .624-.28.624-.624v-1.97c0-.344-.28-.623-.624-.623h-2.309zm2.183 2.467h-2.056v-1.717h2.056v1.717z" fill="#0568ae"/></svg>