<svg xmlns="http://www.w3.org/2000/svg" viewBox="0 0 35.999 36" enable-background="new 0 0 35.999 36"><path d="M25.905 25.046h-8.116c-.722 0-1.313.591-1.313 1.313v5.557h10.742v-5.557c0-.722-.592-1.313-1.313-1.313zm-.957 4.526c0 .137-.111.249-.248.249h-2.309c-.136 0-.248-.112-.248-.249v-1.969c0-.136.112-.248.248-.248h2.309c.137 0 .248.112.248.248v1.969zm6.94-20.374h-7.483v-3.674c0-.792-.648-1.44-1.44-1.44h-8.7c-.792 0-1.44.648-1.44 1.44v7.07h-3.473c-.792 0-1.44.648-1.44 1.44v4.767h-3.801c-.792 0-1.44.648-1.44 1.44v11.675h12.306v-5.557c0-1.551 1.262-2.813 2.813-2.813h8.116c1.551 0 2.813 1.262 2.813 2.813v5.557h4.609v-21.279c0-.792-.648-1.439-1.44-1.439zm-18.868 16.417c0 .136-.111.248-.248.248h-2.308c-.137 0-.249-.112-.249-.248v-1.97c0-.137.112-.249.249-.249h2.308c.137 0 .248.112.248.249v1.97zm0-4.135c0 .137-.111.248-.248.248h-2.308c-.137 0-.249-.112-.249-.248v-1.97c0-.136.112-.248.249-.248h2.308c.137 0 .248.112.248.248v1.97zm0-4.134c0 .137-.111.249-.248.249h-2.308c-.137 0-.249-.112-.249-.249v-1.97c0-.136.112-.248.249-.248h2.308c.137 0 .248.112.248.248v1.97zm4.595 4.134c0 .137-.112.248-.248.248h-2.308c-.137 0-.248-.112-.248-.248v-1.97c0-.136.111-.248.248-.248h2.308c.137 0 .248.112.248.248v1.97zm0-4.134c0 .137-.112.249-.248.249h-2.308c-.137 0-.248-.112-.248-.249v-1.97c0-.136.111-.248.248-.248h2.308c.137 0 .248.112.248.248v1.97zm.384-8.639c0 .137-.113.249-.248.249h-2.309c-.136 0-.248-.112-.248-.249v-1.97c0-.136.112-.248.248-.248h2.309c.135 0 .248.112.248.248v1.97zm12.93 9.295c0 .137-.111.249-.248.249h-2.308c-.137 0-.249-.112-.249-.249v-1.969c0-.137.111-.248.249-.248h2.308c.136 0 .248.112.248.248v1.969zm0-4.134c0 .137-.11.249-.248.249h-2.308c-.137 0-.249-.112-.249-.249v-1.969c0-.137.112-.249.249-.249h2.308c.138 0 .248.112.248.249v1.969z" fill="#0568ae"/></svg>