<svg xmlns="http://www.w3.org/2000/svg" viewBox="0 0 36 36" enable-background="new 0 0 36 36"><path d="M26.453 29.277h-6.743c-.207 0-.375-.168-.375-.375s.168-.375.375-.375h6.743c.19 0 .345-.155.345-.345v-19.903c0-.19-.155-.345-.345-.345h-6.743c-.207 0-.375-.168-.375-.375s.168-.375.375-.375h6.743c.604 0 1.095.491 1.095 1.095v19.903c0 .604-.491 1.095-1.095 1.095zm-8.893 3.48c.231-.151.364-.42.364-.738v-28.056c0-.321-.133-.588-.367-.733-.233-.145-.531-.146-.82-.004l-7.431 3.678c-.479.237-.854.841-.854 1.375v19.903c0 .541.388 1.135.883 1.353l7.404 3.257c.133.059.267.087.396.087.154.001.299-.04.425-.122zm-.386-28.794v28.057l-.023.109-.11-.023-7.404-3.257c-.228-.1-.435-.418-.435-.667v-19.903c0-.255.208-.59.437-.703l7.431-3.678.088-.032.016.097zm-1.125 15.937c0-.538-.436-.974-.973-.974-.538 0-.973.436-.973.974 0 .537.436.973.973.973.537 0 .973-.436.973-.973z" fill="#0568ae"/></svg>