<svg xmlns="http://www.w3.org/2000/svg" viewBox="0 0 36 36" enable-background="new 0 0 36 36"><path d="M25.498 6.548h-7.884v-2.585c0-.488-.32-.843-.761-.843-.14 0-.284.036-.426.106l-7.431 3.678c-.479.237-.854.841-.854 1.375v19.903c0 .541.388 1.135.883 1.353l7.404 3.257c.132.058.265.088.396.088.458 0 .79-.362.79-.861v-2.134h7.884c1.301 0 2.36-1.059 2.36-2.36v-18.617c-.001-1.301-1.059-2.36-2.361-2.36zm-10.732 14.575c-.675 0-1.223-.549-1.223-1.223 0-.675.549-1.224 1.223-1.224s1.223.549 1.223 1.224c0 .674-.549 1.223-1.223 1.223zm11.092 6.403c0 .198-.162.36-.36.36h-7.884v-19.338h7.884c.198 0 .36.162.36.36v18.618z" fill="#0568ae"/></svg>