<svg xmlns="http://www.w3.org/2000/svg" viewBox="0 0 36 36" enable-background="new 0 0 36 36"><path d="M10.227 8.404c-.112-.175-.061-.406.114-.518.175-.112.406-.06.518.114l.119.19c.587.935 1.57 2.5 3.651 2.538 2.057-.038 3.053-1.645 3.649-2.606l.25-.4c.631-1.018 1.807-2.914 4.283-2.959 2.499.045 3.661 1.895 4.285 2.888l.116.184c.111.174.06.406-.114.518-.174.112-.406.061-.518-.114l-.12-.189c-.587-.935-1.569-2.499-3.649-2.537-2.055.038-3.051 1.644-3.646 2.604l-.25.401c-.632 1.019-1.808 2.915-4.286 2.961-2.5-.045-3.661-1.895-4.286-2.889l-.116-.186zm21.007 17.74v3.996c0 .647-.49 1.099-1.191 1.099h-24.027c-.917 0-1.25-.821-1.25-1.374v-12.747c0-.356.212-.674.542-.811.329-.137.706-.063.958.188l5.135 5.132.013-4.511c0-.355.213-.674.543-.81.331-.136.706-.062.957.189l5.14 5.141.008-4.52c0-.355.212-.674.542-.81.33-.137.704-.063.958.189l4.923 4.921v-10.205c0-.407.336-.738.747-.738h3.708c.407 0 .739.331.739.738v12.737l1.212 1.308c.22.238.343.553.343.888zm-.751 0c0-.141-.051-.279-.143-.377l-1.313-1.417c-.064-.069-.1-.16-.1-.255v-12.884l-3.697.012.003 11.098c0 .152-.091.289-.231.346-.14.059-.301.026-.409-.081l-5.564-5.56c-.053-.052-.11-.04-.14-.027-.03.012-.08.044-.08.118l-.013 7.444c0 .207-.168.375-.375.375-.208 0-.375-.168-.375-.375l.003-1.865-5.668-5.669c-.052-.052-.11-.04-.139-.027-.03.012-.08.044-.08.118l-.015 5.34v.182l-.006 1.922c0 .206-.168.374-.375.374h-.002c-.206 0-.374-.169-.373-.376l.005-1.875-5.661-5.659c-.05-.052-.108-.039-.139-.026-.03.012-.08.044-.08.118v12.747c0 .025.006.624.5.624h24.026c.165 0 .441-.045.441-.349v-3.996z" fill="#0568ae"/></svg>