<svg xmlns="http://www.w3.org/2000/svg" viewBox="0 0 36 36" enable-background="new 0 0 36 36"><path d="M14.613 12.876c-3.005-.054-4.381-2.245-5.043-3.298l-.112-.178c-.372-.582-.202-1.355.379-1.727.582-.372 1.354-.202 1.726.379l.124.196c.694 1.106 1.44 2.101 2.925 2.128 1.426-.027 2.183-1.052 2.889-2.192l.25-.401c.668-1.077 2.058-3.319 5.011-3.373 3.004.054 4.38 2.245 5.042 3.297l.112.178c.372.582.202 1.354-.379 1.727-.582.373-1.355.202-1.727-.379l-.123-.195c-.694-1.106-1.441-2.1-2.924-2.128-1.425.027-2.18 1.052-2.886 2.191l-.25.4c-.669 1.078-2.059 3.321-5.014 3.375zm16.031 13.346l-1.312-1.419v-12.914c0-.202-.164-.366-.366-.366h-3.721c-.201 0-.367.164-.367.366v11.002h-.14l-5.44-5.439c-.317-.318-.862-.093-.862.357l-.008 5.433-5.794-5.791c-.318-.318-.862-.093-.862.357l-.012 5.439-5.79-5.796c-.318-.318-.863-.093-.863.357v12.778c0 .327.174 1.001.879 1.001h24.085c.456 0 .819-.255.819-.725v-4.007c.002-.232-.086-.461-.246-.633z" fill="#0568ae"/></svg>