<svg xmlns="http://www.w3.org/2000/svg" viewBox="0 0 36 36"><path fill="#0568ae" d="M24.2 6.5H9.8c-.8 0-1.5.7-1.5 1.5v19c0 .8.6 1.4 1.4 1.4h1.9V22c0-.2.2-.4.4-.4h3.3c.2 0 .4.2.4.4v6.5h3.9c-.1-.5-.1-1-.1-1.5 0-3.7 2.7-6.7 6.2-7.4V8c0-.8-.7-1.5-1.5-1.5zm-8.5 12.3c0 .2-.2.4-.4.4H12c-.2 0-.4-.2-.4-.4V16c0-.2.2-.4.4-.4h3.3c.2 0 .4.2.4.4v2.8zm0-6c0 .2-.2.4-.4.4H12c-.2 0-.4-.2-.4-.4V10c0-.2.2-.4.4-.4h3.3c.2 0 .4.2.4.4v2.8zm6.7 6c0 .2-.2.4-.4.4h-3.3c-.2 0-.4-.2-.4-.4V16c0-.2.2-.4.4-.4H22c.2 0 .4.2.4.4v2.8zm0-6c0 .2-.2.4-.4.4h-3.3c-.2 0-.4-.2-.4-.4V10c0-.2.2-.4.4-.4H22c.2 0 .4.2.4.4v2.8zM27 21c-3.3 0-6 2.7-6 6s2.7 6 6 6 6-2.7 6-6-2.7-6-6-6zm2.1 6.5c.1.2.2.5.2.8 0 .5-.2.9-.5 1.2s-.8.5-1.3.6v.9h-.8v-.9c-.4 0-.8-.1-1.1-.2-.3-.1-.6-.2-.9-.4l.3-1c.5.3 1 .4 1.6.4v-1.6c-.5-.1-.8-.3-1.1-.5s-.5-.4-.6-.6-.2-.5-.2-.8c0-.5.2-.9.5-1.2.3-.3.8-.5 1.4-.6V23h.8v.9c.3 0 .6.1.8.2.3.1.5.2.7.3l-.3 1c-.4-.2-.9-.3-1.3-.4v1.5c.5.1.8.3 1.1.4.4.1.6.3.7.6zm-2.5-1.3v-1.3c-.4.1-.6.3-.6.6 0 .2.1.3.1.4.1.1.3.2.5.3zM28 28c.1.1.2.2.2.4 0 .3-.2.6-.7.7v-1.3c.2 0 .4.1.5.2z"/></svg>