<svg xmlns="http://www.w3.org/2000/svg" viewBox="0 0 36 36"><path fill="#0568ae" d="M19.3 13.9h3.3c.4 0 .7-.3.7-.7v-2.9c0-.4-.3-.7-.7-.7h-3.3c-.4 0-.7.3-.7.7v2.9c-.1.4.3.7.7.7zm3.3-3.6v2.8h-3.3v-2.8h3.3zm-4.1 8.9c0 .4.3.7.7.7h3.3c.4 0 .7-.3.7-.7v-2.9c0-.4-.3-.7-.7-.7h-3.3c-.4 0-.7.3-.7.7v2.9zm4.1-2.9v2.8h-3.3v-2.8h3.3zm-10-2.4h3.3c.4 0 .7-.3.7-.7v-2.9c0-.4-.3-.7-.7-.7h-3.3c-.4 0-.7.3-.7.7v2.9c0 .4.3.7.7.7zm3.3-3.6v2.8h-3.3v-2.8h3.3zm-4 8.9c0 .4.3.7.7.7h3.3c.4 0 .7-.3.7-.7v-2.9c0-.4-.3-.7-.7-.7h-3.3c-.4 0-.7.3-.7.7v2.9zm4-2.9v2.8h-3.3v-2.8h3.3zm10.8 4.2V8.8c0-1.3-1-2.3-2.3-2.3H10.9c-1.3 0-2.3 1-2.3 2.3v14.1c0 .2.2.4.4.4s.4-.2.4-.4V8.8c0-.8.7-1.5 1.5-1.5h13.5c.8 0 1.5.7 1.5 1.5v11.7c-3.2.4-5.7 3.1-5.7 6.3 0 .6.1 1.1.2 1.6h-3.8v-6.1c0-.4-.3-.7-.7-.7h-3.3c-.4 0-.7.3-.7.7v6.1h-1.4c-.2 0-.4.2-.4.4s.2.4.4.4h10.3c.9 2.4 3.2 4 5.9 4 3.5 0 6.4-2.9 6.4-6.4-.1-3.5-2.9-6.3-6.4-6.3zm-10.8 7.9h-3.3v-6.1h3.3v6.1zm10.7 4.1c-3.1 0-5.6-2.5-5.6-5.6 0-3.1 2.5-5.6 5.6-5.6 3.1 0 5.6 2.5 5.6 5.6.1 3-2.5 5.6-5.6 5.6zm-.2-1.7v-.9c-.3 0-.7-.1-1-.2-.3-.1-.6-.2-.8-.4l.2-.5c.5.3 1.1.5 1.6.5V27c-.6-.2-1-.4-1.3-.6-.2-.2-.4-.6-.4-1s.2-.8.5-1.1c.3-.3.7-.5 1.2-.5V23h.6v.8c.5 0 1 .2 1.5.5l-.2.5c-.4-.2-.9-.4-1.3-.4v2.2c.6.2 1.1.4 1.4.7.3.3.4.6.4 1 0 .5-.2.9-.5 1.2-.3.3-.7.5-1.3.6v.9h-.6zm-1.1-5.5c0 .3.1.5.2.6.2.1.4.3.8.4v-2c-.3 0-.6.1-.8.3-.1.2-.2.4-.2.7zm2.8 2.9c0-.3-.1-.5-.2-.7-.2-.2-.4-.3-.9-.4v2.2c.4-.1.6-.2.8-.4.2-.1.3-.4.3-.7z"/></svg>