<svg xmlns="http://www.w3.org/2000/svg" viewBox="7.295 7.001 36 36" enable-background="new 7.295 7.001 36 36"><path d="M39.251 21.933c.369.369.243.672-.28.672h-1.959v11.481c0 .806-.654 1.462-1.462 1.462h-1.305v-9.7c0-.5-.406-.908-.909-.908h-16.045c-.502 0-.91.408-.91.908v9.7h-1.301c-.809 0-1.464-.656-1.464-1.462v-11.48h-1.998c-.522 0-.648-.303-.279-.672l6.8-6.807c.372-.37 1.099-.672 1.623-.672h11.066c.522 0 1.253.302 1.622.672l6.801 6.806m-14.534 5.211c0-.198-.162-.36-.36-.36h-6.404c-.198 0-.36.162-.36.36v2.852c0 .198.162.36.36.36h6.404c.198 0 .36-.162.36-.36v-2.852zm8.343 0c0-.198-.162-.36-.36-.36h-6.32c-.198 0-.36.162-.36.36v2.852c0 .198.162.36.36.36h6.32c.198 0 .36-.162.36-.36v-2.852z" fill="#0568ae"/></svg>