<svg xmlns="http://www.w3.org/2000/svg" viewBox="7.272 7.001 36 36" enable-background="new 7.272 7.001 36 36"><path d="M40.069 21.992l-7.081-7.089c-.454-.454-1.313-.81-1.955-.81h-11.523c-.644 0-1.502.356-1.954.81l-7.082 7.089c-.146.147-.146.384 0 .531.073.073.169.11.265.11s.192-.037.265-.11l2.205-2.207-.008 13.904c0 .932.758 1.69 1.69 1.69h20.759c.931 0 1.689-.758 1.689-1.69l.002-13.897 2.198 2.2c.146.146.383.147.53 0 .146-.147.146-.384 0-.531zm-3.478-2.322l-.002 14.549c0 .518-.421.94-.939.94h-1.585v-10.817c0-.679-.552-1.231-1.231-1.231h-15.123c-.679 0-1.232.552-1.232 1.231v8.503c0 .207.168.375.375.375s.375-.168.375-.375v-8.503c0-.265.216-.481.482-.481h15.123c.265 0 .481.216.481.481v10.817h-18.424c-.518 0-.94-.422-.94-.94l.009-14.577-.013-.064 4.141-4.145c.312-.314.977-.589 1.423-.589h11.522c.445 0 1.111.276 1.425.59l4.15 4.154-.017.082zm-4.76 5.347h-13.119c-.207 0-.375.168-.375.375v3.531c0 .207.168.375.375.375h13.119c.207 0 .375-.168.375-.375v-3.531c0-.207-.168-.375-.375-.375zm-12.744.75h5.81v2.781h-5.81v-2.781zm12.369 2.781h-5.81v-2.781h5.81v2.781z" fill="#0568ae"/></svg>