<svg xmlns="http://www.w3.org/2000/svg" viewBox="0 0 50 50" enable-background="new 0 0 50 50"><g fill="#0568ae"><circle cx="17.314" cy="28.503" r="1.615"/><circle cx="30.412" cy="28.503" r="1.615"/><path d="M28.66 20.86h-9.578l-1.019 4.129 11.624-.006zm14.604-.121l-9.444-9.454c-.513-.514-1.528-.933-2.253-.933h-15.373c-.728 0-1.739.419-2.254.933l-9.444 9.454c-.512.513-.338.933.388.933h2.776v15.946c0 1.119.91 2.031 2.033 2.031h28.431c1.122 0 2.031-.911 2.031-2.031v-15.944h2.721c.725 0 .9-.421.388-.935zm-9.356 11.817c0 .679-.553 1.232-1.232 1.232h-.765v2.008c0 .828-.669 1.499-1.497 1.499-.828 0-1.5-.671-1.5-1.499v-2.008h-10.103v2.008c0 .828-.671 1.499-1.499 1.499-.828 0-1.499-.671-1.499-1.499v-2.008h-.763c-.679 0-1.232-.553-1.232-1.232v-4.867c0-1.263.885-2.339 2.078-2.626l1.225-4.951c.214-.772.951-1.335 1.725-1.335h10.046c.772 0 1.511.56 1.719 1.303l1.243 4.993c1.175.294 2.051 1.353 2.051 2.618v4.865h.003z"/></g></svg>