<svg xmlns="http://www.w3.org/2000/svg" viewBox="0 0 36 36" enable-background="new 0 0 36 36"><path d="M29.774 28.46c0 .207-.168.375-.375.375h-22.799c-.207 0-.374-.168-.374-.375s.168-.375.374-.375h22.8c.206 0 .374.168.374.375zm1.526 1.49h-26.6c-.207 0-.375.168-.375.375s.168.375.375.375h26.6c.207 0 .375-.168.375-.375s-.168-.375-.375-.375zm-1.9-14.845h-22.8c-.207 0-.374.168-.374.375s.168.375.374.375h1.129l-.008 10.554c0 .207.168.375.374.375h.001c.207 0 .375-.168.375-.375l.008-10.554h3.213v10.554c0 .207.168.375.375.375s.375-.168.375-.375v-10.554h3.218v10.554c0 .207.168.375.375.375s.375-.168.375-.375v-10.554h3.218v10.554c0 .207.168.375.375.375s.375-.168.375-.375v-10.554h3.217v10.554c0 .207.168.375.375.375s.375-.168.375-.375v-10.554h3.22l-.003 10.554c0 .207.168.375.375.375.206 0 .375-.168.375-.375l.002-10.554h1.086c.206 0 .375-.168.375-.375-.001-.207-.169-.375-.375-.375zm-9.777-5.275c0 .884-.719 1.604-1.604 1.604-.884 0-1.603-.719-1.603-1.604 0-.884.719-1.603 1.603-1.603.884-.001 1.604.719 1.604 1.603zm-.75 0c0-.471-.383-.853-.854-.853s-.853.383-.853.853c0 .471.383.854.853.854.471-.001.854-.384.854-.854zm-14.141 3.793c-.043-.143-.051-.424.37-.697l12.113-7.829c.443-.286 1.175-.285 1.616.002l12.07 7.826c.422.274.414.555.371.698s-.188.383-.69.383h-25.16c-.502 0-.648-.24-.69-.383zm1.241-.367h24.06l-11.611-7.528c-.198-.129-.602-.129-.801-.001l-11.648 7.529z" fill="#0568ae"/></svg>