<svg xmlns="http://www.w3.org/2000/svg" viewBox="0 0 36 36" enable-background="new 0 0 36 36"><path d="M30.3 31.379h-24.6c-.552 0-1-.448-1-1s.448-1 1-1h24.6c.552 0 1 .448 1 1s-.448 1-1 1zm.851-17.739c-.04.134-.171.294-.57.294h-25.159c-.399 0-.53-.16-.57-.294-.04-.134-.017-.339.318-.557l12.112-7.828c.403-.26 1.079-.259 1.48.001l12.071 7.826c.336.219.358.424.318.558zm-11.903-3.757c0-.678-.551-1.228-1.229-1.228-.679 0-1.228.55-1.228 1.228 0 .678.55 1.229 1.228 1.229.678 0 1.229-.551 1.229-1.229zm9.152 15.996h-.779v-9.903c0-.297-.243-.54-.54-.54h-1.576c-.297 0-.54.243-.54.54v9.903h-1.461v-9.903c0-.297-.243-.54-.54-.54h-1.576c-.297 0-.54.243-.54.54v9.903h-1.462v-9.903c0-.297-.243-.54-.54-.54h-1.576c-.297 0-.54.243-.54.54v9.903h-1.461v-9.903c0-.297-.243-.54-.54-.54h-1.576c-.297 0-.54.243-.54.54v9.903h-1.463v-9.903c0-.297-.243-.54-.54-.54h-1.577c-.297 0-.54.243-.54.54v9.903h-.893c-.552 0-1 .448-1 1s.448 1 1 1h20.8c.552 0 1-.448 1-1s-.448-1-1-1z" fill="#0568ae"/></svg>