<svg xmlns="http://www.w3.org/2000/svg" viewBox="0 0 36 36" enable-background="new 0 0 36 36"><path d="M29.32 22.312c3.314 0 6 2.686 6 6s-2.686 6-6 6-6-2.686-6-6 2.687-6 6-6m3.277 4.878c-.009-.311-.033-.596-.058-.839l-.036-.329-.015-.069c-.022-.069-.064-.13-.119-.174l-.092-.054-.107-.025c-.31-.024-.587-.071-.836-.133-.374-.092-.683-.216-.939-.343-.257-.127-.46-.257-.623-.361l-.155-.097-.133-.075-.163-.038-.163.038-.289.173c-.325.207-.815.519-1.561.703-.249.061-.526.108-.835.133l-.123.032c-.114.052-.196.16-.211.29-.055.486-.148 1.301-.065 2.157.05.513.163 1.041.385 1.522.119.259.289.53.479.798l.19.267c.137.171.285.337.444.494.239.235.501.447.78.62s.575.307.881.383l.044.006.044.006.044-.006.044-.006c.773-.193 1.48-.748 2.017-1.385l.301-.39c.185-.264.34-.532.458-.786.148-.32.247-.662.312-1.006.095-.517.114-1.04.1-1.506zm-5.54 1.985c-.343-.92-.281-2.042-.208-2.76 1.235-.161 1.999-.648 2.438-.928l.032-.021.048.031c.408.26 1.131.715 2.279.894l-4.589 2.784zm4.445.212c-.396.859-1.264 1.845-2.181 2.122-.502-.154-1.037-.549-1.502-1.094l4.011-2.45c-.035.487-.126.986-.328 1.422zm-9.461.697c-.139-.569-.22-1.161-.22-1.772 0-2.578 1.308-4.856 3.294-6.206v-3.043h2.371c.86 0 1.067-.499.46-1.108l-10.229-10.269c-.276-.271-.641-.42-1.029-.42-.385 0-.75.149-1.026.42l-10.23 10.269c-.607.609-.4 1.108.46 1.108h2.369v9.91c0 .61.499 1.111 1.106 1.111h4.21v-7.293c0-.368.289-.664.639-.664h4.98c.352 0 .641.296.641.664v7.293h2.204zm-15.894-20.166c1.012-1.483 2.613-2.477 4.392-2.728.412-.058.699-.44.641-.852s-.437-.699-.852-.641c-2.197.31-4.175 1.538-5.426 3.369h-.001c-.708 1.036-1.15 2.19-1.313 3.431-.054.413.237.791.649.845l.099.007c.373 0 .697-.276.747-.656.132-1.002.49-1.936 1.064-2.775zm5.726-1.087c-.056-.413-.437-.703-.849-.645-1.605.219-3.052 1.113-3.969 2.453v.001c-.516.756-.836 1.593-.953 2.49-.054.413.237.791.65.845l.098.006c.373 0 .697-.277.747-.656.086-.659.323-1.276.704-1.835.677-.989 1.744-1.649 2.927-1.81.412-.056.701-.436.645-.849zm-7.906-.558c1.39-2.03 3.591-3.332 6.04-3.575.414-.041.717-.41.676-.824-.041-.414-.413-.716-.824-.676-2.894.286-5.494 1.825-7.136 4.223l-.001.002c-.922 1.346-1.495 2.906-1.658 4.511-.042.414.26.784.674.826l.077.004c.382 0 .71-.29.749-.678.138-1.355.623-2.673 1.403-3.813z" fill="#0568ae"/></svg>