<svg xmlns="http://www.w3.org/2000/svg" viewBox="0 0 36 36" enable-background="new 0 0 36 36"><path d="M5.149 11.256c-.019.193-.183.338-.373.338l-.038-.002c-.205-.021-.356-.204-.335-.41.164-1.653.775-3.201 1.745-4.495.583-.777 1.294-1.463 2.116-2.025 1.23-.842 2.655-1.365 4.122-1.515.213-.02.391.129.411.335.021.206-.13.39-.336.411-1.342.136-2.647.616-3.774 1.387-2.007 1.374-3.297 3.552-3.538 5.976zm5.992-2.66c-1.191.816-1.987 2.102-2.182 3.529-.028.205.115.395.321.423l.051.003c.184 0 .345-.136.371-.324.167-1.218.846-2.316 1.863-3.012.572-.39 1.205-.633 1.887-.722.205-.027.35-.215.323-.421-.026-.205-.215-.352-.42-.323-.798.105-1.543.39-2.213.848h-.001zm-1.39-1.941v.001c-1.66 1.133-2.772 2.924-3.051 4.914-.029.205.114.395.319.423l.053.004c.184 0 .345-.135.372-.323.249-1.781 1.245-3.385 2.731-4.399h.001c.158-.109.324-.202.49-.295l.159-.096.283-.128.397-.18.356-.112.357-.112c.242-.061.488-.108.74-.141.206-.027.35-.215.324-.42-.028-.206-.221-.352-.42-.324-.98.127-1.895.459-2.737.966l-.374.222zm23.61 20.352c0 3.515-2.86 6.375-6.375 6.375-1.591 0-3.043-.589-4.161-1.556h-11.966c-.86 0-1.559-.7-1.559-1.559l.006-13.514-3.207 3.037c-.15.142-.388.136-.53-.014-.142-.15-.136-.388.014-.53l12.173-11.527c.349-.349.822-.545 1.327-.545.511 0 .989.198 1.347.559l12.156 11.514c.15.142.156.38.015.53-.073.078-.173.117-.273.117-.093 0-.185-.034-.259-.103l-3.199-3.031v4.157c2.598.806 4.491 3.231 4.491 6.09zm-22.502 4.07h11.225c-.919-1.105-1.473-2.523-1.473-4.069 0-1.519.536-2.914 1.426-4.01l-.182-.055h-5.544c-.185 0-.335.15-.335.336v3.83c0 .207-.168.375-.375.375-.208 0-.375-.168-.375-.375v-3.83c0-.599.487-1.086 1.085-1.086h5.544c.258 0 .494.098.685.255 1.149-1.121 2.718-1.815 4.446-1.815.388 0 .766.04 1.134.107v-4.638l.009-.044-8.223-7.79c-.445-.446-1.193-.446-1.628-.012l-8.229 7.792.006.028-.007 14.192c.001.445.365.809.811.809zm21.752-4.07c0-3.102-2.524-5.625-5.625-5.625-3.102 0-5.625 2.523-5.625 5.625 0 3.101 2.523 5.625 5.625 5.625 3.101 0 5.625-2.523 5.625-5.625zm-2.072-2.333c.093.817.283 2.502-.351 3.875-.504 1.094-1.665 2.426-3.019 2.764l-.178.022-.176-.021c-1.098-.274-1.915-1.135-2.305-1.623h-.001c-.291-.364-.539-.758-.715-1.141-.636-1.375-.444-3.061-.35-3.871.038-.35.322-.625.676-.652 1.138-.089 1.787-.502 2.217-.775l.325-.194c.208-.103.449-.103.657.001l.324.191c.432.275 1.081.688 2.22.777.267.021.491.186.603.424l.007.007.008.023.028.056.001.007.002.005.009.043.001.009.017.073zm-.693.602l-4.221 2.56c-.061.037-.128.054-.194.054-.127 0-.25-.064-.32-.181-.108-.177-.052-.408.126-.515l4.087-2.478c-1.038-.169-1.677-.576-2.082-.833l-.256-.154-.218.136c-.491.313-1.266.805-2.591.909-.074.732-.25 2.276.297 3.46.125.271.3.546.497.813l3.684-2.25c.177-.107.407-.052.515.125.108.177.052.407-.125.516l-3.586 2.19c.484.487 1.024.829 1.535.957 1.059-.266 2.066-1.384 2.513-2.35.443-.957.411-2.145.339-2.959z" fill="#0568ae"/></svg>