<svg xmlns="http://www.w3.org/2000/svg" viewBox="0 0 36 36" enable-background="new 0 0 36 36"><path d="M30.578 18.312v14.382c0 .792-.648 1.44-1.44 1.44h-6.625v-6.156c0-.167-.138-.304-.304-.304h-3.122c-.167 0-.303.137-.303.304v6.156h-1.568v-6.156c0-.167-.138-.304-.304-.304h-3.122c-.167 0-.303.137-.303.304v6.156h-6.625c-.792 0-1.44-.648-1.44-1.44v-14.382c0-.792.648-1.44 1.44-1.44h4.215v-8.723c0-.792.648-1.44 1.44-1.44h10.926c.792 0 1.44.648 1.44 1.44v8.724h4.255c.792-.001 1.44.647 1.44 1.439zm-8.313-3.623c0-.158-.129-.287-.286-.287h-2.661c-.158 0-.287.129-.287.287v2.271c0 .158.129.287.287.287h2.661c.157 0 .286-.129.286-.287v-2.271zm0 4.767c0-.158-.128-.287-.286-.287h-2.662c-.157 0-.286.129-.286.287v2.271c0 .157.129.287.286.287h2.662c.158 0 .286-.129.286-.287v-2.271zm-5.297-4.767c0-.158-.128-.287-.286-.287h-2.662c-.157 0-.286.129-.286.287v2.271c0 .158.129.287.286.287h2.662c.157 0 .286-.129.286-.287v-2.271zm0-4.767c0-.158-.128-.287-.286-.287h-2.662c-.157 0-.286.129-.286.287v2.271c0 .158.129.287.286.287h2.662c.157 0 .286-.129.286-.287v-2.271zm5.297 0c0-.158-.128-.287-.286-.287h-2.661c-.158 0-.287.129-.287.287v2.271c0 .158.129.287.287.287h2.661c.158 0 .286-.129.286-.287v-2.271zm-5.297 9.534c0-.158-.128-.287-.286-.287h-2.662c-.157 0-.286.129-.286.287v2.271c0 .157.129.287.286.287h2.662c.157 0 .286-.129.286-.287v-2.271zm-2.217-16.56l-1.026-.149-.459-.93c-.042-.085-.129-.139-.224-.139s-.182.054-.224.139l-.459.93-1.026.149c-.094.014-.172.08-.202.17-.029.09-.005.19.063.256l.743.724-.177 1.023c-.016.094.022.188.099.244l.147.048.116-.029.918-.483.918.483c.084.045.187.037.263-.019.077-.056.116-.151.099-.244l-.176-1.023.743-.724c.068-.066.093-.166.063-.256-.027-.09-.105-.156-.199-.17zm4.958 0l-1.027-.149-.459-.93c-.084-.171-.364-.171-.448 0l-.459.93-1.026.149c-.094.014-.172.08-.202.17-.029.091-.005.19.063.256l.743.724-.175 1.023c-.016.094.022.188.099.244.077.056.179.064.263.019l.919-.482.918.483.116.029.147-.048c.077-.056.115-.151.099-.244l-.175-1.023.743-.724c.068-.066.092-.166.063-.256-.029-.091-.108-.157-.202-.171zm5.16.17c-.03-.091-.108-.157-.202-.17l-1.026-.149-.459-.93c-.084-.171-.364-.171-.448 0l-.459.93-1.026.149c-.094.014-.172.08-.202.17-.029.09-.005.19.063.256l.743.724-.176 1.023c-.016.094.022.188.099.244.077.056.179.064.264.019l.918-.483.918.483.117.029.147-.048c.077-.056.116-.151.099-.244l-.175-1.023.743-.724c.067-.066.092-.165.062-.256z" fill="#0568ae"/></svg>