<svg xmlns="http://www.w3.org/2000/svg" viewBox="0 0 36 36" enable-background="new 0 0 36 36"><path d="M12.68 8.361c.328 0 .636.126.869.355l8.642 8.676c.513.515.338.936-.389.936h-2.003l-.004 9.311h-4.455v-6.162c0-.311-.244-.561-.542-.561h-4.208c-.295 0-.54.251-.54.561v6.162h-3.556c-.512 0-.934-.423-.934-.939v-8.373h-2.001c-.727 0-.902-.421-.389-.936l8.643-8.676c.233-.229.541-.354.867-.354m20.444 18.357l-.007-.018.005.017c0 .506-.413.922-.913.922h-10.913l.003-7.811h.504c.968 0 1.732-.448 2.044-1.2.312-.751.09-1.609-.593-2.295l-4.551-4.569h9.362c.454 0 .88.174 1.203.491l3.372 3.376c.241.225.485.713.485 1.272v9.815zm-3.841-5.416c0-.198-.161-.36-.36-.36h-3.343c-.199 0-.36.162-.36.36v2.854c0 .198.161.36.36.36h3.343c.199 0 .36-.162.36-.36v-2.854z" fill="#0568ae"/></svg>