<svg xmlns="http://www.w3.org/2000/svg" viewBox="0 0 36 36" enable-background="new 0 0 36 36"><path d="M29.19 13.872h-3.524v-8.795c0-1.091-.888-1.979-1.979-1.979h-11.416c-1.091 0-1.979.888-1.979 1.979v8.795h-3.483c-1.09 0-1.977.888-1.977 1.979v11.164c0 .207.168.375.375.375s.375-.168.375-.375v-11.164c0-.678.55-1.229 1.227-1.229h3.838c.136 0 .283-.111.349-.23l.046-.181v-9.134c0-.677.551-1.229 1.229-1.229h11.416c.677 0 1.229.551 1.229 1.229v15.693c0 .207.168.375.375.375s.375-.168.375-.375v-6.148h3.524c.677 0 1.227.551 1.227 1.229v15.104c0 .677-.551 1.228-1.229 1.228h-9.102v-5.108c0-.375-.305-.679-.679-.679h-2.817c-.374 0-.678.304-.678.679v5.108h-8.975c-.207 0-.375.168-.375.375s.168.375.375.375h22.252c1.091 0 1.979-.888 1.979-1.978v-15.104c-.001-1.091-.888-1.979-1.978-1.979zm-12.528 13.273h2.676v5.037h-2.676v-5.037zm2.055-12.813c0 .374.305.679.679.679h2.818c.374 0 .678-.304.678-.679v-2.405c0-.374-.304-.678-.678-.678h-2.818c-.374 0-.679.304-.679.678v2.405zm.75-2.334h2.675v2.262h-2.675v-2.262zm-11.979 12.432c0 .374.305.679.679.679h2.817c.374 0 .679-.305.679-.679v-2.405c0-.374-.305-.679-.679-.679h-2.817c-.374 0-.679.305-.679.679v2.405zm.75-2.334h2.675v2.263h-2.675v-2.263zm4.869-2.715c0 .374.304.679.678.679h2.819c.373 0 .678-.305.678-.679v-2.405c0-.374-.305-.679-.678-.679h-2.819c-.374 0-.678.304-.678.679v2.405zm.75-2.334h2.675v2.263h-2.675v-2.263zm-5.69 3.013h2.817c.374 0 .679-.305.679-.679v-2.405c0-.374-.305-.679-.679-.679h-2.817c-.374 0-.679.304-.679.679v2.405c0 .374.305.679.679.679zm.071-3.013h2.675v2.263h-2.675v-2.263zm4.869-2.715c0 .374.304.679.678.679h2.819c.373 0 .678-.304.678-.679v-2.405c0-.374-.305-.678-.678-.678h-2.819c-.374 0-.678.304-.678.678v2.405zm.75-2.334h2.675v2.262h-2.675v-2.262zm-.072-2.037h2.819c.373 0 .678-.304.678-.679v-2.405c0-.374-.305-.678-.678-.678h-2.819c-.374 0-.678.304-.678.678v2.405c0 .375.304.679.678.679zm.072-3.012h2.675v2.262h-2.675v-2.262zm5.539 3.012h2.818c.374 0 .678-.304.678-.679v-2.405c0-.374-.304-.678-.678-.678h-2.818c-.374 0-.679.304-.679.678v2.405c0 .375.305.679.679.679zm.071-3.012h2.675v2.262h-2.675v-2.262z" fill="#0568ae"/></svg>