<svg xmlns="http://www.w3.org/2000/svg" viewBox="0 0 36 36" enable-background="new 0 0 36 36"><path d="M30.792 15.644v15.457c0 .792-.648 1.44-1.44 1.44h-9.488v-5.483c0-.167-.138-.304-.304-.304h-3.122c-.167 0-.303.137-.303.304v5.483h-9.487c-.792 0-1.44-.648-1.44-1.44v-15.457c0-.792.648-1.44 1.44-1.44h4.18v-9.306c0-.792.648-1.44 1.44-1.44h11.466c.792 0 1.44.648 1.44 1.44v9.306h4.18c.791 0 1.438.648 1.438 1.44zm-8.274-3.733c0-.167-.137-.304-.303-.304h-2.818c-.167 0-.304.137-.304.304v2.405c0 .167.137.304.304.304h2.818c.166 0 .303-.137.303-.304v-2.405zm-11.23 10.099c0-.167-.138-.304-.304-.304h-2.817c-.168 0-.304.137-.304.304v2.405c0 .167.136.303.304.303h2.817c.166 0 .304-.137.304-.303v-2.405zm5.619-5.05c0-.167-.136-.304-.303-.304h-2.819c-.166 0-.303.137-.303.304v2.405c0 .167.137.304.303.304h2.819c.167 0 .303-.137.303-.304v-2.405zm-5.619 0c0-.167-.138-.304-.304-.304h-2.817c-.167 0-.304.137-.304.304v2.405c0 .167.137.304.304.304h2.817c.166 0 .304-.137.304-.304v-2.405zm5.619-5.049c0-.167-.136-.304-.303-.304h-2.819c-.166 0-.303.137-.303.304v2.405c0 .167.137.304.303.304h2.819c.167 0 .303-.137.303-.304v-2.405zm0-5.049c0-.167-.136-.303-.303-.303h-2.819c-.166 0-.303.137-.303.303v2.405c0 .167.137.304.303.304h2.819c.167 0 .303-.137.303-.304v-2.405zm5.611 0c0-.167-.136-.303-.303-.303h-2.818c-.167 0-.304.137-.304.303v2.405c0 .167.137.304.304.304h2.818c.167 0 .303-.137.303-.304v-2.405z" fill="#0568ae"/></svg>