<svg xmlns="http://www.w3.org/2000/svg" viewBox="0 0 36 36" enable-background="new 0 0 36 36"><path d="M32.272 15.348l-3.374-3.379c-.394-.386-.914-.598-1.465-.598h-8.96l-.041.008-3.104-2.94c-.602-.605-1.667-.603-2.258-.012l-9.818 9.297c-.15.142-.157.38-.014.53.074.078.173.117.272.117.093 0 .185-.034.258-.103l2.464-2.334-.005 10.73c0 .734.597 1.331 1.33 1.331h24.021c.695 0 1.264-.557 1.287-1.251l.003-.045v-9.814c-.002-.679-.305-1.266-.596-1.537zm-15.649 11.898h-4.868v-6.217c0-.109.089-.198.199-.198h4.47c.108 0 .199.091.199.198v6.217zm15.493-.592l-.002.056c-.006.292-.25.536-.538.536h-14.203v-6.217c0-.523-.426-.948-.949-.948h-4.47c-.523 0-.949.425-.949.948v6.217h-3.45c-.32 0-.58-.26-.58-.581l.006-11.441 6.611-6.26c.322-.322.877-.325 1.212.011l6.604 6.256-.002.009-.002 8.787c0 .207.168.375.375.375s.375-.168.375-.375l.002-8.088 2.458 2.329c.149.142.388.136.53-.014.142-.15.136-.388-.015-.53l-5.916-5.604h8.218c.354 0 .688.136.938.381l3.381 3.385c.147.137.366.517.366.998v9.77zm-3.298-2.251h-3.343c-.405 0-.734-.33-.734-.735v-2.853c0-.405.33-.735.734-.735h3.343c.405 0 .735.33.735.735v2.853c0 .406-.33.735-.735.735zm-3.327-.75h3.327l-.015-2.838-3.328.015.016 2.823z" fill="#0568ae"/></svg>