<svg xmlns="http://www.w3.org/2000/svg" viewBox="0 0 36 36" enable-background="new 0 0 36 36"><path d="M19.656 14.078h3.343c.405 0 .736-.33.736-.735v-2.853c0-.405-.331-.735-.736-.735h-3.343c-.405 0-.734.33-.734.735v2.854c-.001.405.329.734.734.734zm3.328-3.588v2.838l-3.313.015-.016-2.838 3.329-.015zm-4.063 8.843c0 .406.33.735.734.735h3.343c.405 0 .736-.33.736-.735v-2.853c0-.406-.331-.735-.736-.735h-3.343c-.405 0-.734.33-.734.735v2.853zm4.063-2.853v2.838l-3.313.015-.016-2.838 3.329-.015zm-9.994-2.402h3.343c.405 0 .736-.33.736-.735v-2.853c0-.405-.331-.735-.736-.735h-3.343c-.405 0-.735.33-.735.735v2.854c0 .405.329.734.735.734zm3.328-3.588v2.838l-3.313.015-.015-2.838 3.328-.015zm-4.063 8.843c0 .406.33.735.735.735h3.343c.405 0 .736-.33.736-.735v-2.853c0-.406-.331-.735-.736-.735h-3.343c-.405 0-.735.33-.735.735v2.853zm4.063-2.853v2.838l-3.313.015-.015-2.838 3.328-.015zm10.736 4.14v-11.703c0-1.256-1.021-2.277-2.276-2.277h-13.51c-1.256 0-2.279 1.022-2.279 2.277v14.127c0 .207.168.375.376.375.206 0 .374-.168.374-.375v-14.127c0-.842.686-1.527 1.529-1.527h13.509c.842 0 1.526.685 1.526 1.527v11.746c-3.178.359-5.656 3.06-5.656 6.332 0 .555.079 1.091.212 1.604h-3.792v-6.129c0-.405-.331-.735-.736-.735h-3.341c-.405 0-.735.33-.735.735v6.129h-1.438c-.207 0-.375.168-.375.375s.168.375.375.375h10.287c.939 2.352 3.235 4.021 5.919 4.021 3.515 0 6.375-2.86 6.375-6.375 0-3.506-2.844-6.358-6.344-6.375zm-14.064 1.864l3.328-.015v6.129h-3.314l-.014-6.114zm14.033 10.135c-3.102 0-5.625-2.524-5.625-5.625 0-3.102 2.523-5.625 5.625-5.625s5.625 2.523 5.625 5.625c0 3.101-2.524 5.625-5.625 5.625zm2.968-7.271h-1.319v-1.322c0-.594-.484-1.078-1.079-1.078h-1.138c-.595 0-1.079.484-1.079 1.077l-.003 1.323h-1.321c-.595 0-1.08.483-1.08 1.078v1.137c0 .595.484 1.08 1.08 1.08h1.324v1.32c0 .594.484 1.078 1.079 1.078h1.138c.595 0 1.079-.484 1.079-1.078v-1.32h1.319c.595 0 1.078-.484 1.078-1.08v-1.137c.001-.595-.483-1.078-1.078-1.078zm.329 2.215c0 .182-.146.33-.328.33h-1.694c-.208 0-.376.168-.376.375v1.695c0 .181-.147.328-.328.328h-1.138c-.181 0-.329-.147-.329-.328v-1.695c0-.207-.168-.375-.375-.375h-1.699c-.181 0-.33-.148-.33-.33v-1.137c0-.181.148-.328.33-.328h1.695c.206 0 .374-.167.375-.374l.004-1.698c0-.181.147-.328.329-.328h1.138c.181 0 .328.147.328.328v1.697c0 .207.168.375.376.375h1.694c.182 0 .328.147.328.328v1.137z" fill="#0568ae"/></svg>