<svg xmlns="http://www.w3.org/2000/svg" viewBox="0 0 36 36" enable-background="new 0 0 36 36"><path d="M15.699 18.839c0 .198-.161.36-.36.36h-3.343c-.199 0-.36-.162-.36-.36v-2.853c0-.198.161-.36.36-.36h3.343c.199 0 .36.162.36.36v2.853zm0-5.989c0 .198-.161.36-.36.36h-3.343c-.199 0-.36-.162-.36-.36v-2.854c0-.198.161-.36.36-.36h3.343c.199 0 .36.162.36.36v2.854zm6.666 5.989c0 .198-.161.36-.36.36h-3.343c-.199 0-.359-.162-.359-.36v-2.853c0-.198.16-.36.359-.36h3.343c.199 0 .36.162.36.36v2.853zm0-5.989c0 .198-.161.36-.36.36h-3.343c-.199 0-.359-.162-.359-.36v-2.854c0-.198.16-.36.359-.36h3.343c.199 0 .36.162.36.36v2.854zm4.635 8.15c3.315 0 6 2.686 6 6 0 3.313-2.685 6-6 6-3.313 0-6-2.687-6-6 0-3.314 2.687-6 6-6m-2.97 7.273h1.699v1.695c0 .387.316.703.703.703h1.138c.389 0 .704-.316.704-.703v-1.695h1.694c.388 0 .703-.317.703-.705v-1.137c0-.387-.315-.703-.703-.703h-1.694v-1.697c0-.386-.315-.703-.704-.703h-1.138c-.387 0-.703.317-.703.703l-.004 1.697h-1.695c-.387 0-.703.315-.703.703v1.137c0 .388.317.705.703.705m-4.382.206c-.096-.478-.148-.973-.148-1.479 0-3.676 2.661-6.737 6.157-7.373v-11.667c0-.792-.648-1.44-1.44-1.44h-14.434c-.792 0-1.44.648-1.44 1.44v19.079c0 .792.648 1.44 1.44 1.44h1.852v-6.504c0-.198.161-.36.36-.36h3.343c.199 0 .36.162.36.36v6.504h3.95z" fill="#0568ae"/></svg>