<svg xmlns="http://www.w3.org/2000/svg" viewBox="0 0 36 36" enable-background="new 0 0 36 36"><path d="M29.962 3.569h-10.747c-1.255 0-2.276 1.022-2.276 2.277v1.816c0 .207.168.375.375.375s.375-.168.375-.375v-1.816c0-.842.685-1.527 1.526-1.527h10.748c.842 0 1.527.685 1.527 1.527v24.308c0 .842-.686 1.526-1.527 1.526h-11.46v-6.129c0-.405-.33-.735-.735-.735h-3.343c-.405 0-.734.33-.734.735v6.129h-7.653c-.843 0-1.527-.685-1.527-1.526v-18.154c0-.842.685-1.527 1.527-1.527h13.509c.842 0 1.527.685 1.527 1.527v16.781c0 .207.168.375.375.375s.375-.168.375-.375v-16.781c0-1.256-1.021-2.277-2.277-2.277h-13.51c-1.255-.001-2.277 1.021-2.277 2.277v18.155c0 1.255 1.022 2.276 2.277 2.276h23.925c1.256 0 2.277-1.021 2.277-2.276v-24.309c.001-1.255-1.021-2.277-2.277-2.277zm-15.537 21.998l3.329-.015v6.129h-3.314l-.015-6.114zm10.443-14.395h3.343c.405 0 .735-.33.735-.735v-2.853c0-.405-.33-.735-.735-.735h-3.343c-.405 0-.735.33-.735.735v2.853c-.001.405.329.735.735.735zm3.328-3.588v2.838l-3.314.015-.015-2.838 3.329-.015zm-4.064 8.842c0 .405.33.735.735.735h3.343c.405 0 .735-.33.735-.735v-2.853c0-.405-.33-.735-.735-.735h-3.343c-.405 0-.735.33-.735.735v2.853zm4.064-2.853v2.838l-3.314.015-.015-2.838 3.329-.015zm-4.064 8.843c0 .405.33.735.735.735h3.343c.405 0 .735-.33.735-.735v-2.853c0-.405-.33-.735-.735-.735h-3.343c-.405 0-.735.33-.735.735v2.853zm4.064-2.853v2.838l-3.314.015-.015-2.838 3.329-.015zm-4.064 8.843c0 .405.33.735.735.735h3.343c.405 0 .735-.33.735-.735v-2.854c0-.405-.33-.735-.735-.735h-3.343c-.405 0-.735.33-.735.735v2.854zm4.064-2.854v2.839l-3.314.015-.015-2.839 3.329-.015zm-16.358-11.979c0-.405-.331-.735-.736-.735h-3.343c-.405 0-.735.33-.735.735v2.853c0 .405.33.735.735.735h3.343c.405 0 .736-.33.736-.735v-2.853zm-.751 2.839l-3.314.015-.015-2.838 3.328-.015v2.838zm.751 3.151c0-.405-.331-.735-.736-.735h-3.343c-.405 0-.735.33-.735.735v2.853c0 .405.33.735.735.735h3.343c.405 0 .736-.33.736-.735v-2.853zm-.751 2.838l-3.314.015-.015-2.838 3.328-.015v2.838zm.015 2.416h-3.343c-.405 0-.735.33-.735.735v2.854c0 .405.33.735.735.735h3.343c.405 0 .736-.33.736-.735v-2.854c0-.405-.331-.735-.736-.735zm-.015 3.574l-3.314.015-.015-2.839 3.328-.015v2.839zm7.416-14.818c0-.405-.33-.735-.735-.735h-3.343c-.405 0-.734.33-.734.735v2.853c0 .405.33.735.734.735h3.343c.405 0 .735-.33.735-.735v-2.853zm-.749 2.839l-3.313.015-.016-2.838 3.329-.015v2.838zm.014 2.415h-3.343c-.405 0-.734.33-.734.735v2.853c0 .405.33.735.734.735h3.343c.405 0 .735-.33.735-.735v-2.853c0-.404-.33-.735-.735-.735zm-.014 3.574l-3.313.015-.016-2.838 3.329-.015v2.838z" fill="#0568ae"/></svg>