<svg xmlns="http://www.w3.org/2000/svg" viewBox="0 0 36 36" enable-background="new 0 0 36 36"><path d="M19.156 10.098h-14.434c-.792 0-1.44.648-1.44 1.44v19.079c0 .792.648 1.44 1.44 1.44h8.518v-6.504c0-.198.161-.36.36-.36h3.343c.199 0 .36.162.36.36v6.504h3.292v-20.519c.001-.792-.647-1.44-1.439-1.44zm-8.519 18.308c0 .198-.16.36-.359.36h-3.344c-.199 0-.36-.162-.36-.36v-2.854c0-.198.161-.36.36-.36h3.343c.199 0 .359.162.359.36v2.854zm0-5.99c0 .198-.16.36-.359.36h-3.344c-.199 0-.36-.162-.36-.36v-2.853c0-.198.161-.36.36-.36h3.343c.199 0 .359.162.359.36v2.853zm0-5.989c0 .198-.16.36-.359.36h-3.344c-.199 0-.36-.162-.36-.36v-2.854c0-.198.161-.36.36-.36h3.343c.199 0 .359.162.359.36v2.854zm6.666 5.989c0 .198-.161.36-.36.36h-3.343c-.199 0-.36-.162-.36-.36v-2.853c0-.198.161-.36.36-.36h3.343c.199 0 .36.162.36.36v2.853zm0-5.989c0 .198-.161.36-.36.36h-3.343c-.199 0-.36-.162-.36-.36v-2.854c0-.198.161-.36.36-.36h3.343c.199 0 .36.162.36.36v2.854zm15.415-11.003v25.192c0 .792-.648 1.44-1.44 1.44h-9.183v-20.518c0-1.621-1.319-2.94-2.94-2.94h-2.734v-3.174c0-.792.648-1.44 1.44-1.44h13.416c.793 0 1.441.648 1.441 1.44zm-3.292 8.149c0-.198-.163-.36-.36-.36h-3.343c-.199 0-.36.162-.36.36v2.853c0 .198.161.36.36.36h3.343c.197 0 .36-.162.36-.36v-2.853zm0-5.989c0-.198-.163-.36-.36-.36h-3.343c-.199 0-.36.162-.36.36v2.853c0 .198.161.36.36.36h3.343c.197 0 .36-.162.36-.36v-2.853zm0 11.979c0-.198-.163-.36-.36-.36h-3.343c-.199 0-.36.162-.36.36v2.853c0 .198.161.36.36.36h3.343c.197 0 .36-.162.36-.36v-2.853zm0 5.989c0-.198-.163-.36-.36-.36h-3.343c-.199 0-.36.162-.36.36v2.854c0 .198.161.36.36.36h3.343c.197 0 .36-.162.36-.36v-2.854z" fill="#0568ae"/></svg>