<svg xmlns="http://www.w3.org/2000/svg" viewBox="0 0 35.999 36" enable-background="new 0 0 35.999 36"><path d="M19.166 14.09h3.343c.406 0 .736-.33.736-.735v-2.854c0-.405-.33-.735-.736-.735h-3.343c-.405 0-.734.33-.734.735v2.854c0 .406.329.735.734.735zm3.329-3.588v2.838l-3.313.015-.016-2.838 3.329-.015zm-4.063 8.843c0 .405.33.735.734.735h3.343c.406 0 .736-.33.736-.735v-2.853c0-.406-.33-.735-.736-.735h-3.343c-.405 0-.734.33-.734.735v2.853zm4.063-2.853v2.838l-3.313.015-.016-2.838 3.329-.015zm-9.995-2.402h3.343c.406 0 .736-.33.736-.735v-2.854c0-.405-.33-.735-.736-.735h-3.343c-.404 0-.735.33-.735.735v2.854c0 .406.331.735.735.735zm3.329-3.588v2.838l-3.314.015-.015-2.838 3.329-.015zm-4.064 8.843c0 .405.331.735.735.735h3.343c.406 0 .736-.33.736-.735v-2.853c0-.406-.33-.735-.736-.735h-3.343c-.404 0-.735.33-.735.735v2.853zm4.064-2.853v2.838l-3.314.015-.015-2.839 3.329-.014zm10.9 4.139l-.163.002v-11.704c0-1.256-1.021-2.277-2.277-2.277h-13.51c-1.256-.001-2.279 1.021-2.279 2.277v14.127c0 .207.168.375.376.375.206 0 .374-.168.374-.375v-14.127c0-.842.686-1.527 1.529-1.527h13.509c.842 0 1.527.685 1.527 1.527v11.769c-3.114.44-5.462 3.085-5.462 6.308 0 .555.078 1.09.212 1.604h-3.987v-6.129c0-.405-.33-.735-.736-.735h-3.342c-.404 0-.735.33-.735.735v6.129h-1.438c-.207 0-.375.168-.375.375s.167.375.375.375h10.483c.938 2.353 3.235 4.021 5.919 4.021 3.515 0 6.375-2.86 6.375-6.375s-2.861-6.375-6.375-6.375zm-14.229 1.865l3.329-.015v6.129h-3.315l-.014-6.114zm14.229 10.135c-3.103 0-5.625-2.523-5.625-5.625 0-3.056 2.39-5.525 5.443-5.622l.182-.003c3.102 0 5.625 2.523 5.625 5.625 0 3.101-2.524 5.625-5.625 5.625zm3.096-5.833c.164.126.194.362.066.526-.073.096-.184.146-.296.146-.08 0-.162-.025-.228-.078-.535-.412-1.144-.684-1.808-.808-1.176-.221-2.4.067-3.358.791-.167.125-.401.092-.526-.073-.124-.165-.091-.4.074-.525 1.126-.851 2.564-1.188 3.948-.929.783.145 1.498.465 2.128.95zm-1.091 1.595c.164.126.196.361.07.525-.074.097-.185.147-.298.147-.08 0-.159-.025-.227-.077-.309-.235-.665-.393-1.058-.467-.693-.129-1.412.04-1.974.467-.164.125-.4.093-.525-.072-.125-.165-.093-.4.072-.525.729-.554 1.666-.774 2.563-.606.513.096.975.3 1.377.608zm2.217-2.483c-.13.161-.367.185-.527.056-.742-.599-1.632-1.01-2.576-1.188-1.684-.316-3.413.127-4.741 1.217-.069.057-.153.085-.237.085-.108 0-.216-.047-.29-.137-.132-.16-.107-.396.052-.528 1.5-1.23 3.451-1.731 5.356-1.375 1.064.201 2.071.665 2.909 1.342.16.13.184.366.054.528zm-3.568 4.347c0 .341-.278.619-.618.619-.343 0-.619-.277-.619-.619 0-.341.276-.619.619-.619.339.001.618.278.618.619z" fill="#0568ae"/></svg>