<svg xmlns="http://www.w3.org/2000/svg" viewBox="0 0 36 36" enable-background="new 0 0 36 36"><path d="M19.648 28.479c-.096-.478-.148-.973-.148-1.479 0-3.676 2.661-6.737 6.157-7.373v-11.667c0-.792-.648-1.44-1.44-1.44h-14.434c-.792 0-1.44.648-1.44 1.44v19.079c0 .792.648 1.44 1.44 1.44h1.852v-6.504c0-.198.161-.36.36-.36h3.343c.199 0 .36.162.36.36v6.504h3.95zm-1.346-18.483c0-.198.16-.36.359-.36h3.343c.199 0 .36.162.36.36v2.853c0 .198-.161.36-.36.36h-3.343c-.199 0-.359-.162-.359-.36v-2.853zm0 5.99c0-.198.16-.36.359-.36h3.343c.199 0 .36.162.36.36v2.853c0 .198-.161.36-.36.36h-3.343c-.199 0-.359-.162-.359-.36v-2.853zm-6.667-5.99c0-.198.161-.36.36-.36h3.343c.199 0 .36.162.36.36v2.853c0 .198-.161.36-.36.36h-3.343c-.199 0-.36-.162-.36-.36v-2.853zm3.703 9.203h-3.343c-.199 0-.36-.162-.36-.36v-2.853c0-.198.161-.36.36-.36h3.343c.199 0 .36.162.36.36v2.853c.001.198-.16.36-.36.36zm11.662 1.801c3.313 0 6 2.687 6 6s-2.687 6-6 6-6-2.687-6-6 2.687-6 6-6m-.006 7.78c-.509 0-.923.414-.923.923 0 .509.414.922.923.922.508 0 .922-.414.922-.922 0-.509-.414-.923-.922-.923zm3.955-3.439c-.813-.627-1.738-1.041-2.751-1.23-1.787-.337-3.647.102-5.102 1.201-.221.167-.264.48-.098.7.165.22.48.264.7.097 1.231-.93 2.804-1.3 4.315-1.016.856.16 1.638.509 2.324 1.039.091.07.199.104.305.104.15 0 .298-.067.396-.194.17-.219.129-.533-.089-.701zm-3.184 1.158c-1.164-.218-2.375.068-3.32.785-.22.167-.263.48-.096.701.167.219.479.263.701.096.721-.547 1.643-.766 2.531-.599.505.095.961.297 1.357.599.091.069.197.103.303.103.15 0 .299-.068.398-.196.167-.219.125-.533-.094-.701-.522-.399-1.12-.663-1.78-.788z" fill="#0568ae"/></svg>