<svg xmlns="http://www.w3.org/2000/svg" viewBox="0 0 36 36" enable-background="new 0 0 36 36"><path d="M28.631 5.695h-21.262c-.405 0-.735.33-.735.735v23.766c0 .405.33.735.735.735h21.262c.405 0 .735-.33.735-.735v-23.766c0-.406-.329-.735-.735-.735zm-19.997 5.138h2.982v3.003c-.948.432-1.463 1.654-.693 2.819.071.107.167.203.274.274 1.841 1.219 3.829-.77 2.611-2.611-.071-.107-.167-.203-.274-.274-.139-.092-.279-.16-.418-.217v-2.995h4.134v18.098h-8.616v-18.097zm18.732 18.098h-8.616v-18.098h8.616v18.098z" fill="#0568ae"/></svg>