<svg xmlns="http://www.w3.org/2000/svg" viewBox="0 0 36 36" enable-background="new 0 0 36 36"><path d="M27.77 5.694h-19.54c-.604 0-1.095.491-1.095 1.095v22.421c0 .604.491 1.095 1.095 1.095h19.54c.604 0 1.095-.491 1.095-1.095v-22.421c0-.603-.491-1.095-1.095-1.095zm-19.885 23.517v-18.176h3.238v2.278c-.822.174-1.441.904-1.441 1.777 0 1.002.815 1.817 1.817 1.817 1.001 0 1.816-.815 1.816-1.817 0-.873-.619-1.604-1.441-1.777v-2.278h5.753v18.52h-9.397c-.19.001-.345-.154-.345-.344zm3.613-15.187c.588 0 1.066.478 1.066 1.067 0 .588-.478 1.067-1.066 1.067-.588 0-1.067-.478-1.067-1.067.001-.589.479-1.067 1.067-1.067zm16.617 15.187c0 .19-.155.345-.345.345h-9.394v-18.52h6.293c.207 0 .375-.168.375-.375s-.168-.375-.375-.375h-16.784v-3.497c0-.19.155-.345.345-.345h19.54c.191 0 .345.155.345.345v22.422z" fill="#0568ae"/></svg>