<svg xmlns="http://www.w3.org/2000/svg" viewBox="0 0 36 36" enable-background="new 0 0 36 36"><path d="M24.95 25.51h-4.545c-.417 0-.757-.339-.757-.757v-3.526c0-.418.339-.757.757-.757h4.545c.417 0 .757.339.757.757v3.526c0 .418-.339.757-.757.757zm-4.545-4.289l-.007 3.533 4.552.007.007-.007v-3.526l-4.552-.007zm12.597-6.04c.008-.075 0-.15-.037-.219l-3.153-5.766c-.066-.12-.192-.195-.329-.195h-4.615v-1.736c0-.207-.168-.375-.375-.375h-13.062c-.207 0-.375.168-.375.375v1.737h-4.539c-.137 0-.263.075-.329.195l-3.153 5.766c-.037.068-.045.144-.037.219l-.009.045c0 1.332.933 2.447 2.179 2.733v7.117c0 .207.168.375.375.375s.375-.168.375-.375v-7.05c.988-.043 1.844-.596 2.309-1.405.485.842 1.392 1.411 2.431 1.411 1.04 0 1.947-.569 2.432-1.411.485.842 1.392 1.411 2.432 1.411 1.039 0 1.946-.569 2.432-1.411.485.842 1.392 1.411 2.431 1.411s1.947-.569 2.432-1.411c.485.842 1.392 1.411 2.431 1.411 1.059 0 1.983-.572 2.476-1.416.484.845 1.393 1.416 2.435 1.416l.164-.008v8.583c0 .905-.736 1.641-1.641 1.641h-12.335v-7.021c0-.418-.339-.757-.757-.757h-4.045c-.417 0-.757.339-.757.757v7.021h-3.951c-.207 0-.375.168-.375.375s.168.375.375.375h21.843c1.318 0 2.391-1.073 2.391-2.391v-8.725c1.126-.376 1.94-1.423 1.94-2.656l-.009-.046zm-17.405 13.068h-4.057l.006-7.028 4.052.007v7.021zm-3.791-20.609h12.312v3.45h-12.312v-3.45zm-6.011 9.643c-1.034 0-1.884-.77-2.027-1.766h4.055c-.143.996-.993 1.766-2.028 1.766zm4.862 0c-1.034 0-1.883-.77-2.026-1.766h4.054c-.143.996-.993 1.766-2.028 1.766zm4.864 0c-1.034 0-1.884-.77-2.027-1.766h4.054c-.143.996-.992 1.766-2.027 1.766zm4.863 0c-1.034 0-1.884-.77-2.027-1.766h4.054c-.143.996-.992 1.766-2.027 1.766zm4.863 0c-1.034 0-1.884-.77-2.027-1.766h4.1c-.151.982-1.034 1.766-2.073 1.766zm-21.251-2.515l2.743-5.016h4.317v1.713c0 .207.168.375.375.375h13.062c.207 0 .375-.168.375-.375v-1.713h4.393l2.743 5.016h-28.008zm26.161 2.515c-1.035 0-1.884-.77-2.027-1.766h4.1c-.15.982-1.034 1.766-2.073 1.766z" fill="#0568ae"/></svg>