<svg xmlns="http://www.w3.org/2000/svg" viewBox="0 0 36 36" enable-background="new 0 0 36 36"><path d="M25.217 7.021h-14.434c-.792 0-1.44.648-1.44 1.44v19.078c0 .792.648 1.44 1.44 1.44h1.852v-6.504c0-.198.161-.36.36-.36h3.343c.199 0 .36.162.36.36v6.504h8.518c.792 0 1.44-.648 1.44-1.44v-19.079c.001-.792-.647-1.439-1.439-1.439zm-8.518 12.318c0 .198-.161.36-.36.36h-3.343c-.199 0-.36-.162-.36-.36v-2.853c0-.198.161-.36.36-.36h3.343c.199 0 .36.162.36.36v2.853zm0-5.989c0 .198-.161.36-.36.36h-3.343c-.199 0-.36-.162-.36-.36v-2.853c0-.198.161-.36.36-.36h3.343c.199 0 .36.162.36.36v2.853zm6.666 11.979c0 .198-.161.36-.36.36h-3.343c-.199 0-.359-.162-.359-.36v-2.854c0-.198.16-.36.359-.36h3.343c.199 0 .36.162.36.36v2.854zm0-5.99c0 .198-.161.36-.36.36h-3.343c-.199 0-.359-.162-.359-.36v-2.853c0-.198.16-.36.359-.36h3.343c.199 0 .36.162.36.36v2.853zm0-5.989c0 .198-.161.36-.36.36h-3.343c-.199 0-.359-.162-.359-.36v-2.853c0-.198.16-.36.359-.36h3.343c.199 0 .36.162.36.36v2.853z" fill="#0568ae"/></svg>