<svg xmlns="http://www.w3.org/2000/svg" viewBox="0 0 36 36" enable-background="new 0 0 36 36"><path d="M32.523 14.584l-2.876-4.804c-.102-.17-.347-.309-.545-.309h-3.458v-1.432c0-1.026-.834-1.86-1.86-1.86h-11.568c-1.026 0-1.86.834-1.86 1.86v1.433h-3.555c-.198 0-.441.14-.541.311l-2.788 4.799-.181.311c0 1.382 1.121 2.503 2.503 2.503 1.196 0 2.194-.841 2.441-1.963.247 1.122 1.245 1.963 2.441 1.963 1.197 0 2.194-.841 2.441-1.963.247 1.122 1.244 1.963 2.441 1.963 1.197 0 2.194-.841 2.441-1.963.247 1.122 1.245 1.963 2.441 1.963 1.196 0 2.193-.841 2.441-1.963.247 1.122 1.244 1.963 2.441 1.963 1.196 0 2.194-.841 2.441-1.963.248 1.122 1.245 1.963 2.441 1.963 1.382 0 2.503-1.121 2.503-2.503l-.184-.309zm-8.379-5.113v1.433c0 .198-.162.36-.36.36h-11.568c-.198 0-.36-.162-.36-.36v-2.865c0-.198.162-.36.36-.36h11.569c.198 0 .36.162.36.36v1.432zm6.459 8.9v8.869c0 .792-.648 1.44-1.44 1.44h-22.326c-.792 0-1.44-.648-1.44-1.44v-8.869l.398.024c.382 0 .753-.067 1.102-.185v8.969h3.745v-6.72c0-.262.214-.477.478-.477h4.436c.264 0 .478.215.478.477v6.72h13.068v-8.97c.35.118.72.185 1.103.185l.398-.023zm-10.636 2.089c0-.262.213-.477.477-.477h4.436c.264 0 .478.215.478.477v3.786c0 .263-.214.478-.478.478h-4.436c-.264 0-.477-.215-.477-.478v-3.786z" fill="#0568ae"/></svg>