<svg xmlns="http://www.w3.org/2000/svg" viewBox="0 0 36 36" enable-background="new 0 0 36 36"><path d="M9.755 21.273h-7.117v-2.104h7.427c-.119.677-.224 1.38-.31 2.104zm1.256 3.603h3.74v-4.009c0-.792.648-1.44 1.44-1.44h3.619c.792 0 1.44.648 1.44 1.44v4.009h3.74c-.127-7.346-2.784-13.342-3.337-14.513-1.178-.248-2.4-.38-3.652-.38-1.252 0-2.474.132-3.652.38-.554 1.174-3.211 7.182-3.338 14.513zm22.351-3.597v-2.117l-.065.007h-7.362c.119.677.224 1.38.31 2.104h7.052l.065.006zm-7.722-3.61h7.657l.065.007v-.67c0-.792-.648-1.44-1.44-1.44h-1.038c-2.007-2.13-4.529-3.764-7.365-4.699.589 1.407 1.47 3.797 2.121 6.802zm-15.28 0c.651-3.005 1.531-5.395 2.121-6.803-2.836.935-5.358 2.568-7.365 4.699h-1.038c-.792 0-1.44.648-1.44 1.44v.664h7.722zm22.937 5.104h-6.906c.053.686.087 1.388.098 2.104h5.432c.792 0 1.44-.648 1.44-1.44v-.67l-.064.006zm-23.688 0h-6.97v.664c0 .792.648 1.44 1.44 1.44h5.432c.011-.716.045-1.418.098-2.104z" fill="#0568ae"/></svg>