<svg xmlns="http://www.w3.org/2000/svg" viewBox="0 0 36 36" enable-background="new 0 0 36 36"><path d="M31.615 15.323h-.432c-3.416-3.64-8.21-5.727-13.183-5.727-4.973 0-9.767 2.087-13.183 5.727h-.433c-1.001 0-1.815.814-1.815 1.815v5.804c0 .207.168.375.375.375s.375-.168.375-.375v-1.368h6.657c-.049.638-.081 1.298-.088 1.986h-3.69c-.207 0-.375.168-.375.375s.168.375.375.375h25.418c1 0 1.815-.814 1.815-1.814v-5.358c0-1-.815-1.815-1.816-1.815zm-5.902 3.67h6.968v1.831h-6.716c-.065-.641-.153-1.245-.252-1.831zm5.312-2.92h.591c.587 0 1.065.478 1.065 1.065v1.105h-7.097c-.153-.78-.332-1.5-.523-2.17h5.964zm-6.193-.75c-.646-2.02-1.381-3.449-1.848-4.237 2.669.808 5.135 2.256 7.155 4.237h-5.307zm-2.916-4.519l.001.003c.02.027 1.15 1.615 2.113 4.517h-12.059c.962-2.902 2.093-4.49 2.113-4.517l.001-.003c1.276-.299 2.588-.458 3.916-.458 1.326 0 2.639.159 3.915.458zm-8.9.282c-.467.788-1.202 2.217-1.848 4.237h-5.307c2.02-1.981 4.486-3.429 7.155-4.237zm-8.632 4.987h6.556c-.191.669-.371 1.39-.523 2.17h-7.098v-1.105c0-.587.478-1.065 1.065-1.065zm-1.065 4.751v-1.831h6.968c-.099.585-.187 1.19-.252 1.831h-6.716zm8.415-4.751h12.532c.589 1.987 1.061 4.506 1.096 7.487h-3.762v-3.863c0-1.001-.815-1.815-1.815-1.815h-3.619c-1.001 0-1.815.814-1.815 1.815v3.863h-3.713c.035-2.981.506-5.5 1.096-7.487zm9.116 7.487h-5.749v-3.863c0-.587.478-1.065 1.065-1.065h3.619c.587 0 1.065.478 1.065 1.065v3.863zm10.765 0h-5.503c-.008-.688-.039-1.348-.088-1.986h6.657v.922c0 .587-.478 1.064-1.066 1.064z" fill="#0568ae"/></svg>