<svg xmlns="http://www.w3.org/2000/svg" viewBox="0 0 36 36" enable-background="new 0 0 36 36"><path d="M25.325 17.737l-6.483-6.14c-.445-.449-1.237-.446-1.671-.011l-6.496 6.151c-.15.142-.157.38-.014.53.074.078.173.117.272.117.093 0 .185-.034.258-.103l1.417-1.341-.004 6.805c0 .556.452 1.008 1.007 1.008h8.779c.555 0 1.007-.452 1.007-1.008l.002-6.8 1.411 1.337c.149.142.387.136.53-.014.142-.151.136-.388-.015-.531zm-2.679 6.008c0 .14-.118.258-.257.258h-2.156v-3.132c0-.416-.339-.754-.755-.754h-2.958c-.416 0-.755.338-.755.754v1.332c0 .207.168.375.375.375s.375-.168.375-.375l.005-1.336 2.963.004v3.132h-5.873c-.139 0-.257-.118-.257-.258l.004-7.515 4.336-4.106c.165-.165.446-.17.625.01l4.33 4.101-.002 7.51zm-4.646 8.13c-7.651 0-13.875-6.224-13.875-13.875 0-.207.168-.375.375-.375s.375.168.375.375c0 7.237 5.888 13.125 13.125 13.125s13.125-5.888 13.125-13.125c0-.207.168-.375.375-.375s.375.168.375.375c0 7.651-6.224 13.875-13.875 13.875zm13.387-24.348l-.278 4.009c-.031.448-.242.833-.58 1.055-.205.135-.446.204-.699.204-.163 0-.333-.029-.499-.087l-3.795-1.322c-.195-.068-.299-.282-.231-.477.068-.196.281-.3.478-.231l3.795 1.322.101.026c-2.233-4.355-6.767-7.151-11.679-7.151-4.91 0-9.457 2.803-11.687 7.163l.168-.038 3.796-1.323c.195-.069.41.035.477.231.068.196-.035.409-.231.477l-3.795 1.323c-.166.058-.335.087-.498.087-.253 0-.494-.069-.699-.204-.338-.222-.55-.607-.581-1.055l-.279-4.009c-.014-.207.142-.386.349-.4.204-.016.385.142.4.348l.278 4.009.014.088c2.38-4.537 7.145-7.447 12.288-7.447 5.181 0 9.963 2.942 12.33 7.527l.03-.168.278-4.009c.014-.207.199-.365.4-.348.207.014.363.193.349.4zm-18.769 2.263c-.121 0-.24-.058-.312-.167-.115-.172-.069-.405.103-.52 1.657-1.108 3.59-1.694 5.591-1.694 2.001 0 3.934.586 5.589 1.694.172.115.218.348.103.52-.115.172-.348.219-.52.103-1.532-1.025-3.32-1.567-5.172-1.567-1.851 0-3.641.542-5.174 1.568-.064.043-.137.063-.208.063z" fill="#0568ae"/></svg>