<svg xmlns="http://www.w3.org/2000/svg" viewBox="0 0 36 36" enable-background="new 0 0 36 36"><path d="M18 32.5c-7.995 0-14.5-6.505-14.5-14.5 0-.552.448-1 1-1s1 .448 1 1c0 6.893 5.607 12.5 12.5 12.5s12.5-5.607 12.5-12.5c0-.552.448-1 1-1s1 .448 1 1c0 7.995-6.505 14.5-14.5 14.5zm-4.827-21.438c1.431-.957 3.099-1.462 4.827-1.462 1.728 0 3.396.505 4.825 1.462.459.307 1.08.184 1.387-.275.307-.459.184-1.08-.275-1.387-1.759-1.178-3.812-1.8-5.937-1.8-2.125 0-4.178.623-5.939 1.8-.459.307-.582.928-.275 1.387.193.288.509.444.832.444.191 0 .384-.054.555-.169zm18.28-2.105l-1.529.807c-2.681-3.863-7.14-6.264-11.924-6.264-4.775 0-9.24 2.4-11.922 6.26l-1.521-.803c-.254-.134-.429-.011-.389.273l.122.868.495 3.524c.03.213.212.309.405.214l.117-.058 3.858-1.909c.257-.127.26-.341.006-.475l-1.31-.692c2.328-3.212 6.104-5.202 10.139-5.202 4.043 0 7.816 1.99 10.14 5.206l-1.303.688c-.254.134-.251.348.006.475l3.858 1.909.117.058c.193.095.375-.001.406-.214l.495-3.524.122-.868c.041-.284-.134-.407-.388-.273zm-7.195 8.608l-5.687-5.709c-.154-.151-.356-.234-.572-.234-.214 0-.417.083-.571.234l-5.687 5.709c-.337.339-.222.616.256.616h1.317v5.51c0 .339.278.618.615.618h2.341v-4.055c0-.205.161-.369.355-.369h2.769c.195 0 .356.165.356.369v4.055h2.321c.335 0 .612-.278.612-.618l-.004-.012.005.012v-5.51h1.318c.478 0 .593-.277.256-.616z" fill="#0568ae"/></svg>