<svg xmlns="http://www.w3.org/2000/svg" viewBox="0 0 36 36"><path fill="#0568ae" d="M13.7 16.2c.3.3.4.7.4 1.2s-.1.9-.4 1.2c-.3.3-.6.4-1.1.4h-.7v-3.3h.7c.5.1.8.2 1.1.5zm9.7-.4h-.8v1.5h.8c.2 0 .4-.1.6-.2.1-.1.2-.3.2-.6 0-.2-.1-.4-.2-.6-.2-.1-.4-.1-.6-.1zm7.3 2.2h-2.8v11.6c0 .7-.6 1.3-1.3 1.3h-4.9v-7.2c0-.4-.3-.8-.8-.8h-5.8c-.4 0-.8.3-.8.8V31H9.4c-.7 0-1.3-.6-1.3-1.3V18H5.3c-1 0-1.3-.6-.5-1.3l12-12.1c.3-.3.8-.5 1.2-.5.5 0 .9.2 1.2.5l12 12.1c.7.8.5 1.3-.5 1.3zm-15.4-.6c0-.5-.1-1-.3-1.4-.2-.4-.5-.7-.9-1-.4-.2-.9-.3-1.5-.3h-2v5.4h2c.6 0 1-.1 1.5-.3.4-.2.7-.5 1-.9.1-.4.2-.9.2-1.5zm5.4-2.7h-1.3l-1.2 4.1-1.2-4.1h-1.3l1.9 5.4h1.3l1.8-5.4zm5 5.5l-1.2-2.1c.3-.1.5-.4.7-.6.2-.3.2-.6.2-1 0-.6-.2-1-.5-1.3-.4-.3-.9-.5-1.5-.5h-2.1v5.4h1.2v-1.8h.8l1 1.8h1.4z"/></svg>