<svg xmlns="http://www.w3.org/2000/svg" viewBox="0 0 36 36"><path fill="#0568ae" d="M33 17.4L19.5 4.6c-.4-.4-.9-.6-1.5-.6-.5 0-1.1.2-1.4.6L3 17.4c-.2.1-.2.4 0 .5.1.2.4.2.5 0l3.6-3.4v15.1c0 .9.8 1.7 1.7 1.7h18.3c.9 0 1.7-.8 1.7-1.7V14.5l3.6 3.4c.1.1.2.1.3.1.1 0 .2 0 .3-.1.1-.1.1-.4 0-.5zm-4.9-3.5v15.7c0 .5-.4.9-.9.9h-4.9v-6.9c0-.6-.5-1.2-1.2-1.2h-6.2c-.6 0-1.2.5-1.2 1.2v3.6c0 .2.2.4.4.4s.4-.2.4-.4v-3.6c0-.2.2-.4.4-.4h6.2c.2 0 .4.2.4.4v6.9H8.9c-.5 0-.9-.4-.9-.9V13.9l9.1-8.7c.5-.5 1.4-.5 1.9 0l9.1 8.7c0-.1 0-.1 0 0zm-12.8 3.2c0 .6-.1 1.1-.3 1.5-.2.4-.5.7-.9.9-.4.2-.9.3-1.4.3H11v-5.5h1.7c.6 0 1 .1 1.4.3.4.2.7.5.9 1 .2.4.3.9.3 1.5zm-.6 0c0-.7-.2-1.2-.5-1.6-.4-.4-.9-.6-1.5-.6h-1.1v4.3h1.1c.7 0 1.2-.2 1.5-.6.3-.3.5-.8.5-1.5zm1-2.8h.7l1.6 4.8 1.6-4.8h.7l-2 5.5h-.6l-2-5.5zm7.3 3.4h-1.2v2.1h-.6v-5.5H23c.6 0 1 .1 1.4.4s.5.7.5 1.2c0 .4-.1.7-.3 1-.2.3-.5.5-.9.6l1.4 2.2h-.7l-1.4-2zm-1.2-.6H23c.4 0 .7-.1.9-.3.2-.2.3-.5.3-.8 0-.3-.1-.6-.3-.8-.2-.2-.5-.3-.9-.3h-1.2v2.2z"/></svg>