<svg xmlns="http://www.w3.org/2000/svg" viewBox="0 0 36 36" enable-background="new 0 0 36 36"><path d="M26.786 21c-3.313 0-6 2.686-6 6 0 3.313 2.687 6 6 6 3.314 0 6-2.687 6-6 0-3.314-2.686-6-6-6zm-3.502 6.161l.551-2.371c.02-.088.108-.143.196-.123l2.37.552c.088.02.143.108.123.196l-.509 2.315c-.025.075-.109.21-.226.176l-2.383-.549c-.087-.02-.144-.109-.122-.196zm7.183-2.93c-.115.252-.412.362-.662.247 0 0-.141-.059-.457-.132-.086-.02-.159-.012-.218.025-.105.065-.193.231-.247.465l-.888 3.668-.019.057c.444.256.747.73.747 1.279 0 .817-.665 1.482-1.482 1.482-.755 0-1.373-.569-1.464-1.3l-.191-.022-2.584-.6c-.269-.063-.436-.331-.374-.6.063-.269.332-.436.6-.374l2.583.601.179.023c.219-.344.575-.591.992-.665l.038-.112.888-3.667c.117-.505.351-.872.692-1.084.284-.177.629-.23.972-.149.416.096.611.18.645.196.254.114.364.411.25.662zm-14.277-7.861c.396 0 .72.324.72.72v2.332h-7.396v-2.332c0-.396.324-.72.72-.72h5.956zm6.044-2.361h-13.884c-.792 0-1.439.648-1.439 1.44v12.079h-2.008c-.962 0-1.689-.914-1.689-1.901v-13.666c0-.792.564-1.759 1.253-2.149l9.769-5.527c.517-.292 1.365-.295 1.884-.006l9.98 5.554c.691.385 1.257 1.348 1.257 2.14v7.556c-.189-.014-.378-.029-.571-.029-1.111 0-2.162.249-3.111.684v-4.736c-.001-.792-.649-1.439-1.441-1.439zm-2.922 13.518h-9.078c-.396 0-.72-.324-.72-.72v-6.384h10.871c.396 0 .72.324.72.72v.976c-1.13 1.313-1.818 3.017-1.818 4.882l.025.526z" fill="#0568ae"/></svg>