<svg xmlns="http://www.w3.org/2000/svg" viewBox="0 0 36 36" enable-background="new 0 0 36 36"><path d="M30.405 21.639v-9.672c0-.931-.637-2.015-1.45-2.468l-9.979-5.553c-.633-.352-1.621-.349-2.252.007l-9.768 5.526c-.809.458-1.443 1.546-1.443 2.475v13.666c0 1.233.944 2.275 2.063 2.275h13.079c.44 3.089 3.096 5.474 6.304 5.474 3.515 0 6.375-2.86 6.375-6.375 0-2.245-1.17-4.219-2.929-5.355zm-22.829 5.506c-.712 0-1.313-.698-1.313-1.525v-13.666c0-.662.486-1.496 1.063-1.823l9.768-5.527c.403-.227 1.111-.23 1.517-.005h.001l9.978 5.554c.578.321 1.065 1.152 1.065 1.813v9.259c-.82-.385-1.732-.606-2.696-.606l-.236.012v-5.189c0-1.001-.815-1.815-1.815-1.815h-13.885c-1 0-1.814.814-1.814 1.815v4.996c0 .207.168.375.375.375s.375-.168.375-.375v-4.996c0-.587.477-1.065 1.064-1.065h13.884c.587 0 1.065.478 1.065 1.065v5.261c-.785.123-1.522.387-2.186.769l-.003-1.39c0-.558-.453-1.012-1.011-1.012h-2.602l-.001-1.688c-.001-.558-.455-1.011-1.013-1.011h-5.952c-.558 0-1.012.454-1.012 1.012l.002 2.053-.002.009.002.009.002 2.671-.004.021.004.02.002 2.042c0 .558.453 1.012 1.012 1.012h7.629c-.163.564-.256 1.158-.256 1.774l.008.151h-13.015zm13.531-2.676h-.934l-.001-1.949h2.251c-.55.559-1 1.219-1.316 1.949zm-8.164-7.086c0-.142.12-.262.262-.262h2.601l.002 1.949h-2.864l-.001-1.687zm7.228 4.387l-.002-1.95h2.603c.145 0 .261.118.261.263l.004 1.688h-2.866zm-7.226-1.95h2.863l.002 1.95h-2.863l-.002-1.95zm3.613 0h2.861l.002 1.95h-2.861l-.002-1.95zm0-.75l-.002-1.949h2.601c.145 0 .263.118.263.262l.001 1.687h-2.863zm-.748 3.45l.002 1.949h-2.602c-.142 0-.262-.12-.262-.263l-.002-1.687h2.864zm.752 1.949l-.002-1.949h2.861l.002 1.949h-2.861zm10.397 8.15c-3.102 0-5.625-2.524-5.625-5.625 0-3.102 2.523-5.625 5.625-5.625s5.625 2.523 5.625 5.625c0 3.101-2.524 5.625-5.625 5.625zm3.607-8.517c-.047.202-.252.326-.451.28l-.707-.164c-.106.005-.443.359-.596 1.023l-.75 3.224-.088.27c.405.202.686.616.686 1.099 0 .679-.553 1.232-1.233 1.232-.651 0-1.18-.509-1.224-1.147-.133-.002-.268-.016-.402-.047l-2.584-.601c-.201-.047-.327-.249-.28-.45.047-.202.248-.327.451-.28l2.583.601c.145.034.289.036.429.015.179-.27.46-.465.789-.53.062-.101.113-.209.142-.331l.75-3.223c.153-.662.489-1.223.878-1.464.202-.126.417-.167.62-.12l.706.164c.203.046.328.247.281.449zm-6.708 3.933l2.2.507.138.02c.27 0 .462-.214.543-.463l.475-2.156c.063-.282-.115-.564-.395-.629l-2.211-.515-.116-.013c-.248 0-.46.169-.514.408l-.512 2.202c-.035.137-.013.279.061.399.072.12.192.208.331.24zm.799-2.455l1.777.414-.39 1.776-1.8-.416.413-1.774z" fill="#0568ae"/></svg>