<svg version="1" xmlns="http://www.w3.org/2000/svg" viewBox="0 0 36 36"><path fill="#0568ae" d="M27.5 31.5c-1.2-4-2.4-7.9-3.5-11.9 2.9-1.1 3.4-3.1 3.4-4.4v-8c0-2.9-3-4.3-9-4.3h-.2c-.1.1-.2.1-.2.1-6 0-9 1.4-9 4.3v8c0 1.3.5 3.2 3.1 4.3l-3.6 12c-.4 1.5 1.9 2.1 2.3.6.2-.7.4-1.4.6-2 2.2-1.2 4.4-2.4 6.6-3.5 2.2 1.2 4.3 2.3 6.5 3.5l.6 2.1c.5 1.3 2.8.7 2.4-.8zM18 4.8h.4c2.7 0 7.2.3 7.2 2.5v1.8H10.8V7.3c0-2.2 4.5-2.5 7.2-2.5zm0 15.7h.4c1.3 0 2.4-.1 3.3-.2.1.5.3 1 .4 1.5l-4 2.1c-1.4-.7-2.7-1.5-4.1-2.2.1-.5.3-1 .4-1.5.9.2 2.1.3 3.6.3zm-5.7 6.4c.3-1 .6-1.9.9-2.9.8.4 1.5.8 2.3 1.2l-3.2 1.7zm8.2-1.7c.7-.4 1.5-.8 2.2-1.2.3.9.6 1.9.8 2.8-.9-.5-2-1-3-1.6z"/></svg>