<svg xmlns="http://www.w3.org/2000/svg" viewBox="0 0 36 36"><path fill="#0568ae" d="M18.2 20.8h-.4c-2.5 0-6.1-.2-8.1-2.4-.8-.9-1.3-2-1.3-3.2v-8c0-3.1 3.2-4.7 9.4-4.7h.4c6.2 0 9.4 1.6 9.4 4.7v8c0 2.1-1.3 3.8-3.6 4.7-.7.3-1.5.5-2.4.7-1.1.1-2.2.2-3.4.2zM18 20h.2c1.2 0 2.3-.1 3.3-.2.8-.1 1.5-.3 2.2-.6 1.5-.6 3.2-1.8 3.2-4v-8c0-2.6-2.9-3.9-8.7-3.9H17.9h-.1c-5.7 0-8.7 1.3-8.7 3.9v8c0 1 .4 2 1.1 2.7 1.8 1.9 5.2 2.2 7.6 2.2.1-.1.1-.1.2-.1z"/><path fill="#0568ae" d="M9.2 33h-.1c-.2-.1-.3-.3-.3-.5l3.8-12.7c.1-.2.3-.3.5-.3.2.1.3.3.3.5L9.6 32.8c-.1.1-.2.2-.4.2zM26.4 33c-.2 0-.3-.1-.4-.3l-3.8-12.5c-.1-.2.1-.4.3-.5.2-.1.4.1.5.3l3.8 12.5c.1.2-.1.4-.3.5h-.1z"/><path fill="#0568ae" d="M10.2 30.2c-.1 0-.3-.1-.3-.2-.1-.2 0-.4.1-.5l13.1-7.1c.2-.1.4 0 .5.2.1.2 0 .4-.1.5l-13.1 7.1c-.1-.1-.2 0-.2 0z"/><path fill="#0568ae" d="M25.4 30.2h-.2L12.1 23c-.2-.1-.2-.3-.1-.5s.3-.2.5-.2l13.1 7.1c.2.1.2.3.1.5 0 .2-.2.3-.3.3zM27.2 9.1h-14c-.2 0-.4-.2-.4-.4s.2-.4.4-.4h13.9c.2 0 .4.2.4.4s-.1.4-.3.4z"/></svg>