<svg xmlns="http://www.w3.org/2000/svg" viewBox="0 0 36 36"><path fill="none" d="M0 0h36v36H0z"/><path fill="#0568ae" d="M16.3 10l3.1 3.1-6 6c-.2.1-.4.3-.6.4l-4.2 1.8c-.2.1-.5-.2-.4-.4l1.8-4.2c.1-.2.2-.4.4-.5l.1-.1 5.8-6.1zm4.7-.7l-.9-.9c-.6-.6-1.5-.6-2.1 0l-.8.8 3.1 3.1.8-.8c.5-.7.5-1.6-.1-2.2zm9.7-6.2H5.3c-1.2 0-2.1 1-2.1 2.1v25.3c0 1.2 1 2.1 2.1 2.1h25.3c1.2 0 2.1-1 2.1-2.1V5.2c.1-1.2-.9-2.1-2-2.1zM12.1 30.9H5.3c-.2 0-.3-.1-.3-.3v-4.4h7.1v4.7zm12.8 0H13.6v-4.8h11.3v4.8zm-11.3-6.3v-1c0-.4-.3-.8-.8-.8s-.8.3-.8.8v1H5v-7.9h1.5c.4 0 .8-.3.8-.8s-.3-.8-.8-.8H5v-10c0-.1.1-.2.3-.2h6.8v3c0 .4.3.8.8.8s.8-.3.8-.8v-3H25v10.3h-3c-.4 0-.8.3-.8.8s.3.8.8.8h2.9v7.9H13.6zM31 30.5c0 .2-.1.3-.3.3h-4.3V26H31v4.5zm0-5.9h-4.6v-7.9H31v7.9zm0-9.4h-4.6V4.9h4.3c.2 0 .3.1.3.3v10z"/></svg>