<svg xmlns="http://www.w3.org/2000/svg" viewBox="0 0 36 36"><path fill="none" d="M0 0h36v36H0z"/><path fill="none" d="M0 0h36v36H0z"/><path fill="#0568ae" d="M18 3.3c-4.9 0-8.9 4-8.9 8.9 0 2.7 1.2 5 3 6.7 0 0 1.4 1.3 2 2.4l3.4 5.7c.1.2.3.3.5.3s.4-.1.5-.3l3.4-5.7c.7-1.1 2-2.4 2-2.4 1.9-1.6 3-4 3-6.7 0-5-4-8.9-8.9-8.9zm5.4 10.8c0 .1-.1.2-.1.3-.9 2-2.9 3.3-5.2 3.3-3.2 0-5.8-2.6-5.8-5.7 0-3.2 2.6-5.7 5.8-5.7.6 0 1.2.1 1.7.3.2.1.4.1.5.2 1.4.6 2.5 1.7 3.1 3.1.3.7.5 1.4.5 2.2-.1.7-.3 1.4-.5 2zm10 12.4c0-2-2.2-3.6-6.1-4.7-.5-.1-1.1.2-1.2.7-.1.5.2 1.1.7 1.2 3.2.8 4.7 2 4.7 2.7 0 1.3-4.6 3.7-13.4 3.7S4.7 27.7 4.7 26.4c0-.7 1.4-1.9 4.6-2.7.5-.1.9-.7.7-1.2-.1-.5-.7-.9-1.2-.7-3.9 1-6.1 2.7-6.1 4.7 0 3.8 7.7 5.7 15.4 5.7 7.6.1 15.3-1.9 15.3-5.7z"/></svg>