<svg xmlns="http://www.w3.org/2000/svg" viewBox="0 0 36 36" enable-background="new 0 0 36 36"><path d="M18.792 8.924l-.137-.128-.005-.003c-.171-.106-.365-.159-.577-.159-.523 0-.987.32-1.149.547-.18.256-.534.41-.946.41-.491 0-1.044-.236-1.175-.765l-.04-.296c-.003-.315.098-.609.292-.855.299-.383.78-.595 1.355-.595h.064c.708.022 1.351-.822 1.737-1.327l.081-.111c.19-.272.479-.683 1.158-.745.385-.034 1.207.026 1.581.492.153.202.212.411.182.63-.03.193-.049 1.173-.03 1.482.018.29.083.507.188.63.051.06.133.129.312.129.36 0 .558-.142 1.194-.635l.065-.05c.165-.127.4-.097.526.067.127.164.097.399-.067.526l-.064.05c-.659.511-1.022.792-1.653.792-.358 0-.661-.136-.882-.392-.214-.251-.337-.611-.366-1.07-.02-.313-.007-1.365.036-1.64l-.031-.059c-.119-.147-.599-.235-.922-.206-.33.03-.455.206-.611.429l-.088.118c-.487.638-1.297 1.683-2.359 1.639h-.051c-.338 0-.609.109-.764.308-.088.112-.134.243-.133.379l.017.127c.031.125.252.198.448.198.205 0 .316-.069.334-.094.308-.43 1.011-.863 1.761-.863.356 0 .685.093.978.275l.012.008c.107.07.203.156.293.264l.07.093.152.257.048.112c.05.128.084.258.1.385.024.164.025.327.006.495-.066.673-.503 1.527-1.517 1.892-1.074.386-1.643.839-2.432 1.466l-.17.13-.277.223c-.216.204-.264.511-.24.712.022.199.004.685-.624.958-.083.036-.165.054-.244.054-.28 0-.474-.172-.577-.511-.045-.15-.047-.159-.232-.159h-.075l-.246-.016-.376-.026c-.505 0-.674.2-.764.374-.096.183-.322.256-.506.159-.184-.095-.255-.322-.16-.506.269-.516.75-.778 1.43-.778l.418.026.204.016h.075c.617 0 .825.347.911.573l.021-.08c-.046-.389.052-.948.47-1.342.111-.105.229-.194.345-.28l.145-.111c.818-.651 1.46-1.161 2.65-1.589.686-.247.98-.816 1.025-1.267.014-.108.014-.207 0-.298l-.006-.069-.052-.162-.022-.052-.079-.139-.035-.047zm14.53 9.076c0 8.461-6.884 15.346-15.346 15.346-8.461 0-15.346-6.884-15.346-15.346s6.885-15.345 15.346-15.345c8.462 0 15.346 6.884 15.346 15.345zm-23.798-1.88c-.013-.117-.025-.25-.072-.414-.045-.17-.171-.274-.429-.474-.427-.329-1.006-.775-1.316-1.893-.123-.432-.174-.868-.15-1.293l.005-.083c.066-1.062.118-1.901.67-2.566.795-.961 1.167-1.965 1.171-3.198-3.647 2.655-6.023 6.955-6.023 11.801 0 8.048 6.547 14.596 14.596 14.596 8.048 0 14.596-6.547 14.596-14.596 0-8.048-6.547-14.595-14.596-14.595-2.885 0-5.575.845-7.841 2.295.105 1.647-.303 2.94-1.325 4.174-.396.478-.439 1.172-.498 2.134l-.006.082c-.019.339.022.691.123 1.046.244.879.67 1.208 1.047 1.498.294.228.589.458.7.877.061.22.08.399.094.529l.006.068c.04.446.038.534.435.527h.017c1.461 0 3.019 1.424 3.411 2.16.155.29.168.532.04.721-.29.436-.22 2.009.638 2.919.977 1.037 1.341 3.083 1.341 4.13 0 1.049.166 2.787 1.197 3.492-.134-.301-.25-.699-.197-1.17l.066-.35.012-.036.131-.367.049-.106.131-.279.086-.157.145-.245.063-.105.221-.339.049-.071.357-.51.055-.077.021-.031c.262-.364.498-.695.678-1.001l.179-.29.101-.163c.566-.899 1.618-2.568 1.375-3.541-.063-.249-.208-.436-.447-.571-.761-.435-1.263-.902-1.67-1.276-.526-.489-.942-.874-1.675-1.034-.379-.083-.659-.127-.907-.143-.207-.013-.364-.191-.351-.398.013-.207.175-.365.398-.351.289.018.603.067 1.021.159.933.203 1.464.695 2.026 1.216.396.367.844.783 1.53 1.175.419.238.69.589.803 1.042.321 1.283-.798 3.059-1.466 4.12l-.102.163-.169.274c-.196.333-.442.679-.72 1.064l-.035.051-.034.047-.338.48-.034.051-.213.324-.073.122-.117.197-.099.179-.091.195-.025.053-.023.049-.112.314-.007.023-.042.223c-.054.481.164.86.308 1.111l.131.262c.068.205.019.356-.034.448-.055.103-.183.251-.446.251-.092 0-.2-.018-.328-.063-1.849-.624-2.126-3.032-2.126-4.413 0-.972-.361-2.793-1.137-3.616-.997-1.058-1.24-2.897-.77-3.76-.172-.419-1.545-1.805-2.772-1.805h-.029c-1.062 0-1.135-.816-1.171-1.209l-.007-.053z" fill="#0568ae"/></svg>