<svg xmlns="http://www.w3.org/2000/svg" viewBox="0 0 36 36" enable-background="new 0 0 36 36"><path d="M33.002 17.971c0-8.268-6.703-14.971-14.97-14.971h-.03c-8.27 0-15 6.73-15 15 0 8.272 6.73 15 15 15 8.272 0 15-6.728 15-15v-.028999999999999998zm-14.97 12.97c-7.152 0-12.971-5.819-12.971-12.971 0-3.87 1.706-7.348 4.403-9.726.005 1.278-.178 2.134-.517 2.366-.34.236-1.204 1.287-.735 2.959.269.962.753 1.338 1.142 1.64.264.204.472.364.549.654.056.205.071.362.085.488.038.418.12.524.84.617.719.093 1.158.49 1.584.872.138.124.265.242.404.347l.372.267c.556.383.877.643.645.99-.4.598-.268 2.304.651 3.277.828.878 1.202 2.722 1.202 3.751 0 1.239.234 3.396 1.81 3.93.243.083.295.016.317-.02.047-.081-.003-.169-.095-.328-.152-.267-.407-.716-.341-1.295.082-.747.712-1.628 1.269-2.407.256-.355.494-.691.68-1.004l.266-.43c.616-.979 1.648-2.618 1.374-3.709-.084-.338-.288-.6-.605-.78-.692-.395-1.149-.816-1.55-1.186-.531-.492-.989-.916-1.79-1.091-.772-.169-1.462-.204-1.905-.204-.375 0-.601.024-.614.026 0 0-.215.032-.448.032-.32 0-.53-.061-.547-.159l-.026-.174c-.066-.489-.207-1.506-.936-1.506l-.031.002-.064.001c-.381 0-.697-.142-.842-.381-.131-.215-.115-.493.047-.807.197-.375.544-.557 1.063-.557l.397.025.207.016.073-.002c.444 0 .515.23.57.412.033.106.074.237.21.237l.095-.022c.319-.14.293-.369.27-.569-.031-.267-.066-.569.462-.977l.452-.359c.761-.606 1.362-1.085 2.462-1.48.819-.295 1.174-.985 1.23-1.532.058-.524-.131-.988-.493-1.213-.225-.141-.478-.212-.753-.212-.599 0-1.172.35-1.408.681-.108.152-.345.246-.621.246-.332 0-.703-.142-.785-.465-.07-.275-.005-.569.175-.802.221-.283.587-.438 1.028-.438l.062.001c.865.029 1.865-.373 1.996-.78.026-.076.043-.223-.126-.345-.087-.063-.074-.1-.071-.112.065-.194.795-.436 1.143-.408.336.024.96.229 1.204.536.084.109.117.216.099.33-.069.446-.136 1.255.22 1.67.142.168.335.251.576.251.503 0 1.189-.495 1.853-.977.467-.339.95-.689 1.192-.7.221-.013.401-.088.503-.215l.081-.165.062.04c.27.176.535.36.791.556l.049.039c.539.415 1.045.871 1.511 1.363l.042.044c.231.245.452.499.663.761l.028.036c.412.516.783 1.063 1.113 1.635l.084.146c.143.255.276.515.401.779l.115.255.256.616.079.201c-.296-.077-.525-.059-.635-.047-.121-.187-.533-.773-.932-.873-.291-.076-.867.165-1.417.396-.317.133-.613.257-.776.284-.5.077-1.239.889-1.597 1.461-.169.078-.959.479-.959 1.285l.001.127c-.005.902-.017 2.784 1.727 3.159.413.09.811.132 1.217.132.312 0 .575-.025.808-.046l.456-.031c.247 0 .401.051.532.176.233.228.226.44.217.761-.008.312-.018.699.207 1.221.242.561.237 1.392.23 2.125l.006.722c-2.234 3.915-6.447 6.561-11.268 6.561z" fill="#0568ae"/></svg>