<svg xmlns="http://www.w3.org/2000/svg" viewBox="0 0 36 36" enable-background="new 0 0 36 36"><path d="M19.538 27c0-3.916 3.019-7.136 6.851-7.467.895-1.602 1.408-3.445 1.408-5.408 0-6.167-5.029-11.169-11.237-11.169s-11.24 5.003-11.24 11.169c0 3.343 1.48 6.34 3.821 8.387 0 0 1.719 1.599 2.546 2.995h.006l4.246 7.144c.11.23.34.394.621.394.273 0 .51-.163.622-.396l2.498-4.208c-.091-.466-.142-.948-.142-1.441zm-2.978-5.749h-.002c-4.008 0-7.264-3.234-7.264-7.221 0-3.991 3.256-7.224 7.264-7.224h.002c.751 0 1.477.114 2.159.325.227.07.45.152.667.243 1.738.731 3.131 2.115 3.867 3.843.368.864.571 1.813.571 2.81 0 .931-.183 1.817-.506 2.633l-.166.385c-1.15 2.481-3.668 4.206-6.592 4.206zm10.478-.251c-3.313 0-6 2.687-6 6 0 3.314 2.687 6 6 6 3.314 0 6-2.686 6-6 0-3.313-2.686-6-6-6m-2.862 7c-.552 0-1-.448-1-1s.448-1 1-1h5.724c.552 0 1 .448 1 1s-.448 1-1 1h-5.724" fill="#0568ae"/></svg>