<svg xmlns="http://www.w3.org/2000/svg" viewBox="0 0 36 36" enable-background="new 0 0 36 36"><path d="M30.562 27c0 .207-.168.375-.375.375h-6.359c-.207 0-.375-.168-.375-.375s.168-.375.375-.375h6.359c.207 0 .375.168.375.375zm-4.914-12.864c0-4.188-3.427-7.596-7.64-7.596-.326 0-.654.021-.975.062-.206.026-.351.214-.325.419.026.206.216.351.419.325.29-.037.586-.056.88-.056 3.799 0 6.89 3.071 6.89 6.846 0 3.776-3.091 6.849-6.89 6.849-3.257 0-6.095-2.3-6.749-5.468-.042-.203-.241-.333-.443-.291-.203.042-.333.24-.291.443.726 3.515 3.873 6.067 7.484 6.067 4.213-.001 7.64-3.41 7.64-7.6zm1.997 6.522c1.256-1.877 1.976-4.128 1.976-6.423 0-6.366-5.209-11.544-11.612-11.544-6.405 0-11.615 5.179-11.615 11.544 0 3.315 1.439 6.475 3.941 8.662.017.016 1.689 1.579 2.479 2.912l.036.051 4.2 7.064c.179.374.546.606.958.606.404 0 .781-.238.945-.579l2.135-3.596c.939 2.352 3.236 4.021 5.919 4.021 3.515 0 6.375-2.86 6.375-6.375 0-3.301-2.52-6.023-5.737-6.343zm-6.856 7.731l-2.496 4.205c-.11.227-.445.256-.583-.026l-4.246-7.144-.037-.051c-.855-1.413-2.512-2.96-2.591-3.034-2.347-2.052-3.693-5.007-3.693-8.105 0-5.952 4.874-10.794 10.865-10.794 5.989 0 10.862 4.842 10.862 10.794 0 2.312-.781 4.567-2.138 6.405-3.387.146-6.1 2.939-6.1 6.361 0 .478.057.941.157 1.389zm6.218 4.236c-3.102 0-5.625-2.523-5.625-5.625 0-3.101 2.523-5.625 5.625-5.625s5.625 2.524 5.625 5.625c0 3.102-2.523 5.625-5.625 5.625z" fill="#0568ae"/></svg>