<svg xmlns="http://www.w3.org/2000/svg" viewBox="0 0 36 36" enable-background="new 0 0 36 36"><path d="M30.672 3.078h-25.344c-1.171 0-2.124.953-2.124 2.124v25.345c0 1.171.953 2.124 2.124 2.124h25.345c1.171 0 2.124-.953 2.124-2.124v-25.345c-.001-1.171-.953-2.124-2.125-2.124zm-25.669 2.124c0-.178.146-.324.324-.324h6.765v2.924c-2.594.364-4.592 2.574-4.592 5.251 0 .763.166 1.487.458 2.143h-2.955v-9.994zm7.089 25.669h-6.764c-.178 0-.324-.146-.324-.324v-4.437h7.089v4.761zm-7.089-6.261v-7.914h3.958l.355.344s.817.76 1.21 1.423h.003l1.562 2.629v3.518h-7.088zm19.86 6.261h-11.27v-4.761h11.27v4.761zm0-6.261h-11.27v-3.516l1.563-2.633c.395-.662 1.213-1.422 1.213-1.422l.355-.344h8.139v7.915zm0-9.414h-7.136c.292-.656.458-1.379.458-2.143 0-2.678-1.997-4.888-4.592-5.251v-2.924h11.27v10.318zm6.134 15.351c0 .178-.146.324-.324.324h-4.31v-4.761h4.634v4.437zm0-5.937h-4.634v-7.914h4.634v7.914zm0-9.414h-4.634v-10.318h4.31c.178 0 .324.146.324.324v9.994zm-15.256-2.182c0 1.601-1.298 2.899-2.899 2.899s-2.899-1.298-2.899-2.899 1.298-2.899 2.899-2.899 2.899 1.298 2.899 2.899z" fill="#0568ae"/></svg>