<svg xmlns="http://www.w3.org/2000/svg" viewBox="0 0 36 36" enable-background="new 0 0 36 36"><path d="M25.641 14.111c0 4.19-3.427 7.599-7.639 7.599-3.611 0-6.759-2.552-7.484-6.067-.042-.203.088-.401.292-.443.2-.041.401.088.443.291.654 3.169 3.493 5.469 6.75 5.469 3.799 0 6.889-3.072 6.889-6.849 0-3.775-3.09-6.846-6.889-6.846-.294 0-.591.019-.881.056-.209.026-.394-.119-.42-.325-.026-.206.119-.393.325-.419.321-.041.649-.061.975-.061 4.212-.001 7.639 3.406 7.639 7.595zm3.973.098c0 3.317-1.439 6.478-3.948 8.669-.008.008-1.684 1.572-2.476 2.9l-4.243 7.146c-.163.341-.54.579-.944.579-.412 0-.78-.232-.958-.606l-4.201-7.065-.037-.051c-.79-1.332-2.462-2.896-2.479-2.911-2.501-2.187-3.94-5.346-3.94-8.662 0-6.366 5.21-11.544 11.615-11.544 6.402 0 11.611 5.179 11.611 11.545zm-.75 0c0-5.952-4.873-10.794-10.862-10.794-5.991 0-10.865 4.842-10.865 10.794 0 3.099 1.346 6.053 3.693 8.105.079.073 1.736 1.622 2.591 3.034l.037.051 4.246 7.145c.138.281.474.253.583.026l4.258-7.174c.849-1.422 2.547-3.007 2.619-3.074 2.354-2.058 3.7-5.012 3.7-8.113z" fill="#0568ae"/></svg>