<svg xmlns="http://www.w3.org/2000/svg" viewBox="0 0 36 36" enable-background="new 0 0 36 36"><path d="M18.002 2.956c-6.208 0-11.24 5.002-11.24 11.169 0 3.343 1.48 6.34 3.821 8.387 0 0 1.719 1.599 2.546 2.995h.006l4.246 7.144c.11.23.34.394.621.394.274 0 .51-.163.622-.396l4.243-7.146c.83-1.392 2.552-2.991 2.552-2.991 2.343-2.047 3.82-5.045 3.82-8.387-.001-6.167-5.029-11.169-11.237-11.169zm6.758 13.705l-.166.385c-1.151 2.481-3.669 4.205-6.593 4.205h-.001c-4.008 0-7.264-3.234-7.264-7.221 0-3.991 3.256-7.224 7.264-7.224h.002c.751 0 1.477.114 2.159.325.227.07.45.152.667.243 1.738.731 3.131 2.115 3.867 3.843.368.864.571 1.813.571 2.81 0 .931-.183 1.817-.506 2.634z" fill="#0568ae"/></svg>