<svg xmlns="http://www.w3.org/2000/svg" viewBox="0 0 36 36" enable-background="new 0 0 36 36"><path d="M24.311 11.689h-15.93c-.207 0-.375-.168-.375-.375s.168-.375.375-.375h15.93c.207 0 .375.168.375.375s-.168.375-.375.375zm-.756 3.691c-.217 0-.438.014-.654.041-.206.026-.351.213-.325.419.026.206.211.353.419.325.185-.024.374-.035.56-.035 2.414 0 4.377 1.951 4.377 4.349s-1.963 4.35-4.377 4.35c-2.069 0-3.872-1.461-4.289-3.474-.042-.203-.243-.332-.443-.292-.203.042-.333.24-.291.443.487 2.36 2.6 4.072 5.023 4.072 2.827 0 5.127-2.288 5.127-5.1 0-2.811-2.3-5.098-5.127-5.098zm7.725 5.163c0 2.207-.957 4.31-2.627 5.769-.002.002-1.085 1.014-1.594 1.867l-2.775 4.673c-.123.258-.415.442-.729.442-.32 0-.605-.18-.744-.47l-.755-1.27h-15.527c-.207 0-.375-.168-.375-.375s.168-.375.375-.375h15.08l-1.535-2.582-.03-.043c-.507-.856-1.587-1.865-1.598-1.876-1.661-1.452-2.619-3.555-2.619-5.761 0-.86.149-1.684.412-2.457h-7.858c-.207 0-.375-.168-.375-.375s.168-.375.375-.375h8.16c.433-.933 1.048-1.762 1.801-2.448h-9.961c-.207 0-.375-.168-.375-.375s.168-.375.375-.375h10.868l.036.007c1.224-.81 2.692-1.284 4.269-1.284 1.326 0 2.575.335 3.666.922l.001-4.81c0-.101-.028-.222-.066-.345h-4.324c-.207 0-.375-.168-.375-.375v-4.322c-.123-.038-.244-.066-.345-.066h-15.582c-.584 0-1.059.454-1.059 1.013l.002 19.476c0 .207-.168.375-.375.375s-.375-.168-.375-.375l-.002-19.476c0-.972.812-1.763 1.809-1.763h15.584c.499 0 1.142.266 1.494.619l3.746 3.745c.353.353.619.995.619 1.494l-.001 5.203-.013.063c2.005 1.39 3.322 3.696 3.322 6.305zm-4.588-12.665l-3.484-3.484v3.484h3.484zm3.838 12.665c0-3.822-3.129-6.932-6.976-6.932-3.848 0-6.978 3.11-6.978 6.932 0 1.99.864 3.886 2.372 5.204.055.051 1.144 1.069 1.714 2.005l.031.044 2.778 4.674c.044.085.129.074.153.026l2.791-4.702c.565-.947 1.689-1.996 1.736-2.04 1.515-1.323 2.379-3.22 2.379-5.211z" fill="#0568ae"/></svg>