<svg xmlns="http://www.w3.org/2000/svg" viewBox="0 0 36 36" enable-background="new 0 0 36 36"><path d="M22.639 13.85h-12.575c-.414 0-.75-.336-.75-.75s.336-.75.75-.75h12.575c.414 0 .75.336.75.75s-.336.75-.75.75zm-12.575 2.295c-.414 0-.75.336-.75.75s.336.75.75.75h8.001c.334-.544.724-1.05 1.172-1.5h-9.173zm0 3.795c-.414 0-.75.336-.75.75s.336.75.75.75h6.813c.029-.514.104-1.015.224-1.5h-7.037zm11.241 10.255l-.436-.735-.191-.281h-13.076c-.275 0-.5-.225-.5-.5l-.001-22.69c0-.275.225-.5.5-.5h13.863v3.764c0 .207.168.375.375.375h3.764v4.117c.832.053 1.628.229 2.375.511v-5.283c0-.499-.266-1.141-.619-1.494l-3.746-3.746c-.353-.353-.995-.619-1.494-.619h-15.584c-.998 0-1.81.791-1.81 1.763l.001 24.916c0 .972.81 1.762 1.809 1.762h15.583l-.808-1.359h-.005zm10.482-8.302c0 1.998-.883 3.789-2.283 5.012 0 0-1.029.955-1.525 1.787l-2.536 4.271c-.067.139-.208.236-.372.236-.168 0-.305-.097-.371-.235l-2.537-4.269h-.003c-.495-.834-1.522-1.79-1.522-1.79-1.399-1.223-2.283-3.015-2.283-5.012 0-3.685 3.007-6.675 6.717-6.675 3.71 0 6.715 2.99 6.715 6.675zm-2.707-.049c0-2.214-1.795-4.009-4.009-4.009-2.214 0-4.009 1.795-4.009 4.009s1.795 4.009 4.009 4.009c2.214 0 4.009-1.795 4.009-4.009z" fill="#0568ae"/></svg>