<svg xmlns="http://www.w3.org/2000/svg" viewBox="0 0 36 36" enable-background="new 0 0 36 36"><path d="M18 2.625c-8.478 0-15.375 6.898-15.375 15.375 0 8.478 6.897 15.375 15.375 15.375s15.375-6.897 15.375-15.375c0-8.477-6.897-15.375-15.375-15.375zm.375 29.991v-5.616c0-.207-.168-.375-.375-.375s-.375.168-.375.375v5.615c-7.766-.197-14.043-6.474-14.24-14.24h5.615c.207 0 .375-.168.375-.375s-.168-.375-.375-.375h-5.615c.197-7.766 6.474-14.043 14.24-14.24v5.615c0 .207.168.375.375.375s.375-.168.375-.375v-5.615c7.766.197 14.043 6.474 14.241 14.24h-5.616c-.207 0-.375.168-.375.375s.168.375.375.375h5.616c-.198 7.767-6.475 14.044-14.241 14.241z" fill="#0568ae"/></svg>