<svg xmlns="http://www.w3.org/2000/svg" viewBox="0 0 36 36" enable-background="new 0 0 36 36"><path d="M18 3c-8.284 0-15 6.716-15 15s6.716 15 15 15 15-6.716 15-15-6.716-15-15-15zm1.775 26.868v-4.148c0-.396-.324-.72-.72-.72h-2.11c-.396 0-.72.324-.72.72v4.148c-5.199-.774-9.319-4.894-10.093-10.093h4.435c.396 0 .72-.324.72-.72v-2.11c0-.396-.324-.72-.72-.72h-4.435c.774-5.199 4.894-9.319 10.093-10.093v4.148c0 .396.324.72.72.72h2.11c.396 0 .72-.324.72-.72v-4.147c5.199.774 9.319 4.894 10.093 10.093h-3.861c-.396 0-.72.324-.72.72v2.11c0 .396.324.72.72.72h3.861c-.774 5.198-4.894 9.318-10.093 10.092z" fill="#0568ae"/></svg>