<svg xmlns="http://www.w3.org/2000/svg" viewBox="0 0 36 36" enable-background="new 0 0 36 36"><path d="M33.555 11.074l-.203 2.234c-.042.47-.318 1.117-.63 1.472l-1.393 1.594c-.175.201-.262.615-.182.87l.209.667c.149.475.094 1.167-.134 1.611l-1.677 3.302c-.134.266-.175.764-.086 1.045l.688 2.171c.182.574-.066 1.17-.552 1.328-.43.139-1.04-.048-1.42-.434l-1.583-1.604c-.183-.187-.58-.291-.83-.222l-4.083 1.142c-.308.086-.749.38-.945.631l-1.417 1.799c-.182.232-.442.375-.733.401l-.098.005c-.256 0-.5-.093-.697-.266l-1.859-1.633c-.184-.161-.548-.206-.767-.096l-.196.1c-.522.266-1.195.1-1.535-.378l-.576-.813c-.173-.246-.6-.527-.893-.59l-5.159-1.122c-.446-.097-1.069-.401-1.418-.693l-.136-.115c-.341-.283-.774-.813-.984-1.203l-1.612-2.975c-.244-.449-.284-1.145-.094-1.619l.205-.512c.15-.372.237-.633.248-.685l.035-.784.127-2.399c.028-.527.394-1.12.852-1.381l.678-.387c.182-.103.408-.04.512.14.103.18.04.409-.14.511l-.679.387c-.234.134-.461.5-.475.769l-.127 2.399-.039.807c-.003.118-.103.421-.297.903l-.205.511c-.106.264-.077.733.056.983l1.613 2.976c.166.309.535.76.806.984l.137.115c.256.214.768.464 1.095.535l5.16 1.121c.482.105 1.062.487 1.349.89l.574.813c.123.172.394.239.582.143l.196-.1c.487-.248 1.189-.16 1.6.2l1.861 1.634c.066.058.151.086.231.078.083-.007.159-.05.212-.119l1.417-1.799c.291-.371.877-.762 1.332-.889l4.083-1.141c.516-.145 1.191.034 1.567.417l1.583 1.604c.205.209.527.289.653.248.061-.02.135-.183.07-.388l-.688-2.17c-.149-.473-.093-1.166.131-1.611l1.678-3.303c.134-.265.175-.764.086-1.047l-.21-.667c-.159-.506-.016-1.189.333-1.588l1.394-1.594c.208-.24.417-.729.446-1.046l.203-2.234c.024-.265-.149-.652-.363-.812l-.168-.125c-.061-.045-.125-.063-.179-.048-.054.014-.101.06-.132.129l-.325.716c-.213.473-.761.906-1.274 1.006l-.615.12c-.27.052-.617.329-.729.58l-.476 1.07c-.189.425-.638.959-1.025 1.217l-.164.11c-.476.317-1.174.259-1.589-.131l-.141-.133c-.059-.055-.13-.08-.191-.074-.065.007-.126.048-.171.114l-.318.47c-.247.365-.715.764-1.129.823-.207.029-.405-.036-.555-.185-.201-.199-.289-.521-.241-.883l.236-1.77c.01-.075-.006-.139-.044-.179-.039-.041-.105-.06-.177-.054l-2.548.206c-.251.056-.403-.081-.468-.167-.195-.261-.039-.549.159-.915l.218-.433c.063-.144.069-.272.017-.351-.053-.08-.174-.126-.334-.126h-11.764c-.207 0-.375-.168-.375-.375s.168-.375.375-.375h11.766c.417 0 .768.17.962.465.193.295.208.682.042 1.062l-.215.431 2.106-.17c.305-.022.587.08.781.285.195.205.283.495.243.794l-.236 1.769.008.207c.137-.058.389-.241.553-.483l.318-.47c.168-.248.426-.408.71-.439.285-.032.57.068.787.273l.141.132c.162.151.475.177.659.054l.164-.11c.271-.181.625-.601.757-.898l.476-1.07c.213-.477.759-.912 1.271-1.012l.615-.12c.271-.053.623-.329.734-.579l.326-.717c.125-.275.353-.474.627-.544.273-.071.57-.008.813.172l.169.125c.426.321.711.958.663 1.485z" fill="#0568ae"/></svg>