<svg xmlns="http://www.w3.org/2000/svg" viewBox="0 0 36 36" enable-background="new 0 0 36 36"><path d="M6.131 10.787h13.814c.604 0 .901.451.66 1.002-.241.551-.659 1.07-.283.991l2.548-.206c.395-.031.675.264.623.656l-.236 1.77c-.052.392.115.684.372.647.257-.037.649-.334.871-.662l.318-.47c.222-.328.641-.375.929-.104l.142.133c.289.271.794.313 1.123.093l.165-.11c.329-.22.73-.696.891-1.058l.476-1.07c.161-.362.61-.72 1-.796l.615-.12c.389-.076.842-.433 1.004-.793l.325-.715c.164-.36.558-.462.876-.227l.168.125c.317.236.549.752.513 1.146l-.203 2.234c-.036.394-.278.961-.539 1.259l-1.392 1.594c-.26.298-.376.851-.258 1.229l.209.667c.119.378.069.976-.11 1.329l-1.677 3.302c-.178.353-.229.952-.109 1.329l.688 2.17c.12.377-.021.764-.313.858-.292.094-.757-.059-1.036-.341l-1.583-1.604c-.278-.282-.818-.425-1.199-.319l-4.083 1.142c-.382.107-.894.448-1.139.76l-1.417 1.799c-.245.312-.689.352-.986.091l-1.861-1.633c-.298-.261-.83-.328-1.183-.148l-.196.1c-.353.18-.829.063-1.058-.261l-.576-.813c-.229-.323-.733-.656-1.12-.74l-5.157-1.123c-.387-.084-.953-.36-1.256-.614l-.135-.114c-.305-.254-.708-.746-.896-1.094l-1.613-2.976c-.188-.348-.222-.934-.075-1.301l.205-.511c.148-.367.268-.713.27-.769l.039-.82.042-3.286c0-.297.148-.383.398-.336l.93.164c.227.047.289-.328.227-.672-.063-.344-.043-.784 1.248-.784z" fill="#0568ae"/></svg>