<?xml version="1.0" encoding="utf-8"?>
<!-- Generator: Adobe Illustrator 18.1.0, SVG Export Plug-In . SVG Version: 6.00 Build 0)  -->
<svg version="1.1" id="Layer_1" xmlns="http://www.w3.org/2000/svg" xmlns:xlink="http://www.w3.org/1999/xlink" x="0px" y="0px"
	 viewBox="0 0 36 36" enable-background="new 0 0 36 36" xml:space="preserve">
	<path fill="#0568ae" d="M8.8,4.3v12.3c0,0.2-0.2,0.4-0.4,0.4c-0.2,0-0.4-0.2-0.4-0.4V4.3c0-0.2,0.2-0.4,0.4-0.4
		C8.7,3.9,8.8,4,8.8,4.3z M27.6,17c0.2,0,0.4-0.2,0.4-0.4V4.3c0-0.2-0.2-0.4-0.4-0.4c-0.2,0-0.4,0.2-0.4,0.4v12.3
		C27.2,16.8,27.4,17,27.6,17z M33.4,27c0,3.5-2.9,6.4-6.4,6.4c-2.9,0-5.3-1.9-6.1-4.5H11c-1.1,0-2-0.9-2-2l0.7-11.7
		c0-1.1,0.9-1.9,2-1.9h12.5c1.1,0,2,0.9,2,2l0.3,5.4c0.1,0,0.3,0,0.4,0C30.5,20.6,33.4,23.5,33.4,27z M20.7,28.1
		c-0.1-0.4-0.1-0.8-0.1-1.1c0-3.1,2.3-5.7,5.2-6.3l-0.3-5.4c0-0.7-0.5-1.2-1.2-1.2H11.7c-0.7,0-1.2,0.5-1.2,1.2L9.8,26.9
		c0,0.6,0.5,1.2,1.2,1.2H20.7z M32.6,27c0-3.1-2.5-5.6-5.6-5.6c-3.1,0-5.6,2.5-5.6,5.6c0,3.1,2.5,5.6,5.6,5.6
		C30.1,32.6,32.6,30.1,32.6,27z M30.2,26.6h-2.8v-2.8c0-0.2-0.2-0.4-0.4-0.4c-0.2,0-0.4,0.2-0.4,0.4v2.8h-2.8
		c-0.2,0-0.4,0.2-0.4,0.4c0,0.2,0.2,0.4,0.4,0.4h2.8v2.8c0,0.2,0.2,0.4,0.4,0.4c0.2,0,0.4-0.2,0.4-0.4v-2.8h2.8
		c0.2,0,0.4-0.2,0.4-0.4C30.6,26.8,30.4,26.6,30.2,26.6z"/>

</svg>
