<?xml version="1.0" encoding="utf-8"?>
<!-- Generator: Adobe Illustrator 18.1.0, SVG Export Plug-In . SVG Version: 6.00 Build 0)  -->
<svg version="1.1" id="Layer_1" xmlns="http://www.w3.org/2000/svg" xmlns:xlink="http://www.w3.org/1999/xlink" x="0px" y="0px"
	 viewBox="0 0 36 36" enable-background="new 0 0 36 36" xml:space="preserve">
	<path fill="#0568ae" d="M13.9,24.9c0.2,0.1,0.2,0.3,0,0.5l-2.4,1.7L10.3,28c-0.2,0.2-0.4,0.1-0.4-0.2l0-1.6h0
		c-2.1,0-3.9-1.7-3.9-3.9v-7.4c-1.5-0.5-2.6-1.9-2.6-3.5l0,0l0,0c0-0.1,0-0.2,0-0.3c0.2-1.7,1.5-3.1,3.2-3.3c0.2-2.1,2-3.8,4.2-3.8
		c1.8,0,3.4,1.2,4,2.8c0.2,0,0.3,0,0.5,0c1.5,0,2.7,1.2,2.7,2.7c0,0.1,0,0.1,0,0.2c1.3,0.2,2.3,1.4,2.3,2.7c0,1.5-1.2,2.8-2.8,2.8H8
		v7.3c0,1,0.8,1.9,1.9,1.9h0l0-1.6c0-0.3,0.2-0.4,0.4-0.2l0.7,0.5l0,0L13.9,24.9z M29.9,22.5c0-0.1,0-0.1,0-0.2c0-0.8-0.3-1.5-0.9-2
		c0-0.1,0-0.1,0-0.2v-8.5c0-2.1-1.7-3.9-3.9-3.9h-0.2l0-1.6c0-0.3-0.2-0.4-0.4-0.2l-1.2,0.9l-2.4,1.7c-0.2,0.1-0.2,0.3,0,0.5
		l2.9,2.1v0l0.7,0.5c0.2,0.2,0.4,0.1,0.4-0.2l0-1.6h0.2c1,0,1.9,0.8,1.9,1.9v8c-0.1,0-0.2,0-0.3,0c-0.6-1.6-2.1-2.8-4-2.8
		c-2.2,0-4,1.7-4.2,3.8c-1.7,0.2-3,1.6-3.2,3.3c0,0.1,0,0.2,0,0.3l0,0l0,0c0,2,1.6,3.7,3.7,3.7h10.4c1.5,0,2.8-1.2,2.8-2.8
		C32.2,23.9,31.2,22.8,29.9,22.5z"/>
</svg>
