<?xml version="1.0" encoding="utf-8"?>
<!-- Generator: Adobe Illustrator 18.1.0, SVG Export Plug-In . SVG Version: 6.00 Build 0)  -->
<svg version="1.1" id="Layer_1" xmlns="http://www.w3.org/2000/svg" xmlns:xlink="http://www.w3.org/1999/xlink" x="0px" y="0px"
	 viewBox="0 0 36 36" enable-background="new 0 0 36 36" xml:space="preserve">
	<path fill="#0568ae" d="M29.9,16.5h-6.8v-1.3c2.6-1.1,4.7-2.9,6.3-5.3c0.4-0.7,0.2-1.6-0.5-2.1c-0.7-0.4-1.6-0.2-2.1,0.5
		c-1,1.5-2.3,2.8-3.8,3.6c-0.4-2.4-2.5-4.3-5.1-4.3c-2.5,0-4.7,1.8-5.1,4.3c-1.5-0.8-2.8-2.1-3.8-3.6C8.7,7.6,7.8,7.4,7.1,7.8
		C6.4,8.3,6.1,9.2,6.6,9.9c1.5,2.4,3.7,4.3,6.3,5.3v1.3H6.1c-0.8,0-1.5,0.7-1.5,1.5s0.7,1.5,1.5,1.5h6.8v1.3
		c-2.6,1.1-4.7,2.9-6.3,5.3c-0.4,0.7-0.2,1.6,0.5,2.1c0.2,0.2,0.5,0.2,0.8,0.2c0.5,0,1-0.3,1.3-0.7c1-1.6,2.3-2.8,3.8-3.6
		c0.4,2.4,2.5,4.3,5.1,4.3c2.5,0,4.7-1.8,5.1-4.3c1.5,0.8,2.8,2.1,3.8,3.6c0.4,0.7,1.4,0.9,2.1,0.5c0.7-0.4,0.9-1.4,0.5-2.1
		c-1.5-2.4-3.7-4.3-6.3-5.3v-1.3h6.8c0.8,0,1.5-0.7,1.5-1.5S30.8,16.5,29.9,16.5z"/>
</svg>
