<?xml version="1.0" encoding="utf-8"?>
<!-- Generator: Adobe Illustrator 18.1.0, SVG Export Plug-In . SVG Version: 6.00 Build 0)  -->
<svg version="1.1" id="Layer_1" xmlns="http://www.w3.org/2000/svg" xmlns:xlink="http://www.w3.org/1999/xlink" x="0px" y="0px"
	 viewBox="0 0 36 36" enable-background="new 0 0 36 36" xml:space="preserve">
	<path fill="#0568ae" d="M29.1,16c0-0.1,0-0.2,0-0.3c0-2.7-2.2-4.9-4.9-4.9c-0.3,0-0.6,0-0.9,0.1c-1.1-2.9-3.9-5-7.2-5
		c-4,0-7.2,3-7.6,6.9c-3.1,0.4-5.5,2.9-5.8,6c0,0.2,0,0.4,0,0.5l0,0l0,0c0,3.7,3,6.7,6.7,6.7h18.8c2.8,0,5-2.3,5-5
		C33.3,18.5,31.5,16.4,29.1,16z"/>
</svg>
