<svg xmlns="http://www.w3.org/2000/svg" viewBox="0 0 36 36" enable-background="new 0 0 36 36"><path fill="none" d="M0 0h36v36h-36z"/><path d="M22.182 20.722l-3.431-4.51c-.113-.148-.242-.254-.381-.327v11.121c0 .207-.168.375-.375.375s-.375-.168-.375-.375v-11.15c-.16.072-.31.187-.437.352l-3.45 4.497c-.126.164-.362.194-.526.069-.164-.126-.195-.361-.069-.526l3.45-4.496c.361-.47.85-.728 1.378-.728h.003c.522.001 1.025.269 1.379.734l3.431 4.511c.125.165.094.4-.071.525-.068.052-.148.077-.226.077-.114-.001-.226-.052-.3-.149zm7.304-4.986v-.027c0-2.922-2.378-5.299-5.301-5.299-.207 0-.417.013-.633.04-1.222-3.004-4.167-5.002-7.425-5.002-2.742 0-5.266 1.378-6.752 3.687-.111.174-.061.406.113.519.173.111.406.062.518-.113 1.347-2.093 3.636-3.343 6.121-3.343 3.047 0 5.792 1.927 6.831 4.796.062.171.233.273.419.241.285-.051.549-.076.809-.076 2.509 0 4.551 2.041 4.551 4.549l-.012.171-.012.133c-.013.192.122.362.312.395 2.253.381 3.889 2.317 3.889 4.604 0 2.576-2.096 4.672-4.672 4.672h-6.434c-.207 0-.375.168-.375.375s.168.375.375.375h6.434c2.99 0 5.422-2.433 5.422-5.422-.001-2.538-1.738-4.705-4.178-5.275zm-15.47 9.948h-4.606c-3.487 0-6.323-2.837-6.323-6.323 0-3.487 2.837-6.323 6.323-6.323 1.026 0 2.045.251 2.946.727.183.097.41.026.507-.156.097-.183.027-.41-.156-.507-1.009-.533-2.148-.814-3.296-.814-3.9 0-7.073 3.173-7.073 7.073 0 3.9 3.173 7.073 7.073 7.073h4.606c.207 0 .375-.168.375-.375-.001-.207-.169-.375-.376-.375z" fill="#0568ae"/></svg>