<?xml version="1.0" encoding="utf-8"?>
<!-- Generator: Adobe Illustrator 18.1.0, SVG Export Plug-In . SVG Version: 6.00 Build 0)  -->
<svg version="1.1" id="Layer_1" xmlns="http://www.w3.org/2000/svg" xmlns:xlink="http://www.w3.org/1999/xlink" x="0px" y="0px"
	 viewBox="0 0 36 36" enable-background="new 0 0 36 36" xml:space="preserve">
	<path fill="#0568ae" d="M29.1,16c0-0.1,0-0.2,0-0.3c0-2.7-2.2-4.9-4.9-4.9c-0.3,0-0.6,0-0.9,0.1c-1.1-2.9-3.9-5-7.2-5
		c-4,0-7.2,3-7.6,6.9c-3.1,0.4-5.5,2.9-5.8,6c0,0.2,0,0.4,0,0.5l0,0l0,0c0,3.7,3,6.7,6.7,6.7h3.8l2.9,3.4c0.5,0.6,1.3,1,2.1,1
		c0.8,0,1.5-0.4,2.1-1l2.9-3.4h5c2.8,0,5-2.3,5-5C33.3,18.5,31.5,16.4,29.1,16z M24.3,21.7L23.2,23l-4.5,5.2c-0.3,0.4-0.8,0.4-1.1,0
		L13.2,23l-1.1-1.3c-0.4-0.5-0.2-0.9,0.4-0.9h2.7v-6.3c0-0.3,0.2-0.5,0.5-0.5h5.1c0.3,0,0.5,0.2,0.5,0.5v6.3h2.7
		C24.6,20.8,24.7,21.2,24.3,21.7z"/>
</svg>
