<svg xmlns="http://www.w3.org/2000/svg" viewBox="0 0 36 36" enable-background="new 0 0 36 36"><path fill="none" d="M0 0h36v36h-36z"/><path d="M29.087 16.041l.025-.332c0-2.719-2.206-4.924-4.926-4.924-.298 0-.591.031-.875.081-1.065-2.941-3.877-5.043-7.184-5.043-3.974 0-7.238 3.032-7.611 6.906-3.069.41-5.48 2.892-5.773 5.996-.02.18-.032.362-.032.547l.002.044-.002.044c0 3.699 2.999 6.698 6.698 6.698h3.751v1.861c0 1.385 1.127 2.511 2.512 2.511h5.067c1.385 0 2.511-1.127 2.511-2.511v-1.861h4.989c2.788 0 5.047-2.26 5.047-5.048.002-2.497-1.815-4.566-4.199-4.969zm-5.165 5.551h-2.671v6.328c0 .281-.23.512-.511.512h-5.067c-.281 0-.512-.23-.512-.512v-6.328h-2.67c-.628 0-.808-.39-.399-.868l1.105-1.29 4.451-5.193c.307-.358.809-.358 1.116 0l4.452 5.193 1.105 1.29c.409.478.23.868-.399.868z" fill="#0568ae"/></svg>