<?xml version="1.0" encoding="utf-8"?>
<!-- Generator: Adobe Illustrator 18.1.0, SVG Export Plug-In . SVG Version: 6.00 Build 0)  -->
<svg version="1.1" id="Layer_1" xmlns="http://www.w3.org/2000/svg" xmlns:xlink="http://www.w3.org/1999/xlink" x="0px" y="0px"
	 viewBox="0 0 36 36" enable-background="new 0 0 36 36" xml:space="preserve">
	<path fill="#0568ae" d="M22.7,23.4c0.2,0.1,0.2,0.4,0.1,0.5l-3.5,4.5c-0.4,0.5-0.8,0.7-1.4,0.7c0,0,0,0,0,0c-0.5,0-1-0.3-1.4-0.7
		l-3.4-4.5c-0.1-0.2-0.1-0.4,0.1-0.5c0.2-0.1,0.4-0.1,0.5,0.1l3.4,4.5c0.1,0.1,0.2,0.3,0.4,0.3V17.2c0-0.2,0.2-0.4,0.4-0.4
		c0.2,0,0.4,0.2,0.4,0.4v11.2c0.2-0.1,0.3-0.2,0.4-0.4l3.5-4.5C22.3,23.3,22.5,23.3,22.7,23.4z M29.5,15.7
		C29.5,15.7,29.5,15.7,29.5,15.7c0-2.9-2.4-5.3-5.3-5.3c-0.2,0-0.4,0-0.6,0c-1.2-3-4.2-5-7.4-5c-2.7,0-5.3,1.4-6.8,3.7
		C9.3,9.3,9.3,9.5,9.5,9.7C9.7,9.8,9.9,9.7,10,9.5c1.3-2.1,3.6-3.3,6.1-3.3c3,0,5.8,1.9,6.8,4.8c0.1,0.2,0.2,0.3,0.4,0.2
		c0.3-0.1,0.5-0.1,0.8-0.1c2.5,0,4.6,2,4.6,4.5c0,0.1,0,0.1,0,0.2l0,0.1c0,0.2,0.1,0.4,0.3,0.4c2.3,0.4,3.9,2.3,3.9,4.6
		c0,2.6-2.1,4.7-4.7,4.7h-3.8c-0.2,0-0.4,0.2-0.4,0.4c0,0.2,0.2,0.4,0.4,0.4h3.8c3,0,5.4-2.4,5.4-5.4C33.7,18.5,31.9,16.3,29.5,15.7
		z M12.7,13.1c-1-0.5-2.1-0.8-3.3-0.8c-3.9,0-7.1,3.2-7.1,7.1c0,3.9,3.2,7.1,7.1,7.1h2.1c0.2,0,0.4-0.2,0.4-0.4
		c0-0.2-0.2-0.4-0.4-0.4H9.4c-3.5,0-6.3-2.8-6.3-6.3c0-3.5,2.8-6.3,6.3-6.3c1,0,2,0.3,2.9,0.7c0.2,0.1,0.4,0,0.5-0.2
		C13,13.4,12.9,13.2,12.7,13.1z"/>
</svg>
