<svg xmlns="http://www.w3.org/2000/svg" viewBox="0 0 36 36"><path fill="#0568ae" d="M3.6 18c0-1.3.4-1.6 1.6-2.2l1.5-.8C7 9 10.4 6.4 13 6.4c.8 0 1.3.4 1.3 1.2 0 .5-.3.9-.4.9-3.4.6-4.5 3.2-4.6 7.8L6 18l3.2 1.7c.2 4.6 1.2 7.2 4.6 7.8.1 0 .4.5.4.9 0 .7-.5 1.2-1.3 1.2-2.7 0-6-2.6-6.3-8.6l-1.5-.8c-1.2-.7-1.5-.9-1.5-2.2zM30.8 20.2l-1.5.8c-.4 6-3.7 8.6-6.3 8.6-.8 0-1.3-.4-1.3-1.2 0-.5.3-.9.4-.9 3.4-.6 4.5-3.2 4.6-7.8L30 18l-3.3-1.7c-.1-4.6-1.2-7.2-4.6-7.8-.1 0-.4-.5-.4-.9 0-.7.5-1.2 1.3-1.2 2.7 0 6 2.6 6.4 8.6l1.5.8c1.2.6 1.6.9 1.6 2.2-.1 1.3-.4 1.5-1.7 2.2z"/><path fill="none" d="M0 0h36v36H0z"/></svg>