<svg xmlns="http://www.w3.org/2000/svg" viewBox="0 0 36 36"><path fill="none" d="M0 0h36v36H0z"/><path fill="#0568ae" d="M28.9 7.2V8H9.8c-.6 0-1.1.5-1.1 1.1V13c0 .6.5 1.1 1.1 1.1H28.9V16H9.8c-.6 0-1.1.5-1.1 1.1V21c0 .6.5 1.1 1.1 1.1h11.6c1.4-1.6 3.4-2.5 5.6-2.5 1.4 0 2.7.4 3.9 1.1V7.2c0-1.5-1.3-2.8-2.8-2.8H7.9c-1.5 0-2.8 1.3-2.8 2.8v22.4c0 .6.4 1 1 1s1-.4 1-1V7.2c0-.4.4-.8.8-.8H28c.5 0 .9.3.9.8zM13 11.5c0 .2-.2.4-.4.4h-.9c-.2 0-.4-.2-.4-.4v-.9c0-.2.2-.4.4-.4h.9c.2 0 .4.2.4.4v.9zm0 7.9c0 .2-.2.4-.4.4h-.9c-.2 0-.4-.2-.4-.4v-.9c0-.2.2-.4.4-.4h.9c.2 0 .4.2.4.4v.9zM27 21c-3.3 0-6 2.7-6 6s2.7 6 6 6 6-2.7 6-6-2.7-6-6-6zm2.6 8.4h-4.8c-1 0-1.7-.8-1.7-1.7v-.1c.1-.8.7-1.4 1.5-1.5.1-1 .9-1.8 2-1.8.8 0 1.6.5 1.8 1.3h.2c.7 0 1.3.6 1.3 1.3v.1c.6.1 1.1.6 1.1 1.3-.1.5-.7 1.1-1.4 1.1zM9.8 23.9c-.6 0-1.1.5-1.1 1.1v3.9c0 .6.5 1.1 1.1 1.1h10.3c-.4-.9-.6-1.9-.6-3s.3-2.2.7-3.1H9.8zm3.2 3.5c0 .2-.2.4-.4.4h-.9c-.2 0-.4-.2-.4-.4v-.9c0-.2.2-.4.4-.4h.9c.2 0 .4.2.4.4v.9z"/></svg>