<svg xmlns="http://www.w3.org/2000/svg" viewBox="0 0 36 36"><path fill="none" d="M0 0h36v36H0z"/><path fill="#0568ae" d="M28.2 26.9c.3.3.4.7.3 1.2l-.9 3.9c0 .2-.2.3-.4.3h-.1c-.2 0-.3-.2-.3-.4l.9-3.9c-.3.3-.6.6-.9.8-2.5 2.1-5.6 3.2-8.9 3.2-3.6 0-7.1-1.4-9.7-4-.1-.1-.2-.4 0-.5.1-.1.4-.2.5 0 2.5 2.4 5.7 3.7 9.2 3.7 3.1 0 6-1.1 8.4-3 .4-.3.7-.6 1-.9h-.2l-4 .2c-.2 0-.4-.2-.4-.4s.2-.4.4-.4l4-.2c.4-.1.8 0 1.1.4zM8.8 9.6s.1 0 0 0l4.1-.2c.2 0 .4-.2.4-.4s-.2-.4-.4-.4l-4 .2h-.2c.3-.3.7-.7 1-.9 2.3-1.9 5.3-3 8.4-3 3.4 0 6.7 1.3 9.2 3.7.1.1.4.1.5 0 .1-.1.1-.4 0-.5-2.6-2.5-6.1-4-9.7-4-3.2 0-6.4 1.1-8.9 3.2-.4.3-.7.5-1 .8l.9-3.9c.1-.2-.1-.4-.3-.4-.2 0-.4.1-.4.3L7.5 8c-.1.4 0 .9.3 1.2.2.3.6.4 1 .4zm5.9 14.5H6.6c-.7 0-1.3-.6-1.3-1.3l.4-6.8c0-.7.6-1.3 1.3-1.3h7.2c.7 0 1.3.6 1.3 1.3l.4 6.7c.1.8-.5 1.4-1.2 1.4zm-8.1-.7h8.1c.3 0 .5-.2.5-.5l-.4-6.7c0-.3-.2-.6-.5-.6H7c-.3 0-.5.2-.5.5l-.4 6.8c0 .2.2.5.5.5zM5.4 10.2c0-.2-.2-.4-.4-.4s-.4.2-.4.4v6.6c0 .2.2.4.4.4s.4-.2.4-.4v-6.6zm10.5 0v6.6c0 .2.2.4.4.4s.4-.2.4-.4v-6.6c0-.2-.2-.4-.4-.4s-.4.2-.4.4zm14.4 5.9l.4 6.7c0 .7-.6 1.3-1.3 1.3h-8.1c-.7 0-1.3-.6-1.3-1.3l.4-6.8c0-.7.6-1.3 1.3-1.3H29c.7.1 1.3.7 1.3 1.4zm-.4 6.7l-.4-6.7c0-.3-.2-.6-.5-.6h-7.2c-.3 0-.5.2-.5.5l-.4 6.8c0 .3.2.5.5.5h8.1c.2.1.4-.2.4-.5zM19.3 10.2v6.6c0 .2.2.4.4.4s.4-.2.4-.4v-6.6c0-.2-.2-.4-.4-.4s-.4.2-.4.4zM31 9.8c-.2 0-.4.2-.4.4v6.6c0 .2.2.4.4.4s.4-.2.4-.4v-6.6c-.1-.2-.2-.4-.4-.4z"/></svg>