<svg xmlns="http://www.w3.org/2000/svg" viewBox="0 0 36 36"><path fill="none" d="M0 0h36v36H0z"/><path fill="#0568ae" d="M15 24.1H6.3c-.5 0-.9-.4-.9-.9l.2-3.7h-.2c-.4 0-.6-.3-.6-.6v-8.2c0-.4.3-.6.6-.6.4 0 .6.3.6.6v4.6c.2-.2.5-.3.7-.3h7.8c.3 0 .5.1.7.3v-4.6c0-.4.3-.6.6-.6.4 0 .6.3.6.6v8.2c0 .4-.3.6-.6.6h-.2l.2 3.7c.1.5-.3.9-.8.9zM30.6 10c-.4 0-.6.3-.6.6v4.6c-.2-.2-.4-.3-.7-.3h-7.8c-.3 0-.5.1-.7.3v-4.6c0-.4-.3-.6-.6-.6-.4 0-.6.3-.6.6v8.2c0 .4.3.6.6.6h.2l-.2 3.7c0 .5.4.9.9.9h8.7c.5 0 .9-.4.9-.9l-.2-3.7h.2c.4 0 .6-.3.6-.6v-8.2c-.1-.3-.4-.6-.7-.6zm-3.1 16.5h-.1l-2 .4-1.4.3-.9.2c-.3.1-.3.3-.1.5l1.1 1c-.3.2-.5.3-.8.4-3.7 1.8-8 1.6-11.5-.4-.7-.4-1.3-.8-1.9-1.3l-.3-.3c-.1-.1-.4-.1-.5 0l-.9.9c-.1.1-.1.4 0 .5 0 0 .1.1.4.3.7.6 1.4 1.1 2.2 1.6 4.1 2.4 9.1 2.6 13.4.5.4-.2.9-.5 1.4-.8l1.2 1.1c.2.2.4.1.4-.2l.6-4.3v-.1c.1-.2-.1-.3-.3-.3zm-19-17h.1l2-.4 1.4-.3.9-.2c.3-.1.3-.3.1-.5l-1.1-1c.3-.2.5-.3.8-.4 3.7-1.8 8-1.6 11.5.4.6.5 1.2.9 1.8 1.4l.3.3c.1.1.4.1.5 0l.9-.9c.1-.1.1-.4 0-.5 0 0-.1-.1-.4-.3-.7-.6-1.4-1.1-2.2-1.6C21 3.1 16 2.9 11.8 4.9c-.4.2-.9.5-1.4.8L9.2 4.6c-.2-.2-.4-.1-.5.2L8.2 9v.1c-.1.3.1.4.3.4z"/></svg>