<svg xmlns="http://www.w3.org/2000/svg" viewBox="0 0 36 36"><path fill="none" d="M0 0h36v36H0z"/><path fill="#0568ae" d="M33 20.9l-.7-.4v-.3c0-2.5-1.8-4.6-4.2-5v-.3c0-2.7-2.2-4.9-4.9-4.9-.3 0-.6 0-.9.1-1.1-2.9-3.9-5-7.2-5-4 0-7.2 3-7.6 6.9-3.1.4-5.5 2.9-5.8 6v.5c0 2.4 1.2 4.5 3.1 5.7-.3.4-.4.9-.4 1.5 0 1.5 1.2 2.8 2.8 2.8h13.1c.1 1.5 1.2 2.7 2.6 2.7.5 0 1.1-.2 1.6-.5l1.7-1 6.8-4.1c.8-.5 1.3-1.4 1.3-2.3 0-1.1-.5-1.9-1.3-2.4zm-1.1 2.8l-6.8 4.1-1.7 1c-.1.2-.3.2-.5.2-.4 0-.6-.3-.6-.9v-1.8H7.1c-.4 0-.8-.3-.8-.8v-.2c0-.1 0-.1.1-.1.1-.2.4-.4.6-.4h8.7c.3 0 .5-.2.5-.5s-.2-.5-.5-.5h-5.4c-.4 0-.8-.3-.8-.8 0-.4.3-.8.8-.8h8.8c.3 0 .5-.2.5-.5s-.2-.5-.5-.5h-5.5c-.4 0-.8-.3-.8-.8 0-.4.3-.8.8-.8h8.5v-1.8c0-.5.3-.9.6-.9.2 0 .4.1.6.2l1.7 1 6.6 4 .1.1.1.1c.2.2.4.4.4.6s0 .6-.3.8z"/></svg>
