<svg xmlns="http://www.w3.org/2000/svg" viewBox="0 0 36 36"><path fill="none" d="M0 0h36v36H0z"/><path fill="#0568ae" d="M34.2 24.6c0 .6-.4 1.1-1 1.5l-6.3 3.6c-.4.2-.7.3-1.1.3-.3 0-.5-.1-.7-.2-.5-.3-.8-.9-.8-1.6V27h-15c-3.9 0-7.1-3.2-7.1-7.1 0-3.9 3.2-7.1 7.1-7.1 1.1 0 2.3.3 3.3.8.2.1.3.3.2.5-.1.2-.3.3-.5.2-.9-.5-1.9-.7-2.9-.7-3.5 0-6.3 2.8-6.3 6.3s2.8 6.3 6.3 6.3h15.3c.2 0 .4.2.4.4v1.6c0 .5.1.8.4 1 .3.1.6.1 1-.1l6.3-3.6c.4-.2.6-.5.6-.8s-.2-.6-.6-.8l-6.3-3.6c-.4-.2-.8-.3-1-.1-.3.1-.4.5-.4 1v1.5c0 .2-.2.4-.4.4h-5.9c-.2 0-.4-.2-.4-.4s.2-.4.4-.4h5.5v-1.2c0-.7.3-1.3.8-1.6.5-.3 1.1-.2 1.8.1l5.8 3.4c.1-.4.2-.8.2-1.2 0-2.3-1.6-4.2-3.9-4.6-.2 0-.3-.2-.3-.4v-.1-.2c0-2.5-2-4.5-4.6-4.5-.3 0-.5 0-.8.1-.2 0-.4-.1-.4-.2-1-2.9-3.8-4.8-6.8-4.8-2.5 0-4.8 1.2-6.1 3.3-.1.2-.3.2-.5.1s-.2-.3-.1-.5c1.5-2.3 4-3.7 6.8-3.7 3.3 0 6.2 2 7.4 5h.6c2.9 0 5.3 2.4 5.3 5.3 2.4.6 4.2 2.7 4.2 5.3 0 .6-.1 1.1-.3 1.6.5.1.8.5.8 1.1zm-9.5.3c.2 0 .4-.2.4-.4s-.2-.4-.4-.4h-11c-.2 0-.4.2-.4.4s.2.4.4.4h11z"/></svg>