<svg xmlns="http://www.w3.org/2000/svg" viewBox="0 0 36 36" enable-background="new 0 0 36 36"><path fill="none" d="M0 0h36v36h-36z"/><path d="M25.211 21.651h-13.533c-.207 0-.375-.168-.375-.375s.168-.375.375-.375h13.534c.44 0 .798-.358.798-.798v-4.206c0-.44-.358-.798-.798-.798h-14.424c-.44 0-.797.358-.797.798v2.283c0 .207-.168.375-.375.375s-.375-.168-.375-.375v-2.283c0-.854.694-1.548 1.547-1.548h14.423c.854 0 1.548.694 1.548 1.548v4.206c0 .854-.694 1.548-1.548 1.548zm-7.181-2.902v-1.559c0-.53-.431-.961-.962-.961h-5c-.53 0-.962.431-.962.961v1.559c0 .53.432.962.962.962h5c.531 0 .962-.431.962-.962zm-.962-1.77c.115 0 .212.097.212.211v1.559c0 .115-.097.212-.212.212h-5c-.115 0-.212-.097-.212-.212v-1.559c0-.115.097-.211.212-.211h5zm3.075.581c.155 0 .281-.126.281-.281v-.703c0-.155-.126-.281-.281-.281h-.703c-.155 0-.281.126-.281.281v.703c0 .155.126.281.281.281h.703zm0 2.151c.155 0 .281-.127.281-.281v-.702c0-.154-.126-.281-.281-.281h-.703c-.155 0-.281.127-.281.281v.702c0 .155.126.281.281.281h.703zm2.23-2.151c.154 0 .281-.126.281-.281v-.703c0-.155-.127-.281-.281-.281h-.703c-.154 0-.281.126-.281.281v.703c0 .155.126.281.281.281h.703zm0 2.151c.154 0 .281-.127.281-.281v-.702c0-.154-.127-.281-.281-.281h-.703c-.154 0-.281.127-.281.281v.702c0 .155.126.281.281.281h.703zm1.246-2.432c0 .155.127.281.281.281h.703c.154 0 .281-.126.281-.281v-.703c0-.155-.127-.281-.281-.281h-.703c-.155 0-.281.126-.281.281v.703zm0 2.152c0 .155.127.281.281.281h.703c.154 0 .281-.127.281-.281v-.703c0-.154-.127-.281-.281-.281h-.703c-.155 0-.281.127-.281.281v.703zm6.178-8.735c-4.027-6.504-12.596-8.52-19.101-4.493-3.65 2.259-6.009 5.998-6.485 10.266l-.117-.182-1.652-3.663c-.085-.189-.307-.274-.496-.188-.189.085-.273.307-.188.496l1.652 3.662c.185.41.517.698.911.789l.273.031c.31 0 .623-.117.89-.338l3.101-2.558c.16-.132.182-.368.05-.528-.132-.16-.368-.182-.528-.05l-3.101 2.559-.047.033c.455-4.029 2.684-7.558 6.131-9.692 6.154-3.809 14.259-1.902 18.069 4.251.109.176.34.231.516.121.177-.108.231-.339.122-.516zm4.444 12.371l-1.653-3.662c-.185-.41-.516-.698-.91-.789-.395-.089-.819.021-1.164.307l-3.1 2.558c-.16.132-.182.368-.05.528.132.16.369.181.528.05l3.1-2.559.044-.031c-.453 3.978-2.719 7.579-6.128 9.69-6.155 3.81-14.259 1.902-18.068-4.251-.109-.176-.341-.23-.516-.122-.176.109-.231.34-.122.516 2.622 4.236 7.17 6.568 11.82 6.568 2.491 0 5.011-.67 7.281-2.074 3.611-2.236 6.009-6.055 6.481-10.27l.12.186 1.654 3.663c.063.139.199.221.342.221l.154-.033c.189-.085.273-.307.187-.496z" fill="#0568ae"/></svg>