<svg xmlns="http://www.w3.org/2000/svg" viewBox="0 0 36 36" enable-background="new 0 0 36 36"><path fill="none" d="M0 0h36v36h-36z"/><path d="M30.89 23.722h-24.689c-.207 0-.375-.168-.375-.375s.168-.375.375-.375h24.689c.587 0 1.065-.478 1.065-1.065v-7.813c0-.587-.478-1.065-1.065-1.065h-25.78c-.587 0-1.064.478-1.064 1.065v7.08c0 .207-.168.375-.375.375s-.375-.168-.375-.375v-7.08c0-1.001.814-1.815 1.814-1.815h25.78c1 0 1.815.814 1.815 1.815v7.813c0 1.001-.814 1.815-1.815 1.815zm-11.319-3.404v-4.637c0-.603-.491-1.095-1.095-1.095h-11.568c-.603 0-1.095.491-1.095 1.095v4.637c0 .604.491 1.095 1.095 1.095h11.568c.604 0 1.095-.491 1.095-1.095zm-1.095-4.981c.19 0 .345.155.345.345v4.637c0 .19-.155.345-.345.345h-11.568c-.19 0-.345-.155-.345-.345v-4.637c0-.19.155-.345.345-.345h11.568zm2.25.453c0 .19.155.345.344.345h.864c.189 0 .344-.155.344-.345v-.862c0-.19-.156-.345-.344-.345h-.864c-.189 0-.344.155-.344.345v.862zm0 2.642c0 .19.155.345.344.345h.864c.189 0 .344-.155.344-.345v-.862c0-.19-.156-.345-.344-.345h-.864c-.189 0-.344.155-.344.345v.862zm0 2.64c0 .19.155.346.344.346h.864c.189 0 .344-.156.344-.346v-.862c0-.19-.156-.346-.344-.346h-.864c-.189 0-.344.156-.344.346v.862zm3.944-4.937c.189 0 .344-.155.344-.345v-.862c0-.19-.155-.345-.344-.345h-.864c-.189 0-.344.155-.344.345v.862c0 .19.155.345.344.345h.864zm0 2.641c.189 0 .344-.155.344-.345v-.861c0-.19-.155-.345-.344-.345h-.864c-.189 0-.344.155-.344.345v.861c0 .19.155.345.344.345h.864zm0 2.642c.189 0 .344-.156.344-.346v-.861c0-.19-.155-.346-.344-.346h-.864c-.189 0-.344.155-.344.346v.861c0 .19.155.346.344.346h.864zm2.736-5.283c.189 0 .344-.155.344-.345v-.862c0-.19-.156-.345-.344-.345h-.863c-.189 0-.344.155-.344.345v.862c0 .19.155.345.344.345h.863zm0 2.641c.189 0 .344-.155.344-.345v-.861c0-.19-.156-.345-.344-.345h-.863c-.189 0-.344.155-.344.345v.861c0 .19.155.345.344.345h.863zm0 2.642c.189 0 .344-.156.344-.346v-.861c0-.19-.156-.346-.344-.346h-.863c-.189 0-.344.155-.344.346v.861c0 .19.155.346.344.346h.863zm1.53-5.628c0 .19.155.345.346.345h.861c.189 0 .345-.155.345-.345v-.862c0-.19-.155-.345-.345-.345h-.861c-.191 0-.346.155-.346.345v.862zm0 2.642c0 .19.155.345.346.345h.861c.189 0 .345-.155.345-.345v-.862c0-.19-.155-.345-.345-.345h-.861c-.191 0-.346.155-.346.345v.862zm0 2.64c0 .19.155.346.346.346h.861c.189 0 .345-.156.345-.346v-.862c0-.19-.155-.346-.345-.346h-.861c-.191 0-.346.156-.346.346v.862z" fill="#0568ae"/></svg>