<svg xmlns="http://www.w3.org/2000/svg" viewBox="0 0 36 36" enable-background="new 0 0 36 36"><path fill="none" d="M0 0h36v36h-36z"/><path d="M30.74 7.539h-25.48c-.792 0-1.44.648-1.44 1.44v18.278c0 .792.648 1.44 1.44 1.44h25.48c.792 0 1.44-.648 1.44-1.44v-18.278c0-.792-.648-1.44-1.44-1.44zm-3.465 6.51l-2.204 8.553c.618.416 1.025 1.121 1.025 1.92 0 1.276-1.038 2.313-2.313 2.313-1.276 0-2.313-1.038-2.313-2.313 0-.721.338-1.357.857-1.782l-2.282-5.445-.043.004c-.246 0-.475-.062-.681-.164l-2.126 1.957c.081.218.132.451.132.697 0 1.109-.902 2.011-2.012 2.011-1.109 0-2.011-.902-2.011-2.011 0-.452.155-.865.408-1.201l-1.452-2.236c-.308.119-.642.187-.991.187l-.195-.01-1.802 5.783c.317.285.52.694.52 1.153 0 .859-.699 1.558-1.559 1.558-.858 0-1.557-.699-1.557-1.558 0-.808.621-1.467 1.409-1.543l1.795-5.762c-.822-.48-1.377-1.37-1.377-2.389 0-1.525 1.241-2.766 2.767-2.766 1.525 0 2.766 1.241 2.766 2.766 0 .725-.283 1.384-.74 1.878l1.444 2.223c.184-.056.375-.094.577-.094.407 0 .784.123 1.101.331l2.098-1.932c-.041-.139-.07-.283-.07-.435 0-.859.698-1.558 1.557-1.558s1.558.699 1.558 1.558c0 .389-.149.74-.385 1.014l2.298 5.484.311-.031.096.01 2.179-8.456c-.575-.354-.962-.985-.962-1.708 0-1.109.902-2.011 2.011-2.011s2.011.902 2.011 2.011c-.001 1.051-.815 1.907-1.845 1.994z" fill="#0568ae"/></svg>