<svg xmlns="http://www.w3.org/2000/svg" viewBox="0 0 36 36" enable-background="new 0 0 36 36"><path fill="none" d="M0 0h36v36h-36z"/><path d="M32.555 9.46v17.299c0 1.269-1.033 2.303-2.303 2.303h-24.502c-.207 0-.375-.168-.375-.375s.168-.375.375-.375h24.501c.856 0 1.553-.696 1.553-1.553v-17.299c0-.858-.697-1.556-1.553-1.556h-24.501c-.857 0-1.555.698-1.555 1.556v14.53c0 .207-.168.375-.375.375s-.375-.168-.375-.375v-14.53c0-1.271 1.034-2.306 2.305-2.306h24.501c1.271 0 2.304 1.034 2.304 2.306zm-22.671 11.848l1.498-4.808c-.739-.374-1.251-1.131-1.251-2.014 0-1.248 1.016-2.264 2.264-2.264 1.248 0 2.263 1.015 2.263 2.264 0 .643-.273 1.221-.704 1.634l1.211 1.865c.187-.074.389-.118.602-.118.38 0 .726.136 1.004.354l1.744-1.606c-.063-.15-.098-.314-.098-.486 0-.693.563-1.257 1.256-1.257.693 0 1.255.564 1.255 1.257 0 .371-.164.701-.421.932l1.956 4.878c.117-.022.237-.036.36-.036l.198.02 2.057-8.283c-.54-.267-.916-.819-.916-1.461 0-.901.733-1.634 1.634-1.634.901 0 1.634.733 1.634 1.634 0 .898-.727 1.628-1.624 1.634l-2.07 8.338c.577.322.972.932.972 1.639 0 1.04-.846 1.886-1.886 1.886s-1.886-.846-1.886-1.886c0-.649.331-1.224.832-1.563l-1.946-4.856-.15.015c-.247 0-.476-.074-.67-.198l-1.761 1.621c.1.212.161.445.161.694 0 .901-.733 1.634-1.635 1.634-.901 0-1.634-.733-1.634-1.634 0-.417.162-.794.419-1.083l-1.219-1.877c-.287.131-.603.209-.938.209l-.296-.03-1.503 4.825c.317.228.526.598.526 1.018 0 .692-.564 1.256-1.258 1.256-.692 0-1.255-.563-1.255-1.256 0-.693.563-1.257 1.255-1.257h.02zm15.913-8.245c.487 0 .884-.397.884-.885 0-.487-.397-.884-.884-.884-.488 0-.884.397-.884.884-.001.488.396.885.884.885zm-4.11 10.725c0 .626.51 1.136 1.136 1.136.626 0 1.136-.509 1.136-1.136 0-.626-.509-1.136-1.136-1.136-.626 0-1.136.51-1.136 1.136zm-2.521-7.66c0 .279.227.506.506.506s.506-.227.506-.506c0-.28-.227-.507-.506-.507-.279.001-.506.228-.506.507zm-4.284 3.373c0 .487.396.884.884.884s.885-.396.885-.884c0-.487-.397-.884-.885-.884s-.884.397-.884.884zm-2.488-3.501c.834 0 1.513-.679 1.513-1.514s-.679-1.514-1.513-1.514c-.835 0-1.514.679-1.514 1.514s.679 1.514 1.514 1.514zm-2.531 6.056c-.279 0-.505.228-.505.507s.226.506.505.506c.28 0 .508-.226.508-.506 0-.279-.228-.507-.508-.507z" fill="#0568ae"/></svg>