<svg xmlns="http://www.w3.org/2000/svg" viewBox="0 0 36 36" enable-background="new 0 0 36 36"><path fill="none" d="M0 0h36v36h-36z"/><path d="M30.267 8.444h-24.534c-.604 0-1.095.491-1.095 1.095v3.905c0 .604.491 1.095 1.095 1.095h24.534c.604 0 1.095-.491 1.095-1.095v-3.905c0-.604-.491-1.095-1.095-1.095zm-21.318 3.498c0 .198-.162.36-.36.36h-.9c-.198 0-.36-.162-.36-.36v-.9c0-.198.162-.36.36-.36h.899c.198 0 .36.162.36.36v.9zm19.194.299h-7.451c-.414 0-.75-.336-.75-.75s.336-.75.75-.75h7.451c.414 0 .75.336.75.75s-.336.75-.75.75zm2.124 4.124h-24.534c-.604 0-1.095.491-1.095 1.095v3.905c0 .604.491 1.095 1.095 1.095h24.534c.604 0 1.095-.491 1.095-1.095v-3.905c0-.603-.491-1.095-1.095-1.095zm-21.318 3.498c0 .198-.162.36-.36.36h-.9c-.198 0-.36-.162-.36-.36v-.9c0-.198.162-.36.36-.36h.899c.198 0 .36.162.36.36v.9zm19.194.3h-7.451c-.414 0-.75-.336-.75-.75s.336-.75.75-.75h7.451c.414 0 .75.336.75.75s-.336.75-.75.75zm2.124 4.122h-24.534c-.604 0-1.095.491-1.095 1.095v3.905c0 .604.491 1.095 1.095 1.095h24.534c.604 0 1.095-.491 1.095-1.095v-3.905c0-.603-.491-1.095-1.095-1.095zm-21.318 3.498c0 .198-.162.36-.36.36h-.9c-.198 0-.36-.162-.36-.36v-.9c0-.198.162-.36.36-.36h.899c.198 0 .36.162.36.36v.9zm19.194.3h-7.451c-.414 0-.75-.336-.75-.75s.336-.75.75-.75h7.451c.414 0 .75.336.75.75s-.336.75-.75.75z" fill="#0568ae"/></svg>