<svg xmlns="http://www.w3.org/2000/svg" viewBox="0 0 36 36" enable-background="new 0 0 36 36"><path fill="none" d="M0 0h36v36h-36z"/><path d="M21.586 15.077c0-.18.147-.328.327-.328h.82c.18 0 .327.148.327.328v.819c0 .181-.148.328-.327.328h-.82c-.18 0-.327-.148-.327-.328v-.819zm0 3.329c0 .181.147.328.327.328h.82c.18 0 .327-.147.327-.328v-.819c0-.181-.148-.328-.327-.328h-.82c-.18 0-.327.147-.327.328v.819zm0 2.508c0 .18.147.329.327.329h.82c.18 0 .327-.148.327-.329v-.819c0-.18-.148-.328-.327-.328h-.82c-.18 0-.327.148-.327.328v.819zm3.748-4.69c.18 0 .327-.148.327-.328v-.819c0-.18-.147-.328-.327-.328h-.82c-.18 0-.327.148-.327.328v.819c0 .181.147.328.327.328h.82zm0 2.509c.18 0 .327-.148.327-.328v-.818c0-.181-.147-.328-.327-.328h-.82c-.18 0-.327.147-.327.328v.818c0 .18.147.328.327.328h.82zm0 2.51c.18 0 .327-.148.327-.329v-.818c0-.181-.147-.328-.327-.328h-.82c-.18 0-.327.147-.327.328v.818c0 .18.147.329.327.329h.82zm2.599-5.019c.179 0 .327-.148.327-.328v-.819c0-.18-.148-.328-.327-.328h-.82c-.18 0-.327.148-.327.328v.819c0 .181.147.328.327.328h.82zm0 2.509c.179 0 .327-.148.327-.328v-.818c0-.181-.148-.328-.327-.328h-.82c-.18 0-.327.147-.327.328v.818c0 .18.147.328.327.328h.82zm0 2.51c.179 0 .327-.148.327-.329v-.818c0-.181-.148-.328-.327-.328h-.82c-.18 0-.327.147-.327.328v.818c0 .18.147.329.327.329h.82zm1.453-5.347c0 .181.147.328.329.328h.818c.18 0 .327-.148.327-.328v-.819c0-.18-.147-.328-.327-.328h-.818c-.181 0-.329.148-.329.328v.819zm0 2.51c0 .181.147.328.329.328h.818c.18 0 .327-.147.327-.328v-.819c0-.181-.147-.328-.327-.328h-.818c-.181 0-.329.147-.329.328v.819zm0 2.508c0 .18.147.329.329.329h.818c.18 0 .327-.148.327-.329v-.819c0-.18-.147-.328-.327-.328h-.818c-.181 0-.329.148-.329.328v.819zm1.637-7.362h-26.046c-.559 0-1.016.457-1.016 1.016v6.855c0 .558.457 1.015 1.016 1.015h26.046c.559 0 1.016-.457 1.016-1.015v-6.855c0-.559-.457-1.016-1.016-1.016m0-2c1.663 0 3.016 1.353 3.016 3.016v6.855c0 1.663-1.353 3.015-3.016 3.015h-26.046c-1.663 0-3.016-1.353-3.016-3.015v-6.855c0-1.663 1.353-3.016 3.016-3.016h26.046zm-25.829 9.348c0 .188.154.342.342.342h14.405c.188 0 .342-.154.342-.342v-5.81c0-.188-.154-.342-.342-.342h-14.405c-.188 0-.342.154-.342.342v5.81z" fill="#0568ae"/></svg>