<svg xmlns="http://www.w3.org/2000/svg" viewBox="0 0 36 36" enable-background="new 0 0 36 36"><path fill="none" d="M0 0h36v36h-36z"/><path d="M18.688 17.535c-.162 0-.295-.133-.295-.295v-.737c0-.162.133-.295.295-.295h.738c.162 0 .295.133.295.295v.737c0 .162-.133.295-.295.295h-.738zm.739 2.257c.162 0 .295-.133.295-.295v-.736c0-.162-.133-.295-.295-.295h-.738c-.162 0-.295.133-.295.295v.736c0 .162.133.295.295.295h.738zm2.339-2.257c.161 0 .295-.133.295-.295v-.737c0-.162-.133-.295-.295-.295h-.738c-.162 0-.294.133-.294.295v.737c0 .162.132.295.294.295h.738zm0 2.257c.161 0 .295-.133.295-.295v-.736c0-.162-.133-.295-.295-.295h-.738c-.162 0-.294.133-.294.295v.736c0 .162.132.295.294.295h.738zm1.308-2.553c0 .162.132.295.296.295h.736c.162 0 .295-.133.295-.295v-.737c0-.162-.133-.295-.295-.295h-.736c-.163 0-.296.133-.296.295v.737zm0 2.259c0 .162.132.295.296.295h.736c.162 0 .295-.133.295-.295v-.737c0-.162-.133-.295-.295-.295h-.736c-.163 0-.296.133-.296.295v.737zm1.473-4.294h-13.094c-.503 0-.914.411-.914.914v3.765c0 .503.411.914.914.914h13.094c.503 0 .914-.411.914-.914v-3.765c0-.503-.411-.914-.914-.914m0-1.5c1.331 0 2.414 1.083 2.414 2.414v3.765c0 1.331-1.083 2.414-2.414 2.414h-13.094c-1.331 0-2.414-1.083-2.414-2.414v-3.765c0-1.331 1.083-2.414 2.414-2.414h13.094zm-12.898 5.781c0 .169.139.308.308.308h5.117c.169 0 .308-.139.308-.308v-2.971c0-.169-.138-.308-.308-.308h-5.117c-.169 0-.308.138-.308.308v2.971zm18.494-9.42l-.319-.471c-4.39-6.179-12.914-7.967-19.448-3.923-3.411 2.112-5.741 5.46-6.552 9.333l-1.627-.003c-.287-.001-.385.19-.217.423l1.69 2.349.9 1.251c.126.175.332.175.459.001l.077-.106 2.527-3.485c.168-.232.072-.423-.215-.424l-1.542-.003c.773-3.165 2.734-5.891 5.554-7.636 5.579-3.453 12.842-1.974 16.657 3.231.193.263.356.515.356.515.108.166.333.217.501.113l1.088-.674c.168-.103.218-.325.111-.491zm-24.286 15.87l.319.471c4.39 6.179 12.915 7.966 19.448 3.923 3.411-2.112 5.741-5.46 6.552-9.333l1.627.003c.287 0 .385-.19.217-.423l-1.69-2.349-.9-1.251c-.126-.175-.332-.175-.458-.001l-.077.105-2.527 3.485c-.169.232-.072.423.215.424l1.542.003c-.774 3.165-2.734 5.891-5.554 7.636-5.579 3.453-12.842 1.974-16.657-3.231-.193-.263-.356-.515-.356-.515-.107-.166-.333-.217-.501-.113l-1.088.674c-.169.104-.219.326-.112.492z" fill="#0568ae"/></svg>