<svg xmlns="http://www.w3.org/2000/svg" viewBox="0 0 36 36" enable-background="new 0 0 36 36"><path fill="none" d="M0 0h36v36h-36z"/><path d="M29.547 8.46h-23.094c-1.002 0-1.815.814-1.815 1.815v2.465c0 1.001.813 1.815 1.815 1.815h23.094c1.001 0 1.815-.814 1.815-1.815v-2.465c0-1.001-.814-1.815-1.815-1.815zm1.065 4.28c0 .587-.478 1.065-1.065 1.065h-23.094c-.587 0-1.065-.478-1.065-1.065v-2.465c0-.587.477-1.065 1.065-1.065h23.094c.587 0 1.065.478 1.065 1.065v2.465zm-1.594-1.233c0 .207-.168.375-.374.375h-7.951c-.207 0-.375-.168-.375-.375s.168-.375.375-.375h7.951c.206 0 .374.168.374.375zm-20.069-.449v.9c0 .198-.162.36-.36.36h-.9c-.198 0-.36-.162-.36-.36v-.9c0-.198.162-.36.36-.36h.899c.199 0 .361.162.361.36zm20.598 5.322h-23.094c-1.002 0-1.815.814-1.815 1.815v2.465c0 1 .813 1.815 1.815 1.815h23.094c1.001 0 1.815-.814 1.815-1.815v-2.465c0-1-.814-1.815-1.815-1.815zm1.065 4.28c0 .587-.478 1.065-1.065 1.065h-23.094c-.587 0-1.065-.478-1.065-1.065v-2.465c0-.587.477-1.065 1.065-1.065h23.094c.587 0 1.065.478 1.065 1.065v2.465zm-1.594-1.231c0 .207-.168.375-.374.375h-7.951c-.207 0-.375-.168-.375-.375s.168-.375.375-.375h7.951c.206 0 .374.168.374.375zm-20.069-.45v.9c0 .198-.162.36-.36.36h-.9c-.198 0-.36-.162-.36-.36v-.9c0-.198.162-.36.36-.36h.899c.199 0 .361.162.361.36zm11.743 8.745c-.207 0-.375-.168-.375-.375s.168-.375.375-.375h7.951c.206 0 .374.168.374.375s-.168.375-.374.375h-7.951zm-11.743.075c0 .198-.162.36-.36.36h-.9c-.198 0-.36-.162-.36-.36v-.9c0-.198.162-.36.36-.36h.899c.198 0 .36.162.36.36v.9zm22.413-1.682v2.465c0 1-.814 1.814-1.815 1.814h-20.268c-.207 0-.375-.168-.375-.375s.168-.375.375-.375h20.267c.587 0 1.065-.477 1.065-1.064v-2.465c0-.587-.478-1.065-1.065-1.065h-23.093c-.587 0-1.065.478-1.065 1.065v2.465c0 .207-.168.375-.375.375s-.375-.168-.375-.375v-2.465c0-1.001.813-1.815 1.815-1.815h23.094c1.001-.001 1.815.813 1.815 1.815z" fill="#0568ae"/></svg>