<?xml version="1.0" encoding="utf-8"?>
<!-- Generator: Adobe Illustrator 18.1.0, SVG Export Plug-In . SVG Version: 6.00 Build 0)  -->
<svg version="1.1" id="Layer_1" xmlns="http://www.w3.org/2000/svg" xmlns:xlink="http://www.w3.org/1999/xlink" x="0px" y="0px"
	 viewBox="0 0 36 36" enable-background="new 0 0 36 36" xml:space="preserve">
	<path fill="#0568ae" d="M12.8,13.9c0,0.6-0.1,1.2-0.4,1.6c-0.2,0.4-0.6,0.8-1,1c-0.4,0.2-1,0.4-1.5,0.4H8v-6h1.9
		c0.6,0,1.1,0.1,1.6,0.4c0.4,0.2,0.8,0.6,1,1C12.7,12.8,12.8,13.3,12.8,13.9z M12.1,13.9c0-0.7-0.2-1.3-0.6-1.7
		c-0.4-0.4-1-0.6-1.7-0.6H8.7v4.7h1.2c0.7,0,1.3-0.2,1.7-0.6C11.9,15.2,12.1,14.7,12.1,13.9z M14,10.9h3.6v0.6h-2.9v2h2.4v0.6h-2.4
		v2.1h3v0.6H14V10.9z M21.4,17c-0.6,0-1.1-0.1-1.5-0.4c-0.4-0.3-0.8-0.6-1-1.1c-0.2-0.5-0.3-1-0.3-1.6c0-0.6,0.1-1.1,0.4-1.6
		c0.3-0.5,0.6-0.8,1-1.1c0.4-0.2,0.9-0.4,1.5-0.4c0.3,0,0.6,0,0.9,0.1c0.3,0.1,0.6,0.2,0.8,0.3l-0.2,0.6c-0.3-0.1-0.5-0.2-0.7-0.3
		c-0.2-0.1-0.5-0.1-0.7-0.1c-0.4,0-0.8,0.1-1.2,0.3c-0.3,0.2-0.6,0.5-0.8,0.9c-0.2,0.4-0.3,0.8-0.3,1.3c0,0.5,0.1,0.9,0.3,1.3
		c0.2,0.4,0.5,0.7,0.8,0.8c0.3,0.2,0.7,0.3,1.1,0.3c0.3,0,0.5,0,0.8-0.1c0.2-0.1,0.5-0.2,0.7-0.3l0.2,0.5c-0.2,0.2-0.5,0.3-0.8,0.4
		C22,16.9,21.7,17,21.4,17z M25.8,11.5h-2v-0.6h4.6v0.6h-2v5.3h-0.7V11.5z M15.1,19.2c0.3,0,0.5,0,0.7,0.1c0.2,0.1,0.4,0.1,0.6,0.3
		l-0.2,0.5c-0.2-0.1-0.4-0.2-0.5-0.2c-0.2,0-0.4-0.1-0.6-0.1c-1,0-1.6,0.6-1.7,1.9c0.4-0.1,0.9-0.1,1.4-0.1c0.6,0,1.1,0.2,1.5,0.5
		c0.3,0.3,0.5,0.8,0.5,1.4c0,0.4-0.1,0.7-0.3,1c-0.2,0.3-0.4,0.5-0.7,0.7c-0.3,0.2-0.6,0.2-1,0.2c-0.7,0-1.2-0.2-1.5-0.7
		c-0.4-0.5-0.5-1.1-0.5-2v-0.2c0-0.7,0.1-1.3,0.3-1.7c0.2-0.5,0.5-0.8,0.8-1.1C14.2,19.4,14.6,19.2,15.1,19.2z M14.7,22.2
		c-0.4,0-0.8,0-1.3,0.1v0.4c0,0.7,0.1,1.2,0.4,1.6c0.2,0.4,0.6,0.5,1.1,0.5c0.4,0,0.7-0.1,1-0.3c0.2-0.2,0.3-0.5,0.3-0.9
		c0-0.5-0.1-0.8-0.3-1C15.5,22.3,15.2,22.2,14.7,22.2z M17.9,25.4c-0.1,0-0.2,0-0.3-0.1c-0.1-0.1-0.1-0.2-0.1-0.3
		c0-0.1,0-0.2,0.1-0.3c0.1-0.1,0.2-0.1,0.3-0.1c0.1,0,0.2,0,0.3,0.1c0.1,0.1,0.1,0.2,0.1,0.3c0,0.1,0,0.2-0.1,0.3
		C18.2,25.3,18.1,25.4,17.9,25.4z M21,25.4c-0.6,0-1.1-0.3-1.5-0.8c-0.4-0.5-0.5-1.2-0.5-2.1v-0.3c0-0.9,0.2-1.6,0.5-2.1
		c0.4-0.5,0.8-0.8,1.5-0.8c0.6,0,1.1,0.3,1.5,0.8c0.4,0.5,0.5,1.2,0.5,2.1v0.3c0,0.9-0.2,1.6-0.5,2.1C22.2,25.1,21.7,25.4,21,25.4z
		 M21,24.8c0.4,0,0.8-0.2,1-0.6c0.2-0.4,0.3-1,0.3-1.7v-0.3c0-0.8-0.1-1.3-0.3-1.7c-0.2-0.4-0.6-0.6-1-0.6c-0.4,0-0.8,0.2-1,0.6
		c-0.2,0.4-0.3,1-0.3,1.7v0.3c0,0.8,0.1,1.3,0.3,1.7C20.3,24.6,20.6,24.8,21,24.8z M30.7,28.4l-25.4,0c-0.2,0-0.4-0.2-0.4-0.4
		c0-0.2,0.2-0.4,0.4-0.4l25.4,0c0.8,0,1.4-0.6,1.4-1.4V9.8c0-0.8-0.6-1.4-1.4-1.4l-25.4,0C4.5,8.3,3.9,9,3.9,9.8v13.4
		c0,0.2-0.2,0.4-0.4,0.4s-0.4-0.2-0.4-0.4V9.8c0-1.2,1-2.2,2.2-2.2l25.4,0c1.2,0,2.2,1,2.2,2.2v16.5C32.9,27.4,31.9,28.4,30.7,28.4z
		"/>
</svg>
