<?xml version="1.0" encoding="utf-8"?>
<!-- Generator: Adobe Illustrator 18.1.0, SVG Export Plug-In . SVG Version: 6.00 Build 0)  -->
<svg version="1.1" id="Layer_1" xmlns="http://www.w3.org/2000/svg" xmlns:xlink="http://www.w3.org/1999/xlink" x="0px" y="0px"
	 viewBox="0 0 36 36" enable-background="new 0 0 36 36" xml:space="preserve">
	<path fill="#0568ae" d="M10.7,12.6c0.3,0.3,0.5,0.8,0.5,1.4c0,0.6-0.1,1.1-0.5,1.4c-0.3,0.3-0.7,0.5-1.3,0.5H8.6v-3.8h0.8
		C10,12.1,10.4,12.3,10.7,12.6z M21.6,20.1c-0.6,0-0.9,0.6-0.9,1.9v0.3c0,1.2,0.3,1.9,0.9,1.9s0.9-0.6,0.9-1.9V22
		C22.6,20.8,22.2,20.1,21.6,20.1z M32.5,9.8v16.5c0,1-0.8,1.8-1.8,1.8H5.3c-1,0-1.8-0.8-1.8-1.8V9.8c0-1,0.8-1.8,1.8-1.8h25.4
		C31.7,8,32.5,8.8,32.5,9.8z M13.6,17.1h4.1v-1.2H15v-1.3h2.1v-1.2H15v-1.3h2.6v-1.2h-4V17.1z M12.2,15.7c0.3-0.5,0.4-1,0.4-1.7
		c0-0.6-0.1-1.2-0.4-1.6c-0.2-0.5-0.6-0.8-1.1-1.1c-0.5-0.3-1-0.4-1.7-0.4H7.2v6.2h2.2c0.6,0,1.2-0.1,1.7-0.4
		C11.6,16.5,11.9,16.2,12.2,15.7z M16.7,23.3c0-0.6-0.2-1.1-0.5-1.4c-0.4-0.3-0.8-0.5-1.5-0.5c-0.4,0-0.8,0-1.2,0.1
		c0.1-0.5,0.2-0.8,0.5-1c0.2-0.2,0.6-0.3,1-0.3c0.3,0,0.7,0.1,1.1,0.2l0.3-1c-0.5-0.2-1-0.4-1.6-0.4c-0.5,0-1,0.1-1.4,0.4
		c-0.4,0.3-0.7,0.6-0.9,1.1c-0.2,0.5-0.3,1.1-0.3,1.7v0.3c0,0.9,0.2,1.6,0.6,2.1c0.4,0.5,1,0.7,1.7,0.7c0.4,0,0.8-0.1,1.1-0.2
		c0.3-0.2,0.6-0.4,0.8-0.7S16.7,23.7,16.7,23.3z M18.8,24.6c0-0.2-0.1-0.4-0.2-0.5c-0.1-0.1-0.3-0.2-0.5-0.2c-0.2,0-0.4,0.1-0.5,0.2
		c-0.1,0.1-0.2,0.3-0.2,0.5c0,0.2,0.1,0.4,0.2,0.5c0.1,0.1,0.3,0.2,0.5,0.2c0.2,0,0.4-0.1,0.6-0.2C18.7,25,18.8,24.8,18.8,24.6z
		 M19.9,16.8c0.5,0.3,1,0.4,1.6,0.4c0.8,0,1.4-0.2,2-0.6l-0.4-1.1c-0.4,0.3-0.9,0.4-1.4,0.4c-0.5,0-1-0.2-1.3-0.5
		c-0.3-0.4-0.5-0.8-0.5-1.4c0-0.6,0.2-1,0.5-1.4c0.3-0.3,0.8-0.5,1.3-0.5c0.2,0,0.5,0,0.7,0.1c0.2,0.1,0.5,0.1,0.7,0.3l0.4-1.1
		c-0.3-0.2-0.6-0.3-0.9-0.4c-0.3-0.1-0.7-0.1-1-0.1c-0.6,0-1.1,0.1-1.6,0.4c-0.5,0.3-0.8,0.6-1.1,1.1c-0.3,0.5-0.4,1-0.4,1.7
		c0,0.6,0.1,1.2,0.4,1.6C19.1,16.2,19.4,16.5,19.9,16.8z M23.9,22c0-0.9-0.2-1.6-0.6-2.2c-0.4-0.5-1-0.8-1.7-0.8
		c-0.7,0-1.3,0.3-1.7,0.8c-0.4,0.5-0.6,1.3-0.6,2.2v0.3c0,0.9,0.2,1.6,0.6,2.2c0.4,0.5,1,0.8,1.7,0.8c0.7,0,1.3-0.3,1.7-0.8
		c0.4-0.5,0.6-1.3,0.6-2.2V22z M29.2,10.9h-5.1v1.2h1.8v4.9h1.4v-4.9h1.8V10.9z M14.4,22.3c-0.3,0-0.6,0-0.9,0.1v0.3
		c0,1.1,0.3,1.6,1,1.6c0.3,0,0.5-0.1,0.7-0.2c0.2-0.2,0.3-0.4,0.3-0.7C15.4,22.7,15.1,22.3,14.4,22.3z"/>
</svg>
