<svg xmlns="http://www.w3.org/2000/svg" viewBox="0 0 36 36"><path fill="none" d="M0 0h36v36H0z"/><path fill="none" d="M0 0h36v36H0z"/><path fill="#0568ae" d="M33 27c0 3.3-2.7 6-6 6-1.2 0-2.3-.4-3.2-1l-.1-.1 2.1-2.1c1.1.5 2.5.3 3.5-.6.8-.8 1.1-1.9.8-2.9 0-.1-.2-.2-.4-.1L28 27.9c-.5.5-1.3.5-1.8 0s-.5-1.3 0-1.8l1.8-1.8c.2-.2 0-.3-.1-.4-1-.3-2.1 0-2.9.8-.9.9-1.2 2.3-.6 3.5l-2.1 2.1-.1-.1c-.6-.9-1-2.1-1-3.3 0-3.3 2.7-6 6-6S33 23.7 33 27zm-11.3 5.3l.4.4c-1.3.4-2.7.6-4.1.6-1.5 0-3-.2-4.3-.6V27.4c.9 2 2.1 3.3 3.3 3.7v-6.3c-1.1.1-2.3.3-3.3.7v-.1c0-.7-.3-1.3-.8-1.7 1.3-.5 2.7-.8 4.1-.9V19h-5.1c.1 1.5.2 3 .5 4.3-.3-.2-.7-.3-1.1-.3h-.9-.1c-.2-1.3-.4-2.6-.4-4H9v-2h.8c0-1.4.2-2.7.4-4h1c.4 0 .7-.1 1.1-.3-.3 1.3-.4 2.7-.5 4.2H17v-3.7c-1.4-.1-2.8-.4-4.1-.8.5-.4.8-1 .8-1.7v-.1c1.1.4 2.2.6 3.3.7V5c-1.2.5-2.4 1.8-3.3 3.7V3.4c1.4-.4 2.8-.6 4.3-.6 4.2 0 8.1 1.7 10.8 4.5 0 0 0 .1.1.1 2.7 2.7 4.3 6.5 4.3 10.6 0 1.4-.2 2.8-.6 4.1-.1-.1-.2-.3-.4-.4-.4-.4-.9-.8-1.3-1.1.1-.5.2-1.1.2-1.6H26v.6c-.7.1-1.4.3-2 .5 0-.4.1-.7.1-1.1H19v3.7c.6 0 1.1.1 1.7.2-.4.6-.7 1.2-.9 1.9-.3 0-.5-.1-.8-.1V31c.4-.2.8-.4 1.2-.8.4.8.9 1.5 1.5 2.1zm6.4-22.8c-.9.8-1.8 1.4-2.8 2 .4 1.7.7 3.6.8 5.6h5.1c-.2-3-1.3-5.6-3.1-7.6zm-5.3-3.8c.8 1 1.4 2.3 1.9 3.8.7-.5 1.4-.9 2-1.5-1.1-1-2.4-1.8-3.9-2.3zM19 11.3c1.4-.1 2.7-.4 4-.9-1-2.9-2.5-4.8-4-5.4v6.3zm0 5.7h5.1c-.1-1.7-.3-3.3-.6-4.7-1.4.6-2.9.9-4.5 1V17zm-7.7 7.5h-.9c-1.6 0-2.9-1.3-2.9-2.9v-7.2c0-1.6 1.3-2.9 2.9-2.9h.9c.5 0 .9-.4.9-.8V4v-.6c0-.3-.4-.6-.8-.6l-.4.1c-4.4.7-7.8 5.3-7.8 10.7v8.7c0 5.3 3.1 9.7 7.3 10.7l.6.1c.6 0 1.1-.3 1.1-.7V26v-.8c0-.3-.4-.7-.9-.7z"/></svg>