<svg xmlns="http://www.w3.org/2000/svg" viewBox="0 0 36 36"><path fill="none" d="M0 0h36v36H0z"/><path fill="#0568ae" d="M24.8 31c-.1 0-.2 0-.3-.1-.1-.1-.1-.4 0-.5l1.7-1.7c.1-.1.3-.1.4-.1.9.4 2 .2 2.8-.5.5-.5.8-1.3.7-2L29 27.2c-.6.6-1.6.6-2.2 0-.3-.3-.5-.7-.5-1.1 0-.4.2-.8.5-1.1l1.1-1.1c-.7-.1-1.5.2-2 .7-.7.7-.9 1.8-.5 2.8.1.1 0 .3-.1.4l-1.7 1.7c-.1.1-.4.1-.5 0-.1-.1-.1-.4 0-.5l1.5-1.5c-.4-1.2-.1-2.5.8-3.4.9-.9 2.2-1.2 3.4-.7.1 0 .2.1.2.3 0 .1 0 .3-.1.3l-1.6 1.6c-.2.2-.2.4-.2.6 0 .2.1.4.2.6.3.3.8.3 1.1 0l1.6-1.6c.1-.1.2-.1.3-.1.1 0 .2.1.3.2.4 1.2.1 2.5-.7 3.4-.9.9-2.2 1.2-3.4.8L25 31c0-.1-.1 0-.2 0zm8.6-4c0 3.5-2.9 6.4-6.4 6.4-1.3 0-2.5-.4-3.5-1-1.7.7-3.5 1-5.4 1-1.2 0-2.5-.2-3.7-.5-.7-.2-1.4-.4-2-.7 0 .2-.2.4-.4.4s-.4-.2-.4-.4v-7c0-.2-.2-.4-.5-.4h-.8c-1.8 0-3.2-1.4-3.2-3.2v-7c0-1.8 1.4-3.2 3.2-3.2h.8c.3 0 .5-.2.5-.4V4.5v-.8-.1c-.1-.1-.2-.1-.3-.1l-.3.1c-4.5.7-7.6 5.1-7.6 10.2v8.6c0 4.4 2.3 8.3 5.8 9.8.2.1.3.3.2.5-.1.1-.2.2-.3.2H9c-3.7-1.5-6.2-5.7-6.2-10.5v-8.6c0-5.5 3.4-10.2 8-11h.2c.4 0 .7.1.9.3.2.2.3.4.3.6v.1c1.7-.7 3.5-1.1 5.3-1.1h.4c8.6 0 15.4 6.9 15.4 15.3 0 1.9-.4 3.8-1 5.5.7 1 1.1 2.2 1.1 3.5zM12.2 7.7c.8-1.8 1.9-3.2 3.1-4-1 .2-2.1.5-3.1.9v3.1zm-4.6 9.9h2.5c0-1.9.2-3.8.6-5.6h-.6c-1.4 0-2.5 1.1-2.5 2.5v3.1zm3.1 6.4c-.4-1.8-.6-3.7-.6-5.7H7.6v3.2c0 1.4 1.1 2.5 2.5 2.5h.6zm4.6 8.4c-.8-.6-1.5-1.4-2.2-2.4-.4-.6-.7-1.2-1-1.8v3.3c.7.3 1.5.6 2.2.8.4 0 .7 0 1 .1zm2.2-9c-1 0-2 .2-3 .5-.8.2-1.6.5-2.4.9.1.1.1.3.1.5v.9l.1.3c.4 1.2.9 2.2 1.5 3.1.8 1.3 2.1 2.7 3.7 3v-9.2zm0-5h-6.6c0 2 .3 3.9.7 5.8.9-.4 1.8-.8 2.7-1 1-.3 2.1-.4 3.2-.5v-4.3zm0-5.3c-2-.1-3.9-.5-5.7-1.4-.1.1-.2.2-.3.2-.4 1.8-.6 3.7-.7 5.7h6.6v-4.5h.1zm0-9.7c-2.1.4-4.1 2.6-5.3 6.2V11c1.7.8 3.5 1.2 5.3 1.3V3.4zm15.1 15h-6.7c0 .8-.1 1.6-.1 2.4.4-.1.9-.1 1.3-.1 1.9 0 3.6.8 4.8 2.1.3-1.4.6-2.9.7-4.4zM25 11.2c.5 2 .8 4.2.8 6.4h6.7c-.1-3.6-1.5-6.8-3.7-9.3-1.1 1.2-2.3 2.2-3.8 2.9zm-4.3-7.6c1.7 1.3 3.2 3.7 4.1 6.8 1.3-.7 2.5-1.6 3.5-2.7-2-2-4.6-3.5-7.6-4.1zm-2.5 8.7c2.1-.1 4.1-.6 5.9-1.5-1.2-4.4-3.5-7.2-5.9-7.5v9zm0 5.3h6.9c0-2.1-.3-4.2-.7-6-1.9.9-4 1.4-6.1 1.5v4.5zm0 5.1c1.2 0 2.5.2 3.6.6.8-1 1.8-1.8 3-2.2.1-.9.2-1.7.2-2.6h-6.9v4.2zm0 9.9c1.2-.1 2.3-.9 3.3-2.3-.6-1-1-2.1-1-3.3 0-1.1.3-2.2.8-3.1-1-.3-2.1-.4-3.2-.5v9.2zm4.6-.8c-.3-.2-.5-.5-.8-.8-.4.5-.9 1-1.4 1.4.8-.2 1.5-.4 2.2-.6zm9.8-4.8c0-3.1-2.5-5.6-5.6-5.6s-5.6 2.5-5.6 5.6 2.5 5.6 5.6 5.6 5.6-2.5 5.6-5.6z"/></svg>