<svg xmlns="http://www.w3.org/2000/svg" viewBox="0 0 36 36"><path fill="none" d="M0 0h36v36H0z"/><path fill="#0568ae" d="M18.1 2.6c-.1 0-.1 0 0 0h-.5c-1.8.1-3.6.4-5.3 1.1 0-.2-.1-.5-.3-.6-.2-.2-.5-.3-.9-.3l-.4.1c-4.5.8-8 5.5-8 11v8.6c0 4.7 2.5 8.9 6.2 10.5H9c.1 0 .3-.1.3-.2.1-.2 0-.4-.2-.5-3.5-1.4-5.8-5.4-5.8-9.8v-8.6c0-5.1 3.2-9.5 7.3-10.2l.4-.2c.2 0 .3 0 .3.1V10.9c0 .2-.2.4-.5.4H10c-1.8 0-3.2 1.4-3.2 3.2v7c0 1.8 1.4 3.2 3.2 3.2h.8c.3 0 .5.2.5.4v7c0 .2.2.4.4.4s.4-.2.4-.4c.7.3 1.3.5 2 .7 1.2.3 2.4.5 3.7.5 8.4-.1 15.2-6.9 15.2-15.4S26.5 2.7 18.1 2.6zm-2.9 1c-1.2.9-2.2 2.2-3.1 4v-3c1-.4 2.1-.8 3.1-1zm-5.1 8.5h.6c-.4 1.8-.6 3.6-.6 5.6H7.6v-3.1c0-1.4 1.1-2.5 2.5-2.5zm-2.5 9.5v-3.2h2.5c0 2 .2 3.9.6 5.7H10c-1.3-.1-2.4-1.2-2.4-2.5zm6.8 10.6c-.8-.2-1.5-.5-2.2-.8v-3.3c.3.7.6 1.3 1 1.8.7 1.1 1.4 1.9 2.2 2.4-.4 0-.7 0-1-.1zm3.1.4c-1.6-.3-2.9-1.8-3.7-3-.6-.9-1.1-2-1.5-3.1l-.1-.3v-.9c0-.2 0-.3-.1-.5.8-.4 1.6-.7 2.4-.9 1-.3 2-.4 3-.5v9.2zm0-9.9c-1.1 0-2.2.2-3.2.5-.9.2-1.9.6-2.7 1-.4-1.8-.6-3.8-.7-5.8h6.6v4.3zm0-9.6v4.6h-6.6c0-2 .2-3.9.7-5.7.1-.1.2-.1.3-.2 1.7.7 3.6 1.2 5.6 1.3zm0-.8c-1.9-.1-3.6-.5-5.3-1.3V9.7c1.3-3.6 3.2-5.9 5.3-6.2v8.8zm11.4-4c2.2 2.5 3.6 5.8 3.7 9.3h-6.7c0-2.2-.3-4.4-.8-6.4 1.4-.7 2.6-1.7 3.8-2.9zm-.5-.6c-1 1.1-2.2 2-3.5 2.7-.9-3.2-2.4-5.6-4.1-6.8 2.9.6 5.5 2.1 7.6 4.1zM18.2 3.4c2.5.3 4.7 3.1 5.9 7.5-1.9.9-3.9 1.4-5.9 1.5v-9zm0 9.7c2.1-.1 4.2-.6 6.1-1.5.5 1.9.7 3.9.7 6h-6.9v-4.5zm0 5.3h6.9c0 2-.3 4-.7 5.8-1.9-.9-4-1.4-6.2-1.5v-4.3zm0 5c2.1.1 4.1.5 5.9 1.5-1.3 4.5-3.5 7.4-5.9 7.7v-9.2zm2.4 9c1.7-1.3 3.2-3.8 4.2-7.1 1.4.8 2.6 1.7 3.7 2.9-2.1 2.1-4.8 3.6-7.9 4.2zm8.4-4.8c-1.1-1.2-2.5-2.2-3.9-3 .5-1.9.7-4 .8-6.1h6.7c-.1 3.4-1.5 6.6-3.6 9.1z"/></svg>