<?xml version="1.0" encoding="utf-8"?>
<!-- Generator: Adobe Illustrator 18.1.0, SVG Export Plug-In . SVG Version: 6.00 Build 0)  -->
<svg version="1.1" id="Layer_1" xmlns="http://www.w3.org/2000/svg" xmlns:xlink="http://www.w3.org/1999/xlink" x="0px" y="0px"
	 viewBox="0 0 36 36" enable-background="new 0 0 36 36" xml:space="preserve">
	<path fill="#0568ae" d="M27,21c-3.3,0-6,2.7-6,6s2.7,6,6,6c3.3,0,6-2.7,6-6S30.3,21,27,21z M28.9,29.6c-0.3,0.3-0.8,0.5-1.4,0.6
		v0.9h-0.8v-0.9c-0.4,0-0.8-0.1-1.1-0.2c-0.3-0.1-0.6-0.2-0.9-0.4l0.3-1c0.5,0.3,1,0.4,1.7,0.4v-1.6c-0.5-0.1-0.9-0.3-1.1-0.5
		c-0.3-0.2-0.5-0.3-0.6-0.6c-0.1-0.2-0.2-0.5-0.2-0.8c0-0.5,0.2-0.9,0.5-1.2c0.3-0.3,0.8-0.5,1.4-0.6v-0.9h0.8v0.9
		c0.3,0,0.6,0.1,0.8,0.2c0.3,0.1,0.5,0.2,0.7,0.3l-0.3,1c-0.5-0.2-0.9-0.3-1.3-0.4v1.5c0.5,0.1,0.8,0.3,1.1,0.4
		c0.3,0.2,0.5,0.4,0.6,0.6c0.1,0.2,0.2,0.5,0.2,0.8C29.4,28.8,29.2,29.2,28.9,29.6z M20.2,30.2c-0.4,0.4-0.8,0.6-1.3,0.8v-6.3
		c0.3,0,0.5,0.1,0.8,0.1c0.2-0.7,0.5-1.3,0.9-1.9c-0.6-0.1-1.1-0.2-1.7-0.2V19h5.1c0,0.4,0,0.7-0.1,1.1c0.6-0.3,1.3-0.5,2-0.5
		c0-0.2,0-0.4,0-0.6h5.1c0,0.6-0.1,1.1-0.2,1.6c0.6,0.4,1.2,0.9,1.7,1.5c0.4-1.3,0.6-2.7,0.6-4.1c0-4.1-1.6-7.9-4.3-10.6l-0.1-0.1
		l0,0C26.1,4.5,22.2,2.8,18,2.8S9.9,4.5,7.2,7.3l0,0L7.1,7.4C4.4,10.1,2.7,13.9,2.7,18s1.6,7.9,4.3,10.6l0.1,0.1l0,0
		c2.8,2.8,6.6,4.5,10.8,4.5c1.4,0,2.8-0.2,4.1-0.6C21.3,32,20.7,31.2,20.2,30.2z M31.2,17h-5.1c-0.1-2-0.3-3.9-0.8-5.6
		c1-0.5,1.9-1.2,2.8-2C29.9,11.5,31,14.1,31.2,17z M26.7,8c-0.6,0.5-1.3,1-1.9,1.4c-0.5-1.5-1.2-2.7-1.9-3.8C24.3,6.2,25.6,7,26.7,8
		z M19,5c1.5,0.6,3,2.5,4,5.4c-1.3,0.5-2.6,0.8-4,0.9V5z M19,13.3c1.6-0.1,3.1-0.4,4.5-1c0.3,1.4,0.5,3,0.6,4.7H19V13.3z M13.2,5.7
		c-0.8,1-1.4,2.3-1.9,3.8C10.6,9,9.9,8.6,9.3,8C10.4,7,11.7,6.2,13.2,5.7z M7.9,9.5c0.9,0.8,1.8,1.4,2.8,2C10.2,13.1,10,15,9.9,17
		H4.8C5,14.1,6.1,11.5,7.9,9.5z M4.8,19h5.1c0.1,2,0.3,3.9,0.8,5.6c-1,0.5-1.9,1.2-2.8,2C6.1,24.5,5,21.9,4.8,19z M9.3,28
		c0.6-0.5,1.3-1,1.9-1.4c0.5,1.5,1.2,2.7,1.9,3.8C11.7,29.8,10.4,29,9.3,28z M17,31c-1.5-0.6-3-2.5-4-5.4c1.3-0.5,2.6-0.8,4-0.9V31z
		 M17,22.7c-1.6,0.1-3.1,0.4-4.5,1c-0.3-1.4-0.5-3-0.6-4.7H17V22.7z M17,17h-5.1c0.1-1.7,0.3-3.3,0.6-4.7c1.4,0.6,2.9,0.9,4.5,1V17z
		 M17,11.3c-1.4-0.1-2.7-0.4-4-0.9c1-2.9,2.4-4.8,4-5.4V11.3z M28,28c0.1,0.1,0.1,0.2,0.1,0.4c0,0.4-0.2,0.6-0.7,0.7v-1.3
		C27.7,27.8,27.9,27.9,28,28z M26.6,24.9v1.3c-0.3-0.1-0.4-0.2-0.5-0.3C26,25.8,26,25.7,26,25.5C26,25.2,26.2,25,26.6,24.9z"/>

</svg>
