<?xml version="1.0" encoding="utf-8"?>
<!-- Generator: Adobe Illustrator 18.1.0, SVG Export Plug-In . SVG Version: 6.00 Build 0)  -->
<svg version="1.1" id="Layer_1" xmlns="http://www.w3.org/2000/svg" xmlns:xlink="http://www.w3.org/1999/xlink" x="0px" y="0px"
	 viewBox="0 0 36 36" enable-background="new 0 0 36 36" xml:space="preserve">

<path fill="#0568ae" d="M33.4,27c0,3.5-2.9,6.4-6.4,6.4c-1.3,0-2.5-0.4-3.5-1c-1.8,0.7-3.6,1-5.6,1c0,0-0.1,0-0.1,0c0,0,0,0,0,0
	c0,0,0,0,0,0c-0.3,0-0.7,0-1,0c0,0,0,0,0,0c0,0-0.1,0-0.1,0l0,0C8.9,32.7,2.6,26,2.6,18c0-8.3,6.6-15.1,14.9-15.4v0h0.4h0.4v0
	c8.3,0.2,15.1,7,15.1,15.4c0,1.9-0.3,3.7-1,5.5C33,24.5,33.4,25.7,33.4,27z M31.8,22.7c0.5-1.4,0.8-2.9,0.8-4.4h-6.7
	c0,0.8,0,1.6-0.1,2.4c0.4-0.1,0.8-0.1,1.3-0.1C28.9,20.6,30.6,21.4,31.8,22.7z M18.8,32.6c1-0.3,2-1,2.9-2.1c-0.7-1-1-2.2-1-3.5
	c0-1.1,0.3-2.2,0.8-3.2c-1.1-0.3-2.1-0.4-3.2-0.4v9.2C18.4,32.6,18.6,32.6,18.8,32.6C18.8,32.6,18.8,32.6,18.8,32.6z M17.5,32.6
	v-9.2c-2.1,0.1-4.1,0.5-6,1.4c0,0.1,0,0.2,0.1,0.3c0,0.1,0.1,0.2,0.1,0.4c0,0.1,0.1,0.3,0.1,0.4c0,0.1,0.1,0.2,0.1,0.4
	c0,0.1,0.1,0.3,0.1,0.4c0,0.1,0.1,0.2,0.1,0.3c0,0.1,0.1,0.2,0.1,0.4c0,0.1,0.1,0.2,0.1,0.3c0.1,0.1,0.1,0.2,0.2,0.3
	c0,0.1,0.1,0.2,0.1,0.3c0.1,0.1,0.1,0.2,0.2,0.3c0.1,0.1,0.1,0.2,0.2,0.3c0.1,0.1,0.1,0.2,0.2,0.3c0.1,0.1,0.1,0.2,0.2,0.3
	c0.1,0.1,0.1,0.2,0.2,0.3c0.1,0.1,0.1,0.2,0.2,0.3c0.1,0.1,0.1,0.2,0.2,0.3c0.1,0.1,0.1,0.2,0.2,0.2c0.1,0.1,0.1,0.2,0.2,0.2
	c0.1,0.1,0.1,0.1,0.2,0.2c0.1,0.1,0.1,0.1,0.2,0.2c0.1,0.1,0.1,0.1,0.2,0.2c0.1,0.1,0.1,0.1,0.2,0.2c0.1,0.1,0.1,0.1,0.2,0.2
	c0.1,0.1,0.2,0.1,0.2,0.2c0.1,0,0.1,0.1,0.2,0.1c0.1,0.1,0.2,0.1,0.2,0.1c0.1,0,0.1,0.1,0.2,0.1c0.1,0,0.2,0.1,0.3,0.1
	c0.1,0,0.1,0,0.2,0.1c0.1,0.1,0.3,0.1,0.4,0.1C17.1,32.6,17.3,32.6,17.5,32.6z M10.1,24.7c0.2-0.1,0.4-0.2,0.5-0.3l0,0l0,0
	c-0.4-1.9-0.7-3.9-0.7-6H3.4c0.1,3.4,1.3,6.5,3.3,8.9c0.2-0.2,0.5-0.5,0.7-0.7c0.1-0.1,0.2-0.2,0.3-0.3c0.2-0.2,0.5-0.4,0.7-0.6
	c0.1-0.1,0.3-0.2,0.4-0.3c0.2-0.2,0.4-0.3,0.7-0.5C9.7,24.9,9.9,24.8,10.1,24.7z M10.7,17.6h6.9V13v0c-2.1,0-4.2-0.5-6.1-1.4
	C10.9,13.5,10.7,15.5,10.7,17.6z M28.9,8.3c-1.1,1.2-2.4,2.2-3.8,2.9l0,0l0,0c0.5,2,0.8,4.1,0.8,6.4h6.7C32.5,14,31.1,10.8,28.9,8.3
	z M18.3,13L18.3,13v4.6h6.9c0-2.1-0.3-4.2-0.7-6C22.4,12.5,20.4,13,18.3,13z M24.2,10.8c-1.2-4.4-3.5-7.2-5.9-7.5v8.9
	C20.3,12.2,22.3,11.7,24.2,10.8z M17.5,3.4c-2.5,0.3-4.7,3.1-5.9,7.5c1.9,0.9,3.9,1.4,5.9,1.4V3.4z M10.7,18.3c0,2,0.2,3.9,0.7,5.7
	c2-0.9,4-1.4,6.2-1.4v-4.3H10.7z M25,20.9c0.1-0.8,0.1-1.7,0.1-2.6h-6.9v4.3v0c1.2,0,2.5,0.2,3.7,0.5C22.7,22.1,23.8,21.3,25,20.9z
	 M20.8,3.6c1.7,1.3,3.2,3.7,4.1,6.8c1.3-0.7,2.5-1.6,3.5-2.7C26.4,5.6,23.7,4.2,20.8,3.6z M3.4,17.6h6.5c0-2.2,0.3-4.4,0.8-6.4l0,0
	v0c-0.7-0.4-1.4-0.8-2-1.3C8.5,9.8,8.5,9.6,8.6,9.4c0.1-0.2,0.4-0.2,0.5-0.1c0.6,0.4,1.2,0.8,1.8,1.2c0.9-3.2,2.4-5.6,4.1-6.8
	C8.5,5,3.5,10.7,3.4,17.6z M14.8,32.2C14.7,32.2,14.7,32.2,14.8,32.2c-0.2-0.1-0.2-0.2-0.3-0.3c-0.1-0.1-0.1-0.1-0.2-0.2
	c-0.1-0.1-0.2-0.2-0.2-0.2c-0.1-0.1-0.1-0.1-0.2-0.2c-0.1-0.1-0.1-0.2-0.2-0.3c-0.1-0.1-0.1-0.2-0.2-0.2c-0.1-0.1-0.1-0.2-0.2-0.3
	c-0.1-0.1-0.1-0.2-0.2-0.3c-0.1-0.1-0.1-0.2-0.2-0.3c-0.1-0.1-0.1-0.2-0.2-0.3c-0.1-0.1-0.1-0.2-0.2-0.3c-0.1-0.1-0.1-0.2-0.2-0.3
	c-0.1-0.1-0.1-0.2-0.2-0.3c-0.1-0.1-0.1-0.2-0.2-0.3c-0.1-0.1-0.1-0.2-0.2-0.4c0-0.1-0.1-0.2-0.1-0.3c-0.1-0.1-0.1-0.3-0.2-0.4
	c0-0.1-0.1-0.2-0.1-0.4c0-0.1-0.1-0.3-0.1-0.4c0-0.1-0.1-0.2-0.1-0.4c0-0.1-0.1-0.3-0.1-0.4c0-0.1-0.1-0.3-0.1-0.4
	c0-0.1,0-0.1-0.1-0.2c-0.1,0.1-0.3,0.2-0.4,0.2c-0.1,0.1-0.3,0.2-0.4,0.3c-0.2,0.1-0.4,0.3-0.6,0.4c-0.1,0.1-0.3,0.2-0.4,0.3
	c-0.2,0.2-0.4,0.4-0.7,0.5C8.1,27,8,27.1,7.9,27.2c-0.2,0.2-0.5,0.5-0.7,0.7C9.2,30,11.8,31.6,14.8,32.2z M22.8,31.8
	c-0.2-0.2-0.5-0.4-0.7-0.7c-0.4,0.5-0.8,0.9-1.2,1.2C21.6,32.2,22.2,32,22.8,31.8z M32.7,27c0-3.1-2.5-5.6-5.6-5.6
	c-3.1,0-5.6,2.5-5.6,5.6c0,3.1,2.5,5.6,5.6,5.6C30.1,32.6,32.7,30.1,32.7,27z M27.3,31V30c0.6-0.1,1-0.3,1.3-0.6
	c0.3-0.3,0.5-0.7,0.5-1.2c0-0.4-0.1-0.8-0.4-1.1c-0.3-0.3-0.7-0.5-1.4-0.7v-2.2c0.4,0,0.9,0.2,1.3,0.4l0.2-0.5
	c-0.5-0.3-1-0.4-1.5-0.5V23h-0.6v0.8c-0.5,0.1-0.9,0.2-1.3,0.5C25.2,24.6,25,25,25,25.4c0,0.4,0.1,0.8,0.4,1
	c0.2,0.2,0.7,0.5,1.3,0.6l0,0v2.4c-0.6,0-1.1-0.2-1.7-0.5l-0.2,0.5c0.2,0.1,0.5,0.3,0.8,0.4c0.3,0.1,0.7,0.1,1,0.2V31H27.3z
	 M26,24.7c0.2-0.2,0.5-0.3,0.8-0.3v2c-0.4-0.1-0.7-0.3-0.8-0.4c-0.2-0.2-0.2-0.4-0.2-0.6C25.7,25.1,25.8,24.9,26,24.7z M28.2,29.1
	c-0.2,0.2-0.5,0.3-0.8,0.4v-2.2c0.4,0.1,0.7,0.3,0.9,0.4c0.2,0.2,0.2,0.4,0.2,0.7C28.5,28.7,28.4,28.9,28.2,29.1z"/>
</svg>
