<?xml version="1.0" encoding="utf-8"?>
<!-- Generator: Adobe Illustrator 18.1.0, SVG Export Plug-In . SVG Version: 6.00 Build 0)  -->
<svg version="1.1" id="Layer_1" xmlns="http://www.w3.org/2000/svg" xmlns:xlink="http://www.w3.org/1999/xlink" x="0px" y="0px"
	 viewBox="0 0 36 36" enable-background="new 0 0 36 36" xml:space="preserve">
	<path fill="#0568ae" d="M28.6,6.5H7.2C5.4,6.5,3.9,8,3.9,9.7l0,16.7c0,1.8,1.5,3.3,3.3,3.3h21.3c1.8,0,3.3-1.5,3.3-3.3V9.7
		C31.8,7.9,30.4,6.5,28.6,6.5z M28.6,21.3c0,0.7-0.7,1.3-1.4,1.3h-1.8v1c0,0.4-0.3,0.7-0.8,0.7H22V26c0,0.4-0.3,0.7-0.8,0.7h-6.8
		c-0.4,0-0.7-0.3-0.7-0.7v-1.6H11c-0.4,0-0.7-0.3-0.7-0.7v-1H8.5c-0.7,0-1.3-0.6-1.3-1.3V10.7c0-0.7,0.6-1.3,1.3-1.3l18.8,0
		c0.7,0,1.3,0.6,1.3,1.3V21.3z M14.4,19.7c0-0.5,0.1-1,0.4-1.4c0.3-0.4,0.7-0.7,1.2-1c-0.5-0.2-0.8-0.5-1-0.9
		c-0.2-0.4-0.4-0.8-0.4-1.3c0-0.5,0.1-1,0.4-1.4c0.3-0.4,0.7-0.7,1.2-0.9c0.5-0.2,1-0.3,1.7-0.3c0.6,0,1.2,0.1,1.7,0.3
		c0.5,0.2,0.8,0.5,1.1,0.9c0.3,0.4,0.4,0.8,0.4,1.3c0,0.5-0.1,0.9-0.3,1.2c-0.2,0.4-0.6,0.7-1,0.9c1.1,0.5,1.6,1.3,1.6,2.4
		c0,0.9-0.3,1.5-0.9,2.1c-0.6,0.5-1.5,0.8-2.5,0.8c-1,0-1.9-0.2-2.5-0.7C14.7,21.2,14.4,20.5,14.4,19.7z M17.9,21.2
		c0.6,0,1.1-0.2,1.4-0.5c0.3-0.3,0.5-0.7,0.5-1.2c0-0.4-0.2-0.8-0.5-1.1c-0.3-0.3-0.7-0.5-1.3-0.6l-0.6-0.1
		c-0.5,0.1-0.9,0.4-1.2,0.7c-0.3,0.3-0.4,0.7-0.4,1.1c0,0.5,0.2,0.9,0.5,1.2C16.8,21.1,17.3,21.2,17.9,21.2z M18.4,16.8
		c0.4-0.1,0.7-0.3,0.9-0.6c0.2-0.3,0.3-0.6,0.3-0.9c0-0.5-0.2-0.8-0.5-1.1c-0.3-0.3-0.7-0.4-1.2-0.4c-0.5,0-1,0.1-1.3,0.4
		c-0.3,0.3-0.5,0.6-0.5,1.1c0,0.4,0.1,0.7,0.4,1c0.3,0.2,0.7,0.4,1.2,0.5L18.4,16.8z"/>
</svg>
