<?xml version="1.0" encoding="utf-8"?>
<!-- Generator: Adobe Illustrator 18.1.0, SVG Export Plug-In . SVG Version: 6.00 Build 0)  -->
<svg version="1.1" id="Layer_1" xmlns="http://www.w3.org/2000/svg" xmlns:xlink="http://www.w3.org/1999/xlink" x="0px" y="0px"
	 viewBox="0 0 36 36" enable-background="new 0 0 36 36" xml:space="preserve">
	<path fill="#0568ae" d="M32.5,9.6c0-2-1.6-3.7-3.7-3.7H7.3c-2,0-3.7,1.6-3.7,3.7v16.8c0,2,1.7,3.7,3.7,3.7h21.5
		c2,0,3.7-1.6,3.7-3.7L32.5,9.6z M28.8,29.3H7.3c-1.6,0-3-1.3-3-2.9V9.6c0-1.6,1.3-2.9,2.9-2.9h21.6c1.6,0,2.9,1.3,2.9,2.9l0,16.8
		C31.7,28,30.4,29.3,28.8,29.3z M29.2,10.6v10.6c0,0.9-0.8,1.7-1.7,1.7h-1.4v0.6c0,0.6-0.5,1.1-1.1,1.1h-2.3V26
		c0,0.6-0.5,1.1-1.1,1.1h-6.8c-0.6,0-1.1-0.5-1.1-1.1v-1.3h-2.3c-0.6,0-1.1-0.5-1.1-1.1v-0.7H8.7c-1,0-1.8-0.8-1.8-1.7v-4.9
		c0-0.2,0.2-0.4,0.4-0.4c0.2,0,0.4,0.2,0.4,0.4v4.9c0,0.5,0.5,1,1,1h1.8c0.2,0,0.4,0.2,0.4,0.4v1c0,0.2,0.2,0.4,0.4,0.4h2.7
		c0.2,0,0.4,0.2,0.4,0.4V26c0,0.2,0.2,0.4,0.4,0.4h6.8c0.2,0,0.4-0.2,0.4-0.4v-1.7c0-0.2,0.2-0.4,0.4-0.4h2.7c0.2,0,0.4-0.2,0.4-0.4
		v-1c0-0.2,0.2-0.4,0.4-0.4h1.8c0.5,0,0.9-0.4,0.9-1V10.6c0-0.5-0.4-1-1-1l-19.7,0c-0.2,0-0.4-0.2-0.4-0.4c0-0.2,0.2-0.4,0.4-0.4
		l19.7,0C28.4,8.9,29.2,9.7,29.2,10.6z M14.7,19.8c0-0.6,0.2-1.1,0.5-1.5c0.3-0.4,0.7-0.7,1.3-1c-1-0.4-1.5-1.1-1.5-2.2
		c0-0.5,0.1-1,0.4-1.4c0.3-0.4,0.6-0.7,1.1-0.9c0.5-0.2,1-0.3,1.6-0.3c0.6,0,1.1,0.1,1.6,0.3c0.5,0.2,0.8,0.5,1.1,0.9
		c0.2,0.4,0.4,0.8,0.4,1.3c0,0.5-0.1,0.9-0.4,1.3c-0.2,0.4-0.6,0.7-1.1,0.9c0.6,0.2,1,0.6,1.3,1c0.3,0.4,0.4,0.9,0.4,1.5
		c0,0.8-0.3,1.5-0.9,2c-0.6,0.5-1.4,0.8-2.4,0.8c-1,0-1.8-0.2-2.4-0.7C15,21.2,14.7,20.6,14.7,19.8z M18.1,21.5
		c0.7,0,1.2-0.2,1.6-0.5c0.4-0.3,0.6-0.8,0.6-1.4c0-0.5-0.2-1-0.5-1.3c-0.4-0.3-0.9-0.5-1.5-0.6l-0.6-0.1c-0.6,0.2-1,0.5-1.3,0.8
		c-0.3,0.4-0.5,0.8-0.5,1.2c0,0.6,0.2,1,0.6,1.4C16.8,21.4,17.4,21.5,18.1,21.5z M18.6,16.9c1-0.4,1.4-0.9,1.4-1.8
		c0-0.5-0.2-1-0.5-1.3c-0.4-0.3-0.8-0.5-1.4-0.5s-1.1,0.2-1.5,0.5c-0.4,0.3-0.6,0.7-0.6,1.3c0,0.5,0.2,0.8,0.5,1.1
		c0.3,0.3,0.8,0.5,1.4,0.5L18.6,16.9z"/>
</svg>
