<?xml version="1.0" encoding="utf-8"?>
<!-- Generator: Adobe Illustrator 18.1.0, SVG Export Plug-In . SVG Version: 6.00 Build 0)  -->
<svg version="1.1" id="Layer_1" xmlns="http://www.w3.org/2000/svg" xmlns:xlink="http://www.w3.org/1999/xlink" x="0px" y="0px"
	 viewBox="0 0 36 36" enable-background="new 0 0 36 36" xml:space="preserve">
	<path fill="#0568ae" d="M4,16.1v-0.8c0-0.8,0.4-1.5,1-1.9l11.7-8.1C17.1,5.1,17.5,5,18,5h0c0.5,0,0.9,0.2,1.3,0.4l11.7,8.1
		c0.6,0.4,1,1.1,1,1.9c0,0,0,0.3,0,0.9L27,19.7v-5c0-0.4-0.4-0.8-0.8-0.8H9.8c-0.4,0-0.8,0.4-0.8,0.8v4.9L4,16.1z M19.8,26.5
		c-0.5,0.4-1.1,0.6-1.8,0.6c-0.6,0-1.3-0.2-1.8-0.6L4,18v11.3c0,1,0.8,1.8,1.8,1.8h24.5c1,0,1.9-0.8,1.9-1.8c0,0,0-7.1,0-11.1
		L19.8,26.5z M18.1,23.6c-0.7,0-1.4-0.2-1.9-0.5c-0.5-0.3-1-0.8-1.3-1.3c-0.3-0.6-0.4-1.2-0.4-1.9c0-0.7,0.2-1.4,0.5-2
		c0.3-0.6,0.7-1,1.2-1.3c0.5-0.3,1.1-0.5,1.7-0.5c0.6,0,1.2,0.2,1.7,0.5c0.5,0.3,0.8,0.7,1.1,1.2c0.3,0.5,0.4,1.1,0.4,1.8
		c0,0.3,0,0.6,0,0.9h-5c0.1,0.6,0.3,1.1,0.7,1.5c0.4,0.3,0.9,0.5,1.6,0.5c0.4,0,0.8,0,1.1-0.1c0.3-0.1,0.7-0.2,1-0.4l0.4,1.1
		c-0.4,0.2-0.9,0.4-1.3,0.5C19.1,23.5,18.7,23.6,18.1,23.6z M17.9,17.3c-0.5,0-0.9,0.2-1.3,0.5c-0.3,0.4-0.6,0.8-0.7,1.4h3.6v-0.1
		c0-0.6-0.2-1-0.5-1.4C18.9,17.4,18.5,17.3,17.9,17.3z"/>
</svg>
