<?xml version="1.0" encoding="utf-8"?>
<!-- Generator: Adobe Illustrator 18.1.0, SVG Export Plug-In . SVG Version: 6.00 Build 0)  -->
<svg version="1.1" id="Layer_1" xmlns="http://www.w3.org/2000/svg" xmlns:xlink="http://www.w3.org/1999/xlink" x="0px" y="0px"
	 viewBox="0 0 36 36" enable-background="new 0 0 36 36" xml:space="preserve">
	<path fill="#0568ae" d="M31.4,23.9c0-4,0-11.3,0-11.4c0-0.9-0.5-1.7-1.2-2.2l0,0L18.5,2.3l0,0c-0.4-0.3-1-0.5-1.5-0.5h0
		c-0.6,0-1.1,0.2-1.5,0.5l0,0L3.7,10.4l0,0c-0.7,0.5-1.2,1.3-1.2,2.2v13.8c0,1.2,1,2.2,2.2,2.2h15.9c0,3.5,2.9,6.3,6.4,6.3
		c3.5,0,6.4-2.9,6.4-6.4C33.4,26.7,32.6,25.1,31.4,23.9z M3.3,12.6c0-0.6,0.3-1.2,0.8-1.6l0,0l11.8-8.1l0,0c0.3-0.2,0.7-0.4,1.1-0.4
		h0c0.4,0,0.8,0.1,1.1,0.4l0,0L29.9,11l0,0c0.5,0.3,0.8,0.9,0.8,1.6c0,0,0,0.8,0,2.1l-4.3,3v-6.1c0-0.6-0.5-1.2-1.2-1.2H8.8
		c-0.6,0-1.2,0.5-1.2,1.2v3.7c0,0.2,0.2,0.4,0.4,0.4c0.2,0,0.4-0.2,0.4-0.4v-3.7c0-0.1,0-0.2,0.1-0.3c0.1-0.1,0.2-0.1,0.3-0.1h16.4
		c0.1,0,0.2,0,0.3,0.1c0.1,0.1,0.1,0.2,0.1,0.3v6.6l-7.5,5.1l0,0c-0.3,0.2-0.7,0.4-1.1,0.4h0c-0.4,0-0.8-0.1-1.1-0.4l0,0L3.3,14.5
		V12.6z M3.7,27.4c-0.3-0.3-0.4-0.6-0.4-1V15.5l12.1,8.4l0,0c0.4,0.3,1,0.5,1.6,0.5h0c0.6,0,1.1-0.2,1.6-0.5l0,0l12.2-8.3
		c0,2.3,0,5.4,0,7.7c-1-0.7-2.3-1.2-3.7-1.2c-3.3,0-6,2.5-6.3,5.7H4.7C4.3,27.8,4,27.7,3.7,27.4z M31.4,25.1c0.7,1,1.2,2.1,1.2,3.4
		c0,1.6-0.6,3-1.6,4c-1,1-2.4,1.6-4,1.6c-1.6,0-3-0.6-4-1.6c-1-1-1.6-2.4-1.6-3.9c0-0.6,0-0.8,0-0.8c0.2-1.3,0.7-2.4,1.6-3.3
		c1-1,2.4-1.6,4-1.6c1.4,0,2.7,0.5,3.7,1.4C30.7,24.3,31.2,24.7,31.4,25.1z M26.9,28.6L26.9,28.6L26.9,28.6L26.9,28.6z M25.4,25.5
		L25.4,25.5L25.4,25.5L25.4,25.5z M30.7,26.7c0-0.1-0.1-0.2-0.3-0.2c-0.1,0-0.3,0-0.3,0.1l-1.6,1.6c-0.2,0.2-0.4,0.2-0.6,0.2
		c-0.2,0-0.4-0.1-0.6-0.2l0,0c-0.2-0.2-0.2-0.4-0.2-0.6c0-0.2,0.1-0.4,0.2-0.6l1.6-1.6c0.1-0.1,0.1-0.2,0.1-0.3
		c0-0.1-0.1-0.2-0.2-0.3c-0.4-0.1-0.7-0.2-1.1-0.2c-0.8,0-1.7,0.3-2.3,0.9c-0.6,0.6-0.9,1.5-0.9,2.3c0,0.4,0.1,0.7,0.2,1.1l-1.5,1.5
		c-0.1,0.1-0.1,0.4,0,0.5s0.4,0.1,0.5,0l1.7-1.7c0.1-0.1,0.1-0.3,0.1-0.4c-0.1-0.3-0.2-0.7-0.2-1c0-0.6,0.2-1.3,0.7-1.8l0,0
		c0.5-0.5,1.1-0.7,1.8-0.7c0.1,0,0.2,0,0.2,0l-1.1,1.1l0,0c-0.3,0.3-0.5,0.7-0.5,1.1c0,0.4,0.2,0.8,0.5,1.1c0.3,0.3,0.7,0.5,1.1,0.5
		c0.4,0,0.8-0.2,1.1-0.5l0,0l1.1-1.1c0,0.1,0,0.2,0,0.2c0,0.6-0.2,1.3-0.7,1.8c-0.5,0.5-1.1,0.7-1.8,0.7c-0.3,0-0.7-0.1-1-0.2
		c-0.1-0.1-0.3,0-0.4,0.1l-1.7,1.7c-0.1,0.1-0.1,0.4,0,0.5c0.1,0.1,0.4,0.1,0.5,0l1.5-1.5C27,31,27.3,31,27.7,31
		c0.8,0,1.7-0.3,2.3-0.9l0,0c0.6-0.6,0.9-1.5,0.9-2.3C30.9,27.4,30.9,27,30.7,26.7z M14.8,17c0.1,0.7,0.3,1.3,0.8,1.7
		c0.4,0.4,1,0.6,1.7,0.6c0.4,0,0.8,0,1.1-0.1c0.3-0.1,0.6-0.2,1-0.4l0.3,0.8c-0.4,0.2-0.8,0.4-1.1,0.5c-0.4,0.1-0.8,0.2-1.3,0.2
		c-0.7,0-1.3-0.2-1.8-0.5c-0.5-0.3-0.9-0.7-1.2-1.3c-0.3-0.5-0.4-1.1-0.4-1.8c0-0.7,0.1-1.3,0.4-1.9c0.3-0.5,0.7-1,1.1-1.3
		c0.5-0.3,1-0.4,1.6-0.4c0.6,0,1.1,0.1,1.5,0.4c0.4,0.3,0.8,0.7,1,1.1c0.2,0.5,0.4,1,0.4,1.6c0,0.2,0,0.5,0,0.7H14.8z M16.9,14
		c-0.6,0-1,0.2-1.4,0.6c-0.4,0.4-0.6,0.9-0.7,1.6h4v-0.1c0-0.4-0.1-0.8-0.2-1.1c-0.2-0.3-0.4-0.6-0.7-0.8C17.6,14.1,17.3,14,16.9,14
		z"/>
</svg>
