<?xml version="1.0" encoding="utf-8"?>
<!-- Generator: Adobe Illustrator 18.1.0, SVG Export Plug-In . SVG Version: 6.00 Build 0)  -->
<svg version="1.1" id="Layer_1" xmlns="http://www.w3.org/2000/svg" xmlns:xlink="http://www.w3.org/1999/xlink" x="0px" y="0px"
	 viewBox="0 0 36 36" enable-background="new 0 0 36 36" xml:space="preserve">
	<path fill="#0568ae" d="M7.5,15.8l-5-3.5c0-0.5,0-0.8,0-0.8c0-0.8,0.4-1.5,1-1.9l11.7-8.1c0.4-0.3,0.8-0.4,1.3-0.4h0
		c0.5,0,0.9,0.2,1.3,0.4l11.7,8.1c0.6,0.4,1,1.1,1,1.9c0,0,0,0.3,0,0.9l-5.1,3.5v-5c0-0.4-0.4-0.8-0.8-0.8l-16.4,0
		c-0.4,0-0.8,0.4-0.8,0.8V15.8z M27,22.5c-3.3,0-6,2.7-6,6c0,1.2,0.4,2.3,1,3.3c0,0,0.1,0.1,0.1,0.1l2.1-2.1
		c-0.5-1.1-0.3-2.5,0.6-3.5c0.8-0.8,1.9-1.1,2.9-0.8c0.1,0,0.3,0.2,0.1,0.4l-1.8,1.8c-0.5,0.5-0.5,1.3,0,1.8c0.5,0.5,1.3,0.5,1.8,0
		l1.7-1.7c0.2-0.2,0.4-0.1,0.4,0.1c0.2,1,0,2.1-0.8,2.9c-0.9,0.9-2.3,1.2-3.5,0.6l-2.1,2.1c0,0,0.1,0.1,0.1,0.1c0.9,0.6,2,1,3.2,1
		c3.3,0,6-2.7,6-6S30.3,22.5,27,22.5z M27,21c1.3,0,2.5,0.3,3.6,0.9c0-2.4,0-5.5,0-7.7l-12.3,8.4c-0.5,0.4-1.1,0.6-1.8,0.6
		c-0.6,0-1.3-0.2-1.8-0.6L2.5,14.1c0,4,0,11.3,0,11.3c0,1,0.8,1.8,1.8,1.8l15.4,0C20.3,23.7,23.3,21,27,21z M16.6,19.8
		c-0.7,0-1.4-0.2-1.9-0.5c-0.5-0.3-1-0.8-1.3-1.3C13.1,17.4,13,16.7,13,16c0-0.7,0.2-1.4,0.5-2c0.3-0.6,0.7-1,1.2-1.3
		c0.5-0.3,1.1-0.5,1.7-0.5c0.6,0,1.2,0.2,1.7,0.5c0.5,0.3,0.8,0.7,1.1,1.2c0.3,0.5,0.4,1.1,0.4,1.8c0,0.3,0,0.6,0,0.9h-5
		c0.1,0.6,0.3,1.1,0.7,1.5c0.4,0.3,0.9,0.5,1.6,0.5c0.4,0,0.8,0,1.1-0.1c0.3-0.1,0.7-0.2,1-0.4l0.4,1.1c-0.4,0.2-0.9,0.4-1.3,0.5
		C17.6,19.7,17.2,19.8,16.6,19.8z M16.4,13.4c-0.5,0-0.9,0.2-1.3,0.5c-0.3,0.4-0.6,0.8-0.7,1.4h3.6v-0.1c0-0.6-0.2-1-0.5-1.4
		C17.4,13.6,17,13.4,16.4,13.4z"/>
</svg>
