<?xml version="1.0" encoding="utf-8"?>
<!-- Generator: Adobe Illustrator 18.1.0, SVG Export Plug-In . SVG Version: 6.00 Build 0)  -->
<svg version="1.1" id="Layer_1" xmlns="http://www.w3.org/2000/svg" xmlns:xlink="http://www.w3.org/1999/xlink" x="0px" y="0px"
	 viewBox="0 0 36 36" enable-background="new 0 0 36 36" xml:space="preserve">
	<path fill="#0568ae" d="M31.4,23.9V12.6c0-0.9-0.4-1.7-1.2-2.2L18.5,2.3c-0.9-0.6-2.2-0.7-3.1,0L3.7,10.4c-0.7,0.5-1.2,1.3-1.2,2.2
		v13.8c0,1.2,1,2.2,2.2,2.2h15.9c0,3.5,2.9,6.3,6.4,6.3c3.5,0,6.4-2.9,6.4-6.4C33.4,26.7,32.6,25.1,31.4,23.9z M4.1,11l11.8-8.1
		c0.6-0.5,1.5-0.5,2.2,0L29.9,11c0.5,0.4,0.8,0.9,0.8,1.6v2.1l-4.3,3v-6.1c0-0.6-0.5-1.2-1.2-1.2H8.8c-0.6,0-1.2,0.5-1.2,1.2v3.7
		c0,0.2,0.2,0.4,0.4,0.4c0.2,0,0.4-0.2,0.4-0.4v-3.7c0-0.2,0.2-0.4,0.4-0.4h16.4c0.2,0,0.4,0.2,0.4,0.4v6.6l-7.5,5.1
		c-0.7,0.5-1.6,0.5-2.3,0L3.3,14.5v-2C3.3,11.9,3.6,11.4,4.1,11z M3.3,26.4V15.5l12.1,8.4c0.5,0.3,1,0.5,1.6,0.5
		c0.6,0,1.1-0.2,1.6-0.5l12.2-8.3v7.8c-1-0.7-2.3-1.2-3.7-1.2c-3.3,0-6,2.5-6.3,5.7H4.7C3.9,27.8,3.3,27.2,3.3,26.4z M27,34.1
		c-3.1,0-5.6-2.5-5.6-5.6s2.5-5.6,5.6-5.6s5.6,2.5,5.6,5.6S30.1,34.1,27,34.1z M30.7,27.6c0.1-0.2,0.2-0.4,0.1-0.6
		c-0.1-0.3-0.3-0.6-0.5-0.9c-0.1-0.2-0.3-0.3-0.5-0.2c-0.4,0-0.7,0.1-1.1,0.3c-0.1,0-0.1-0.1-0.2-0.1c-0.1,0-0.1-0.1-0.2-0.1
		c0-0.3-0.1-0.7-0.2-1c-0.1-0.2-0.3-0.4-0.5-0.4c-0.3,0-0.6-0.1-1,0c-0.2,0-0.4,0.1-0.5,0.4c-0.2,0.3-0.3,0.7-0.3,1.1
		c-0.1,0-0.2,0.1-0.2,0.1c-0.1,0-0.1,0.1-0.2,0.1c-0.3-0.1-0.6-0.2-1-0.3c-0.2,0-0.4,0-0.6,0.2c-0.2,0.3-0.4,0.5-0.5,0.9
		c-0.1,0.2-0.1,0.4,0.1,0.6c0.2,0.3,0.5,0.6,0.8,0.8c0,0.1,0,0.2,0,0.3c0,0.1,0,0.1,0,0.2c-0.3,0.2-0.5,0.4-0.8,0.7
		c-0.1,0.2-0.2,0.4-0.1,0.6c0.1,0.3,0.3,0.6,0.5,0.9c0.1,0.2,0.3,0.3,0.5,0.2c0.4,0,0.7-0.1,1.1-0.3c0.1,0,0.1,0.1,0.2,0.1
		c0.1,0,0.1,0.1,0.2,0.1c0,0.3,0.1,0.7,0.2,1c0.1,0.2,0.3,0.4,0.5,0.4c0.2,0,0.4,0,0.5,0c0.1,0,0.3,0,0.4,0c0,0,0.1,0,0.1,0
		c0.2,0,0.4-0.2,0.4-0.3c0.2-0.3,0.3-0.7,0.3-1.1c0.1,0,0.2-0.1,0.2-0.1c0.1,0,0.1-0.1,0.2-0.1c0.3,0.1,0.6,0.2,1,0.3
		c0.2,0,0.4,0,0.6-0.2c0.2-0.2,0.4-0.5,0.5-0.9c0.1-0.2,0.1-0.4-0.1-0.6c-0.2-0.3-0.5-0.6-0.8-0.8c0-0.1,0-0.2,0-0.2c0,0,0,0,0,0
		c0-0.1,0-0.1,0-0.2C30.2,28.1,30.5,27.8,30.7,27.6z M29.3,27.8c-0.1,0.1-0.2,0.2-0.2,0.4c0,0.1,0,0.2,0,0.3c0,0.1,0,0.2,0,0.4
		c0,0.1,0,0.3,0.2,0.4c0.3,0.2,0.5,0.4,0.7,0.7c-0.1,0.2-0.2,0.4-0.3,0.6c-0.3-0.1-0.6-0.2-0.9-0.3c-0.1-0.1-0.3,0-0.4,0
		c-0.1,0.1-0.2,0.1-0.3,0.2c-0.1,0.1-0.2,0.1-0.3,0.2c-0.1,0.1-0.2,0.2-0.2,0.3c0,0.3-0.1,0.7-0.3,1c-0.2,0-0.4,0-0.6,0
		c-0.1-0.3-0.2-0.6-0.2-0.9c0-0.1-0.1-0.3-0.2-0.3c-0.1,0-0.2-0.1-0.3-0.1c-0.1-0.1-0.2-0.1-0.3-0.2c-0.1-0.1-0.3-0.1-0.4-0.1
		c-0.3,0.1-0.6,0.2-1,0.3c-0.1-0.2-0.2-0.4-0.3-0.6c0.2-0.2,0.5-0.5,0.7-0.6c0.1-0.1,0.2-0.2,0.2-0.4c0-0.1,0-0.2,0-0.3
		c0-0.1,0-0.3,0-0.4c0-0.1,0-0.3-0.2-0.4c-0.3-0.2-0.5-0.4-0.7-0.7c0.1-0.2,0.2-0.4,0.3-0.6c0.3,0.1,0.6,0.2,0.9,0.3
		c0.1,0.1,0.3,0,0.4,0c0.1-0.1,0.2-0.1,0.3-0.2c0.1-0.1,0.2-0.1,0.3-0.1c0.1-0.1,0.2-0.2,0.2-0.3c0-0.3,0.1-0.7,0.3-1
		c0.2,0,0.4,0,0.6,0c0.1,0.3,0.2,0.6,0.2,0.9c0,0.1,0.1,0.3,0.2,0.3c0.1,0,0.2,0.1,0.3,0.1c0.1,0.1,0.2,0.1,0.3,0.2
		c0.1,0.1,0.3,0.1,0.4,0.1c0.3-0.1,0.6-0.2,1-0.3c0.1,0.2,0.2,0.4,0.3,0.6C29.8,27.4,29.6,27.6,29.3,27.8z M28.6,29
		c-0.2,0.6-0.7,1-1.3,1.1c-0.1,0-0.2,0-0.3,0c-0.3,0-0.7-0.1-1-0.3c-0.4-0.3-0.6-0.6-0.7-1.1c-0.1-0.4,0-0.9,0.3-1.2
		c0.3-0.4,0.6-0.6,1.1-0.7c0.2,0,0.4,0.1,0.4,0.3c0,0.2-0.1,0.4-0.3,0.4c-0.2,0-0.4,0.2-0.6,0.4c-0.1,0.2-0.2,0.4-0.2,0.7
		c0,0.2,0.2,0.4,0.4,0.6c0.2,0.1,0.4,0.2,0.7,0.2c0.3-0.1,0.6-0.3,0.7-0.6c0.1-0.2,0.3-0.3,0.5-0.2C28.5,28.6,28.6,28.8,28.6,29z
		 M14.8,17c0.1,0.7,0.3,1.3,0.8,1.7c0.4,0.4,1,0.6,1.7,0.6c0.4,0,0.8,0,1.1-0.1c0.3-0.1,0.6-0.2,1-0.4l0.3,0.8
		c-0.4,0.2-0.8,0.4-1.1,0.5c-0.4,0.1-0.8,0.2-1.3,0.2c-0.7,0-1.3-0.2-1.8-0.5c-0.5-0.3-0.9-0.7-1.2-1.3c-0.3-0.5-0.4-1.1-0.4-1.8
		c0-0.7,0.1-1.3,0.4-1.9c0.3-0.5,0.7-1,1.1-1.3c0.5-0.3,1-0.4,1.6-0.4c0.6,0,1.1,0.1,1.5,0.4c0.4,0.3,0.8,0.7,1,1.1
		c0.2,0.5,0.4,1,0.4,1.6c0,0.2,0,0.5,0,0.7H14.8z M16.9,14c-0.6,0-1,0.2-1.4,0.6c-0.4,0.4-0.6,0.9-0.7,1.6h4v-0.1
		c0-0.4-0.1-0.8-0.2-1.1c-0.2-0.3-0.4-0.6-0.7-0.8C17.6,14.1,17.3,14,16.9,14z"/>
</svg>
