<svg xmlns="http://www.w3.org/2000/svg" viewBox="0 0 36 36" enable-background="new 0 0 36 36"><path fill="none" d="M.081 0h36v36h-36z"/><path d="M28.736 6.49h-21.39c-1.791 0-3.251 1.462-3.254 3.255l-.001 16.696c0 1.798 1.463 3.26 3.255 3.26h21.314c1.794 0 3.331-1.466 3.335-3.26v-16.696c-.001-1.796-1.466-3.255-3.259-3.255zm.008 14.808c-.002.731-.661 1.324-1.39 1.324h-1.767v1.017c-.002.413-.341.739-.753.739h-2.675v1.637c-.002.411-.345.748-.759.748h-6.767c-.413 0-.742-.337-.742-.748v-1.637h-2.69c-.41 0-.743-.337-.743-.747v-1.009h-1.807c-.727 0-1.309-.595-1.309-1.324v-10.55c.002-.73.596-1.321 1.325-1.321l18.755.001c.729 0 1.323.589 1.323 1.321v10.549zm-13.713-9.398l.002 2.043c0 .546-.442.989-.987.989h-.001c-.545 0-.988-.442-.989-.987l-.001-2.043c0-.545.442-.989.987-.99h.002c.543 0 .986.442.987.988zm4 .001l.001 2.042c0 .547-.443.989-.99.989-.545 0-.989-.442-.989-.989v-2.042c0-.546.442-.989.989-.989.546 0 .989.442.989.989zm-7.998 0v2.042c0 .547-.442.989-.988.989s-.989-.442-.989-.989v-2.042c0-.546.443-.989.989-.989s.988.443.988.989zm11.995-.001l.002 2.043c.001.546-.44.989-.987.989-.546 0-.988-.442-.989-.987l-.002-2.043c-.001-.545.44-.989.987-.99h.002c.546 0 .986.442.987.988zm4.002.001v2.042c0 .547-.443.989-.989.989s-.988-.442-.988-.989v-2.042c0-.546.442-.989.988-.989s.989.443.989.989z" fill="#0568ae"/></svg>