<svg xmlns="http://www.w3.org/2000/svg" viewBox="0 0 36 36" enable-background="new 0 0 36 36"><path fill="none" d="M.055 0h36v36h-36z"/><path d="M32.495 9.597c-.002-2.016-1.643-3.656-3.657-3.656h-21.566c-2.018 0-3.658 1.64-3.658 3.656v16.834c.002 1.984 1.713 3.66 3.734 3.66h21.491c2.017 0 3.657-1.642 3.657-3.661l-.001-16.833zm-3.656 19.745h-21.491c-1.616 0-2.983-1.333-2.984-2.911v-16.834c0-1.603 1.305-2.906 2.908-2.906h21.566c1.601 0 2.905 1.304 2.907 2.906l.001 16.834c0 1.605-1.304 2.911-2.907 2.911zm.379-18.735v10.636c0 .943-.761 1.71-1.695 1.71h-1.448v.643c0 .622-.504 1.128-1.123 1.128h-2.336v1.276c0 .622-.504 1.129-1.123 1.129h-6.826c-.625 0-1.135-.506-1.138-1.127v-1.278h-2.323c-.623 0-1.132-.502-1.133-1.118v-.652h-1.408c-.96 0-1.774-.783-1.776-1.709v-4.928c0-.207.168-.375.375-.375s.375.168.375.375v4.927c.001.511.48.96 1.026.96h1.782c.207 0 .375.168.375.375v1.026c0 .207.168.369.383.369h2.698c.207 0 .375.168.375.375v1.651c.001.205.179.379.388.379h6.826c.205 0 .373-.17.373-.379v-1.651c0-.207.168-.375.375-.375h2.711c.205 0 .373-.17.373-.378v-1.018c0-.207.168-.375.375-.375h1.823c.521 0 .945-.431.945-.96v-10.635c-.002-.527-.433-.957-.96-.957h-19.692c-.207 0-.375-.168-.375-.375s.168-.375.375-.375h19.692c.941 0 1.708.766 1.711 1.706zm-4.36 5.409v-3.663c0-.207.168-.375.375-.375s.375.168.375.375v3.663c0 .207-.168.375-.375.375s-.375-.168-.375-.375zm-3.22.375c-.207 0-.375-.168-.375-.375v-3.663c0-.207.168-.375.375-.375s.375.168.375.375v3.663c0 .207-.168.375-.375.375zm-3.598 0c-.207 0-.375-.168-.375-.375v-3.663c0-.207.168-.375.375-.375s.375.168.375.375v3.663c0 .207-.168.375-.375.375zm-3.973-.375v-3.663c0-.207.168-.375.375-.375s.375.168.375.375v3.663c0 .207-.168.375-.375.375s-.375-.168-.375-.375zm-3.22.375c-.207 0-.375-.168-.375-.375v-3.663c0-.207.168-.375.375-.375s.375.168.375.375v3.663c0 .207-.168.375-.375.375z" fill="#0568ae"/></svg>