<svg xmlns="http://www.w3.org/2000/svg" viewBox="0 0 36 36" enable-background="new 0 0 36 36"><path fill="none" d="M0 0h36v36h-36z"/><path d="M29.547 10.954h-23.094c-1.001 0-1.815.814-1.815 1.815v2.465c0 1.001.814 1.815 1.815 1.815h23.094c1.001 0 1.815-.814 1.815-1.815v-2.465c0-1-.814-1.815-1.815-1.815zm1.065 4.28c0 .587-.478 1.065-1.065 1.065h-23.094c-.587 0-1.065-.478-1.065-1.065v-2.465c0-.587.478-1.065 1.065-1.065h23.094c.587 0 1.065.478 1.065 1.065v2.465zm-21.663-1.681v.9c0 .198-.162.36-.36.36h-.9c-.198 0-.36-.162-.36-.36v-.9c0-.198.162-.36.36-.36h.899c.199 0 .361.162.361.36zm22.413 7.137v2.465c0 1-.814 1.815-1.815 1.815h-20.268c-.207 0-.375-.168-.375-.375s.168-.375.375-.375h20.268c.587 0 1.065-.478 1.065-1.065v-2.465c0-.587-.478-1.065-1.065-1.065h-23.094c-.587 0-1.065.478-1.065 1.065v2.465c0 .207-.168.375-.375.375s-.375-.168-.375-.375v-2.465c0-1 .814-1.815 1.815-1.815h23.094c1.001 0 1.815.815 1.815 1.815zm-22.413 1.683c0 .198-.162.36-.36.36h-.9c-.198 0-.36-.162-.36-.36v-.9c0-.199.162-.36.36-.36h.899c.198 0 .36.162.36.36v.9z" fill="#0568ae"/></svg>