<svg xmlns="http://www.w3.org/2000/svg" viewBox="0 0 36 36" enable-background="new 0 0 36 36"><path fill="none" d="M0 0h36v36h-36z"/><path d="M31.066 14.247l-.095-.138c-.048-.076-.128-.122-.218-.127-.084-.007-.172.035-.228.106-.131.172-.114.433-.085.865.059.851.154 2.274-.862 3.595-.326.418-.745.649-1.175.649-.323 0-.629-.131-.862-.367-.503-.51-.218-1.259.292-2.441.66-1.527 1.479-3.428-.06-5.365-.281-.353-.613-.675-.934-.986-.846-.824-1.72-1.675-1.945-3.311-.101-.716.245-2.227.857-2.737.095-.08.125-.215.071-.329-.057-.112-.184-.172-.303-.144-1.143.253-2.115 1.069-2.667 2.238-.623 1.312-.603 2.865.048 4.153.629 1.24.729 2.389.271 3.152-.295.494-.797.773-1.447.789-.434 0-.814-.227-1.018-.606-.309-.575-.152-1.345.359-2.183l.041-.09c.041-.148-.045-.278-.165-.308l-.138-.023h-.137c-.689 0-1.335.34-1.928 1.014-.424.56-1.264 2.175-.436 4.863h-13.449c-.792 0-1.44.648-1.44 1.44v13.006c0 .792.648 1.44 1.44 1.44h19.187c.792 0 1.44-.648 1.44-1.44v-3.309c3.603 0 5.358-2.427 5.717-3.118.531-1.02 1.022-2.303 1.25-4.061.466-3.599-.946-5.554-1.381-6.227zm-25.57 4.822c0-.297.243-.54.54-.54h9.755c.297 0 .54.243.54.54v3.966c0 .297-.243.54-.54.54h-9.755c-.297 0-.54-.243-.54-.54v-3.966zm5.062 10.861c0 .297-.243.54-.54.54h-3.982c-.297 0-.54-.243-.54-.54v-3.966c0-.297.243-.54.54-.54h3.982c.297 0 .54.243.54.54v3.966zm12.808 0c0 .297-.243.54-.54.54h-9.755c-.297 0-.54-.243-.54-.54v-3.966c0-.297.243-.54.54-.54h9.755c.297 0 .54.243.54.54v3.966zm0-6.895c0 .297-.243.54-.54.54h-3.982c-.297 0-.54-.243-.54-.54v-3.966c0-.297.243-.54.54-.54h3.982c.297 0 .54.243.54.54v3.966z" fill="#0568ae"/></svg>