<svg xmlns="http://www.w3.org/2000/svg" viewBox="0 0 36 36" enable-background="new 0 0 36 36"><path fill="none" d="M0 0h36v36h-36z"/><path d="M23.455 16.122h-17.957c-1.343 0-2.435 1.092-2.435 2.433l-.002 11.771c0 1.295 1.164 2.432 2.49 2.432h17.903c1.336 0 2.423-1.091 2.423-2.432v-11.771c.001-1.273-1.153-2.433-2.422-2.433zm1.673 14.204c0 .927-.751 1.682-1.673 1.682h-17.903c-.927 0-1.74-.786-1.74-1.682l.001-11.771c0-.928.756-1.683 1.685-1.683h17.957c.86 0 1.673.818 1.673 1.683v11.771zm-2.482-12.191h-3.574c-.617 0-1.118.502-1.118 1.119v3.559c0 .616.501 1.118 1.118 1.118h3.574c.617 0 1.119-.502 1.119-1.118v-3.559c0-.617-.503-1.119-1.119-1.119zm.369 4.678c0 .203-.166.368-.369.368h-3.574c-.203 0-.368-.165-.368-.368v-3.559c0-.204.165-.369.368-.369h3.574c.204 0 .369.165.369.369v3.559zm-16.75 1.118h9.346c.616 0 1.118-.502 1.118-1.118v-3.559c0-.617-.502-1.119-1.118-1.119h-9.346c-.618 0-1.121.502-1.121 1.119v3.559c0 .616.503 1.118 1.121 1.118zm-.371-4.677c0-.204.166-.369.371-.369h9.346c.203 0 .368.165.368.369v3.559c0 .203-.165.368-.368.368h-9.346c-.205 0-.371-.165-.371-.368v-3.559zm3.944 5.777h-3.574c-.617 0-1.119.502-1.119 1.119v3.559c0 .617.502 1.118 1.119 1.118h3.574c.617 0 1.118-.502 1.118-1.118v-3.559c0-.617-.501-1.119-1.118-1.119zm.368 4.677c0 .203-.165.368-.368.368h-3.574c-.204 0-.369-.165-.369-.368v-3.558c0-.204.166-.369.369-.369h3.574c.203 0 .368.166.368.369v3.558zm12.438-4.677h-9.346c-.617 0-1.118.502-1.118 1.119v3.559c0 .617.502 1.118 1.118 1.118h9.346c.618 0 1.121-.502 1.121-1.118v-3.559c0-.617-.503-1.119-1.121-1.119zm.371 4.677c0 .203-.167.368-.371.368h-9.346c-.203 0-.368-.165-.368-.368v-3.558c0-.204.165-.369.368-.369h9.346c.205 0 .371.166.371.369v3.558zm9.827-9.206c-.202 1.556-.612 2.886-1.29 4.186-.476.918-1.627 2.249-3.305 2.975l-.149.03c-.146 0-.283-.084-.345-.226-.082-.191.005-.411.195-.493 1.601-.693 2.6-1.98 2.938-2.633.636-1.22 1.021-2.471 1.211-3.937.428-3.301-.797-5.171-1.259-5.875l-.021-.032.02.408c.058.844.166 2.414-.938 3.85-.4.514-.923.795-1.472.795-.424 0-.826-.17-1.129-.479-.706-.716-.279-1.706.215-2.853.652-1.51 1.391-3.221-.009-4.983-.27-.339-.605-.664-.9-.95-.851-.829-1.813-1.766-2.056-3.53-.1-.708.165-2.053.724-2.793-.876.306-1.612.993-2.056 1.931-.573 1.208-.557 2.637.043 3.823.689 1.357.784 2.638.259 3.514-.362.607-.987.953-1.76.972-.582 0-1.086-.3-1.357-.803-.347-.645-.249-1.474.281-2.407-.572.003-1.122.301-1.637.887-.188.25-.655 1.038-.551 2.495.015.207-.141.386-.347.401-.209.014-.386-.141-.401-.347-.086-1.204.176-2.305.718-3.022.684-.778 1.427-1.163 2.227-1.163h.137l.198.026c.187.046.323.149.406.29.086.147.108.321.061.49l-.021.056-.041.09c-.475.782-.598 1.425-.37 1.85.14.259.391.408.688.408.504-.012.896-.222 1.125-.606.39-.65.286-1.667-.284-2.791-.704-1.392-.724-3.068-.053-4.483.603-1.274 1.669-2.165 2.925-2.443.286-.067.584.073.719.342.13.275.061.594-.164.784-.493.409-.812 1.794-.727 2.398.207 1.509.997 2.279 1.834 3.094.312.302.666.644.966 1.022 1.68 2.114.773 4.214.111 5.747-.49 1.137-.687 1.708-.37 2.03.392.397 1.042.306 1.474-.249.93-1.209.838-2.542.784-3.339-.032-.485-.056-.834.161-1.118.138-.175.351-.269.559-.252.2.012.391.124.502.3l.155.23c.504.768 1.84 2.807 1.376 6.383z" fill="#0568ae"/></svg>