<?xml version="1.0" encoding="utf-8"?>
<!-- Generator: Adobe Illustrator 18.1.0, SVG Export Plug-In . SVG Version: 6.00 Build 0)  -->
<svg version="1.1" id="Layer_1" xmlns="http://www.w3.org/2000/svg" xmlns:xlink="http://www.w3.org/1999/xlink" x="0px" y="0px"
	 viewBox="0 0 36 36" enable-background="new 0 0 36 36" xml:space="preserve">
	<path fill="#0568ae" d="M19.3,22.2v-2.3h-4.8V19l4.9-6.4h1V19h1.3v0.9h-1.3v2.3H19.3z M19.3,19v-4.8L15.6,19H19.3z M28.8,30.1H7.3
		c-2,0-3.7-1.7-3.7-3.7V9.6c0-2,1.6-3.7,3.7-3.7h21.6c2,0,3.7,1.6,3.7,3.7l0,16.8C32.4,28.4,30.8,30.1,28.8,30.1z M7.2,6.7
		C5.6,6.7,4.3,8,4.3,9.6v16.8c0,1.6,1.4,2.9,3,2.9h21.5c1.6,0,2.9-1.3,2.9-2.9l0-16.8c0-1.6-1.3-2.9-2.9-2.9H7.2z M22.6,26v-1.3h2.3
		c0.6,0,1.1-0.5,1.1-1.1v-0.6h1.4c0.9,0,1.7-0.8,1.7-1.7V10.6c0-0.9-0.8-1.7-1.7-1.7l-19.7,0c-0.2,0-0.4,0.2-0.4,0.4
		c0,0.2,0.2,0.4,0.4,0.4l19.7,0c0.5,0,1,0.4,1,1v10.6c0,0.5-0.4,1-0.9,1h-1.8c-0.2,0-0.4,0.2-0.4,0.4v1c0,0.2-0.2,0.4-0.4,0.4h-2.7
		c-0.2,0-0.4,0.2-0.4,0.4V26c0,0.2-0.2,0.4-0.4,0.4h-6.8c-0.2,0-0.4-0.2-0.4-0.4v-1.7c0-0.2-0.2-0.4-0.4-0.4h-2.7
		c-0.2,0-0.4-0.2-0.4-0.4v-1c0-0.2-0.2-0.4-0.4-0.4H8.6c-0.5,0-1-0.4-1-1v-4.9c0-0.2-0.2-0.4-0.4-0.4c-0.2,0-0.4,0.2-0.4,0.4v4.9
		c0,0.9,0.8,1.7,1.8,1.7H10v0.7c0,0.6,0.5,1.1,1.1,1.1h2.3V26c0,0.6,0.5,1.1,1.1,1.1h6.8C22.1,27.1,22.6,26.6,22.6,26z"/>
</svg>
