<?xml version="1.0" encoding="utf-8"?>
<!-- Generator: Adobe Illustrator 18.1.0, SVG Export Plug-In . SVG Version: 6.00 Build 0)  -->
<svg version="1.1" id="Layer_1" xmlns="http://www.w3.org/2000/svg" xmlns:xlink="http://www.w3.org/1999/xlink" x="0px" y="0px"
	 viewBox="0 0 36 36" enable-background="new 0 0 36 36" xml:space="preserve">
	<path fill="#0568ae" d="M28.7,6.5H7.3C5.5,6.5,4.1,8,4,9.7l0,16.7c0,1.8,1.5,3.3,3.3,3.3h21.3c1.8,0,3.3-1.5,3.3-3.3V9.7
		C32,7.9,30.5,6.5,28.7,6.5z M28.7,21.3c0,0.7-0.7,1.3-1.4,1.3h-1.8v1c0,0.4-0.3,0.7-0.8,0.7h-2.7V26c0,0.4-0.3,0.7-0.8,0.7h-6.8
		c-0.4,0-0.7-0.3-0.7-0.7v-1.6h-2.7c-0.4,0-0.7-0.3-0.7-0.7v-1H8.6c-0.7,0-1.3-0.6-1.3-1.3V10.7c0-0.7,0.6-1.3,1.3-1.3l18.8,0
		c0.7,0,1.3,0.6,1.3,1.3V21.3z M19.1,22.2v-2.2h-4.7v-1.3l4.8-6.2h1.4v6.2h1.3v1.2h-1.3v2.2H19.1z M19.1,18.8v-4.1l-3.2,4.1H19.1z"
		/>
</svg>
