<svg xmlns="http://www.w3.org/2000/svg" viewBox="0 0 36 36" enable-background="new 0 0 36 36"><path fill="none" d="M.001 0h35.999v36h-35.999z"/><path d="M31.982 8.81h-11.594c-.545 0-.99.446-.99.99v8.369c0 .545.445.99.99.99h2.588v.995c0 .327.268.595.595.595h1.612v4.46c-.323.183-.588.449-.771.772h-12.823c-.184-.324-.45-.591-.775-.774v-4.458h1.626c.327 0 .595-.268.595-.595v-.995h2.577c.544 0 .99-.446.99-.99v-8.369c0-.545-.446-.99-.99-.99h-11.592c-.545 0-.99.446-.99.99v8.369c0 .545.446.99.99.99h2.598v.995c0 .327.268.595.595.595h1.602v4.46c-.323.183-.588.449-.771.772h-3.034c-.552 0-1 .448-1 1s.448 1 1 1h3.033c.352.621 1.01 1.045 1.773 1.045.762 0 1.421-.424 1.772-1.045h12.823c.352.621 1.011 1.045 1.774 1.045.762 0 1.421-.424 1.773-1.045h2.879c.552 0 1-.448 1-1s-.448-1-1-1h-2.879c-.184-.324-.451-.591-.775-.774v-4.457h1.616c.327 0 .595-.268.595-.595v-.995h2.588c.545 0 .99-.446.99-.99v-8.37c0-.545-.446-.99-.99-.99zm-27.206 8.389c-.218 0-.396-.178-.396-.396v-6.247c0-.218.178-.396.396-.396h10.081c.218 0 .396.178.396.396v6.247c0 .218-.178.396-.396.396h-10.081zm26.846-.396c0 .218-.178.396-.396.396h-10.082c-.218 0-.396-.178-.396-.396v-6.247c0-.218.178-.396.396-.396h10.081c.218 0 .396.178.396.396v6.247z" fill="#0568ae"/></svg>