<svg xmlns="http://www.w3.org/2000/svg" viewBox="0 0 36 36" enable-background="new 0 0 36 36"><path fill="none" d="M.001 0h35.999v36h-35.999z"/><path d="M14.451 17.778h-5.444c-.207 0-.375-.168-.375-.375s.168-.375.375-.375h5.282v-5.901h-9.326v3.911c0 .207-.168.375-.375.375s-.375-.168-.375-.375v-4.073c0-.324.263-.587.586-.587h9.652c.324 0 .588.263.588.587v6.227c0 .322-.264.586-.588.586zm16.752-7.402h-9.654c-.323 0-.585.263-.585.587v4.073c0 .207.168.375.375.375s.375-.168.375-.375v-3.911h9.326v5.901h-5.283c-.208 0-.375.168-.375.375s.167.375.375.375h5.444c.325 0 .589-.264.589-.587v-6.227c0-.322-.264-.586-.587-.586zm2.162-.577v8.653l-.018.17c-.079.384-.419.674-.826.674h-2.488c.042.171.056.32.056.376 0 .46-.374.834-.833.834h-2.505v3.682c.408.125.725.443.851.851h3.813c.207 0 .375.168.375.375s-.168.375-.375.375h-3.813c-.161.527-.645.913-1.226.913-.578 0-1.063-.386-1.226-.913h-14.3c-.161.527-.645.913-1.224.913-.58 0-1.064-.386-1.226-.913h-3.812c-.207 0-.375-.168-.375-.375s.168-.375.375-.375h3.812c.125-.407.443-.725.85-.85v-3.683h-2.502c-.461 0-.835-.374-.835-.834 0-.056.014-.205.056-.376h-2.489c-.466 0-.844-.378-.844-.844v-8.653c0-.464.378-.842.844-.842h12.289c.465 0 .845.378.845.842v8.653c0 .465-.379.844-.845.844h-2.488c.042.171.055.319.055.376 0 .46-.373.834-.832.834h-2.504v3.682c.407.125.726.443.85.851h14.3c.125-.407.444-.725.851-.85v-3.683h-2.502c-.461 0-.835-.374-.835-.834 0-.056.014-.205.056-.376h-2.488c-.408 0-.749-.289-.827-.674l-.018-.17v-8.653l.018-.169c.078-.384.419-.673.827-.673h12.289c.407 0 .748.289.826.673l.018.169zm-26.617 9.957h5.757c.044 0 .082-.038.082-.084 0-.11-.066-.344-.118-.428-.134-.078-.208-.232-.18-.388.031-.179.186-.31.369-.31h3.111c.053 0 .095-.041.095-.094v-8.653c0-.051-.043-.092-.095-.092h-12.289c-.053 0-.094.041-.094.092v8.653c0 .052.041.094.094.094h3.112c.182 0 .338.131.369.31.027.156-.046.31-.179.389-.053.083-.12.32-.12.428.001.046.038.083.086.083zm25.772-1.21c.053 0 .095-.041.095-.094v-8.653c0-.051-.042-.092-.095-.092h-12.288c-.053 0-.095.041-.095.092v8.653l.061.08.034.014h3.1119999999999997c.182 0 .337.131.369.31.027.156-.046.31-.18.389-.052.083-.119.32-.119.428 0 .046.038.084.084.084h5.757c.045 0 .082-.038.082-.084 0-.11-.066-.344-.118-.428-.1-.059-.166-.16-.182-.273l.003-.116c.031-.179.186-.31.369-.31h3.111z" fill="#0568ae"/></svg>