<svg xmlns="http://www.w3.org/2000/svg" viewBox="0 0 36 36" enable-background="new 0 0 36 36"><path fill="none" d="M.039 0h36v36h-36z"/><path d="M23.724 10.776c-2.867-2.909-7.447-5.903-11.389-6.65 1.759-.724 3.685-1.124 5.704-1.124 1.253 0 2.469.156 3.633.445 1.772 1.356 2.114 4.867 2.139 7.083l.035.208-.122.038zm-11.915 10.527c.455-.559 1.139-.925 1.914-.925.859 0 1.617.441 2.061 1.108 1.117-.262 2.254-.564 3.388-.909.978-.297 2.287-.83 3.672-1.538.349-1.593.618-3.222.784-4.831-.632-.304-1.072-.945-1.072-1.692 0-.233.048-.454.126-.661-3.3-3.357-9.128-6.863-12.804-6.376l-.722.435c-2.551 1.878-4.486 4.544-5.446 7.639.074.538.269 1.101.595 1.688 1.318 2.373 4.378 4.617 7.504 6.062zm-1.162 1.107c-3.084-1.514-6.03-3.74-7.503-6.188-.069.584-.106 1.177-.106 1.779 0 .75.057 1.486.163 2.207l.043.113c.511 1.882 2.742 2.548 7.403 2.089zm17.785-5.201c.749 1.397 1.335 2.783 1.739 4.118.609-.307 1.154-.662 1.608-1.074.664-.604 1.076-1.284 1.255-2.057l.005-.194c0-1.981-.388-3.871-1.086-5.602-.067.232-.144.465-.242.7-.629 1.508-1.836 2.895-3.279 4.109zm-7.174 7.359l-.725.008c-1.506 0-2.898-.095-4.03-.248-.23-.031-.469-.075-.71-.121-.443.676-1.204 1.125-2.071 1.125-1.017 0-1.89-.617-2.271-1.495-1.188.136-2.292.215-3.293.215-1.675 0-3.071-.215-4.141-.718 1.886 4.957 6.323 8.657 11.709 9.491.287-.097.582-.254.889-.478 1.654-1.21 3.326-4.136 4.643-7.779zm3.989-13.747c.635.304 1.077.946 1.077 1.696 0 .372-.112.718-.299 1.011l.177.167c.537.723 1.018 1.452 1.465 2.182 1.197-1.035 2.168-2.172 2.66-3.354.458-1.098.454-2.121-.001-3.119-1.55-2.21-3.679-3.982-6.169-5.096.726 1.524 1.125 3.611 1.154 6.206.001.109-.023.212-.064.307zm5.301 11.975c.222 1.054.323 2.061.306 3.004.802-1.315 1.403-2.763 1.771-4.303-.591.503-1.293.934-2.077 1.299zm-6.411-2.731c-.229.971-.489 1.939-.775 2.888 1.866-.152 3.776-.471 5.415-1.042-.358-1.214-.87-2.483-1.542-3.77-1.002.724-2.064 1.37-3.098 1.924zm.944-5.359c-.125 1.096-.299 2.232-.521 3.382.657-.394 1.308-.821 1.927-1.275-.424-.705-.894-1.41-1.406-2.107zm4.054 8.651c-1.917.648-4.127 1-6.27 1.141-1.234 3.604-2.862 6.767-4.702 8.5 4.172-.034 7.937-1.771 10.636-4.551.621-1.323.727-3.089.336-5.09zm-12.524-.531l.093.016c1.232.167 3.068.271 5.072.202.218-.687.423-1.393.613-2.112-1.068.488-2.036.855-2.781 1.081-1.002.304-2.004.57-2.997.813z" fill="#0568ae"/></svg>