<?xml version="1.0" encoding="utf-8"?>
<!-- Generator: Adobe Illustrator 18.1.0, SVG Export Plug-In . SVG Version: 6.00 Build 0)  -->
<svg version="1.1" id="Layer_1" xmlns="http://www.w3.org/2000/svg" xmlns:xlink="http://www.w3.org/1999/xlink" x="0px" y="0px"
	 viewBox="0 0 36 36" enable-background="new 0 0 36 36" xml:space="preserve">
	<path fill="#0568ae" d="M33.4,18c0-2.4-0.5-4.6-1.5-6.6c0,0,0,0,0,0c0,0,0,0,0,0c-2.1-4.5-6.4-7.7-11.4-8.5c0,0,0,0,0,0l0,0
		c-0.8-0.1-1.6-0.2-2.4-0.2c-2.2,0-4.4,0.5-6.4,1.4c-0.3-0.3-0.7-0.5-1.2-0.5c-1,0-1.8,0.8-1.8,1.8c0,0.2,0,0.3,0.1,0.4
		C5.8,8,3.8,11.1,3,14.6c0,0,0,0,0,0.1c0,0.1,0,0.2,0,0.3c-0.2,1-0.3,2-0.3,3.1c0,2.4,0.5,4.6,1.5,6.6c0,0,0,0,0,0c0,0,0,0,0,0
		c2,4.1,5.8,7.3,10.4,8.3c0,0,0,0,0,0c0,0,0.1,0,0.1,0c1.1,0.2,2.2,0.4,3.4,0.4c1.9,0,3.8-0.4,5.5-1c1,0.6,2.2,1,3.5,1
		c3.5,0,6.4-2.9,6.4-6.4c0-1.3-0.4-2.5-1-3.5C33,21.8,33.4,20,33.4,18z M32.6,18c0,1-0.1,2.1-0.3,3c0,0,0,0,0,0
		c-0.1,0.5-0.4,0.9-0.9,1.3c-0.6-0.6-1.3-1-2.1-1.3c-0.4-1.5-1-3-1.8-4.5c0.6-0.4,1.2-0.8,1.7-1.2c1.3-1,2.1-1.8,2.5-2.5
		C32.3,14.4,32.6,16.2,32.6,18z M16.5,22.4c1-0.4,2-0.9,3-1.3c1.3-0.6,2.5-1.3,3.7-1.9c-0.3,1.3-0.6,2.5-1,3.7
		c-0.3,0.4-0.6,0.8-0.8,1.2c-1.5-0.1-3-0.4-4.5-0.7c-0.1,0-0.2-0.1-0.3-0.1c0-0.1,0-0.3,0-0.4C16.5,22.7,16.5,22.6,16.5,22.4z
		 M24.4,13.5c-0.6,0-1-0.5-1-1c0-0.6,0.5-1,1-1c0.6,0,1,0.5,1,1C25.4,13.1,25,13.5,24.4,13.5z M26.5,16.3c-0.7,0.5-1.4,0.9-2.2,1.4
		c0.2-1.2,0.4-2.3,0.5-3.4c0.1,0,0.2-0.1,0.4-0.1C25.6,14.9,26.1,15.6,26.5,16.3z M26.8,17c0.7,1.3,1.2,2.6,1.6,3.8
		c-0.5-0.1-0.9-0.2-1.4-0.2c-1.4,0-2.7,0.5-3.8,1.3c0.3-1.1,0.6-2.1,0.8-3.2C25,18.1,26,17.5,26.8,17z M31.2,11.7
		c0.1,0.3-0.3,1.3-2.5,3c-0.5,0.4-1,0.8-1.6,1.2c-0.4-0.7-0.9-1.4-1.4-2.1c0.3-0.3,0.5-0.7,0.5-1.2c0-0.8-0.6-1.5-1.4-1.7
		c-0.1-3-0.8-5.2-1.9-6.6C26.6,5.5,29.5,8.2,31.2,11.7z M18,3.4c0.8,0,1.6,0.1,2.3,0.2c3,0.5,3.6,4.6,3.7,7.2
		c-0.2,0-0.4,0.1-0.6,0.2c-3.6-3.8-7.9-6.2-11.4-6.2c0-0.1,0-0.1-0.1-0.2C13.9,3.8,15.9,3.4,18,3.4z M10.4,4.3c0.6,0,1,0.5,1,1
		c0,0.6-0.5,1-1,1c-0.6,0-1-0.5-1-1C9.4,4.8,9.9,4.3,10.4,4.3z M4.8,24.3c-0.9-1.9-1.4-4.1-1.4-6.3c0-0.3,0-0.7,0-1
		c0.8,1.5,2.7,3.1,5.4,4.4c0.1,0,0.1,0,0.2,0c0.1,0,0.3-0.1,0.3-0.2c0.1-0.2,0-0.4-0.2-0.5c-3.6-1.8-5.7-3.9-5.5-5.7
		c0.7-3.4,2.6-6.5,5.4-8.6c0.3,0.4,0.8,0.6,1.3,0.6c0.9,0,1.6-0.6,1.7-1.5c3.3,0,7.4,2.3,10.8,6c-0.2,0.3-0.3,0.6-0.3,1
		c0,0.8,0.6,1.5,1.3,1.7c-0.1,1.3-0.3,2.6-0.6,4c-1.3,0.8-2.8,1.5-4.2,2.2c-1,0.5-2,0.9-2.9,1.3c-0.4-0.7-1.2-1.2-2-1.2
		c-1.3,0-2.4,1.1-2.4,2.4c0,0.2,0,0.3,0,0.5C7.2,24.9,5.1,24.8,4.8,24.3z M15.8,22.9c0,0.9-0.7,1.6-1.6,1.6c-0.9,0-1.6-0.7-1.6-1.6
		c0-0.9,0.7-1.6,1.6-1.6C15.1,21.3,15.8,22,15.8,22.9z M14.8,32.3c-4-0.9-7.4-3.5-9.4-6.9c0.2,0,0.4,0,0.7,0c1.8,0,4.3-0.7,6.1-1.3
		c0.4,0.7,1.2,1.2,2,1.2c0.9,0,1.7-0.5,2.1-1.2c0.1,0,0.3,0.1,0.4,0.1c1.5,0.3,2.9,0.5,4.4,0.7c-0.2,0.6-0.4,1.3-0.4,1.9
		c-1.1,2.2-2.3,4-3.5,4.9C16.3,32.2,15.5,32.4,14.8,32.3z M18,32.6c-0.4,0-0.7,0-1,0c0.2-0.1,0.4-0.2,0.6-0.4c1.2-0.9,2.2-2.3,3.2-4
		c0.3,1.4,1,2.7,2.1,3.6C21.3,32.3,19.7,32.6,18,32.6z M27,32.6c-3.1,0-5.6-2.5-5.6-5.6s2.5-5.6,5.6-5.6s5.6,2.5,5.6,5.6
		S30.1,32.6,27,32.6z M27,30.5c-0.2,0-0.3-0.1-0.4-0.2c-0.1-0.1-0.2-0.2-0.2-0.4c0-0.2,0.1-0.3,0.2-0.4c0.1-0.1,0.2-0.2,0.4-0.2
		s0.3,0.1,0.4,0.2c0.1,0.1,0.2,0.2,0.2,0.4c0,0.2-0.1,0.3-0.2,0.4C27.3,30.4,27.2,30.5,27,30.5z M27.3,28.3h-0.6l-0.1-5.1h0.8
		L27.3,28.3z"/>
</svg>
