<svg xmlns="http://www.w3.org/2000/svg" viewBox="0 0 36 36"><path fill="none" d="M0 0h36v36H0z"/><g fill="#0568ae"><path d="M29.1 28.6c2.7-2.9 4.2-6.6 4.2-10.6 0-2.4-.5-4.6-1.5-6.6-2.1-4.5-6.4-7.7-11.4-8.5-.8-.1-1.6-.2-2.4-.2-2.2 0-4.4.5-6.4 1.4-.3-.3-.7-.5-1.2-.5-1 0-1.8.8-1.8 1.8 0 .2 0 .3.1.4-.4.3-.9.7-1.3 1.1L3.3 2.7c-.1-.1-.4-.1-.5 0s-.1.4 0 .5l25.6 25.6 4.4 4.4c.1.1.2.1.3.1s.2 0 .3-.1c.1-.1.1-.4 0-.5l-4.3-4.1zM23 22.5c.4-1.3.7-2.6 1-3.9 1-.6 1.9-1.1 2.8-1.7 1.2 2.3 2 4.6 2.2 6.6-1.2.3-2.6.5-4.3.6L23 22.5zm-2.1-2.2c.8-.4 1.5-.8 2.3-1.2-.2.9-.5 1.9-.7 2.8l-1.6-1.6zm3.5-8.8c.6 0 1 .5 1 1 0 .6-.5 1-1 1s-1-.5-1-1 .4-1 1-1zm.3 2.7c.1 0 .3-.1.4-.1.5.7 1 1.4 1.4 2.2-.7.5-1.4.9-2.2 1.4.1-1.2.3-2.3.4-3.5zm4.4 10.1c0 1.3-.2 2.5-.7 3.5l-3-3c1.4 0 2.6-.2 3.7-.5zm.7-.2c.8-.3 1.4-.6 1.9-1-.5 1.4-1.2 2.7-2.2 3.9.3-.9.4-1.9.3-2.9zm2.5-3.1s0 .1 0 0c-.2 1-1.1 1.8-2.6 2.3-.2-2.1-1-4.5-2.3-6.8.6-.4 1.2-.8 1.7-1.2 1.3-1 2.1-1.8 2.5-2.5.6 1.6 1 3.4 1 5.2 0 1-.1 2-.3 3zm-1.1-9.3c.1.3-.3 1.3-2.5 3-.5.4-1 .8-1.6 1.2-.4-.7-.9-1.4-1.4-2.2.3-.3.5-.7.5-1.2 0-.8-.6-1.5-1.4-1.7-.1-3-.8-5.2-1.9-6.6 3.6 1.3 6.6 4 8.3 7.5zM20.3 3.6c3 .5 3.6 4.6 3.7 7.2-.2 0-.4.1-.6.2-3.6-3.8-7.9-6.1-11.4-6.2 0-.1 0-.1-.1-.2 1.9-.8 3.9-1.3 6-1.3.9.1 1.7.1 2.4.3zm-9.9.7c.6 0 1 .5 1 1 0 .6-.5 1-1 1-.6 0-1-.5-1-1 0-.6.5-1 1-1zM9.1 6.4c.3.4.8.6 1.3.6.9 0 1.6-.6 1.7-1.5 3.3 0 7.4 2.3 10.8 6-.2.3-.3.6-.3 1 0 .8.6 1.5 1.3 1.7-.1 1.3-.3 2.6-.6 4-1 .5-2 1.1-3 1.6L7.9 7.4c.4-.3.8-.7 1.2-1zM26.2 30.1c-2.4 1.6-5.2 2.5-8.2 2.5h-1.1c1.7-.9 3.5-3.3 4.9-6.8.1-.2 0-.4-.2-.5-.2-.1-.4 0-.5.2-2 4.7-4.4 7.2-6.4 6.8-4-.9-7.4-3.5-9.4-6.9H6c1.8 0 4.3-.7 6.1-1.3.4.7 1.2 1.2 2 1.2.9 0 1.7-.5 2.1-1.2.1 0 .3.1.4.1 1.2.3 2.4.5 3.6.6.2 0 .3-.1.4-.3 0-.2-.1-.4-.3-.4-1.2-.1-2.4-.3-3.5-.6-.1 0-.2-.1-.3-.1V23c0-.2 0-.3-.1-.5.4-.2.8-.3 1.1-.5.2-.1.3-.3.2-.5-.1-.2-.3-.3-.5-.2-.4.2-.7.3-1.1.5-.4-.7-1.2-1.2-2-1.2-1.3 0-2.4 1.1-2.4 2.4v.5c-4.7 1.6-6.8 1.5-7.1 1-.9-1.9-1.4-4.1-1.4-6.3v-1c.8 1.5 2.7 3.1 5.4 4.4h.2c.1 0 .3-.1.3-.2.1-.2 0-.4-.2-.5-3.6-1.8-5.7-4-5.5-5.7.4-1.8 1.1-3.6 2.2-5.1.4-.4.3-.7.2-.8-.2-.1-.4-.1-.6.1-1 1.6-1.8 3.4-2.2 5.2v.2c-.2 1-.3 2.1-.3 3.1 0 2.4.5 4.6 1.5 6.6 2 4.1 5.8 7.3 10.4 8.3h.1c1.1.2 2.2.4 3.4.4 3.1 0 6.1-.9 8.6-2.6.2-.1.2-.3.1-.5-.2 0-.5-.1-.6 0zm-12-8.8c.9 0 1.6.7 1.6 1.6s-.7 1.6-1.6 1.6-1.6-.7-1.6-1.6.7-1.6 1.6-1.6z"/></g></svg>