<svg xmlns="http://www.w3.org/2000/svg" viewBox="0 0 36 36" enable-background="new 0 0 36 36"><path fill="none" d="M.016 0h36v36h-36z"/><path d="M33.401 18.009c0-2.363-.537-4.603-1.494-6.606l-.01-.028-.005-.007c-2.142-4.453-6.365-7.72-11.402-8.535l-.016-.003h-.002c-.798-.128-1.613-.197-2.445-.197-2.233 0-4.382.473-6.394 1.395-.313-.292-.731-.474-1.193-.474-.97 0-1.759.789-1.759 1.759 0 .155.026.302.064.445-2.897 2.199-4.904 5.356-5.703 8.847l-.035.078-.037.261c-.205 1.002-.318 2.027-.318 3.065 0 2.371.54 4.618 1.502 6.625l.003.009.006.01c1.996 4.147 5.803 7.264 10.384 8.329l.023.01.077.013c1.089.245 2.218.379 3.38.379 3.645 0 6.995-1.277 9.633-3.404l.048-.027.065-.062c3.433-2.822 5.628-7.1 5.628-11.882zm-3.828 8.96c.237-.866.331-1.829.282-2.864.738-.26 1.362-.577 1.858-.946-.523 1.382-1.248 2.663-2.14 3.81zm2.758-5.92l-.018.04c-.202.925-1.094 1.7-2.528 2.243-.234-2.098-1.014-4.434-2.305-6.794.612-.417 1.179-.826 1.684-1.221 1.265-.989 2.101-1.828 2.519-2.531.623 1.623.967 3.383.967 5.222.001 1.043-.111 2.06-.319 3.041zm-19.73 1.83c0-.884.718-1.603 1.601-1.603s1.602.719 1.602 1.603c0 .883-.718 1.602-1.602 1.602s-1.601-.719-1.601-1.602zm3.903-.483c.985-.419 1.984-.867 2.978-1.342 1.286-.615 2.535-1.258 3.716-1.91-.384 1.724-.874 3.396-1.44 4.939-1.58-.122-3.231-.361-4.91-.727l-.333-.076c.022-.131.04-.264.04-.401-.001-.166-.019-.327-.051-.483zm7.547-3.73c.999-.57 1.939-1.143 2.799-1.706 1.244 2.306 1.984 4.595 2.184 6.62-.485.14-1.017.259-1.594.352-1.472.236-3.141.304-4.924.208.626-1.756 1.147-3.626 1.535-5.474zm.376-7.152c.558 0 1.009.453 1.009 1.009 0 .556-.451 1.009-1.009 1.009-.556 0-1.009-.452-1.009-1.009.001-.556.453-1.009 1.009-1.009zm.293 2.738c.126-.021.248-.053.363-.1.514.709.985 1.427 1.403 2.146-.697.458-1.447.922-2.243 1.388.218-1.177.379-2.333.477-3.434zm6.504-2.54c.121.3-.275 1.257-2.522 3.014-.475.372-1.015.758-1.588 1.151-.42-.719-.896-1.437-1.412-2.149.298-.315.484-.738.484-1.205 0-.832-.582-1.527-1.36-1.709-.1-3.009-.763-5.249-1.919-6.59 3.662 1.301 6.654 4.017 8.317 7.488zm-10.857-8.139c2.994.495 3.619 4.618 3.71 7.226-.213.043-.41.128-.587.241-3.58-3.818-7.892-6.158-11.359-6.181l-.062-.205c1.877-.84 3.878-1.271 5.957-1.271.797.001 1.578.067 2.341.19zm-9.928.732c.557 0 1.009.453 1.009 1.009 0 .556-.453 1.009-1.009 1.009-.556 0-1.009-.452-1.009-1.009 0-.557.452-1.009 1.009-1.009zm-6.998 12.681c.835 1.51 2.703 3.059 5.417 4.417l.168.04c.137 0 .269-.076.335-.208.093-.185.018-.411-.167-.503-3.594-1.797-5.657-3.943-5.484-5.666.704-3.396 2.604-6.48 5.386-8.631.323.386.802.637 1.343.637.869 0 1.587-.634 1.729-1.462 3.279.043 7.355 2.29 10.787 5.956-.179.276-.287.604-.287.957 0 .811.554 1.488 1.302 1.691-.117 1.316-.31 2.646-.568 3.956-1.332.751-2.762 1.498-4.244 2.207-.979.468-1.963.91-2.933 1.322-.409-.698-1.156-1.172-2.023-1.172-1.297 0-2.351 1.056-2.351 2.353 0 .163.017.321.048.475-4.732 1.584-6.815 1.458-7.062.971-.92-1.913-1.436-4.055-1.436-6.316 0-.344.016-.684.04-1.024zm1.944 8.362c.209.03.436.045.679.045 1.76 0 4.303-.733 6.114-1.34.407.7 1.158 1.178 2.025 1.178.892 0 1.66-.506 2.059-1.239l.426.097c1.634.357 3.244.589 4.794.72-1.231 3.127-2.771 5.634-4.34 6.792-.804.594-1.591.817-2.342.67-4.012-.908-7.401-3.466-9.415-6.923zm11.593 7.244c.203-.111.405-.239.608-.389 1.81-1.335 3.417-4.091 4.656-7.329.611.037 1.21.057 1.794.057 1.254 0 2.439-.086 3.521-.26.546-.088 1.053-.198 1.525-.326.065 2.125-.512 3.893-1.792 4.971-2.524 2.072-5.751 3.318-9.265 3.318-.351 0-.7-.017-1.047-.042z" fill="#0568ae"/></svg>