<svg xmlns="http://www.w3.org/2000/svg" viewBox="0 0 36 36"><path fill="none" d="M0 0h36v36H0z"/><path fill="none" d="M0 0h36v36H0z"/><g fill="#0568ae"><path d="M10.6 22.4c-3.1-1.5-6-3.7-7.5-6.2 0 .6-.1 1.2-.1 1.8 0 .7.1 1.5.2 2.2v.1c.5 1.9 2.8 2.6 7.4 2.1zM18.1 33c3.4 0 6.5-1.2 9-3.1l-4.6-4.6c-1.2 3.3-2.7 6.1-4.4 7.7zM20.5 24.6c-1.5 0-2.9-.1-4-.2-.2 0-.5-.1-.7-.1-.4.7-1.2 1.1-2.1 1.1-1 0-1.9-.6-2.3-1.5-1.2.1-2.3.1-3.3.1-1.7 0-3.1-.2-4.1-.7 1.9 5 6.3 8.7 11.7 9.5.3-.1.6-.3.9-.5 1.7-1.2 3.3-4.1 4.6-7.8-.2.1-.5.1-.7.1zM20.2 23.1l-1-1c-.9.3-1.8.5-2.7.7h.1c1 .2 2.2.3 3.6.3zM3.7 13.6c.1.5.3 1.1.6 1.7 1.3 2.4 4.4 4.6 7.5 6.1.5-.6 1.1-.9 1.9-.9.9 0 1.6.4 2.1 1.1.8-.2 1.5-.4 2.3-.6L6.1 9c-1.1 1.3-1.9 2.9-2.4 4.6zM30.8 25.8c.8-1.3 1.4-2.8 1.8-4.3-.6.5-1.3.9-2.1 1.3.2 1 .3 2.1.3 3zM28.4 17.2c.7 1.4 1.3 2.8 1.7 4.1.6-.3 1.2-.7 1.6-1.1.7-.6 1.1-1.3 1.3-2.1v-.2c0-2-.4-3.9-1.1-5.6-.1.2-.1.5-.2.7-.7 1.6-1.9 3-3.3 4.2zM24.5 18.1c.7-.4 1.3-.8 1.9-1.3-.4-.7-.9-1.4-1.4-2.1-.1 1.1-.3 2.2-.5 3.4zM25.2 10.8c.6.3 1.1.9 1.1 1.7 0 .4-.1.7-.3 1 .1 0 .1.1.2.2.5.7 1 1.5 1.5 2.2 1.2-1 2.2-2.2 2.7-3.4.5-1.1.5-2.1 0-3.1-1.5-2.2-3.7-4-6.2-5.1.7 1.5 1.1 3.6 1.2 6.2-.1.1-.1.2-.2.3zM23.8 10.7v-.2c0-2.2-.4-5.7-2.1-7.1-1.2-.2-2.4-.4-3.7-.4-2 0-3.9.4-5.7 1.1 3.9.7 8.5 3.7 11.4 6.6 0 .1.1.1.1 0z"/><path d="M34 31.9L29.2 27c.2-1.1.2-2.3-.1-3.7-.9.3-1.9.5-2.9.7l-1.3-1.3c1.3-.2 2.6-.5 3.8-.9-.4-1.2-.9-2.5-1.5-3.8-1 .7-2.1 1.4-3.1 1.9-.1.5-.2 1-.4 1.5l-2-2c.4-.2.7-.3 1.1-.5.3-1.6.6-3.2.8-4.8-.6-.3-1.1-.9-1.1-1.7 0-.2 0-.5.1-.7C19.4 8.5 13.5 5 9.9 5.5l-.8.4-.5.5-4.2-4.2c-.4-.4-1-.4-1.4 0-.4.4-.4 1 0 1.4l29.6 29.7c.2.2.5.3.7.3s.5-.1.7-.3c.4-.4.4-1 0-1.4z"/></g></svg>