<?xml version="1.0" encoding="utf-8"?>
<!-- Generator: Adobe Illustrator 18.1.0, SVG Export Plug-In . SVG Version: 6.00 Build 0)  -->
<svg version="1.1" id="Layer_1" xmlns="http://www.w3.org/2000/svg" xmlns:xlink="http://www.w3.org/1999/xlink" x="0px" y="0px"
	 viewBox="0 0 36 36" enable-background="new 0 0 36 36" xml:space="preserve">

	<path fill="#0568ae" d="M21.2,24.6c-1.3,3.6-3,6.6-4.6,7.8c-0.3,0.2-0.6,0.4-0.9,0.5C10.3,32,5.9,28.3,4,23.3C5,23.8,6.4,24,8.1,24
		c1,0,2.1-0.1,3.3-0.2c0.4,0.9,1.3,1.5,2.3,1.5c0.9,0,1.6-0.4,2.1-1.1c0.2,0,0.5,0.1,0.7,0.1c1.1,0.2,2.5,0.2,4,0.2
		C20.7,24.6,21,24.6,21.2,24.6z M3.2,20.3c0,0,0-0.1,0-0.1C3.1,19.5,3,18.7,3,18c0-0.6,0-1.2,0.1-1.8c1.5,2.4,4.4,4.7,7.5,6.2
		C5.9,22.9,3.7,22.2,3.2,20.3z M21.1,28.6c0.3,1.3,1,2.6,1.9,3.5c-1.5,0.5-3.2,0.8-4.9,0.9C19.2,32,20.2,30.4,21.1,28.6z M16.6,22.8
		c1-0.2,2-0.5,3-0.8c0.7-0.2,1.7-0.6,2.8-1.1c-0.2,0.7-0.4,1.4-0.6,2.1C19.7,23.1,17.9,23,16.6,22.8C16.6,22.8,16.6,22.8,16.6,22.8z
		 M25,14.7c0.5,0.7,1,1.4,1.4,2.1c-0.6,0.5-1.3,0.9-1.9,1.3C24.7,16.9,24.9,15.8,25,14.7z M31.7,20.3c-0.7-0.3-1.4-0.6-2.2-0.7
		c-0.3-0.8-0.7-1.6-1.1-2.4c1.4-1.2,2.6-2.6,3.3-4.1c0.1-0.2,0.2-0.5,0.2-0.7C32.6,14.1,33,16,33,18c0,0.1,0,0.1,0,0.2
		C32.8,19,32.4,19.6,31.7,20.3C31.7,20.3,31.7,20.3,31.7,20.3z M25.3,10.5c0-2.6-0.4-4.7-1.2-6.2c2.5,1.1,4.6,2.9,6.2,5.1
		c0.5,1,0.5,2,0,3.1c-0.5,1.2-1.5,2.3-2.7,3.4c-0.4-0.7-0.9-1.5-1.5-2.2c-0.1-0.1-0.1-0.1-0.2-0.2c0.2-0.3,0.3-0.6,0.3-1
		c0-0.7-0.4-1.4-1.1-1.7C25.2,10.7,25.3,10.6,25.3,10.5z M4.3,15.2c-0.3-0.6-0.5-1.1-0.6-1.7c1-3.1,2.9-5.8,5.4-7.6l0.7-0.4
		c3.7-0.5,9.5,3,12.8,6.4c-0.1,0.2-0.1,0.4-0.1,0.7c0,0.7,0.4,1.4,1.1,1.7c-0.2,1.6-0.4,3.2-0.8,4.8c-1.4,0.7-2.7,1.2-3.7,1.5
		c-1.1,0.3-2.3,0.6-3.4,0.9c-0.4-0.7-1.2-1.1-2.1-1.1c-0.8,0-1.5,0.4-1.9,0.9C8.6,19.9,5.6,17.6,4.3,15.2z M23.7,10.8
		c-2.9-2.9-7.4-5.9-11.4-6.6C14.1,3.4,16,3,18,3c1.3,0,2.5,0.2,3.6,0.4c1.8,1.4,2.1,4.9,2.1,7.1c0,0.1,0,0.1,0,0.2
		C23.8,10.7,23.7,10.8,23.7,10.8z M27.9,19.5c-1.5,0.1-2.9,0.7-4,1.6c0.1-0.3,0.2-0.7,0.3-1c1-0.6,2.1-1.2,3.1-1.9
		C27.4,18.6,27.7,19.1,27.9,19.5z M28.5,21c-3.3,0-6,2.7-6,6c0,3.3,2.7,6,6,6c3.3,0,6-2.7,6-6C34.5,23.7,31.8,21,28.5,21z
		 M29.3,23.1l-0.2,5.1h-1.3l-0.2-5.1H29.3z M29.1,30.6c-0.2,0.2-0.4,0.3-0.7,0.3c-0.3,0-0.5-0.1-0.7-0.3c-0.2-0.2-0.3-0.4-0.3-0.7
		s0.1-0.5,0.3-0.7c0.2-0.2,0.4-0.3,0.7-0.3c0.3,0,0.5,0.1,0.7,0.3c0.2,0.2,0.3,0.4,0.3,0.7C29.4,30.2,29.3,30.4,29.1,30.6z"/>
</svg>
