<svg xmlns="http://www.w3.org/2000/svg" viewBox="0 0 36 36"><path fill="none" d="M0 0h36v36H0z"/><path fill="none" d="M0 0h36v36H0z"/><path fill="#0568ae" d="M3.7 11.9l1.7.6c.2-.5.5-1 .7-1.5 2.5-4.5 7.3-7.2 12.4-7.2 7.9 0 14.3 6.4 14.3 14.3s-6.4 14.3-14.3 14.3c-4.9 0-9.4-2.5-12.1-6.7-.4-.6-.8-1.4-.8-1.4-.1-.2 0-.4.2-.5l2.1-.9c.2-.1.4 0 .5.2 0 0 .3.6.6 1 2.1 3.3 5.6 5.3 9.5 5.3 6.2 0 11.3-5.1 11.3-11.3s-5-11.3-11.3-11.3c-4 0-7.8 2.2-9.8 5.7-.2.3-.3.7-.5 1l1.6.5c.3.1.4.4.1.6l-.9.6-3.6 2.6c-.2.2-.5.1-.5-.2v-.2l-.6-1.9-.7-2.2-.3-1c-.1-.3.1-.5.4-.4zM15.1 23l4.3-4.1c.2-.2.4-.6.4-.9v-6.9c0-.7-.6-1.3-1.3-1.3-.7 0-1.3.6-1.3 1.3v6.4l-3.9 3.7c-.5.5-.5 1.3 0 1.8.2.3.6.4.9.4.3 0 .7-.1.9-.4z"/></svg>