<svg xmlns="http://www.w3.org/2000/svg" viewBox="0 0 36 36" enable-background="new 0 0 36 36"><path fill="none" d="M0 0h36v36h-36z"/><path d="M30.269 3.013h-24.534c-.604 0-1.095.491-1.095 1.095v3.905c0 .604.491 1.095 1.095 1.095h24.534c.604 0 1.095-.491 1.095-1.095v-3.906c0-.603-.491-1.094-1.095-1.094zm-21.318 3.498c0 .198-.162.36-.36.36h-.899c-.198 0-.36-.162-.36-.36v-.9c0-.198.162-.36.36-.36h.899c.198 0 .36.162.36.36v.9zm19.194.299h-7.451c-.414 0-.75-.336-.75-.75s.336-.75.75-.75h7.451c.414 0 .75.336.75.75s-.336.75-.75.75zm2.124 4.124h-24.534c-.604 0-1.095.491-1.095 1.095v3.905c0 .604.491 1.095 1.095 1.095h24.534c.604 0 1.095-.491 1.095-1.095v-3.905c0-.604-.491-1.095-1.095-1.095zm-21.318 3.498c0 .198-.162.36-.36.36h-.899c-.198 0-.36-.162-.36-.36v-.9c0-.198.162-.36.36-.36h.899c.198 0 .36.162.36.36v.9zm19.194.299h-7.451c-.414 0-.75-.336-.75-.75s.336-.75.75-.75h7.451c.414 0 .75.336.75.75s-.336.75-.75.75zm2.768 14.335h-11.143c-.184-.324-.45-.591-.775-.774v-3.343h11.274c.604 0 1.095-.491 1.095-1.095v-3.905c0-.604-.491-1.095-1.095-1.095h-24.534c-.604 0-1.095.491-1.095 1.095v3.905c0 .604.491 1.095 1.095 1.095h11.26v3.345c-.323.183-.588.449-.771.772h-11.137c-.552 0-1 .448-1 1s.448 1 1 1h11.137c.352.621 1.01 1.045 1.773 1.045.763 0 1.421-.425 1.773-1.045h11.143c.552 0 1-.448 1-1s-.447-1-1-1zm-10.219-7.915h7.451c.414 0 .75.336.75.75s-.336.75-.75.75h-7.451c-.414 0-.75-.336-.75-.75s.335-.75.75-.75zm-11.743 1.201c0 .198-.162.36-.36.36h-.899c-.198 0-.36-.162-.36-.36v-.9c0-.198.162-.36.36-.36h.899c.198 0 .36.162.36.36v.9z" fill="#0568ae"/></svg>