<svg xmlns="http://www.w3.org/2000/svg" viewBox="0 0 36 36" enable-background="new 0 0 36 36"><path fill="none" d="M0 0h36v36h-36z"/><path d="M6.454 9.143h23.094c1.001 0 1.815-.814 1.815-1.815v-2.464c0-1.001-.815-1.815-1.815-1.815h-23.094c-1.002 0-1.815.814-1.815 1.815v2.465c0 1 .814 1.814 1.815 1.814zm-1.065-4.279c0-.587.478-1.065 1.065-1.065h23.094c.587 0 1.065.478 1.065 1.065v2.465c0 .587-.478 1.065-1.065 1.065h-23.094c-.587 0-1.065-.478-1.065-1.065v-2.465zm14.929 1.232c0-.207.168-.375.375-.375h7.951c.206 0 .375.168.375.375s-.168.375-.375.375h-7.951c-.207 0-.375-.168-.375-.375zm-12.987.451v-.9c0-.198.162-.36.36-.36h.899c.198 0 .36.162.36.36v.9c0 .198-.162.36-.36.36h-.899c-.198 0-.36-.162-.36-.36zm-.877 10.517h23.094c1.001 0 1.815-.814 1.815-1.815v-2.465c0-1.001-.815-1.815-1.815-1.815h-23.094c-1.002 0-1.815.814-1.815 1.815v2.465c0 1.001.814 1.815 1.815 1.815zm-1.065-4.28c0-.587.478-1.065 1.065-1.065h23.094c.587 0 1.065.478 1.065 1.065v2.465c0 .587-.478 1.065-1.065 1.065h-23.094c-.587 0-1.065-.478-1.065-1.065v-2.465zm14.929 1.233c0-.207.168-.375.375-.375h7.951c.206 0 .375.168.375.375s-.168.375-.375.375h-7.951c-.207 0-.375-.168-.375-.375zm-12.987.451v-.9c0-.198.162-.36.36-.36h.899c.198 0 .36.162.36.36v.9c0 .198-.162.36-.36.36h-.899c-.198 0-.36-.163-.36-.36zm13.363 7.844c-.208 0-.375-.168-.375-.375s.168-.375.375-.375h7.951c.206 0 .375.168.375.375s-.168.375-.375.375h-7.951zm-13.003.436c-.198 0-.36-.162-.36-.36v-.9c0-.198.162-.36.36-.36h.899c.198 0 .36.162.36.36v.9c0 .198-.162.36-.36.36h-.899zm24.098 7.354c0 .207-.168.375-.375.375h-12.192c-.161.527-.645.913-1.224.913-.58 0-1.065-.386-1.226-.913h-12.186c-.207 0-.375-.168-.375-.375s.168-.375.375-.375h12.185c.125-.407.442-.725.85-.85v-3.874l.003-.019h-8.343c-.207 0-.375-.168-.375-.375s.168-.375.375-.375h20.268c.587 0 1.065-.478 1.065-1.065v-2.465c0-.587-.478-1.065-1.065-1.065h-23.095c-.587 0-1.065.478-1.065 1.065v2.465c0 .207-.168.375-.375.375s-.375-.168-.375-.375v-2.465c0-1.001.813-1.815 1.815-1.815h23.094c1.001 0 1.815.814 1.815 1.815v2.465c0 1.001-.815 1.815-1.815 1.815h-11.181l.004.019v3.873c.408.125.727.443.851.851h12.192c.207 0 .375.168.375.375z" fill="#0568ae"/></svg>