<svg xmlns="http://www.w3.org/2000/svg" viewBox="0 0 36 36" enable-background="new 0 0 36 36"><path fill="none" d="M0 0h36v36h-36z"/><path d="M26.14 30.04c-1.694 1.151-3.592 1.915-5.584 2.276.669-.477 1.324-1.103 1.908-1.86.127-.164.096-.399-.068-.526-.166-.127-.4-.096-.526.068-1.052 1.365-2.37 2.311-3.467 2.516v-9.041l.547.022.027.001c.195 0 .36-.151.373-.349.015-.207-.141-.386-.347-.4l-.601-.031v-9.643c2.081-.067 4.08-.539 5.952-1.405.303 1.282.517 2.631.625 4.026.016.196.18.346.374.346l.03-.001c.206-.016.361-.197.345-.403-.117-1.495-.349-2.942-.683-4.313 1.464-.765 2.78-1.752 3.927-2.936 2.232 2.569 3.588 5.919 3.588 9.577l-.002.056c-.006.952-.103 1.903-.29 2.824-.041.203.09.401.293.442l.075.007c.175 0 .331-.123.367-.301.196-.969.298-1.968.305-2.984l.002-.06c0-3.996-1.545-7.646-4.066-10.384v-.001l-.001-.001c-2.713-2.946-6.558-4.833-10.834-4.961v-.002l-.109-.002-.269-.008h-.002l-.054-.004v.001l-.026-.001-.198.005h-.097v.002c-4.21.082-8.235 1.912-11.083 5.058-2.569 2.838-3.984 6.495-3.984 10.297l.003.448h.01c.107 3.616 1.489 7.083 3.922 9.796l.003.001.273.308.007-.008c2.835 2.994 6.75 4.732 10.849 4.812v.009000000000000001l.136-.003h.068l.09.002.456-.007v-.012c2.925-.087 5.738-.988 8.158-2.633.171-.116.216-.35.099-.521-.115-.17-.349-.216-.521-.099zm-15.277-13.213l.027-.712c.021-.338.057-.67.089-1.004l.063-.65c.046-.369.109-.731.166-1.094l.082-.521c.071-.382.159-.756.247-1.13 1.933.875 3.99 1.335 6.118 1.367v4.563h-6.816l.024-.819zm7.541-13.449c2.407.32 4.578 3.151 5.767 7.548-1.812.859-3.749 1.327-5.767 1.396v-8.944zm-.75 8.955c-2.071-.033-4.066-.49-5.94-1.359 1.201-4.47 3.491-7.398 5.94-7.617v8.976zm0 20.207c-2.468-.22-4.767-3.184-5.962-7.708 1.878-.877 3.881-1.338 5.962-1.371v9.079zm0-9.834c-2.14.032-4.203.494-6.141 1.376l-.133-.621-.132-.664c-.052-.299-.094-.602-.136-.906l-.091-.651c-.037-.337-.064-.679-.091-1.019l-.048-.575c-.024-.412-.032-.83-.039-1.249h6.811v4.309zm10.814-14.874c-1.057 1.099-2.27 2.017-3.614 2.74-.901-3.237-2.344-5.669-4.055-6.953 2.98.594 5.636 2.101 7.669 4.213zm-21.342.323c2.118-2.34 4.92-3.917 7.954-4.532-1.711 1.293-3.151 3.739-4.05 7.004-.583-.309-1.153-.648-1.689-1.031-.169-.12-.403-.081-.524.088-.12.168-.082.403.087.523.613.438 1.267.825 1.937 1.171-.105.438-.206.879-.289 1.327l-.091.583c-.059.358-.119.714-.164 1.078l-.066.69c-.033.336-.069.671-.09 1.011l-.028.74-.032.839h-6.741c.072-3.507 1.411-6.866 3.786-9.491zm2.956 10.241h.011c.006.443.016.885.042 1.321l.046.542c.029.374.057.749.1 1.117l.094.652c.047.324.089.649.146.967l.138.673.154.753c-1.491.769-2.833 1.764-3.999 2.963-2.141-2.528-3.36-5.692-3.463-8.989h6.731zm-2.753 9.552c1.075-1.113 2.309-2.039 3.677-2.765.897 3.31 2.346 5.787 4.072 7.091-2.941-.597-5.655-2.104-7.749-4.326zm25.787-3.185l-3.455-2.935 1.109-1.278c.26-.304.344-.714.218-1.112-.137-.382-.438-.653-.853-.748l-9.146-1.425c-.609-.14-1.229.245-1.376.859-.049.237-.025.484.054.653l2.788 8.872c.054.133.136.255.253.374.176.178.393.291.621.326.395.066.794-.084 1.047-.383l1.106-1.28 3.456 2.938c.207.178.469.276.739.276l.09-.004.291-.053.056-.02c.178-.079.327-.188.436-.32l2.698-3.128c.2-.238.294-.534.267-.823-.021-.309-.163-.59-.399-.789zm-.438 1.126l-2.699 3.13-.142.107-.13.023-.028.001c-.088 0-.179-.035-.251-.097l-4.025-3.421-1.594 1.846c-.087.103-.199.156-.359.13-.074-.011-.144-.049-.205-.111l-.083-.102-2.792-8.884c-.03-.067-.037-.151-.022-.224.042-.179.201-.303.384-.303l.119.016 9.146 1.425c.177.04.253.166.284.251.043.135.014.279-.075.383l-1.605 1.849 4.034 3.427c.083.07.128.16.136.278.007.101-.025.194-.093.276z" fill="#0568ae"/></svg>