<svg xmlns="http://www.w3.org/2000/svg" viewBox="0 0 36 36" enable-background="new 0 0 36 36"><path fill="none" d="M0 0h36v36h-36zM0 0h36v36h-36z"/><path d="M12.896 20.286c0-.198.161-.36.36-.36h.899c.198 0 .36.162.36.36v.9c0 .198-.162.36-.36.36h-.899c-.199 0-.36-.162-.36-.36v-.9zm-3.153.9c0 .198.163.36.361.36h.9c.197 0 .36-.162.36-.36v-.9c0-.198-.163-.36-.36-.36h-.9c-.198 0-.361.162-.361.36v.9zm-3.15 0c0 .198.162.36.36.36h.9c.198 0 .36-.162.36-.36v-.9c0-.198-.162-.36-.36-.36h-.9c-.198 0-.36.162-.36.36v.9zm26.782 5.814c0 3.521-2.854 6.375-6.375 6.375-3.52 0-6.375-2.854-6.375-6.375 0-.763.141-1.492.387-2.17h-12.071c-.207 0-.375-.168-.375-.375s.168-.375.375-.375h12.397c1.06-2.05 3.196-3.454 5.662-3.455 2.018 0 3.814.941 4.982 2.404v-4.932c0-.194-.078-.368-.207-.498-.129-.129-.304-.207-.497-.207h-26.555c-.194 0-.369.079-.499.208-.129.13-.208.304-.208.497v5.15c0 .207-.168.375-.375.375s-.375-.168-.375-.375v-5.15c.002-.803.654-1.454 1.457-1.455h5.326v-9.295c0-.207.168-.375.375-.375s.375.168.375.375v9.295h20.479c.803.001 1.453.653 1.454 1.455v5.277c0 .209-.047.407-.127.587.491.904.77 1.939.77 3.039zm-.75 0c0-1.555-.629-2.958-1.648-3.978-1.019-1.018-2.423-1.647-3.977-1.647-1.554 0-2.958.629-3.977 1.647-1.019 1.019-1.648 2.423-1.648 3.978 0 1.554.629 2.958 1.648 3.977 1.019 1.019 2.423 1.647 3.977 1.648 1.554 0 2.958-.629 3.977-1.648 1.019-1.019 1.648-2.423 1.648-3.977zm-1.913-1.829c-.045-.12-.147-.208-.272-.236-.125-.027-.255.011-.345.101l-1.572 1.572c-.16.159-.365.237-.572.237-.206 0-.408-.077-.564-.234-.156-.156-.233-.357-.233-.563 0-.207.078-.413.237-.573l1.573-1.573c.09-.09.128-.22.101-.345-.027-.125-.116-.227-.236-.272-.361-.134-.741-.201-1.121-.201-.826 0-1.656.317-2.287.948-.63.629-.948 1.458-.948 2.282 0 .364.065.726.188 1.073l-1.53 1.531c-.146.146-.146.384 0 .53.147.146.384.146.53 0l1.702-1.703c.111-.111.141-.277.077-.419-.145-.32-.217-.665-.217-1.011.001-.634.242-1.266.728-1.752.487-.486 1.121-.728 1.757-.729l.241.021-1.089 1.089c-.303.304-.457.705-.457 1.102 0 .395.151.793.453 1.094.301.302.7.454 1.095.453.397 0 .798-.153 1.102-.456l1.088-1.089.021.242c0 .635-.242 1.268-.728 1.755-.486.485-1.119.727-1.753.727-.346 0-.691-.072-1.012-.216-.142-.064-.309-.034-.419.077l-1.701 1.703c-.146.147-.146.384 0 .53.147.146.384.146.53 0l1.528-1.53c.347.122.709.187 1.073.187.825 0 1.653-.317 2.284-.947.631-.631.948-1.461.947-2.285.002-.378-.065-.758-.199-1.12zm-3.856 1.972zm-1.435-3.109z" fill="#0568ae"/></svg>