<svg xmlns="http://www.w3.org/2000/svg" viewBox="0 0 36 36" enable-background="new 0 0 36 36"><path fill="none" d="M0 0h36v36h-36zM0 0h36v36h-36z"/><path d="M27 21c3.313 0 6 2.687 6 6 0 3.314-2.687 6-6 6-1.198 0-2.311-.355-3.247-.96l-.131-.094 2.092-2.093c.403.181.837.272 1.271.272.796 0 1.593-.304 2.201-.913.798-.799 1.066-1.919.826-2.938-.021-.087-.093-.16-.189-.16-.061 0-.131.029-.203.101l-1.715 1.714c-.253.253-.583.379-.913.379-.328 0-.655-.125-.904-.374-.501-.5-.499-1.314.004-1.818l1.75-1.75c.179-.179.027-.327-.088-.355-.243-.06-.492-.09-.741-.09-.796 0-1.594.305-2.204.914-.94.939-1.155 2.33-.642 3.471l-2.097 2.097-.096-.131c-.614-.941-.974-2.064-.974-3.272 0-3.313 2.687-6 6-6m0-1.5c2.298 0 4.356 1.041 5.732 2.674v-4.937c0-.604-.491-1.095-1.095-1.095h-20.213v-9.295c0-.552-.448-1-1-1s-1 .448-1 1v9.295h-5.062c-.604 0-1.095.491-1.095 1.095v5.997c0 .604.491 1.095 1.095 1.095h15.638c1.079-2.818 3.806-4.829 7-4.829zm-18.787 1.186c0 .198-.162.36-.36.36h-.9c-.198 0-.36-.162-.36-.36v-.9c0-.198.162-.36.36-.36h.9c.198 0 .36.162.36.36v.9zm3.151 0c0 .198-.163.36-.36.36h-.9c-.198 0-.361-.162-.361-.36v-.9c0-.198.163-.36.361-.36h.9c.197 0 .36.162.36.36v.9zm2.791.36h-.899c-.199 0-.36-.162-.36-.36v-.9c0-.198.161-.36.36-.36h.899c.198 0 .36.162.36.36v.9c.001.198-.161.36-.36.36z" fill="#0568ae"/></svg>