<svg xmlns="http://www.w3.org/2000/svg" viewBox="0 0 36 36" enable-background="new 0 0 36 36"><path fill="none" d="M0 0h36v36h-36z"/><path d="M31.748 18.234c.258.06.451.239.541.489.078.248.026.519-.146.719l-1.316 1.516 3.65 3.065c.158.133.246.313.26.514.019.198-.045.387-.174.54l-2.615 3.033c-.082.098-.183.166-.294.215l-.218.041c-.191.016-.387-.049-.537-.178l-3.648-3.064-1.309 1.515c-.171.202-.43.293-.682.251-.159-.025-.295-.104-.404-.213-.069-.07-.129-.15-.167-.244l-2.695-8.581c-.061-.135-.076-.294-.043-.45.095-.396.491-.647.897-.554l8.9 1.386zm-2.752 10.315l-.057.062-.066.079-.04.033c-2.766 2.794-6.6 4.528-10.833 4.528-4.233 0-8.067-1.735-10.833-4.529l-.04-.032-.066-.079c-2.665-2.748-4.311-6.49-4.311-10.611s1.646-7.863 4.311-10.61l.066-.079.04-.032c2.766-2.794 6.6-4.529 10.833-4.529s8.067 1.735 10.833 4.529l.04.032.066.079c2.546 2.624 4.157 6.156 4.297 10.058-.302-.332-.699-.571-1.15-.675l-.053-.012-.054-.009-.814-.127c-.282-2.715-1.376-5.192-3.05-7.17-.854.76-1.778 1.417-2.76 1.959.34 1.364.569 2.848.684 4.412l-2.028-.316c-.102-1.153-.27-2.238-.498-3.237-1.431.554-2.948.891-4.513.991v3.736h1.507l-.017.051-.005.021-.004.021c-.089.425-.054.87.098 1.266l.202.641h-1.781v3.736c1.068.069 2.112.255 3.123.538l.738 2.35c-1.224-.483-2.521-.784-3.861-.883v6.308c1.495-.586 2.945-2.449 3.919-5.241l.337 1.072.018.059.023.057c.108.265.271.51.485.729.117.117.244.214.376.302-.395.857-.835 1.636-1.324 2.306 1.429-.562 2.737-1.365 3.875-2.36l-.012-.01c.14-.103.272-.22.387-.356l.332-.385 1.58 1.327zm-6.161-22.882c.756 1.036 1.41 2.313 1.93 3.778.685-.409 1.335-.883 1.945-1.417-1.138-.995-2.446-1.798-3.875-2.361zm-3.835 5.592c1.379-.102 2.715-.414 3.971-.922-.974-2.874-2.45-4.789-3.971-5.386v6.308zm-9.71-3.231c.61.535 1.26 1.009 1.944 1.417.521-1.465 1.174-2.742 1.93-3.778-1.428.563-2.736 1.366-3.874 2.361zm-4.498 8.972h5.102c.066-2 .327-3.884.751-5.586-.981-.543-1.905-1.199-2.76-1.959-1.751 2.07-2.878 4.682-3.093 7.545zm3.093 9.545c.854-.76 1.779-1.417 2.76-1.959-.424-1.702-.686-3.586-.751-5.586h-5.102c.215 2.864 1.342 5.476 3.093 7.545zm5.28 3.788c-.756-1.036-1.41-2.313-1.93-3.778-.685.409-1.335.883-1.945 1.417 1.138.995 2.446 1.798 3.875 2.361zm3.835-5.592c-1.379.102-2.715.414-3.971.923.974 2.873 2.45 4.789 3.971 5.385v-6.308zm0-5.741h-5.106c.059 1.722.269 3.308.593 4.727 1.431-.554 2.948-.891 4.513-.991v-3.736zm0-5.736c-1.565-.101-3.082-.437-4.513-.991-.324 1.42-.534 3.005-.593 4.727h5.106v-3.736zm0-8.313c-1.521.597-2.997 2.512-3.971 5.385 1.256.508 2.592.82 3.971.922v-6.307z" fill="#0568ae"/></svg>