<svg xmlns="http://www.w3.org/2000/svg" viewBox="0 0 36 36" enable-background="new 0 0 36 36"><path fill="none" d="M0 0h36v36h-36z"/><path d="M31.638 14.625h-27.276c-.604 0-1.095.491-1.095 1.095v5.998c0 .604.491 1.095 1.095 1.095h27.276c.604 0 1.095-.491 1.095-1.095v-5.998c0-.604-.491-1.095-1.095-1.095zm-23.308 4.561c0 .198-.162.36-.361.36h-.9c-.197 0-.358-.162-.358-.36v-.9c0-.198.162-.36.358-.36h.9c.199 0 .361.162.361.36v.9zm4.191 0c0 .198-.162.36-.361.36h-.9c-.196 0-.358-.162-.358-.36v-.9c0-.198.162-.36.358-.36h.9c.199 0 .361.162.361.36v.9zm4.19 0c0 .198-.162.36-.36.36h-.898c-.199 0-.36-.162-.36-.36v-.9c0-.198.161-.36.36-.36h.898c.198 0 .36.162.36.36v.9zm4.19 0c0 .198-.162.36-.36.36h-.899c-.198 0-.361-.162-.361-.36v-.9c0-.198.163-.36.361-.36h.899c.198 0 .36.162.36.36v.9zm4.19 0c0 .198-.164.36-.36.36h-.899c-.198 0-.36-.162-.36-.36v-.9c0-.198.162-.36.36-.36h.899c.197 0 .36.162.36.36v.9zm4.19 0c0 .198-.164.36-.36.36h-.899c-.199 0-.362-.162-.362-.36v-.9c0-.198.163-.36.362-.36h.899c.197 0 .36.162.36.36v.9z" fill="#0568ae"/></svg>