<svg xmlns="http://www.w3.org/2000/svg" viewBox="0 0 36 36" enable-background="new 0 0 36 36"><path fill="none" d="M0 0h36v36h-36z"/><path d="M32.733 16.103v5.277c0 .802-.652 1.455-1.455 1.455h-22.337c-.207 0-.375-.168-.375-.375s.168-.375.375-.375h22.337c.389 0 .705-.316.705-.705v-5.277c0-.389-.315-.706-.705-.706h-26.555c-.389 0-.706.316-.706.706v5.15c0 .207-.168.375-.375.375s-.375-.168-.375-.375v-5.15c0-.802.653-1.456 1.456-1.456h26.555c.802.001 1.455.654 1.455 1.456zm-16.383 3.448c.198 0 .36-.162.36-.36v-.9c0-.198-.162-.36-.36-.36h-.898c-.199 0-.36.162-.36.36v.9c0 .198.161.36.36.36h.898zm-4.19 0c.199 0 .361-.162.361-.36v-.9c0-.198-.162-.36-.361-.36h-.9c-.196 0-.359.162-.359.36v.9c0 .198.162.36.359.36h.9zm-4.191-1.62h-.9c-.197 0-.358.162-.358.36v.9c0 .198.162.36.358.36h.9c.199 0 .361-.162.361-.36v-.9c0-.198-.162-.36-.361-.36zm16.761 1.62c.197 0 .36-.162.36-.36v-.9c0-.198-.164-.36-.36-.36h-.899c-.198 0-.36.162-.36.36v.9c0 .198.162.36.36.36h.899zm-4.19 0c.198 0 .36-.162.36-.36v-.9c0-.198-.162-.36-.36-.36h-.899c-.198 0-.361.162-.361.36v.9c0 .198.163.36.361.36h.899zm8.381 0c.197 0 .36-.162.36-.36v-.9c0-.198-.163-.36-.36-.36h-.899c-.199 0-.362.162-.362.36v.9c0 .198.163.36.362.36h.899z" fill="#0568ae"/></svg>