<svg xmlns="http://www.w3.org/2000/svg" viewBox="0 0 36 36" enable-background="new 0 0 36 36"><path fill="none" d="M0 0h36v36h-36z"/><path d="M29.224 27.64v-1.014c0-1.105-.931-2.004-2.074-2.004-1.144 0-2.075.899-2.075 2.004v1.013c-.398.04-.712.38-.712.793v2.5c.004.431.363.781.801.781h3.994c.43-.004.78-.363.78-.801l-.001-2.502c-.006-.4-.319-.726-.713-.77zm-3.399-1.014c0-.691.594-1.254 1.325-1.254.73 0 1.324.563 1.324 1.254v1.005h-2.649v-1.005zm3.329 4.337h-3.99l-.051-.034v-2.497l.033-.051h3.989l.051.034.001 2.497-.033.051zm-.687-1.291c0 .207-.168.375-.375.375h-1.884c-.207 0-.375-.168-.375-.375s.168-.375.375-.375h1.884c.207 0 .375.168.375.375zm3.025-5.711l.004.003v-11.402c0-.876-.437-1.692-1.166-2.181l-11.739-8.101c-.903-.648-2.172-.653-3.077-.004l-11.742 8.102c-.733.493-1.17 1.309-1.17 2.184v13.842c0 1.199.976 2.175 2.175 2.175h15.875l-.004-.079c0 3.515 2.86 6.375 6.375 6.375s6.375-2.86 6.375-6.375c0-1.775-.731-3.382-1.906-4.539zm-28.14-11.399c0-.625.313-1.208.842-1.564l11.751-8.109c.327-.234.708-.358 1.108-.358.393 0 .774.124 1.106.362l11.75 8.108c.524.352.837.936.837 1.561v2.09l-4.348 2.972v-5.328c0-.646-.525-1.171-1.171-1.171h-16.408c-.646 0-1.171.525-1.171 1.171v2.884c0 .207.168.375.375.375s.375-.168.375-.375v-2.884c0-.232.189-.421.421-.421h16.408c.232 0 .421.189.421.421v5.84l-7.489 5.12c-.669.479-1.594.491-2.281-.003l-12.527-8.71v-1.981zm1.425 15.267c-.786 0-1.425-.639-1.425-1.425v-10.948l12.094 8.41c.465.333 1.008.51 1.578.51.563 0 1.106-.176 1.565-.505l12.157-8.31v7.776h.001c-1.049-.758-2.333-1.211-3.723-1.211-3.288 0-6.002 2.503-6.339 5.704h-15.908zm22.246 6.296c-3.101 0-5.625-2.523-5.625-5.625s2.524-5.625 5.625-5.625c3.102 0 5.625 2.523 5.625 5.625 0 3.101-2.523 5.625-5.625 5.625z" fill="#0568ae"/></svg>