<svg xmlns="http://www.w3.org/2000/svg" viewBox="0 0 36 36" enable-background="new 0 0 36 36"><path fill="none" d="M0 0h36v36h-36z"/><path d="M27 22.5c-3.313 0-6 2.687-6 6 0 3.314 2.687 6 6 6s6-2.686 6-6c0-3.313-2.687-6-6-6zm2.276 9.14h-4.532c-.266 0-.482-.207-.483-.465v-2.836c0-.266.207-.481.463-.484h.067v-1.157c0-1.181.991-2.141 2.208-2.141 1.218 0 2.208.96 2.208 2.141v1.157h.046c.266 0 .48.207.484.465l.001 2.836c.001.267-.206.482-.462.484zm-21.776-15.807l-5.046-3.509v-.763c0-.78.403-1.468 1.003-1.873l11.746-8.105c.372-.267.826-.429 1.319-.429h.007c.494 0 .948.162 1.319.429l11.745 8.105c.602.404 1.004 1.093 1.004 1.873v.879l-5.097 3.485v-4.63c0-.438-.358-.796-.796-.796h-16.408c-.438 0-.796.358-.796.796v4.538zm12.12 11.371h-15.366c-.99 0-1.8-.81-1.8-1.8v-11.253l12.25 8.518c.528.38 1.148.581 1.797.581.642 0 1.261-.201 1.777-.571l12.32-8.422v7.664c-1.069-.586-2.295-.921-3.598-.921-3.693 0-6.764 2.685-7.38 6.204zm8.401-.506v1.157h-2.042v-1.157c0-.526.458-.954 1.021-.954s1.021.429 1.021.954z" fill="#0568ae"/></svg>