<svg xmlns="http://www.w3.org/2000/svg" viewBox="0 0 36 36" enable-background="new 0 0 36 36"><path fill="none" d="M.058 0h36v36h-36z"/><path d="M9.058 19.654l-5.046-3.509v-.763c0-.78.403-1.468 1.003-1.873l11.746-8.105c.372-.267.826-.429 1.319-.429h.007c.494 0 .948.162 1.319.429l11.745 8.105c.602.404 1.004 1.093 1.004 1.873v.879l-5.098 3.485v-4.63c0-.438-.358-.796-.796-.796h-16.407c-.438 0-.796.358-.796.796v4.538zm10.777 6.845c-.516.37-1.135.571-1.777.571-.649 0-1.269-.201-1.797-.581l-12.25-8.518v11.253c0 .99.81 1.8 1.8 1.8h24.486c.99 0 1.857-.81 1.857-1.8v-11.146l-12.319 8.421z" fill="#0568ae"/></svg>