<?xml version="1.0" encoding="utf-8"?>
<!-- Generator: Adobe Illustrator 18.1.0, SVG Export Plug-In . SVG Version: 6.00 Build 0)  -->
<svg version="1.1" id="Layer_1" xmlns="http://www.w3.org/2000/svg" xmlns:xlink="http://www.w3.org/1999/xlink" x="0px" y="0px"
	 viewBox="0 0 36 36" enable-background="new 0 0 36 36" xml:space="preserve">
<g>
	<rect y="0" fill="none" width="36" height="36"/>
	<path fill="#0568ae" d="M31.5,24C31.5,24,31.5,24,31.5,24l0-11.4c0-0.9-0.4-1.7-1.2-2.2L18.6,2.3c-0.9-0.6-2.2-0.7-3.1,0L3.7,10.4
		c-0.7,0.5-1.2,1.3-1.2,2.2v13.8c0,1.2,1,2.2,2.2,2.2h15.9c0,3.5,2.9,6.3,6.4,6.3c3.5,0,6.4-2.9,6.4-6.4
		C33.4,26.7,32.6,25.1,31.5,24z M3.3,12.6c0-0.6,0.3-1.2,0.8-1.6l11.8-8.1c0.3-0.2,0.7-0.4,1.1-0.4c0.4,0,0.8,0.1,1.1,0.4L29.9,11
		c0.5,0.4,0.8,0.9,0.8,1.6v2.1l-4.3,3v-5.3c0-0.6-0.5-1.2-1.2-1.2H8.8c-0.6,0-1.2,0.5-1.2,1.2v2.9c0,0.2,0.2,0.4,0.4,0.4
		c0.2,0,0.4-0.2,0.4-0.4v-2.9c0-0.2,0.2-0.4,0.4-0.4h16.4c0.2,0,0.4,0.2,0.4,0.4v5.8l-7.5,5.1c-0.7,0.5-1.6,0.5-2.3,0L3.3,14.5V12.6
		z M4.8,27.8c-0.8,0-1.4-0.6-1.4-1.4V15.5l12.1,8.4c0.5,0.3,1,0.5,1.6,0.5c0.6,0,1.1-0.2,1.6-0.5l12.2-8.3v7.8l0,0
		c-1-0.8-2.3-1.2-3.7-1.2c-3.3,0-6,2.5-6.3,5.7H4.8z M27,34.1c-3.1,0-5.6-2.5-5.6-5.6c0-3.1,2.5-5.6,5.6-5.6c3.1,0,5.6,2.5,5.6,5.6
		C32.6,31.6,30.1,34.1,27,34.1z M24.7,30.1c0-0.4,0.1-0.7,0.3-1c0.2-0.3,0.5-0.5,0.9-0.7c-0.7-0.3-1.1-0.8-1.1-1.5
		c0-0.4,0.1-0.7,0.3-1c0.2-0.3,0.4-0.5,0.8-0.6c0.3-0.1,0.7-0.2,1.1-0.2c0.4,0,0.8,0.1,1.1,0.2c0.3,0.2,0.6,0.4,0.7,0.6
		c0.2,0.3,0.3,0.6,0.3,0.9c0,0.3-0.1,0.6-0.3,0.9c-0.2,0.3-0.4,0.5-0.8,0.6c0.4,0.2,0.7,0.4,0.9,0.7c0.2,0.3,0.3,0.6,0.3,1
		c0,0.6-0.2,1-0.6,1.4c-0.4,0.3-1,0.5-1.7,0.5c-0.7,0-1.2-0.2-1.7-0.5C24.9,31.1,24.7,30.6,24.7,30.1z M27,31.3
		c0.5,0,0.9-0.1,1.1-0.4c0.3-0.2,0.4-0.6,0.4-1c0-0.4-0.1-0.7-0.4-0.9c-0.2-0.2-0.6-0.4-1.1-0.5l-0.4-0.1c-0.4,0.1-0.7,0.3-0.9,0.6
		c-0.2,0.2-0.3,0.5-0.3,0.9c0,0.4,0.1,0.7,0.4,1C26.1,31.2,26.5,31.3,27,31.3z M27.4,28.1c0.7-0.3,1-0.7,1-1.2
		c0-0.4-0.1-0.7-0.4-0.9c-0.3-0.2-0.6-0.3-1-0.3c-0.4,0-0.8,0.1-1,0.3c-0.3,0.2-0.4,0.5-0.4,0.9c0,0.3,0.1,0.6,0.3,0.8
		c0.2,0.2,0.5,0.3,1,0.4L27.4,28.1z"/>
</g>
</svg>
