<svg xmlns="http://www.w3.org/2000/svg" viewBox="0 0 36 36" enable-background="new 0 0 36 36"><path fill="none" d="M.026 0h36v36h-36z"/><path d="M31.333 13.201l-11.74-8.101c-.903-.649-2.173-.653-3.077-.004l-11.742 8.102c-.733.493-1.17 1.309-1.17 2.184v13.842c0 1.199.976 2.175 2.175 2.175h24.486c1.21 0 2.232-.996 2.232-2.175v-13.842c.001-.876-.436-1.692-1.164-2.181zm-26.137.617l11.751-8.109c.327-.234.708-.359 1.108-.359.393 0 .774.124 1.106.362l11.75 8.108c.524.352.837.936.837 1.561v2.09l-4.348 2.972v-5.327c0-.646-.525-1.171-1.171-1.171h-16.408c-.646 0-1.171.525-1.171 1.171v2.884c0 .207.168.375.375.375s.375-.168.375-.375v-2.884c0-.232.189-.421.421-.421h16.409c.232 0 .421.189.421.421v5.84l-7.49 5.12c-.668.479-1.593.491-2.28-.003l-12.527-8.71v-1.98c0-.626.314-1.209.842-1.565zm25.07 16.831h-24.486c-.786 0-1.425-.639-1.425-1.425v-10.948l12.093 8.409c.464.334 1.008.511 1.579.511.563 0 1.107-.176 1.565-.505l12.157-8.31v10.845c-.001.771-.68 1.423-1.483 1.423z" fill="#0568ae"/></svg>