<?xml version="1.0" encoding="utf-8"?>
<!-- Generator: Adobe Illustrator 18.1.0, SVG Export Plug-In . SVG Version: 6.00 Build 0)  -->
<svg version="1.1" id="Layer_1" xmlns="http://www.w3.org/2000/svg" xmlns:xlink="http://www.w3.org/1999/xlink" x="0px" y="0px"
	 viewBox="0 0 36 36" enable-background="new 0 0 36 36" xml:space="preserve">
	<path fill="#0568ae" d="M19.6,27.2H4.3c-1,0-1.8-0.8-1.8-1.8c0,0,0-7.2,0-11.3l12.3,8.5c0.5,0.4,1.1,0.6,1.8,0.6
		c0.6,0,1.3-0.2,1.8-0.6l12.3-8.4c0,2.2,0,5.3,0,7.7C29.5,21.3,28.3,21,27,21C23.3,21,20.2,23.7,19.6,27.2z M7.5,11.3
		c0-0.4,0.4-0.8,0.8-0.8h16.4c0.4,0,0.8,0.4,0.8,0.8v4.6l5.1-3.5c0-0.5,0-0.9,0-0.9c0-0.8-0.4-1.5-1-1.9L17.8,1.6
		c-0.4-0.3-0.8-0.4-1.3-0.4h0c-0.5,0-0.9,0.2-1.3,0.4L3.5,9.7c-0.6,0.4-1,1.1-1,1.9c0,0,0,0.3,0,0.8l5,3.5V11.3z M26.9,27.9l0.5,0.1
		c0.3-0.1,0.5-0.3,0.7-0.5c0.2-0.2,0.2-0.4,0.2-0.7c0-0.4-0.1-0.6-0.3-0.8c-0.2-0.2-0.5-0.3-0.9-0.3c-0.4,0-0.7,0.1-1,0.3
		c-0.2,0.2-0.4,0.5-0.4,0.8c0,0.3,0.1,0.5,0.3,0.7C26.2,27.7,26.5,27.8,26.9,27.9z M27.1,28.8l-0.4-0.1c-0.4,0.1-0.7,0.3-0.9,0.5
		c-0.2,0.2-0.3,0.5-0.3,0.8c0,0.4,0.1,0.7,0.4,0.9c0.3,0.2,0.6,0.3,1.1,0.3c0.5,0,0.8-0.1,1.1-0.3c0.3-0.2,0.4-0.5,0.4-0.9
		c0-0.3-0.1-0.6-0.3-0.8C27.9,29,27.6,28.9,27.1,28.8z M27,22.5c-3.3,0-6,2.7-6,6c0,3.3,2.7,6,6,6s6-2.7,6-6
		C33,25.2,30.3,22.5,27,22.5z M28.9,31.7c-0.5,0.4-1.1,0.6-1.9,0.6c-0.8,0-1.4-0.2-1.9-0.6c-0.5-0.4-0.7-0.9-0.7-1.5
		c0-0.4,0.1-0.8,0.3-1.1c0.2-0.3,0.5-0.6,0.9-0.7c-0.3-0.2-0.6-0.4-0.8-0.7c-0.2-0.3-0.3-0.6-0.3-1c0-0.4,0.1-0.8,0.3-1.1
		c0.2-0.3,0.5-0.5,0.9-0.7c0.4-0.2,0.8-0.2,1.3-0.2c0.5,0,0.9,0.1,1.3,0.3c0.4,0.2,0.6,0.4,0.8,0.7c0.2,0.3,0.3,0.6,0.3,1
		c0,0.3-0.1,0.7-0.3,0.9c-0.2,0.3-0.4,0.5-0.8,0.7c0.8,0.4,1.2,1,1.2,1.8C29.6,30.8,29.4,31.3,28.9,31.7z"/>
</svg>
