<svg xmlns="http://www.w3.org/2000/svg" viewBox="0 0 36 36" enable-background="new 0 0 36 36"><path fill="none" d="M0 0h36v36h-36z"/><path d="M23.077 24.632l-.013-.047-.016-.04-3.843-11.619c.73-.449 1.223-1.249 1.223-2.168 0-1.407-1.144-2.551-2.55-2.551s-2.55 1.144-2.55 2.551c0 .918.492 1.718 1.222 2.167l-5.814 18.32c-.063.198.046.408.244.471.199.063.409-.046.471-.244l3.219-10.142 7.476 3.169-6.367 2.162c-.195.066-.301.28-.234.476.066.196.279.301.477.234l6.448-2.19 2.081 6.294c.052.158.199.257.356.257l.118-.019c.197-.065.303-.277.238-.474l-2.186-6.607zm-5.198-15.673c.993 0 1.8.808 1.8 1.801s-.808 1.801-1.8 1.801c-.993 0-1.801-.808-1.801-1.801s.808-1.801 1.801-1.801zm-.634 4.262c.204.053.414.09.634.09.22 0 .43-.037.634-.089l1.558 4.712-4.907 1.841 2.081-6.554zm-2.271 7.426l5.333-2.001 1.64 4.957-6.973-2.956zm8.942-14.884c1.183 1.181 1.834 2.757 1.834 4.436 0 1.678-.651 3.254-1.834 4.438-.073.073-.17.11-.265.11s-.191-.037-.265-.11c-.146-.147-.146-.384 0-.531 1.04-1.042 1.614-2.429 1.614-3.907 0-1.479-.573-2.866-1.615-3.906-.146-.146-.146-.384 0-.53.146-.146.383-.147.531 0zm-11.834 8.869c-1.183-1.182-1.835-2.759-1.835-4.439 0-1.677.651-3.253 1.835-4.437.146-.146.383-.147.53 0 .146.146.146.384 0 .53-1.041 1.043-1.615 2.43-1.615 3.907 0 1.479.573 2.867 1.615 3.908.146.146.146.384 0 .53-.074.073-.169.11-.265.11-.095 0-.192-.036-.265-.109zm-2.551 1.802c.146.146.146.384 0 .53-.073.073-.169.11-.265.11s-.193-.037-.266-.11c-1.807-1.811-2.803-4.215-2.803-6.77 0-2.556.996-4.96 2.804-6.769.145-.146.382-.147.529 0 .146.146.146.384 0 .53-1.666 1.668-2.584 3.883-2.584 6.239.001 2.354.919 4.57 2.585 6.24zm20.272-6.235c0 2.559-.997 4.962-2.806 6.767-.073.073-.169.11-.265.11-.097 0-.192-.037-.266-.11-.146-.147-.146-.384.001-.53 1.667-1.664 2.585-3.879 2.585-6.236 0-2.357-.918-4.572-2.586-6.237-.147-.146-.147-.384 0-.53.146-.147.383-.147.53 0 1.81 1.805 2.807 4.209 2.807 6.766z" fill="#0568ae"/></svg>