<svg xmlns="http://www.w3.org/2000/svg" viewBox="0 0 36 36" enable-background="new 0 0 36 36"><path fill="none" d="M.091 0h36v36h-36zM.091 0h36v36h-36z"/><path d="M21.691 18c0 1.985-1.615 3.6-3.6 3.6s-3.6-1.615-3.6-3.6 1.615-3.6 3.6-3.6 3.6 1.615 3.6 3.6zm-16.35 0c0-3.405 1.326-6.607 3.735-9.016.586-.586.586-1.536 0-2.121s-1.535-.586-2.121 0c-2.976 2.975-4.614 6.93-4.614 11.137 0 4.209 1.64 8.166 4.618 11.142.293.293.676.439 1.06.439s.768-.147 1.061-.44c.586-.586.585-1.536-.001-2.121-2.411-2.409-3.738-5.613-3.738-9.02zm23.887-11.136c-.586-.586-1.536-.586-2.121 0-.586.586-.586 1.535 0 2.121 2.408 2.408 3.734 5.61 3.734 9.015 0 3.397-1.321 6.594-3.721 9.001-.585.587-.583 1.536.004 2.121.293.292.676.438 1.059.438.385 0 .769-.147 1.063-.441 2.964-2.973 4.596-6.922 4.596-11.119-.001-4.207-1.64-8.162-4.614-11.136zm-18.187 11.136c0-1.883.733-3.654 2.065-4.984.586-.586.586-1.535.001-2.121-.586-.586-1.536-.586-2.121-.001-1.9 1.897-2.945 4.421-2.945 7.106 0 2.688 1.048 5.213 2.95 7.112.293.292.676.438 1.06.438s.769-.147 1.062-.44c.585-.586.584-1.536-.002-2.121-1.335-1.332-2.07-3.104-2.07-4.989zm14.061-7.2c-.594-.579-1.544-.566-2.121.028-.578.593-.566 1.543.028 2.121 1.375 1.34 2.132 3.133 2.132 5.051 0 1.875-.729 3.64-2.053 4.972-.584.587-.581 1.537.006 2.121.293.291.675.436 1.058.436.385 0 .771-.147 1.064-.442 1.887-1.897 2.926-4.414 2.926-7.087-.001-2.734-1.08-5.291-3.04-7.2z" fill="#0568ae"/></svg>