<svg xmlns="http://www.w3.org/2000/svg" viewBox="0 0 36 36" enable-background="new 0 0 36 36"><path fill="none" d="M.065 0h36v36h-36z"/><path d="M18.065 14.641c-1.861 0-3.375 1.514-3.375 3.375s1.514 3.375 3.375 3.375 3.375-1.514 3.375-3.375c0-1.862-1.514-3.375-3.375-3.375zm0 5.999c-1.447 0-2.625-1.177-2.625-2.625 0-1.447 1.178-2.625 2.625-2.625s2.625 1.178 2.625 2.625c0 1.448-1.178 2.625-2.625 2.625zm-10.337 7.722c.147.146.147.384 0 .53-.073.073-.169.11-.265.11s-.192-.037-.265-.11c-2.907-2.904-4.508-6.768-4.508-10.877 0-4.106 1.599-7.967 4.503-10.872.146-.147.383-.147.53 0 .146.146.146.384 0 .53-2.762 2.764-4.283 6.436-4.283 10.342 0 3.909 1.523 7.583 4.288 10.347zm25.712-10.347c0 4.096-1.594 7.951-4.486 10.854-.073.073-.169.11-.266.11-.096 0-.191-.036-.265-.109-.147-.146-.147-.384-.001-.53 2.752-2.762 4.268-6.428 4.268-10.325 0-3.906-1.521-7.579-4.284-10.341-.146-.147-.146-.384 0-.53.147-.147.384-.147.53 0 2.904 2.904 4.504 6.765 4.504 10.871zm-21.469 6.103c.146.146.146.384 0 .53-.073.073-.17.11-.266.11s-.192-.037-.265-.11c-1.774-1.771-2.751-4.127-2.751-6.633 0-2.505.975-4.859 2.746-6.629.146-.147.384-.146.53 0 .147.147.147.384 0 .53-1.629 1.628-2.526 3.794-2.526 6.099.001 2.307.9 4.474 2.532 6.103zm12.634-12.819c1.828 1.781 2.835 4.166 2.835 6.716 0 2.493-.97 4.84-2.728 6.611-.074.073-.17.11-.267.11-.096 0-.191-.036-.265-.109-.146-.146-.148-.383-.002-.53 1.62-1.628 2.512-3.788 2.512-6.082 0-2.346-.926-4.541-2.608-6.179-.149-.144-.151-.382-.007-.53.144-.148.382-.151.53-.007z" fill="#0568ae"/></svg>