<svg xmlns="http://www.w3.org/2000/svg" viewBox="0 0 36 36" enable-background="new 0 0 36 36"><path fill="none" d="M0 0h36v36h-36z"/><path d="M23.74 17.325c-.32 0-.639-.122-.883-.366-.488-.488-.489-1.28-.001-1.768.987-.987 1.53-2.302 1.53-3.703 0-1.402-.543-2.716-1.528-3.7-.489-.488-.489-1.279-.002-1.768.488-.489 1.279-.489 1.768-.002 1.459 1.456 2.262 3.399 2.262 5.469 0 2.068-.803 4.011-2.261 5.47-.245.246-.565.368-.885.368zm4.577 2.703c2.083-2.284 3.231-5.317 3.231-8.54 0-3.221-1.147-6.254-3.23-8.54-.465-.51-1.255-.547-1.766-.082-.51.465-.547 1.256-.082 1.766 1.663 1.824 2.578 4.259 2.578 6.855 0 2.598-.916 5.033-2.578 6.855-.465.51-.429 1.301.081 1.766.24.219.542.326.842.326.339.002.677-.136.924-.406zm-15.174-3.069c.488-.488.489-1.28.001-1.768-.986-.987-1.53-2.302-1.53-3.703 0-1.402.543-2.716 1.529-3.7.488-.488.489-1.279.002-1.768-.488-.489-1.279-.489-1.768-.002-1.459 1.456-2.263 3.399-2.263 5.469 0 2.068.803 4.011 2.261 5.47.244.244.564.366.884.366.321.002.64-.12.884-.364zm-3.694 3.15c.51-.465.546-1.256.081-1.766-1.662-1.822-2.578-4.257-2.578-6.855 0-2.597.915-5.031 2.578-6.855.465-.51.428-1.301-.082-1.766-.51-.465-1.301-.429-1.766.082-2.083 2.286-3.23 5.318-3.23 8.54 0 3.223 1.148 6.256 3.231 8.54.247.27.585.408.924.408.301-.001.603-.109.842-.328zm15.46 13.407c-.119.035-.239.052-.357.052-.539 0-1.036-.351-1.198-.894l-1.521-5.109-8.288 3.128-.224.056-.546 1.912c-.157.549-.657.907-1.201.907-.114 0-.229-.016-.344-.048-.664-.19-1.048-.882-.859-1.545l5.507-19.281c-.455-.497-.736-1.157-.736-1.884 0-1.54 1.253-2.793 2.793-2.793 1.54 0 2.793 1.253 2.793 2.793 0 .717-.274 1.369-.719 1.864l5.741 19.287c.198.662-.179 1.357-.841 1.555zm-6.955-18.986l-1.499 5.248 2.723-1.135-1.224-4.113zm2.174 11.327l-4.767-2.246-1.295 4.533 6.062-2.287zm.551-2.172l-.869-2.921-2.828 1.179 3.697 1.742z" fill="#0568ae"/></svg>