<svg xmlns="http://www.w3.org/2000/svg" viewBox="0 0 36 36" enable-background="new 0 0 36 36"><path fill="none" d="M0 0h36v36h-36z"/><path d="M31.638 17.642h-20.214v-9.295c0-.552-.448-1-1-1s-1 .448-1 1v9.295h-5.062c-.604 0-1.095.491-1.095 1.095v5.998c0 .604.491 1.095 1.095 1.095h27.276c.604 0 1.095-.491 1.095-1.095v-5.998c-.001-.604-.492-1.095-1.095-1.095zm-23.425 4.544c0 .198-.162.36-.36.36h-.9c-.198 0-.36-.162-.36-.36v-.9c0-.198.162-.36.36-.36h.9c.198 0 .36.162.36.36v.9zm3.151 0c0 .198-.163.36-.36.36h-.9c-.198 0-.361-.162-.361-.36v-.9c0-.198.163-.36.361-.36h.9c.197 0 .36.162.36.36v.9zm3.152 0c0 .198-.162.36-.36.36h-.899c-.199 0-.36-.162-.36-.36v-.9c0-.198.161-.36.36-.36h.899c.198 0 .36.162.36.36v.9z" fill="#0568ae"/></svg>