<svg xmlns="http://www.w3.org/2000/svg" viewBox="0 0 36 36" enable-background="new 0 0 36 36"><path fill="none" d="M0 0h36v36h-36z"/><path d="M12.363 32.477c-.019.193-.182.337-.372.337l-.039-.002c-.805-.082-1.598-.266-2.359-.546-.299-.11-.592-.239-.881-.378l-.232-.111-.072-.04c-.335-.176-.662-.37-.976-.585-2.402-1.645-3.945-4.251-4.234-7.152-.021-.206.129-.39.336-.41.211-.024.39.13.41.336.266 2.68 1.691 5.087 3.911 6.605l.001.001c1.245.852 2.687 1.383 4.173 1.534.206.021.356.205.334.411zm.208-2.963c-1.112-.145-2.148-.541-3.078-1.178v-.001l-.069-.052c-.18-.126-.356-.257-.523-.399-.158-.134-.306-.279-.451-.426l-.084-.08c-1.017-1.065-1.688-2.433-1.896-3.912-.029-.205-.223-.347-.424-.319-.205.028-.348.218-.319.423.306 2.18 1.525 4.143 3.343 5.384h.002c1.028.704 2.172 1.142 3.402 1.302l.049.003c.186 0 .347-.138.372-.327.026-.203-.119-.391-.324-.418zm.546-2.512c-.754-.098-1.459-.369-2.095-.802-.282-.193-.541-.415-.773-.659l-.159-.185-.169-.197c-.276-.358-.497-.756-.665-1.177l-.059-.141-.024-.08c-.1-.292-.176-.593-.218-.903-.029-.205-.224-.347-.422-.32-.205.028-.349.217-.321.422.186 1.365.876 2.612 1.918 3.501l.321.245.146.112.002.001c.734.501 1.549.813 2.421.927l.048.003c.186 0 .347-.138.372-.326.027-.206-.117-.394-.323-.421zm10.821-10.344l-4.325 4.325c-.341.342-.797.53-1.283.53s-.942-.188-1.284-.53l-.757-.757-.902.902c1.16 1.338 1.572 3.153 1.057 4.835-.08.267-.329.456-.604.456-.167 0-.324-.068-.443-.193l-2.554-2.554-.706.707c-.073.073-.169.109-.265.109s-.192-.036-.266-.109c-.146-.146-.146-.384 0-.53l.707-.707-2.527-2.526c-.181-.177-.255-.409-.2-.632.053-.212.215-.378.435-.442.473-.141.964-.212 1.461-.212 1.253 0 2.439.449 3.379 1.265l.898-.897-.918-.918c-.707-.708-.707-1.859 0-2.567l4.325-4.325c.684-.683 1.883-.683 2.567 0l2.206 2.206c.342.342.53.797.53 1.284 0 .482-.189.938-.531 1.28zm-9.328 4.717c-.838-.837-1.949-1.298-3.128-1.298-.354 0-.705.042-1.045.126l5.345 5.345c.377-1.481-.063-3.062-1.172-4.173zm9.109-6.001c0-.286-.11-.553-.311-.753l-2.206-2.206c-.2-.2-.467-.31-.752-.31-.286 0-.553.11-.753.31l-4.327 4.325c-.415.415-.415 1.091 0 1.506l2.206 2.206c.4.399 1.107.4 1.508 0l4.324-4.325c.2-.2.311-.467.311-.753zm-17.015-6.058c-.761-.764-.761-2.007 0-2.771l2.797-2.795c.369-.369.86-.572 1.386-.573.525 0 1.017.203 1.385.572l6.301 6.302c.146.146.146.384 0 .53-.146.146-.383.146-.53 0l-.695-.695-4.507 4.506.696.695c.146.147.146.384 0 .53-.073.073-.169.11-.265.11s-.192-.037-.265-.11l-6.303-6.301zm3.454 2.394l4.506-4.507-1.623-1.624-4.507 4.506 1.624 1.625zm6.661-2.353l-1.624-1.623-4.506 4.507 1.623 1.623 4.507-4.507zm-9.584-.57l.768.768 4.508-4.506-.769-.769c-.227-.227-.531-.353-.855-.353-.324 0-.628.125-.856.353l-2.796 2.795c-.47.472-.47 1.24 0 1.712zm25.569 16.308c0 .524-.203 1.016-.572 1.385l-2.796 2.796c-.369.369-.861.572-1.386.572h-.001c-.524 0-1.016-.203-1.385-.572l-6.354-6.354c-.146-.146-.146-.384 0-.53.147-.147.384-.147.531 0l.747.747 4.507-4.506-.748-.748c-.147-.146-.147-.384 0-.53.146-.146.383-.146.53 0l6.354 6.354c.37.368.574.861.573 1.386zm-4.025-3.778l-4.507 4.505 1.624 1.624 4.507-4.506-1.624-1.623zm-6.661 2.352l1.624 1.624 4.507-4.505-1.624-1.624-4.507 4.505zm9.936 1.425c0-.324-.125-.628-.353-.855l-.769-.77-4.507 4.506.769.769c.227.228.531.353.854.353h.001c.324 0 .628-.125.855-.353l2.796-2.795c.229-.226.354-.53.354-.855z" fill="#0568ae"/></svg>