<svg xmlns="http://www.w3.org/2000/svg" viewBox="0 0 36 36" enable-background="new 0 0 36 36"><path fill="none" d="M0 0h36v36h-36z"/><path d="M29.334 12.147l-.19.024c-.333 0-.637-.223-.725-.561-.826-3.165-2.992-5.783-5.941-7.186l-.001-.001c-1.654-.787-3.486-1.151-5.297-1.051-.412.008-.768-.294-.79-.708-.022-.413.294-.767.708-.79 2.06-.112 4.144.3 6.024 1.195l.001.001c3.351 1.593 5.809 4.567 6.748 8.161.104.402-.136.811-.537.916zm-7.802-6.057l-.002-.001c-1.443-.687-2.988-1.01-4.571-.97-.414.011-.741.355-.729.77.011.414.34.759.769.729 1.358-.032 2.661.242 3.888.826 2.17 1.028 3.816 2.935 4.517 5.232.099.323.396.531.717.531l.219-.033c.396-.121.62-.54.499-.936-.823-2.698-2.757-4.939-5.307-6.148zm-4.717 3.727c.906-.018 1.776.162 2.603.553 1.467.698 2.577 1.988 3.043 3.538.098.324.396.534.718.534l.217-.032c.396-.12.621-.538.502-.935-.588-1.954-1.986-3.58-3.835-4.459h-.002c-1.042-.494-2.146-.727-3.288-.697-.414.011-.74.356-.729.77.011.407.344.729.749.729l.022-.001zm10.735 11.183c-3.313 0-6 2.687-6 6 0 1.208.36 2.331.975 3.272l.096.131 2.097-2.097c-.514-1.141-.299-2.532.642-3.471.61-.609 1.408-.914 2.204-.914.249 0 .498.03.741.089.115.028.267.177.088.355l-1.75 1.75c-.503.504-.505 1.317-.004 1.818.249.249.577.374.904.374.33 0 .66-.126.913-.379l1.715-1.714c.073-.073.143-.101.203-.101.096 0 .169.073.19.16.24 1.02-.028 2.14-.826 2.939-.609.608-1.405.913-2.201.913-.434 0-.868-.09-1.271-.272l-2.092 2.093.131.094c.935.605 2.048.96 3.245.96 3.313 0 6-2.686 6-6 0-3.313-2.686-6-6-6m-4.361-.09c-1.136.816-2.037 1.937-2.576 3.247-.531.044-1.065.056-1.599.027v9.214c0 .552-.448 1-1 1s-1-.448-1-1v-3.541l-10.791 2.837-.947 1.336c-.195.275-.503.422-.817.422-.2 0-.402-.06-.577-.184-.451-.319-.557-.943-.238-1.394l8.207-11.581c-3.139-2.707-4.553-6.759-3.996-10.65.066-.464.554-.738 1.075-.342l7.012 5.218 1.705-2.405c.319-.45.943-.558 1.394-.238.451.319.557.943.238 1.394l-1.731 2.443 5.641 4.197zm-11.432 3.975l4.4-1.203c-.927-.286-1.827-.695-2.685-1.217l-1.715 2.42zm3.631 3.85l-5.205-1.629-2.609 3.682 7.814-2.053zm1.627-3.732l-4.553 1.245 4.553 1.425v-2.67z" fill="#0568ae"/></svg>