<svg xmlns="http://www.w3.org/2000/svg" viewBox="0 0 36 36" enable-background="new 0 0 36 36"><path fill="none" d="M0 0h36v36h-36z"/><path d="M28.448 11.354c.057.2-.06.407-.259.463l-.102.014c-.164 0-.314-.108-.361-.273-.304-1.073-.843-2.033-1.601-2.854v-.001l-.097-.095c-.139-.143-.278-.285-.428-.416l-.291-.23-.279-.221c-1.183-.84-2.61-1.304-4.081-1.304h-.047c-.206 0-.374-.166-.375-.372-.002-.207.165-.376.372-.378h.049c2.17 0 4.254.913 5.727 2.509v.001c.137.148.256.306.38.462l.202.247.236.367.255.397.116.24c.24.458.44.937.584 1.444zm2.435-.881c-.318-1.256-.896-2.442-1.684-3.479-.19-.249-.387-.493-.599-.723l-.002-.001c-1.964-2.125-4.76-3.268-7.642-3.131-.206.01-.366.185-.356.392.009.207.187.37.392.357 2.663-.125 5.242.929 7.055 2.891h.001c1.015 1.099 1.744 2.44 2.107 3.878.043.17.196.283.363.283l.092-.011c.202-.051.324-.255.273-.456zm-10.221-1.505h.051c.334 0 .665.035.987.103l.059.015c.946.212 1.817.706 2.488 1.43.518.563.885 1.215 1.09 1.941.047.165.197.273.361.273l.102-.014c.2-.057.315-.264.259-.463-.238-.84-.662-1.595-1.261-2.245v-.001l-.001-.001-.301-.293-.112-.11c-.704-.618-1.55-1.043-2.455-1.247l-.073-.019c-.373-.079-.755-.119-1.142-.119h-.055c-.207.002-.373.171-.371.379.001.205.169.371.374.371zm7.688 14.225c-.034.383-.276.725-.632.893-1.721.814-3.649 1.244-5.575 1.244h-.001c-.831 0-1.651-.085-2.454-.235v7.916c0 .207-.168.375-.375.375-.208 0-.376-.168-.376-.375v-3.113l-6.411 1.737-.098.013c-.166 0-.317-.109-.362-.276-.054-.2.064-.406.264-.461l5.878-1.592-6.917-2.19-4.309 6.099c-.073.104-.189.159-.307.159-.074 0-.15-.022-.215-.069-.169-.12-.209-.354-.09-.523l7.374-10.437.003-.003c-3.687-2.957-5.555-7.625-4.884-12.313.077-.535.489-.907 1.003-.907.261 0 .529.098.774.285l8.275 6.158 2.564-3.617c.12-.169.352-.209.523-.089.169.12.209.354.089.523l-2.574 3.632 8.407 6.256c.301.211.459.546.426.91zm-16.36 2.946l5.707-1.577c-1.181-.419-2.307-1.007-3.353-1.756l-2.354 3.333zm6.947 2.645v-3.796l-.038.019-6.311 1.745 6.253 1.981.096.051zm8.666-5.657c.009-.097-.031-.177-.12-.239l-17.293-12.869c-.117-.088-.227-.134-.324-.134-.164 0-.242.141-.26.262-.655 4.578 1.25 9.142 4.974 11.912 2.215 1.649 4.83 2.521 7.561 2.521h.001c1.816 0 3.633-.405 5.256-1.173.114-.053.195-.164.205-.28z" fill="#0568ae"/></svg>