<svg xmlns="http://www.w3.org/2000/svg" viewBox="0 0 36 36" enable-background="new 0 0 36 36"><path fill="none" d="M0 0h36v36h-36z"/><path d="M31.488 12.147l-.19.025c-.333 0-.637-.224-.725-.561-.826-3.165-2.992-5.785-5.942-7.186-1.654-.787-3.487-1.149-5.297-1.052-.429.025-.767-.294-.79-.708-.023-.414.294-.767.708-.79 2.058-.113 4.142.3 6.023 1.194 3.351 1.593 5.811 4.567 6.749 8.162.105.402-.135.811-.536.916zm-2.495.092c-.823-2.699-2.757-4.94-5.308-6.149-1.443-.686-2.989-1.016-4.57-.97-.414.011-.741.356-.73.77.011.414.354.747.77.73 1.354-.04 2.66.241 3.887.825h.001c2.17 1.029 3.817 2.936 4.517 5.232.099.323.396.531.717.531l.219-.033c.395-.12.618-.54.497-.936zm-2.941 1.236c-.588-1.954-1.986-3.58-3.835-4.46h-.001c-1.042-.494-2.146-.728-3.288-.698-.414.011-.741.356-.73.77.011.414.362.74.77.73.905-.027 1.777.162 2.604.553h.001c1.467.699 2.577 1.988 3.043 3.538.098.325.395.534.718.534l.217-.032c.396-.12.62-.538.501-.935zm.681 9.629c-1.737.821-3.652 1.182-5.564 1.081v9.214c0 .552-.448 1-1 1s-1-.448-1-1v-3.54l-10.792 2.835-.947 1.335c-.195.275-.503.422-.817.422-.2 0-.401-.06-.577-.184-.451-.319-.557-.943-.238-1.394l8.207-11.58c-3.139-2.707-4.553-6.759-3.996-10.65.066-.464.554-.738 1.075-.342l7.012 5.218 1.705-2.405c.319-.45.943-.557 1.394-.238.451.319.557.944.238 1.394l-1.732 2.443 7.16 5.328c.414.293.291.865-.128 1.063zm-11.107-.639l-1.715 2.42 4.4-1.203c-.927-.286-1.828-.695-2.685-1.217zm1.917 6.27l-5.206-1.629-2.61 3.682 7.816-2.053zm1.626-1.063v-2.669l-4.552 1.244 4.552 1.425z" fill="#0568ae"/></svg>