<svg xmlns="http://www.w3.org/2000/svg" viewBox="0 0 36 36" enable-background="new 0 0 36 36"><path fill="none" d="M0 0h36v36h-36z"/><path d="M29.533 10.953c-.201.051-.405-.071-.455-.272-.364-1.44-1.096-2.782-2.108-3.878-1.716-1.856-4.11-2.901-6.631-2.901l-.425.01c-.207.01-.382-.15-.392-.357-.01-.207.15-.382.357-.392l.46-.011c2.729 0 5.324 1.132 7.182 3.142 1.097 1.188 1.889 2.639 2.284 4.203.051.201-.071.405-.272.456zm-3.935-2.733c-1.475-1.599-3.559-2.509-5.727-2.509h-.049l-.061.013-.085.018-.064.043-.055.038-.027.04c-.049.064-.082.14-.081.226l.013.061.018.085c.031.072.087.126.153.167.058.035.122.061.194.06h.044c1.957 0 3.844.824 5.175 2.267.761.825 1.296 1.777 1.601 2.854.056.199.264.315.463.259.199-.056.315-.264.259-.463-.335-1.188-.931-2.252-1.771-3.159zm-1.878 1.813c-1.053-1.139-2.536-1.79-4.085-1.79h-.054c-.155.002-.288.097-.343.232l-.028.146c.001.104.044.197.112.264.069.067.163.108.266.107h.047c1.338 0 2.623.564 3.533 1.549.518.563.883 1.21 1.091 1.941.056.199.264.315.463.259.199-.056.315-.264.258-.463-.238-.843-.666-1.6-1.26-2.245zm1.701 14.001zm1.435 3.109zm3.856-1.972c-.045-.12-.147-.208-.272-.236-.125-.027-.255.011-.345.101l-1.572 1.572c-.16.159-.365.237-.572.237-.206 0-.408-.077-.564-.234-.156-.156-.233-.357-.233-.563 0-.208.078-.413.238-.573l1.573-1.573c.09-.09.128-.22.101-.345-.027-.125-.116-.227-.236-.272-.361-.134-.741-.201-1.121-.201-.826 0-1.656.317-2.287.948-.63.629-.948 1.458-.948 2.282 0 .364.065.726.188 1.073l-1.53 1.531c-.146.146-.146.384 0 .53.147.146.384.146.53 0l1.702-1.703c.11-.111.141-.277.076-.419-.144-.32-.217-.665-.217-1.012 0-.634.242-1.266.728-1.751.487-.486 1.121-.728 1.757-.729l.242.022-1.089 1.089c-.303.304-.457.705-.457 1.102 0 .395.152.793.453 1.094.301.302.7.454 1.095.453.397 0 .798-.153 1.102-.456l1.089-1.089.021.242c0 .635-.242 1.268-.728 1.755-.486.485-1.119.727-1.753.727-.346 0-.691-.072-1.012-.216-.143-.064-.309-.034-.419.077l-1.701 1.703c-.146.147-.146.384 0 .53.146.146.384.146.53 0l1.528-1.53c.347.123.709.187 1.072.187.825 0 1.653-.317 2.284-.947.631-.631.948-1.461.947-2.285.001-.379-.066-.759-.2-1.121zm-4.071-1.061zm6.734 2.89c0 3.521-2.854 6.375-6.375 6.375-3.52 0-6.375-2.854-6.375-6.375 0-.572.083-1.124.224-1.651-.748-.014-1.497-.094-2.24-.233v7.9190000000000005c0 .207-.168.375-.375.375s-.375-.168-.375-.375v-3.113l-6.411 1.737c-.2.054-.406-.064-.46-.264-.054-.2.064-.406.264-.46l5.879-1.593-6.917-2.19-4.309 6.099c-.12.169-.353.209-.523.09-.169-.12-.209-.354-.09-.523l7.374-10.438.002-.002c-3.275-2.625-5.017-6.503-5.016-10.43 0-.628.044-1.258.134-1.884.035-.246.147-.472.324-.638.176-.166.42-.268.679-.266.262 0 .53.099.773.285l-.003-.003 8.278 6.16 2.563-3.617c.12-.169.354-.209.523-.089.169.12.209.354.089.523l-2.572 3.631 6.577 4.894c.625-.205 1.29-.319 1.983-.319 3.521 0 6.375 2.854 6.375 6.375zm-22.463-.837l5.715-1.58c-1.172-.414-2.304-.997-3.36-1.753l-2.355 3.333zm6.947-1.151l-.038.019-6.311 1.745 6.254 1.98.095.053v-3.797zm3.236-.409c.592-1.457 1.707-2.64 3.112-3.327l-15.096-11.232-.003-.002c-.14-.106-.247-.132-.319-.132-.072 0-.12.022-.166.063-.044.041-.082.107-.095.198-.085.59-.126 1.185-.126 1.778 0 3.853 1.768 7.656 5.101 10.135 2.272 1.691 4.931 2.521 7.561 2.521l.031-.002zm.53.736c-.162.525-.25 1.082-.25 1.661 0 1.554.629 2.958 1.648 3.977 1.019 1.019 2.423 1.647 3.977 1.648 1.554 0 2.958-.629 3.977-1.648 1.018-1.019 1.647-2.423 1.648-3.977 0-1.555-.629-2.958-1.648-3.978-1.019-1.018-2.423-1.647-3.977-1.647-.42 0-.827.049-1.22.137-.455.088-.886.275-.886.275-.705.285-1.34.706-1.87 1.236-.447.447-.813.972-1.09 1.548-.133.228-.309.768-.309.768z" fill="#0568ae"/></svg>