<svg xmlns="http://www.w3.org/2000/svg" viewBox="0 0 36 36" enable-background="new 0 0 36 36"><path fill="none" d="M0 0h35.999v36h-35.999z"/><path d="M28.059 4.389h-20.12c-1.544 0-2.8 1.256-2.8 2.8v22.4c0 .552.448 1 1 1s1-.448 1-1v-22.4c0-.441.359-.8.8-.8h20.12c.442 0 .801.359.801.8v.856l-.162-.016h-18.866c-.604 0-1.095.491-1.095 1.095v3.905c0 .604.491 1.095 1.095 1.095h18.865l.162-.016v1.859l-.162-.016h-18.865c-.604 0-1.095.491-1.095 1.095v3.905c0 .604.491 1.095 1.095 1.095h18.865l.162-.016v1.858l-.162-.016h-18.865c-.604 0-1.095.491-1.095 1.095v3.905c0 .604.491 1.095 1.095 1.095h18.865l.229-.025c.142.379.505.65.934.65.552 0 1-.448 1-1v-22.4c0-1.547-1.257-2.803-2.801-2.803zm-15.01 7.137c0 .198-.162.36-.36.36h-.899c-.198 0-.36-.162-.36-.36v-.9c0-.198.162-.36.36-.36h.899c.198 0 .36.162.36.36v.9zm0 7.921c0 .198-.162.36-.36.36h-.899c-.198 0-.36-.162-.36-.36v-.9c0-.198.162-.36.36-.36h.899c.198 0 .36.162.36.36v.9zm0 7.92c0 .198-.162.36-.36.36h-.899c-.198 0-.36-.162-.36-.36v-.9c0-.198.162-.36.36-.36h.899c.198 0 .36.162.36.36v.9z" fill="#0568ae"/></svg>