<svg xmlns="http://www.w3.org/2000/svg" viewBox="0 0 36 36" enable-background="new 0 0 36 36"><path fill="none" d="M0 0h35.999v36h-35.999z"/><path d="M30.234 7.188v23.424c0 .207-.168.375-.374.375-.207 0-.376-.168-.376-.375v-23.424c0-.786-.638-1.425-1.425-1.425h-20.12c-.786 0-1.425.639-1.425 1.425v23.424c0 .207-.168.375-.375.375s-.375-.168-.375-.375v-23.424c0-1.199.976-2.175 2.175-2.175h20.12c1.2 0 2.175.975 2.175 2.175zm-2.962 1.214c0-.207-.168-.375-.375-.375h-16.675c-1.001 0-1.815.814-1.815 1.815v2.465c0 1.001.814 1.815 1.815 1.815h16.676c.207 0 .375-.168.375-.375s-.168-.375-.375-.375h-16.676c-.587 0-1.065-.478-1.065-1.065v-2.465c0-.587.478-1.065 1.065-1.065h16.676c.206 0 .374-.168.374-.375zm-15.813 1.863c-.198 0-.36.162-.36.36v.9c0 .198.162.36.36.36h.899c.197 0 .358-.162.358-.36v-.9c0-.198-.161-.36-.358-.36h-.899zm15.813 6.058c0-.207-.168-.375-.375-.375h-16.675c-1.001 0-1.815.814-1.815 1.815v2.465c0 1 .814 1.815 1.815 1.815h16.676c.207 0 .375-.168.375-.375s-.168-.375-.375-.375h-16.676c-.587 0-1.065-.477-1.065-1.065v-2.465c0-.587.478-1.065 1.065-1.065h16.676c.206 0 .374-.168.374-.375zm-15.813 1.863c-.198 0-.36.162-.36.36v.9c0 .198.162.36.36.36h.899c.197 0 .358-.162.358-.36v-.9c0-.198-.161-.36-.358-.36h-.899zm15.813 6.058c0-.207-.168-.375-.375-.375h-16.675c-1.001 0-1.815.814-1.815 1.815v2.465c0 1 .814 1.815 1.815 1.815h16.676c.207 0 .375-.168.375-.375s-.168-.375-.375-.375h-16.676c-.587 0-1.065-.477-1.065-1.065v-2.465c0-.587.478-1.065 1.065-1.065h16.676c.206 0 .374-.168.374-.375zm-15.813 1.862c-.198 0-.36.162-.36.36v.9c0 .198.162.36.36.36h.899c.197 0 .358-.162.358-.36v-.9c0-.198-.161-.36-.358-.36h-.899z" fill="#0568ae"/></svg>