<svg xmlns="http://www.w3.org/2000/svg" viewBox="0 0 36 36"><path fill="none" d="M0 0h36v36H0z"/><path fill="#0568ae" d="M27.7 10s0-1-.5-1.5l-3.7-3.8c-.4-.5-.9-.7-1.5-.8H9.6c-.6 0-1.1.6-1.1 1.2v25.7c0 .7.5 1.2 1.1 1.2h17c.6 0 1.1-.6 1.1-1.2V10zm-3.8 13.9h-3.2v-3.5h3.2v3.5zm-1.1-8.3c.6 0 1.1.5 1.1 1.1v2.4h-3.5c-.5 0-1 .4-1 1v8.6h-2.9V15.6h6.3zm-7.5 8.3H12v-3.4h3.3v3.4zm-2.2-8.3h2.2v3.6H12v-2.5c0-.6.5-1.1 1.1-1.1zm-1.1 12v-2.5h3.3v3.6h-2.2c-.6 0-1.1-.5-1.1-1.1zm10.8 1.1h-2.2v-3.6h3.2v2.5c.1.6-.4 1.1-1 1.1z"/></svg>