<svg xmlns="http://www.w3.org/2000/svg" viewBox="0 0 36 36"><path fill="none" d="M0 0h36v36H0z"/><path fill="#0568ae" d="M28 10c0-.1 0-1.2-.6-1.8l-3.7-3.8c-.5-.6-1-.8-1.8-.9H9.5c-.8 0-1.5.8-1.5 1.6v25.7c0 .9.7 1.6 1.5 1.6h17c.8 0 1.5-.7 1.5-1.6V10zm-1.5 21.7h-17c-.4 0-.8-.4-.8-.9V5.1c0-.5.3-.9.8-.9h12.3c.6.1.9.2 1.3.7l3.7 3.8c.4.3.4 1 .4 1.3v20.9c.1.4-.3.8-.7.8zM22.9 15h-9.7c-.8 0-1.5.7-1.5 1.5v8.9c0 .2.2.4.4.4s.4-.2.4-.4v-.9h3.2V28h-2.5c-.2 0-.4.2-.4.4s.2.4.4.4h9.7c.8 0 1.5-.7 1.5-1.5V16.4c-.1-.8-.7-1.4-1.5-1.4zm-2.6 5.1h3.2v3.6h-3.2v-3.6zm-7.2-4.4h2.5v3.6h-3.2v-2.9c0-.4.4-.7.7-.7zm-.7 8v-3.6h3.2v3.6h-3.2zm4-8h6.5c.4 0 .7.3.7.7v2.9h-3.2c-.4 0-.7.3-.7.7v8h-3.2V15.7zM22.9 28h-2.5v-3.6h3.2v2.9c0 .4-.4.7-.7.7z"/></svg>