<svg xmlns="http://www.w3.org/2000/svg" viewBox="0 0 36 36" enable-background="new 0 0 36 36"><path fill="none" d="M0 0h36v36h-36z"/><path d="M18.557 3.272h-11.641c-1.396 0-2.539 1.143-2.539 2.539v24.379c0 1.396 1.142 2.539 2.539 2.539h11.641c1.396 0 2.539-1.143 2.539-2.539v-24.379c0-1.396-1.143-2.539-2.539-2.539zm-.205 25.874c0 .396-.324.72-.72.72h-9.791c-.396 0-.72-.324-.72-.72v-7.96c0-.396.324-.72.72-.72h9.791c.396 0 .72.324.72.72v7.96zm-6.379-11.91c.421-.421 1.106-.421 1.527 0 .421.421.421 1.106 0 1.527-.421.421-1.106.421-1.527 0-.421-.421-.421-1.105 0-1.527zm6.379-2.422c0 .396-.324.72-.72.72h-9.791c-.396 0-.72-.324-.72-.72v-7.96c0-.396.324-.72.72-.72h9.791c.396 0 .72.324.72.72v7.96zm-3.453-3.205c-.414 0-.75-.336-.75-.75v-1.999c0-.414.336-.75.75-.75s.75.336.75.75v1.999c0 .414-.335.75-.75.75zm-4.325 0c-.414 0-.75-.336-.75-.75v-1.999c0-.414.336-.75.75-.75s.75.336.75.75v1.999c0 .414-.336.75-.75.75zm3.192 2.616h-2.059v-.647c0-.567.463-1.029 1.031-1.029.566 0 1.028.462 1.028 1.029v.647zm1.133 11.716c-.414 0-.75-.336-.75-.75v-1.999c0-.414.336-.75.75-.75s.75.336.75.75v1.999c0 .414-.335.75-.75.75zm-4.325 0c-.414 0-.75-.336-.75-.75v-1.999c0-.414.336-.75.75-.75s.75.336.75.75v1.999c0 .414-.336.75-.75.75zm3.192 2.616h-2.059v-.647c0-.567.463-1.028 1.031-1.028.566 0 1.028.462 1.028 1.028v.647zm17.613-8.51c-.337 1.783-1.116 3.461-2.254 4.853-.148.181-.364.275-.581.275-.167 0-.335-.055-.474-.169-.321-.262-.368-.735-.106-1.055.98-1.198 1.651-2.644 1.941-4.182.519-2.742-.198-5.556-1.964-7.719-.262-.321-.214-.793.107-1.055.321-.262.793-.214 1.055.107 2.047 2.506 2.877 5.767 2.276 8.945zm-2.886-.448c-.259 1.37-.821 2.623-1.67 3.724-.148.191-.37.292-.594.292-.16 0-.321-.051-.458-.156-.328-.253-.389-.724-.135-1.052.704-.912 1.169-1.951 1.384-3.087v-.001c.383-2.008-.103-4.097-1.331-5.731-.249-.331-.182-.801.149-1.05.331-.248.802-.182 1.05.149 1.481 1.971 2.066 4.49 1.606 6.911v.001h-.001zm-2.817-.428c-.189.993-.595 1.898-1.205 2.69-.148.192-.37.293-.595.293-.16 0-.321-.051-.457-.156-.328-.253-.389-.724-.137-1.052.465-.604.775-1.296.919-2.055.255-1.351-.073-2.751-.898-3.842-.25-.33-.185-.801.146-1.051.331-.25.8-.185 1.051.146 1.081 1.428 1.51 3.26 1.177 5.026l-.001.001z" fill="#0568ae"/></svg>