<svg xmlns="http://www.w3.org/2000/svg" viewBox="0 0 36 36" enable-background="new 0 0 36 36"><path fill="none" d="M.038 0h36v36h-36z"/><path d="M5.771 15.087h24.535c.604 0 1.095-.491 1.095-1.095v-3.905c0-.604-.491-1.095-1.095-1.095h-24.535c-.604 0-1.095.491-1.095 1.095v3.905c0 .604.491 1.095 1.095 1.095zm1.597-3.496c0-.198.162-.36.36-.36h.899c.198 0 .36.162.36.36v.9c0 .198-.162.36-.36.36h-.899c-.198 0-.36-.162-.36-.36v-.9zm19.67 7.909c1.628 0 3.131.527 4.362 1.411v-2.903c0-.604-.491-1.095-1.095-1.095h-24.534c-.604 0-1.095.491-1.095 1.095v3.905c0 .604.491 1.095 1.095 1.095h14.929c1.33-2.104 3.67-3.508 6.338-3.508zm-18.051.911c0 .198-.162.36-.36.36h-.899c-.198 0-.36-.162-.36-.36v-.9c0-.198.162-.36.36-.36h.899c.198 0 .36.162.36.36v.9zm18.051.589c-3.313 0-6 2.687-6 6s2.687 6 6 6 6-2.687 6-6-2.686-6-6-6zm2.632 8.356h-4.839c-.951 0-1.721-.771-1.721-1.721l.001-.011-.001-.011.008-.141c.075-.798.695-1.436 1.483-1.541.096-.996.935-1.775 1.956-1.775.85 0 1.573.54 1.846 1.296l.225-.021c.699 0 1.266.567 1.266 1.265l-.006.085c.613.104 1.08.635 1.08 1.278-.001.716-.582 1.297-1.298 1.297z" fill="#0568ae"/></svg>