<svg xmlns="http://www.w3.org/2000/svg" viewBox="0 0 36 36" enable-background="new 0 0 36 36"><path fill="none" d="M.005 0h36v36h-36z"/><path d="M31.367 22.364v-1.636c0-1.001-.814-1.815-1.815-1.815h-23.094c-1.001 0-1.815.814-1.815 1.815v2.465c0 .207.168.375.375.375s.375-.168.375-.375v-2.465c0-.587.478-1.065 1.065-1.065h23.094c.587 0 1.065.478 1.065 1.065v1.025c-1.028-.71-2.271-1.128-3.612-1.128-2.533 0-4.718 1.488-5.746 3.633h-11.975c-.207 0-.375.168-.375.375s.168.375.375.375h11.669c-.207.627-.323 1.296-.323 1.992 0 3.515 2.86 6.375 6.375 6.375s6.375-2.86 6.375-6.375c0-1.827-.777-3.473-2.013-4.636zm-4.362 10.261c-3.101 0-5.625-2.523-5.625-5.625 0-3.101 2.524-5.625 5.625-5.625s5.625 2.524 5.625 5.625c0 3.102-2.524 5.625-5.625 5.625zm-19.671-18.134v-.9c0-.198.162-.36.36-.36h.899c.198 0 .36.162.36.36v.9c0 .198-.162.36-.36.36h-.899c-.198 0-.36-.162-.36-.36zm-.876 2.596h23.094c1.001 0 1.815-.814 1.815-1.815v-2.465c0-1.001-.814-1.815-1.815-1.815h-23.094c-1.001 0-1.815.814-1.815 1.815v2.465c0 1.001.814 1.815 1.815 1.815zm-1.065-4.28c0-.587.478-1.065 1.065-1.065h23.094c.587 0 1.065.478 1.065 1.065v2.465c0 .587-.478 1.065-1.065 1.065h-23.094c-.587 0-1.065-.478-1.065-1.065v-2.465zm25.698 14.905c0 .882-.718 1.6-1.6 1.6h-4.571c-1.103 0-2.001-.897-2.001-2.001 0-1.104.898-2.001 2.001-2.001.324 0 .646.08.932.23.183.096.253.323.157.506-.096.184-.324.254-.507.157-.181-.095-.377-.143-.583-.143-.69 0-1.251.561-1.251 1.251 0 .69.561 1.251 1.251 1.251h4.571c.469 0 .85-.381.85-.85 0-.417-.297-.769-.707-.838-.189-.032-.324-.202-.312-.393l.005-.059c0-.449-.368-.817-.821-.817l-.147.014c-.179.031-.356-.07-.418-.241-.21-.585-.769-.978-1.39-.978-.373 0-.73.139-1.004.392-.152.141-.389.131-.53-.021-.14-.152-.131-.39.021-.53.413-.381.95-.591 1.512-.591.837 0 1.6.474 1.979 1.204.785.012 1.433.603 1.534 1.363.612.233 1.029.819 1.029 1.495zm-22.137-5.301c0 .198-.162.36-.36.36h-.9c-.198 0-.36-.162-.36-.36v-.9c0-.198.162-.36.36-.36h.899c.198 0 .36.162.36.36v.9z" fill="#0568ae"/></svg>