<svg xmlns="http://www.w3.org/2000/svg" viewBox="0 0 36 36" enable-background="new 0 0 36 36"><path fill="none" d="M-.023 0h36v36h-36z"/><path d="M24.995 6.544h-15.49c-.686 0-1.184.566-1.184 1.347v19.007c0 .207-.168.375-.375.375s-.375-.168-.375-.375v-19.007c0-1.195.831-2.097 1.934-2.097h15.49c.207 0 .375.168.375.375s-.168.375-.375.375zm8.31 20.44c0 3.515-2.86 6.375-6.375 6.375-2.473 0-4.617-1.418-5.673-3.482h-9.951c-.623 0-1.129-.506-1.129-1.128v-19.222c0-.623.507-1.129 1.129-1.129h15.54c.622 0 1.128.506 1.128 1.129v11.175c3.019.501 5.331 3.123 5.331 6.282zm-12.371 2.144c-.241-.671-.379-1.391-.379-2.143 0-3.515 2.86-6.375 6.375-6.375l.294.015v-11.098c0-.209-.17-.379-.378-.379h-15.54c-.206 0-.379.174-.379.379v19.223c0 .205.174.378.379.378h9.628zm11.621-2.144c0-3.101-2.524-5.625-5.625-5.625-3.102 0-5.625 2.524-5.625 5.625s2.523 5.625 5.625 5.625c3.101 0 5.625-2.523 5.625-5.625zm-4.297.06c-.196-.067-.409.037-.477.233-.107.314-.375.542-.701.594-.235.039-.471-.017-.665-.157-.194-.14-.322-.346-.361-.581-.039-.235.017-.471.157-.665.139-.194.345-.322.581-.361.205-.034.343-.226.31-.431-.034-.205-.226-.344-.431-.31-.433.071-.813.307-1.069.663-.256.357-.359.792-.288 1.224.071.433.307.813.663 1.069.283.203.615.309.956.309l.269-.022c.597-.097 1.091-.515 1.289-1.091.067-.193-.037-.407-.233-.474zm1.589-.294l.011.206v.019l-.011.237c.284.23.539.502.762.809.125.17.149.397.061.591-.147.328-.32.622-.516.87-.141.178-.367.258-.585.214-.34-.067-.668-.169-.977-.304l-.181.115-.22.118c-.06.361-.166.718-.319 1.061-.081.184-.248.314-.447.346l-.073.006-.438.023c-.181 0-.36-.013-.534-.038-.218-.03-.399-.18-.474-.39-.112-.32-.19-.663-.231-1.006l-.204-.107-.199-.125c-.338.13-.699.216-1.076.257-.207.024-.412-.068-.536-.232-.194-.255-.364-.552-.502-.883-.088-.205-.051-.442.096-.617.231-.266.485-.5.759-.703l-.012-.207.012-.255c-.284-.232-.541-.502-.763-.808-.126-.177-.148-.404-.058-.597.142-.323.316-.617.516-.868.135-.175.359-.258.582-.212.341.066.669.168.977.303l.182-.116.221-.118c.058-.361.165-.717.317-1.062.094-.21.289-.345.51-.352.334-.037.665-.032.983.015.215.029.398.179.473.39.112.32.19.664.23 1.006l.204.106.2.126c.344-.131.705-.217 1.077-.256.204-.021.409.066.534.23.193.252.364.55.504.884.087.214.047.449-.1.619-.228.268-.482.503-.755.705zm.125-1.119c-.093-.205-.199-.394-.318-.558-.338.044-.662.134-.968.27-.129.057-.279.037-.389-.051l-.292-.199-.31-.145c-.137-.052-.231-.18-.24-.327-.02-.318-.082-.643-.18-.947-.203-.022-.413-.024-.639-.005-.132.317-.216.645-.251.975-.015.14-.107.26-.238.311l-.312.149-.283.195c-.114.096-.274.114-.408.048-.282-.141-.586-.248-.907-.318-.121.164-.23.35-.325.554.208.271.449.508.718.704.112.082.17.218.15.355l-.028.369.03.33c.024.145-.041.29-.163.371-.264.175-.509.386-.73.627.093.207.199.395.317.56.342-.045.667-.136.966-.27.129-.059.281-.038.391.052l.288.195.31.146c.137.052.232.179.241.326.022.319.083.645.181.948.198.021.408.022.639.004.131-.317.216-.644.252-.975.016-.138.106-.256.235-.307l.314-.152.283-.195c.115-.096.274-.113.407-.048.283.141.588.248.909.319.118-.161.227-.347.324-.553-.209-.275-.45-.511-.716-.705-.113-.082-.171-.22-.151-.358l.028-.357-.031-.337c-.024-.146.041-.292.164-.374.266-.175.511-.385.732-.627z" fill="#0568ae"/></svg>