<svg xmlns="http://www.w3.org/2000/svg" viewBox="0 0 36 36" enable-background="new 0 0 36 36"><path fill="none" d="M-.005 0h36v36h-36z"/><path d="M24.429 8.107h-13.527c-.396 0-.72.324-.72.72v17.695l.002.019c0 .553-.448 1.001-1.001 1.001s-1.001-.448-1.001-1.001v-17.714c0-1.5 1.22-2.72 2.72-2.72h13.546c.553 0 1.001.448 1.001 1.001 0 .553-.448 1.001-1.001 1.001l-.019-.002zm-4.934 18.893c0-4.136 3.364-7.5 7.5-7.5.275 0 .546.017.814.046v-9.398c0-.297-.243-.54-.54-.54h-15.04c-.297 0-.54.243-.54.54v19.205c0 .297.243.54.54.54h7.848c-.374-.89-.582-1.868-.582-2.893zm13.5 0c0 3.313-2.686 6-6 6-3.313 0-6-2.686-6-6s2.686-6 6-6 6 2.687 6 6zm-3.621-.39c.303-.199.579-.442.824-.725.052-.059.064-.142.035-.215-.121-.287-.266-.542-.432-.759-.043-.057-.113-.087-.185-.079-.39.041-.762.141-1.104.294l-.319-.218c-.102-.06-.214-.112-.347-.162-.023-.365-.098-.733-.218-1.076-.026-.072-.088-.126-.164-.136-.269-.04-.552-.043-.867-.01-.078.002-.138.053-.169.122-.159.359-.26.73-.299 1.106-.133.051-.249.107-.351.168l-.312.216c-.319-.159-.665-.277-1.036-.35-.078-.016-.155.013-.203.074-.169.213-.319.466-.443.749-.031.067-.023.146.02.206.233.319.504.591.808.812l-.03.391.033.374c-.303.2-.579.444-.823.724-.052.061-.066.144-.034.217.12.287.266.542.43.758.044.058.114.088.186.08.392-.042.763-.141 1.105-.294.092.076.198.148.32.218.1.06.213.113.344.163.024.365.099.733.219 1.076.026.072.089.125.164.136.266.038.549.042.868.01l.012-.001c.069-.011.128-.056.156-.12.159-.359.259-.731.301-1.106.134-.053.247-.107.35-.169l.311-.216c.32.16.668.278 1.037.351.076.016.154-.014.203-.075.168-.213.317-.465.443-.748.03-.067.022-.146-.021-.205-.232-.319-.503-.592-.808-.813l.03-.391-.034-.377zm-2.379-.782c-.647 0-1.172.525-1.172 1.172 0 .647.525 1.172 1.172 1.172.647 0 1.172-.525 1.172-1.172 0-.647-.525-1.172-1.172-1.172z" fill="#0568ae"/></svg>