<svg xmlns="http://www.w3.org/2000/svg" viewBox="0 0 36 36"><path fill="none" d="M0 0h36v36H0z"/><path fill="#0568ae" d="M29.1 14.7c-.5-.1-1.1-.1-1.7-.1V9.3c0-2.1-1.7-3.9-3.9-3.9h-1.7V3.8c0-.3-.2-.4-.4-.2l-1.2.9-2.4 1.7c-.2.1-.2.3 0 .5l2.9 2.1.7.5c.2.2.4.1.4-.2V7.5h1.7c1 0 1.9.8 1.9 1.9v5.2c-.6 0-1.6 0-2.8.1-1.4.1-2.1.5-2.1 1.8V30c0 1.3.7 2.1 2.1 2.2 1.3.1 2.4.1 2.9.1h.2c.5 0 2.1 0 3.4-.1 1.4-.1 2.1-.9 2.1-2.2V16.9c0-1.3-.7-2.1-2.1-2.2zm.6 13.4c0 .3-.2.5-.5.5h-6.7c-.3 0-.5-.2-.5-.5V17.4c0-.3.2-.5.5-.5h6.7c.3 0 .5.2.5.5v10.7zm-2.4 2.4c0 .4-.3.6-.6.6h-1.8c-.3 0-.6-.3-.6-.6 0-.4.3-.6.6-.6h1.8c.4 0 .6.2.6.6zm-8.9-1.2l-2.9-2.1-.7-.5c-.2-.2-.4-.1-.4.2v1.6h-1.7c-1 0-1.9-.8-1.9-1.9v-5.3c.7 0 1.8 0 2.7-.1 1.4-.1 2.1-.9 2.1-2.2V5.9c0-1.3-.7-2.1-2.1-2.2-1.3-.1-2.9-.1-3.4-.1h-.2c-.5 0-1.7 0-2.9.1-1.5.1-2.2.5-2.2 1.8V19c0 1.3.7 2.1 2.1 2.2.7.1 1.3.1 1.8.1v5.3c0 2.1 1.7 3.9 3.9 3.9h1.7v1.6c0 .3.2.4.4.2l1.2-.9 2.4-1.7c.2-.1.2-.3.1-.4zM6.8 17.7c-.3 0-.5-.2-.5-.5V6.4c0-.3.2-.5.5-.5h6.7c.3 0 .5.2.5.5v10.7c0 .3-.2.5-.5.5H6.8zm4.9 1.8c0 .4-.3.6-.6.6H9.3c-.3 0-.6-.3-.6-.6 0-.4.3-.6.6-.6h1.8c.3 0 .6.2.6.6z"/></svg>