<svg xmlns="http://www.w3.org/2000/svg" viewBox="0 0 36 36"><path fill="none" d="M0 0h36v36H0z"/><path fill="#0568ae" d="M18.2 28.4L16.4 27c-.2-.1-.4-.1-.5.1-.1.2-.1.4.1.5l1.5 1.1h-4.9c-1.4 0-2.5-1.1-2.5-2.5v-4.6H10.4c.1 0 2.4 0 3.5-.1 1.2-.1 1.8-.8 1.8-1.9v-14c0-1.1-.7-1.8-1.8-1.9-1.1-.1-3.4-.1-3.5-.1-.1 0-2.4 0-3.5.1-1.3.1-1.9.8-1.9 1.9v14c0 1.1.7 1.8 1.8 1.9.6.1 1.7.1 2.5.1v4.6c0 1.8 1.5 3.3 3.3 3.3h4.9L16 30.6c-.2.1-.2.4-.1.5.1.1.2.1.3.1.1 0 .2 0 .2-.1l1.8-1.4c.2-.2.4-.5.4-.7 0-.2-.1-.4-.4-.6zM5.7 19.6v-14c0-.7.4-1.1 1.2-1.2.9-.1 3-.1 3.3-.1h.1s2.4 0 3.4.1c.8.1 1.2.4 1.2 1.2v14c0 .7-.4 1.1-1.2 1.2-1 .1-3.4.1-3.4.1s-2.4 0-3.4-.1c-.8-.1-1.2-.5-1.2-1.2zm23.5-5.1c-.6-.1-1.7-.1-2.5-.1V9.8c0-1.8-1.5-3.3-3.3-3.3h-4.9L20 5.4c.2-.1.2-.4.1-.5-.1-.2-.4-.2-.5-.1l-1.8 1.4c-.2.2-.4.5-.4.7 0 .3.1.5.4.7L19.6 9c.1.1.1.1.2.1s.2-.1.3-.1c.1-.2.1-.4-.1-.5l-1.5-1.1h4.9c1.4 0 2.5 1.1 2.5 2.5v4.6h-.2c-.1 0-2.4 0-3.5.1-1.2.1-1.8.8-1.8 1.9v14c0 1.1.7 1.8 1.8 1.9 1 .1 3 .1 3.4.1h.1c.1 0 2.4 0 3.5-.1 1.2-.1 1.8-.8 1.8-1.9v-14c0-1.2-.6-1.9-1.8-2zm1.1 15.9c0 .7-.4 1.1-1.2 1.2-1 .1-3.4.1-3.4.1s-2.4 0-3.4-.1c-.8-.1-1.2-.4-1.2-1.2v-14c0-.7.4-1.1 1.2-1.2.9-.1 3-.1 3.3-.1h.1s2.4 0 3.4.1c.8.1 1.2.4 1.2 1.2v14zm-3.3-.3c0 .2-.2.4-.4.4h-1.8c-.2 0-.4-.2-.4-.4s.2-.4.4-.4h1.8c.2 0 .4.1.4.4zm2.3-12.2v9.9c0 .4-.3.7-.7.7h-5.8c-.2 0-.4-.2-.4-.4s.2-.4.4-.4h5.8v-9.9h-5.8v7c0 .2-.2.4-.4.4s-.4-.2-.4-.4v-7c0-.4.3-.7.7-.7h5.8c.5 0 .8.4.8.8zm-18.1 1.8H9.3c-.2 0-.4-.2-.4-.4s.2-.4.4-.4h1.8c.2 0 .4.2.4.4.1.2-.1.4-.3.4zm2-1.9H7.4c-.2 0-.4-.2-.4-.4s.2-.4.4-.4h5.8V7.1H7.4v7c0 .2-.2.4-.4.4s-.4-.2-.4-.4v-7c0-.4.3-.7.7-.7h5.8c.4 0 .7.3.7.7V17c.1.4-.2.8-.6.8z"/></svg>