<?xml version="1.0" encoding="utf-8"?>
<!-- Generator: Adobe Illustrator 18.1.0, SVG Export Plug-In . SVG Version: 6.00 Build 0)  -->
<svg version="1.1" id="Layer_1" xmlns="http://www.w3.org/2000/svg" xmlns:xlink="http://www.w3.org/1999/xlink" x="0px" y="0px"
	 viewBox="0 0 36 36" enable-background="new 0 0 36 36" xml:space="preserve">
<g>
	<rect y="0" fill="none" width="36" height="36"/>
	<path fill="#009FDB" d="M15,21.4v-1.1c0-0.6,0.1-1.2,0.2-1.6c0.2-0.5,0.4-0.9,0.8-1.2c0.4-0.4,0.9-0.7,1.5-1.1
		c0.5-0.3,0.9-0.5,1.2-0.7c0.3-0.2,0.5-0.4,0.6-0.6c0.1-0.2,0.2-0.4,0.2-0.7c0-0.4-0.1-0.7-0.4-1c-0.3-0.2-0.7-0.4-1.1-0.4
		c-0.4,0-0.7,0.1-1.1,0.2c-0.4,0.1-0.7,0.4-1.2,0.7l-0.6-1.1c0.5-0.4,1-0.7,1.5-0.8c0.5-0.2,1-0.3,1.5-0.3c0.6,0,1.1,0.1,1.5,0.3
		c0.4,0.2,0.8,0.5,1,0.9c0.2,0.4,0.4,0.8,0.4,1.3c0,0.6-0.2,1.2-0.6,1.7c-0.4,0.5-1.1,1-2.1,1.5c-0.5,0.3-0.8,0.5-1.1,0.7
		s-0.4,0.5-0.5,0.8c-0.1,0.3-0.2,0.7-0.2,1.1H21v1.3H15z M28.7,6.3H7.3C5.5,6.3,4.1,7.8,4,9.6l0,16.7c0,1.8,1.5,3.3,3.3,3.3h21.3
		c1.8,0,3.3-1.5,3.3-3.3V9.6C32,7.8,30.5,6.3,28.7,6.3z M28.7,21.1c0,0.7-0.7,1.3-1.4,1.3h-1.8v1c0,0.4-0.3,0.7-0.8,0.7h-2.7v1.6
		c0,0.4-0.3,0.7-0.8,0.7h-6.8c-0.4,0-0.7-0.3-0.7-0.7v-1.6h-2.7c-0.4,0-0.7-0.3-0.7-0.7v-1H8.6c-0.7,0-1.3-0.6-1.3-1.3V10.6
		c0-0.7,0.6-1.3,1.3-1.3l18.8,0c0.7,0,1.3,0.6,1.3,1.3V21.1z"/>
</g>
</svg>
