<?xml version="1.0" encoding="utf-8"?>
<!-- Generator: Adobe Illustrator 18.1.0, SVG Export Plug-In . SVG Version: 6.00 Build 0)  -->
<svg version="1.1" id="Layer_1" xmlns="http://www.w3.org/2000/svg" xmlns:xlink="http://www.w3.org/1999/xlink" x="0px" y="0px"
	 viewBox="0 0 36 36" enable-background="new 0 0 36 36" xml:space="preserve">
<g>
	<rect y="0" fill="none" width="36" height="36"/>
	<path fill="#009FDB" d="M15.2,21.4v-0.7c0-0.7,0.1-1.3,0.2-1.8c0.2-0.5,0.4-0.9,0.8-1.3c0.4-0.4,0.9-0.7,1.5-1.1
		c0.6-0.3,1-0.6,1.3-0.8c0.3-0.2,0.5-0.4,0.6-0.7c0.1-0.2,0.2-0.5,0.2-0.8c0-0.5-0.2-0.9-0.5-1.2c-0.3-0.3-0.8-0.4-1.3-0.4
		c-0.8,0-1.5,0.3-2.2,0.9l-0.5-0.7c0.9-0.7,1.8-1.1,2.8-1.1c0.6,0,1,0.1,1.5,0.3c0.4,0.2,0.8,0.5,1,0.9c0.2,0.4,0.3,0.8,0.3,1.3
		c0,0.4-0.1,0.8-0.2,1.1c-0.2,0.3-0.4,0.7-0.8,1c-0.4,0.3-0.9,0.7-1.6,1c-0.5,0.3-0.9,0.5-1.2,0.8c-0.3,0.3-0.5,0.6-0.6,0.9
		c-0.1,0.4-0.2,0.8-0.2,1.4H21v0.9H15.2z M28.8,29.9H7.3c-2,0-3.7-1.7-3.7-3.7V9.4c0-2,1.6-3.7,3.7-3.7h21.6c2,0,3.7,1.6,3.7,3.7
		l0,16.8C32.4,28.3,30.8,29.9,28.8,29.9z M7.2,6.5c-1.6,0-2.9,1.3-2.9,2.9v16.8c0,1.6,1.4,2.9,3,2.9h21.5c1.6,0,2.9-1.3,2.9-2.9
		l0-16.8c0-1.6-1.3-2.9-2.9-2.9H7.2z M22.6,25.8v-1.3h2.3c0.6,0,1.1-0.5,1.1-1.1v-0.6h1.4c0.9,0,1.7-0.8,1.7-1.7V10.4
		c0-0.9-0.8-1.7-1.7-1.7l-19.7,0c-0.2,0-0.4,0.2-0.4,0.4c0,0.2,0.2,0.4,0.4,0.4l19.7,0c0.5,0,1,0.4,1,1v10.6c0,0.5-0.4,1-0.9,1h-1.8
		c-0.2,0-0.4,0.2-0.4,0.4v1c0,0.2-0.2,0.4-0.4,0.4h-2.7c-0.2,0-0.4,0.2-0.4,0.4v1.7c0,0.2-0.2,0.4-0.4,0.4h-6.8
		c-0.2,0-0.4-0.2-0.4-0.4v-1.7c0-0.2-0.2-0.4-0.4-0.4h-2.7c-0.2,0-0.4-0.2-0.4-0.4v-1c0-0.2-0.2-0.4-0.4-0.4H8.6c-0.5,0-1-0.4-1-1
		v-4.9c0-0.2-0.2-0.4-0.4-0.4c-0.2,0-0.4,0.2-0.4,0.4v4.9c0,0.9,0.8,1.7,1.8,1.7H10v0.7c0,0.6,0.5,1.1,1.1,1.1h2.3v1.3
		c0,0.6,0.5,1.1,1.1,1.1h6.8C22.1,27,22.6,26.5,22.6,25.8z"/>
</g>
</svg>
