<svg xmlns="http://www.w3.org/2000/svg" viewBox="0 0 36 36"><path fill="none" d="M0 0h36v36H0z"/><g fill="#0568ae"><path d="M25.3 28.9c-2.2 1.5-4.7 2.2-7.3 2.2-.7 0-1.5-.1-2.2-.2l5.2-6.5c.1-.2.1-.4-.1-.5-.2-.1-.4-.1-.5.1l-6.9 8.5 3.7-12.7c0-.1 0-.2-.1-.3-.1-.1-.2-.2-.3-.2H9.6l2.8-3.5c.1-.2.1-.4-.1-.5-.2-.1-.4-.1-.5.1l-3.3 4.1c-.1.1-.1.3 0 .4s.2.2.3.2h7.5l-4.1 14c-.1.2 0 .4.2.4h.2c.1 0 .2 0 .3-.1l2.3-2.8c.9.2 1.8.3 2.8.3 2.8 0 5.4-.8 7.7-2.3.2-.1.2-.3.1-.5-.1-.3-.3-.3-.5-.2zM6.6 10.1c-1.6 2.3-2.4 5-2.4 7.9 0 2.5.7 4.9 1.9 7 .1.1.2.2.3.2.1 0 .1 0 .2-.1.2-.1.2-.3.1-.5-1.2-2-1.8-4.3-1.8-6.6 0-2.7.8-5.2 2.3-7.4.1-.2.1-.4-.1-.5-.2-.2-.4-.1-.5 0zM28.1 27.5c2.5-2.6 3.8-6 3.8-9.5 0-5.8-3.6-11-9.1-13l.9-3.1c.1-.2 0-.4-.2-.4-.2-.1-.4 0-.5.1l-2.3 2.8c-.9-.2-1.8-.3-2.8-.3-3.6 0-6.9 1.4-9.5 3.8L6.3 5.7c-.1-.1-.4-.1-.5 0s-.1.4 0 .5l21.5 21.5 2.4 2.4c.1.1.2.1.3.1s.2 0 .3-.1c.1-.1.1-.4 0-.5l-2.2-2.1zm3-9.5c0 3.4-1.3 6.6-3.6 9l-4.7-4.7 4.7-5.7c.1-.1.1-.3 0-.4-.1-.1-.2-.2-.3-.2h-7.6l3-10.2c5.1 1.8 8.5 6.7 8.5 12.2zm-12.4-1.8c0 .1 0 .2.1.3.1.1.2.1.3.1h7.3l-4.1 5.1-8-8 8.2-10.2-3.8 12.7zM18 4.9c.7 0 1.5.1 2.2.2l-6.5 8.1L9 8.5c2.4-2.3 5.6-3.6 9-3.6z"/></g></svg>