<svg xmlns="http://www.w3.org/2000/svg" viewBox="0 0 36 36"><path fill="none" d="M0 0h36v36H0z"/><path fill="none" d="M.1.1H36V36H.1z"/><g fill="#0568ae"><path d="M6.5 18c0-2.5.8-4.7 2.1-6.6L7.2 10c-1.7 2.2-2.7 5-2.7 8 0 5.3 3 9.9 7.5 12.1l.6-2C8.9 26.2 6.5 22.4 6.5 18z"/><path d="M12.5 15.3l-3.3 4c-.1.1-.1.2 0 .4.1.1.2.2.3.2h6.9l-3.8 12.9c0 .2 0 .3.2.4h.2c.1 0 .2 0 .3-.1l7.6-9.4-8.4-8.4zM18.2 29.5l-1.6 1.9c.4 0 .9.1 1.3.1 3 0 5.8-1 8-2.7l-1.4-1.4c-1.7 1.3-3.9 2.1-6.3 2.1zM28.6 26.4c1.8-2.3 2.9-5.2 2.9-8.4 0-5.3-3-9.9-7.5-12.1l-.6 2c3.6 1.9 6.1 5.8 6.1 10.1 0 2.6-.9 5-2.4 7l-4-4 3.6-4.4c.1-.1.1-.2 0-.4-.1-.1-.2-.2-.3-.2h-7l3.8-12.9c0-.2 0-.3-.2-.4h-.2c-.1 0-.2 0-.3.1l-7.9 9.8L11 8.9c1.9-1.4 4.2-2.3 6.7-2.4l1.6-1.9c-.4 0-.9-.1-1.3-.1-3.2 0-6.1 1.1-8.4 2.9L7.1 5c-.4-.4-1-.4-1.4 0-.4.4-.4 1 0 1.4l24 24c.2.2.5.3.7.3s.5-.1.7-.3c.4-.4.4-1 0-1.4l-2.5-2.6z"/></g></svg>