<svg xmlns="http://www.w3.org/2000/svg" viewBox="0 0 36 36" enable-background="new 0 0 36 36"><path fill="none" d="M0 0h36v36h-36z"/><path d="M20.25 30.07c-.407.363-.826.635-1.25.801v-6.308c.276.021.549.056.822.093.203-.673.502-1.304.875-1.883-.559-.099-1.123-.178-1.697-.215v-3.736h5.106c-.013.378-.036.746-.063 1.11.636-.274 1.319-.458 2.031-.547l.033-.563h5.102c-.042.561-.129 1.109-.239 1.648.642.402 1.219.896 1.711 1.468.368-1.31.57-2.69.57-4.116 0-4.121-1.646-7.863-4.311-10.61l-.066-.079-.04-.032c-2.767-2.794-6.601-4.528-10.834-4.528s-8.067 1.734-10.833 4.529l-.04.032-.066.079c-2.665 2.747-4.311 6.489-4.311 10.61 0 4.121 1.646 7.863 4.311 10.61l.066.079.04.032c2.766 2.794 6.6 4.529 10.833 4.529 1.427 0 2.806-.201 4.117-.57-.779-.67-1.415-1.498-1.867-2.433zm10.958-13.247h-5.102c-.066-2-.327-3.884-.752-5.586.981-.542 1.906-1.199 2.76-1.959 1.752 2.069 2.879 4.681 3.094 7.545zm-4.498-8.973c-.61.534-1.26 1.009-1.944 1.417-.521-1.465-1.174-2.742-1.93-3.778 1.428.563 2.736 1.366 3.874 2.361zm-7.71-3.076c1.521.596 2.997 2.512 3.971 5.385-1.256.508-2.592.82-3.971.923v-6.308zm0 8.313c1.565-.101 3.082-.437 4.513-.991.324 1.42.534 3.005.593 4.727h-5.106v-3.736zm-5.835-7.597c-.756 1.036-1.41 2.313-1.93 3.778-.685-.409-1.335-.883-1.945-1.418 1.138-.995 2.446-1.798 3.875-2.36zm-5.28 3.787c.854.76 1.779 1.417 2.76 1.959-.424 1.703-.686 3.587-.752 5.586h-5.101c.215-2.863 1.342-5.475 3.093-7.545zm-3.093 9.546h5.102c.066 2 .327 3.884.752 5.586-.981.543-1.906 1.199-2.76 1.959-1.752-2.07-2.879-4.682-3.094-7.545zm4.498 8.972c.61-.535 1.26-1.009 1.945-1.417.521 1.465 1.174 2.742 1.93 3.778-1.429-.563-2.737-1.366-3.875-2.361zm7.71 3.076c-1.521-.597-2.997-2.512-3.971-5.385 1.256-.508 2.592-.82 3.971-.922v6.307zm0-8.312c-1.565.101-3.082.437-4.513.991-.324-1.42-.534-3.005-.593-4.727h5.106v3.736zm0-5.736h-5.106c.059-1.722.269-3.308.593-4.727 1.431.555 2.948.891 4.513.991v3.736zm0-5.741c-1.379-.102-2.715-.414-3.971-.923.974-2.873 2.45-4.789 3.971-5.385v6.308zm11.021 13.939v1.157h-2.042v-1.157c0-.526.458-.954 1.021-.954s1.021.428 1.021.954zm-1.021-4.198c-3.313 0-6 2.686-6 6 0 3.313 2.687 6 6 6s6-2.687 6-6c0-3.314-2.687-6-6-6zm2.276 9.139h-4.532c-.266 0-.481-.207-.484-.465v-2.836c0-.266.207-.481.464-.483h.067v-1.157c0-1.181.991-2.141 2.208-2.141 1.218 0 2.208.96 2.208 2.141v1.157h.046c.266 0 .48.207.484.465l.001 2.836c.001.266-.206.481-.462.483z" fill="#0568ae"/></svg>