<svg xmlns="http://www.w3.org/2000/svg" viewBox="0 0 36 36" enable-background="new 0 0 36 36"><path fill="none" d="M0 0h36v36h-36z"/><path d="M32.34 23.396c.667-1.75 1.009-3.593 1.009-5.484 0-8.381-6.742-15.213-15.087-15.368v-.007h-.75v.012c-8.264.245-14.913 7.04-14.913 15.363 0 8.076 6.261 14.712 14.182 15.324l.095.012.021-.003c.324.022.649.037.978.04l.013.002.006-.002.08.002c1.922 0 3.794-.353 5.568-1.042 1.003.657 2.198 1.042 3.483 1.042 3.515 0 6.375-2.86 6.375-6.375.001-1.299-.392-2.507-1.06-3.516zm-5.314-2.859c-.436 0-.863.044-1.275.128.07-.782.111-1.573.12-2.367h6.72c-.039 1.51-.304 2.986-.793 4.4-1.17-1.322-2.873-2.161-4.772-2.161zm-8.227 11.974l-.537.019v-9.213c1.094.027 2.178.174 3.234.436-.535.933-.846 2.009-.846 3.159 0 1.287.386 2.483 1.044 3.486-.881 1.115-1.876 1.847-2.894 2.112l-.001.001zm-1.876-.016l-.388-.127-.152-.07-.276-.128-.179-.105-.242-.145-.189-.137-.223-.165-.191-.166-.211-.186-.19-.192-.201-.208-.186-.217-.192-.229-.181-.24-.184-.251-.175-.261-.177-.272-.165-.281-.17-.295-.156-.298-.162-.317-.147-.314-.154-.339-.136-.328-.145-.362-.125-.341-.135-.382-.113-.355-.125-.402-.103-.366-.072-.27c1.901-.901 3.928-1.383 6.036-1.434v9.216l-.591-.033zm-7.348-7.562c-.229.143-.449.298-.67.453l-.435.301c-.239.179-.467.372-.696.564l-.344.284c-.249.221-.485.457-.72.694-2.021-2.439-3.263-5.544-3.35-8.931h6.542c.023 2.102.253 4.133.698 6.04l-.002.001v.003l-.536.309-.487.282zm1.819-13.395c1.928.915 3.982 1.402 6.118 1.449v4.561h-6.856c.03-2.079.283-4.135.738-6.01zm21.196 6.01h-6.723c-.03-2.237-.298-4.379-.804-6.381l.01-.005-.003-.013c1.417-.769 2.704-1.756 3.834-2.941 2.221 2.499 3.598 5.762 3.686 9.34zm-8.218-6.038c.46 1.879.715 3.945.745 6.038h-6.854v-4.563999999999999c2.134-.056 4.185-.551 6.109-1.474zm-6.11.731v-8.935c2.459.26 4.692 3.062 5.928 7.465-1.863.919-3.854 1.412-5.928 1.47zm-.75.002c-2.076-.048-4.068-.533-5.937-1.444 1.234-4.42 3.473-7.233 5.937-7.493v8.937zm0 6.055v4.267c-2.165.05-4.249.533-6.208 1.438-.409-1.805-.629-3.718-.651-5.704h6.859zm4.425 4.79c-1.197-.319-2.43-.5-3.675-.529v-4.26h6.858c-.01.866-.055 1.731-.138 2.581-1.226.415-2.281 1.194-3.045 2.208zm6.454-15.428c-1.044 1.1-2.23 2.018-3.531 2.745-.925-3.196-2.384-5.586-4.104-6.849 2.959.571 5.6 2.036 7.635 4.104zm-13.433-4.059c-1.701 1.279-3.139 3.66-4.054 6.835-.618-.343-1.224-.724-1.794-1.158-.166-.126-.402-.093-.527.072-.125.164-.093.4.071.525.649.493 1.333.935 2.04 1.315v.003l.001.001c-.501 1.996-.76 4.133-.79 6.353h-6.545c.167-6.868 5.091-12.576 11.598-13.946zm-7.753 24.194c.231-.235.464-.467.709-.684l.318-.265c.216-.182.432-.363.657-.532l.398-.28c.209-.147.42-.294.637-.431l.443-.262.426-.236.056.196.112.388.134.432.123.373.145.411.135.358.157.389.144.34.169.368.154.322.18.346.164.303.19.323.172.283.201.301.18.261.21.277.187.239.221.254.193.216.233.231.196.19.245.208.077.066c-2.96-.665-5.583-2.226-7.566-4.385zm13.72 4.441c.43-.336.843-.743 1.234-1.216.208.247.436.474.681.687-.628.22-1.267.396-1.915.529zm6.101.301c-3.102 0-5.625-2.523-5.625-5.625s2.523-5.625 5.625-5.625c3.101 0 5.625 2.523 5.625 5.625s-2.524 5.625-5.625 5.625zm1.444-4.453c0 .207-.168.375-.375.375h-1.884c-.207 0-.375-.168-.375-.375s.168-.375.375-.375h1.884c.207 0 .375.168.375.375zm.757-2.033v-1.014c0-1.105-.929-2.004-2.075-2.004-1.144 0-2.075.899-2.075 2.004v1.013c-.398.039-.712.379-.712.793v2.5c.004.431.363.781.801.781h3.9939999999999998c.43-.004.779-.363.779-.801l-.001-2.502c-.004-.399-.317-.725-.711-.77zm-2.075-2.267c.73 0 1.325.563 1.325 1.254v1.005h-2.649v-1.005c0-.692.595-1.254 1.324-1.254zm2.003 5.591h-3.988l-.051-.034v-2.497l.033-.051h3.989l.051.034.001 2.497-.035.051z" fill="#0568ae"/></svg>