<svg xmlns="http://www.w3.org/2000/svg" viewBox="0 0 36 36" enable-background="new 0 0 36 36"><path fill="none" d="M0 0h35.999v36h-35.999zM0 0h35.999v36h-35.999z"/><path d="M30.82 5.961h-25.641c-1.301 0-2.36 1.059-2.36 2.36v19.003c0 1.301 1.059 2.36 2.36 2.36h25.641c1.301 0 2.36-1.059 2.36-2.36v-19.003c0-1.301-1.059-2.36-2.36-2.36zm-18.16 2.004c.571 0 1.035.463 1.035 1.033 0 .57-.464 1.033-1.035 1.033-.568 0-1.03-.463-1.03-1.033 0-.569.462-1.033 1.03-1.033zm-3.351 0c.57 0 1.033.463 1.033 1.033 0 .57-.464 1.033-1.033 1.033-.568 0-1.031-.463-1.031-1.033 0-.569.463-1.033 1.031-1.033zm-3.35 0c.569 0 1.032.463 1.032 1.033 0 .57-.463 1.033-1.032 1.033s-1.032-.463-1.032-1.033c-.001-.569.463-1.033 1.032-1.033zm25.221 19.359c0 .198-.162.36-.36.36h-25.641c-.198 0-.36-.162-.36-.36v-15.019c0-.198.162-.36.36-.36h25.641c.198 0 .36.162.36.36v15.019zm-2.251-4.14h-8.279c-.414 0-.75-.336-.75-.75s.336-.75.75-.75h8.279c.414 0 .75.336.75.75s-.336.75-.75.75zm0 3h-8.279c-.414 0-.75-.336-.75-.75s.336-.75.75-.75h8.279c.414 0 .75.336.75.75s-.336.75-.75.75zm-10.529-.36c0 .198-.162.36-.36.36h-11.363c-.198 0-.36-.162-.36-.36v-11.857c0-.198.162-.36.36-.36h11.363c.198 0 .36.162.36.36v11.857zm11.279-6c0 .198-.162.36-.36.36h-9.059c-.198 0-.36-.162-.36-.36v-5.858c0-.198.162-.36.36-.36h9.059c.198 0 .36.162.36.36v5.858z" fill="#0568ae"/></svg>