<svg xmlns="http://www.w3.org/2000/svg" viewBox="0 0 36 36" enable-background="new 0 0 36 36"><path fill="none" d="M.001 0h35.999v36h-35.999z"/><path d="M30.252 6.94h-24.501c-1.273 0-2.306 1.034-2.306 2.306v17.299c0 1.27 1.034 2.303 2.306 2.303h24.501c1.271 0 2.304-1.033 2.304-2.303v-17.299c0-1.271-1.033-2.306-2.304-2.306zm1.554 19.605c0 .856-.697 1.553-1.554 1.553h-24.501c-.859 0-1.556-.697-1.556-1.553v-13.549h20.864c.207 0 .375-.168.375-.375s-.168-.375-.375-.375h-20.864v-3c0-.858.698-1.556 1.556-1.556h24.501c.857 0 1.554.698 1.554 1.556v17.299zm-24.373-16.523c0 .433-.349.783-.782.783-.433 0-.782-.35-.782-.783 0-.432.35-.783.782-.783.432 0 .782.351.782.783zm2.918 0c0 .433-.349.783-.783.783-.43 0-.781-.35-.781-.783 0-.432.351-.783.781-.783.433 0 .783.351.783.783zm2.918 0c0 .433-.35.783-.785.783-.432 0-.78-.35-.78-.783 0-.432.348-.783.78-.783.435 0 .785.351.785.783zm5.257 5.911v9.154c0 .604-.491 1.095-1.096 1.095h-10.329c-.207 0-.376-.168-.376-.375s.168-.375.376-.375h10.33c.191 0 .346-.155.346-.345v-9.154c0-.19-.155-.345-.346-.345h-10.33c-.19 0-.344.155-.344.345v5.784c0 .207-.169.375-.375.375-.207 0-.375-.168-.375-.375v-5.784c0-.604.49-1.095 1.094-1.095h10.33c.604 0 1.095.492 1.095 1.095zm10.375-1.095h-7.684c-.604 0-1.095.491-1.095 1.095v3.108c0 .603.491 1.095 1.095 1.095h7.684c.604 0 1.094-.491 1.094-1.095v-3.108c.001-.603-.49-1.095-1.094-1.095zm.344 4.203c0 .19-.153.345-.343.345h-7.684c-.19 0-.345-.155-.345-.345v-3.108c0-.19.155-.345.345-.345h7.684c.19 0 .343.155.343.345v3.108zm.751 2.744c0 .207-.168.375-.375.375h-9.123c-.206 0-.375-.168-.375-.375s.169-.375.375-.375h9.123c.207 0 .375.168.375.375zm0 2.011c0 .207-.168.375-.375.375h-9.123c-.206 0-.375-.168-.375-.375s.169-.375.375-.375h9.123c.207 0 .375.168.375.375zm0 2.011c0 .207-.168.375-.375.375h-9.123c-.206 0-.375-.168-.375-.375s.169-.375.375-.375h9.123c.207 0 .375.168.375.375z" fill="#0568ae"/></svg>