<svg xmlns="http://www.w3.org/2000/svg" viewBox="0 0 36 36" enable-background="new 0 0 36 36"><path fill="none" d="M0 0h36v36h-36z"/><path d="M18.002 24.962c-1.287 0-2.334 1.047-2.334 2.333 0 1.286 1.047 2.331 2.334 2.331 1.286 0 2.332-1.045 2.332-2.331 0-1.287-1.046-2.333-2.332-2.333zm0 3.914c-.874 0-1.584-.709-1.584-1.581 0-.873.71-1.583 1.584-1.583.872 0 1.582.71 1.582 1.583 0 .872-.709 1.581-1.582 1.581zm14.411-16.921c-.13.161-.367.186-.528.056-2.813-2.274-6.193-3.833-9.773-4.508-6.399-1.2-12.958.484-17.996 4.619-.069.057-.153.085-.237.085-.108 0-.216-.047-.29-.137-.131-.16-.108-.396.052-.528 5.21-4.275 11.994-6.016 18.611-4.777 3.702.698 7.196 2.31 10.106 4.662.16.13.185.366.055.528zm-3.995 4.28c.164.127.194.362.068.526-.074.096-.185.146-.297.146-.08 0-.161-.025-.229-.078-2.06-1.591-4.407-2.64-6.976-3.118-4.534-.854-9.252.257-12.946 3.047-.167.125-.401.092-.525-.073-.125-.165-.092-.401.073-.525 3.863-2.917 8.797-4.078 13.536-3.185 2.686.499 5.141 1.596 7.296 3.26zm-3.872 4.826c.164.126.196.361.069.525-.073.097-.185.147-.298.147-.08 0-.16-.025-.227-.078-1.237-.948-2.668-1.58-4.252-1.878-2.781-.521-5.671.163-7.931 1.875-.165.126-.4.093-.525-.072-.125-.165-.093-.4.072-.525 2.428-1.841 5.538-2.575 8.523-2.015 1.702.322 3.239 1.002 4.569 2.021z" fill="#0568ae"/></svg>