<svg xmlns="http://www.w3.org/2000/svg" viewBox="0 0 36 36" enable-background="new 0 0 36 36"><path fill="none" d="M0 0h36v36h-36z"/><path d="M28.009 18c3.313 0 6 2.687 6 6s-2.687 6-6 6c-1.198 0-2.311-.355-3.247-.96l-.131-.094 2.092-2.093c.403.181.837.272 1.271.272.796 0 1.593-.304 2.201-.913.798-.799 1.066-1.919.826-2.938-.021-.087-.093-.16-.189-.16-.061 0-.131.029-.203.101l-1.715 1.714c-.253.253-.583.379-.913.379-.328 0-.655-.125-.904-.374-.501-.5-.499-1.314.004-1.818l1.75-1.75c.179-.179.027-.327-.088-.355-.243-.06-.492-.09-.741-.09-.796 0-1.594.305-2.204.914-.94.939-1.155 2.33-.642 3.471l-2.097 2.097-.096-.131c-.614-.942-.975-2.064-.975-3.272.001-3.313 2.688-6 6.001-6m-8.522-2.519c1.75.343 3.382 1.007 4.872 1.973 1.027-.575 2.202-.911 3.453-.944-.087-.152-.199-.292-.343-.409-2.189-1.78-4.686-2.954-7.417-3.489-4.825-.957-9.846.284-13.773 3.406-.632.502-.737 1.422-.235 2.054.502.632 1.422.737 2.054.235 3.254-2.586 7.405-3.616 11.389-2.826zm1.069-6.209c3.215.638 6.251 2.113 8.78 4.264.615.524 1.538.449 2.061-.166.523-.615.449-1.538-.166-2.061-2.908-2.474-6.402-4.171-10.107-4.906-6.629-1.307-13.417.525-18.627 5.026-.611.528-.678 1.451-.151 2.062.289.335.697.506 1.107.506.338 0 .679-.117.955-.356 4.525-3.908 10.411-5.5 16.148-4.369zm-2.159 12.276c.819.162 1.581.45 2.293.832.218-.983.628-1.892 1.191-2.69-.91-.465-1.883-.806-2.916-1.011-3.165-.625-6.449.191-9.011 2.237-.631.504-.734 1.424-.23 2.055.504.631 1.424.734 2.055.23 1.887-1.507 4.301-2.109 6.618-1.653zm-1.527 3.547c-1.356 0-2.459 1.103-2.459 2.459 0 1.354 1.103 2.456 2.459 2.456 1.355 0 2.458-1.102 2.458-2.456 0-1.356-1.103-2.459-2.458-2.459z" fill="#0568ae"/></svg>