<?xml version="1.0" encoding="utf-8"?>
<!-- Generator: Adobe Illustrator 18.1.0, SVG Export Plug-In . SVG Version: 6.00 Build 0)  -->
<svg version="1.1" id="Layer_1" xmlns="http://www.w3.org/2000/svg" xmlns:xlink="http://www.w3.org/1999/xlink" x="0px" y="0px"
	 viewBox="0 0 36 36" enable-background="new 0 0 36 36" xml:space="preserve">
<g>
	<rect y="0" fill="none" width="36" height="36"/>
	<g>
		<path fill="#009FDB" d="M18,25c-1.3,0-2.3,1-2.3,2.3c0,1.3,1,2.3,2.3,2.3c1.3,0,2.3-1,2.3-2.3C20.3,26,19.3,25,18,25z M18,28.9
			c-0.9,0-1.6-0.7-1.6-1.6c0-0.9,0.7-1.6,1.6-1.6c0.9,0,1.6,0.7,1.6,1.6C19.6,28.2,18.9,28.9,18,28.9z"/>
		<path fill="#009FDB" d="M24.3,7.6c0.1-0.2-0.1-0.4-0.3-0.5c-0.6-0.2-1.2-0.3-1.8-0.4C15.6,5.5,8.8,7.3,3.6,11.5
			c-0.2,0.1-0.2,0.4-0.1,0.5c0.1,0.1,0.2,0.1,0.3,0.1c0.1,0,0.2,0,0.2-0.1c5-4.1,11.6-5.8,18-4.6c0.6,0.1,1.2,0.2,1.7,0.4
			C24,7.9,24.2,7.8,24.3,7.6z"/>
		<path fill="#009FDB" d="M21,13.7c0.3,0,0.5,0.1,0.8,0.2c0.2,0,0.4-0.1,0.5-0.3c0-0.2-0.1-0.4-0.3-0.5c-0.3-0.1-0.5-0.1-0.8-0.2
			c-4.7-0.9-9.7,0.3-13.5,3.2c-0.2,0.1-0.2,0.4-0.1,0.5c0.1,0.1,0.2,0.1,0.3,0.1c0.1,0,0.2,0,0.2-0.1C11.7,14,16.5,12.9,21,13.7z"/>
		<path fill="#009FDB" d="M22,19.6c-0.1,0-0.2-0.1-0.2-0.1c-0.6-0.2-1.2-0.4-1.8-0.5c-3-0.6-6.1,0.2-8.5,2c-0.2,0.1-0.2,0.4-0.1,0.5
			c0.1,0.1,0.2,0.1,0.3,0.1c0.1,0,0.2,0,0.2-0.1c2.3-1.7,5.1-2.4,7.9-1.9c0.6,0.1,1.1,0.3,1.7,0.5c0.1,0,0.1,0.1,0.2,0.1
			c0.2,0.1,0.4,0,0.5-0.2C22.3,19.9,22.2,19.7,22,19.6z"/>
		<path fill="#009FDB" d="M30.1,13.4h0.7c0.6,0,1.1-0.5,1.1-1V6.6c0-0.2-0.1-0.4-0.2-0.6c-0.2-0.2-0.5-0.3-0.8-0.3l-0.3,0.1
			c-3.7,0.6-6.5,4.5-6.5,8.9v6.9c0,3.8,2.1,7.3,5.1,8.5c0,0,0.1,0,0.1,0c0.1,0,0.3-0.1,0.3-0.2c0.1-0.2,0-0.4-0.2-0.5
			c-2.8-1.1-4.6-4.3-4.6-7.8v-6.9c0-4.1,2.5-7.6,5.9-8.2l0.3,0c0.1,0,0.2,0.1,0.2,0.1v5.8c0,0.1-0.1,0.3-0.3,0.3h-0.7
			c-1.5,0-2.7,1.2-2.7,2.7v5.7c0,1.5,1.2,2.7,2.7,2.7h0.7c0.2,0,0.3,0.1,0.3,0.3v5.7c0,0.2,0.2,0.4,0.4,0.4s0.4-0.2,0.4-0.4V24
			c0-0.6-0.5-1-1.1-1h-0.7c-1.1,0-1.9-0.9-1.9-1.9v-5.7C28.2,14.3,29.1,13.4,30.1,13.4z"/>
	</g>
</g>
</svg>
