<svg xmlns="http://www.w3.org/2000/svg" viewBox="0 0 36 36" enable-background="new 0 0 36 36"><path fill="none" d="M0 0h36v36h-36z"/><path d="M5.299 25.208c-.219 0-.436-.095-.584-.278-1.135-1.404-1.914-3.091-2.25-4.878-.599-3.195.242-6.47 2.305-8.985.262-.321.735-.367 1.055-.104.32.263.367.735.104 1.055-1.782 2.172-2.508 5-1.991 7.757.291 1.543.963 3 1.943 4.212.26.322.21.794-.112 1.055-.138.112-.305.166-.47.166zm2.66-1.955c.328-.253.388-.725.134-1.052-.671-.866-1.113-1.856-1.316-2.943-.36-1.913.11-3.904 1.288-5.464.25-.331.184-.801-.147-1.05-.33-.25-.801-.184-1.05.147-1.432 1.896-2.003 4.318-1.565 6.644.247 1.322.786 2.528 1.604 3.585.148.191.37.291.594.291.16-.001.321-.053.458-.158zm2.204-1.768c.329-.252.391-.723.139-1.052-.379-.495-.631-1.066-.749-1.698-.208-1.113.064-2.269.749-3.172.25-.33.186-.8-.145-1.051-.33-.25-.8-.186-1.051.144-.939 1.238-1.314 2.825-1.028 4.353.161.865.509 1.651 1.033 2.335.148.193.371.294.596.294.16.001.32-.049.456-.153zm20.28-.127c-.276 0-.5-.224-.5-.5s.224-.5.5-.5h2.287v-1.858h-2.287c-.276 0-.5-.224-.5-.5s.224-.5.5-.5h2.287v-1.858h-2.287c-.276 0-.5-.224-.5-.5s.224-.5.5-.5h2.287v-.778c0-.594-.486-1.08-1.08-1.08h-18.521c-.594 0-1.08.486-1.08 1.08v8.271c0 .594.486 1.08 1.08 1.08h18.521c.594 0 1.08-.486 1.08-1.08v-.778h-2.287z" fill="#0568ae"/></svg>