<svg xmlns="http://www.w3.org/2000/svg" viewBox="0 0 36 36" enable-background="new 0 0 36 36"><path fill="none" d="M0 0h36v36h-36z"/><path d="M20.459 27.553c0 1.354-1.103 2.456-2.457 2.456-1.356 0-2.46-1.102-2.46-2.456 0-1.356 1.103-2.458 2.46-2.458 1.355 0 2.457 1.103 2.457 2.458zm11.904-16.244c-2.908-2.474-6.402-4.171-10.107-4.906-6.629-1.307-13.417.525-18.627 5.026-.611.528-.679 1.451-.151 2.062.289.335.697.506 1.107.506.338 0 .679-.117.955-.356 4.525-3.909 10.411-5.501 16.148-4.37 3.215.638 6.251 2.113 8.78 4.264.615.523 1.538.449 2.061-.166.523-.614.449-1.536-.166-2.06zm-3.762 4.792c-2.189-1.78-4.686-2.954-7.417-3.489-4.825-.957-9.846.284-13.773 3.406-.632.503-.737 1.422-.235 2.054.502.632 1.422.737 2.054.235 3.253-2.586 7.403-3.616 11.388-2.826 2.259.443 4.324 1.415 6.138 2.889.271.22.597.328.921.328.425 0 .846-.185 1.135-.54.511-.627.416-1.547-.211-2.057zm-3.681 4.824c-1.406-1.134-3.028-1.889-4.824-2.245-3.165-.625-6.449.191-9.011 2.237-.631.504-.734 1.424-.231 2.055.504.631 1.424.734 2.055.23 1.889-1.508 4.303-2.11 6.62-1.654 1.326.263 2.522.819 3.556 1.653.27.218.594.324.917.324.427 0 .85-.186 1.139-.544.506-.629.408-1.549-.221-2.056z" fill="#0568ae"/></svg>