<svg xmlns="http://www.w3.org/2000/svg" viewBox="0 0 36 36" enable-background="new 0 0 36 36"><path fill="none" d="M0 0h36v36h-36z"/><path d="M31.412 12.41h-18.106c-1.001 0-1.814.814-1.814 1.815v7.551c0 1.001.814 1.815 1.814 1.815h18.107c1.001 0 1.815-.814 1.815-1.815v-7.551c-.001-1.001-.815-1.815-1.816-1.815zm0 10.43h-18.106c-.587 0-1.064-.478-1.064-1.065v-7.551c0-.587.477-1.065 1.064-1.065h18.107c.587 0 1.065.478 1.065 1.065v.796h-2.124c-.207 0-.375.168-.375.375s.168.375.375.375h2.124v1.855h-2.124c-.207 0-.375.168-.375.375s.168.375.375.375h2.124v1.854h-2.124c-.207 0-.375.168-.375.375s.168.375.375.375h2.124v.796c-.001.587-.479 1.065-1.066 1.065zm-25.922.752c.13.161.105.398-.056.527-.069.056-.153.083-.236.083-.108 0-.217-.047-.291-.139-.993-1.229-1.675-2.704-1.969-4.268-.524-2.795.211-5.66 2.017-7.861.132-.16.368-.183.527-.052.161.131.184.368.053.528-1.665 2.029-2.343 4.67-1.86 7.247.272 1.442.899 2.803 1.815 3.935zm1.993-1.616c.126.164.096.399-.067.525-.068.053-.149.079-.229.079-.113 0-.223-.05-.297-.146-.708-.916-1.176-1.96-1.39-3.105-.379-2.016.116-4.115 1.357-5.759.124-.165.359-.198.525-.073.166.125.198.36.074.525-1.115 1.475-1.559 3.359-1.218 5.168.191 1.028.61 1.964 1.245 2.786zm1.992-1.597c.126.164.095.4-.07.526-.068.052-.148.077-.227.077-.113 0-.225-.051-.298-.147-.443-.579-.737-1.244-.874-1.979-.243-1.296.075-2.641.872-3.691.125-.165.36-.197.525-.072.165.125.197.361.072.525-.668.882-.936 2.012-.731 3.1.114.619.36 1.177.731 1.661z" fill="#0568ae"/></svg>