<svg xmlns="http://www.w3.org/2000/svg" viewBox="0 0 36 36" enable-background="new 0 0 36 36"><path fill="none" d="M0 0h36v36h-36z"/><path d="M16.502 24.961c-.645 0-1.231.262-1.652.684-.421.421-.682 1.007-.682 1.65 0 .642.261 1.228.682 1.649.421.421 1.007.683 1.652.683 1.287 0 2.332-1.043 2.333-2.331-.001-1.29-1.046-2.334-2.333-2.335zm0 3.915c-.88 0-1.584-.707-1.584-1.581 0-.875.705-1.583 1.584-1.583.437 0 .831.177 1.118.464.287.288.464.681.464 1.12-.001.871-.71 1.578-1.582 1.58zm.047-21.752c-5.036 0-9.954 1.732-13.932 4.997-.16.131-.396.108-.528-.052-.131-.16-.108-.396.052-.528 4.112-3.375 9.2-5.168 14.408-5.168 1.397 0 2.804.129 4.202.391 3.705.698 7.192 2.306 10.106 4.662.161.13.186.366.056.527-.13.161-.366.186-.527.056-2.816-2.276-6.191-3.833-9.774-4.508-1.352-.252-2.712-.377-4.063-.377zm3.073 5.85zm7.768 3.183c-.183 0-.363.012-.542.027-2.131-1.629-4.569-2.716-7.226-3.21-1.049-.198-2.106-.295-3.159-.295-3.71 0-7.365 1.206-10.377 3.48-.165.125-.198.36-.073.525.125.165.36.198.525.073 2.881-2.175 6.377-3.329 9.925-3.329 1.007 0 2.018.093 3.021.282h.001c2.308.43 4.434 1.324 6.331 2.65-1.952.497-3.547 1.889-4.311 3.72-.941-.49-1.953-.837-3.027-1.039-.657-.123-1.32-.184-1.979-.184-2.343 0-4.651.763-6.544 2.198-.165.125-.197.361-.072.526.125.165.36.197.525.072 1.76-1.336 3.91-2.046 6.091-2.046.614 0 1.23.056 1.841.171 1.045.197 2.018.539 2.92 1.023-.155.551-.244 1.13-.244 1.731 0 3.521 2.855 6.375 6.375 6.375 3.521 0 6.375-2.854 6.375-6.375-.002-3.521-2.856-6.375-6.376-6.375zm-5.226 4.301c.285-.718.71-1.365 1.248-1.903 1.019-1.018 2.423-1.647 3.977-1.647 1.554 0 2.958.629 3.977 1.647 1.019 1.019 1.647 2.423 1.648 3.978 0 1.554-.629 2.958-1.648 3.977-1.019 1.019-2.423 1.647-3.977 1.648-1.554 0-2.958-.629-3.977-1.648-1.019-1.019-1.648-2.423-1.648-3.977 0-.461.062-.906.166-1.335.001-.001.082-.358.234-.74zm9.139 1.367c0 .825-.316 1.654-.947 2.286-.63.63-1.459.947-2.284.947-.363 0-.726-.064-1.073-.187l-1.528 1.53c-.146.147-.384.147-.53 0-.146-.146-.147-.384 0-.53l1.701-1.703c.11-.111.277-.141.419-.077.32.144.666.216 1.012.216.635 0 1.267-.242 1.753-.727.486-.487.727-1.12.728-1.755l-.021-.242-1.088 1.089h-.001c-.304.303-.705.457-1.102.457-.395 0-.794-.152-1.095-.453-.302-.301-.454-.699-.453-1.094 0-.398.153-.799.457-1.102l1.089-1.089-.241-.021c-.636 0-1.27.242-1.757.728-.486.485-.727 1.117-.727 1.752 0 .346.072.691.217 1.011.064.142.034.309-.076.419l-1.702 1.703c-.146.146-.384.147-.53 0-.146-.146-.147-.384 0-.53l1.53-1.531c-.123-.347-.187-.71-.187-1.073 0-.825.317-1.653.948-2.282.631-.631 1.461-.948 2.287-.948.38 0 .76.067 1.121.201.12.045.208.147.236.272.027.125-.011.255-.101.345l-1.573 1.573c-.159.16-.237.365-.238.573 0 .206.077.407.233.563.157.156.358.233.564.234.207 0 .412-.078.573-.238l1.572-1.572c.09-.09.22-.128.345-.101.125.027.227.116.272.236.13.36.197.74.197 1.12zm-4.057.85z" fill="#0568ae"/></svg>