<svg xmlns="http://www.w3.org/2000/svg" viewBox="0 0 36 36" enable-background="new 0 0 36 36"><path fill="none" d="M0 0h36v36h-36z"/><path d="M30.031 10.557l-1.088.674c-.168.104-.394.054-.501-.113 0 0-.163-.252-.356-.515-3.816-5.205-11.079-6.685-16.657-3.231-2.819 1.745-4.78 4.471-5.554 7.636l1.542.003c.287.001.384.191.215.424l-2.527 3.485-.077.106c-.127.174-.332.174-.458-.001l-.9-1.251-1.69-2.349c-.168-.234-.07-.425.217-.424l1.627.003c.811-3.873 3.141-7.221 6.552-9.333 6.533-4.044 15.058-2.256 19.448 3.923l.319.471c.107.166.057.388-.112.492zm-24.174 15.378l.319.471c4.39 6.179 12.915 7.966 19.448 3.923 3.411-2.111 5.741-5.46 6.552-9.333l1.627.003c.287 0 .385-.19.217-.423l-1.69-2.349-.9-1.251c-.126-.175-.332-.175-.458-.001l-.077.105-2.527 3.485c-.168.232-.072.423.215.424l1.542.003c-.774 3.165-2.734 5.891-5.554 7.636-5.579 3.453-12.842 1.974-16.657-3.231-.193-.263-.356-.515-.356-.515-.108-.166-.333-.217-.501-.113l-1.088.674c-.169.104-.219.326-.112.492zm17.536-14.49v13.11c0 1.323-.737 2.093-2.133 2.225-1.265.119-2.899.126-3.415.126h-.176c-.518 0-1.664-.006-2.93-.126-1.396-.132-2.133-.902-2.133-2.225v-13.526c0-1.325.738-1.678 2.133-1.809 1.266-.12 2.407-.126 2.923-.126h.175c.516 0 2.156.006 3.422.126 1.397.131 2.134.901 2.134 2.225zm-3.879 13.588c0-.35-.283-.634-.634-.634h-1.76c-.349 0-.634.284-.634.634 0 .351.286.634.634.635h1.76c.351 0 .634-.284.634-.635zm2.381-13.058c0-.297-.243-.54-.54-.54h-6.709c-.297 0-.54.243-.54.54v10.717c0 .297.243.54.54.54h6.709c.297 0 .54-.243.54-.54v-10.717z" fill="#0568ae"/></svg>