<svg xmlns="http://www.w3.org/2000/svg" viewBox="0 0 36 36" enable-background="new 0 0 36 36"><path fill="none" d="M0 0h36v36h-36z"/><path d="M8.585 14.519l-3.1 2.558c-.266.22-.58.338-.89.338l-.273-.031c-.394-.091-.727-.379-.911-.789l-1.652-3.662c-.085-.189-.001-.411.188-.496.189-.086.411-.001.496.188l1.652 3.663.117.182c.476-4.268 2.835-8.007 6.485-10.266 6.505-4.026 15.073-2.011 19.101 4.494.109.176.055.407-.122.516-.176.109-.407.054-.516-.121-3.809-6.153-11.914-8.06-18.068-4.251-3.447 2.134-5.676 5.662-6.132 9.692l.048-.033 3.101-2.559c.16-.132.396-.109.528.051.131.158.108.394-.052.526zm25.656 8.548l-1.653-3.663c-.185-.41-.517-.697-.911-.789-.391-.091-.817.02-1.163.307l-3.1 2.558c-.16.132-.182.368-.05.528.132.16.369.181.528.05l3.1-2.558.045-.031c-.454 3.978-2.72 7.579-6.128 9.69-6.154 3.81-14.259 1.902-18.068-4.251-.109-.176-.34-.231-.516-.122s-.23.34-.121.516c2.622 4.236 7.17 6.568 11.82 6.568 2.491 0 5.011-.669 7.28-2.074 3.611-2.236 6.009-6.054 6.481-10.271l.12.187 1.653 3.663c.062.139.199.221.342.221l.154-.033c.189-.084.272-.307.187-.496zm-12.775-13.98c1.185.111 1.837.796 1.837 1.929v13.969c0 1.132-.653 1.818-1.838 1.93-1.073.101-3.362.099-3.461.097h-.08c-.429 0-2.415-.005-3.39-.097-1.186-.112-1.838-.798-1.838-1.93v-13.969c0-1.133.653-1.818 1.839-1.929 1.073-.102 3.366-.097 3.466-.097.096 0 2.392-.005 3.465.097zm-.07.746c-1.038-.099-3.373-.095-3.393-.094h-.06c-.374 0-2.392.004-3.335.094-.802.075-1.159.439-1.159 1.182v13.969c0 .743.357 1.107 1.159 1.183 1.037.098 3.376.093 3.399.094.023-.002 2.353.004 3.39-.094.801-.076 1.158-.44 1.158-1.183v-13.968c-.002-.743-.359-1.108-1.159-1.183zm-2.504 14.462h-1.844c-.207 0-.375.168-.375.375s.168.375.375.375h1.844c.207 0 .375-.168.375-.375s-.168-.375-.375-.375zm-3.78-12.541c-.406 0-.736.329-.736.734v6.991c0 .207.168.375.375.375s.375-.168.375-.375l-.014-6.976 5.763-.016.015 9.92h-5.778c-.207 0-.375.168-.375.375s.168.375.375.375h5.778c.405 0 .735-.33.735-.737v-9.933c0-.405-.33-.734-.735-.734h-5.778z" fill="#0568ae"/></svg>