<svg xmlns="http://www.w3.org/2000/svg" viewBox="0 0 36 36"><path fill="none" d="M0 0h36v36H0z"/><g fill="#0568ae"><path d="M4.4 18.4l.9-3.9c.3-1.4 1.5-2.4 3-2.4h21v-1c0-.7-.6-1.4-1.4-1.4h-9.7l-2.7-2.5c-.2-.2-.5-.4-.8-.4H7.1c-1.9 0-3.4 1.5-3.4 3.4v8.2c.1.5.6.5.7 0z"/><path d="M32 14c-.2-.3-.5-.4-.9-.4H8.3c-.7 0-1.4.6-1.5 1.3l-3 13c-.1.4 0 .7.3 1 .2.1.5.3.9.3h23c.7 0 1.4-.6 1.5-1.3L32.2 15c.1-.4 0-.8-.2-1zm-11.1 8.3H19v1.9c0 .6-.4 1-1 1s-1-.4-1-1v-1.9h-1.9c-.6 0-1-.4-1-1s.4-1 1-1H17v-1.9c0-.6.4-1 1-1s1 .4 1 1v1.9h1.9c.6 0 1 .4 1 1s-.5 1-1 1z"/></g></svg>