<svg xmlns="http://www.w3.org/2000/svg" viewBox="0 0 36 36" enable-background="new 0 0 36 36"><path d="M19.828 29.122c.265.87.688 1.67 1.23 2.375h-12.872c-.998 0-1.809-.791-1.809-1.762v-24.916c0-.972.812-1.762 1.81-1.762h15.583c.499 0 1.141.266 1.494.619l3.746 3.746c.353.353.619.995.619 1.494v11.011c-.744-.279-1.542-.443-2.375-.471v-9.885h-3.764c-.207 0-.375-.168-.375-.375v-3.764h-13.863c-.275 0-.5.225-.5.5l.001 22.691c0 .275.225.5.5.5h10.575zm13.175-2.179c0 3.313-2.687 6-6 6s-6-2.687-6-6 2.686-6 6-6 6 2.686 6 6zm-2.139 0c0-.552-.448-1-1-1h-1.861v-1.862c0-.552-.448-1-1-1s-1 .448-1 1v1.862h-1.863c-.552 0-1 .448-1 1s.448 1 1 1h1.862v1.862c0 .552.448 1 1 1s1-.448 1-1v-1.862h1.861c.553 0 1.001-.448 1.001-1z" fill="#0568ae"/></svg>