<svg xmlns="http://www.w3.org/2000/svg" viewBox="0 0 36 36"><path fill="none" d="M0 0h36v36H0z"/><path fill="#0568ae" d="M29.8 13.1V6.8h.9c.9 0 1.5.7 1.5 1.5v3.2c0 .9-.7 1.5-1.5 1.5h-.9zm.9 8.1c.9 0 1.5-.7 1.5-1.5v-3.2c0-.9-.7-1.5-1.5-1.5h-.9v6.3h.9zm0 8c.9 0 1.5-.7 1.5-1.5v-3.2c0-.9-.7-1.5-1.5-1.5h-.9v6.3h.9zM28.3 5.6v24.8c0 .8-.7 1.5-1.5 1.5H5.7c-.8 0-1.5-.7-1.5-1.5V5.6c0-.8.7-1.5 1.5-1.5h21.1c.8 0 1.5.7 1.5 1.5zm-16 12.3l.6-.6c0-.1 0-.1-.1-.2-.1-.3-.1-.7-.1-1v-.5c-.2-.1-.4-.2-.7-.2.4-.3.7-.6.8-1.1 0-.2.1-.4.1-.5 0-1.1-.9-2-2-2s-2 .9-2 2c0 .2 0 .4.1.5.1.4.4.8.8 1.1h.1c-.7.2-1.2.5-1.5.8 0 .1-.1.1-.1.2-.1.2-.2.4-.2.6-.2.6-.4 1.4-.4 1.9 0 .2-.1.4-.1.5v.2c0 .6.6 1.1 1.5 1.4.6.2 1.2.3 2 .3h.2c.1-.6.3-1.4.5-2.1.1-.3.2-.6.3-.8 0-.2.1-.3.2-.5zm7.6 4.3c0-.1-.1-.3-.1-.5-.1-.8-.4-2-.7-2.7-.2-.5-.9-.9-1.7-1.1.4-.3.7-.7.9-1.2.1-.2.1-.4.1-.6 0-1.1-.9-2.1-2.1-2.1-1.1 0-2.1.9-2.1 2.1 0 .2 0 .4.1.6.1.5.4.9.8 1.1h.1c-.7.2-1.3.5-1.6.9 0 .1-.1.1-.1.2l-.3.6c-.2.6-.4 1.4-.5 2 0 .2-.1.4-.1.5v.2c0 .6.6 1.1 1.6 1.4.6.2 1.3.3 2.1.3 2.1 0 3.7-.8 3.7-1.7-.1.2-.1.1-.1 0zm5.1-2.7c0-.1 0-.3-.1-.5-.1-.8-.4-1.9-.7-2.5-.2-.5-.8-.8-1.6-1 .4-.3.7-.6.8-1.1 0-.2.1-.4.1-.5 0-1.1-.9-2-2-2s-2 .9-2 2c0 .2 0 .4.1.5.1.4.4.8.8 1.1h.1c-.2.1-.5.1-.7.2v.5c0 .3 0 .7-.1 1 0 .1 0 .1-.1.2.4.3.6.6.8 1 .3.6.6 1.6.8 3h.2c1.9 0 3.5-.7 3.5-1.7.1-.1.1-.1.1-.2z"/></svg>