<svg xmlns="http://www.w3.org/2000/svg" viewBox="0 0 36 36"><path fill="none" d="M0 0h36v36H0z"/><path fill="#0568ae" d="M20.2 22.4c-.2-.9-.4-2.1-.8-2.8-.2-.5-.7-.8-1.3-1.1.2-.3.4-.6.5-.9.1-.2.1-.4.1-.7 0-1.4-1.1-2.4-2.5-2.4s-2.5 1.1-2.5 2.4c0 .2 0 .5.1.7.1.3.3.6.5.9-.7.3-1.1.6-1.3 1.1-.3.6-.6 1.9-.8 2.8 0 .2-.1.4-.1.5v.3c0 1.2 1.8 2.1 4.1 2.1s4.1-.9 4.1-2.1v-.3c0-.2-.1-.3-.1-.5zm-4 2.2c-1.9 0-3.3-.7-3.3-1.4v-.1-.1c0-.1.1-.3.1-.5.2-1.2.5-2.1.7-2.6.2-.4.7-.7 1.5-.9.2 0 .3-.1.3-.3 0-.2 0-.3-.2-.4-.3-.2-.6-.6-.7-.9 0-.2-.1-.3-.1-.5 0-.9.8-1.7 1.7-1.7.9 0 1.7.8 1.7 1.7 0 .2 0 .3-.1.5-.1.4-.4.7-.7 1-.1.1-.1.2-.1.4 0 .1.2.3.3.3.7.2 1.3.5 1.5.9.2.4.5 1.4.7 2.6 0 .2.1.4.1.5v.2c0 .5-1.5 1.3-3.4 1.3zM12.5 15c0-.1.1-.3.1-.4 0-.9-.7-1.6-1.6-1.6-.9 0-1.6.7-1.6 1.6 0 .1 0 .3.1.4.1.4.3.7.7.9.1.1.2.2.2.4 0 .1-.1.3-.3.3H10c-.7.2-1.2.5-1.4.8-.2.4-.5 1.3-.7 2.4 0 .2-.1.4-.1.5v.2c0 .5.9 1.1 2.5 1.3h1.2c.2 0 .4.1.4.3 0 .2-.1.4-.3.4h-1.3c-1.9-.2-3.1-1-3.1-2v-.3c0-.1 0-.3.1-.5.2-.9.4-2 .7-2.6.2-.4.6-.8 1.2-1-.2-.3-.4-.5-.5-.9-.1-.2-.1-.4-.1-.6 0-1.3 1.1-2.3 2.3-2.3 1.3 0 2.3 1.1 2.3 2.3 0 .2 0 .4-.1.7-.1.3-.2.6-.4.8.2.1.3.1.5.2h.1c.2.1.2.3.1.5s-.4.2-.5.1c-.3-.2-.6-.3-.9-.4-.1 0-.3-.2-.3-.3 0-.1 0-.3.1-.4.4-.2.6-.5.7-.8zm12.9 5.1v.3c0 1-1.3 1.8-3.1 2H21c-.2 0-.4-.2-.3-.4 0-.2.2-.4.4-.3h1.2c1.5-.1 2.5-.8 2.5-1.3v-.1-.1c0-.1 0-.3-.1-.5-.2-1.1-.4-2-.7-2.4-.2-.4-.7-.7-1.4-.8-.1 0-.3-.1-.3-.3 0-.1 0-.3.1-.4.3-.2.6-.5.7-.9 0-.1.1-.3.1-.4 0-.9-.7-1.6-1.6-1.6-.9 0-1.6.7-1.6 1.6 0 .1 0 .3.1.4.1.4.3.7.6.9.1.1.2.2.2.4 0 .1-.1.3-.3.3-.4.1-.7.2-.9.3-.2.1-.4.1-.5-.1-.1-.2-.1-.4.1-.5.2-.1.3-.2.5-.2-.2-.2-.4-.5-.4-.8-.1-.2-.1-.4-.1-.7 0-1.3 1.1-2.3 2.3-2.3 1.3 0 2.3 1.1 2.3 2.3 0 .2 0 .4-.1.6-.1.3-.2.6-.5.9.6.2 1.1.6 1.3 1 .3.6.6 1.8.7 2.6 0 .3 0 .4.1.5zm6.8-11.2v3c0 1-.8 1.8-1.8 1.8h-.6c-.2 0-.4-.2-.4-.4s.2-.4.4-.4h.6c.6 0 1.1-.5 1.1-1.1v-3c0-.6-.5-1.1-1.1-1.1h-.6c-.2 0-.4-.2-.4-.4s.2-.4.4-.4h.6c1 .2 1.8 1 1.8 2zm0 7.6v3c0 1-.8 1.8-1.8 1.8h-.6c-.2 0-.4-.2-.4-.4s.2-.4.4-.4h.6c.6 0 1.1-.5 1.1-1.1v-3c0-.6-.5-1.1-1.1-1.1h-.6c-.2 0-.4-.2-.4-.4s.2-.4.4-.4h.6c1 .2 1.8 1 1.8 2zm0 7.6v3c0 1-.8 1.8-1.8 1.8h-.6c-.2 0-.4-.2-.4-.4s.2-.4.4-.4h.6c.6 0 1.1-.5 1.1-1.1v-3c0-.6-.5-1.1-1.1-1.1h-.6c-.2 0-.4-.2-.4-.4s.2-.4.4-.4h.6c1 .1 1.8 1 1.8 2zM26.8 3.7H5.7c-1.1 0-1.9.9-1.9 1.9v24.8c0 1.1.9 1.9 1.9 1.9h21.1c1.1 0 1.9-.9 1.9-1.9V5.6c0-1.1-.9-1.9-1.9-1.9zm1.1 26.7c0 .6-.5 1.2-1.2 1.2h-21c-.6 0-1.2-.5-1.2-1.2V5.6c0-.6.5-1.2 1.2-1.2h21.1c.6 0 1.2.5 1.2 1.2v24.8z"/></svg>