<svg xmlns="http://www.w3.org/2000/svg" viewBox="0 0 36 36" enable-background="new 0 0 36 36"><path d="M3.819 18.417v-8.185c0-1.869 1.523-3.39 3.395-3.39h7.546c.318 0 .631.124.86.341l2.72 2.525h9.678c.747 0 1.355.607 1.355 1.354v.979h-21.007c-1.432 0-2.698 1.049-2.966 2.449l-.912 3.928c-.118.507-.669.441-.669-.001zm23.26 1.083c1.463 0 2.825.427 3.98 1.154l1.213-5.694c.09-.368.02-.735-.191-1.004-.207-.264-.536-.416-.901-.416h-22.814c-.717 0-1.376.56-1.497 1.255l-3.011 12.964c-.062.365.029.724.251.987s.546.408.911.408l14.878.002c-.206-.684-.32-1.407-.32-2.157.001-4.135 3.365-7.499 7.501-7.499zm5.999 7.5c0 3.313-2.686 6-6 6-2.552 0-4.726-1.596-5.594-3.843v-.001c-.064-.167-.122-.336-.172-.51l-.004-.014c-.047-.167-.089-.336-.122-.508l-.021-.138-.059-.408c-.019-.19-.029-.383-.029-.579 0-.621.094-1.221.27-1.784.234-.751.611-1.44 1.1-2.032.245-.296.517-.569.813-.813.741-.611 1.631-1.048 2.607-1.248.393-.08.797-.122 1.212-.122.19 0 .377.011.563.028l.204.026.337.052.253.054.259.067.288.087.172.063c.567.21 1.093.501 1.565.863h.001c1.431 1.096 2.357 2.818 2.357 4.76zm-3.62-.391c.303-.199.579-.442.824-.725.052-.06.065-.142.035-.215-.121-.287-.266-.542-.432-.759-.043-.057-.114-.087-.185-.079-.39.041-.762.141-1.104.294l-.319-.218c-.102-.06-.214-.112-.347-.163-.023-.365-.098-.733-.218-1.076-.026-.072-.088-.125-.164-.136-.269-.04-.553-.043-.867-.01-.078.002-.138.053-.169.122-.159.358-.26.73-.3 1.106-.133.051-.249.107-.351.168l-.312.216c-.319-.159-.665-.277-1.036-.35-.077-.016-.155.013-.203.074-.169.213-.319.466-.443.749-.031.067-.023.146.02.206.233.319.504.591.809.812l-.031.391.033.374c-.303.2-.579.444-.823.725-.052.061-.066.144-.034.217.12.287.266.542.43.758.044.058.114.088.186.08.392-.043.763-.141 1.105-.295.092.076.198.148.32.218.1.06.213.113.344.163.024.364.099.733.218 1.076.026.072.089.125.165.136.266.038.549.042.868.01l.012-.001c.069-.011.128-.056.156-.12.159-.36.259-.732.301-1.106.134-.053.247-.107.35-.169l.311-.216c.32.16.668.278 1.037.351.077.016.154-.014.203-.075.168-.213.317-.465.443-.749.03-.067.022-.146-.021-.205-.232-.319-.503-.592-.807-.813l.03-.391-.034-.375zm-2.379-.781c-.647 0-1.172.525-1.172 1.172 0 .647.525 1.172 1.172 1.172.647 0 1.172-.525 1.172-1.172 0-.647-.525-1.172-1.172-1.172z" fill="#0568ae"/></svg>