<svg xmlns="http://www.w3.org/2000/svg" viewBox="0 0 36 36" enable-background="new 0 0 36 36"><path d="M3.073 20.078v-9.667c0-1.957 1.595-3.549 3.554-3.549h7.943c.332 0 .649.125.892.352l2.869 2.665h10.196c.775 0 1.406.63 1.406 1.405 0 .207-.168.375-.375.375s-.375-.168-.375-.375c0-.361-.294-.655-.656-.655h-10.343c-.095 0-.186-.036-.255-.1l-2.979-2.766c-.103-.096-.24-.151-.38-.151h-7.943c-1.546 0-2.804 1.256-2.804 2.799v9.667c0 .207-.168.375-.375.375s-.375-.168-.375-.375zm30.365 6.965c0 3.515-2.86 6.375-6.375 6.375-2.863 0-5.291-1.899-6.093-4.502l-16.652-.003c-.386 0-.726-.153-.96-.43-.237-.281-.33-.65-.263-1.04l3.169-13.645c.127-.732.822-1.322 1.577-1.322h24.013c.384 0 .73.159.948.437.223.284.297.67.203 1.058l-1.762 8.269c1.342 1.17 2.195 2.887 2.195 4.803zm-12.644 1.123c-.065-.365-.105-.739-.105-1.123 0-3.515 2.859-6.375 6.375-6.375 1.301 0 2.511.394 3.52 1.065l1.689-7.928c.043-.176.021-.324-.061-.427-.076-.097-.204-.151-.358-.151h-24.013c-.389 0-.774.33-.843.721l-3.168 13.644c-.024.146.01.298.101.408.089.105.226.163.387.163l16.476.003zm11.894-1.123c0-3.102-2.524-5.625-5.625-5.625-3.102 0-5.625 2.523-5.625 5.625s2.523 5.625 5.625 5.625 5.625-2.524 5.625-5.625zm-4.297.059c-.194-.067-.409.037-.477.233-.107.313-.376.542-.7.594-.236.039-.472-.017-.666-.157-.193-.14-.322-.346-.36-.581-.039-.235.017-.471.156-.664.14-.194.346-.322.581-.361.204-.034.343-.226.31-.431-.034-.204-.224-.344-.431-.309-.433.071-.813.307-1.069.663-.256.357-.358.792-.288 1.224.071.433.307.813.663 1.069.283.203.615.309.956.309l.268-.022c.598-.097 1.092-.515 1.289-1.091.069-.195-.036-.408-.232-.476zm1.589-.294l.011.206v.02l-.011.237c.284.231.539.502.763.809.125.17.148.397.06.591-.146.328-.32.622-.517.87-.141.177-.362.258-.584.214-.34-.067-.668-.169-.978-.304l-.181.115-.22.118c-.06.361-.167.718-.319 1.062-.081.184-.249.313-.447.346l-.073.006-.438.023c-.182 0-.36-.013-.534-.038-.218-.031-.399-.18-.474-.39-.112-.32-.19-.663-.231-1.006l-.203-.107-.2-.125c-.338.13-.699.216-1.076.257-.214.021-.413-.068-.537-.232-.194-.255-.364-.552-.502-.883-.088-.205-.052-.442.096-.617.232-.266.485-.5.759-.703l-.012-.207.012-.255c-.284-.231-.54-.502-.763-.808-.127-.177-.148-.404-.059-.597.142-.323.317-.617.516-.868.134-.175.361-.258.582-.212.34.066.668.168.977.303l.182-.116.221-.118c.058-.361.165-.717.317-1.061.093-.21.29-.345.51-.352.333-.037.664-.032.983.015.215.029.398.179.472.39.113.32.191.664.23 1.006l.204.106.2.127c.344-.131.705-.217 1.077-.256.204-.022.41.066.534.23.194.252.364.55.505.884.086.214.048.449-.1.619-.224.265-.478.5-.752.701zm.125-1.119c-.093-.205-.2-.394-.318-.558-.337.043-.661.134-.967.27-.129.057-.279.037-.389-.051l-.292-.199-.311-.145c-.136-.052-.23-.18-.239-.327-.021-.318-.083-.644-.18-.947-.203-.021-.413-.024-.639-.005-.132.317-.216.645-.251.975-.016.14-.107.26-.238.311l-.313.149-.283.195c-.115.096-.276.114-.408.048-.282-.141-.587-.248-.908-.318-.122.164-.23.35-.325.554.207.271.449.508.718.704.112.081.17.218.15.355l-.028.369.03.33c.023.145-.041.29-.163.371-.264.175-.509.386-.729.627.092.207.198.395.317.56.341-.045.667-.136.966-.27.127-.059.281-.038.391.052l.289.195.31.147c.137.052.232.179.242.326.021.319.083.645.181.948.198.021.408.023.64.004.131-.317.216-.644.253-.975.015-.138.105-.256.234-.307l.314-.152.283-.195c.114-.096.273-.114.407-.048.282.141.588.248.909.319.118-.161.227-.347.324-.553-.21-.275-.45-.511-.717-.705-.112-.082-.171-.22-.15-.358l.028-.357-.031-.337c-.024-.146.041-.292.164-.374.263-.175.509-.386.729-.628z" fill="#0568ae"/></svg>