<svg xmlns="http://www.w3.org/2000/svg" viewBox="0 0 36 36">
  <path fill="#0568ae" d="M26.8 31v-.9c-.3 0-.7-.1-1-.2-.3-.1-.6-.2-.8-.4l.2-.5c.5.3 1.1.4 1.6.5v-2.4c-.6-.2-1-.4-1.3-.6-.2-.2-.4-.6-.4-1s.2-.8.5-1.1c.3-.3.7-.5 1.2-.5v-.8h.6v.8c.5 0 1 .2 1.5.5l-.2.5c-.4-.2-.9-.4-1.3-.4v2.2c.6.2 1.1.4 1.3.7.3.3.4.6.4 1 0 .5-.2.8-.5 1.1-.3.3-.7.5-1.3.6v.9h-.5zm-1.1-5.5c0 .3.1.5.2.6.2.1.4.3.8.4v-2c-.3 0-.6.1-.8.3-.1.2-.2.4-.2.7zm2.7 2.9c0-.3-.1-.5-.2-.7-.2-.2-.4-.3-.9-.4v2.2c.4-.1.6-.2.8-.4.3-.1.3-.4.3-.7zM9.7 17.7c0-.2.2-.4.4-.4H26c.2 0 .4.2.4.4s-.2.4-.4.4H10.1c-.2 0-.4-.2-.4-.4zm.4-2.8H26c.2 0 .4-.2.4-.4s-.2-.4-.4-.4H10.1c-.2 0-.4.2-.4.4s.2.4.4.4zm0-3.2H26c.2 0 .4-.2.4-.4s-.2-.4-.4-.4H10.1c-.2 0-.4.2-.4.4s.2.4.4.4zm19.6 9.6V9c0-.5-.3-1.1-.6-1.5l-3.7-3.7c-.4-.4-1-.6-1.5-.6H8.2c-1 0-1.8.8-1.8 1.8v19.5c0 .2.2.4.4.4s.4-.2.4-.4V5c0-.6.5-1 1.1-1h15.6c.1 0 .2 0 .3.1v4.3c0 .2.2.4.4.4h4.3c0 .1.1.2.1.3v12c-.6-.2-1.2-.3-1.9-.3-3.5 0-6.4 2.9-6.4 6.4 0 1.4.5 2.7 1.2 3.8H8.2c-.2 0-.4.2-.4.4s.2.4.4.4h14.3c1.2 1.2 2.8 1.9 4.5 1.9 3.5 0 6.4-2.9 6.4-6.4 0-2.8-1.5-5-3.7-6zM24.9 7.9V4.4l3.5 3.5h-3.5zM27 32.7c-3.1 0-5.6-2.5-5.6-5.6s2.5-5.6 5.6-5.6c3.1 0 5.6 2.5 5.6 5.6s-2.5 5.6-5.6 5.6z"/>
</svg>
