<svg xmlns="http://www.w3.org/2000/svg" viewBox="0 0 36 36">
  <path fill="#0568ae" d="M33 26.9c0 3.3-2.7 6-6 6s-6-2.7-6-6 2.7-6 6-6 6 2.7 6 6zm-3.8.5c-.1-.2-.3-.4-.6-.6-.3-.2-.6-.3-1.1-.4v-1.5c.4 0 .8.2 1.3.4l.3-1c-.2-.1-.5-.2-.7-.3-.3-.1-.5-.1-.8-.2v-.9h-.8v.9c-.6.1-1.1.3-1.4.6-.3.3-.5.7-.5 1.2 0 .3.1.6.2.8.1.2.3.4.6.6.3.2.6.3 1.1.5V29c-.6 0-1.2-.2-1.7-.4l-.3 1c.2.2.5.3.9.4.3.1.7.2 1.1.2v.8h.8v-.9c.6-.1 1.1-.3 1.4-.6.3-.3.5-.7.5-1.2-.1-.4-.2-.7-.3-.9zm-2.6-1.3c-.3-.1-.4-.2-.5-.3-.1 0-.1-.2-.1-.4 0-.3.2-.5.7-.6v1.3zm.9 2.9v-1.3c.2.1.4.2.5.3.1.1.1.2.1.4 0 .3-.2.5-.6.6zm-7.7.1c.3.9.7 1.7 1.2 2.4H8.2c-1 0-1.8-.8-1.8-1.8V4.8c0-1 .8-1.8 1.8-1.8h15.6c.5 0 1.1.3 1.5.6L29 7.4c.4.4.6 1 .6 1.5v11c-.7-.3-1.5-.4-2.4-.5V9.5h-3.8c-.2 0-.4-.2-.4-.4V5.4H9.2c-.2 0-.5.3-.5.5v22.7c0 .3.2.5.5.5h10.6z"/>
</svg>
