<svg xmlns="http://www.w3.org/2000/svg" viewBox="0 0 36 36" enable-background="new 0 0 36 36"><path d="M28.152 4.128h-17.352c-2.341 0-3.975 1.265-3.975 3.075v21.099999999999998c0 1.719 1.52 3.575 3.976 3.575h17.999c.207 0 .375-.168.375-.375s-.168-.375-.375-.375h-18c-1.992 0-3.225-1.466-3.226-2.824v-.005c.003-1.388 1.208-2.821 3.225-2.821h18.001c.207 0 .375-.168.375-.375v-19.951c0-.565-.459-1.024-1.023-1.024zm.273 20.6h-17.625c-1.446 0-2.551.616-3.225 1.475v-18.999c0-1.369 1.326-2.325 3.225-2.325h17.352c.147 0 .272.125.272.273v19.576zm.75 4.635c0 .207-.168.375-.375.375h-15.826c-.207 0-.375-.168-.375-.375s.168-.375.375-.375h15.826c.207 0 .375.168.375.375zm0-2.141c0 .207-.168.375-.375.375h-15.826c-.207 0-.375-.168-.375-.375s.168-.375.375-.375h15.826c.207 0 .375.169.375.375z" fill="#0568ae"/></svg>