<svg xmlns="http://www.w3.org/2000/svg" viewBox="0 0 36 36" enable-background="new 0 0 36 36"><path d="M29.175 31.503c0 .207-.168.375-.375.375h-18c-2.456 0-3.976-1.855-3.976-3.575v-21.099c0-1.811 1.635-3.076 3.975-3.076h17.351c.564 0 1.023.459 1.023 1.023v4.69c0 .207-.168.375-.375.375s-.375-.168-.375-.375v-4.69c0-.148-.125-.273-.273-.273h-17.35c-1.899 0-3.225.956-3.225 2.326v18.999c.674-.859 1.779-1.475 3.225-1.475h9.676c.207 0 .375.168.375.375s-.168.375-.375.375h-9.676c-2.017 0-3.223 1.433-3.225 2.821v.005c0 1.359 1.233 2.824 3.226 2.824h17.999c.207 0 .375.168.375.375zm-.375-2.515h-15.825c-.207 0-.375.168-.375.375s.168.375.375.375h15.825c.207 0 .375-.168.375-.375s-.168-.375-.375-.375zm0-2.14h-15.825c-.207 0-.375.168-.375.375s.168.375.375.375h15.825c.207 0 .375-.168.375-.375s-.168-.375-.375-.375zm.929-2.081c-1.008.473-2.081.709-3.119.709-.973.001-1.915-.208-2.747-.625-.499-.242-1.806-1.088-3.52-2.711-1.766-1.674-3.332-2.29-4.267-2.658-.717-.282-1.19-.468-1.197-.966-.006-.467.442-1.357 1.299-1.816.641-.342 1.681-.546 3.125.27l-2.964-6.322c-.214-.457-.236-.969-.063-1.442.173-.472.519-.849.976-1.063.457-.213.97-.237 1.444-.067.476.171.854.517 1.067.974l2.027 4.316c.189-.35.486-.643.864-.82.457-.215.971-.24 1.444-.068.245.088.464.224.648.397.182-.393.498-.724.909-.917.92-.43 2.016-.054 2.48.838.184-.279.443-.508.756-.654.919-.432 2.023-.035 2.458.887l2.034 4.361c1.177 2.52-.498 5.898-3.654 7.377zm2.976-7.06l-2.033-4.359c-.258-.547-.915-.784-1.462-.527v.001c-.389.182-.631.563-.631.995 0 .175-.122.328-.294.366-.173.04-.346-.048-.421-.207l-.372-.792c-.268-.567-.946-.813-1.518-.547-.458.216-.72.714-.636 1.211.031.185-.079.363-.258.419-.178.057-.37-.028-.451-.197l-.141-.297c-.13-.278-.359-.487-.644-.59-.285-.103-.593-.088-.87.042-.506.236-.773.814-.623 1.344.053.188-.046.385-.229.454-.182.068-.388-.015-.471-.192l-2.566-5.463c-.128-.275-.356-.483-.642-.586-.286-.103-.596-.089-.873.04-.276.129-.485.357-.589.641-.104.284-.091.592.038.866l3.52 7.509c.07.149.035.326-.087.436-.122.111-.301.129-.443.046-.178-.105-.347-.222-.529-.349l-.109-.076c-1.1-.754-2.082-.939-2.838-.534-.588.315-.861.888-.898 1.1.107.083.429.209.717.323.986.388 2.637 1.038 4.508 2.812 1.651 1.564 2.904 2.374 3.336 2.583 1.519.762 3.467.728 5.215-.09 2.788-1.308 4.297-4.23 3.294-6.382z" fill="#0568ae"/></svg>