<svg xmlns="http://www.w3.org/2000/svg" viewBox="0 0 36 36" enable-background="new 0 0 36 36"><path d="M29.002 29.053h-16.786c-.414 0-.75-.336-.75-.75s.336-.75.75-.75h16.786c.414 0 .75.336.75.75s-.336.75-.75.75zm.561-15.643c-.536.251-.847.78-.848 1.335l-.372-.792c-.356-.756-1.254-1.083-2.016-.727-.625.294-.956.963-.847 1.612l-.141-.297c-.357-.758-1.254-1.084-2.013-.727-.68.319-1.024 1.082-.824 1.786l-2.566-5.464c-.353-.756-1.255-1.08-2.013-.726-.757.354-1.086 1.249-.732 2.006l3.52 7.51c-.206-.121-.398-.26-.615-.41-2.943-2.018-4.337.288-4.329.924.008.64 2.394.558 5.346 3.356 1.646 1.56 2.933 2.407 3.43 2.649 1.566.786 3.629.806 5.538-.088 2.903-1.36 4.598-4.473 3.476-6.88l-2.033-4.359c-.349-.738-1.223-1.054-1.961-.708zm-13.387 8.048c-.8-.315-1.894-.745-1.91-1.999-.009-.695.374-1.52.998-2.152.672-.681 1.562-1.069 2.515-1.1l-1.948-4.155c-.341-.73-.377-1.549-.1-2.305.276-.753.828-1.355 1.556-1.695.404-.189.834-.285 1.279-.285 1.166 0 2.237.681 2.727 1.731l1.39 2.96.003-.002c.406-.191.837-.288 1.283-.288.346 0 .684.061 1.002.173.212-.189.453-.35.719-.475.405-.19.836-.286 1.28-.286.641 0 1.255.207 1.759.57l.195-.1c.28-.131.573-.215.874-.254v-6.645c0-.909-.739-1.648-1.648-1.648h-17.35c-2.665 0-4.6 1.556-4.6 3.701v21.099999999999998c0 2.02 1.759 4.2 4.601 4.2h18c.552 0 1-.448 1-1s-.448-1-1-1h-18c-1.773 0-2.6-1.311-2.601-2.199v-.006c.003-.913.809-2.196 2.6-2.196h11.96c-.725-.506-1.649-1.242-2.679-2.218-1.607-1.523-2.99-2.067-3.905-2.427z" fill="#0568ae"/></svg>