<svg xmlns="http://www.w3.org/2000/svg" viewBox="0 0 36 36" enable-background="new 0 0 36 36"><path d="M29.007 8.123l-3.746-3.746c-.353-.352-.995-.619-1.494-.619h-15.583c-.998 0-1.81.791-1.81 1.763l.003 19.477c0 .207.168.375.375.375s.375-.168.375-.375l-.004-19.477c0-.558.476-1.013 1.06-1.013h15.583c.101 0 .221.028.345.066v4.323c0 .207.168.375.375.375h4.324c.038.123.065.244.065.345l-.002 20.82c0 .558-.474 1.012-1.056 1.012h-19.633c-.207 0-.376.168-.376.375s.168.375.376.375h19.635c.996 0 1.806-.79 1.806-1.762l.002-20.82c-.001-.498-.267-1.14-.62-1.494zm-4.145-3.084l3.484 3.483h-3.484v-3.483zm-14.551 17.967c0 .364.273.661.609.661h1.989c.336 0 .609-.296.609-.661v-1.929c0-.364-.273-.659-.609-.659h-1.989c-.336 0-.609.295-.609.659v1.929zm.75-1.838h1.708v1.749h-1.708v-1.749zm4.156.874c0-.207.168-.375.375-.375h9.607c.207 0 .375.168.375.375s-.167.375-.375.375h-9.607c-.207 0-.375-.168-.375-.375zm-4.906-3.469c0 .364.273.66.609.66h1.989c.336 0 .609-.296.609-.66v-1.93c0-.364-.273-.659-.609-.659h-1.989c-.336 0-.609.296-.609.659v1.93zm.75-1.839h1.708v1.749h-1.708v-1.749zm4.156.874c0-.207.168-.375.375-.375h9.607c.207 0 .375.168.375.375s-.167.375-.375.375h-9.607c-.207 0-.375-.168-.375-.375zm0-4.433c0-.207.168-.375.375-.375h9.607c.207 0 .375.168.375.375s-.167.375-.375.375h-9.607c-.207 0-.375-.168-.375-.375zm-4.131.995l-.646-.81c-.129-.162-.102-.398.06-.527.163-.129.398-.102.527.06l.58.729 1.777-2.176c.132-.16.368-.184.529-.053.16.131.184.367.053.528l-1.844 2.258c-.131.16-.318.252-.515.252h-.004c-.199-.003-.387-.097-.517-.261z" fill="#0568ae"/></svg>