<svg xmlns="http://www.w3.org/2000/svg" viewBox="0 0 36 36" enable-background="new 0 0 36 36"><path d="M25.037 17.611c0 .414-.336.75-.75.75h-7.528c-.414 0-.75-.336-.75-.75s.336-.75.75-.75h7.528c.415 0 .75.336.75.75zm-8.278-3.683h7.528c.414 0 .75-.336.75-.75s-.336-.75-.75-.75h-7.528c-.414 0-.75.336-.75.75s.335.75.75.75zm7.528 7.367h-7.528c-.414 0-.75.336-.75.75s.336.75.75.75h7.528c.414 0 .75-.336.75-.75s-.335-.75-.75-.75zm-10.622-.874h-1.989c-.336 0-.609.296-.609.659v1.929c0 .364.273.66.609.66h1.989c.336 0 .609-.296.609-.66v-1.929c0-.364-.273-.659-.609-.659zm0-4.434h-1.989c-.336 0-.609.296-.609.659v1.929c0 .364.273.66.609.66h1.989c.336 0 .609-.296.609-.66v-1.929c0-.363-.273-.659-.609-.659zm1.524-6.069c-.331-.222-.815-.135-1.047.186l-1.715 2.364-.756-.681c-.286-.259-.757-.253-1.038.011-.288.271-.32.726-.075 1.035l1.316 1.654c.166.209.41.329.672.329.295 0 .567-.153.726-.409l2.14-3.448c.219-.353.121-.81-.223-1.041zm14.437-.945l-.001 20.819c0 .972-.81 1.762-1.806 1.762h-19.635c-.998 0-1.809-.79-1.809-1.762l-.001-24.916c0-.972.812-1.763 1.81-1.763h15.583c.499 0 1.141.266 1.494.619l3.746 3.746c.353.354.619.996.619 1.495zm-2.375.655h-3.764c-.207 0-.375-.168-.375-.375v-3.764h-13.863c-.275 0-.5.225-.5.5l.001 22.69c0 .275.225.5.5.5h17.5c.275 0 .5-.225.5-.5l.001-19.051z" fill="#0568ae"/></svg>