<svg xmlns="http://www.w3.org/2000/svg" viewBox="0 0 36 36"><path fill="none" d="M0 0h36v36H0z"/><path fill="none" d="M0 0h36v36H0z"/><path fill="#0568ae" d="M23.8 6v1.7c0 .6-.5 1-1 1h-9.5c-.6 0-1-.5-1-1V6c0-1.6 1.7-.4 2.6-1.9 1-1.7 5.4-1.7 6.4 0 .8 1.5 2.5.3 2.5 1.9zm3.7-.6h-2.2c0 .2.1.4.1.7v1.8h1.4c.2 0 .4.2.4.4V23h-4.9c-.3 0-.6 0-.8.2-.3.2-.4.5-.4.9v5.2H9.3c-.2 0-.4-.2-.4-.4V8.1c0-.2.2-.4.4-.4h1.4V6c0-.2 0-.5.1-.7H8.5c-1.1 0-1.9.9-1.9 1.9v23.9c0 1.1.9 1.9 1.9 1.9h18.9c1.1 0 1.9-.9 1.9-1.9V7.3c.1-1.1-.8-1.9-1.8-1.9zM27 24.5L22.5 29v-4.5H27z"/><path fill="none" d="M0 0h36v36H0z"/></svg>