<svg xmlns="http://www.w3.org/2000/svg" viewBox="0 0 36 36" enable-background="new 0 0 36 36"><path d="M27.454 5.275h-3.705c-.259-.407-.729-.498-1.107-.564-.471-.082-.917-.16-1.229-.7-.603-1.042-2.158-1.413-3.414-1.413-1.254 0-2.809.371-3.412 1.413-.307.532-.753.612-1.224.696-.38.068-.851.161-1.11.567h-3.706c-1.001 0-1.815.814-1.815 1.815v23.924c0 1 .814 1.815 1.815 1.815h18.907c1.001 0 1.814-.814 1.814-1.815v-23.923c0-1.001-.814-1.815-1.814-1.815zm-14.648.772c0-.461.12-.499.688-.6.531-.095 1.26-.225 1.742-1.059.36-.621 1.47-1.038 2.763-1.038 1.295 0 2.405.417 2.765 1.038.487.843 1.217.97 1.75 1.063.55.096.681.119.681.596v1.63c0 .333-.272.604-.605.604h-9.18c-.333 0-.604-.271-.604-.604v-1.63zm15.712 24.967c0 .587-.477 1.065-1.064 1.065h-18.907c-.587 0-1.065-.477-1.065-1.065v-23.924c0-.587.478-1.065 1.065-1.065h3.511l-.002.021v1.63c0 .747.608 1.354 1.354 1.354h9.18c.662 0 1.213-.478 1.329-1.107l2.734-.014v15.631c0 .101-.027.222-.065.345h-4.323c-.207 0-.375.168-.375.375v4.323c-.123.038-.245.066-.346.066l-12.198.017v-20.302c0-.207-.168-.375-.375-.375-.208 0-.375.168-.375.375v20.302c0 .405.33.735.735.735h12.214c.499 0 1.141-.266 1.495-.619l3.746-3.746c.353-.353.618-.995.618-1.494v-15.631c0-.405-.329-.735-.734-.735h-2.725v-1.129l-.002-.021h3.512c.587 0 1.064.478 1.064 1.065v23.923zm-2.394-6.378l-3.483 3.484v-3.484h3.483zm-14.946-5.488c0-.207.168-.375.376-.375h12.893c.207 0 .375.168.375.375s-.168.375-.375.375h-12.894c-.207 0-.375-.168-.375-.375zm0-2.589c0-.207.168-.375.376-.375h12.893c.207 0 .375.168.375.375s-.168.375-.375.375h-12.894c-.207 0-.375-.168-.375-.375zm0-2.589c0-.207.168-.375.376-.375h12.893c.207 0 .375.168.375.375s-.168.375-.375.375h-12.894c-.207 0-.375-.168-.375-.375z" fill="#0568ae"/></svg>