<svg xmlns="http://www.w3.org/2000/svg" viewBox="0 0 36 36" enable-background="new 0 0 36 36"><path d="M23.771 6.02v1.69c0 .56-.454 1.015-1.015 1.015h-9.513c-.561 0-1.015-.455-1.015-1.015v-1.69c0-1.573 1.716-.435 2.571-1.914.98-1.694 5.422-1.693 6.401 0 .864 1.493 2.571.334 2.571 1.914zm3.682-.66h-2.25c.042.198.068.415.068.659v1.69l-.005.051h1.403c.198 0 .36.162.36.36v14.865h-4.853c-.273-.041-.55.028-.773.197-.266.202-.425.527-.425.87v5.183h-11.647c-.198 0-.36-.162-.36-.36v-20.755c0-.198.162-.36.36-.36h1.403l-.005-.051v-1.689c0-.244.025-.462.068-.659h-2.25c-1.069 0-1.939.87-1.939 1.94v23.924c0 1.07.87 1.94 1.939 1.94h18.907c1.07 0 1.94-.87 1.94-1.94v-23.925c-.001-1.069-.871-1.94-1.941-1.94zm-.448 19.126l-4.527 4.546v-4.546h4.527zm-2.446-12.203c0-.414-.336-.75-.75-.75h-11.574c-.414 0-.75.336-.75.75s.336.75.75.75h11.575c.414 0 .749-.335.749-.75zm0 3.795c0-.414-.336-.75-.75-.75h-11.574c-.414 0-.75.336-.75.75s.336.75.75.75h11.575c.414 0 .749-.335.749-.75zm0 3.795c0-.414-.336-.75-.75-.75h-11.574c-.414 0-.75.336-.75.75s.336.75.75.75h11.575c.414 0 .749-.336.749-.75z" fill="#0568ae"/></svg>