<svg xmlns="http://www.w3.org/2000/svg" viewBox="0 0 36 36"><path fill="none" d="M0 0h36v36H0z"/><path fill="#0568ae" d="M25 12l-3.4-3.4c-.4-.4-1-.6-1.4-.6H5.9c-.9 0-1.7.7-1.7 1.6v22.8c0 .9.8 1.6 1.7 1.6h18c.9 0 1.7-.7 1.7-1.6V13.3c-.1-.4-.3-1-.6-1.3zm-1.7 19.4c0 .3-.2.5-.5.5h-16c-.3 0-.5-.2-.5-.5V10.6c0-.3.2-.5.5-.5h12.7v3.4c0 .2.2.3.3.3h3.4l.1 17.6z"/><path fill="#0568ae" d="M31.2 6l-3.4-3.4c-.3-.4-.9-.6-1.4-.6H12.1c-.9 0-1.7.7-1.7 1.6v2.9h2.2V4.6c0-.3.2-.5.5-.5h12.7v3.4c0 .2.2.3.3.3h3.4v17.5c0 .3-.2.5-.5.5h-2V28h3.1c.9 0 1.7-.7 1.7-1.6V7.3c0-.4-.3-1-.6-1.3z"/></svg>