<svg xmlns="http://www.w3.org/2000/svg" viewBox="0 0 36 36" enable-background="new 0 0 36 36"><path d="M9.66 17.699c0-.207.168-.375.375-.375h15.93c.207 0 .375.168.375.375s-.168.375-.375.375h-15.93c-.207 0-.375-.168-.375-.375zm.375-2.823h15.93c.207 0 .375-.168.375-.375s-.168-.375-.375-.375h-15.93c-.207 0-.375.168-.375.375s.168.375.375.375zm0-3.198h15.93c.207 0 .375-.168.375-.375s-.168-.375-.375-.375h-15.93c-.207 0-.375.168-.375.375s.168.375.375.375zm19.591-2.717l-.001 20.819c0 .972-.81 1.763-1.806 1.763h-19.635c-.207 0-.375-.168-.375-.375s.168-.375.375-.375h19.636c.582 0 1.056-.454 1.056-1.013l.001-20.819c0-.101-.027-.222-.066-.345h-4.324c-.207 0-.375-.168-.375-.375v-4.323c-.123-.038-.244-.066-.345-.066h-15.583c-.584 0-1.06.454-1.06 1.013l.002 19.476c0 .207-.168.375-.375.375s-.375-.168-.375-.375l-.002-19.476c0-.972.812-1.763 1.81-1.763h15.583c.5 0 1.142.266 1.494.619l3.746 3.746c.352.353.619.995.619 1.494zm-4.764-1.095h3.483l-3.483-3.484v3.484z" fill="#0568ae"/></svg>