<svg xmlns="http://www.w3.org/2000/svg" viewBox="0 0 36 36" enable-background="new 0 0 36 36"><path d="M24.287 14.515h-12.574c-.414 0-.75-.336-.75-.75s.336-.75.75-.75h12.575c.414 0 .75.336.75.75-.001.414-.336.75-.751.75zm.75 3.045c0-.414-.336-.75-.75-.75h-12.574c-.414 0-.75.336-.75.75s.336.75.75.75h12.575c.414 0 .749-.336.749-.75zm0 3.795c0-.414-.336-.75-.75-.75h-12.574c-.414 0-.75.336-.75.75s.336.75.75.75h12.575c.414 0 .749-.336.749-.75zm4.589-11.716l-.001 20.819c0 .972-.81 1.762-1.806 1.762h-19.635c-.998 0-1.809-.791-1.809-1.762l-.001-24.916c0-.972.812-1.763 1.81-1.763h15.583c.499 0 1.141.266 1.494.619l3.746 3.746c.353.354.619.996.619 1.495zm-2.375.655h-3.764c-.207 0-.375-.168-.375-.375v-3.764h-13.863c-.275 0-.5.225-.5.5l.001 22.69c0 .275.225.5.5.5h17.5c.275 0 .5-.225.5-.5l.001-19.051z" fill="#0568ae"/></svg>