<svg xmlns="http://www.w3.org/2000/svg" viewBox="0 0 36 36">
  <path fill="#0568ae" d="M27 21c-3.3 0-6 2.7-6 6s2.7 6 6 6 6-2.7 6-6-2.7-6-6-6zm3.1 6.4l-2.7 3.1-.1.1c-.2.2-.4.2-.6 0l-.1-.1-2.7-3.1c-.2-.2-.1-.4.2-.4h1.3v-3.2c0-.1.1-.3.3-.3h2.5c.1 0 .3.1.3.3V27h1.3c.4 0 .5.2.3.4zm.6-14.3h-.9V6.8h.9c.9 0 1.5.7 1.5 1.5v3.2c0 .9-.7 1.6-1.5 1.6zm.7 7.9c-.5-.4-1-.7-1.6-.9v-5.2h.9c.9 0 1.5.7 1.5 1.5v3.2c0 .6-.3 1.1-.8 1.4zm-9.3.3h-.8c-.2-1.4-.5-2.4-.8-3-.2-.4-.5-.7-.8-1 0-.1 0-.1.1-.2.1-.3.1-.6.1-1v-.5c.2-.1.4-.2.7-.2h-.1c-.4-.3-.7-.6-.8-1.1-.1-.2-.1-.4-.1-.5 0-1.1.9-2 2-2s2 .9 2 2c0 .2 0 .4-.1.5-.1.5-.4.8-.8 1.1.8.2 1.4.6 1.6 1 .3.6.5 1.8.7 2.5 0 .2.1.4.1.5V19.7c.6-.2 1.3-.3 2-.3.4 0 .9 0 1.3.1v-14c0-.8-.7-1.5-1.5-1.5H5.7c-.8 0-1.5.7-1.5 1.5v24.8c0 .8.7 1.5 1.5 1.5h15.7c-1.2-1.3-1.9-3-1.9-4.9 0-2.2 1-4.2 2.6-5.6zM12 18.4c-.1.2-.2.5-.3.8-.2.7-.4 1.5-.5 2.1H11c-.7 0-1.4-.1-2-.3-.9-.3-1.5-.8-1.5-1.4v-.2c0-.1 0-.3.1-.5.1-.5.3-1.3.4-1.9.1-.2.2-.4.2-.6 0-.1.1-.1.1-.2.3-.4.8-.7 1.5-.8h-.1c-.4-.3-.7-.6-.8-1.1.1-.1.1-.3.1-.5 0-1.1.9-2 2-2s2 .9 2 2c0 .2 0 .4-.1.5-.1.5-.4.8-.8 1.1.3.1.5.1.7.2v.5c0 .3 0 .7.1 1 0 .1 0 .1.1.2l-.6.6c-.2.2-.3.3-.4.5zm2.2 5.5c-1-.3-1.6-.8-1.6-1.4v-.2c0-.1.1-.3.1-.5.1-.6.3-1.4.5-2 .1-.2.2-.5.3-.6 0-.1.1-.1.1-.2.3-.4.9-.7 1.6-.9h-.1c-.4-.3-.7-.7-.8-1.1-.1-.2-.1-.4-.1-.6 0-1.1.9-2.1 2.1-2.1 1.1 0 2.1.9 2.1 2.1 0 .2 0 .4-.1.6-.1.5-.4.9-.9 1.2.9.2 1.5.6 1.7 1.1.3.6.6 1.9.7 2.7 0 .2.1.4.1.5v.2c0 1-1.6 1.7-3.7 1.7-.7-.2-1.5-.3-2-.5z"/>
</svg>
