<svg xmlns="http://www.w3.org/2000/svg" viewBox="0 0 36 36" enable-background="new 0 0 36 36"><path d="M29.63 21.164v-12.224c0-.499-.267-1.141-.619-1.494l-3.746-3.746c-.354-.352-.996-.618-1.494-.618h-15.584c-.998 0-1.81.791-1.81 1.763l.003 19.475c0 .207.168.375.375.375s.375-.168.375-.375l-.002-19.476c0-.558.475-1.013 1.06-1.013h15.584c.101 0 .222.028.344.066v4.323c0 .207.168.375.375.375h4.324c.038.123.065.244.065.345l-.001 5.984.001 5.951c-.593-.184-1.223-.283-1.876-.283-3.516 0-6.375 2.86-6.375 6.375 0 1.427.477 2.742 1.272 3.805h-13.714c-.207 0-.375.168-.375.375s.168.375.375.375h14.365c1.15 1.124 2.72 1.82 4.451 1.82 3.515 0 6.375-2.86 6.375-6.375.001-2.579-1.54-4.799-3.748-5.803zm-4.765-16.803l3.484 3.484h-3.484v-3.484zm2.139 28.231c-3.101 0-5.625-2.523-5.625-5.625s2.524-5.625 5.625-5.625c3.102 0 5.625 2.523 5.625 5.625 0 3.101-2.524 5.625-5.625 5.625zm2.572-5.289c.165.126.196.361.071.526l-1.734 2.272c-.214.28-.52.442-.841.442h-.002c-.321 0-.629-.16-.844-.44l-1.735-2.271c-.126-.164-.095-.4.07-.525.165-.126.4-.095.525.07l1.614 2.112v-5.277c0-.207.168-.375.374-.375.208 0 .376.168.376.375v5.259l1.6-2.096c.125-.166.361-.197.526-.072z" fill="#0568ae"/></svg>