<svg xmlns="http://www.w3.org/2000/svg" viewBox="0 0 36 36">
  <path fill="#0568ae" d="M12.5 15c0-.1.1-.3.1-.4 0-.9-.7-1.6-1.6-1.6-.9 0-1.6.7-1.6 1.6 0 .1 0 .3.1.4.1.4.3.7.7.9.1.1.2.2.2.4 0 .1-.1.3-.3.3H10c-.7.2-1.2.5-1.4.8-.2.4-.5 1.3-.7 2.4 0 .2-.1.4-.1.5v.2c0 .5.9 1.1 2.5 1.3h1.2c.2 0 .4.1.4.3 0 .2-.1.4-.3.4h-1.3c-1.9-.2-3.1-1-3.1-2v-.3c0-.1 0-.3.1-.5.2-.9.4-2 .7-2.6.2-.4.6-.8 1.2-1-.2-.3-.4-.5-.5-.9-.1-.2-.1-.4-.1-.6 0-1.3 1.1-2.3 2.3-2.3 1.3 0 2.3 1.1 2.3 2.3 0 .2 0 .4-.1.7-.1.3-.2.6-.4.8.2.1.3.1.5.2h.1c.2.1.2.3.1.5s-.4.2-.5.1c-.3-.2-.6-.3-.9-.4-.1 0-.3-.2-.3-.3 0-.1 0-.3.1-.4.4-.2.6-.5.7-.8zm17.9 5.6h-.6c-.2 0-.4.2-.4.4s.2.4.4.4h.6c1 0 1.8-.8 1.8-1.8v-3c0-1-.8-1.8-1.8-1.8h-.6c-.2 0-.4.2-.4.4s.2.4.4.4h.6c.6 0 1.1.5 1.1 1.1v3c0 .4-.5.9-1.1.9zm0-7.6h-.6c-.2 0-.4.2-.4.4s.2.4.4.4h.6c1 0 1.8-.8 1.8-1.8V9c0-1-.8-1.8-1.8-1.8h-.6c-.2 0-.4.2-.4.4s.2.4.4.4h.6c.6 0 1.1.5 1.1 1.1v3c0 .4-.5.9-1.1.9zm-10.1 9.9v.3c0 1.2-1.8 2.1-4.1 2.1s-4.1-.9-4.1-2.1v-.3c0-.1.1-.3.1-.5.2-.9.4-2.1.8-2.8.2-.4.7-.8 1.3-1.1-.2-.3-.4-.6-.5-.9-.1-.2-.1-.5-.1-.7 0-1.4 1.1-2.4 2.5-2.4s2.5 1.1 2.5 2.4c0 .2 0 .5-.1.7-.1.3-.3.6-.5.9.7.3 1.1.6 1.3 1.1.3.6.6 1.8.8 2.8 0 .2.1.3.1.5zm-.7.3v-.1-.1c0-.1 0-.3-.1-.5-.2-1.2-.5-2.1-.7-2.6-.2-.4-.7-.7-1.5-.9-.1 0-.3-.1-.3-.3 0-.1 0-.3.1-.4.3-.2.6-.6.7-1 0-.2.1-.3.1-.5 0-.9-.8-1.7-1.7-1.7-.9 0-1.7.8-1.7 1.7 0 .2 0 .3.1.5.1.4.4.7.7.9.1.1.2.2.2.4s-.2.3-.3.3c-.8.2-1.3.5-1.5.9-.2.5-.5 1.4-.7 2.6 0 .2-.1.4-.1.5v.2c0 .6 1.4 1.4 3.3 1.4 1.9.1 3.4-.7 3.4-1.3zm2.7-.8c1.9-.2 3.1-1 3.1-2v-.3c0-.1 0-.3-.1-.5-.2-.9-.4-2-.7-2.6-.2-.4-.6-.8-1.3-1 .2-.2.4-.5.5-.9.1-.2.1-.4.1-.6 0-1.3-1.1-2.3-2.3-2.3-1.3 0-2.3 1.1-2.3 2.3 0 .2 0 .4.1.7.1.3.2.6.4.8-.2.1-.3.1-.5.2s-.2.3-.1.5.4.2.5.1c.2-.1.5-.3.9-.3.1 0 .3-.1.3-.3 0-.1 0-.3-.2-.4-.3-.2-.5-.5-.6-.9 0-.2-.1-.3-.1-.4 0-.9.7-1.6 1.6-1.6.9 0 1.6.7 1.6 1.6 0 .1 0 .3-.1.4-.1.4-.3.7-.7.9-.1.1-.2.2-.1.4 0 .1.2.3.3.3.7.2 1.2.5 1.4.8.2.4.4 1.3.7 2.4 0 .2.1.4.1.5v.2c0 .5-.9 1.1-2.5 1.3h-1.2c-.2 0-.4.1-.4.3 0 .2.1.4.3.4h.8c.1.1.3.1.5 0zM34.4 28c0 3.5-2.9 6.4-6.4 6.4-1.9 0-3.5-.8-4.7-2.1H5.7c-1.1 0-1.9-.9-1.9-1.9V5.6c0-1.1.9-1.9 1.9-1.9h21.1c1.1 0 1.9.9 1.9 1.9v16.1c3.2.3 5.7 3 5.7 6.3zm-11.7 3.6c-.7-1-1.1-2.2-1.1-3.6 0-3.5 2.8-6.3 6.3-6.4v-16c0-.6-.5-1.2-1.2-1.2h-21c-.6 0-1.2.6-1.2 1.2v24.8c0 .6.5 1.2 1.2 1.2h17zM33.6 28c0-3.1-2.5-5.6-5.6-5.6-3.1 0-5.6 2.5-5.6 5.6s2.5 5.6 5.6 5.6c3.1 0 5.6-2.5 5.6-5.6zm-3.6.4l-1.6 2.1v-5.3c0-.2-.2-.4-.4-.4s-.4.2-.4.4v5.3L26 28.4c-.1-.2-.4-.2-.5-.1-.2.1-.2.4-.1.5l1.7 2.3c.2.3.5.4.8.4.3 0 .6-.2.8-.4l1.7-2.3c.1-.2.1-.4-.1-.5.1-.1-.1-.1-.3.1z"/>
</svg>
