<svg xmlns="http://www.w3.org/2000/svg" viewBox="0 0 36 36" enable-background="new 0 0 36 36"><path d="M27 20.942c-3.314 0-6 2.687-6 6s2.686 6 6 6 6-2.687 6-6-2.687-6-6-6zm3.055 6.388l-2.684 3.131-.093.108c-.153.179-.404.179-.557 0l-.093-.108-2.684-3.131c-.205-.239-.115-.434.2-.434h1.334v-3.162c0-.141.115-.256.256-.256h2.532c.141 0 .256.115.256.256v3.162h1.334c.314.001.404.196.199.434zm-10.23 1.792c.265.87.688 1.67 1.23 2.375h-12.872c-.998 0-1.809-.79-1.809-1.762v-24.916c0-.972.812-1.762 1.81-1.762h15.583c.499 0 1.141.266 1.494.619l3.746 3.746c.353.353.619.995.619 1.494v11.011c-.744-.279-1.542-.443-2.375-.471v-9.885h-3.764c-.207 0-.375-.168-.375-.375v-3.765h-13.863c-.275 0-.5.225-.5.5l.001 22.69c0 .275.225.5.5.5h10.575z" fill="#0568ae"/></svg>