<svg xmlns="http://www.w3.org/2000/svg" viewBox="0 0 36 36" enable-background="new 0 0 36 36"><path d="M2.997 19.875v-9.667c0-1.957 1.595-3.549 3.554-3.549h7.943c.332 0 .649.125.892.352l2.869 2.665h10.196c.775 0 1.406.63 1.406 1.405 0 .207-.169.375-.375.375-.207 0-.375-.168-.375-.375 0-.361-.295-.655-.656-.655h-10.343c-.095 0-.186-.036-.255-.1l-2.978-2.766c-.103-.096-.24-.151-.38-.151h-7.944c-1.546 0-2.804 1.256-2.804 2.799v9.667c0 .207-.168.375-.375.375s-.375-.168-.375-.375zm30.366 6.965c0 3.515-2.86 6.375-6.375 6.375-2.863 0-5.291-1.899-6.093-4.502l-16.653-.003c-.385 0-.726-.153-.96-.43-.233-.277-.329-.656-.263-1.04l3.168-13.645c.127-.732.822-1.321 1.577-1.321h24.013c.384 0 .73.16.948.437.223.284.296.669.203 1.057l-1.762 8.268c1.343 1.17 2.197 2.888 2.197 4.804zm-12.645 1.123c-.065-.365-.106-.739-.106-1.123 0-3.515 2.859-6.375 6.375-6.375 1.301 0 2.51.393 3.52 1.064l1.689-7.928c.043-.176.021-.324-.061-.427-.077-.097-.204-.151-.358-.151h-24.012c-.389 0-.774.33-.843.72l-3.168 13.646c-.024.146.01.299.102.408.089.105.226.163.386.163l16.476.003zm11.895-1.123c0-3.102-2.523-5.625-5.625-5.625-3.101 0-5.625 2.523-5.625 5.625 0 3.101 2.524 5.625 5.625 5.625s5.625-2.524 5.625-5.625zm-2.369-.614c.006.417-.129.821-.402 1.194-.239.332-.574.674-1.146 1.226l-.006.005-.019.019c-.292.273-.829.726-.928.81l-.078.061c-.144.116-.36.2-.578.215l-.079.005h-.011l-.118-.008c-.193-.011-.413-.099-.592-.243l-.044-.038c-.125-.104-.634-.536-.91-.794l-.025-.025c-.576-.556-.913-.899-1.154-1.234-.272-.372-.407-.775-.401-1.198.001-1.055.85-1.921 1.892-1.926l.054.001c.535 0 .991.301 1.295.649.294-.339.746-.649 1.307-.649 1.094.003 1.943.869 1.943 1.93zm-.75.006c0-.654-.514-1.185-1.146-1.188-.544.001-.919.516-.982.698l-.004.019-.095.163c-.069.071-.166.112-.267.112-.116 0-.225-.053-.296-.144l-.064-.126c-.081-.216-.461-.721-.945-.721-.676.002-1.19.532-1.19 1.18-.003.261.083.512.258.751.209.29.536.622 1.067 1.135l.014.014c.295.273.769.674.884.771l.022.02c.077.059.143.085.207.089l.043.379.007-.251-.001-.124c.102-.008.171-.035.226-.079l.031-.025c.094-.08.595-.502.882-.768l.041-.037c.52-.505.845-.836 1.052-1.122.174-.24.259-.491.256-.746z" fill="#0568ae"/></svg>