<svg xmlns="http://www.w3.org/2000/svg" viewBox="0 0 36 36" enable-background="new 0 0 36 36"><path d="M3.787 18.395v-8.185c0-1.869 1.523-3.39 3.395-3.39h7.546c.318 0 .631.124.86.341l2.72 2.525h9.678c.747 0 1.355.607 1.355 1.354v.979h-21.007c-1.432 0-2.698 1.049-2.966 2.449l-.912 3.928c-.118.507-.669.441-.669-.001zm23.26 1.083c1.463 0 2.825.427 3.98 1.155l1.213-5.694c.09-.369.02-.735-.192-1.005-.207-.264-.536-.416-.901-.416h-22.813c-.717 0-1.376.56-1.497 1.255l-3.011 12.964c-.062.365.029.724.251.987s.546.408.911.408l14.878.002c-.206-.684-.319-1.407-.319-2.157 0-4.135 3.364-7.499 7.5-7.499zm6 7.5c0 3.314-2.686 6-6 6s-6-2.687-6-6 2.687-6 6-6 6 2.686 6 6zm-2.843-.489c-.001-.924-.731-1.708-1.671-1.712l-.053.002c-.767 0-1.339.737-1.434 1.088-.121-.36-.674-1.088-1.436-1.088l-.051-.002c-.939.004-1.671.788-1.671 1.712-.005.362.11.724.363 1.07.253.35.629.731 1.221 1.302l.018.017.006.006c.337.315.994.868 1.011.883l.016.012c.128.104.286.169.448.18l.061.005h.024l.06-.005c.158-.01.314-.072.439-.171l.022-.017.001-.001.003-.002c.002-.002.674-.565 1.022-.891l-.003.002.025-.024c.587-.567.962-.946 1.213-1.295.256-.347.371-.709.366-1.071z" fill="#0568ae"/></svg>