<svg xmlns="http://www.w3.org/2000/svg" viewBox="0 0 36 36" enable-background="new 0 0 36 36"><path d="M28.983 7.423l-3.746-3.746c-.353-.353-.996-.619-1.494-.619h-15.583c-.998 0-1.81.791-1.81 1.763l.002 19.477c0 .207.168.375.375.375s.375-.168.375-.375l-.002-19.478c0-.558.475-1.013 1.06-1.013h15.583c.101 0 .222.028.345.066v4.323c0 .207.168.375.375.375h4.324c.038.123.065.244.065.345l-.001 20.819c0 .559-.474 1.013-1.056 1.013h-19.635c-.207 0-.375.167-.375.375 0 .207.168.375.375.375h19.635c.996 0 1.806-.791 1.806-1.763l.001-20.819c0-.498-.266-1.14-.619-1.493zm-4.145.399v-3.484l3.483 3.484h-3.483z" fill="#0568ae"/></svg>