<svg xmlns="http://www.w3.org/2000/svg" viewBox="0 0 36 36" enable-background="new 0 0 36 36"><path d="M3.052 19.986v-9.667c0-1.957 1.595-3.549 3.554-3.549h7.943c.329 0 .653.129.892.353l2.869 2.663h10.196c.775 0 1.406.63 1.406 1.405 0 .207-.169.375-.375.375-.207 0-.375-.168-.375-.375 0-.361-.295-.655-.656-.655h-10.343c-.095 0-.186-.036-.255-.1l-2.979-2.766c-.102-.096-.24-.151-.379-.151h-7.944c-1.546 0-2.804 1.256-2.804 2.799v9.667c0 .207-.168.375-.375.375s-.375-.167-.375-.374zm29.93-6.107l-2.901 13.618c-.134.739-.83 1.327-1.58 1.327l-24.204-.003c-.385 0-.726-.153-.96-.43-.233-.277-.329-.656-.264-1.04l3.169-13.646c.127-.732.822-1.321 1.576-1.321h24.014c.384 0 .73.159.948.438.223.284.296.67.202 1.057zm-.792-.594c-.076-.097-.203-.151-.358-.151h-24.013c-.388 0-.773.33-.842.72l-3.169 13.646c-.025.146.011.298.102.407.089.105.226.164.386.164l24.204.003c.386 0 .773-.331.844-.722l2.906-13.64c.043-.176.022-.324-.06-.427z" fill="#0568ae"/></svg>