<svg xmlns="http://www.w3.org/2000/svg" viewBox="0 0 36 36" enable-background="new 0 0 36 36"><path d="M32.248 14.96l-2.756 12.937c-.127.702-.787 1.261-1.5 1.261l-22.995-.003c-.366 0-.689-.145-.911-.408-.222-.263-.314-.623-.251-.987l3.011-12.964c.121-.695.78-1.255 1.497-1.255h22.813c.365 0 .693.151.901.416.211.269.281.635.191 1.003zm-27.784 3.457l.912-3.928c.268-1.399 1.534-2.449 2.966-2.449h21.008v-.979c0-.747-.608-1.354-1.355-1.354h-9.678l-2.72-2.525c-.229-.217-.543-.341-.86-.341h-7.547c-1.872 0-3.395 1.521-3.395 3.39v8.185c0 .443.551.508.669.001z" fill="#0568ae"/></svg>