<svg xmlns="http://www.w3.org/2000/svg" viewBox="0 0 36 36" enable-background="new 0 0 36 36"><path d="M29.929 12.637h-5.122c-.697 0-1.267.57-1.267 1.267v16.166c0 .697.57 1.268 1.267 1.268h5.122c.697 0 1.268-.571 1.268-1.268v-16.166c0-.697-.571-1.267-1.268-1.267zm.518 17.432c0 .281-.237.518-.518.518h-5.122c-.281 0-.517-.237-.517-.518v-16.165c0-.28.236-.517.517-.517h5.122c.28 0 .518.237.518.517v16.165zm-9.801-13.321h-5.122c-.698 0-1.268.571-1.268 1.269v12.052c0 .697.57 1.268 1.268 1.268h5.122c.697 0 1.267-.571 1.267-1.268v-12.052c0-.698-.57-1.269-1.267-1.269zm.517 13.321c0 .281-.237.518-.517.518h-5.122c-.285 0-.518-.232-.518-.518v-12.052c0-.286.233-.519.518-.519h5.122c.285 0 .517.233.517.519v12.052zm-9.804-9.346h-5.12c-.698 0-1.268.571-1.268 1.268v8.078c0 .697.569 1.268 1.268 1.268h5.121c.697 0 1.268-.571 1.268-1.268v-8.078c0-.697-.571-1.268-1.269-1.268zm.519 9.346c0 .281-.237.518-.518.518h-5.121c-.286 0-.518-.232-.518-.518v-8.078c0-.281.237-.518.518-.518h5.121c.281 0 .518.237.518.518v8.078zm19.709-23.973l-1.98 3.849c-.066.129-.198.203-.334.203l-.171-.042c-.184-.095-.257-.321-.162-.505l1.458-2.834-25.085 11.611-.158.035c-.142 0-.277-.08-.34-.218-.087-.188-.005-.411.183-.498l25.113-11.622-3.334-.679c-.203-.041-.334-.239-.292-.442.041-.203.239-.333.442-.292l4.401.897c.115.023.212.099.263.205.051.104.049.228-.004.332z" fill="#0568ae"/></svg>