<svg xmlns="http://www.w3.org/2000/svg" viewBox="0 0 36 36" enable-background="new 0 0 36 36"><path d="M26.782 6.533l-.713-1.51c-.123-.26.008-.429.29-.376l.862.161 3.498.652c.212.039.3.226.196.415l-.063.114-.652 1.181-1.004 1.82-.423.768c-.139.251-.352.245-.475-.015l-.662-1.401m-.854-1.809l-21.366 9.888c-.18.083-.259.298-.175.478l.537 1.162c.083.18.298.259.478.176l21.38-9.895m-7.42 8.432c.697 0 1.268.571 1.268 1.269v12.052c0 .697-.571 1.268-1.268 1.268h-4.297c-.698 0-1.268-.571-1.268-1.268v-12.053c0-.698.57-1.269 1.268-1.269h4.297v.001zm9.142-4.112c.697 0 1.268.571 1.268 1.269v16.164c0 .697-.571 1.268-1.268 1.268h-4.297c-.698 0-1.268-.571-1.268-1.268v-16.164c0-.698.57-1.269 1.268-1.269h4.297zm-18.284 8.086c.697 0 1.268.571 1.268 1.269v8.078c0 .697-.571 1.268-1.268 1.268h-4.297c-.698 0-1.268-.571-1.268-1.268v-8.078c0-.698.57-1.269 1.268-1.269h4.297z" fill="#0568ae"/></svg>