<svg xmlns="http://www.w3.org/2000/svg" viewBox="0 0 36 36" enable-background="new 0 0 36 36"><path d="M28.232 3.947h-19.402c-1.205 0-1.925.891-1.925 1.753v24.108l.037.157c-.024.111-.037.224-.037.336 0 .843.736 1.752 1.925 1.752h20.05c.207 0 .375-.168.375-.375s-.168-.375-.375-.375h-20.05c-.802 0-1.175-.598-1.175-1.002 0-.417.365-1.003 1.175-1.003h20.05c.207 0 .375-.168.375-.375v-23.953c0-.564-.459-1.023-1.023-1.023zm.273 24.601h-19.675c-.472 0-.866.139-1.175.357v-23.205c0-.417.365-1.003 1.175-1.003h19.402c.148 0 .273.125.273.273v23.578zm-5.829-19.493h-8.192c-.604 0-1.095.491-1.095 1.095v3.773c0 .604.491 1.095 1.095 1.095h8.192c.604 0 1.095-.491 1.095-1.095v-3.773c.001-.603-.491-1.095-1.095-1.095zm.346 4.868c0 .19-.155.345-.345.345h-8.192c-.19 0-.345-.155-.345-.345v-3.773c0-.19.155-.345.345-.345h8.192c.191 0 .345.155.345.345v3.773z" fill="#0568ae"/></svg>