<svg xmlns="http://www.w3.org/2000/svg" viewBox="0 0 36 36" enable-background="new 0 0 36 36"><path d="M2.956 20.052v-9.667c0-1.957 1.595-3.549 3.554-3.549h7.943c.332 0 .649.125.892.352l2.869 2.665h10.196c.775 0 1.406.63 1.406 1.405 0 .207-.169.375-.375.375-.207 0-.375-.168-.375-.375 0-.361-.295-.655-.656-.655h-10.343c-.095 0-.186-.036-.255-.1l-2.978-2.766c-.103-.096-.24-.151-.38-.151h-7.944c-1.546 0-2.804 1.256-2.804 2.799v9.667c0 .207-.168.375-.375.375s-.375-.168-.375-.375zm30.365 6.965c0 3.515-2.86 6.375-6.375 6.375-2.863 0-5.291-1.898-6.093-4.502l-16.652-.003c-.386 0-.726-.153-.96-.43-.237-.281-.33-.65-.263-1.04l3.168-13.645c.128-.732.822-1.322 1.577-1.322h24.013c.384 0 .729.159.948.437.223.284.297.669.203 1.058l-1.762 8.268c1.343 1.17 2.196 2.888 2.196 4.804zm-12.644 1.123c-.065-.365-.105-.739-.105-1.123 0-3.515 2.859-6.375 6.375-6.375 1.301 0 2.51.394 3.52 1.064l1.689-7.928c.043-.176.021-.324-.061-.427-.077-.097-.204-.151-.358-.151h-24.013c-.389 0-.774.33-.843.721l-3.168 13.645c-.024.146.01.299.102.408.089.105.226.163.387.163l16.475.003zm11.894-1.123c0-3.102-2.523-5.625-5.625-5.625-3.101 0-5.625 2.523-5.625 5.625s2.524 5.625 5.625 5.625c3.102 0 5.625-2.524 5.625-5.625zm-2.139-.338c.099.187.116.392.055.583-.061.19-.192.345-.37.436l-4.547 2.385c-.104.056-.225.086-.346.086-.133 0-.266-.037-.384-.105-.226-.136-.364-.38-.366-.64v-4.772c-.007-.257.133-.507.364-.642.191-.123.491-.144.727-.021l4.551 2.383c.129.063.241.171.316.307zm-.661.354l-4.552-2.378.004 4.765 4.548-2.387z" fill="#0568ae"/></svg>