<svg xmlns="http://www.w3.org/2000/svg" viewBox="0 0 36 36" enable-background="new 0 0 36 36"><path d="M30.012 21.291v-16.502c0-.99-.81-1.8-1.8-1.8h-20.424c-.99 0-1.8.81-1.8 1.8v26.422c0 .99.81 1.8 1.8 1.8h20.424c.99 0 1.8-.81 1.8-1.8v-1.207l-2.462-2.673-.218.039h-18.652c-.375 0-.68-.305-.68-.68v-21.021c0-.375.305-.68.68-.68h18.651c.375 0 .68.305.68.68v13.451l2.001 2.171zm-5.775 8.613c.109-.566.573-1.029 1.14-1.137 1.026-.196 1.912.696 1.705 1.723-.114.565-.579 1.025-1.145 1.128-1.019.187-1.896-.696-1.7-1.714zm-4.522-.462h2.396c.414 0 .75.336.75.75s-.336.75-.75.75h-2.396c-.414 0-.75-.336-.75-.75s.336-.75.75-.75zm1.979-13.459c.113.002.324 0 2.025.867.175.089.399.259.533.404l9.259 10.051c.136.147.206.338.198.539-.008.2-.094.385-.241.521l-1.033.951c-.138.128-.319.198-.508.198-.209 0-.41-.088-.551-.241l-9.26-10.051c-.131-.142-.283-.375-.36-.552-.843-1.935-.756-2.107-.655-2.306.118-.238.335-.376.593-.381m2.593-6.692h-12.574c-.414 0-.75-.336-.75-.75s.336-.75.75-.75h12.575c.414 0 .75.336.75.75-.001.414-.336.75-.751.75zm0 3.998h-12.574c-.414 0-.75-.336-.75-.75s.336-.75.75-.75h12.575c.414 0 .75.336.75.75s-.336.75-.751.75zm-5.51 3.998h-7.065c-.414 0-.75-.336-.75-.75s.336-.75.75-.75h7.065c.414 0 .75.336.75.75s-.335.75-.75.75z" fill="#0568ae"/></svg>