<svg xmlns="http://www.w3.org/2000/svg" viewBox="0 0 36 36" enable-background="new 0 0 36 36"><path d="M24.24 31.22c-.818-.003-1.482-.653-1.482-1.45 0-.797.665-1.446 1.481-1.446.818 0 1.483.649 1.483 1.446.001.797-.664 1.448-1.482 1.45zm-.001-2.146c-.403 0-.731.313-.731.696 0 .385.329.698.732.7.403-.002.732-.315.732-.7.001-.383-.329-.696-.733-.696zm-2.701.696c0-.207-.168-.375-.375-.375h-3c-.207 0-.375.168-.375.375s.168.375.375.375h3c.207 0 .375-.168.375-.375zm-4.03-13.728c0-.207-.168-.375-.375-.375h-7.157c-.207 0-.375.168-.375.375s.168.375.375.375h7.157c.207 0 .375-.168.375-.375zm7.155-2.657c0-.207-.168-.375-.375-.375h-14.312c-.207 0-.375.168-.375.375s.168.375.375.375h14.313c.207 0 .374-.168.374-.375zm0-2.656c0-.207-.168-.375-.375-.375h-14.312c-.207 0-.375.168-.375.375s.168.375.375.375h14.313c.207 0 .374-.168.374-.375zm1.339 16.517c.477 0 .878-.308 1.017-.729l-.694-.753v.434c0 .165-.145.298-.323.298h-17.739c-.207 0-.375.168-.375.375s.168.375.375.375h17.739zm6.58.285l-5.507-5.977v-14.721c0-.58-.481-1.051-1.073-1.051h-17.739c-.591 0-1.072.472-1.072 1.051v12.784c0 .207.168.375.375.375s.375-.168.375-.375v-12.784c0-.166.144-.301.322-.301h17.739c.178 0 .323.135.323.301v13.907l.428.465-4.006-4.348c-.151-.164-.393-.351-.589-.455-1.842-.981-2.042-.984-2.218-.986h-.013c-.361 0-.671.198-.83.53-.144.3-.231.481.742 2.61.09.198.257.448.404.608l8.65 9.389v2.786c0 .509-.431.922-.961.922h-21.597c-.53 0-.961-.414-.961-.922l-.003-26.68c0-.507.433-.92.965-.92h21.598c.53 0 .96.413.96.92l.001 18.87.75.814-.002-19.684c0-.921-.767-1.67-1.71-1.67h-21.598c-.945 0-1.715.749-1.715 1.67l.003 26.68c0 .922.768 1.672 1.711 1.672h21.598c.944 0 1.711-.75 1.711-1.672v-1.972l.434.471c.189.205.457.322.736.322.252 0 .492-.094.677-.264l1.033-.951c.196-.181.31-.427.321-.694.012-.269-.081-.524-.262-.72zm-.566.861l-1.033.951c-.048.044-.109.066-.169.066-.068 0-.135-.027-.184-.08l-9.834-10.674c-.093-.101-.216-.286-.273-.411 0 0-.827-1.81-.748-1.974.04-.084.097-.104.154-.104h.003c.194.003 1.875.898 1.875.898.121.065.297.2.39.301l9.834 10.674c.092.101.086.26-.015.353z" fill="#0568ae"/></svg>