<svg xmlns="http://www.w3.org/2000/svg" viewBox="0 0 36 36" enable-background="new 0 0 36 36"><path d="M4.331 16.628v-9.066c0-1.848 1.505-3.352 3.356-3.352h7.45c.318 0 .621.12.852.337l2.685 2.492h9.553c.74 0 1.342.602 1.342 1.341 0 .207-.168.375-.375.375s-.375-.168-.375-.375c0-.326-.266-.591-.592-.591h-9.7c-.095 0-.186-.036-.256-.1l-2.793-2.594c-.092-.086-.216-.135-.341-.135h-7.45c-1.437 0-2.606 1.167-2.606 2.602v9.066c0 .207-.168.375-.376.375-.206 0-.374-.168-.374-.375zm23.892 8.313l-9.845-.001.01.046v3.872c.408.124.727.443.852.851h12.192c.206 0 .375.168.375.375s-.168.375-.375.375h-12.192c-.161.527-.645.913-1.224.913-.581 0-1.065-.386-1.227-.913h-12.185c-.207 0-.375-.168-.375-.375s.168-.375.375-.375h12.184c.125-.407.442-.725.85-.85v-3.873l.009-.046-12.125-.002c-.368 0-.694-.146-.918-.411-.224-.266-.316-.628-.253-.994l2.971-12.8c.122-.696.784-1.257 1.503-1.257h22.522c.367 0 .698.153.907.419.214.272.284.64.194 1.011l-2.721 12.772c-.128.703-.789 1.263-1.504 1.263zm-22.701-.753l22.701.003c.352 0 .704-.301.769-.659l2.725-12.793c.038-.158.019-.29-.052-.381-.068-.085-.18-.132-.318-.132h-22.522c-.353 0-.706.301-.768.657l-2.971 12.798c-.022.129.009.265.091.362.079.093.201.145.345.145z" fill="#0568ae"/></svg>