<svg xmlns="http://www.w3.org/2000/svg" viewBox="0 0 36 36">
  <path fill="#0568ae" d="M18.752 24.938v3.326c.325.183.59.45.775.774H30.67c.552 0 1 .448 1 1s-.448 1-1 1H19.527c-.35.62-1.01 1.045-1.773 1.045-.763 0-1.422-.425-1.773-1.045H4.845c-.552 0-1-.448-1-1s.448-1 1-1H15.98c.184-.323.45-.59.772-.772v-3.328l-11.79-.002c-.172 0-.335-.034-.48-.1-.146-.064-.274-.16-.38-.284-.13-.155-.206-.347-.235-.552-.018-.123-.023-.25 0-.378l1.34-5.77 1.496-6.443c.057-.328.24-.624.495-.838.19-.16.42-.274.666-.32l.25-.025h22.99c.345 0 .654.143.85.39.15.192.223.433.215.69l-.037.258-.866 4.063-1.73 8.125c-.03.165-.092.322-.178.465l-.147.202c-.27.316-.67.52-1.09.52l-9.37-.002zM4.355 14.888l.88-3.785c.26-1.358 1.49-2.376 2.878-2.376h21.29V7.89c0-.702-.573-1.274-1.276-1.274H18.51l-2.562-2.378c-.216-.204-.51-.32-.81-.32h-8.11c-1.763 0-3.197 1.432-3.197 3.192v7.71c0 .355.442.363.525.07z"/>
</svg>
