<svg xmlns="http://www.w3.org/2000/svg" viewBox="0 0 36 36" enable-background="new 0 0 36 36"><path d="M13.283 31.308h-8.559c-.998 0-1.809-.791-1.809-1.762v-24.916c0-.972.812-1.763 1.81-1.763h15.583c.499 0 1.141.266 1.494.619l3.746 3.746c.353.353.619.995.619 1.494l-.001 13.557c-.753-.721-1.552-1.243-2.375-1.63l.001-11.271h-3.764c-.207 0-.375-.168-.375-.375v-3.765h-13.863c-.275 0-.5.225-.5.5l.001 22.691c0 .275.225.5.5.5h5.485c.59.866 1.265 1.665 2.007 2.375zm-2.96-13.76c-.186 1.434-.286 2.307-.171 3.719.407 8.173 9.499 16.177 16.792 9.195 1.834-.475 4.186-1.332 5.878-2.834.21-.186.295-.457.252-.712-.023-.14-.084-.275-.186-.389-.218-.247-.557-.321-.847-.216-.092.034-.178.081-.254.15-.206.18-.426.351-.654.514-.351.248-.723.474-1.111.678-.827.453-1.707.835-2.63 1.121-.615.19-1.247.346-1.897.453-.239.039-.479.072-.716.098-3.163.367-5.499-.725-7.491-2.874-.278-.292.038-.603.302-.313 2.254 1.672 5.134 2.699 10.084 1.302-3.867-9.924-11.72-3.68-16.592-10.197-.296-.393-.688-.231-.759.305z" fill="#0568ae"/></svg>