<svg xmlns="http://www.w3.org/2000/svg" viewBox="0 0 36 36">
  <path fill="#0568ae" d="M32.9 16.5v14.7c0 .8-.6 1.4-1.4 1.4H4.6c-.8 0-1.4-.6-1.4-1.4V16.5c0-.8.5-1.8 1.2-2.3l2.1-1.5V5c0-1 .8-1.8 1.8-1.8h15.6c.5 0 1.1.3 1.5.6L29 7.7c.4.4.6 1 .6 1.5v3.6c.2.1.9.6 1.5 1.1l.5.4c.7.4 1.3 1.4 1.3 2.2zm-5.6-6.7h-3.8c-.2 0-.4-.2-.4-.4V5.7H9.2c-.2 0-.5.2-.5.5v12.9l8.2 6c.3.2.7.3 1 .3.5 0 .9-.1 1.1-.3l8.1-6 .2-9.3zm-9.9 11.4v-1.4c-.6 0-1.2-.1-1.7-.3-.5-.2-1-.4-1.4-.6l.5-1.5c.8.4 1.6.6 2.6.7v-2.6c-.8-.2-1.3-.5-1.8-.7-.4-.3-.7-.5-.9-.9-.2-.3-.3-.8-.3-1.3 0-.8.3-1.4.8-1.9s1.3-.8 2.2-.9V8.4h1.3v1.4c.4 0 .9.1 1.3.3.4.1.8.3 1.2.5l-.5 1.4c-.7-.3-1.4-.5-2-.6v2.4c.7.2 1.3.4 1.7.7.4.3.7.6.9.9.2.4.3.8.3 1.3 0 .8-.3 1.4-.8 2-.5.5-1.3.8-2.2.9v1.5h-1.2zm-1-8.8c0 .3.1.5.2.6.2.2.4.3.8.4v-2c-.7.2-1 .5-1 1zm3.4 4.5c0-.2-.1-.4-.2-.6-.2-.2-.4-.3-.8-.4V18c.6-.1 1-.5 1-1.1z"/>
</svg>
