<svg xmlns="http://www.w3.org/2000/svg" viewBox="0 0 36 36">
  <path fill="#0568ae" d="M31.9 13.8l-2.3-1.6V8.9c0-.5-.3-1.1-.6-1.5l-3.7-3.7c-.4-.4-1-.6-1.5-.6H8.2c-1 0-1.8.8-1.8 1.8v7.4l-2.3 1.6c-.7.5-1.3 1.7-1.3 2.6v14.7c0 1 .8 1.8 1.8 1.8h26.8c1 0 1.8-.8 1.8-1.8V16.3c0-.9-.5-2-1.3-2.5zm-3.6-6h-3.5V4.3l3.5 3.5zm-20.1-4h15.6c.1 0 .2 0 .3.1v4.3c0 .2.2.4.4.4h4.3c0 .1.1.2.1.3v9L19.2 25c-.3.2-.7.3-1.2.3-.4 0-.8-.1-1.1-.3l-9.7-7.1V4.8c-.1-.6.4-1 1-1zm24.3 27.3c0 .6-.5 1.1-1.1 1.1H4.6c-.6 0-1.1-.5-1.1-1.1V16.3c0-.7.5-1.6 1-2L6.3 13v4.3l-1-.7c-.2-.1-.4-.1-.5.1-.1.2-.1.4.1.5l7.5 5.5-7.5 7.5c-.1.1-.1.4 0 .5.1.1.2.1.3.1.1 0 .2 0 .3-.1l7.6-7.6 3.4 2.5c.4.3 1 .4 1.5.4.7 0 1.2-.1 1.7-.5l3.4-2.5 7.6 7.6c.1.1.2.1.3.1.1 0 .2 0 .3-.1.1-.1.1-.4 0-.5l-7.5-7.5 7.4-5.5c.2-.1.2-.4.1-.5-.1-.2-.4-.2-.5-.1l-1 .7V13l1.8 1.3c.6.4 1 1.3 1 2v14.8zM17.7 20.6V19c-.6 0-1.1-.1-1.7-.3-.6-.2-1.1-.4-1.5-.7l.3-.6c1 .6 1.9.8 3 .9v-4.7c-.8-.1-1.4-.4-1.8-.6-.4-.2-.8-.5-1-.9-.2-.3-.3-.8-.3-1.3s.1-1 .4-1.4c.3-.4.6-.7 1.1-1 .5-.2 1-.4 1.5-.4V6.7h.7v1.4c.9 0 1.8.3 2.7.8l-.3.6c-.8-.4-1.7-.7-2.5-.7v4.3c1.1.3 1.9.7 2.4 1.1.5.5.7 1.1.7 1.8 0 .6-.1 1-.4 1.5-.3.4-.6.8-1.1 1-.5.3-1 .4-1.6.5v1.6h-.6zm-2.2-9.8c0 .6.2 1 .5 1.3.3.3.9.6 1.8.8V8.8c-.7.1-1.3.3-1.7.6-.4.4-.6.8-.6 1.4zm5.2 5.3c0-.6-.2-1-.5-1.4-.3-.3-1-.6-1.8-.9v4.5c.7-.1 1.3-.3 1.7-.7.4-.4.6-.9.6-1.5z"/>
</svg>
