<svg xmlns="http://www.w3.org/2000/svg" viewBox="0 0 36 36">
  <path fill="#009FDB" d="M29 7.5l-3.7-3.7c-.4-.4-1-.6-1.5-.6H8.2c-1 0-1.8.8-1.8 1.8v24.9c0 1 .8 1.8 1.8 1.8h19.6c1 0 1.8-.8 1.8-1.8V9.1c0-.6-.2-1.3-.6-1.6zm-1.7 21.2c0 .3-.2.5-.5.5H9.3c-.3 0-.5-.2-.5-.5L8.7 6c0-.3.2-.5.5-.5h13.9v3.8c0 .2.2.4.4.4h3.8v19zM11.1 14.9h2.1c.7 0 1.2.2 1.5.5.4.3.5.8.5 1.4 0 .6-.2 1-.6 1.4-.4.3-.9.5-1.5.5h-.7v1.6H11v-5.4zm1.4 2.5h.6c.2 0 .4-.1.5-.2.1-.1.2-.3.2-.5s-.1-.4-.2-.5c-.1-.1-.3-.2-.5-.2h-.6v1.4zm8.2.2c0 .5-.1 1-.3 1.4-.2.4-.5.7-.9.9-.4.2-.9.3-1.4.3h-2v-5.3h2c.6 0 1 .1 1.4.3.4.2.7.5.9.9.2.5.3.9.3 1.5zm-1.5 0c0-.4-.1-.8-.3-1-.2-.2-.5-.4-.9-.4h-.6V19h.6c.4 0 .7-.1.9-.4.2-.2.3-.6.3-1zm2.4-2.7h3.5v1.2h-2v.9h1.6v1.2H23v1.9h-1.4v-5.2z"/>
</svg>
