<svg xmlns="http://www.w3.org/2000/svg" viewBox="0 0 36 36">
  <path fill="#0568ae" d="M29 7.5l-3.7-3.7c-.4-.4-1-.6-1.5-.6H8.2c-1 0-1.8.8-1.8 1.8v19.5c0 .2.2.4.4.4s.4-.2.4-.4V5c0-.6.5-1 1.1-1h15.6c.1 0 .2 0 .3.1v4.3c0 .2.2.4.4.4h4.3c0 .1.1.2.1.3v20.8c0 .6-.5 1-1.1 1H8.2c-.2 0-.4.2-.4.4s.2.4.4.4h19.6c1 0 1.8-.8 1.8-1.8V9.1c0-.6-.2-1.3-.6-1.6zm-4.1-3.1l3.5 3.5h-3.5V4.4zm-14.6 10h2c.7 0 1.3.2 1.7.5.4.4.6.8.6 1.5 0 .6-.2 1.1-.6 1.5-.4.4-1 .6-1.7.6H11v2.4h-.7v-6.5zm.7 3.4h1.3c.5 0 .9-.1 1.2-.4.3-.2.4-.6.4-1s-.1-.8-.4-1c-.3-.2-.7-.4-1.2-.4H11v2.8zm10-.1c0 .7-.1 1.2-.4 1.7-.3.5-.6.9-1.1 1.1-.5.3-1 .4-1.7.4h-2v-6.5h2c.7 0 1.2.1 1.7.4.5.3.8.6 1.1 1.1.2.5.4 1.1.4 1.8zm-.8 0c0-.8-.2-1.4-.6-1.9-.4-.4-1-.7-1.8-.7h-1.3v5.1h1.3c.8 0 1.4-.2 1.8-.7.4-.4.6-1 .6-1.8zm2.1-3.3h3.8v.7H23v2.3h2.5v.7H23v2.8h-.7v-6.5z"/>
</svg>
