<svg xmlns="http://www.w3.org/2000/svg" viewBox="0 0 36 36" enable-background="new 0 0 36 36"><path d="M28.152 4.128h-17.351c-2.341 0-3.975 1.265-3.975 3.075v21.099999999999998c0 1.719 1.52 3.575 3.976 3.575h17.998c.207 0 .375-.168.375-.375s-.168-.375-.375-.375h-17.999c-1.992 0-3.225-1.466-3.226-2.824v-.005c.003-1.388 1.208-2.821 3.225-2.821h18c.207 0 .375-.168.375-.375v-19.951c0-.565-.459-1.024-1.023-1.024zm.273 20.6h-17.624c-1.446 0-2.551.616-3.225 1.475v-18.999c0-1.369 1.326-2.325 3.225-2.325h17.352c.147 0 .272.125.272.273v19.576zm.75 4.635c0 .207-.168.375-.375.375h-15.825c-.207 0-.375-.168-.375-.375s.168-.375.375-.375h15.825c.207 0 .375.168.375.375zm0-2.14c0 .207-.168.375-.375.375h-15.825c-.207 0-.375-.168-.375-.375s.168-.375.375-.375h15.825c.207 0 .375.168.375.375zm-11.175-18.598c-3.515 0-6.375 2.86-6.375 6.375s2.86 6.375 6.375 6.375 6.375-2.86 6.375-6.375-2.86-6.375-6.375-6.375zm0 12c-3.101 0-5.625-2.524-5.625-5.625 0-3.102 2.524-5.625 5.625-5.625 3.102 0 5.625 2.523 5.625 5.625 0 3.101-2.523 5.625-5.625 5.625zm3.17-6.27l-4.55-2.383c-.241-.125-.518-.113-.727.022-.231.134-.37.382-.365.646v4.768c.002.26.141.505.366.64.121.07.253.106.385.106.119 0 .237-.029.345-.087l4.547-2.385c.178-.091.31-.246.37-.437.061-.192.043-.397-.056-.585-.076-.136-.189-.243-.315-.305zm-4.892 3.051v-4.766l4.548 2.376-4.548 2.39z" fill="#0568ae"/></svg>