<svg xmlns="http://www.w3.org/2000/svg" viewBox="0 0 36 36" enable-background="new 0 0 36 36"><path d="M29.002 27.553c.414 0 .75.336.75.75s-.336.75-.75.75h-16.786c-.414 0-.75-.336-.75-.75s.336-.75.75-.75h16.786zm-20.802.75v.002c.001.887.827 2.198 2.601 2.198h18c.552 0 1 .448 1 1s-.448 1-1 1h-18c-2.841 0-4.601-2.18-4.601-4.2v-21.099c0-2.144 1.935-3.701 4.6-3.701h17.352c.909 0 1.648.739 1.648 1.648v19.951c0 .552-.448 1-1 1h-18c-1.791 0-2.598 1.283-2.6 2.196v.005zm3.8-13.303c0 3.313 2.686 6 6 6s6-2.687 6-6-2.687-6-6-6-6 2.686-6 6zm9.132-.261c-.06-.107-.148-.192-.249-.24l-4.28-2.241c-.184-.095-.417-.082-.57.017-.181.106-.29.3-.285.503v4.488c.001.204.11.396.286.501.093.054.197.083.302.083.094 0 .189-.024.271-.068l4.278-2.244c.139-.071.242-.192.289-.341.049-.15.035-.311-.042-.458z" fill="#0568ae"/></svg>