<svg xmlns="http://www.w3.org/2000/svg" viewBox="0 0 36 36" enable-background="new 0 0 36 36"><path d="M25.941 18.086h-15.93c-.207 0-.375-.168-.375-.375s.168-.375.375-.375h15.93c.207 0 .375.168.375.375s-.168.375-.375.375zm.375-3.573c0-.207-.168-.375-.375-.375h-15.93c-.207 0-.375.168-.375.375s.168.375.375.375h15.93c.207 0 .375-.168.375-.375zm0-3.199c0-.207-.168-.375-.375-.375h-15.93c-.207 0-.375.168-.375.375s.168.375.375.375h15.93c.207 0 .375-.168.375-.375zm7.039 15.686c0 3.515-2.86 6.375-6.375 6.375-1.731 0-3.302-.696-4.452-1.82h-14.368c-.207 0-.375-.168-.375-.375s.168-.375.375-.375h13.718c-.795-1.063-1.272-2.378-1.272-3.805 0-3.515 2.86-6.375 6.375-6.375.651 0 1.279.099 1.871.281l.001-11.934c0-.101-.028-.222-.065-.345h-4.324c-.207 0-.375-.168-.375-.375v-4.322c-.123-.038-.243-.065-.345-.065h-15.584c-.584 0-1.06.454-1.06 1.013l.002 19.476c0 .207-.168.375-.375.375s-.375-.168-.375-.375l-.002-19.477c0-.972.812-1.763 1.81-1.763h15.583c.5 0 1.142.266 1.494.619l3.746 3.746c.353.352.619.995.619 1.494l-.001 12.223c2.211 1.001 3.754 3.224 3.754 5.804zm-5.033-19.122l-3.484-3.483v3.483h3.484zm4.283 19.122c0-2.155-1.22-4.029-3.004-4.973-.24-.127-.491-.233-.75-.325-.586-.208-1.214-.327-1.871-.327-3.101 0-5.625 2.523-5.625 5.625 0 1.468.57 2.802 1.494 3.805.127.138.261.27.402.395l.001.001c.141.125.288.243.441.354.926.67 2.06 1.07 3.287 1.07 3.102 0 5.625-2.524 5.625-5.625zm-2.14-.34c.099.188.117.392.056.585-.06.19-.191.346-.37.437l-4.547 2.385c-.108.058-.226.086-.345.086-.132 0-.264-.035-.385-.105-.229-.136-.365-.375-.367-.639v-4.769c-.005-.265.135-.512.365-.646.204-.133.489-.145.727-.021l4.55 2.383c.127.06.24.168.316.304zm-.659.356l-4.548-2.376v4.766l4.548-2.39z" fill="#0568ae"/></svg>