<svg xmlns="http://www.w3.org/2000/svg" viewBox="0 0 36 36" enable-background="new 0 0 36 36"><path d="M25.039 25.623c.802 0 1.455-.653 1.455-1.455v-11.25c0-.802-.653-1.455-1.455-1.455h-1.933c-.803 0-1.456.652-1.456 1.455v11.25c0 .802.653 1.455 1.456 1.455h1.933zm-2.639-1.455v-11.25c0-.389.316-.705.706-.705h1.933c.389 0 .705.316.705.705v11.25c0 .389-.316.705-.705.705h-1.933c-.39 0-.706-.316-.706-.705zm-3.353 1.455c.802 0 1.455-.653 1.455-1.455v-7.161c0-.802-.653-1.455-1.455-1.455h-1.934c-.802 0-1.455.653-1.455 1.455v7.161c0 .802.653 1.455 1.455 1.455h1.934zm-2.638-1.455v-7.161c0-.389.316-.705.705-.705h1.934c.389 0 .705.316.705.705v7.161c0 .389-.316.705-.705.705h-1.934c-.389 0-.705-.316-.705-.705zm-3.355 1.455c.803 0 1.456-.653 1.456-1.455v-3.402c0-.802-.653-1.455-1.456-1.455h-1.931c-.803 0-1.456.652-1.456 1.455v3.402c0 .802.653 1.455 1.456 1.455h1.931zm-2.637-1.455v-3.402c0-.389.317-.705.706-.705h1.931c.389 0 .706.316.706.705v3.402c0 .389-.316.705-.706.705h-1.931c-.39 0-.706-.316-.706-.705zm18.67-16.664l-3.746-3.746c-.352-.353-.994-.619-1.494-.619h-15.583c-.998 0-1.81.79-1.81 1.762l.003 19.477c0 .207.168.375.375.375s.375-.168.375-.375l-.003-19.476c0-.558.475-1.012 1.06-1.012h15.584c.089 0 .194.021.301.051v4.338c0 .207.168.375.375.375h4.367c.038.123.065.244.065.345l-.001 20.819c0 .559-.475 1.013-1.057 1.013h-19.634c-.207 0-.375.168-.375.375s.168.375.375.375h19.635c.996 0 1.807-.791 1.807-1.763l.001-20.819c-.001-.5-.267-1.142-.62-1.495zm-4.188-3.128l3.527 3.527h-3.527v-3.527z" fill="#0568ae"/></svg>