<svg xmlns="http://www.w3.org/2000/svg" viewBox="0 0 36 36" enable-background="new 0 0 36 36"><path d="M21.282 13.892c0-.594.487-1.08 1.081-1.08h1.307c.594 0 1.08.486 1.08 1.08v11.25c0 .594-.486 1.08-1.08 1.08h-1.307c-.594 0-1.081-.486-1.081-1.08v-11.25zm-5.008 11.25c0 .594.486 1.08 1.08 1.08h1.279c.594 0 1.08-.486 1.08-1.08v-7.161c0-.594-.486-1.08-1.08-1.08h-1.279c-.594 0-1.08.486-1.08 1.08v7.161zm-5.024 0c0 .594.486 1.08 1.081 1.08h1.277c.595 0 1.081-.486 1.081-1.08v-3.402c0-.594-.486-1.08-1.081-1.08h-1.277c-.595 0-1.081.486-1.081 1.08v3.402zm18.376-16.169l-.001 20.819c0 .972-.81 1.762-1.806 1.762h-19.635c-.998 0-1.809-.791-1.809-1.762l-.001-24.916c0-.972.812-1.763 1.81-1.763h15.583c.499 0 1.141.266 1.494.619l3.746 3.746c.353.354.619.996.619 1.495zm-2.375.655h-3.764c-.207 0-.375-.168-.375-.375v-3.764h-13.863c-.275 0-.5.225-.5.5l.001 22.69c0 .275.225.5.5.5h17.5c.275 0 .5-.225.5-.5l.001-19.051z" fill="#0568ae"/></svg>