<svg xmlns="http://www.w3.org/2000/svg" viewBox="0 0 36 36" enable-background="new 0 0 36 36"><path d="M26.63 21c-3.313 0-6 2.687-6 6s2.687 6 6 6 6-2.686 6-6-2.687-6-6-6zm2.597 9.275h-5.194c-.345 0-.625-.28-.625-.625s.28-.625.625-.625h5.194c.345 0 .625.28.625.625 0 .346-.28.625-.625.625zm0-2.65h-5.194c-.345 0-.625-.28-.625-.625s.28-.625.625-.625h5.194c.345 0 .625.28.625.625s-.28.625-.625.625zm0-2.65h-5.194c-.345 0-.625-.28-.625-.625s.28-.625.625-.625h5.194c.345 0 .625.28.625.625s-.28.625-.625.625zm-25.857-6.558v-8.185c0-1.869 1.523-3.39 3.395-3.39h7.546c.318 0 .631.124.86.341l2.72 2.525h9.678c.747 0 1.355.607 1.355 1.354v.979h-21.007c-1.432 0-2.698 1.049-2.966 2.449l-.912 3.928c-.118.507-.669.442-.669-.001zm15.76 8.583c0 .75.114 1.473.319 2.157l-14.877-.002c-.366 0-.689-.145-.911-.408-.222-.263-.314-.623-.251-.987l3.01-12.965c.121-.695.78-1.255 1.497-1.255h22.813c.365 0 .693.152.901.416.212.27.281.636.192 1.004l-1.213 5.694c-1.155-.727-2.517-1.155-3.98-1.155-4.136.001-7.5 3.366-7.5 7.501z" fill="#0568ae"/></svg>