<svg xmlns="http://www.w3.org/2000/svg" viewBox="0 0 36 36" enable-background="new 0 0 36 36"><path d="M3.013 20.04v-9.667c0-1.957 1.595-3.549 3.554-3.549h7.943c.328 0 .653.129.892.353l2.869 2.664h10.196c.775 0 1.406.63 1.406 1.405 0 .207-.168.375-.375.375s-.375-.168-.375-.375c0-.361-.295-.655-.656-.655h-10.343c-.095 0-.186-.036-.255-.1l-2.979-2.766c-.103-.096-.24-.151-.379-.151h-7.944c-1.546 0-2.804 1.256-2.804 2.799v9.667c0 .207-.168.375-.375.375s-.375-.168-.375-.375zm30.366 6.965c0 3.515-2.86 6.375-6.375 6.375-2.863 0-5.291-1.898-6.093-4.502l-16.653-.003c-.385 0-.726-.152-.96-.43-.237-.281-.33-.65-.264-1.039l3.169-13.647c.128-.732.822-1.321 1.576-1.321h24.014c.384 0 .73.159.948.438.223.284.296.67.201 1.058l-1.761 8.268c1.344 1.17 2.198 2.887 2.198 4.803zm-12.645 1.123c-.065-.365-.105-.739-.105-1.123 0-3.515 2.859-6.375 6.375-6.375 1.301 0 2.511.394 3.521 1.065l1.689-7.928c.042-.176.021-.324-.061-.427-.076-.097-.203-.151-.358-.151h-24.015c-.388 0-.773.33-.842.721l-3.169 13.644c-.024.146.011.298.103.408.089.105.226.163.387.163l16.475.003zm11.895-1.123c0-3.102-2.523-5.625-5.625-5.625-3.101 0-5.625 2.523-5.625 5.625s2.524 5.625 5.625 5.625 5.625-2.524 5.625-5.625zm-3.028-2.526h-5.194c-.207 0-.375.168-.375.375s.168.375.375.375h5.194c.207 0 .375-.168.375-.375s-.168-.375-.375-.375zm0 2.151h-5.194c-.207 0-.375.168-.375.375s.168.375.375.375h5.194c.207 0 .375-.168.375-.375s-.168-.375-.375-.375zm0 2.15h-5.194c-.207 0-.375.168-.375.375s.168.375.375.375h5.194c.207 0 .375-.168.375-.375s-.168-.375-.375-.375z" fill="#0568ae"/></svg>