<svg xmlns="http://www.w3.org/2000/svg" viewBox="0 0 36 36">
  <path fill="#0568ae" d="M26.7 31v-.9c-.3 0-.7-.1-1-.2-.3-.1-.6-.2-.8-.4l.2-.5c.5.3 1.1.5 1.6.5v-2.4c-.6-.2-1-.4-1.3-.6-.2-.2-.4-.6-.4-1s.2-.8.5-1.1c.3-.3.7-.5 1.2-.5V23h.6v.8c.5 0 1 .2 1.5.5l-.2.5c-.4-.2-.9-.4-1.3-.4v2.2c.6.2 1.1.4 1.4.7.3.3.4.6.4 1 0 .5-.2.9-.5 1.2-.3.3-.7.5-1.3.6v.9h-.6zm-1-5.6c0 .3.1.5.2.6.2.1.4.3.8.4v-2c-.3 0-.6.1-.8.3-.1.2-.2.4-.2.7zm2.7 3c0-.3-.1-.5-.2-.7-.2-.2-.4-.3-.9-.4v2.2c.4-.1.6-.2.8-.4.2-.2.3-.4.3-.7zM19 25.6c.8 0 1.5-.7 1.5-1.5V17c0-.8-.7-1.5-1.5-1.5h-2c-.8 0-1.5.7-1.5 1.5v7.2c0 .8.7 1.5 1.5 1.5h2zm-2.7-1.5V17c0-.4.3-.7.7-.7h2c.4 0 .7.3.7.7v7.2c0 .4-.3.7-.7.7h-2c-.3-.1-.7-.4-.7-.8zM13 25.6c.8 0 1.5-.7 1.5-1.5v-3.4c0-.8-.7-1.5-1.5-1.5h-2c-.8 0-1.5.7-1.5 1.5v3.4c0 .8.7 1.5 1.5 1.5h2zm-2.7-1.5v-3.4c0-.4.3-.7.7-.7h2c.4 0 .7.3.7.7v3.4c0 .4-.3.7-.7.7h-2c-.3 0-.7-.3-.7-.7zm19.3-2.9V9c0-.5-.3-1.1-.6-1.5l-3.7-3.7c-.4-.4-1-.6-1.5-.6H8.2c-1 0-1.8.8-1.8 1.8v19.5c0 .2.2.4.4.4s.4-.2.4-.4V5c0-.6.5-1 1.1-1h15.6c.2 0 .4.1.6.2v4.2c0 .2.2.4.4.4H29c0 .1.1.2.1.3V21c-.6-.2-1.2-.3-1.9-.3h-.6v-7.8c0-.8-.7-1.5-1.5-1.5H23c-.8 0-1.5.7-1.5 1.5v10.8c-.6 1-.9 2.1-.9 3.3 0 1.4.5 2.7 1.3 3.8H8.2c-.2 0-.4.2-.4.4s.2.4.4.4h14.4c1.2 1.1 2.7 1.8 4.5 1.8 3.5 0 6.4-2.9 6.4-6.4-.1-2.6-1.7-4.8-3.9-5.8zM25.1 7.9V4.6l3.3 3.3h-3.3zm-2.8 5c0-.4.3-.7.7-.7h2c.4 0 .7.3.7.7v7.9c-1.3.3-2.5 1-3.3 1.9v-9.8zM27 32.6c-3.1 0-5.6-2.5-5.6-5.6 0-3.1 2.5-5.6 5.6-5.6 3.1 0 5.6 2.5 5.6 5.6 0 3.1-2.5 5.6-5.6 5.6z"/>
</svg>
