<svg xmlns="http://www.w3.org/2000/svg" viewBox="0 0 36 36">
  <path fill="#0568ae" d="M14.7 21.7v3.4c0 .6-.5 1.1-1.1 1.1h-1.3c-.6 0-1.1-.5-1.1-1.1v-3.4c0-.6.5-1.1 1.1-1.1h1.3c.6.1 1.1.5 1.1 1.1zm5 3.4V25.4c-.1.5-.5.8-1 .8h-1.3c-.6 0-1.1-.5-1.1-1.1V18c0-.6.5-1.1 1.1-1.1h1.3c.6 0 1.1.5 1.1 1.1v7.1zm1.6-2.9v-8.3c0-.6.5-1.1 1.1-1.1h1.3c.6 0 1.1.5 1.1 1.1v6c-1.4.4-2.6 1.2-3.5 2.3zm-1.5 7c.3.9.7 1.7 1.2 2.4H8.2c-1 0-1.8-.8-1.8-1.8V4.9c0-1 .8-1.8 1.8-1.8h15.6c.5 0 1.1.3 1.5.6L29 7.5c.4.4.6 1 .6 1.5v11c-.7-.3-1.5-.4-2.4-.5V9.6h-3.8c-.2 0-.4-.2-.4-.4V5.5H9.2c-.2 0-.5.2-.5.5v22.7c0 .3.2.5.5.5h10.6zm6.2-3.7c0 .2 0 .3.1.4.1.1.3.2.5.3v-1.3c-.4.1-.6.3-.6.6zm1.5 2.2V29c.4-.1.7-.3.7-.7 0-.1 0-.3-.1-.4-.2 0-.4-.1-.6-.2zM27 21c-3.3 0-6 2.7-6 6s2.7 6 6 6 6-2.7 6-6-2.7-6-6-6zm1.8 8.5c-.3.3-.8.5-1.4.6v.9h-.8v-.9c-.4 0-.7-.1-1.1-.2-.3-.1-.6-.2-.9-.4l.3-1c.5.3 1 .4 1.6.4v-1.6c-.5-.1-.8-.3-1.1-.5-.3-.2-.5-.3-.6-.6-.1-.2-.2-.5-.2-.8 0-.5.2-.9.5-1.2.3-.3.8-.5 1.4-.6V23h.8v.9c.3 0 .6.1.8.2.3.1.5.2.7.3l-.3 1c-.4-.2-.9-.3-1.3-.4v1.5c.4.1.8.3 1.1.4.3.2.5.4.6.6.1.2.2.5.2.8.2.5.1.9-.3 1.2z"/>
</svg>
