<svg xmlns="http://www.w3.org/2000/svg" viewBox="0 0 36 36" enable-background="new 0 0 36 36"><path d="M3.755 18.417v-8.185c0-1.869 1.523-3.39 3.395-3.39h7.546c.318 0 .631.124.86.341l2.72 2.525h9.678c.747 0 1.355.607 1.355 1.354v.979h-21.007c-1.432 0-2.698 1.049-2.966 2.449l-.912 3.928c-.118.507-.669.442-.669-.001zm23.259 1.083c1.463 0 2.825.427 3.98 1.155l1.213-5.694c.09-.368.02-.735-.192-1.004-.207-.264-.536-.416-.901-.416h-22.812c-.717 0-1.376.56-1.497 1.255l-3.011 12.963c-.062.365.029.724.251.987s.546.408.911.408l14.878.002c-.206-.684-.32-1.407-.32-2.157 0-4.134 3.365-7.499 7.5-7.499zm0 3c-2.481 0-4.5 2.019-4.5 4.5s2.019 4.5 4.5 4.5 4.5-2.019 4.5-4.5-2.018-4.5-4.5-4.5m0-1.5c3.314 0 6 2.687 6 6s-2.686 6-6 6c-3.313 0-6-2.686-6-6s2.687-6 6-6zm-1.201 8.185l1.719-1.644c.148-.141.232-.337.232-.542v-2.388c0-.414-.336-.75-.75-.75s-.75.336-.75.75v2.067l-1.487 1.422c-.299.286-.31.761-.024 1.06.147.154.344.232.542.232.186.001.372-.068.518-.207z" fill="#0568ae"/></svg>