<svg xmlns="http://www.w3.org/2000/svg" viewBox="0 0 36 36" enable-background="new 0 0 36 36"><path d="M18.257 12.636c-1.203-1.202-2.802-1.864-4.501-1.864-1.699 0-3.297.662-4.499 1.864-1.202 1.202-1.864 2.8-1.864 4.5 0 1.252.362 2.454 1.051 3.495l-4.706 4.706c-.238.238-.369.554-.369.89 0 .337.131.653.369.892.238.237.555.368.89.368.336 0 .652-.131.891-.369l4.698-4.699c1.051.708 2.268 1.081 3.539 1.081 1.7 0 3.299-.662 4.501-1.864 1.202-1.203 1.864-2.801 1.864-4.5 0-1.698-.662-3.297-1.864-4.5zm-4.508.641c2.124 0 3.852 1.728 3.852 3.852 0 2.124-1.728 3.852-3.852 3.852-2.124 0-3.852-1.728-3.852-3.852 0-2.124 1.728-3.852 3.852-3.852zm15.877-4.304l-.001 20.819c0 .972-.81 1.762-1.806 1.762h-19.635c-.998 0-1.809-.79-1.809-1.762v-1.445l.202-.166 2.173-2.173v2.671c0 .275.225.5.5.5h17.5c.275 0 .5-.225.5-.5l.001-19.051h-3.764c-.207 0-.375-.168-.375-.375v-3.764h-13.863c-.275 0-.5.225-.5.5v5.086c-.191.158-.375.324-.553.501-.825.824-1.435 1.803-1.822 2.866v-9.566c0-.972.812-1.763 1.81-1.763h15.583c.499 0 1.141.266 1.494.619l3.746 3.746c.353.354.619.996.619 1.495z" fill="#0568ae"/></svg>