<svg xmlns="http://www.w3.org/2000/svg" viewBox="0 0 36 36" enable-background="new 0 0 36 36"><path d="M31.293 7.475l-3.746-3.746c-.354-.352-.996-.618-1.494-.618h-15.584c-.998 0-1.81.791-1.81 1.763l.002 6.541c0 .207.168.375.375.375s.375-.168.375-.375l-.001-6.542c0-.558.475-1.013 1.06-1.013h15.584c.101 0 .222.028.344.066v4.323c0 .207.168.375.375.375h4.324c.038.123.065.244.065.345l-.002 20.819c0 .559-.474 1.013-1.056 1.013h-19.635c-.207 0-.375.168-.375.375s.168.375.375.375h19.635c.996 0 1.806-.791 1.806-1.763l.001-20.819c0-.499-.265-1.141-.618-1.494zm-4.146-3.085l3.483 3.484h-3.483v-3.484zm-11.843 19.107c1.7 0 3.299-.662 4.501-1.864 1.202-1.203 1.863-2.801 1.863-4.5 0-1.699-.662-3.297-1.863-4.5-1.203-1.202-2.802-1.863-4.501-1.863-1.699 0-3.297.662-4.499 1.864-1.202 1.202-1.865 2.8-1.865 4.5 0 1.252.363 2.454 1.051 3.495l-4.706 4.705c-.238.238-.369.554-.369.891 0 .337.131.653.369.892.239.237.555.368.891.368.336 0 .651-.131.89-.369l4.699-4.699c1.051.707 2.268 1.08 3.539 1.08zm-3.845-1.835l-4.922 4.922c-.193.193-.529.192-.721.001-.096-.096-.149-.224-.149-.361 0-.136.053-.264.149-.36l4.928-4.928c.131-.131.147-.338.037-.487-.713-.97-1.09-2.116-1.09-3.316 0-1.499.584-2.909 1.645-3.97 1.061-1.06 2.47-1.644 3.969-1.644 1.499 0 2.909.584 3.97 1.644 1.06 1.061 1.644 2.471 1.644 3.97s-.583 2.909-1.644 3.97c-1.06 1.06-2.471 1.644-3.97 1.644-1.217 0-2.377-.388-3.355-1.12-.151-.112-.359-.097-.491.035zm.597-7.247c-.147-.146-.147-.384 0-.53.868-.868 2.022-1.346 3.248-1.346s2.381.478 3.25 1.346c.868.867 1.346 2.021 1.346 3.249 0 1.228-.478 2.382-1.346 3.25-.869.868-2.023 1.346-3.25 1.346-.207 0-.375-.168-.375-.375s.168-.375.375-.375c1.027 0 1.993-.4 2.72-1.126.726-.726 1.126-1.691 1.126-2.719 0-1.027-.4-1.993-1.126-2.718-.727-.726-1.693-1.127-2.72-1.127-1.026 0-1.991.4-2.718 1.127-.147.144-.384.144-.53-.002z" fill="#0568ae"/></svg>