<svg xmlns="http://www.w3.org/2000/svg" viewBox="0 0 36 36">
  <path fill="#0568ae" d="M31 32.1c-.2 0-.4-.1-.6-.2-.4-.3-.5-1-.2-1.4 1.5-2.1 2.4-4.8 2.4-7.8 0-2.9-.8-5.7-2.4-7.8-.3-.4-.2-1.1.2-1.4.4-.3 1.1-.2 1.4.2 1.8 2.4 2.8 5.6 2.8 9 0 3.4-1 6.5-2.8 8.9-.2.4-.5.5-.8.5zm-2-3.7c1.1-1.5 1.7-3.5 1.7-5.6 0-2.1-.6-4.2-1.8-5.7-.3-.4-1-.5-1.4-.2-.4.3-.5 1-.2 1.4.9 1.2 1.4 2.8 1.4 4.5 0 1.7-.5 3.2-1.3 4.4-.3.4-.2 1.1.2 1.4.2.1.4.2.6.2.3 0 .6-.2.8-.4zm-2.6-5.6c0 3.4-2.8 6.2-6.2 6.2-3.4 0-6.2-2.8-6.2-6.2 0-3.4 2.8-6.2 6.2-6.2 3.4 0 6.2 2.7 6.2 6.2zm-5.1 0c0-.6-.5-1.1-1.1-1.1-.6 0-1.1.5-1.1 1.1s.5 1.1 1.1 1.1c.6 0 1.1-.5 1.1-1.1zm-8.8 0v.8h-.8c-5.1 0-9.2-4.1-9.2-9.2s4.1-9.2 9.2-9.2S21 9.3 21 14.4v.7h-.8c-1.9 0-3.7.7-5 1.9H8.4c-.4 0-.7.3-.7.8 0 .4.3.8.7.8h5.5c-.9 1.1-1.4 2.6-1.4 4.2zM7.6 11.1c0 .4.3.8.7.8h6.8c.4 0 .8-.3.8-.8s-.3-.8-.8-.8H8.4c-.5.1-.8.4-.8.8zm-.7 4.1h9.7c.4 0 .8-.3.8-.8 0-.4-.3-.8-.8-.8H6.9c-.4 0-.8.3-.8.8 0 .4.4.8.8.8z"/>
</svg>
