<svg xmlns="http://www.w3.org/2000/svg" viewBox="0 0 36 36">
  <path fill="#0568ae" d="M8 11.1c0-.2.2-.4.4-.4h6.8c.2 0 .4.2.4.4s-.2.4-.4.4H8.4c-.2 0-.4-.2-.4-.4zm9 3.3c0-.2-.2-.4-.4-.4H6.9c-.2 0-.4.2-.4.4s.2.4.4.4h9.7c.2 0 .4-.2.4-.4zm13.7-1.6c-.1-.2-.4-.2-.5-.1-.2.1-.2.4-.1.5 1.7 2.3 2.7 5.4 2.7 8.7 0 3.3-.9 6.3-2.7 8.6-.1.2-.1.4.1.5.1.1.1.1.2.1s.2-.1.3-.2c1.8-2.4 2.8-5.7 2.8-9.1.1-3.3-.9-6.5-2.8-9zm-3.2 3.5c-.2.1-.2.4-.1.5 1 1.4 1.6 3.2 1.6 5.2 0 1.9-.6 3.7-1.6 5.1-.1.2-.1.4.1.5.1.1.1.1.2.1s.2-.1.3-.2c1.1-1.5 1.7-3.5 1.7-5.5 0-2.1-.6-4.1-1.8-5.6 0-.2-.2-.3-.4-.1zM26 21.9c0 3.6-2.9 6.6-6.6 6.6-2.9 0-5.4-1.9-6.3-4.6-.4.1-.9.1-1.3.1-5.3 0-9.6-4.3-9.6-9.6s4.3-9.6 9.6-9.6 9.6 4.3 9.6 9.6c0 .4 0 .8-.1 1.2 2.7.8 4.7 3.3 4.7 6.3zm-13.1 0c0-1.4.5-2.8 1.3-3.9H8.4c-.2 0-.4-.2-.4-.4s.2-.4.4-.4h6.4c1.2-1.2 2.8-1.9 4.7-1.9.4 0 .7 0 1.1.1 0-.3.1-.7.1-1.1 0-4.9-4-8.8-8.8-8.8-4.9 0-8.8 4-8.8 8.8 0 4.9 4 8.8 8.8 8.8.4 0 .8 0 1.2-.1-.2-.2-.2-.6-.2-1.1zm12.4 0c0-3.2-2.6-5.8-5.8-5.8-3.2 0-5.8 2.6-5.8 5.8 0 3.2 2.6 5.8 5.8 5.8 3.1.1 5.8-2.6 5.8-5.8zm-4.3 0c0 .8-.7 1.5-1.5 1.5s-1.5-.7-1.5-1.5.7-1.5 1.5-1.5 1.5.7 1.5 1.5zm-.8 0c0-.4-.3-.8-.8-.8-.4 0-.8.3-.8.8 0 .4.3.8.8.8s.8-.3.8-.8z"/>
</svg>
