<svg xmlns="http://www.w3.org/2000/svg" viewBox="0 0 36 36">
  <path fill="#0568ae" d="M32.8 28c0 1-.4 1.9-1.2 2.5-.7.6-1.6.8-2.7.8H12.1c-.2 0-.4-.2-.4-.4s.2-.4.4-.4h16.8c.9 0 1.7-.2 2.3-.7.6-.4.9-1.1.9-1.9 0-.6-.2-1.2-.6-1.9L20.6 7.3C20 6.1 19 5.5 18 5.5s-1.9.6-2.6 1.8L4.6 26.1c-.4.6-.6 1.3-.6 1.9 0 .7.3 1.4.9 1.9.2.1.2.3.1.5s-.4.2-.5.1c-.7-.6-1.2-1.5-1.2-2.5 0-.7.2-1.5.7-2.3L14.8 6.9c.8-1.4 1.9-2.1 3.2-2.1 1.3 0 2.4.8 3.2 2.2L32 25.8c.5.7.8 1.4.8 2.2zm-13.9-2.3c0 .2-.1.5-.3.6-.2.2-.4.2-.7.2-.3 0-.5-.1-.6-.2-.2-.2-.3-.4-.3-.6 0-.2.1-.5.3-.6.2-.2.4-.2.6-.2.3 0 .5.1.7.2.3.2.3.4.3.6zm-.4-3.5h-.9l-.2-11h1.2l-.1 11z"/>
</svg>
