<svg xmlns="http://www.w3.org/2000/svg" viewBox="0 0 36 36">
  <path fill="#0568ae" d="M29 30.3c0 .8-.6 1.4-1.4 1.4h-9c-.8 0-1.4-.6-1.4-1.4V16.4c0-.8.6-1.4 1.4-1.4h9c.8 0 1.4.6 1.4 1.4v13.9zM9.7 16.2c.4-2.8 2-5.3 4.3-6.9 1.3-.9 2.8-1.5 4.4-1.7.5-.1.9-.6.9-1.1-.1-.5-.6-.9-1.1-.9-1.9.2-3.7.9-5.2 2-2.8 1.9-4.7 4.9-5.1 8.3-.3.6.1 1.1.7 1.2h.1c.5 0 .9-.4 1-.9zm4.1.5c.2-1.6 1.1-3.1 2.5-4 .8-.5 1.6-.9 2.5-1 .5-.1.9-.6.9-1.1-.1-.5-.6-.9-1.1-.9-1.2.2-2.4.6-3.4 1.3-1.8 1.2-3 3.2-3.3 5.4-.1.5.3 1.1.9 1.1h.1c.4.1.8-.3.9-.8z"/>
</svg>
