<svg xmlns="http://www.w3.org/2000/svg" viewBox="0 0 36 36">
  <path fill="#0568ae" d="M14.1 17.6L26 29.5v.3c0 .8-.6 1.4-1.4 1.4h-9c-.8 0-1.4-.6-1.4-1.4V17.6zm-9.4-2.2c-.1.6.3 1.1.9 1.2h.1c.5 0 .9-.4 1-.9.2-1.4.7-2.8 1.5-4l-1.4-1.4c-1.1 1.5-1.8 3.3-2.1 5.1zm4.1.5c-.1.6.3 1.1.8 1.1h.1c.5 0 .9-.4 1-.9.1-.5.2-1 .4-1.5l-1.5-1.5c-.4 1-.7 1.9-.8 2.8zm21.9 13.4L26 24.6V16c0-.8-.6-1.4-1.4-1.4H16L13.5 12c.7-.5 1.5-.8 2.3-.9.5-.1.9-.6.9-1.1-.1-.5-.6-.9-1.1-.9-1.2.2-2.4.6-3.4 1.3l-.1.1L10.6 9c.1 0 .2-.1.4-.2 1.3-.9 2.8-1.5 4.4-1.7.5-.1.9-.6.9-1.1-.1-.5-.6-.9-1.1-.9-1.9.2-3.7.9-5.2 2-.4.2-.6.4-.9.6L6.7 5.3c-.4-.4-1-.4-1.4 0-.4.4-.4 1 0 1.4l24 24c.2.2.5.3.7.3.3 0 .5-.1.7-.3.4-.4.4-1 0-1.4z"/>
</svg>
