<svg xmlns="http://www.w3.org/2000/svg" viewBox="0 0 36 36">
  <path fill="#0568ae" d="M32.5 18.7c0 .5-.4.9-.9.9h-5.4c-.5 0-.9-.4-.9-.9v-8.3c0-.5.4-.9.9-.9h5.4c.5 0 .9.4.9.9v8.3zm-12.2-7.9c-.4-.1-.6-.4-.6-.7.3-2 1.4-3.8 3.1-5 .9-.6 2-1.1 3.1-1.2.3 0 .6.2.7.5 0 .3-.2.6-.5.7-.9.1-1.8.5-2.6 1-1.4 1-2.3 2.5-2.6 4.2 0 .3-.3.5-.6.5zm2.5.3c-.1 0-.1 0 0 0-.4-.1-.6-.4-.6-.7.2-1.3.9-2.5 2-3.3.6-.4 1.3-.7 2-.8.3 0 .6.2.7.5 0 .3-.2.6-.5.7-.5.1-1 .3-1.5.6-.8.6-1.4 1.4-1.5 2.4-.1.4-.3.6-.6.6zm3 17.8c-.1-.4-.2-.8-.4-1.2l-8.6-14.9c-.5-.9-1.4-1.6-2.3-1.6-.9 0-1.8.6-2.3 1.6l-8.7 15c-.2.4-.4.8-.4 1.2v.5c0 .7.3 1.3.8 1.7.5.4 1.2.6 2 .6h17.2c.8 0 1.5-.2 2-.6.5-.4.8-1 .8-1.7v-.1c0-.2-.1-.3-.1-.5zM15.7 17l-.3 7.7h-2l-.3-7.7h2.6zm-.2 11.3c-.3.3-.6.4-1 .4s-.8-.1-1-.4c-.3-.3-.4-.6-.4-1s.1-.7.4-1c.3-.3.6-.4 1-.4s.8.1 1 .4c.3.3.4.6.4 1s-.2.7-.4 1z"/>
</svg>
