<svg xmlns="http://www.w3.org/2000/svg" viewBox="0 0 36 36">
  <path fill="#0568ae" d="M33.3 8.2c0-1.6-1.3-2.9-2.9-2.9-.5 0-.9.1-1.3.3-.7-1.1-1.9-1.8-3.3-1.8C24 3.8 22.5 5 22 6.6c-1.7.1-3 1.5-3 3.2 0 1.3.8 2.5 2 3-.1.2-.1.4-.1.7 0 1.5 1.2 2.7 2.7 2.7.5 0 1-.2 1.5-.4.3.7.9 1.2 1.8 1.2.3 0 .7-.1.9-.3.2.5.7.9 1.3.9.8 0 1.4-.6 1.4-1.4 0-.5-.3-1-.7-1.2 1.8-.5 3.2-2.1 3.2-4.1 0-.4-.1-.8-.2-1.1.3-.4.5-1 .5-1.6zm-9 4.6c-.5 0-.9-.1-1.2-.3-.4-.2-.6-.5-.8-.9-.2-.4-.3-.8-.3-1.2 0-.5.1-.9.3-1.3.2-.4.5-.7.8-.9.3-.1.7-.2 1.2-.2.3 0 .5 0 .8.1.3.1.5.2.7.3l-.3.8c-.2-.1-.4-.2-.5-.2h-.6c-.4 0-.7.1-1 .4-.3.2-.4.6-.4 1s.1.8.4 1.1c.3.3.6.4 1 .4s.8-.1 1.1-.3l.3.8c-.5.3-1 .4-1.5.4zm6.3-1.1c-.2.4-.5.7-.8.9-.3.2-.7.3-1.2.3s-.9-.1-1.2-.3c-.3-.2-.6-.5-.8-.9-.2-.4-.3-.8-.3-1.2 0-.5.1-.9.3-1.3.2-.4.5-.7.8-.9.4-.2.8-.3 1.2-.3.5 0 .8.1 1.2.3.3.2.6.5.8.9.2.4.3.8.3 1.2 0 .5-.1.9-.3 1.3zm-1.1-2.3c.2.3.3.6.3 1.1 0 .4-.1.8-.3 1.1-.2.3-.5.4-.9.4s-.6-.1-.9-.4c-.2-.3-.3-.6-.3-1.1 0-.4.1-.8.3-1.1.2-.3.5-.4.9-.4.4-.1.7.1.9.4zm-3.7 19.5c-.1-.4-.2-.8-.4-1.2l-8.6-14.9c-.5-.9-1.4-1.6-2.3-1.6-.9 0-1.8.6-2.3 1.6l-8.7 15c-.2.4-.4.8-.4 1.2v.5c0 .7.3 1.3.8 1.7.5.4 1.2.6 2 .6h17.2c.8 0 1.5-.2 2-.6.5-.4.8-1 .8-1.7v-.1c0-.2-.1-.3-.1-.5zM15.7 17l-.3 7.7h-2l-.3-7.7h2.6zm-.2 11.3c-.3.3-.6.4-1 .4s-.8-.1-1-.4c-.3-.3-.4-.6-.4-1s.1-.7.4-1c.3-.3.6-.4 1-.4s.8.1 1 .4c.3.3.4.6.4 1s-.2.7-.4 1z"/>
</svg>
