<svg xmlns="http://www.w3.org/2000/svg" viewBox="0 0 36 36">
  <path fill="#0568ae" d="M23.3 30.4c-1.3 0-2.3-.9-2.6-2.1-.5.2-1 .3-1.6.3-1.5 0-2.9-.9-3.5-2.2-.8.4-1.7.6-2.6.6-3.1 0-5.6-2.5-5.6-5.6 0-.4 0-.7.1-1.1-2.3-1.1-3.7-3.3-3.7-5.9 0-3.3 2.5-6.1 5.7-6.4 1-3.2 4-5.4 7.4-5.4 2.5 0 4.9 1.2 6.3 3.3.8-.3 1.6-.5 2.4-.5 3.3 0 6 2.7 6 6 0 1.1-.3 2.2-.9 3.1.2.7.3 1.4.3 2.1 0 4.6-3.8 8.5-8.4 8.5-.2 0-.4-.2-.4-.4s.2-.4.4-.4c4.2 0 7.7-3.5 7.7-7.8 0-.7-.1-1.4-.3-2.1v-.2s0-.1.1-.1c.6-.9.9-1.8.9-2.9C31 8.3 28.6 6 25.8 6c-.8 0-1.7.2-2.4.6-.2.1-.4 0-.5-.1-1.3-2-3.5-3.2-5.9-3.2-3.1 0-5.9 2.1-6.7 5.1 0 .2-.2.3-.3.3-3 .2-5.3 2.7-5.3 5.7 0 2.3 1.4 4.4 3.5 5.3.2.1.3.3.2.4-.1.4-.2.8-.2 1.2 0 2.7 2.2 4.9 4.9 4.9.9 0 1.8-.3 2.6-.7.1-.1.2-.1.3 0 .1 0 .2.1.2.2.5 1.3 1.7 2.1 3 2.1.6 0 1.2-.2 1.7-.5.1-.1.3-.1.4 0 .1.1.2.2.2.3v.1c0 1 .8 1.9 1.9 1.9 1 0 1.9-.8 1.9-1.9 0-.5-.2-.9-.5-1.3-.1-.1-.1-.4 0-.5.2-.1.4-.1.5 0 .5.5.7 1.1.7 1.8-.1 1.5-1.3 2.7-2.7 2.7zm-8.6-11.1c-.7 0-1.4-.2-2-.5-.6-.4-1-.8-1.3-1.4-.2-.7-.4-1.4-.4-2.1 0-.8.2-1.5.5-2.1.3-.6.8-1.1 1.4-1.4.6-.3 1.2-.5 2-.5.4 0 .8.1 1.2.2.4.1.7.3 1 .5l-.3.7c-.3-.2-.7-.3-1-.4-.3-.1-.6-.1-1-.1-.6 0-1.1.1-1.5.4-.4.3-.8.7-1 1.1-.2.5-.3 1-.3 1.7s.1 1.2.4 1.7c.3.5.6.9 1 1.1.4.3.9.4 1.5.4.4 0 .7 0 1-.1.3-.1.6-.2 1-.4l.3.7c-.3.2-.7.4-1.1.5h-1.4zm7.3 0c-.7 0-1.4-.2-1.9-.5-.6-.4-1-.8-1.3-1.5-.3-.6-.4-1.3-.4-2 0-.8.2-1.5.5-2.1.3-.6.8-1.1 1.3-1.4.5-.3 1.2-.5 1.8-.5.7 0 1.4.2 1.9.5.6.4 1 .8 1.3 1.5.3.6.4 1.3.4 2 0 .8-.2 1.5-.5 2.1-.3.6-.8 1.1-1.3 1.4-.5.3-1.2.5-1.8.5zm0-.8c.5 0 1-.1 1.4-.4.4-.3.7-.7 1-1.1.2-.5.3-1 .3-1.6 0-.6-.1-1.2-.4-1.7-.2-.5-.6-.9-1-1.1-.4-.3-.9-.4-1.4-.4-.5 0-1 .1-1.4.4-.4.3-.7.7-1 1.1-.2.5-.3 1-.3 1.6 0 .6.1 1.2.4 1.7.2.5.6.9 1 1.1.4.3.8.4 1.4.4z"/>
</svg>
