<svg xmlns="http://www.w3.org/2000/svg" viewBox="0 0 36 36">
  <path fill="#0568ae" d="M23.7 13.9c.4.5.6 1.1.6 1.9 0 .8-.2 1.4-.6 1.9-.4.5-.9.7-1.6.7-.7 0-1.2-.2-1.6-.7-.4-.5-.6-1.1-.6-1.9 0-.8.2-1.4.6-1.9.4-.5.9-.7 1.6-.7.6 0 1.2.2 1.6.7zm6.7.7c.2.7.3 1.4.3 2.2 0 3.8-2.6 7-6.1 7.9.8.4 1.4 1.3 1.4 2.3 0 1.4-1.2 2.6-2.6 2.6-1.1 0-2.1-.7-2.5-1.8-.5.3-1.1.5-1.8.5-1.5 0-2.8-1-3.3-2.4-.8.5-1.8.8-2.8.8-2.9 0-5.2-2.3-5.2-5.2 0-.4.1-.9.2-1.3-2.2-.9-3.8-3.1-3.8-5.6 0-3.2 2.5-5.8 5.6-6.1.9-3.1 3.7-5.3 7.1-5.3 2.6 0 4.9 1.4 6.2 3.4.8-.4 1.6-.6 2.6-.6 3.1 0 5.6 2.5 5.6 5.6 0 1-.3 2.1-.9 3zm-13.3 4.9l-.5-1.5c-.6.4-1.3.5-2 .5-.8 0-1.4-.2-1.8-.7-.5-.5-.7-1.1-.7-1.9 0-.8.2-1.5.7-1.9.5-.5 1.1-.7 1.8-.7.3 0 .7 0 1 .1.3.1.6.2 1 .4l.5-1.5c-.4-.2-.8-.4-1.2-.5-.5-.1-.9-.2-1.4-.2-.8 0-1.5.2-2.2.5-.6.4-1.2.9-1.5 1.6-.4.7-.6 1.5-.6 2.3 0 .8.2 1.6.5 2.3.3.7.8 1.2 1.5 1.6.6.4 1.4.6 2.3.6.9-.2 1.8-.5 2.6-1zm9.1-3.7c0-.8-.2-1.6-.5-2.3-.3-.7-.8-1.2-1.5-1.6-.6-.4-1.4-.6-2.2-.6-.8 0-1.5.2-2.1.5-.6.4-1.1.9-1.5 1.6-.4.7-.6 1.5-.6 2.3 0 .8.2 1.6.5 2.3.3.7.8 1.2 1.5 1.6.6.4 1.4.6 2.2.6.8 0 1.5-.2 2.1-.5.6-.4 1.1-.9 1.5-1.6.5-.6.6-1.4.6-2.3z"/>
</svg>
