<svg xmlns="http://www.w3.org/2000/svg" viewBox="0 0 36 36">
  <path fill="#0568ae" d="M15.1 27.1c0 .2-.1.3-.2.5-.1.1-.3.2-.5.2s-.4-.1-.5-.2c-.1-.1-.2-.3-.2-.5s.1-.3.2-.5c.1-.1.3-.2.5-.2s.4.1.5.2c.2.1.2.3.2.5zm-.3-2.7h-.7l-.1-8.3h.9l-.1 8.3zm13.9-6.5c-.6 0-1.2-.4-1.4-1-.2.1-.4.1-.7.1-.8 0-1.5-.4-1.8-1-.4.2-.8.3-1.2.3-1.6 0-3-1.3-3-3v-.4c-1.1-.6-1.8-1.7-1.8-3 0-1.7 1.3-3.1 2.9-3.4.6-1.6 2.1-2.7 3.8-2.7 1.3 0 2.5.6 3.2 1.6.4-.1.8-.2 1.2-.2 1.8 0 3.2 1.4 3.2 3.2 0 .6-.1 1.1-.4 1.6.1.3.1.7.1 1 0 2.4-2 4.4-4.4 4.4-.2 0-.4-.2-.4-.4s.2-.4.4-.4c2 0 3.7-1.7 3.7-3.7 0-.3 0-.6-.1-1v-.2s0-.1.1-.1c.3-.4.4-.9.4-1.3 0-1.3-1.1-2.4-2.4-2.4-.4 0-.8.1-1.1.3-.2.1-.4 0-.5-.1-.6-1-1.7-1.5-2.8-1.5-1.5 0-2.8 1-3.2 2.4 0 .2-.2.3-.3.3-1.4.1-2.5 1.3-2.5 2.7 0 1.1.6 2.1 1.6 2.5.2.1.3.3.2.4 0 .2-.1.4-.1.6 0 1.2 1 2.2 2.2 2.2.4 0 .8-.1 1.2-.3.1-.1.2-.1.3 0 .1 0 .2.1.2.2.2.6.7.9 1.3.9.3 0 .5-.1.8-.2.1-.1.3-.1.4 0 .1.1.2.2.2.3v.1c0 .4.3.7.8.7.4 0 .8-.3.8-.8 0-.2.2-.4.4-.4s.4.2.4.4c-.2.7-.9 1.3-1.7 1.3zm-4.4-5.6c-.4 0-.8-.1-1.1-.3-.3-.2-.5-.4-.7-.8-.2-.3-.2-.7-.2-1.1 0-.4.1-.8.3-1.1.2-.3.4-.6.7-.7.3-.2.6-.3 1-.3.2 0 .4 0 .7.1.2.1.4.1.6.2l-.2.7c-.3-.2-.6-.2-1-.2s-.7.1-1 .4c-.2.2-.4.6-.4 1 0 .3.1.6.2.8.1.2.3.4.5.5.2.1.4.2.7.2.2 0 .3 0 .5-.1.2 0 .3-.1.5-.2l.2.5-.6.3c-.2.1-.4.1-.7.1zm3.8-4.2c.4 0 .7.1 1 .3.3.2.5.4.7.8.2.3.2.7.2 1.1 0 .4-.1.8-.3 1.1-.2.3-.4.6-.7.7-.3.2-.6.3-1 .3s-.7-.1-1-.3c-.3-.2-.5-.4-.7-.8-.2-.3-.2-.7-.2-1.1 0-.4.1-.8.3-1.1.2-.3.4-.6.7-.7.3-.2.7-.3 1-.3zm0 .6c-.2 0-.5.1-.7.2-.1.1-.3.3-.4.5-.1.2-.2.5-.2.8 0 .3.1.6.2.8.1.2.3.4.4.5.2.1.4.2.6.2.2 0 .5-.1.7-.2.2-.1.3-.3.4-.5.1-.2.2-.5.2-.8 0-.3-.1-.6-.2-.8 0-.2-.1-.4-.3-.5-.2-.1-.4-.2-.7-.2zm-5.5 22.6c.8 0 1.6-.2 2.1-.7.6-.5.9-1.2.9-1.9 0-.6-.2-1.2-.5-1.7L17 12.9c-.6-1.1-1.5-1.7-2.5-1.7s-1.9.6-2.5 1.7l-8.2 14c-.3.6-.5 1.2-.5 1.7 0 .8.3 1.5.9 1.9.2.1.4.1.5-.1.1-.2.1-.4-.1-.5-.3-.2-.6-.7-.6-1.2 0-.4.1-.9.4-1.4l8.1-14.1c.5-.8 1.1-1.3 1.8-1.3s1.4.5 1.8 1.3l8.1 14.1c.3.5.4.9.4 1.4 0 .5-.2 1-.6 1.3-.4.3-1 .5-1.6.5H10c-.2 0-.4.2-.4.4s.2.4.4.4h12.6z"/>
</svg>
