<svg xmlns="http://www.w3.org/2000/svg" viewBox="0 0 36 36">
  <path fill="#0568ae" d="M21 25.9h-6c-.4 0-.8-.2-1.1-.5-.2-.3-.3-.7-.2-1.1L15 19c-1.3-.9-2-2.4-2-4 0-2.7 2.2-4.9 4.9-4.9s4.9 2.2 4.9 4.9c0 1.6-.7 3-2 4l1.3 5.3c.1.4 0 .8-.2 1.1-.1.3-.5.5-.9.5zm-3-15.1c-2.3 0-4.2 1.9-4.2 4.2 0 1.4.7 2.7 1.9 3.5.1.1.2.3.2.4l-1.4 5.6c0 .2 0 .4.1.5.1.1.3.2.5.2h6c.2 0 .4-.1.5-.2.1-.1.1-.3.1-.5l-1.4-5.6c0-.2 0-.3.2-.4 1.2-.8 1.9-2.1 1.9-3.5-.2-2.3-2.1-4.2-4.4-4.2zm1 22.5c8-.5 14.3-7.3 14.3-15.3 0-8.5-6.9-15.4-15.4-15.4C10.8 2.6 4.7 7.4 3 14.3c-.3 1.2-.5 2.5-.5 3.7 0 1.9.3 3.7 1 5.4 1.1 2.8 3 5.3 5.4 7.1.2.1.4.1.5-.1.1-.2.1-.4-.1-.5-2.4-1.7-4.2-4-5.2-6.7-.6-1.6-.9-3.4-.9-5.2 0-1.2.1-2.4.4-3.5C5.4 7.9 11.3 3.4 18 3.4c8.1 0 14.6 6.6 14.6 14.6 0 7.7-6 14.1-13.6 14.6-.2 0-.4.2-.3.4-.1.2.1.3.3.3z"/>
</svg>
