<svg xmlns="http://www.w3.org/2000/svg" viewBox="0 0 36 36">
  <path fill="#0568ae" d="M26.8 21.1c-.1 0-.2-.1-.2 0-.1 0-.1.1-.1.2-.1.3-.3 1.5-1 1.5-.1 0-.2 0-.4-.1-.7-.6.1-2.3.3-2.7l.3-.6c1.6-3 1.1-5.3.2-6.4-1.3-1.4-2.6-1.2-2.7-1.2-.1 0-.1.1-.2.2s0 .2 0 .2c.7.9.8 1.9.5 2.6-.3.5-.8.8-1.5.8h-.1c-.9 0-1.6-.4-2-1.1-.5-.9-.3-2.3.5-3.7.8-1.4 1-3.1.3-4.7-.6-1.5-1.9-2.6-3.5-2.9-.1 0-.2 0-.3.1-.1.1 0 .2.1.3.9.7 1.2 2.6 1.1 3.3-.3 2-1.5 3-2.7 3.9-.4.4-.9.7-1.2 1.1-2 2.2-1 4.5-.2 6.3.6 1.4 1 2.3.3 3-.3.3-.7.4-1.2.4-.6 0-1.2-.3-1.6-.8-1.8-2.2-1.2-4.8-1.1-5 .1-.1.1-.3 0-.4-.1-.1-.3-.1-.4 0v.1c-3.5 3.4-2.1 8.9-1.3 11.1 1 3 3.9 5.6 5.6 5.6.3 0 .6-.1.8-.3.6-.5.4-1.1.3-1.8-.2-.7-.4-1.6 0-2.8.6-2 3.1-3.8 3.5-4.5.3 1.3.9 2 1.6 2.5 1.1.9 2 2.6 1.3 5.1-.2.7-.4 1.1-.2 1.4.1.1.4.5 1.1.2 4.8-2.2 5.6-5.6 5.7-7 0-1.7-.6-3.3-1.6-3.9z"/>
</svg>
