<svg xmlns="http://www.w3.org/2000/svg" viewBox="0 0 36 36">
  <path fill="#0568ae" d="M26.8 21c-.1-.1-.2-.1-.3 0-.1 0-.2.1-.2.3-.1.7-.4 1.2-.7 1.3-.1 0-.2.1-.5 0-.5-.5.1-2 .3-2.6.1-.2.2-.4.3-.5 1.6-3 1.1-5.4.2-6.6-1.1-1.2-2.2-1.2-2.6-1.2H23c-.2.1-.3.3-.2.4 0 .1 0 .1.1.2.6.9.8 1.8.4 2.4-.3.5-.8.8-1.4.7-.9 0-1.5-.4-1.9-1.1-.5-.9-.3-2.2.5-3.6.9-1.5 1-3.2.3-4.8-.7-1.5-2-2.6-3.5-3-.2 0-.3 0-.4.2-.1.2 0 .3.1.5.8.6 1.2 2.4 1 3.2-.3 1.9-1.5 2.9-2.6 3.8-.4.4-.9.7-1.3 1.1-2.1 2.3-1.1 4.6-.2 6.4.6 1.4 1 2.3.3 2.8-.3.3-.8.4-1.2.4-.5 0-1-.3-1.4-.8-1.3-1.6-1.1-3.2-1-4.2.1-.5.1-.9-.1-1.1-.1-.1-.2-.1-.3-.1-.1 0-.2.1-.3.2 0 0-.1.1-.1.2-.6.8-2.5 3-2 7.3.1 1.4.3 2.7.8 3.9.5 1.4 1.3 2.6 2.3 3.5.2.1.4.1.5 0 .1-.2.1-.4 0-.5-.9-.8-1.6-1.9-2.1-3.2-.4-1.1-.7-2.4-.7-3.7-.3-3 .6-4.9 1.3-6-.1 1.1-.1 2.8 1.2 4.4.5.6 1.2 1 1.9 1.1.7.1 1.3-.2 1.8-.6 1.1-1 .5-2.3-.1-3.7-.8-1.7-1.7-3.7.1-5.6.3-.4.8-.7 1.2-1.1 1.2-1 2.5-2.1 2.9-4.3.1-.6 0-1.9-.5-2.8.8.5 1.5 1.2 1.9 2.1.6 1.3.5 2.8-.3 4.1-1 1.6-1.1 3.1-.5 4.3.5.9 1.4 1.4 2.5 1.5.9 0 1.7-.4 2.1-1.1.4-.7.4-1.6-.1-2.6.4.1.9.3 1.4.9.6.8 1.2 2.8-.3 5.7l-.3.6c-.1.1-.2.3-.3.7-.5 1.2-.5 2.1.1 2.6l.1.1c.5.2.9.2 1.1 0 .5-.2.7-.7.9-1.3.6.7.9 1.8.8 3-.1 1.2-.7 4.1-4.5 6.1.3-1.7-.7-3.5-1.5-4.1-1.1-1-2.5-2.6-2.6-4.8v-.1-.1-.1s-.1 0-.1-.1h-.1-.1-.1s-.1 0-.1.1c0 0 0 .1-.1.1v.1c-.1 1.8-1 3.5-2.6 4.8-.9.8-1.5 1.9-1.5 3 0 .7.1 1.4.5 2 .1.1.2.2.3.2h.2c.2-.1.3-.3.2-.5-.3-.5-.4-1.1-.4-1.7 0-.9.5-1.8 1.3-2.5 1.2-1 2.1-2.2 2.5-3.5.5 1.5 1.6 2.7 2.5 3.5.8.7 1.8 2.7 1 4.1v.4c.1.1.2.2.3.2h.2c4.9-2.2 5.6-5.7 5.8-7.1-.1-1.6-.7-3.2-1.8-3.8z"/>
</svg>
