<svg xmlns="http://www.w3.org/2000/svg" viewBox="0 0 36 36">
  <path fill="#0568ae" d="M28.2 5.6H7.8c-1.2 0-2.2 1-2.2 2.2V28.5l.1.1h.4l6.5-5.9 7.5 1.5 2.1 5.5H9.6c-.2 0-.4.2-.4.4s.2.4.4.4h18.6c1.2 0 2.2-1 2.2-2.2V7.8c0-1.2-1-2.2-2.2-2.2zm1.4 17.5l-8.2-5.5 8.2-3.9v9.4zm0-15.3v5.1l-5.4 2.6-2.5-4.6L25 6.4h3.3c.7 0 1.3.6 1.3 1.4zM11.3 6.4H24l-6 8.2-6.7-8.2zm-3.5 0h2.5l2.8 3.4-2.4 7.9-4.4-.2V7.8c.1-.8.7-1.4 1.5-1.4zm-1.4 21v-9.1l9.4.5-9.4 8.6zm14.2-4L13.4 22l3.6-3.3c.1-.1.2-.3.1-.4-.1-.1-.2-.2-.3-.2l-5.2-.3 2.2-7.3 4 4.9c.1.1.2.1.3.1.1 0 .2-.1.3-.2l2.9-3.9 2.3 4.3-3 1.4c-.1.1-.2.2-.2.3 0 .1.1.3.2.3l5.1 3.5-4.3 3.6-.5-1.3c-.1 0-.2-.1-.3-.1zm7.6 6.2h-5.1l-1.5-4 4.6-3.9 3.3 2.2h.1v4.2c0 .9-.6 1.5-1.4 1.5z"/>
</svg>
