<svg xmlns="http://www.w3.org/2000/svg" viewBox="0 0 36 36">
  <path fill="#0568ae" d="M12.4 9.9L10.3 17c-.1.2-.3.3-.5.3l-3.5-.2c-.1.1-.3-.1-.3-.3V7.4C6 6.6 6.6 6 7.4 6h1.9c.2 0 .5.1.6.3l2.4 3c.1.2.2.4.1.6zm10.9-3.3c.2-.3.1-.6-.3-.6H12.3c-.4 0-.5.3-.3.6l5.5 6.8c.2.3.6.3.9 0l4.9-6.8zm5.3-.6H26c-.2 0-.5.1-.6.3l-2.9 4c-.1.2-.1.4 0 .6l2 3.7c.1.2.3.2.5.2l4.8-2.3c.2-.1.3-.3.3-.5V7.4C30 6.6 29.4 6 28.6 6zM6.7 18.7c-.4 0-.7.3-.7.7v7.1c0 .4.2.5.5.2l7.8-7.1c.3-.3.2-.5-.2-.5l-7.4-.4zm16.2-1.4c-.4.2-.4.5-.1.7l6.5 4.4c.3.2.6.1.6-.3v-7.4c0-.4-.3-.6-.6-.4l-6.4 3zm-1 12.4L20.2 25c-.1-.2-.3-.4-.5-.4L13 23.2c-.2 0-.5 0-.6.2l-5.8 5.3-.2.2c-.1.1-.1.3-.1.5 0 0 0 .1.2.2.3.2.6.4 1 .4h14.3c.1 0 .2-.2.1-.3zm8-5.1s-.3-.2-.4-.3l-2.6-1.8c-.2-.1-.4-.1-.6 0l-3.9 3.3c-.2.1-.2.4-.1.6l1.2 3.2c.1.2.1.3.1.3h4.9c.8 0 1.4-.6 1.4-1.4V25c.1-.2.1-.4 0-.4z"/>
</svg>
