<svg xmlns="http://www.w3.org/2000/svg" viewBox="0 0 36 36">
  <path fill="#0568ae" d="M20.8 27.9zm-.7-7.6zM33 27.9c-.5 1.1-1.3 2.2-2.3 3.2-1 1-2.2 1.8-3.5 2.1h-.6c-1.8-.4-3.3-1.7-4.4-3.1-.6-.7-1.1-1.5-1.4-2.2-.7-1.5-.9-3.2-.9-4.7 0-1.2.1-2.2.2-2.9.1-.5.5-.9 1-1 2.4-.2 3.8-1.1 4.7-1.6.2-.1.4-.3.6-.4.2-.1.3-.1.5-.1s.3 0 .5.1.4.2.6.4c.9.6 2.2 1.4 4.7 1.6.4 0 .8.3.9.7v.2c.1.7.2 1.8.2 2.9.1 1.6-.1 3.3-.8 4.8zm.1-4.6c0-.9-.1-1.8-.1-2.4l-9 5.5c-.2.1-.4.1-.5-.1-.1-.2-.1-.4.1-.5l9.2-5.6h-.1c-2.6-.2-4.1-1.2-5-1.7-.2-.1-.4-.3-.5-.3h-.4c-.1.1-.3.2-.5.3-.9.6-2.4 1.5-5 1.7-.2 0-.3.1-.3.3-.1.7-.2 1.7-.2 2.9 0 1.4.2 3 .8 4.3.3.6.7 1.3 1.2 2l7.7-4.7c.2-.1.4-.1.5.1.1.2.1.4-.1.5l-7.6 4.7c1 1.1 2.3 2 3.6 2.4h.2c1.2-.3 2.3-1 3.2-1.9.9-.9 1.7-2 2.1-3 .6-1.5.7-3.1.7-4.5zm-5.9 10zM14.3 12.9zm5.6-5.4zm-5.7 1.3zm6-.2zm-5.7-1zM22 8.7c.3-.1.5-.3.8-.6.2-.1.2-.3.1-.5s-.4-.2-.5-.1c-.4.3-.6.5-.8.6-.2.1-.3.1-.5.1s-.2 0-.3-.1c-.1-.1-.2-.3-.2-.6v-.4-.6V6c0-.2-.1-.4-.2-.5-.1-.4-.4-.5-.6-.5-.2-.1-.5-.1-.7-.1h-.2c-.4 0-.7.2-.9.4-.2.2-.3.4-.4.5-.2.3-.5.6-.8.9-.2.1-.3.3-.5.3 0 0-.2.1-.3.1h-.1c-.5 0-1 .2-1.4.6-.2.2-.3.5-.3.8v.3c.1.3.3.5.5.6.2.1.5.2.7.2.2 0 .4 0 .5-.1.2-.1.3-.2.4-.3.1-.1.2-.3.5-.4.2-.1.5-.2.7-.2.2 0 .4.1.6.2l.1.1V9l.1.1v.1c0 .1 0 .1.1.2v.2c0 .2-.1.5-.3.7-.2.2-.4.4-.8.6-1.2.4-1.9 1-2.6 1.6-.1.1-.3.2-.5.4-.4.4-.5.8-.5 1.2V14.4c0-.1-.1-.2-.2-.3-.1-.1-.2-.1-.3-.2-.1 0-.3-.1-.4-.1h-.1H12.1c-.3 0-.6.1-.8.2-.3.1-.5.3-.6.6-.1.2 0 .4.2.5.2.1.4 0 .5-.2l.3-.3c.1-.1.3-.1.5-.1H13.1v.1c0 .1 0 .2.1.3 0 .1.1.1.2.2.1 0 .2.1.3.1H14c.2-.1.4-.2.5-.4.1-.2.2-.3.2-.5v-.2c0-.2.1-.4.2-.6.1-.1.3-.2.4-.3.8-.6 1.4-1.1 2.4-1.5.5-.2.9-.5 1.1-.8.2-.3.4-.7.4-1.1v-.2-.3c0-.1-.1-.3-.1-.4v-.1c0-.1-.1-.2-.2-.3l-.1-.1-.3-.3c-.3-.2-.6-.3-.9-.3-.4 0-.7.1-1 .3-.3.2-.5.4-.7.6l-.1.1h-.2c-.1 0-.2 0-.3-.1-.3 0-.3 0-.3-.1v-.1c0-.1 0-.3.1-.4.1-.2.4-.3.8-.3h.1c.3 0 .6-.1.8-.2.7-.4 1.2-1 1.5-1.4.1-.2.2-.3.3-.4.1-.1.2-.1.4-.2h.1c.1 0 .3 0 .5.1.2 0 .3.1.3.2V7.7c0 .4.1.8.4 1.1.2 0 .5.2.8.2.3 0 .6-.1.9-.3zm-6.7 9.1c0 .2.1.4.4.4.3 0 .6.1.9.1.4.1.6.2.9.4.3.2.5.4.8.6.2.1.4.1.5 0 .1-.2.1-.4 0-.5-.3-.3-.5-.5-.9-.7-.3-.2-.7-.4-1.2-.5-.3-.1-.7-.1-1-.2-.2 0-.4.2-.4.4zm1.4-.2zm-9.5-4.3zm2.4 2.2zM7.7 9.4zm13.4 22.7c-1.2.3-2.4.5-3.7.5-4 0-7.7-1.6-10.3-4.3C4.5 25.6 2.8 22 2.8 18c0-4 1.6-7.7 4.3-10.3.5-.5 1.1-1 1.7-1.5 0 1.1-.3 2.1-1.2 3.2-.3.4-.4.8-.5 1.2 0 .4-.1.9-.1 1.4v.2c0 .3 0 .7.2 1.1.1.5.4.9.6 1.2.2.3.5.5.7.7l.3.3c.1.1.1.1.1.2 0 .2.1.3.1.4 0 .2 0 .5.2.8.1.1.2.3.4.4.2.1.4.1.6.1.6 0 1.3.4 1.9.8.3.2.5.5.7.7.1.1.1.2.2.3-.2.3-.2.7-.2 1.1 0 .9.3 1.9 1 2.7.4.4.7 1 .9 1.7.2.7.3 1.4.3 1.9 0 .7.1 1.6.3 2.4.1.4.3.8.6 1.2.3.4.7.6 1.1.8.1 0 .2.1.3.1.1 0 .2 0 .3-.1l.2-.2c0-.1.1-.2.1-.2v-.2c0-.1-.1-.2-.1-.3-.1-.2-.3-.6-.3-1V29v-.2c0-.1.1-.2.1-.3l.1-.1c0-.1.1-.1.1-.2s.1-.1.1-.1c0-.1.1-.1.1-.2 0 0 0-.1.1-.1.1-.1.1-.2.2-.3v-.1c.1-.2.3-.4.4-.6.1-.2.1-.4-.1-.5-.3-.3-.5-.3-.6-.1-.1.2-.3.4-.4.6-.1.1-.1.2-.2.3l-.1.1c0 .1-.1.2-.1.2 0 .1-.1.1-.1.1 0 .1-.1.2-.1.2l-.1.1c-.1.1-.1.3-.1.4 0 .1-.1.2-.1.3v.2c0 .4.1.7.2.9-.1-.1-.3-.2-.4-.4-.3-.4-.5-.9-.7-1.5-.1-.6-.2-1.2-.2-1.6 0-.6-.1-1.3-.3-2.1-.2-.8-.5-1.5-1-2-.5-.6-.8-1.5-.8-2.2 0-.4.1-.7.2-.8.1-.1.1-.2.1-.3 0-.2-.1-.3-.1-.4-.1-.2-.3-.4-.5-.7-.3-.4-.8-.7-1.3-1-.5-.3-1.1-.5-1.6-.5H10c-.1 0-.1 0-.1-.1s0-.2-.1-.4c0-.1 0-.3-.1-.6-.1-.2-.2-.4-.3-.5-.1-.1-.3-.2-.4-.3-.2-.2-.4-.3-.6-.5-.2-.2-.3-.5-.5-1-.1-.3-.1-.6-.1-.9v-.2c0-.5.1-1 .1-1.3.1-.4.2-.6.4-.9 1-1.2 1.3-2.4 1.3-3.7v-.5c2.3-1.4 5-2.3 7.8-2.3 7.9 0 14.3 6.2 14.6 14 0 .2.2.4.4.4s.4-.2.4-.4c-.4-7.7-7.1-14.3-15.4-14.3C8.9 2.6 2.1 9.5 2.1 18S9 33.3 17.4 33.3c1.3 0 2.6-.2 3.9-.5.2-.1.3-.3.3-.5-.1-.1-.3-.3-.5-.2z"/>
</svg>
