<svg xmlns="http://www.w3.org/2000/svg" viewBox="0 0 36 36">
  <path fill="#0568ae" d="M34.2 23.9c0-.6-.1-1.2-.1-1.7 0-.2 0-.5-.1-.7v-.1c0-.1-.1-.3-.2-.3s-.1-.1-.2-.1h-.2c-.6 0-1.2-.1-1.7-.3-.7-.2-1.4-.4-1.9-.7-.5-.3-.9-.5-1.2-.7-.1-.1-.2-.1-.3-.2s-.3-.1-.3-.2c-.1-.1-.2-.1-.3-.1-.1 0-.2 0-.3.1-.2.1-.3.2-.6.3-.6.4-1.6 1-3.1 1.4-.5.1-1.1.2-1.7.3-.1 0-.2 0-.2.1-.2.1-.4.3-.4.6-.1 1-.3 2.6-.1 4.3.1 1 .3 2.1.8 3 .2.5.6 1.1 1 1.6.1.2.2.4.4.5.3.3.6.7.9 1 .5.5 1 .9 1.6 1.2.6.3 1.1.6 1.8.8h.4c1.5-.4 3-1.5 4-2.8.2-.3.4-.5.6-.8.4-.5.7-1.1.9-1.6.3-.6.5-1.3.6-2-.1-.9-.1-1.9-.1-2.9zm-11.1 4c-.7-1.8-.6-4.1-.4-5.5 2.5-.3 4-1.3 4.9-1.9h.1s.1 0 .1.1c.8.5 2.3 1.4 4.6 1.8l-9.3 5.5zm8.9.4c-.8 1.7-2.5 3.7-4.4 4.2-1-.3-2.1-1.1-3-2.2l8-4.9c0 1.1-.2 2-.6 2.9zM22.1 32c-1.6.6-3.4 1-5.3 1-8.3 0-15-6.7-15-15s6.7-15 15-15 15 6.7 15 15v1.2c-.5-.1-.9-.3-1.3-.5s-.8-.4-1.1-.6c-.1-.1-.2-.2-.3-.2-.1-.1-.3-.1-.4-.2-.3-.2-.7-.2-1-.2-.3 0-.7.1-1 .2-.2.1-.4.2-.7.4-.5.3-1.2.7-2.1 1.1-1.1-.6-1.1-2.1-1.1-2.9v-.1c0-.8.8-1.2 1-1.3.4-.6 1.1-1.4 1.6-1.5.2 0 .5-.2.8-.3.5-.2 1.1-.5 1.4-.4.4.1.8.7.9.9h.6c0-.1-.1-.1-.1-.2l-.3-.6c0-.1-.1-.2-.1-.3-.1-.3-.3-.5-.4-.8l-.1-.1c-.3-.6-.7-1.1-1.1-1.6-.2-.3-.4-.5-.7-.8-.5-.5-1-.9-1.5-1.4-.3-.2-.5-.4-.8-.6h-.1c0 .1 0 .1-.1.2s-.3.2-.5.2-.7.4-1.2.7c-.7.5-1.3 1-1.9 1-.2 0-.4-.1-.6-.3-.4-.4-.3-1.2-.2-1.7 0-.1 0-.2-.1-.3-.2-.3-.9-.5-1.2-.5-.3 0-1.1.2-1.1.4l.1.1c.2.1.2.3.1.3-.2.3-1.2.7-2 .7h-.1c-.4 0-.8.2-1 .4-.2.2-.2.5-.2.8.1.3.5.5.8.5.3 0 .5-.1.6-.2.2-.3.8-.7 1.4-.7.3 0 .5.1.8.2.4.2.6.7.5 1.2-.1.5-.4 1.2-1.2 1.5-1.1.4-1.7.9-2.5 1.5-.1.1-.3.2-.5.4-.5.4-.5.7-.5 1 0 .2 0 .4-.3.6h-.1c-.1 0-.2-.1-.2-.2-.1-.2-.1-.4-.6-.4H11.4c-.5 0-.9.2-1.1.6-.2.3-.2.6 0 .8.1.2.5.4.8.4h.1c.7 0 .9 1 .9 1.5v.2c0 .1.2.2.5.2h1c.4 0 1.1 0 1.9.2.8.2 1.3.6 1.8 1.1.4.4.9.8 1.5 1.2.3.2.5.4.6.8v.2c0 .3-.1.6-.1 1-.3.9-.9 1.8-1.3 2.4-.1.2-.2.3-.3.4-.2.3-.4.6-.7 1-.6.8-1.2 1.7-1.3 2.4-.1.6.2 1 .3 1.3.1.2.1.2.1.3 0 0-.1.1-.3 0-1.6-.5-1.8-2.7-1.8-3.9 0-1-.4-2.9-1.2-3.8-.9-1-1.1-2.7-.7-3.3.2-.3-.1-.6-.6-1-.1-.1-.3-.2-.4-.3-.1-.1-.3-.2-.4-.3-.4-.4-.9-.8-1.6-.9-.7-.1-.8-.2-.8-.6 0-.1 0-.3-.1-.5-.1-.3-.3-.5-.5-.7-.4-.3-.9-.7-1.1-1.6-.5-1.7.4-2.7.7-3 .3-.2.5-1.1.5-2.4-2.7 2.4-4.4 5.9-4.4 9.7 0 7.2 5.8 13 13 13 1.4 0 2.8-.2 4.1-.7.2.4.4.7.7 1.1 0 .1.1.1.1.2.5.1.6.2.8.4z"/>
</svg>
