<svg xmlns="http://www.w3.org/2000/svg" viewBox="0 0 36 36">
  <path fill="#0568ae" d="M30.2 11.5l-7.6.8h-.1c-.8.1-1.4.3-1.9.8-.4.5-.7 1-.8 1.7H5c-.2 0-.4.1-.5.3l-1.8 2.7c-.1.2-.1.5 0 .7l1.8 2.7c.1.2.3.3.5.3h.7c.3 0 .5-.2.6-.4l.1-.3.2.2c.1.2.3.4.6.4h1.4c.3 0 .6-.2.6-.6v-.1l.4.4c.1.1.3.2.5.2h1.2c.3 0 .5-.2.6-.5l.2-.7.2.7c.1.3.3.5.6.5h1c.3 0 .5-.2.6-.4v-.1.1c.1.2.3.4.6.4h4.7c.1 1.3 1.2 2.3 2.8 2.5l7.5.7h.8c.1 0 .2-.1.4-.1h.2c.1-.1.2-.1.4-.2.1-.1.3-.2.4-.3l.3-.3.1-.1c.1-.1.1-.2.2-.4V23v-.1-.1c.1-.3.1-.6.1-.9v-7.5c0-1.6-1.2-2.9-2.8-2.9zm2.1 10.4c0 .2 0 .4-.1.7v.2c0 .1-.1.2-.1.3l-.2-.1c-.1.1-.1.2-.2.3l-.1.1c0-.1.1-.1.1-.1-.1.1-.2.2-.3.2-.1.1-.2.1-.3.2H31c-.1 0-.2.1-.3.1h-.4-.1l-7.5-.7c-1-.1-2.1-.8-2.1-2.1v-2.9c0-.2-.2-.4-.4-.4s-.4.2-.4.4v2.4h-4.6l-.2-.4c-.1-.1-.2-.2-.4-.2h-.3c-.2 0-.3.1-.4.2l-.2.6h-.8l-.3-1c0-.2-.2-.3-.4-.3h-.5c-.2 0-.3.1-.4.3l-.3 1h-1l-.6-.7c-.1-.1-.2-.1-.3-.1h-.2c-.2 0-.3.1-.4.3l-.1.5H7.2l-.4-.8c-.1-.1-.2-.2-.3-.2h-.1c-.2 0-.3.1-.3.2l-.3.8h-.7l-1.7-2.6 1.7-2.6h15.1c.2 0 .4-.2.4-.4 0-.5.2-1.1.6-1.4.4-.4.8-.5 1.5-.6l7.6-.8c1.1 0 2.1.9 2.1 2.1l-.1 7.5zm-2.1-7.2v6.8c0 .2-.2.4-.4.4s-.4-.2-.4-.4v-6.8c0-.2.2-.4.4-.4s.4.2.4.4z"/>
</svg>
