<svg xmlns="http://www.w3.org/2000/svg" viewBox="0 0 36 36">
  <path fill="#0568ae" d="M32.6 14.4v7.5c0 .3 0 .5-.1.8V23c0 .1-.1.2-.2.3l-.1.1c-.1.1-.1.2-.2.3l-.3.3h-.1c-.1.1-.2.1-.3.2 0 0-.1 0-.1.1-.1 0-.2.1-.3.1h-.5-.1-.1l-7.5-.7c-1.3-.2-2.4-1.1-2.4-2.4v-.1h-5.1c-.1 0-.2-.1-.2-.2l-.2-.6h-.3l-.2.6c0 .1-.1.2-.2.2h-1c-.1 0-.2-.1-.3-.2l-.3-1.1H12l-.3 1.1c0 .1-.1.2-.3.2h-1.2c-.1 0-.2 0-.2-.1l-.7-.8h-.4l-.1.6c0 .1-.1.2-.3.2H7.2c-.1 0-.2-.1-.2-.2l-.5-.9h-.1l-.4.9c0 .1-.1.2-.2.2H5c-.1 0-.2 0-.2-.1L3 18.3V18l1.8-2.7c0-.1.1-.1.2-.1h15.2v-.1c0-.6.2-1.2.7-1.7.5-.5 1-.6 1.7-.7l7.6-.8c1.3 0 2.4 1.1 2.4 2.5zM30.4 21v-5.8c0-.4-.3-.8-.8-.8-.4 0-.8.3-.8.8V21c0 .4.3.8.8.8.4 0 .8-.4.8-.8z"/>
</svg>
