<svg xmlns="http://www.w3.org/2000/svg" viewBox="0 0 36 36">
  <path fill="#0568ae" d="M33.4 11.1l-.2 2.2c0 .5-.3 1.1-.6 1.5l-1.4 1.6c-.2.2-.3.6-.2.8l.2.7c.1.5.1 1.2-.1 1.6l-1.7 3.3c-.1.3-.2.8-.1 1L30 26c.2.6-.1 1.2-.6 1.3-.4.1-1 0-1.4-.4l-1.6-1.6c-.2-.2-.6-.3-.8-.2l-4.1 1.1c-.3.1-.7.4-.9.6l-1.4 1.8c-.2.2-.4.4-.7.4h-.1c-.3 0-.5-.1-.7-.3l-1.9-1.6c-.2-.1-.6-.1-.8 0l-.2.1c-.5.3-1.2.1-1.5-.4l-.6-.8c-.2-.2-.6-.5-.9-.6l-5.2-1.1c-.4-.1-1.1-.4-1.4-.7l-.1-.1c-.3-.3-.8-.8-1-1.2l-1.6-3c-.2-.4-.3-1.1-.1-1.6l.2-.5c.1-.4.2-.6.2-.7v-.1c.2-1.7.2-2.6.2-3 0-.4 0-.9.3-1.2.2-.2.5-.3.8-.3h.5c-.1-.4-.2-.8 0-1.1.1-.2.3-.3.7-.3h3.9c.2 0 .4.2.4.4s-.2.4-.4.4h-4s-.1.2.2.8c.1.2.1.4 0 .5-.1.1-.3.2-.4.2l-1-.2s-.2 0-.2.1c0 0-.1.2 0 .6.1.7.1 1.8-.2 3.2v.1c0 .1-.1.4-.3.9l-.2.5c-.1.3-.1.7.1 1l1.6 3c.2.3.5.8.8 1h.1c.3.2.8.5 1.1.5l5.2 1.1c.5.1 1.1.5 1.3.9l.6.8c.1.2.4.2.6.1l.2-.1c.5-.2 1.2-.2 1.6.2l1.9 1.6c.1.1.1.1.2.1s.2 0 .2-.1l1.4-1.8c.3-.4.9-.8 1.3-.9l4.1-1.1c.5-.1 1.2 0 1.6.4l1.6 1.6c.2.2.5.3.7.2.1 0 .1-.2.1-.4l-.7-2.2c-.1-.5-.1-1.2.1-1.6l1.7-3.3c.1-.3.2-.8.1-1l-.2-.7c-.2-.5 0-1.2.3-1.6l1.4-1.6c.2-.2.4-.7.4-1l.2-2.2c0-.3-.1-.7-.4-.8l-.2-.1H32c-.1 0-.1.1-.1.1l-.3.7c-.2.5-.8.9-1.3 1l-.7.2c-.3.1-.6.3-.7.6l-.5 1.1c-.2.4-.6 1-1 1.2l-.2.1c-.5.3-1.2.3-1.6-.1l-.1-.1c-.2-.1-.2-.4 0-.5.1-.2.4-.2.5 0l.1.1c.2.2.5.2.7.1l.2-.1c.3-.2.6-.6.8-.9l.5-1.1c.2-.5.8-.9 1.3-1l.6-.1c.3-.1.6-.3.7-.6l.3-.7c.1-.3.4-.5.6-.5.3-.1.6 0 .8.2l.2.1c.4.1.7.7.6 1.3zm-21.8 5.6c-1.2-2.7-.9-6-.7-7.6.1-.5.5-.9 1-1 2.4-.2 3.8-1.1 4.6-1.6h.1c.2-.1.4-.2.5-.3.3-.2.7-.2 1 0 .2.1.4.2.6.4.8.5 2.3 1.4 4.6 1.6.4 0 .8.3.9.7v.2c.2 1.6.6 4.9-.7 7.6-1 2.1-3.2 4.7-5.8 5.3h-.6c-2.1-.5-3.7-2.2-4.4-3.1-.3-.7-.7-1.4-1.1-2.2zm.7-.3c.3.7.7 1.3 1.2 2l7.7-4.7c.2-.1.4-.1.5.1.1.2.1.4-.1.5L14 19c.8.9 2 2 3.6 2.4h.2c2.4-.6 4.4-3 5.3-4.9 1-2.3.8-5.1.7-6.7l-9 5.5c-.1 0-.1.1-.2.1s-.3-.1-.3-.2c-.1-.2-.1-.4.1-.5L23.5 9h-.1c-2.6-.2-4.1-1.2-5-1.7-.2-.1-.4-.3-.6-.3-.1-.1-.2-.1-.3 0-.1.1-.3.2-.5.3h-.1c-.9.6-2.4 1.5-5 1.7-.2 0-.3.1-.3.3-.1 1.5-.4 4.6.7 7.1z"/>
</svg>
