<svg xmlns="http://www.w3.org/2000/svg" viewBox="0 0 36 36">
  <path fill="#0568ae" d="M10.2 26.9h-.7c-1.2-.1-2.3-.3-3.3-.6-2.3-.7-3.5-1.9-3.5-3.3 0-.2 0-.3.1-.6 0-.1 0-.3.1-.4 0-.2.1-.4.1-.6.2-1.2.5-2.8 1-4.2.2-.5.4-1 .5-1.4.1-.1.2-.3.3-.4.5-.7 1.5-1.4 2.8-1.7-.6-.6-1.1-1.3-1.3-2.1-.1-.4-.2-.9-.2-1.3 0-2.5 2.1-4.6 4.6-4.6 2.5 0 4.6 2.1 4.6 4.6 0 .4-.1.8-.2 1.3-.2.8-.7 1.6-1.3 2.1 1.5.5 2.6 1.2 3.1 2.2l.3.6c0 .1.1.2.1.4.1.2 0 .4-.2.5-.2.1-.4 0-.5-.2 0-.1-.1-.2-.1-.3-.1-.2-.2-.4-.2-.6-.4-.9-1.6-1.6-3.3-2-.2 0-.3-.1-.3-.3 0-.1 0-.3.1-.4l.1-.1c.8-.5 1.3-1.3 1.6-2.1.1-.3.2-.7.2-1 0-2.1-1.7-3.8-3.8-3.8-2.1 0-3.8 1.7-3.8 3.8 0 .4.1.7.2 1.1.2.8.8 1.6 1.5 2.1h.1c.1.1.2.3.2.4 0 .2-.1.3-.3.3h-.1c-1.4.3-2.5.9-3 1.6-.5.1-.6.2-.7.3-.2.3-.3.8-.5 1.3-.4 1.3-.7 2.9-.9 4.1 0 .2-.1.4-.1.6 0 .2-.1.3-.1.5v.4c0 1 1.2 2 3 2.6.9.3 2 .5 3.1.6h.7c.2 0 .4.2.4.4 0 0-.2.2-.4.2zm15.6 0h.7c1.2-.1 2.3-.3 3.3-.6 2.2-.7 3.5-1.9 3.5-3.3 0-.2 0-.3-.1-.6 0-.1 0-.3-.1-.5 0-.2-.1-.4-.1-.6-.2-1.2-.5-2.8-1-4.2-.2-.6-.4-1-.5-1.3-.1-.2-.2-.3-.3-.5-.5-.7-1.5-1.4-2.8-1.7.6-.6 1.1-1.3 1.3-2.1.1-.4.2-.9.2-1.3 0-2.5-2.1-4.6-4.6-4.6-2.5 0-4.6 2.1-4.6 4.6 0 .4.1.8.2 1.3.2.8.7 1.5 1.3 2.1-1.5.5-2.6 1.2-3.1 2.2l-.3.6c0 .1-.1.2-.1.3l.3.2.4.1c0-.1.1-.2.1-.3l.3-.6c.4-.9 1.6-1.6 3.3-2 .1 0 .3-.1.3-.3 0-.1 0-.3-.1-.4l-.1-.1c-.8-.5-1.3-1.3-1.6-2.1-.1-.3-.2-.7-.2-1 0-2.1 1.7-3.8 3.8-3.8 2.1 0 3.8 1.7 3.8 3.8 0 .3-.1.7-.2 1.1-.2.8-.8 1.6-1.5 2.1l-.1.1c-.1.1-.2.2-.2.4s.2.3.3.3h.1c1.4.3 2.5.9 3 1.6.1.1.1.2.2.3.2.3.3.7.5 1.2.4 1.3.7 2.9.9 4.1 0 .2.1.4.1.6 0 .2.1.3.1.5v.4c0 1-1.2 2-3 2.6-.9.3-2 .5-3.1.6h-.7c-.2 0-.4.2-.4.4.4.2.6.4.8.4zM24.4 25c0-3.5-2.9-6.4-6.4-6.4-3.5 0-6.4 2.9-6.4 6.4 0 3.5 2.9 6.4 6.4 6.4 3.5 0 6.4-2.9 6.4-6.4zm-.8 0c0 3.1-2.5 5.6-5.6 5.6-3.1 0-5.6-2.5-5.6-5.6 0-3.1 2.5-5.6 5.6-5.6 3.1 0 5.6 2.5 5.6 5.6zm-4.2 1.2c0-.2-.2-.4-.4-.4h-1.9c-.2 0-.4.2-.4.4s.2.4.4.4H19c.3-.1.4-.2.4-.4zm1.5 1.2c0 .4-.4.8-.8.8h-4c-.4 0-.8-.4-.8-.8v-2.5c0-.4.3-.8.7-.8v-1c0-1.1.9-2 2.1-2 1.1 0 2.1.9 2.1 2v1c.4 0 .7.4.7.8v2.5zm-4.1-4.3v1h2.6v-1c0-.7-.6-1.3-1.3-1.3-.7.1-1.3.6-1.3 1.3zm3.4 4.3v-2.5h-4.1v2.6h.1l4-.1c-.1.1 0 0 0 0z"/>
</svg>
