<svg xmlns="http://www.w3.org/2000/svg" viewBox="0 0 36 36">
  <path fill="#0568ae" d="M24.8 31c-.1 0-.2 0-.3-.1-.1-.1-.1-.4 0-.5l1.7-1.7c.1-.1.3-.1.4-.1.9.4 2 .2 2.8-.5.5-.5.8-1.3.7-2L29 27.2c-.6.6-1.6.6-2.2 0-.6-.6-.6-1.6 0-2.2l1.1-1.1c-.7-.1-1.5.2-2 .7-.7.7-.9 1.8-.5 2.8.1.1 0 .3-.1.4l-1.7 1.7c-.1.1-.4.1-.5 0-.1-.1-.1-.4 0-.5l1.5-1.5c-.4-1.2-.1-2.5.8-3.4.9-.9 2.2-1.2 3.4-.7.1 0 .2.1.2.3 0 .1 0 .3-.1.3l-1.6 1.6c-.3.3-.3.8 0 1.1.3.3.8.3 1.1 0l1.6-1.6c.1-.1.2-.1.3-.1.1 0 .2.1.3.2.4 1.2.1 2.5-.7 3.4-.9.9-2.2 1.2-3.4.8L25 30.9s-.1.1-.2.1zm4-10.1v-.8c0-1.1-.9-2-1.9-2.1v-6.5c0-4.7-4-8.5-8.8-8.5-4.9 0-8.8 3.8-8.8 8.5V18c-1.1.1-1.9 1-1.9 2.1V31.3c.2 1 1.1 1.8 2.2 1.8H25c.6.2 1.3.3 2 .3 3.5 0 6.4-2.9 6.4-6.4 0-2.9-2-5.3-4.6-6.1zM9.9 11.5c0-4.3 3.6-7.7 8.1-7.7s8.1 3.5 8.1 7.7V18h-2.5v-6.5c0-3-2.5-5.5-5.6-5.5-3.1 0-5.6 2.5-5.6 5.5v2.6c0 .2.2.4.4.4s.4-.2.4-.4v-2.6c0-2.6 2.2-4.7 4.9-4.7S23 8.9 23 11.5V18H10v-6.5zm-.4 20.8c-.8 0-1.5-.6-1.5-1.4V20.1c0-.8.7-1.4 1.5-1.4h17.1c.8 0 1.5.6 1.5 1.4v.6c-.3-.1-.7-.1-1-.1-1.9 0-3.5.8-4.7 2.1H11.7c-.2 0-.4.2-.4.4s.2.4.4.4h10c-.7 1-1.1 2.2-1.1 3.5v.5h-9c-.2 0-.4.2-.4.4s.2.4.4.4h9.1c.3 1.7 1.4 3.2 2.8 4.1h-14zm14.6.4c.1 0 .1 0 0 0 .1 0 .1 0 0 0zm2.9-.1c-2.7 0-4.9-1.9-5.5-4.4-.1-.2-.1-.5-.1-.7V27c0-1.3.5-2.6 1.3-3.5.1-.1.2-.3.3-.4l.4-.4c1-.8 2.3-1.3 3.6-1.3 3.1 0 5.6 2.5 5.6 5.6 0 3.1-2.5 5.6-5.6 5.6z"/>
</svg>
