<svg xmlns="http://www.w3.org/2000/svg" viewBox="0 0 36 36">
  <path fill="#0568ae" d="M10.6 26.5c0 .2-.2.4-.4.4h-.7c-1.2-.1-2.3-.3-3.3-.6-2.2-.7-3.5-1.9-3.5-3.3 0-.2 0-.3.1-.6 0-.1 0-.3.1-.4 0-.2.1-.4.1-.6.2-1.2.5-2.8 1-4.2.2-.5.4-1 .5-1.4.1-.1.2-.3.3-.4.5-.7 1.5-1.4 2.8-1.7-.6-.6-1.1-1.3-1.3-2.1-.1-.4-.2-.9-.2-1.3 0-2.5 2.1-4.6 4.6-4.6s4.6 2.1 4.6 4.6c0 .4-.1.8-.2 1.3-.2.8-.7 1.6-1.3 2.1 1.5.5 2.6 1.2 3.1 2.2l.3.6c0 .1.1.2.1.4.1.2 0 .4-.2.5-.2.1-.4 0-.5-.2 0-.1-.1-.2-.1-.3-.1-.2-.2-.4-.2-.6-.4-.9-1.6-1.6-3.3-2-.2 0-.3-.1-.3-.3 0-.1 0-.3.1-.4l.1-.1c.8-.5 1.3-1.3 1.6-2.1.1-.3.2-.7.2-1 0-2.1-1.7-3.8-3.8-3.8s-3.8 1.7-3.8 3.8c0 .4.1.7.2 1.1.2.8.8 1.6 1.5 2.1h.1c.1.1.2.3.2.4 0 .2-.1.3-.3.3h-.1c-1.4.3-2.5.9-3 1.6-.5.1-.6.2-.7.3-.2.3-.3.8-.5 1.3-.4 1.3-.7 2.9-.9 4.1 0 .2-.1.4-.1.6 0 .2-.1.3-.1.5v.4c0 1 1.2 2 3 2.6.9.3 2 .5 3.1.6h.7c.2-.1.4 0 .4.2zM24.4 25c0 3.5-2.9 6.4-6.4 6.4s-6.4-2.9-6.4-6.4c0-3.5 2.9-6.4 6.4-6.4s6.4 2.9 6.4 6.4zm-.8 0c0-3.1-2.5-5.6-5.6-5.6s-5.6 2.5-5.6 5.6 2.5 5.6 5.6 5.6 5.6-2.5 5.6-5.6zm-2-2.3c.1.8.3 2.5-.4 3.9-.5 1.1-1.7 2.4-3 2.8h-.4c-1.1-.3-1.9-1.1-2.3-1.6-.3-.4-.5-.8-.7-1.1-.6-1.4-.4-3.1-.4-3.9 0-.3.3-.6.7-.7 1.1-.1 1.8-.5 2.2-.8.1-.1.2-.1.3-.2.2-.1.5-.1.7 0 .1 0 .2.1.3.2.4.3 1.1.7 2.2.8.3 0 .6.2.6.5.1 0 .1 0 .2.1zm-.7.6l-4.2 2.6c-.1 0-.1.1-.2.1s-.3-.1-.3-.2c-.1-.2-.1-.4.1-.5l4.1-2.5c-1-.2-1.7-.6-2.1-.8-.1-.1-.2-.1-.3-.2-.1 0-.1.1-.2.1-.5.3-1.3.8-2.6.9-.1.7-.3 2.3.3 3.5.1.3.3.5.5.8l3.7-2.2c.2-.1.4-.1.5.1.1.2.1.4-.1.5l-3.6 2.2c.5.5 1 .8 1.5 1 1.1-.3 2.1-1.4 2.5-2.4.5-1 .4-2.2.4-3zm12.4-.9c0-.1 0-.3-.1-.4 0-.2-.1-.4-.1-.6-.2-1.2-.5-2.8-1-4.2-.2-.5-.4-1-.5-1.4-.1-.1-.2-.3-.3-.4-.5-.7-1.5-1.4-2.8-1.7.6-.6 1.1-1.3 1.3-2.1.1-.4.2-.9.2-1.3 0-2.5-2.1-4.6-4.6-4.6s-4.6 2.1-4.6 4.6c0 .4.1.8.2 1.3.2.8.7 1.6 1.3 2.1-1.5.5-2.6 1.2-3.1 2.2l-.3.6c0 .1-.1.2-.1.4-.1.2 0 .4.2.5.2.1.4 0 .5-.2 0-.1.1-.2.1-.3.1-.2.2-.4.2-.6.4-.9 1.6-1.6 3.3-2 .2 0 .3-.1.3-.3 0-.1 0-.3-.1-.4l-.1-.1c-.8-.5-1.3-1.3-1.6-2.1-.1-.3-.2-.7-.2-1 0-2.1 1.7-3.8 3.8-3.8 2.1 0 3.8 1.7 3.8 3.8 0 .4-.1.7-.2 1.1-.2.8-.8 1.6-1.5 2.1h-.1c-.1.1-.2.3-.2.4 0 .2.1.3.3.3h.1c1.4.3 2.5.9 3 1.6.1.1.1.2.2.3.2.3.3.8.5 1.3.4 1.3.7 2.9.9 4.1 0 .2.1.4.1.6 0 .2.1.3.1.5v.4c0 1-1.2 2-3 2.6-.9.3-2 .5-3.1.6h-.7c-.2 0-.4.2-.4.4s.2.4.4.4h.7c1.2-.1 2.3-.3 3.3-.6 2.2-.7 3.5-1.9 3.5-3.3.5-.4.5-.6.4-.8z"/>
</svg>
