<svg xmlns="http://www.w3.org/2000/svg" viewBox="0 0 36 36">
  <path fill="#0568ae" d="M10.7 26.5h-.1c-1.6 0-3-.2-4.2-.6C4.3 25.3 3 24.2 3 23c0-.2 0-.3.1-.5 0-.3.1-.6.2-1 .2-1.2.5-2.8 1-4.1.2-.5.3-1 .5-1.3.1-.1.1-.3.2-.4.6-.8 1.8-1.4 3.2-1.8h.1l-.1-.1c-.8-.5-1.4-1.4-1.7-2.3-.1-.4-.2-.8-.2-1.2 0-2.3 1.9-4.2 4.2-4.2 2.3 0 4.2 1.9 4.2 4.2 0 .4-.1.8-.2 1.2-.3 1-.9 1.8-1.7 2.4h-.1c1.7.4 3.1 1.2 3.5 2.2.2.4.4 1 .6 1.5-3.6.5-6.4 3.6-6.4 7.4l.3 1.5zm22.3-4c0-.3-.1-.6-.2-1-.3-1.6-.8-4.1-1.5-5.4-.4-1-1.8-1.8-3.5-2.2h.1c.8-.5 1.4-1.4 1.7-2.4.1-.4.2-.8.2-1.2 0-2.3-1.9-4.2-4.2-4.2-2.3 0-4.2 1.9-4.2 4.2 0 .4.1.8.2 1.2.3.9.9 1.8 1.7 2.3l.1.1h-.1c-1.5.3-2.7 1-3.2 1.8-.1.1-.2.3-.2.4-.2.4-.4.8-.5 1.3 0 .1-.1.2-.1.3 3.6.5 6.4 3.7 6.4 7.4 0 .5-.1 1-.2 1.5h.2c4.2 0 7.5-1.6 7.5-3.5-.2-.3-.2-.4-.2-.6zM18 19c-3.3 0-6 2.7-6 6s2.7 6 6 6 6-2.7 6-6-2.7-6-6-6m2.7 8.7c0 .3-.2.5-.5.5h-4.5c-.3 0-.5-.2-.5-.5v-2.8c0-.3.2-.5.5-.5h.1v-1.2c0-1.2 1-2.1 2.2-2.1 1.2 0 2.2 1 2.2 2.1v1.2c.3 0 .5.2.5.5v2.8zM17 24.4h2v-1.2c0-.5-.5-1-1-1-.6 0-1 .4-1 1v1.2z"/>
</svg>
