<svg xmlns="http://www.w3.org/2000/svg" viewBox="0 0 36 36">
  <path fill="#0568ae" d="M10.5 25c0 .5.1 1 .2 1.5h-.1c-1.6 0-3-.2-4.2-.6C4.3 25.3 3 24.2 3 23c0-.2 0-.3.1-.5 0-.3.1-.6.2-1 .2-1.2.5-2.8 1-4.1.2-.5.3-1 .5-1.3.1-.1.1-.3.2-.4.6-.8 1.8-1.4 3.2-1.8h.1l-.1-.1c-.8-.5-1.4-1.4-1.7-2.3-.1-.4-.2-.8-.2-1.2 0-2.3 1.9-4.2 4.2-4.2 2.3 0 4.2 1.9 4.2 4.2 0 .4-.1.8-.2 1.2-.3 1-.9 1.8-1.7 2.4h-.1c1.7.4 3.1 1.2 3.5 2.2.2.4.4 1 .6 1.5-3.5.5-6.3 3.6-6.3 7.4zM33 22.5c0-.3-.1-.6-.2-1-.3-1.6-.8-4.1-1.5-5.4-.4-1-1.8-1.8-3.5-2.2h.1c.8-.5 1.4-1.4 1.7-2.4.1-.4.2-.8.2-1.2 0-2.3-1.9-4.2-4.2-4.2-2.3 0-4.2 1.9-4.2 4.2 0 .4.1.8.2 1.2.3.9.9 1.8 1.7 2.3l.1.1h-.1c-1.5.3-2.7 1-3.2 1.8-.1.1-.2.3-.2.4-.2.4-.3.8-.5 1.3 0 .1-.1.2-.1.3 3.6.5 6.4 3.7 6.4 7.4 0 .5-.1 1-.2 1.5h.2c4.2 0 7.5-1.6 7.5-3.5-.2-.3-.2-.4-.2-.6zm-15 5.7c.9-.3 1.8-1.3 2.2-2.1.2-.4.3-.9.3-1.4l-4 2.4c.5.5 1 .9 1.5 1.1zm0-9.2c-3.3 0-6 2.7-6 6s2.7 6 6 6 6-2.7 6-6-2.7-6-6-6zm3.2 6.4c-.1.3-.2.7-.3 1-.1.3-.3.5-.5.8-.1.1-.2.3-.3.4-.5.6-1.2 1.2-2 1.4-.3-.1-.6-.2-.9-.4-.3-.2-.5-.4-.8-.6-.2-.2-.3-.3-.4-.5-.1-.1-.1-.2-.2-.3-.2-.3-.4-.5-.5-.8-.2-.5-.3-1-.4-1.5-.1-.9 0-1.7.1-2.2 0-.1.1-.2.2-.3h.1c.3 0 .6-.1.8-.1.7-.2 1.2-.5 1.6-.7.1-.1.2-.1.3-.2h.4s.1 0 .1.1c0 0 .1.1.2.1.2.1.4.2.6.4.3.1.6.3.9.3.2.1.5.1.8.1h.1s.1 0 .1.1c.1 0 .1.1.1.2v.4c0 .2 0 .5.1.8-.1.4-.1 1-.2 1.5zm-.9-2.3l-4.6 2.8c-.3-.9-.3-2-.2-2.8 1.2-.2 2-.6 2.4-.9.6.2 1.3.7 2.4.9z"/>
</svg>
