<svg xmlns="http://www.w3.org/2000/svg" viewBox="0 0 36 36">
  <path fill="#0568ae" d="M27 30.8c-.5 0-1.1-.1-1.5-.2-.9-.3-1.4-.8-1.4-1.3V29v-.2c.1-.4.2-1 .3-1.4.1-.2.1-.4.2-.5 0 0 .1-.1.1-.2.2-.2.4-.4.7-.5-.1-.2-.2-.3-.3-.5 0-.2-.1-.3-.1-.5 0-1 .8-1.8 1.8-1.8s1.8.8 1.8 1.8c0 .2 0 .3-.1.5s-.1.4-.3.5c.4.2.7.4.8.7.2.4.4 1.3.5 1.9l.1.3v.2c.3.8-1 1.5-2.6 1.5zm0-6.8c-.6 0-1 .5-1 1v.3c.1.2.2.4.4.6.1.1.2.2.2.4 0 .1-.1.3-.3.3-.4.1-.8.3-.9.5v.1c-.1.1-.1.2-.2.4-.1.4-.2.9-.3 1.3v.4c0 .2.3.4.8.6.4.1.8.1 1.3.1 1.3 0 2.1-.5 2.1-.8v-.1l-.1-.3c-.1-.8-.3-1.4-.5-1.7-.1-.2-.4-.4-.9-.5-.1 0-.2-.2-.3-.3 0-.1 0-.3.1-.4.2-.2.4-.4.5-.6V25c.1-.6-.3-1-.9-1zm3.5-2.3c1.7-5 1.1-10.7.7-13.6 0-.1 0-.2-.1-.3-.1-.8-.8-1.3-1.5-1.4-4.9-.4-7.8-2.2-9.5-3.3-.5-.3-.8-.5-1.2-.7-.5-.3-1.1-.3-1.7 0-.3.2-.7.4-1.1.7H16C14.3 4.2 11.4 6 6.5 6.4c-.9.1-1.7.8-1.8 1.7-.4 3.2-1.1 9.8 1.3 15.1.7 1.5 1.6 3 2.8 4.4 2.6 3.2 5.7 5.4 8.7 6.2.1 0 .3.1.4.1.1 0 .3 0 .4-.1 1.5-.4 3-1.1 4.3-2 1.1 1 2.6 1.6 4.3 1.6 3.5 0 6.4-2.9 6.4-6.4.1-2.2-1.1-4.2-2.8-5.3zM18.3 33h-.5c-2.8-.7-5.6-2.7-8.1-5.6l18.1-11c.1-.1.2-.2.2-.3 0-.1 0-.1-.1-.2-.1-.2-.3-.2-.5-.1l-18.2 11c-1-1.3-1.9-2.7-2.5-4-2.3-5-1.6-11.5-1.2-14.6.1-.5.5-.9 1-1 5.1-.4 8.1-2.3 9.9-3.4l.1-.1c.4-.3.8-.5 1.1-.6.3-.2.7-.2 1 0 .3.2.7.4 1.1.7 1.8 1.1 4.8 3 9.9 3.4.3 0 .7.2.8.5L9.5 20.3c-.1.1-.2.2-.2.3 0 .1 0 .1.1.2.1.2.4.2.5.1L30.5 8.4c.3 2.9.9 8.2-.7 12.9-.8-.4-1.8-.7-2.8-.7-3.5 0-6.4 2.9-6.4 6.4 0 1.6.6 3.1 1.6 4.2-1.2.8-2.6 1.5-3.9 1.8zm8.7-.4c-3.1 0-5.6-2.5-5.6-5.6 0-3.1 2.5-5.6 5.6-5.6 3.1 0 5.6 2.5 5.6 5.6 0 3.1-2.5 5.6-5.6 5.6z"/>
</svg>
