<svg xmlns="http://www.w3.org/2000/svg" viewBox="0 0 36 36">
  <path fill="#0568ae" d="M30.9 8.1c0-.1 0-.2-.1-.3-.2-.6-.7-1-1.3-1-5-.4-8-2.3-9.7-3.4-.5-.3-.8-.5-1.2-.7-.2-.1-.4-.2-.7-.2-.2 0-.5.1-.7.2-.3.2-.7.4-1.2.7-1.8 1.1-4.7 3-9.7 3.4-.5.1-1.1.6-1.2 1.3C4.8 11.3 4 17.8 6.4 23c.6 1.4 1.6 2.9 2.7 4.3 2.2 2.8 5.2 5.2 8.5 6.1h.8c5-1.3 9.3-6.3 11.2-10.4 2.4-5.2 1.6-11.7 1.3-14.9zm-23.8.7c5.3-.5 8.5-2.5 10.2-3.7h.1c.3-.2.5-.3.7-.4.2.1.4.3.8.5 1.7 1.1 4.9 3.1 10.1 3.6L7.9 21.4c-1.7-4.3-1.2-9.7-.8-12.6zM18 31.4c-2.4-.6-4.8-2.4-7-4.9l18.2-11.1c-.1 2.3-.5 4.7-1.5 6.9-1.7 3.7-5.6 8-9.7 9.1z"/>
</svg>
