<svg xmlns="http://www.w3.org/2000/svg" viewBox="0 0 36 36">
  <path fill="#0568ae" d="M18 33.8c-.1 0-.3 0-.4-.1-3-.8-6.1-3-8.7-6.2-1.1-1.4-2.1-2.9-2.8-4.4-2.5-5.2-1.7-11.8-1.3-15 .1-.9.8-1.6 1.7-1.6 4.9-.5 7.8-2.3 9.5-3.4h.1c.4-.3.8-.5 1.1-.7.5-.3 1.1-.3 1.7 0 .4.2.7.4 1.2.7 1.7 1.1 4.6 2.9 9.5 3.3.7.1 1.4.6 1.6 1.3 0 .1.1.2.1.3.4 3.2 1.1 9.8-1.3 15.1-1.9 4.2-6.4 9.3-11.5 10.6-.2.1-.3.1-.5.1zm-8.3-6.4c2.4 2.9 5.3 4.9 8.1 5.6h.5c4.9-1.2 9.1-6.1 11-10.2 2.3-4.9 1.7-11.2 1.3-14.4L9.9 20.9c-.1.1-.4.1-.5-.1 0-.1-.1-.1-.1-.2s.1-.3.2-.3L30.4 7.7c-.2-.3-.5-.5-.8-.5-5.1-.4-8.1-2.3-9.9-3.4-.5-.3-.8-.5-1.1-.7-.3-.2-.7-.2-1 0-.3.2-.6.4-1.1.6h-.1c-1.8 1.1-4.8 3-9.9 3.4-.5 0-.9.4-1 1-.4 3.1-1.1 9.6 1.3 14.7.6 1.3 1.5 2.7 2.5 4l18.1-11.1c.2-.1.4-.1.5.1 0 .1.1.1.1.2s-.1.2-.2.3L9.7 27.4z"/>
</svg>
