<svg xmlns="http://www.w3.org/2000/svg" viewBox="0 0 36 36">
  <path fill="#0568ae" d="M30.5 21.7c1.7-5 1.1-10.7.7-13.6 0-.1 0-.2-.1-.3-.1-.8-.8-1.3-1.5-1.4-4.9-.4-7.8-2.2-9.5-3.3-.5-.3-.8-.5-1.2-.7-.5-.3-1.1-.3-1.7 0-.3.2-.7.4-1.1.7H16C14.2 4.2 11.4 6 6.4 6.4c-.8.1-1.6.8-1.7 1.7-.4 3.2-1.1 9.8 1.3 15.1.7 1.5 1.6 3 2.8 4.4 2.6 3.2 5.7 5.4 8.7 6.2.1 0 .3.1.4.1.1 0 .3 0 .4-.1 1.5-.4 3-1.1 4.3-2 1.1 1 2.6 1.6 4.3 1.6 3.5 0 6.4-2.9 6.4-6.4.1-2.2-1.1-4.2-2.8-5.3zM18.3 33h-.5c-2.8-.7-5.6-2.7-8.1-5.6l18.1-11c.1-.1.2-.2.2-.3 0-.1 0-.1-.1-.2-.1-.2-.3-.2-.5-.1l-18.2 11c-1-1.3-1.9-2.7-2.5-4-2.3-5-1.6-11.5-1.2-14.6.1-.5.5-.9 1-1 5.1-.4 8.1-2.3 9.9-3.4l.1-.1c.4-.3.8-.5 1.1-.6.3-.2.7-.2 1 0 .3.2.7.4 1.1.7 1.8 1.1 4.8 3 9.9 3.4.3 0 .7.2.8.5L9.5 20.3c-.1.1-.2.2-.2.3 0 .1 0 .1.1.2.1.2.4.2.5.1L30.5 8.4c.3 2.9.9 8.2-.7 12.9-.8-.4-1.8-.7-2.8-.7-3.5 0-6.4 2.9-6.4 6.4 0 1.6.6 3.1 1.6 4.2-1.2.8-2.6 1.5-3.9 1.8zm8.7-.4c-3.1 0-5.6-2.5-5.6-5.6 0-3.1 2.5-5.6 5.6-5.6 3.1 0 5.6 2.5 5.6 5.6 0 3.1-2.5 5.6-5.6 5.6zm3.6-5.6c0 .2-.2.4-.4.4h-2.8v2.8c0 .2-.2.4-.4.4s-.4-.2-.4-.4v-2.8h-2.8c-.2 0-.4-.2-.4-.4s.2-.4.4-.4h2.8v-2.8c0-.2.2-.4.4-.4s.4.2.4.4v2.8h2.8c.2 0 .4.2.4.4z"/>
</svg>
