<svg xmlns="http://www.w3.org/2000/svg" viewBox="0 0 36 36">
  <path fill="#0568ae" d="M25.8 28.9c-.1-.4-.2-.8-.4-1.2l-8.6-14.9c-.5-.9-1.4-1.6-2.3-1.6-.9 0-1.8.6-2.3 1.6l-8.7 15c-.2.4-.4.8-.4 1.2v.5c0 .7.3 1.3.8 1.7.5.4 1.2.6 2 .6h17.2c.8 0 1.5-.2 2-.6.5-.4.8-1 .8-1.7v-.1c0-.2-.1-.3-.1-.5zM15.7 17l-.3 7.7h-2l-.3-7.7h2.6zm-.2 11.3c-.3.3-.6.4-1 .4s-.8-.1-1-.4c-.3-.3-.4-.6-.4-1s.1-.7.4-1c.3-.3.6-.4 1-.4s.8.1 1 .4c.3.3.4.6.4 1s-.2.7-.4 1zm16-13.3c-.1.7-.4 2.5-2.9 3.6-.3.1-.5-.1-.5-.1-.1-.1 0-.4.1-.7.4-1.3-.1-2.1-.7-2.6-.3-.3-.6-.6-.8-1.3-.2.4-1.5 1.3-1.8 2.3-.2.6-.1 1.1 0 1.5.1.4.2.7-.1.9-.1.1-.2.2-.4.2-.9 0-2.4-1.3-2.9-2.9-.4-1.1-1.1-4 .7-5.7 0-.1.1-.1.2 0 .1 0 .1.1 0 .2 0 .1-.3 1.4.6 2.6.2.3.5.4.8.4.2 0 .4-.1.6-.2.4-.3.2-.8-.1-1.5-.4-.9-.9-2.1.1-3.2l.6-.6c.6-.5 1.2-1 1.4-2 .1-.4-.1-1.4-.5-1.7 0 0-.1-.1 0-.2 0-.1.1-.1.1-.1.8.2 1.4.7 1.8 1.5.2.7.2 1.5-.3 2.3-.4.7-.5 1.4-.3 1.9.2.3.6.6 1 .6.3 0 .6-.2.8-.4.2-.4.1-.8-.2-1.3v-.1l.1-.1s.7-.1 1.4.6c.5.6.7 1.8-.1 3.3-.1.1-.1.2-.1.3-.1.2-.5 1.1-.2 1.4.1 0 .1.1.2.1.3 0 .5-.6.5-.8l.1-.1h.1c.5.3.8 1 .7 1.9z"/>
</svg>
