<svg xmlns="http://www.w3.org/2000/svg" viewBox="0 0 36 36">
  <path fill="#0568ae" d="M31.6 15.1c-.1 1.6-1.3 3-3.1 3.8h-.2c-.1 0-.3-.1-.3-.2v-.1-.1-.1c.3-.6-.1-1.5-.5-1.8-.4-.3-.8-.8-1.1-1.4-.3.5-.6 1-1.1 1.4-.3.3-.5.7-.6 1.1 0 .2.1.5.2.7.1.2 0 .4-.2.5h-.2c-.1 0-.3-.1-.3-.2-.1-.3-.2-.7-.2-1.1 0-.6.3-1.2.8-1.6.8-.6 1.2-1.4 1.3-2.3v-.1-.1-.1-.1h.6l.1.1V13.7c0 1 .7 1.8 1.2 2.3.4.3.8 1.1.8 1.9 1.1-.7 1.9-1.7 1.9-2.8 0-.4 0-.7-.1-1-.1.2-.2.3-.4.4-.3.1-.6.1-.9 0 0 0-.1 0-.1-.1-.7-.6-.1-1.8 0-2 0-.1.1-.2.1-.3.7-1.4.4-2.3.2-2.7l-.2-.2c.1.4.1.7-.1 1-.2.4-.7.7-1.2.7-.6 0-1.1-.3-1.4-.8-.3-.6-.2-1.5.3-2.3.3-.6.4-1.3.1-1.9-.1-.2-.2-.4-.4-.6.1.3.1.7.1.9-.2 1.2-.9 1.7-1.5 2.3-.2.2-.4.3-.6.5-.8.9-.4 1.8 0 2.6.3.7.7 1.5 0 2.1-.3.2-.7.4-1 .3-.4 0-.8-.2-1.1-.6-.4-.5-.6-1.1-.6-1.6-.2.5-.4 1.3-.3 2.2 0 .6.1 1.2.3 1.8.2.6.6 1.1 1 1.5.2.1.2.4 0 .5-.1.2-.4.2-.5 0-.5-.5-.9-1.1-1.2-1.8-.2-.6-.4-1.3-.4-2-.2-2.2.7-3.4 1.1-3.8l.1-.1c.1-.1.2-.2.3-.2.1 0 .2 0 .3.1.1.2.1.4.1.7-.1.5-.1 1.3.5 2 .2.2.4.3.6.3.2 0 .4 0 .5-.2.2-.2.1-.5-.2-1.2-.4-.9-1-2.2.2-3.4l.6-.6c.4-.2 1-.6 1.1-1.5.1-.4-.1-1.2-.4-1.4-.1-.1-.2-.3-.1-.5s.2-.3.4-.2c.8.2 1.6.8 1.9 1.6.4.8.3 1.8-.2 2.6-.4.6-.5 1.2-.3 1.6.1.3.4.4.8.4.2 0 .4-.1.5-.3.1-.3.1-.6-.2-1 0-.1-.1-.1-.1-.2 0-.2.1-.4.2-.4h.2c.2 0 .8 0 1.4.7.5.6.8 1.9-.1 3.5-.1.1-.1.2-.1.3-.2.4-.4 1-.2 1.1h.1c.1 0 .2-.3.2-.5 0-.1.1-.2.2-.3.1-.1.3 0 .4 0 .8.3 1.1 1.1 1 2zm-16.5 12c0 .2-.1.3-.2.5-.1.1-.3.2-.5.2s-.4-.1-.5-.2c-.1-.1-.2-.3-.2-.5s.1-.3.2-.5c.1-.1.3-.2.5-.2s.4.1.5.2c.2.1.2.3.2.5zm-.3-2.7h-.7l-.1-8.3h.9l-.1 8.3zm7.8 6.9c.8 0 1.6-.2 2.1-.7.6-.5.9-1.2.9-1.9 0-.6-.2-1.2-.5-1.7L17 12.9c-.6-1.1-1.5-1.7-2.5-1.7s-1.9.6-2.5 1.7l-8.2 14c-.3.6-.5 1.2-.5 1.7 0 .8.3 1.5.9 1.9.2.1.4.1.5-.1.1-.2.1-.4-.1-.5-.3-.2-.6-.7-.6-1.2 0-.4.1-.9.4-1.4l8.1-14.1c.5-.8 1.1-1.3 1.8-1.3s1.4.5 1.8 1.3l8.1 14.1c.3.5.4.9.4 1.4 0 .5-.2 1-.6 1.3-.4.3-1 .5-1.6.5H10c-.2 0-.4.2-.4.4s.2.4.4.4h12.6z"/>
</svg>
