<svg xmlns="http://www.w3.org/2000/svg" viewBox="0 0 36 36">
  <path fill="#0568ae" d="M31.3 19.8l-2.5 3.5-.1.1c-.1.2-.3.2-.5 0l-.1-.1-2.5-3.5c-.2-.2-.1-.4.2-.4h1.6c-.2-3.3-1.7-6.4-4.2-8.6-2.5-2.2-5.7-3.3-9-3.1-2.3.1-4.4.9-6.2 2.1l8.3 8.3c.2-.3.3-.7.5-1.2.3-.9 1.1-1.9 2.4-1.9 1.7 0 2.4 1.4 2.4 2.3 0 1.4-.8 2.1-1.5 2.4l-1.5.7 9.8 9.8c.4.4.4 1 0 1.4-.2.3-.4.4-.7.4-.3 0-.5-.1-.7-.3L3 7.7c-.4-.4-.4-1 0-1.4.4-.4 1-.4 1.4 0l2.1 2.1c2.2-1.6 4.8-2.5 7.6-2.7 3.9-.2 7.6 1 10.5 3.6 2.9 2.6 4.7 6.3 4.9 10.1h1.6c.3 0 .4.2.2.4zm-16.9 3.5c-.6 0-1-.5-1-1 0-.6.5-1 1-1l-5.9-5.9c-.2.1-.5.2-.7.5-.3.3-.6.8-.6 1.7 0 1.4 1.1 2.2 1.9 2.4 1 .4 1.9.9 2 1l.1.1c.1.1.4.5.5 1.3v.1c0 .3-.1 1-.8 1.3l-2.2 1.1c-.7.3-1.6 1-1.5 2.4 0 .9.6 2.3 2.4 2.3 1.5 0 2.2-1.2 2.4-1.9.4-1 .9-1.9 1-2l.1-.1c.1-.1.4-.4 1.2-.5h.1c.2 0 .9.1 1.5.9.2.3.5.9.7 1.4l.3.6c.5 1 1.3 1.5 2.3 1.5h.1c.7 0 1.6-.4 2.1-1.3l-6-6c.1.6-.4 1.1-1 1.1z"/>
</svg>
