<svg xmlns="http://www.w3.org/2000/svg" viewBox="0 0 36 36">
  <path fill="#0568ae" d="M27.3 24.9l-2.2-1.1c-.7-.4-.8-1-.8-1.3v-.1c0-.9.3-1.2.5-1.3l.1-.1c.1-.1 1-.6 2-1 .9-.3 1.9-1.1 1.9-2.4 0-.8-.3-1.4-.6-1.7-.7-.7-1.6-.7-1.7-.7h-.1c-1 0-1.8.5-2.3 1.5-.1.2-.2.5-.3.7-.2.5-.5 1.1-.7 1.4-.5.8-1.2.9-1.5.9h-.1c-.9 0-1.2-.4-1.3-.5V19c-.1-.1-.6-1-1-2-.3-.9-1.1-1.9-2.4-1.9-1.7 0-2.4 1.4-2.4 2.3 0 1.4.8 2.1 1.5 2.4l2.2 1.1c.7.4.8 1 .8 1.3v.2c0 .9-.4 1.2-.5 1.3l-.1.1c-.1.1-1.1.6-2 1-.7.2-1.9 1-1.9 2.4 0 1.7 1.4 2.4 2.3 2.4h.1c1 0 1.8-.6 2.3-1.5l.3-.6c.3-.6.5-1.1.7-1.4.6-.8 1.3-.9 1.5-.9h.1c.8.1 1.1.4 1.2.5l.1.1c.1.1.6 1 1 2 .2.7 1 1.9 2.4 1.9 1.7 0 2.4-1.4 2.4-2.3.1-1.5-.8-2.2-1.5-2.5zm-5.7-1.6c-.6 0-1-.5-1-1 0-.6.5-1 1-1 .6 0 1 .5 1 1s-.4 1-1 1zm10-12.5l-1 .8c-.1.1-.4.1-.5 0l-.9-.9c-2.1-1.8-4.7-2.9-7.4-3-3.3-.2-6.5.9-9 3.1s-4 5.3-4.2 8.6h1.6c.3 0 .4.2.2.4l-2.5 3.5c-.2.2-.4.2-.6 0l-2.5-3.5c-.2-.2-.1-.4.2-.4h1.6c.2-3.9 1.9-7.5 4.9-10.1 2.9-2.6 6.6-3.8 10.5-3.6 3 .2 5.9 1.3 8.3 3.3.6.5 1.3 1.3 1.3 1.3.2.1.2.4 0 .5z"/>
</svg>
