<svg xmlns="http://www.w3.org/2000/svg" viewBox="0 0 36 36">
  <path fill="#0568ae" d="M10.6 28.4c-1.8 0-2.5-1.5-2.5-2.4 0-1.4.9-2.2 1.6-2.5l2.2-1.1c.6-.3.7-.8.7-1.2V21c0-.8-.3-1.1-.4-1.3l-.1-.1c-.1-.1-1-.6-2-1-.9-.3-2-1.1-2-2.6 0-.9.4-1.5.7-1.8.7-.7 1.6-.7 1.7-.7h.1c1 0 1.9.6 2.4 1.6.1.2.2.5.3.7.2.5.5 1.1.7 1.3.5.8 1.2.8 1.4.8h.1c.8 0 1.1-.3 1.3-.5l.1-.1c.1-.1.6-1 1-2 .3-.9 1.1-2 2.6-2 1.8 0 2.5 1.4 2.5 2.4 0 1.4-.9 2.2-1.6 2.5L19 19.6c-.6.3-.7.8-.7 1.2v.2c0 .8.3 1.1.5 1.2l.1.1c.1.1 1 .5 1.9.9.8.2 2 1 2 2.6 0 1.8-1.4 2.5-2.4 2.5h-.1c-1.1 0-1.9-.6-2.4-1.6l-.3-.6c-.2-.5-.5-1.1-.7-1.4-.5-.8-1.2-.8-1.4-.8h-.1c-.8.1-1 .3-1.2.4l-.1.1c-.1.1-.6 1-1 2-.1.7-.9 2-2.5 2zm0-14h-.1s-.7 0-1.2.5c-.2.2-.5.6-.5 1.2 0 1.4 1.4 1.8 1.5 1.9.8.3 2 .9 2.3 1.2l.1.1c.2.2.6.6.7 1.8v.1c0 .4-.1 1.4-1.1 1.9l-2.2 1.1c-.8.4-1.2 1-1.2 1.8 0 .6.4 1.7 1.7 1.7 1.4 0 1.8-1.4 1.9-1.5.3-.8.9-2 1.1-2.3l.1-.1c.2-.2.6-.6 1.7-.7h.1c.3 0 1.3.1 2 1.1.2.3.5 1 .8 1.5.1.2.2.5.3.7.4.8 1 1.2 1.7 1.2h.1c.6 0 1.7-.4 1.7-1.7 0-1.4-1.4-1.8-1.5-1.9-.6-.2-1.9-.8-2.2-1.1l-.1-.1c-.2-.2-.6-.6-.7-1.7v-.2c0-.4.1-1.3 1.1-1.9l2.2-1.1c.8-.4 1.2-1 1.2-1.8 0-.6-.4-1.7-1.7-1.7-1.4 0-1.8 1.4-1.9 1.5-.3.7-.9 2-1.2 2.3l-.1.1c-.2.2-.6.6-1.8.7-.3 0-1.3-.1-2-1.2-.2-.3-.5-.9-.7-1.4-.1-.3-.2-.5-.3-.7-.4-.9-1-1.3-1.8-1.3zm4.9 8c-.4 0-.7-.1-1-.4-.3-.3-.4-.6-.4-1s.1-.7.4-1c.3-.3.6-.4 1-.4.8 0 1.4.6 1.4 1.4 0 .4-.1.7-.4 1-.2.2-.6.4-1 .4zm0-2.1c-.2 0-.3.1-.5.2-.1.1-.2.3-.2.5s.1.3.2.5c.1.1.3.2.5.2s.3-.1.5-.2c.1-.1.2-.3.2-.5 0-.4-.3-.7-.7-.7zm16.8-3.4c-.2-.1-.4-.1-.5.1l-2.1 3.4-.1.1c-.1-2.5-.8-4.8-2.1-6.9-2-3.1-5-5.3-8.6-6.2-3.6-.8-7.3-.2-10.5 1.7-2.1 1.3-3.7 3.1-4.9 5.2-.1.2 0 .4.2.5.1.2.3.2.4 0 1.1-2 2.7-3.7 4.6-4.9 3-1.9 6.5-2.4 9.9-1.6 3.4.8 6.3 2.9 8.2 5.8 1.2 2 1.9 4.3 2 6.6 0 0-.1 0-.1-.1l-2.7-3c-.1-.2-.4-.2-.5 0-.2.1-.2.4 0 .5l2.7 2.9c.3.3.6.5 1 .5h.1c.4 0 .8-.3 1-.7l2.1-3.4c.1-.1 0-.4-.1-.5z"/>
</svg>
