<svg xmlns="http://www.w3.org/2000/svg" viewBox="0 0 36 36">
  <path fill="#0568ae" d="M17.18 10.164c1.246 1.522 1.753 3.503 1.39 5.436-.203 1.085-.675 2.106-1.364 2.952-.074.09-.182.138-.29.138-.084 0-.168-.028-.238-.084-.16-.13-.185-.367-.054-.528.61-.75 1.028-1.654 1.21-2.617.32-1.713-.13-3.47-1.237-4.822-.13-.16-.107-.397.053-.528.16-.13.398-.107.53.054zm-.403 5.175c.277-1.468-.08-2.994-.98-4.188-.123-.165-.358-.198-.524-.074-.166.125-.2.36-.074.525.77 1.025 1.077 2.336.84 3.596-.135.714-.427 1.367-.867 1.94-.126.164-.095.4.07.526.068.052.147.078.226.078.112 0 .224-.05.3-.146.51-.667.85-1.427 1.007-2.26zm-2.43-3.31c-.126-.166-.36-.198-.526-.073-.164.125-.196.36-.07.525.523.69.732 1.577.572 2.434-.09.483-.286.92-.58 1.304-.126.164-.097.4.07.526.066.053.147.078.227.078.11 0 .222-.05.296-.146.367-.477.61-1.022.726-1.62v-.002c.195-1.065-.064-2.168-.716-3.027zM12.32 9.96l.006 8.795c0 .1-.04.196-.11.266-.165.162-.38.25-.61.25-.232 0-.45-.09-.612-.254L8.3 16.112H7.073c-.33 0-.596-.266-.596-.593v-2.496c0-.328.267-.594.596-.594h1.212l2.702-2.734c.33-.33.898-.327 1.225.002.07.07.108.165.108.264zm-.744 8.56l-.005-8.325-.05.03-2.81 2.843c-.07.07-.167.11-.267.11H7.228v2.185h1.235c.104 0 .204.043.275.12l2.798 3.017.04.02zm20.227-5.933H25.98c-.208 0-.376.167-.376.374s.168.375.375.375h5.823c.365 0 .66.296.66.662v12.273c0 .366-.295.663-.66.663h-2.635c-.698.046-1.186.52-1.186 1.16 0 0 .026 2.106.024 2.223l.002.01-.002.008c0 .253-.206.46-.46.46-.174 0-.36-.18-.42-.253l-2.305-2.67v-.002c-.588-.727-1.09-.894-1.777-.935h-5.936c-.365 0-.662-.297-.662-.663v-.988c0-.207-.168-.375-.375-.375-.208 0-.375.168-.375.375v.988c0 .78.635 1.413 1.412 1.413h5.914c.44.025.76.086 1.225.666l.005.004.003.006 2.294 2.658c.042.054.43.525.998.525.66 0 1.194-.53 1.208-1.184l.002-.008v-.018c0-.166-.015-1.464-.024-2.243 0-.348.372-.4.46-.406h2.61c.78 0 1.412-.634 1.412-1.413V14c.003-.778-.63-1.41-1.41-1.41zM21.52 22.74h-6.947c-.506.03-.895.104-1.456.804l-.005.004-.003.006-2.7 3.125c-.036.048-.47.578-1.104.578-.745 0-1.352-.606-1.352-1.35-.003-.06.016-1.67.028-2.628 0-.46-.48-.53-.627-.54h-3.03c-.875 0-1.587-.712-1.587-1.588V6.792c0-.876.712-1.588 1.587-1.588H21.52c.874 0 1.587.713 1.587 1.59v14.36c0 .875-.71 1.588-1.587 1.588zm0-.75c.462 0 .838-.377.838-.84V6.793c0-.462-.377-.838-.84-.838H4.326c-.462 0-.837.376-.837.84v14.36c0 .462.375.838.837.838H7.38c.685.045 1.352.46 1.352 1.29v.003c-.013.995-.032 2.51-.03 2.61 0 .344.272.613.603.613.23 0 .46-.22.527-.305l2.708-3.137c.676-.835 1.25-1.026 2.01-1.072l6.97-.002z"/>
</svg>
