<svg xmlns="http://www.w3.org/2000/svg" viewBox="0 0 36 36">
  <path fill="#0568ae" d="M31.827 12.214H23.13V6.418c0-.877-.712-1.59-1.588-1.59H4.35c-.876 0-1.59.714-1.59 1.59v14.36c0 .876.713 1.59 1.59 1.59l3.03-.002c.146.01.626.078.626.535-.012.958-.032 2.574-.028 2.632 0 .745.607 1.35 1.352 1.35.635 0 1.07-.53 1.105-.576l2.707-3.136c.56-.7.95-.772 1.456-.803h1.123V25.9c0 .778.634 1.412 1.413 1.412h5.439c.288.017.43.04.77.46l2.274 2.635c.1.127.643.764 1.49.764 1.01 0 1.834-.822 1.834-1.79 0-.032-.02.016-.02-1.834 0-.164.09-.235.207-.235h2.702c.777 0 1.41-.633 1.41-1.412V13.626c0-.78-.635-1.412-1.413-1.412zm-19.59 5.553c0 .23-.125.436-.327.54-.076.044-.176.07-.28.07-.126 0-.247-.04-.35-.113-.46-.41-2.487-2.217-2.927-2.613h-1.42c-.407 0-.738-.33-.738-.737V12.54c0-.407.33-.738.738-.738h1.41c.378-.344 2.177-1.996 2.905-2.665.21-.162.44-.175.652-.074.21.11.337.317.337.546v8.157zm2.033-1.284c-.1.13-.247.196-.398.196-.106 0-.213-.035-.304-.104-.22-.168-.26-.482-.093-.702.344-.45.573-.964.68-1.53.187-1.007-.058-2.05-.674-2.86-.166-.22-.123-.533.097-.7.22-.168.534-.125.702.095.785 1.033 1.098 2.363.86 3.648-.137.722-.43 1.38-.87 1.955zm1.704 1.1c-.1.127-.247.195-.398.195-.106 0-.214-.034-.304-.104-.22-.168-.26-.483-.092-.702.52-.677.863-1.447 1.022-2.29.28-1.488-.08-3.035-.992-4.244-.166-.22-.122-.535.1-.7.22-.168.533-.123.7.098 1.08 1.434 1.51 3.268 1.177 5.032-.19.998-.597 1.91-1.213 2.714zm1.324 1.322c-.11 0-.223-.037-.316-.113-.214-.175-.247-.49-.072-.704.723-.887 1.217-1.957 1.43-3.094.38-2.028-.152-4.107-1.46-5.703-.176-.213-.145-.528.07-.704.212-.175.528-.144.704.07 1.497 1.825 2.106 4.203 1.67 6.522-.242 1.3-.81 2.526-1.637 3.542-.1.122-.243.185-.39.185zm14.004 6.08s-.012.237-.247.237h-.782l-.037-.004H28.75l-.066.002c-1.025.068-1.77.91-1.77 1.886 0 0 .02.78.02 1.433 0 .163-.145.163-.232.068l-1.825-2.115c-.732-.91-1.414-1.223-2.214-1.272h-2.2l-.036.003h-2.473s-.245.012-.245-.223v-2.633h3.835c.875 0 1.588-.713 1.588-1.59v-6.56h7.954c.21 0 .215.174.215.26v10.507z"/>
</svg>
