<svg xmlns="http://www.w3.org/2000/svg" viewBox="0 0 36 36">
  <path fill="#0568ae" d="M12.1 14.7c.2.3.4.8.4 1.3 0 .6-.1 1-.4 1.3-.3.3-.6.5-1.1.5-.4 0-.7-.1-1.1-.3v-2.9c.4-.3.8-.4 1.2-.4.4.1.8.2 1 .5zm13.2-.6c-.4 0-.6.1-.9.3-.2.2-.4.6-.5 1h2.5v-.1c0-.4-.1-.7-.3-.9-.2-.1-.4-.3-.8-.3zM30.9 6v18.9c0 .9-.7 1.6-1.6 1.6h-4c-.6 0-1.3.4-1.3 1.2v3.5c0 .7-.6 1.3-1.3 1.3-.6 0-1.1-.6-1.1-.6L18 27.8c-.8-1-1.5-1.2-2.3-1.2h-9c-.9 0-1.6-.7-1.6-1.6V6c0-.9.7-1.6 1.6-1.6h22.6c.9 0 1.6.7 1.6 1.6zM14.3 16.1c0-.6-.1-1.2-.3-1.7-.2-.5-.5-.9-.9-1.2-.4-.3-.9-.4-1.4-.4-.6 0-1.2.2-1.7.6v-3.1H8.1v9h1.2l.2-.5c.5.4 1.2.7 1.9.7.5 0 1-.1 1.4-.4.4-.3.8-.7 1-1.2.4-.6.5-1.2.5-1.8zm7.3-3.2h-2l-1.4 4.3-1.4-4.3h-2l2.6 6.2-.1.2c-.2.4-.3.7-.5.9-.2.2-.4.3-.7.3-.3 0-.6-.1-.9-.2l-.3 1.4c.5.2 1 .3 1.5.3.4 0 .8-.1 1.1-.3.3-.2.6-.4.8-.8.2-.4.5-.9.8-1.5l2.5-6.5zm6.5 2.9c0-.6-.1-1.1-.3-1.6-.2-.5-.6-.8-1-1.1-.4-.3-.9-.4-1.5-.4s-1.1.1-1.5.4c-.5.3-.8.7-1.1 1.2-.3.5-.4 1.1-.4 1.7 0 .6.1 1.2.4 1.7.3.5.6.9 1.1 1.2.5.3 1.1.4 1.7.4.5 0 .9-.1 1.3-.2s.8-.3 1.2-.5l-.5-1.2c-.6.3-1.1.4-1.8.4-1 0-1.6-.4-1.7-1.3h4.1v-.7z"/>
</svg>
