<svg xmlns="http://www.w3.org/2000/svg" viewBox="0 0 36 36">
  <path fill="#0568ae" d="M29.3 4H6.7c-1.1 0-2 .9-2 2v18.9c0 1.1.9 2 2 2h9.1c.7 0 1.3.1 2 1.1l3.5 4.1s.6.7 1.4.7c.9 0 1.7-.7 1.7-1.6v-3.5c0-.7.8-.8.9-.8h4c1.1 0 2-.9 2-2V6c0-1.1-.9-2-2-2zm1.3 20.9c0 .7-.5 1.2-1.2 1.2h-4c-.8.1-1.6.6-1.6 1.6v3.5c0 .5-.4.9-.9.9-.4 0-.7-.3-.8-.5l-3.5-4.1c-.9-1.1-1.6-1.3-2.6-1.4H6.7c-.7 0-1.2-.5-1.2-1.2V6c0-.7.5-1.2 1.2-1.2h22.6c.7 0 1.2.5 1.2 1.2v18.9zM8.5 19.3v-8.8h.9v3.3c.3-.3.6-.5.9-.6.3-.1.7-.2 1-.2.5 0 1 .1 1.4.4.4.3.7.7.9 1.1.2.5.3 1 .3 1.6 0 .6-.1 1.2-.4 1.7-.2.5-.6.8-1 1.1-.4.3-.9.4-1.4.4-.3 0-.7-.1-1-.2-.3-.1-.6-.3-.9-.5l-.1.5h-.6zm2.7-5.5c-.3 0-.6.1-.9.2-.3.1-.6.3-.9.6V18c.2.2.5.4.8.5.3.1.6.2.9.2.6 0 1.1-.2 1.4-.7.4-.4.5-1 .5-1.7s-.2-1.3-.5-1.7c-.3-.5-.7-.8-1.3-.8zm4.7 8.2c-.4 0-.8-.1-1.1-.3l.2-.7c.3.1.6.2.8.2.2 0 .4 0 .5-.1.1-.1.3-.3.4-.5.1-.2.3-.6.5-1.2v-.1L15 13.2h1l1.9 5.1 1.8-5.1h1l-2.5 6.2c-.3.7-.5 1.2-.7 1.5-.2.4-.4.6-.7.8-.2.2-.5.3-.9.3zm6.7-5.4c.1.6.3 1.1.7 1.5.4.4.9.6 1.5.6.4 0 .7 0 1-.1.3-.1.6-.2.9-.4l.3.7c-.3.2-.7.4-1 .4-.4.1-.7.1-1.2.1-.6 0-1.1-.1-1.6-.4-.5-.3-.8-.7-1-1.1-.2-.5-.4-1-.4-1.6 0-.6.1-1.2.4-1.7.3-.5.6-.9 1-1.1.4-.3.9-.4 1.4-.4.5 0 1 .1 1.4.4.4.2.7.6.9 1 .2.4.3.9.3 1.5v.7h-4.6zm1.9-2.8c-.5 0-.9.2-1.3.5-.3.4-.6.8-.6 1.4h3.6v-.1c0-.4-.1-.7-.2-1-.1-.3-.3-.5-.6-.7-.2 0-.5-.1-.9-.1z"/>
</svg>
