<svg xmlns="http://www.w3.org/2000/svg" viewBox="0 0 36 36">
  <path fill="#0568ae" d="M24.4 31.2v-3.5c0-.7.8-.8.9-.8h4c1.1 0 2-.9 2-2V6c0-1.1-.9-2-2-2H6.7c-1.1 0-2 .9-2 2v15.9c0 .2.2.4.4.4s.4-.2.4-.4V6c0-.7.5-1.2 1.2-1.2h22.6c.7 0 1.2.5 1.2 1.2v18.9c0 .7-.5 1.2-1.2 1.2h-4c-.8.1-1.6.6-1.6 1.6v3.5c0 .5-.4.9-.9.9-.4 0-.7-.3-.8-.5l-3.5-4.1c-.9-1.1-1.6-1.3-2.6-1.4H6.7c-.2 0-.4.2-.4.4s.2.4.4.4h9.1c.7 0 1.3.1 2 1.1l3.5 4.1s.6.7 1.4.7c1 .1 1.7-.7 1.7-1.6zM13.1 19.6c-.8 0-1.4-.2-2-.5-.6-.4-1-.8-1.3-1.5-.3-.6-.5-1.3-.5-2.1s.2-1.5.5-2.1c.3-.6.8-1.1 1.4-1.4.6-.3 1.2-.5 2-.5.4 0 .8.1 1.2.2.4.1.7.3 1 .5l-.3.7c-.3-.2-.7-.3-1-.4-.3-.1-.6-.1-1-.1-.6 0-1.1.1-1.6.4-.4.3-.8.7-1 1.1-.2.5-.4 1-.4 1.7s.1 1.2.4 1.7c.3.5.6.9 1 1.1.4.3.9.4 1.5.4.4 0 .7 0 1-.1.3-.1.6-.2 1-.4l.3.7c-.3.2-.7.4-1.1.5-.3 0-.7.1-1.1.1zm4.1-8.1h.9v7.9h-.9v-7.9zm9.5 4c0 .8-.2 1.5-.5 2.1-.3.6-.8 1.1-1.4 1.4-.6.3-1.3.5-2.1.5h-2.5v-7.9h2.5c.8 0 1.5.2 2.1.5.6.3 1 .8 1.3 1.4.4.5.6 1.2.6 2zm-.9 0c0-1-.3-1.8-.8-2.3-.5-.6-1.3-.8-2.2-.8h-1.6v6.3h1.6c.9 0 1.7-.3 2.2-.8.5-.6.8-1.4.8-2.4z"/>
</svg>
