<svg xmlns="http://www.w3.org/2000/svg" viewBox="0 0 36 36">
  <path fill="#0568ae" d="M29.3 4.4H6.7c-.9 0-1.6.7-1.6 1.6v18.9c0 .9.7 1.6 1.6 1.6h9.2c.8.1 1.5.2 2.3 1.2l3.6 4.1s.5.6 1.1.6c.7 0 1.3-.6 1.3-1.3v-3.5c0-.8.6-1.2 1.3-1.2h4c.9 0 1.6-.7 1.6-1.6V6c-.2-.9-.9-1.6-1.8-1.6zM12.5 19.9c-.8 0-1.6-.2-2.2-.6-.6-.4-1.1-.9-1.5-1.5-.3-.7-.5-1.4-.5-2.2 0-.9.2-1.6.6-2.3.4-.7.9-1.2 1.5-1.5.6-.4 1.3-.5 2.1-.5.5 0 1 .1 1.4.2.5.1.9.3 1.2.5l-.5 1.5c-.3-.2-.6-.3-.9-.4-.3-.1-.6-.1-1-.1-.7 0-1.3.2-1.8.7-.5.5-.7 1.1-.7 1.9 0 .8.2 1.4.7 1.9.5.5 1.1.7 1.8.7s1.4-.2 2-.5l.5 1.5c-.7.4-1.6.7-2.7.7zm6-.2h-1.9v-8.4h1.9v8.4zm8.6-1.9c-.4.6-.8 1.1-1.5 1.5-.6.3-1.4.5-2.2.5h-3v-8.4h3c.9 0 1.7.2 2.3.5.6.3 1.1.8 1.5 1.5.3.6.5 1.4.5 2.2 0 .8-.2 1.5-.6 2.2zm-2-4.2c.4.4.6 1.1.6 1.9 0 .8-.2 1.4-.6 1.9-.4.4-1 .7-1.7.7h-1.1V13h1.1c.7 0 1.3.2 1.7.6z"/>
</svg>
