<svg xmlns="http://www.w3.org/2000/svg" viewBox="0 0 36 36">
  <path fill="#0568ae" d="M22.82 32.86c-.795 0-1.355-.703-1.378-.732L17.9 28.024l-.01-.01c-.767-.957-1.327-1.06-2.034-1.103H6.728c-1.088 0-1.973-.885-1.973-1.974L4.757 6.02c0-1.088.885-1.974 1.973-1.974h22.65c1.086 0 1.97.886 1.97 1.975v18.917c0 1.09-.884 1.975-1.97 1.975h-4.024c-.132.01-.912.098-.912.828.013 1.01.042 3.377.036 3.48 0 .895-.745 1.64-1.66 1.64zm-4.35-5.32l3.55 4.11c.11.138.446.46.8.46.5 0 .91-.41.91-.91.004-.137-.02-2.14-.036-3.456 0-1.02.822-1.528 1.637-1.582h4.05c.673 0 1.22-.55 1.22-1.226V6.02c0-.674-.547-1.224-1.22-1.224H6.73c-.674 0-1.223.55-1.223 1.225v18.917c0 .675.548 1.225 1.222 1.225h9.15c.995.06 1.728.303 2.59 1.377zm-1.93-5.52c.225-.013.43-.143.563-.354L25.145 8.71c.11-.177.055-.408-.12-.517-.177-.11-.408-.055-.518.12L16.49 21.227l-4.913-6.177c-.13-.163-.365-.19-.527-.06-.162.128-.19.364-.06.526l4.947 6.218c.147.184.35.288.563.288l.04-.002z"/>
</svg>
