<svg xmlns="http://www.w3.org/2000/svg" viewBox="0 0 36 36">
  <path fill="#0568ae" d="M29.403 4.422H6.753c-.883 0-1.598.715-1.598 1.6v18.915c0 .885.715 1.6 1.597 1.6h9.15c.843.05 1.483.22 2.303 1.243l3.554 4.117s.46.59 1.08.59c.71 0 1.288-.578 1.288-1.287.005-.1-.037-3.46-.037-3.46 0-.788.65-1.16 1.288-1.203H29.4c.885 0 1.598-.715 1.598-1.6V6.02c0-.883-.714-1.598-1.595-1.598zm-4.522 5.22L17.7 21.21c-.225.364-.603.58-1.01.58-.362 0-.705-.17-.94-.467l-4.418-5.55c-.29-.365-.25-.89.087-1.207.337-.32.863-.324 1.208-.013l3.922 3.537 6.85-9.444c.282-.39.822-.485 1.22-.217.4.267.515.803.26 1.21z"/>
</svg>
