<svg xmlns="http://www.w3.org/2000/svg" viewBox="0 0 36 36">
  <path fill-rule="evenodd" clip-rule="evenodd" fill="#0568ae" d="M31.8 12.6H26c-.2 0-.4.2-.4.4s.2.4.4.4h5.8c.4 0 .7.3.7.7v12.3c0 .4-.3.7-.7.7h-2.6c-.7 0-1.2.5-1.2 1.2v2.2c0 .3-.2.5-.5.5-.2 0-.4-.2-.4-.3L24.8 28c-.6-.7-1.1-.9-1.8-.9h-5.9c-.4 0-.7-.3-.7-.7v-1c0-.2-.2-.4-.4-.4s-.4.2-.4.4v1c0 .8.6 1.4 1.4 1.4h5.9c.4 0 .8.1 1.2.7l2.3 2.7c0 .1.4.5 1 .5.7 0 1.2-.5 1.2-1.2v-2.2c0-.3.4-.4.5-.4h2.6c.8 0 1.4-.6 1.4-1.4V14c.1-.8-.5-1.4-1.3-1.4zM21.5 22.7h-6.9c-.5 0-.9.1-1.5.8l-2.7 3.1s-.5.6-1.1.6c-.7 0-1.4-.6-1.4-1.4v-2.6c0-.5-.5-.5-.6-.5h-3c-.9 0-1.6-.7-1.6-1.6V6.8c0-.9.7-1.6 1.6-1.6h17.2c.9 0 1.6.7 1.6 1.6v14.4c0 .8-.7 1.5-1.6 1.5zm0-.7c.5 0 .8-.4.8-.8V6.8c.1-.5-.3-.8-.8-.8H4.3c-.4 0-.8.3-.8.8v14.4c0 .5.4.8.8.8h3.1c.7 0 1.4.5 1.4 1.3v2.6c0 .3.3.6.6.6.2 0 .5-.2.5-.3l2.7-3.1c.7-.8 1.2-1 2-1.1h6.9zm-1.7-11.4H6.1c-.2 0-.4-.2-.4-.4s.2-.4.4-.4h13.6c.2 0 .4.2.4.4s-.1.4-.3.4zm0 3.7H6.1c-.2 0-.4-.2-.4-.4s.2-.4.4-.4h13.6c.2 0 .4.2.4.4s-.1.4-.3.4zm0 3.7H6.1c-.2 0-.4-.2-.4-.4s.2-.4.4-.4h13.6c.2 0 .4.2.4.4s-.1.4-.3.4z"/>
</svg>
