<svg xmlns="http://www.w3.org/2000/svg" viewBox="0 0 36 36">
  <path fill="#0568ae" d="M31.8 12.2h-8.7V6.4c0-.9-.7-1.6-1.6-1.6H4.3c-.9 0-1.6.7-1.6 1.6v14.4c0 .9.7 1.6 1.6 1.6h3c.1 0 .6.1.6.5v2.6c0 .7.6 1.4 1.4 1.4.6 0 1.1-.5 1.1-.6l2.7-3.1c.6-.7.9-.8 1.5-.8h1.1v3.5c0 .8.6 1.4 1.4 1.4h5.4c.3 0 .4 0 .8.5l2.3 2.6c.1.1.6.8 1.5.8 1 0 1.8-.8 1.8-1.8v-1.8c0-.2.1-.2.2-.2h2.7c.8 0 1.4-.6 1.4-1.4V13.6c0-.8-.6-1.4-1.4-1.4zM6.1 9.1h13.6c.4 0 .8.3.8.8s-.3.8-.8.8H6.1c-.4 0-.8-.3-.8-.8s.4-.8.8-.8zm0 3.7h13.6c.4 0 .8.3.8.8s-.3.8-.8.8H6.1c-.4 0-.8-.3-.8-.8s.4-.8.8-.8zm0 5.2c-.4 0-.8-.3-.8-.8s.3-.8.8-.8h13.6c.4 0 .8.3.8.8s-.4.8-.8.8H6.1zm25.2 7s0 .2-.2.2h-2.4c-1 .1-1.8.9-1.8 1.9v1.4c0 .2-.1.2-.2.1l-1.8-2.1c-.7-.9-1.4-1.2-2.2-1.3H18s-.2 0-.2-.2v-2.6h3.8c.9 0 1.6-.7 1.6-1.6v-6.6h8c.2 0 .2.2.2.3V25z"/>
</svg>
