<svg xmlns="http://www.w3.org/2000/svg" viewBox="0 0 36 36">
  <path fill="#0568ae" d="M29.3 4.4H6.7c-.9 0-1.6.8-1.6 1.6v18.9c0 .9.7 1.6 1.6 1.6h9.2c.8.1 1.5.2 2.3 1.2l3.6 4.1s.5.6 1.1.6c.7 0 1.3-.6 1.3-1.3v-3.5c0-.8.6-1.2 1.3-1.2h4c.9 0 1.6-.7 1.6-1.6V6c-.2-.8-.9-1.6-1.8-1.6zm-9.9 17.3h-2.5v-5.4c0-.5-.1-.9-.3-1.2-.2-.2-.6-.4-1.1-.4-.6 0-1.1.2-1.7.7v6.3h-2.5V9h2.5v4.7c.4-.4.9-.7 1.3-.8.4-.2.9-.3 1.4-.3.9 0 1.6.3 2.2.9.5.6.8 1.5.8 2.6v5.6zm5.2 0H22v-8.9h2.5v8.9zm-.3-10.4c-.3.2-.6.4-1 .4s-.8-.1-1-.4c-.3-.2-.4-.6-.4-1s.1-.7.4-1c.3-.2.6-.4 1-.4s.8.1 1 .4c.3.2.4.6.4 1s-.1.7-.4 1z"/>
</svg>
