<svg xmlns="http://www.w3.org/2000/svg" viewBox="0 0 36 36">
  <path fill="#0568ae" d="M29.3 4H6.7c-1.1 0-2 .9-2 2v18.9c0 1.1.9 2 2 2h9.1c.7 0 1.3.1 2 1.1l3.5 4.1s.6.7 1.4.7c.9 0 1.7-.7 1.7-1.6v-3.5c0-.7.8-.8.9-.8h4c1.1 0 2-.9 2-2V6c0-1.1-.9-2-2-2zm1.2 20.9c0 .7-.5 1.2-1.2 1.2h-4c-.8.1-1.6.6-1.6 1.6v3.5c0 .5-.4.9-.9.9-.4 0-.7-.3-.8-.5l-3.5-4.1c-.9-1.1-1.6-1.3-2.6-1.4H6.7c-.7 0-1.2-.5-1.2-1.2V6c0-.7.5-1.2 1.2-1.2h22.6c.7 0 1.2.5 1.2 1.2v18.9zm-18.1-3.1V9.1h.8v5c.5-.4 1.1-.8 1.6-1 .5-.2 1-.3 1.6-.3 1 0 1.7.3 2.2.9.5.6.8 1.4.8 2.6v5.4h-.8v-5.4c0-1.8-.8-2.7-2.3-2.7-1 0-2 .4-3 1.2v6.9h-.9zm9.9-11.5c0-.2.1-.3.2-.4.1-.1.3-.2.5-.2s.3.1.5.2c.1.1.2.3.2.4 0 .2-.1.3-.2.4-.1.1-.3.2-.5.2s-.3-.1-.5-.2c-.1-.1-.2-.2-.2-.4zm.2 2.8h.8v8.7h-.8v-8.7z"/>
</svg>
