<svg xmlns="http://www.w3.org/2000/svg" viewBox="0 0 36 36">
  <path fill="#0568ae" d="M29.326 4.422H6.676c-.883 0-1.598.715-1.598 1.6v18.915c0 .885.715 1.6 1.597 1.6h9.15c.844.05 1.484.22 2.304 1.243l3.553 4.117s.462.59 1.082.59c.71 0 1.287-.578 1.287-1.287.005-.1-.037-3.46-.037-3.46 0-.788.65-1.16 1.287-1.203h4.023c.884 0 1.597-.715 1.597-1.6V6.02c0-.883-.714-1.598-1.596-1.598zM26.6 20.897H9.4c-.414 0-.75-.336-.75-.75s.336-.75.75-.75h17.2c.414 0 .75.336.75.75s-.336.75-.75.75zm0-4.693H9.4c-.414 0-.75-.336-.75-.75s.336-.75.75-.75h17.2c.414 0 .75.336.75.75s-.336.75-.75.75zm0-4.695H9.4c-.414 0-.75-.337-.75-.75s.336-.75.75-.75h17.2c.414 0 .75.335.75.75s-.336.75-.75.75z"/>
</svg>
