<svg xmlns="http://www.w3.org/2000/svg" viewBox="0 0 36 36">
  <path fill="#0568ae" d="M29.618 32.138h-.05c-.1-.003-.38-.03-.724-.232-.545-.32-1.793-1.1-2.796-1.726-.622-.388-1.265-.79-1.34-.83-.154-.077-.293-.146-.387-.146l-.166.055c-2.553 1.45-3.835 1.6-6.154 1.6-7.444 0-13.5-6.055-13.5-13.5S10.556 3.86 18 3.86s13.5 6.057 13.5 13.5c0 3.086-.83 5.554-2.687 8-.185.244-.14.344-.074.495.304.68 1.73 3.96 2.007 4.742.075.213.087.448.034.66-.13.528-.598.88-1.162.88m-5.297-3.682c.27 0 .49.11.727.226.064.033.34.203 1.398.864 1 .623 2.244 1.4 2.78 1.716.21.123.356.128.363.128l.03.375v-.375c.264 0 .398-.16.436-.31.017-.072.013-.156-.013-.23-.268-.76-1.718-4.088-1.985-4.686-.095-.213-.293-.656.162-1.255 1.752-2.307 2.534-4.634 2.534-7.545 0-7.03-5.72-12.75-12.75-12.75s-12.75 5.72-12.75 12.75 5.72 12.75 12.75 12.75c2.23 0 3.377-.136 5.784-1.504.18-.103.356-.153.537-.153m.332-10.633c.207 0 .375-.168.375-.375s-.168-.375-.375-.375H11.49c-.208 0-.376.168-.376.375s.168.375.375.375H24.65m0-4.195c.207 0 .375-.168.375-.375s-.168-.375-.375-.375H11.49c-.208 0-.376.168-.376.375s.168.375.375.375H24.65m0 8.388c.207 0 .375-.168.375-.375s-.168-.375-.375-.375H11.49c-.208 0-.376.168-.376.375s.168.375.375.375H24.65"/>
</svg>
