<svg xmlns="http://www.w3.org/2000/svg" viewBox="0 0 36 36">
  <path fill="#0568ae" d="M29.538 27.96l-.513-1.666c-.125-.4-.056-.857.185-1.174l-.01.008c1.315-2.06 2.08-4.504 2.08-7.13 0-7.333-5.947-13.28-13.28-13.28C10.664 4.72 4.72 10.666 4.72 18S10.665 31.28 18 31.28c1.987 0 3.87-.44 5.563-1.222l.003.005.004-.003-.002-.004.014-.006-.012.01c.288-.164.598-.155.954.023.132.066 2.948 1.682 4.08 2.36.357.213.64.24.746.244h.05c.563 0 1.028-.352 1.158-.878.064-.263.018-.5-.032-.654-.183-.567-.623-2.003-.988-3.195zM24.6 23.445H11.4c-.414 0-.75-.336-.75-.75s.336-.75.75-.75h13.2c.414 0 .75.336.75.75s-.336.75-.75.75zm0-4.693H11.4c-.414 0-.75-.335-.75-.75s.336-.75.75-.75h13.2c.414 0 .75.337.75.75s-.336.75-.75.75zm0-4.694H11.4c-.414 0-.75-.336-.75-.75s.336-.75.75-.75h13.2c.414 0 .75.336.75.75s-.336.75-.75.75zm4.8 18.382v-.002.002z"/>
</svg>
