<svg xmlns="http://www.w3.org/2000/svg" viewBox="0 0 36 36">
  <path fill="#0568ae" d="M27.475 15c0 .208-.168.376-.375.376H8.9c-.207 0-.375-.168-.375-.375s.168-.374.375-.374h18.2c.207 0 .375.168.375.375zm-.375-4.57H8.9c-.207 0-.375.168-.375.375s.168.375.375.375h18.2c.207 0 .375-.168.375-.375s-.168-.375-.375-.375zm0 8.39H8.9c-.207 0-.375.167-.375.374s.168.375.375.375h18.2c.207 0 .375-.17.375-.376 0-.208-.168-.375-.375-.375zm4.197-13.252v18.916c0 1.088-.885 1.975-1.972 1.975H25.3c-.13.008-.91.097-.91.827.012 1.01.04 3.376.035 3.478 0 .897-.745 1.643-1.662 1.643-.793 0-1.353-.702-1.376-.733l-3.543-4.104c-.775-.966-1.335-1.07-2.042-1.112H6.674c-1.088 0-1.973-.885-1.973-1.974l.004-18.916c0-1.09.885-1.974 1.973-1.974h22.65c1.086 0 1.97.885 1.97 1.974zm-.75 18.916V5.568c0-.675-.547-1.224-1.222-1.224H6.675c-.673 0-1.222.55-1.222 1.224v18.916c0 .675.55 1.225 1.223 1.225h9.15c.997.058 1.73.303 2.596 1.382l3.545 4.107c.11.135.445.458.798.458.503 0 .913-.41.913-.91.003-.133-.02-2.138-.037-3.456 0-1.02.823-1.53 1.64-1.583h4.047c.673-.002 1.22-.552 1.22-1.226z"/>
</svg>
