<svg xmlns="http://www.w3.org/2000/svg" viewBox="0 0 36 36">
  <path fill="#0568ae" d="M22.8 32.9c-.8 0-1.4-.7-1.4-.7L17.8 28c-.8-1-1.3-1.1-2-1.1H6.7c-1.1 0-2-.9-2-2V6c0-1.1.9-2 2-2h22.6c1.1 0 2 .9 2 2v18.9c0 1.1-.9 2-2 2h-4c-.1 0-.9.1-.9.8v3.5c0 .9-.7 1.7-1.6 1.7zm-4.4-5.4l3.5 4.1c.1.1.4.5.8.5.5 0 .9-.4.9-.9v-3.5c0-1 .8-1.5 1.6-1.6h4c.7 0 1.2-.5 1.2-1.2V6c0-.7-.5-1.2-1.2-1.2H6.7c-.7 0-1.2.5-1.2 1.2v18.9c0 .7.5 1.2 1.2 1.2h9.2c.9.1 1.7.4 2.5 1.4zm.4-5.6c0 .2-.1.4-.2.6-.2.2-.4.2-.6.2-.2 0-.4-.1-.6-.2-.2-.2-.2-.3-.2-.6 0-.2.1-.4.2-.6.2-.2.4-.2.6-.2.2 0 .4.1.6.2.2.2.2.4.2.6zm-.4-3.3h-.9l-.1-10.3h1.1l-.1 10.3z"/>
</svg>
