<svg xmlns="http://www.w3.org/2000/svg" viewBox="0 0 36 36">
  <path fill="#0568ae" d="M29.326 4.422H6.676c-.883 0-1.598.715-1.598 1.6v18.915c0 .885.715 1.6 1.597 1.6h9.15c.844.05 1.484.22 2.304 1.243l3.553 4.117s.462.59 1.082.59c.71 0 1.287-.578 1.287-1.287.005-.1-.037-3.46-.037-3.46 0-.788.65-1.16 1.287-1.203h4.023c.884 0 1.597-.715 1.597-1.6V6.02c0-.883-.714-1.598-1.596-1.598zM17.386 20.59c0 .29-.162.555-.42.688-.097.055-.224.087-.357.087-.162 0-.316-.05-.448-.142-.587-.52-3.17-2.826-3.73-3.33h-1.81c-.518 0-.94-.422-.94-.94v-3.027c0-.518.422-.94.94-.94h1.8c.48-.44 2.773-2.544 3.7-3.397.268-.207.563-.224.832-.096.27.14.43.404.43.696v10.4zm2.083-1.388c-.136 0-.273-.043-.388-.132-.28-.214-.333-.615-.12-.895.44-.573.732-1.23.867-1.95.24-1.284-.074-2.612-.858-3.645-.214-.28-.16-.68.122-.894.28-.213.68-.16.894.122 1.002 1.32 1.4 3.014 1.096 4.65-.173.92-.546 1.758-1.107 2.492-.127.166-.316.252-.508.252zm2.68 1.15c-.127.164-.316.25-.508.25-.136 0-.272-.043-.388-.132-.28-.215-.332-.615-.118-.895.662-.862 1.1-1.845 1.303-2.92.356-1.897-.105-3.868-1.266-5.41-.212-.282-.156-.682.126-.894.282-.21.68-.155.894.127 1.377 1.828 1.924 4.166 1.5 6.414-.24 1.275-.76 2.44-1.545 3.462zm4.27-3.064c-.31 1.66-1.032 3.22-2.088 4.516-.126.155-.31.235-.495.235-.142 0-.284-.048-.403-.145-.273-.223-.314-.625-.092-.898.92-1.13 1.552-2.494 1.823-3.944.485-2.586-.194-5.236-1.863-7.27-.224-.273-.184-.675.09-.898.27-.223.673-.184.897.09 1.908 2.325 2.685 5.356 2.13 8.313z"/>
</svg>
