<svg xmlns="http://www.w3.org/2000/svg" viewBox="0 0 36 36">
  <path fill="#0568ae" d="M22.765 32.86c-.793 0-1.354-.703-1.377-.732l-3.543-4.104-.008-.01c-.767-.957-1.326-1.06-2.033-1.103H6.676c-1.088 0-1.973-.885-1.973-1.974V6.02c0-1.088.886-1.974 1.974-1.974h22.65c1.087 0 1.972.886 1.972 1.975v18.917c0 1.09-.885 1.975-1.973 1.975h-4.024c-.132.01-.912.098-.912.828.014 1.008.043 3.376.038 3.478 0 .897-.746 1.642-1.663 1.642zm-4.348-5.32l3.55 4.11c.11.138.445.46.798.46.503 0 .912-.41.912-.91.003-.133-.02-2.138-.037-3.456 0-1.02.822-1.528 1.638-1.582h4.048c.674 0 1.222-.55 1.222-1.226V6.02c0-.674-.548-1.224-1.222-1.224H6.676c-.674 0-1.223.55-1.223 1.225v18.917c0 .675.55 1.225 1.223 1.225h9.15c.995.06 1.728.303 2.59 1.377zm6.057-18.275c-.132-.16-.368-.183-.528-.052-.16.13-.184.368-.052.528 1.68 2.05 2.365 4.72 1.877 7.325-.272 1.46-.907 2.835-1.836 3.974-.13.16-.107.395.054.526.07.057.153.084.237.084.108 0 .216-.047.29-.138 1.01-1.236 1.698-2.726 1.994-4.31.527-2.823-.214-5.716-2.036-7.937zm-2.06 1.464c-.124-.166-.36-.2-.525-.075-.167.125-.2.36-.075.525 1.18 1.566 1.648 3.568 1.285 5.495-.206 1.09-.65 2.09-1.323 2.965-.126.164-.095.4.07.526.067.052.147.078.227.078.113 0 .224-.05.298-.146.745-.97 1.238-2.075 1.466-3.284.402-2.133-.117-4.35-1.424-6.085zm-2.16 1.304c-.124-.164-.36-.198-.525-.072-.166.125-.198.36-.073.525.81 1.067 1.134 2.44.887 3.766-.14.745-.44 1.423-.896 2.016-.126.163-.095.4.07.525.068.052.15.077.228.077.113 0 .225-.05.298-.147.526-.687.875-1.472 1.037-2.334.288-1.532-.086-3.12-1.025-4.356zm-3.368 9.976c-.18 0-.35-.055-.495-.158-.65-.577-3.512-3.13-4.133-3.69h-2.004c-.575 0-1.042-.468-1.042-1.042v-3.353c0-.574.468-1.042 1.043-1.042h1.994c.533-.486 3.073-2.82 4.1-3.764.297-.227.623-.246.92-.104l.013.006c.287.15.465.442.465.766V21.15c0 .324-.178.617-.464.764-.106.06-.247.096-.394.096zm-6.633-8.534c-.16 0-.292.13-.292.292v3.353c0 .162.132.293.293.293H12.4c.1 0 .193.038.263.107.11.103 3.065 2.74 4.194 3.748l.028-.007.052-.012.058-.097V9.63l-.055-.097-.112.007c-.944.87-4.12 3.788-4.198 3.852-.067.055-.152.086-.24.086h-2.137z"/>
</svg>
