<svg xmlns="http://www.w3.org/2000/svg" viewBox="0 0 36 36">
  <path fill="#0568ae" d="M15.7 14.4c.2.2.3.5.3.8v.1h-2.3c.1-.4.2-.7.4-.9.2-.2.5-.3.8-.3.3 0 .6.1.8.3zM30.9 6v18.9c0 .9-.7 1.6-1.6 1.6h-4c-.6 0-1.3.4-1.3 1.2v3.5c0 .7-.6 1.3-1.3 1.3-.6 0-1.1-.6-1.1-.6L18 27.8c-.8-1-1.5-1.2-2.3-1.2h-9c-.9 0-1.6-.7-1.6-1.6V6c0-.9.7-1.6 1.6-1.6h22.6c.9 0 1.6.7 1.6 1.6zM11.5 18.4l-.3-1.2c-.3.1-.6.2-.9.2-.3 0-.5-.1-.6-.3-.1-.2-.2-.5-.2-.8v-2.2h1.8v-1.3H9.5v-1.5H8.1l-.3 1.5h-1v1.3h.9v2.3c0 .8.2 1.4.5 1.8.3.4.9.6 1.6.6.3 0 .6 0 .9-.1.3 0 .6-.1.8-.3zm6-2.8c0-.5-.1-1-.3-1.4-.2-.4-.5-.8-.9-1-.4-.2-.9-.4-1.4-.4-.5 0-1 .1-1.4.4-.4.3-.8.6-1 1.1-.3.5-.4 1-.4 1.6 0 .6.1 1.1.4 1.6.2.5.6.8 1 1.1.5.3 1 .4 1.6.4.4 0 .8 0 1.2-.1.4-.1.7-.3 1.1-.5l-.4-1.2c-.5.3-1.1.4-1.6.4-.9 0-1.5-.4-1.6-1.2h3.8c-.1-.4-.1-.6-.1-.8zm6.5 3.2l-2.1-3 2-2.8h-1.8L21 14.6l-1-1.7h-1.9l2 2.8-2.1 3h1.8l1.2-1.9 1.2 1.9H24zm4.9-.4l-.3-1.2c-.3.1-.6.2-.9.2-.3 0-.5-.1-.6-.3-.1-.2-.2-.5-.2-.8v-2.2h1.8v-1.3h-1.8v-1.5h-1.3l-.3 1.5h-1v1.3h.9v2.3c0 .8.2 1.4.5 1.8.3.4.9.6 1.6.6.3 0 .6 0 .9-.1.3 0 .5-.1.7-.3z"/>
</svg>
