<svg xmlns="http://www.w3.org/2000/svg" viewBox="0 0 36 36">
  <path fill="#0568ae" d="M31.3 6v18.9c0 1.1-.9 2-2 2h-4c-.1 0-.9.1-.9.8v3.5c0 .9-.7 1.6-1.7 1.6-.8 0-1.4-.7-1.4-.7L17.8 28c-.8-1-1.3-1.1-2-1.1H6.7c-1.1 0-2-.9-2-2V6c0-1.1.9-2 2-2h22.6c1.1 0 2 .9 2 2zm-.8 0c0-.7-.5-1.2-1.2-1.2H6.7c-.7 0-1.2.5-1.2 1.2v18.9c0 .7.5 1.2 1.2 1.2h9.2c1 .1 1.7.3 2.6 1.4l3.5 4.1c.1.1.4.5.8.5.5 0 .9-.4.9-.9v-3.5c0-1 .8-1.5 1.6-1.6h4c.7 0 1.2-.5 1.2-1.2V6zM10.6 19c-.6 0-1.1-.2-1.4-.5-.3-.3-.4-.9-.4-1.6v-3.1h-1v-.7h1.1l.1-1.7h.7v1.7h2.1v.7H9.6v3c0 1 .4 1.5 1.1 1.5.4 0 .7-.1 1-.3l.2.7-.6.3h-.7zm2.9-2.7c.1.6.3 1.1.6 1.4.4.4.8.5 1.4.5.4 0 .7 0 .9-.1.3-.1.5-.2.8-.4l.3.7c-.3.2-.7.3-1 .4-.2.2-.6.2-1 .2-.6 0-1.1-.1-1.5-.4-.4-.3-.8-.6-1-1.1-.2-.5-.3-1-.3-1.6 0-.6.1-1.1.4-1.6.2-.5.6-.8 1-1.1.4-.3.9-.4 1.3-.4.5 0 .9.1 1.3.4.4.2.7.6.9 1 .2.4.3.9.3 1.4v.6h-4.4zm1.8-2.6c-.5 0-.9.2-1.2.5-.3.3-.5.8-.6 1.4h3.4v-.1c0-.3-.1-.7-.2-.9-.1-.3-.3-.5-.6-.6-.2-.2-.5-.3-.8-.3zm5.3 2.2l-2.1-2.8h1l1.6 2.2 1.6-2.2h1l-2.1 2.8 2.2 3h-1L21 16.5l-1.7 2.4h-1l2.3-3zM27 19c-.6 0-1.1-.2-1.4-.5-.3-.3-.4-.9-.4-1.6v-3.1h-1v-.7h1.1l.1-1.7h.6v1.7h2.1v.7H26v3c0 1 .4 1.5 1.1 1.5.4 0 .7-.1 1-.3l.2.7-.6.3H27z"/>
</svg>
