<svg xmlns="http://www.w3.org/2000/svg" viewBox="0 0 36 36">
  <path fill="#0568ae" d="M31.827 12.214H23.13V6.418c0-.877-.71-1.59-1.587-1.59H4.35c-.876 0-1.588.714-1.588 1.59v14.36c0 .876.712 1.59 1.587 1.59l3.03-.002c.146.01.626.078.626.535-.012.958-.032 2.574-.028 2.632 0 .745.607 1.35 1.353 1.35.636 0 1.07-.53 1.106-.576l2.707-3.136c.56-.7.95-.772 1.456-.803h1.122V25.9c0 .778.633 1.412 1.412 1.412H22.574c.288.017.43.04.77.46l2.274 2.635c.1.127.643.764 1.49.764 1.01 0 1.834-.822 1.833-1.79 0-.032-.02.016-.02-1.834 0-.164.09-.235.207-.235h2.702c.777 0 1.41-.633 1.41-1.412V13.626c-.002-.78-.635-1.412-1.413-1.412zm-16.29 2.67v1.562c0 .61-.5 1.11-1.11 1.11H8.16c-.61 0-1.11-.5-1.11-1.11V13.86h-.474c-.267 0-.485-.218-.485-.485v-1.903c0-.267.22-.485.486-.485h.474v-.33c0-.612.5-1.11 1.11-1.11h6.267c.61 0 1.11.5 1.11 1.11v1.56l2.542-1.63c.493-.316.896-.095.896.492v4.943c0 .587-.404.807-.897.49l-2.543-1.63zm15.764 10.1s-.01.238-.246.238h-.782l-.038-.004H28.75l-.066.002c-1.025.068-1.77.91-1.77 1.886 0 0 .02.78.02 1.433 0 .163-.145.163-.233.068l-1.824-2.115c-.73-.91-1.414-1.223-2.214-1.272h-2.2l-.036.003h-2.473s-.245.012-.245-.223v-2.633h3.835c.875 0 1.588-.713 1.588-1.59v-6.56h7.956c.21 0 .215.174.215.26v10.507zM12.015 11.338v.836c0 .193-.158.35-.352.35h-2.85c-.192 0-.35-.157-.35-.35v-.836c0-.193.157-.35.35-.35h2.85c.193 0 .352.157.352.35z"/>
</svg>
