<svg xmlns="http://www.w3.org/2000/svg" viewBox="0 0 36 36">
  <path fill="#0568ae" d="M27.57 31.172c-.568 0-.954-.472-.997-.525L24.28 27.99c-.474-.59-.796-.652-1.234-.678h-5.913c-.778 0-1.412-.634-1.412-1.413v-.99c0-.206.17-.374.376-.374s.375.168.375.375v.99c0 .364.298.662.663.662h5.936c.69.042 1.194.21 1.787.947l2.296 2.66c.06.074.244.252.418.252.255 0 .46-.206.46-.46.003-.132-.023-2.238-.023-2.238 0-.64.487-1.114 1.185-1.16h2.635c.365 0 .66-.298.66-.664V13.626c0-.365-.295-.663-.66-.663h-5.824c-.207 0-.375-.168-.375-.375s.168-.375.375-.375h5.824c.778 0 1.41.634 1.41 1.413V25.9c0 .778-.632 1.412-1.41 1.412h-2.61c-.09.007-.46.058-.46.406.01.813.027 2.195.024 2.26 0 .65-.542 1.194-1.21 1.194zm-17.13-4.87l2.7-3.13c.562-.7.95-.773 1.457-.805h6.947c.875 0 1.588-.713 1.588-1.59V6.418c0-.875-.713-1.588-1.59-1.588H4.35c-.876 0-1.588.712-1.588 1.588v14.36c0 .876.712 1.59 1.587 1.59l3.03-.002c.146.01.625.078.625.535-.012.958-.032 2.574-.028 2.632 0 .745.607 1.35 1.353 1.35.61 0 1.037-.492 1.11-.58zM21.542 5.577c.462 0 .838.376.838.84l.002 14.36c0 .462-.376.838-.838.838h-6.97c-.765.046-1.34.24-2.01 1.073l-2.698 3.124-.01.012c-.068.085-.296.305-.527.305-.333 0-.603-.27-.604-.612-.002-.1.016-1.615.03-2.614 0-.83-.667-1.244-1.353-1.29H4.35c-.463 0-.838-.376-.838-.838V6.416c0-.462.376-.838.837-.838h17.193zM16 16.446v-.876l1.964 1.26c.354.226.725.265 1.016.106.292-.16.46-.492.46-.913V11.08c0-.422-.168-.755-.46-.914-.29-.16-.66-.12-1.016.107L16 11.533v-.877c0-.82-.666-1.486-1.485-1.486H8.247c-.804 0-1.462.642-1.485 1.44h-.1c-.473 0-.86.387-.86.86v1.903c0 .474.387.86.86.86h.1v2.212c0 .82.666 1.485 1.485 1.485h6.267c.82 0 1.486-.665 1.486-1.484zm-8.864-5.084c.207 0 .375-.168.375-.375v-.33c0-.406.33-.737.737-.737h6.267c.406 0 .735.33.735.736v1.562c0 .137.074.263.194.33.12.065.267.06.382-.014l2.542-1.63c.15-.096.233-.09.252-.08.018.01.068.078.068.255v4.943c0 .177-.05.245-.068.255-.02.01-.1.016-.252-.08l-2.542-1.63c-.115-.074-.262-.08-.382-.013s-.195.192-.195.33v1.56c0 .407-.33.736-.736.736H8.247c-.406 0-.736-.33-.736-.734V13.86c0-.208-.167-.376-.374-.376h-.473c-.06 0-.11-.05-.11-.11v-1.902c0-.06.05-.11.11-.11h.473zm4.99.2c0-.207-.17-.375-.376-.375H8.9c-.207 0-.375.168-.375.375s.168.375.375.375h2.85c.207 0 .375-.168.375-.375z"/>
</svg>
