<svg xmlns="http://www.w3.org/2000/svg" viewBox="0 0 36 36">
  <path fill="#0568ae" d="M22.765 32.86c-.794 0-1.354-.702-1.377-.73l-3.543-4.105c-.776-.967-1.335-1.07-2.042-1.113H6.675c-.207 0-.375-.168-.375-.375s.168-.375.375-.375h9.15c.997.06 1.73.304 2.596 1.383l3.547 4.106c.11.138.445.46.798.46.503 0 .912-.41.912-.91.003-.133-.02-2.138-.037-3.456 0-1.02.822-1.53 1.638-1.582h4.047c.674 0 1.222-.55 1.222-1.226V6.022c0-.675-.548-1.224-1.222-1.224H6.675c-.674 0-1.222.55-1.222 1.224v15.92c0 .207-.17.375-.376.375s-.375-.168-.375-.375V6.022c0-1.09.886-1.974 1.974-1.974h22.65c1.086 0 1.97.886 1.97 1.974v18.916c0 1.09-.884 1.975-1.97 1.975H25.3c-.132.01-.912.098-.912.828.013 1.01.042 3.377.037 3.48 0 .896-.745 1.64-1.662 1.64zm4.745-17.494c0 2.29-1.864 4.155-4.155 4.155H12.647c-2.292 0-4.156-1.863-4.156-4.154 0-2.29 1.866-4.155 4.157-4.155 2.29 0 4.153 1.865 4.153 4.156 0 1.408-.706 2.653-1.78 3.405h5.96c-1.074-.75-1.78-1.996-1.78-3.404 0-2.29 1.864-4.155 4.155-4.155s4.155 1.865 4.155 4.156zM12.647 18.77c1.877 0 3.403-1.526 3.403-3.404s-1.527-3.405-3.403-3.405c-1.878 0-3.406 1.53-3.406 3.406 0 1.877 1.528 3.405 3.407 3.405zm14.113-3.404c0-1.878-1.528-3.405-3.405-3.405-1.877 0-3.405 1.53-3.405 3.406 0 1.877 1.527 3.405 3.405 3.405s3.405-1.527 3.405-3.404z"/>
</svg>
