<svg xmlns="http://www.w3.org/2000/svg" viewBox="0 0 36 36">
  <path fill="#0568ae" d="M25.68 15.82c0 1.283-1.042 2.326-2.323 2.326-1.283 0-2.326-1.043-2.326-2.325 0-1.28 1.044-2.324 2.327-2.324 1.28 0 2.323 1.043 2.323 2.325zm5.243-9.8v18.917c0 .885-.712 1.6-1.597 1.6h-4.023c-.638.042-1.287.415-1.287 1.204 0 0 .042 3.36.037 3.46 0 .71-.577 1.286-1.287 1.286-.62 0-1.082-.59-1.082-.59L18.13 27.78c-.82-1.023-1.46-1.192-2.303-1.243h-9.15c-.882 0-1.598-.715-1.598-1.6V6.02c0-.883.714-1.598 1.597-1.598h22.65c.88 0 1.596.715 1.596 1.6zm-3.243 9.8c0-2.384-1.94-4.324-4.323-4.324-2.385 0-4.326 1.94-4.326 4.325 0 .857.254 1.654.685 2.326h-3.428c.43-.672.684-1.47.684-2.325 0-2.384-1.938-4.324-4.322-4.324-2.385 0-4.326 1.94-4.326 4.325 0 2.386 1.94 4.326 4.326 4.326h10.71c2.383 0 4.322-1.94 4.322-4.325zm-15.033-2.324c-1.283 0-2.326 1.043-2.326 2.325 0 1.283 1.044 2.326 2.327 2.326 1.28 0 2.323-1.043 2.323-2.325 0-1.28-1.042-2.324-2.323-2.324z"/>
</svg>
