<svg xmlns="http://www.w3.org/2000/svg" viewBox="0 0 36 36">
  <path fill="#0568ae" d="M31.837 12.215H23.14V6.42c0-.877-.71-1.59-1.587-1.59H4.36c-.876 0-1.588.713-1.588 1.59v14.36c0 .875.712 1.588 1.587 1.588h3.03c.146.01.626.077.626.534-.012.957-.032 2.573-.028 2.63 0 .746.607 1.352 1.352 1.352.635 0 1.07-.53 1.105-.577l2.707-3.136c.56-.698.95-.77 1.456-.802h1.123V25.9c0 .78.634 1.413 1.413 1.413h5.439c.288.017.43.04.77.46l2.274 2.635c.1.127.643.764 1.49.764 1.01 0 1.835-.823 1.834-1.79 0-.033-.02.015-.02-1.835 0-.164.09-.235.207-.235h2.702c.777 0 1.41-.634 1.41-1.413V13.626c-.002-.778-.635-1.412-1.413-1.412zm-20.86-4.61c-.45.526-.848 1.233-1.152 2.096-.4-.22-.76-.49-1.074-.81.64-.57 1.394-1.01 2.226-1.285zM8.16 9.492c.412.415.887.76 1.418 1.033-.2.786-.327 1.674-.356 2.65H6.656c.093-1.402.644-2.68 1.505-3.683zm0 8.212c-.86-1.004-1.41-2.28-1.504-3.684h2.567c.03.943.157 1.838.363 2.646-.534.274-1.01.62-1.425 1.038zm.59.602c.317-.32.68-.594 1.085-.817.295.843.684 1.56 1.137 2.1-.83-.274-1.583-.715-2.22-1.284zm3.78 1.442c-.76-.274-1.45-1.266-1.908-2.61.577-.205 1.216-.326 1.907-.36v2.97zm0-3.816c-.773.035-1.49.17-2.144.395-.176-.716-.288-1.498-.318-2.307h2.46v1.912zm0-2.756h-2.462c.03-.81.14-1.592.316-2.308.653.227 1.372.36 2.145.396v1.912zm0-2.757c-.693-.036-1.333-.158-1.91-.363.456-1.352 1.15-2.35 1.91-2.625v2.987zm6.715 2.756H16.68c-.03-.978-.157-1.865-.357-2.65.53-.274 1.006-.62 1.417-1.034.86 1.004 1.412 2.28 1.505 3.684zm0 .844c-.093 1.403-.644 2.68-1.505 3.684-.413-.418-.89-.764-1.425-1.038.207-.81.334-1.703.363-2.646h2.567zM17.15 8.89c-.313.32-.673.59-1.074.812-.304-.864-.702-1.57-1.15-2.096.83.273 1.586.714 2.224 1.284zm-3.778-1.458c.76.275 1.452 1.273 1.91 2.625-.577.205-1.217.327-1.91.362V7.43zm0 3.832c.773-.035 1.49-.17 2.145-.396.175.716.287 1.5.316 2.308h-2.46v-1.912zm0 2.756h2.46c-.028.81-.14 1.592-.317 2.307-.653-.226-1.37-.36-2.143-.395V14.02zm0 5.728v-2.97c.69.034 1.33.155 1.907.36-.458 1.344-1.15 2.336-1.908 2.61zm1.557-.158c.453-.54.84-1.256 1.136-2.1.405.223.768.495 1.084.817-.637.568-1.39 1.01-2.22 1.283zm16.38 5.395s-.01.238-.246.238h-.782l-.037-.004H28.694c-1.025.07-1.77.91-1.77 1.887 0 0 .02.78.02 1.433 0 .164-.145.164-.232.07l-1.825-2.116c-.732-.91-1.414-1.223-2.214-1.272l-2.2-.002-.036.004h-2.473s-.245.012-.245-.223V22.37h3.834c.876 0 1.588-.713 1.588-1.59v-6.56h7.955c.21 0 .215.174.215.26v10.507z"/>
</svg>
