<svg xmlns="http://www.w3.org/2000/svg" viewBox="0 0 36 36">
  <path fill="#0568ae" d="M13.06 7.614v-.018h-.75v.02c-3.357.214-6.025 3.006-6.025 6.416 0 3.37 2.603 6.136 5.903 6.408l.09.01.03-.004.365.02h.046c3.548 0 6.435-2.886 6.435-6.434 0-3.434-2.705-6.24-6.094-6.418zm3.067 6.047c-.024-.777-.115-1.53-.28-2.237l.004-.002-.002-.006c.463-.268.89-.595 1.275-.972.728.89 1.185 2.004 1.264 3.22h-2.26zm-.945 2.526c-.677-.28-1.387-.44-2.12-.48V14.41h2.316c-.02.617-.084 1.21-.196 1.776zm-5.696.327c-.467.26-.898.578-1.292.945-.652-.86-1.064-1.906-1.14-3.047H9.24c.022.73.102 1.435.246 2.103zm.736-4.748c.666.282 1.365.443 2.09.484v1.41H9.993c.022-.652.1-1.293.228-1.895zm5.413-1.1c-.26-.807-.61-1.48-1.02-1.987.75.266 1.425.683 1.993 1.217-.297.292-.623.55-.973.77zm-.672.362c-.604.274-1.242.435-1.902.48v-3.1c.763.242 1.473 1.21 1.903 2.62zm-2.652-2.62v3.1c-.66-.04-1.3-.2-1.907-.47.43-1.416 1.142-2.388 1.908-2.63zm0 6.004v1.284c-.735.04-1.445.21-2.12.488-.113-.566-.18-1.16-.197-1.77h2.318zm0 2.046v3.234c-.796-.25-1.52-1.29-1.942-2.765.617-.27 1.268-.427 1.943-.47zm.75 3.24v-3.25c.676.042 1.33.2 1.95.47-.42 1.483-1.15 2.528-1.95 2.78zm0-6.035v-1.414c.723-.043 1.422-.208 2.087-.493.13.604.207 1.25.23 1.907H13.06zm-2.334-4.945c-.4.507-.74 1.17-.995 1.964-.156-.098-.31-.202-.457-.314-.165-.126-.4-.094-.525.07-.125.166-.094.4.07.527.224.17.458.325.7.464l-.002.008.005.003c-.163.706-.254 1.452-.277 2.225h-2.19c.148-2.272 1.63-4.18 3.673-4.948zm-2.04 9.315c.306-.29.64-.548 1.002-.764.25.83.592 1.534 1 2.07-.76-.293-1.442-.738-2.002-1.306zm5.965 1.343c.422-.54.775-1.255 1.033-2.106.164.098.323.202.475.315.067.05.145.074.223.074.116 0 .23-.052.303-.15.123-.167.088-.402-.078-.526-.227-.17-.468-.324-.718-.463l.002-.007-.005-.002c.144-.664.223-1.368.244-2.095h2.257c-.153 2.29-1.664 4.208-3.736 4.96zm18.565-5.37v12.272c0 .78-.633 1.413-1.41 1.413h-2.61c-.09.007-.46.058-.46.406.01.78.024 2.078.023 2.243v.016l-.003.008c-.014.658-.55 1.187-1.208 1.187-.57 0-.955-.472-.997-.525l-2.295-2.658-.003-.006-.005-.004c-.464-.58-.786-.64-1.224-.667H17.11c-.778 0-1.413-.633-1.413-1.412v-.988c0-.207.167-.375.375-.375.207 0 .375.168.375.375v.988c0 .366.297.663.662.663h5.936c.688.04 1.19.208 1.776.935l2.306 2.672c.06.074.246.252.42.252.253 0 .46-.206.46-.46l.002-.005-.002-.012c.002-.116-.024-2.222-.024-2.222 0-.64.488-1.115 1.185-1.16h2.634c.365 0 .66-.298.66-.664V14.002c0-.366-.295-.663-.66-.663H25.98c-.207 0-.375-.17-.375-.376s.168-.375.375-.375h5.824c.778 0 1.41.634 1.41 1.412zm-10.107 7.15V6.794c0-.875-.714-1.588-1.59-1.588H4.326c-.875 0-1.587.713-1.587 1.59v14.36c0 .875.712 1.588 1.587 1.588h3.03c.147.01.626.077.626.54-.01.956-.03 2.568-.027 2.625 0 .745.608 1.35 1.353 1.35.635 0 1.07-.53 1.104-.576l2.7-3.126.002-.006.005-.004c.56-.7.95-.772 1.456-.804h6.947c.876 0 1.588-.712 1.588-1.588zm-8.557.84c-.76.047-1.333.238-2.008 1.073h-.002l-2.708 3.137c-.068.085-.297.305-.527.305-.332 0-.603-.27-.603-.613-.003-.1.016-1.615.028-2.61v-.004c0-.828-.667-1.243-1.352-1.288H4.325c-.462 0-.837-.376-.837-.84V6.795c0-.463.375-.84.837-.84H21.52c.46 0 .837.378.837.84v14.36c0 .463-.375.84-.837.84h-6.97z"/>
</svg>
