<svg xmlns="http://www.w3.org/2000/svg" viewBox="0 0 36 36" enable-background="new 0 0 36 36"><path d="M27.264 14.593c-.895-2.851-2.847-5.183-5.495-6.566-1.119-.586-2.322-.975-3.573-1.156-.188-.027-.378.068-.467.239-.089.171-.061.379.071.52 2.979 3.183 3.625 7.919 1.607 11.784-1.779 3.406-5.274 5.521-9.121 5.521-.49 0-.984-.036-1.468-.106-.19-.027-.378.068-.467.239-.089.171-.061.379.071.52.862.921 1.868 1.685 2.99 2.271 1.595.833 3.383 1.273 5.17 1.273 4.187 0 7.99-2.304 9.925-6.012 1.383-2.647 1.652-5.676.757-8.527z" fill="#0568ae"/></svg>