<svg xmlns="http://www.w3.org/2000/svg" viewBox="0 0 36 36" enable-background="new 0 0 36 36"><path d="M16.809 27.127c-1.477 0-2.955-.364-4.273-1.052-.927-.484-1.758-1.116-2.471-1.877-.108-.116-.132-.288-.058-.43.073-.142.229-.222.386-.197.4.058.808.087 1.213.087 3.179 0 6.067-1.749 7.538-4.563 1.667-3.194 1.134-7.108-1.329-9.739-.108-.116-.132-.288-.058-.43.074-.141.229-.222.386-.197 1.034.15 2.028.471 2.953.955 2.188 1.143 3.802 3.07 4.541 5.427.74 2.356.518 4.859-.626 7.048-1.599 3.065-4.742 4.968-8.202 4.968m-5.434-2.722c.464.386.969.723 1.509 1.005 1.211.633 2.568.967 3.925.967 3.18 0 6.068-1.749 7.538-4.565 1.051-2.011 1.256-4.312.576-6.477-.68-2.166-2.162-3.936-4.173-4.986-.539-.282-1.104-.504-1.687-.664 2.068 2.814 2.392 6.607.747 9.758-1.6 3.063-4.743 4.965-8.203 4.965l-.232-.003" fill="#0568ae"/></svg>