<svg xmlns="http://www.w3.org/2000/svg" viewBox="0 0 36 36" enable-background="new 0 0 36 36"><path d="M18.078 9.653c-.69 0-1.25-.56-1.25-1.25v-2.742c0-.69.56-1.25 1.25-1.25s1.25.56 1.25 1.25v2.742c.001.691-.559 1.25-1.25 1.25zm1.098 20.686v-2.742c0-.69-.559-1.25-1.25-1.25-.69 0-1.25.56-1.25 1.25v2.742c0 .691.56 1.25 1.25 1.25.691 0 1.25-.56 1.25-1.25zm12.415-12.263c0-.69-.56-1.25-1.25-1.25h-2.742c-.69 0-1.25.56-1.25 1.25s.56 1.25 1.25 1.25h2.742c.691 0 1.25-.56 1.25-1.25zm-21.935-.152c0-.69-.56-1.25-1.25-1.25h-2.742c-.69 0-1.25.56-1.25 1.25s.56 1.25 1.25 1.25h2.742c.691 0 1.25-.56 1.25-1.25zm16.07-5.772l1.939-1.939c.488-.488.488-1.28 0-1.768s-1.279-.488-1.768 0l-1.939 1.939c-.488.488-.488 1.28 0 1.768.244.244.564.366.884.366.32 0 .64-.122.884-.366zm-15.618 15.403l1.939-1.939c.488-.488.488-1.279 0-1.768-.488-.488-1.28-.488-1.768 0l-1.939 1.939c-.488.488-.488 1.279 0 1.767.244.244.564.366.884.366.32.001.64-.121.884-.365zm17.449.107c.488-.488.488-1.279 0-1.768l-1.938-1.939c-.488-.488-1.279-.488-1.768 0-.488.488-.488 1.279 0 1.768l1.938 1.939c.244.244.564.366.884.366.32 0 .64-.122.884-.366zm-15.403-15.618c.488-.488.488-1.28 0-1.768l-1.939-1.939c-.488-.488-1.28-.488-1.768 0s-.488 1.28 0 1.768l1.939 1.939c.244.244.564.366.884.366.32.001.64-.122.884-.366zm5.849-.881c-3.775 0-6.837 3.061-6.837 6.837s3.062 6.837 6.837 6.837c3.776 0 6.837-3.061 6.837-6.837-.001-3.776-3.062-6.837-6.837-6.837z" fill="#0568ae"/></svg>