<svg xmlns="http://www.w3.org/2000/svg" viewBox="0 0 36 36" enable-background="new 0 0 36 36"><path d="M18 25.212c-3.977 0-7.212-3.236-7.212-7.212 0-3.976 3.235-7.212 7.212-7.212 3.976 0 7.212 3.235 7.212 7.212 0 3.976-3.236 7.212-7.212 7.212m0-13.674c-3.563 0-6.462 2.899-6.462 6.462s2.899 6.462 6.462 6.462c3.563 0 6.462-2.899 6.462-6.462s-2.899-6.462-6.462-6.462m.072-2.302c.208 0 .375-.168.375-.375v-2.612c0-.207-.167-.375-.375-.375-.207 0-.375.168-.375.375v2.612c0 .207.168.375.375.375m-5.385 1.702c.076 0 .154-.023.22-.072.167-.122.205-.356.083-.524l-1.535-2.112c-.122-.167-.356-.204-.524-.083-.168.122-.204.356-.083.524l1.536 2.113c.072.101.187.154.303.154m-3.357 4.544c.158 0 .305-.101.356-.259.063-.197-.044-.409-.241-.473l-2.483-.808c-.197-.064-.409.044-.473.241s.043.408.241.473l2.483.807.117.019m-2.528 6.455l.116-.019 2.484-.807c.196-.063.304-.275.241-.472-.065-.197-.275-.306-.473-.241l-2.483.808c-.197.064-.305.275-.24.472.049.159.196.259.355.259m4.232 5.902c.116 0 .229-.054.303-.154l1.535-2.113c.122-.167.085-.402-.083-.524s-.402-.084-.524.083l-1.535 2.113c-.122.168-.085.402.083.524.067.048.144.071.221.071m6.894 2.287c.207 0 .375-.168.375-.375v-2.611c0-.207-.168-.375-.375-.375s-.375.168-.375.375v2.611c0 .207.168.375.375.375m6.92-2.201c.077 0 .154-.023.22-.072.168-.122.205-.355.083-.523l-1.534-2.113c-.122-.167-.356-.205-.524-.083-.167.122-.205.356-.083.524l1.535 2.113c.073.101.187.154.303.154m4.305-5.849c.158 0 .305-.101.356-.259.065-.197-.043-.409-.24-.473l-2.483-.808c-.197-.063-.409.044-.473.241s.043.408.24.473l2.484.807.116.019m-2.438-6.456l.116-.019 2.483-.807c.197-.064.305-.275.241-.473-.064-.197-.276-.305-.473-.241l-2.483.808c-.197.064-.304.275-.241.472.052.159.199.26.357.26m-3.284-4.596c.116 0 .23-.054.304-.154l1.535-2.113c.122-.167.085-.402-.083-.524s-.402-.084-.524.083l-1.535 2.113c-.122.168-.085.402.083.524.066.048.143.071.22.071" fill="#0568ae"/></svg>