<svg xmlns="http://www.w3.org/2000/svg" viewBox="0 0 36 36" enable-background="new 0 0 36 36"><path d="M12.161 15.501c1.779 0 4.591 1.258 4.721 4.162l.131-.044c.29-.078.595-.124.91-.124 1.922 0 3.479 1.558 3.479 3.48s-1.558 3.48-3.479 3.48h-10.252c-1.681 0-3.047-1.364-3.047-3.048 0-1.534 1.138-2.801 2.614-3.012.026-2.707 2.219-4.894 4.923-4.894m16.317 1.582l.018-.242c0-1.982-1.607-3.589-3.59-3.589-.217 0-.43.022-.637.059-.776-2.143-2.826-3.675-5.235-3.675-2.723 0-4.988 1.954-5.475 4.536.873.204 1.735.584 2.457 1.103.985.708 1.688 1.645 2.062 2.721 2.674.082 4.825 2.283 4.825 4.977 0 .49-.074.962-.206 1.41h5.165c2.031 0 3.678-1.647 3.678-3.678 0-1.82-1.325-3.328-3.062-3.622z" fill="#0568ae"/></svg>