<svg xmlns="http://www.w3.org/2000/svg" viewBox="0 0 36 36" enable-background="new 0 0 36 36"><path d="M31.716 21.146c0 2.225-1.809 4.034-4.034 4.034h-7.013c-.719 1.033-1.882 1.649-3.159 1.649h-10.252c-1.887 0-3.422-1.536-3.422-3.423 0-1.583 1.109-2.96 2.626-3.324.186-2.76 2.496-4.956 5.286-4.956 1.973 0 4.957 1.436 5.096 4.52.01.207-.151.382-.358.391-.216.013-.382-.151-.391-.358-.117-2.594-2.663-3.803-4.347-3.803-2.484 0-4.524 2.028-4.548 4.522-.002.185-.139.342-.322.368-1.307.187-2.293 1.322-2.293 2.641 0 1.474 1.199 2.673 2.672 2.673h10.253c1.085 0 2.072-.546 2.641-1.46l.001-.001c.065-.11.18-.188.318-.188h7.213c1.811 0 3.284-1.473 3.284-3.284 0-1.607-1.149-2.968-2.733-3.235-.19-.032-.325-.203-.311-.395l.008-.098.008-.115c0-1.762-1.434-3.195-3.195-3.195-.18 0-.371.018-.567.053-.182.032-.357-.07-.419-.241-.739-2.039-2.69-3.409-4.855-3.409-1.766 0-3.393.888-4.35 2.376-.112.175-.345.224-.518.113-.174-.112-.225-.344-.113-.518 1.096-1.703 2.958-2.72 4.981-2.72 2.378 0 4.53 1.442 5.449 3.618l.393-.021c2.155 0 3.912 1.736 3.945 3.883 1.771.449 3.026 2.041 3.026 3.903z" fill="#0568ae"/></svg>