<svg xmlns="http://www.w3.org/2000/svg" viewBox="0 0 36 36">
  <path fill="#0568ae" d="M5.2 15.8H8v7.3h.1c.4 0 .7-.1.9-.5.4-.6.9-.8 1.6-.8.7 0 1.2.2 1.6.9.2.3.7.5.9.5.4 0 .8-.1 1-.4v-2.6c0-.4.3-.8.7-.8h5.8c.4 0 .7.3.7.8V22c.3.1.5.4.7.7.2.4.7.5.9.5.4 0 .8-.2 1-.5.3-.5.9-.8 1.5-.8s1.1.3 1.4.8c.1.2.3.3.6.4v-7.2h2.8c1 0 1.2-.6.5-1.3L19 2.6c-.3-.3-.7-.5-1.2-.5-.4 0-.9.2-1.2.5l-11.9 12c-.7.7-.5 1.2.5 1.2zM33 24.7c-1 0-1.7-.4-2.1-1.2-.1-.2-.4-.2-.5 0-.5.7-1.2 1.2-2.2 1.2-1 0-1.9-.6-2.3-1.2-.1-.2-.4-.2-.5 0-.4.5-1.4 1.2-2.4 1.2s-1.7-.5-2.1-1.2c-.1-.2-.4-.2-.5 0-.4.8-1.2 1.2-2.2 1.2-1 0-1.9-.6-2.3-1.2-.1-.2-.4-.2-.5 0-.4.5-1.4 1.2-2.4 1.2s-1.7-.5-2.1-1.2c-.1-.2-.4-.2-.5 0-.4.8-1.2 1.2-2.2 1.2-1 0-1.9-.6-2.3-1.2-.1-.2-.4-.2-.5 0C5 24 4 24.7 3 24.7v6.2c0 .8.8 1.4 1.8 1.4h26.4c1 0 1.8-.6 1.8-1.4"/>
</svg>
