<svg xmlns="http://www.w3.org/2000/svg" viewBox="0 0 36 36" enable-background="new 0 0 36 36"><path d="M16.635 5.634c2.409 0 4.458 1.532 5.235 3.675.207-.037.42-.059.638-.059 1.982 0 3.589 1.607 3.589 3.589l-.018.242c1.738.294 3.062 1.802 3.062 3.623 0 2.032-1.647 3.678-3.678 3.678h-13.723c-2.696 0-4.881-2.185-4.881-4.881l.002-.032-.002-.032.023-.398c.213-2.262 1.97-4.071 4.207-4.37.272-2.826 2.65-5.035 5.546-5.035m8.235 19.353l-.528-.305.528-.305c.299-.173.401-.555.229-.854-.172-.299-.555-.401-.854-.229l-.529.305v-.61c0-.345-.28-.625-.625-.625s-.625.28-.625.625v.61l-.528-.305c-.299-.172-.682-.07-.854.229-.172.299-.07.681.229.854l.528.305-.528.305c-.299.173-.401.555-.229.854.116.201.326.313.542.313.106 0 .213-.027.312-.083l.528-.305v.61c0 .345.28.625.625.625s.625-.28.625-.625v-.61l.529.305c.098.057.206.083.312.083.216 0 .426-.112.542-.313.172-.299.07-.681-.229-.854zm-5.092 4.891l-.528-.305.528-.305c.299-.173.401-.555.229-.854-.172-.299-.555-.401-.854-.229l-.528.305v-.61c0-.345-.28-.625-.625-.625s-.625.28-.625.625v.61l-.529-.305c-.299-.172-.681-.07-.854.229-.173.299-.07.681.229.854l.528.305-.528.305c-.299.173-.401.555-.229.854.116.201.326.313.542.313.106 0 .213-.027.312-.083l.529-.305v.611c0 .345.28.625.625.625s.625-.28.625-.625v-.61l.528.305c.099.057.206.083.312.083.216 0 .426-.112.542-.313.173-.299.071-.682-.229-.855zm-5.091-4.89l-.529-.305.529-.305c.299-.173.401-.555.229-.854-.172-.299-.555-.402-.854-.229l-.528.305v-.611c0-.345-.28-.625-.625-.625s-.625.28-.625.625v.611l-.529-.305c-.299-.174-.681-.071-.854.229-.173.299-.07.681.229.854l.529.305-.529.305c-.299.172-.401.555-.229.854.116.201.326.313.542.313.106 0 .214-.027.312-.083l.529-.305v.61c0 .345.28.625.625.625s.625-.28.625-.625v-.61l.528.305c.098.057.206.083.312.083.216 0 .426-.112.542-.313.172-.299.07-.682-.229-.854z" fill="#0568ae"/></svg>