<svg xmlns="http://www.w3.org/2000/svg" viewBox="0 0 36 36" enable-background="new 0 0 36 36"><path d="M24.866 25.958h-18.084c-.552 0-1-.448-1-1s.448-1 1-1h18.083c.552 0 1 .448 1 1 .001.552-.447 1-.999 1zm3.849-11.89c-.035-3.641-2.985-6.582-6.622-6.582-2.32 0-5.936 1.598-6.315 5.254h-6.826c-.552 0-1 .448-1 1s.448 1 1 1h13.115c.48 0 .87.39.87.87s-.389.87-.87.87h-17.298c-.552 0-1 .448-1 1s.448 1 1 1h21.681c.48 0 .87.39.87.87s-.389.87-.87.87h-15.938l.023.036c-.429.112-.747.499-.747.964 0 .552.448 1 1 1h17.345c2.262 0 4.099-1.835 4.099-4.1-.001-2.064-1.531-3.769-3.517-4.052z" fill="#0568ae"/></svg>