<svg xmlns="http://www.w3.org/2000/svg" viewBox="0 0 36 36" enable-background="new 0 0 36 36"><path d="M29.141 16.702c0 2.032-1.647 3.678-3.678 3.678h-13.723c-2.696 0-4.881-2.185-4.881-4.881l.002-.032-.002-.032.023-.398c.213-2.262 1.971-4.071 4.207-4.37.272-2.824 2.651-5.033 5.546-5.033 2.409 0 4.458 1.532 5.235 3.675.207-.037.42-.059.637-.059 1.982 0 3.59 1.607 3.59 3.589l-.018.242c1.738.292 3.062 1.8 3.062 3.621zm-10.313 6.397c.042-.117-.025-.213-.15-.213h-1.569c-.124 0-.26.096-.302.213l-.573 1.596c-.042.117.025.213.149.213h1.57c.124 0 .26-.096.302-.213l.573-1.596zm-7.61 6.485c.045-.125-.027-.227-.159-.227h-1.675c-.133 0-.278.102-.323.227l-.611 1.703c-.045.125.027.227.159.227h1.674c.133 0 .278-.102.323-.227l.612-1.703zm10.808.409c.042-.117-.025-.212-.149-.212h-1.565c-.124 0-.259.095-.301.212l-.571 1.591c-.042.117.025.212.149.212h1.565c.124 0 .26-.095.302-.212l.57-1.591zm-.082-1.844c.408 0 .792-.252.939-.658l1.489-4.09c.189-.519-.079-1.093-.597-1.282-.519-.188-1.093.079-1.282.598l-1.488 4.089c-.189.52.078 1.093.597 1.282.113.042.229.061.342.061m-7.65 6.53c.408 0 .792-.252.939-.658l2.293-6.302c.188-.519-.079-1.093-.598-1.282-.52-.188-1.093.079-1.282.597l-2.292 6.302c-.189.519.078 1.093.597 1.282.114.042.23.061.343.061m-3.232-6.638c.409 0 .792-.252.94-.658l1.488-4.09c.189-.519-.079-1.093-.597-1.282-.52-.188-1.094.079-1.282.598l-1.488 4.09c-.189.519.079 1.093.597 1.282.113.041.229.06.342.06" fill="#0568ae"/></svg>