<svg xmlns="http://www.w3.org/2000/svg" viewBox="0 0 36 36" enable-background="new 0 0 36 36"><path d="M19.406 24.735c.951.499 1.594 1.502 1.594 2.651 0 1.656-1.343 3-3 3s-3-1.344-3-3c0-1.129.623-2.113 1.545-2.625.145-.08.458-.282.458-.654v-15.107c0-.552.448-1 1-1s1 .448 1 1v15.107c.001.341.224.534.403.628zm5.141 2.67c0-1.82-.754-3.533-2.084-4.773l-.026-16.165c0-2.464-2.008-4.469-4.477-4.469-2.455 0-4.451 1.999-4.451 4.481v16.178c-1.312 1.234-2.055 2.938-2.055 4.748 0 3.616 2.937 6.557 6.547 6.557 3.609.001 6.546-2.941 6.546-6.557zm-4.11-20.937l.027 16.623c0 .303.138.588.374.778 1.087.874 1.71 2.163 1.71 3.537 0 2.513-2.04 4.557-4.547 4.557-2.507 0-4.547-2.044-4.547-4.557 0-1.368.614-2.65 1.685-3.518.234-.19.37-.476.37-.777v-16.657c0-1.354 1.1-2.456 2.451-2.456 1.366 0 2.477 1.108 2.477 2.47z" fill="#0568ae"/></svg>