<svg xmlns="http://www.w3.org/2000/svg" viewBox="0 0 36 36">
  <path fill="#0568ae" d="M26.1 19C25 16.7 24 14.9 23 13.3c-1.8-3-3.2-5.4-4.3-9.6-.1-.4-.4-.7-.8-.7s-.7.2-.8.6c-1.2 4.2-2.6 6.6-4.3 9.6-.9 1.6-2 3.4-3.1 5.7-2.5 5.1-.3 10 3.2 12.2 1.5 1 3.3 1.5 5.1 1.5 1.8 0 3.5-.5 5.1-1.5 3.3-2.1 5.5-7 3-12.1zm-14 1.2c1.1-2.2 2.1-4 3-5.6.6-1 1.1-2 1.7-3 .4-.7.7-1.4.7-1.4.2-.4.6-.4.8 0 0 0 .3.7.7 1.4.5 1 1.1 1.9 1.7 2.9.9 1.6 2 3.3 3 5.6.8 1.7 1 3.7.5 5.2-.1.4-.4 1-.9 1.5H12.5c-.4-.6-.7-1.2-.9-1.5-.6-1.6-.4-3.4.5-5.1z"/>
</svg>
