<svg xmlns="http://www.w3.org/2000/svg" viewBox="0 0 36 36">
  <path fill="#0568ae" d="M13.6 27.4c-.2 0-.4-.2-.4-.4s.2-.4.4-.4l12.9-.1c.2 0 .4.2.4.4s-.2.4-.4.4l-12.9.1z"/>
  <path fill="#0568ae" d="M18 33.1c-1.9 0-3.7-.6-5.3-1.6-3.7-2.4-6-7.6-3.4-12.9 1.1-2.3 2.2-4.1 3.1-5.7 1.7-3 3.1-5.3 4.2-9.4.2-.6.7-1.1 1.4-1.1.6 0 1.2.4 1.4 1.1 1.1 4.1 2.5 6.4 4.2 9.4.9 1.6 2 3.4 3.1 5.7.5.9.8 2 1 3 .5 2.9-.3 5.8-2.2 8-1.8 2.2-4.6 3.5-7.5 3.5zm0-29.9c-.3 0-.6.2-.7.5-1.2 4.2-2.5 6.6-4.3 9.6-.9 1.6-2 3.4-3.1 5.7-2.4 4.9-.3 9.8 3.1 12 1.5 1 3.2 1.5 4.9 1.5 2.7 0 5.2-1.2 6.9-3.2 1.7-2 2.5-4.7 2-7.4-.2-1-.5-1.9-.9-2.8-1.1-2.3-2.2-4.1-3.1-5.6-1.8-3-3.2-5.4-4.3-9.6.1-.5-.2-.7-.5-.7z"/>
</svg>
