<svg xmlns="http://www.w3.org/2000/svg" viewBox="0 0 36 36" enable-background="new 0 0 36 36"><path d="M19.694 11.025l-.688-1.704c-.173-.429.034-.917.463-1.09.429-.173.917.034 1.09.463l.688 1.704c.173.429-.034.917-.463 1.09-.429.173-.916-.034-1.09-.463zm9.489 3.952l1.704-.688c.429-.173.636-.661.463-1.09-.173-.429-.661-.636-1.09-.463l-1.704.688c-.429.173-.637.661-.463 1.09.173.429.661.636 1.09.463zm1.687 5.64c.199-.08.367-.236.457-.449.181-.426-.018-.917-.443-1.098l-1.691-.718c-.426-.181-.917.017-1.098.443-.181.426.018.918.443 1.098l1.691.718c.212.091.442.086.641.006zm-5.164-9.124c.199-.08.367-.236.458-.449l.718-1.691c.181-.426-.018-.918-.443-1.098-.426-.181-.917.017-1.099.443l-.718 1.691c-.181.426.018.918.443 1.098.214.091.443.086.641.006zm-11.341 1.459c-2.896 0-5.274 2.209-5.546 5.033-2.236.299-3.994 2.107-4.207 4.37l-.023.398.002.032-.002.032c0 2.696 2.186 4.881 4.881 4.881h13.723c2.031 0 3.678-1.647 3.678-3.678 0-1.821-1.324-3.329-3.062-3.623l.018-.242c0-1.982-1.607-3.589-3.589-3.589-.218 0-.431.022-.637.059-.777-2.141-2.826-3.673-5.236-3.673m6.17 2.124c2.37.137 4.31 1.904 4.714 4.193.349.15.678.337.98.555 1.208-1.262 1.641-3.16.944-4.885-.947-2.346-3.617-3.48-5.963-2.533-.693.28-1.277.713-1.736 1.24.409.428.768.906 1.061 1.43z" fill="#0568ae"/></svg>