<svg xmlns="http://www.w3.org/2000/svg" viewBox="0 0 36 36" enable-background="new 0 0 36 36"><path d="M23.099 26.341c-.116.201-.326.313-.542.313-.106 0-.214-.027-.312-.083l-.529-.305v.61c0 .345-.28.625-.625.625s-.625-.28-.625-.625v-.61l-.528.305c-.099.057-.206.083-.312.083-.216 0-.426-.112-.542-.313-.172-.299-.07-.681.229-.854l.528-.305-.528-.305c-.299-.173-.401-.555-.229-.854.172-.299.555-.401.854-.229l.528.305v-.61c0-.345.28-.625.625-.625s.625.28.625.625v.61l.529-.305c.299-.172.681-.07.854.229.173.299.07.681-.229.854l-.528.305.528.305c.299.173.401.555.229.854zm-5.321 4.037l-.528-.305.528-.305c.299-.173.401-.555.229-.854-.172-.299-.555-.401-.854-.229l-.528.305v-.61c0-.345-.28-.625-.625-.625s-.625.28-.625.625v.61l-.529-.305c-.299-.172-.681-.07-.854.229-.173.299-.07.681.229.854l.528.305-.528.305c-.299.173-.401.555-.229.854.116.201.326.313.542.313.106 0 .213-.027.311-.083l.529-.305v.611c0 .345.28.625.625.625s.625-.28.625-.625v-.61l.528.305c.099.057.206.083.312.083.216 0 .426-.112.542-.313.174-.299.072-.682-.228-.855zm-5.091-4.89l-.529-.305.529-.305c.299-.173.401-.555.229-.854-.172-.299-.555-.402-.854-.229l-.528.305v-.611c0-.345-.28-.625-.625-.625s-.625.28-.625.625v.611l-.529-.305c-.299-.174-.681-.071-.853.229-.173.299-.07.681.228.854l.529.305-.529.305c-.299.172-.401.555-.228.854.116.201.326.313.541.313.106 0 .214-.027.312-.083l.529-.305v.61c0 .345.28.625.625.625s.625-.28.625-.625v-.61l.528.305c.098.057.206.083.312.083.216 0 .426-.112.542-.313.172-.299.07-.682-.229-.854zm8.098-20.5c.429-.173.636-.661.463-1.09l-.688-1.704c-.173-.429-.662-.636-1.09-.463-.429.173-.636.661-.463 1.09l.688 1.704c.173.429.66.636 1.09.463zm8.398 3.489l1.704-.688c.429-.173.636-.661.463-1.09-.173-.429-.661-.636-1.09-.463l-1.704.688c-.429.173-.637.661-.463 1.09.173.429.661.636 1.09.463zm1.687 5.64c.199-.08.367-.236.457-.449.181-.426-.018-.917-.443-1.098l-1.691-.718c-.426-.181-.917.017-1.098.443-.181.426.018.918.443 1.098l1.691.718c.212.091.442.086.641.006zm-5.163-9.124c.199-.08.367-.236.458-.449l.718-1.691c.181-.426-.017-.918-.443-1.098-.426-.181-.917.018-1.099.443l-.718 1.691c-.181.426.018.917.443 1.098.213.091.442.086.641.006zm-11.342 1.459c-2.896 0-5.274 2.209-5.546 5.033-2.236.299-3.994 2.107-4.207 4.37l-.023.398.002.032-.002.032c0 2.696 2.186 4.881 4.881 4.881h13.723c2.031 0 3.678-1.647 3.678-3.678 0-1.821-1.324-3.329-3.062-3.623l.018-.242c0-1.982-1.607-3.589-3.589-3.589-.218 0-.431.022-.637.059-.777-2.141-2.826-3.673-5.236-3.673m6.17 2.124c2.37.137 4.31 1.904 4.714 4.193.35.15.678.337.98.555 1.208-1.262 1.64-3.16.944-4.885-.947-2.346-3.617-3.48-5.963-2.533-.693.28-1.277.713-1.736 1.24.409.428.768.906 1.061 1.43z" fill="#0568ae"/></svg>