<svg xmlns="http://www.w3.org/2000/svg" viewBox="0 0 36 36" enable-background="new 0 0 36 36"><path d="M14.368 6.747c2.41 0 4.458 1.532 5.235 3.675.207-.037.42-.059.637-.059 1.983 0 3.589 1.607 3.589 3.589l-.018.242c1.738.294 3.062 1.802 3.062 3.623 0 2.031-1.647 3.678-3.678 3.678h-13.722c-2.696 0-4.881-2.185-4.881-4.881l.002-.032-.002-.033.023-.398c.213-2.262 1.97-4.071 4.207-4.37.272-2.824 2.651-5.034 5.546-5.034m16.286 2.37c-.069-.06-.168-.07-.248-.025-.201.115-.413.216-.629.3-1.697.665-3.605.335-4.978-.86-1.559-1.357-2.092-3.558-1.327-5.477.034-.085.01-.182-.059-.242-.069-.06-.169-.069-.247-.025-.521.296-.985.675-1.377 1.127-.93 1.068-1.388 2.434-1.29 3.847.027.387.098.763.204 1.126 2.151.195 3.921 1.73 4.459 3.763.852.101 1.73.007 2.563-.319.789-.309 1.501-.812 2.062-1.455.393-.453.705-.964.927-1.519.033-.084.009-.181-.06-.241zm-7.784 16.37l-.528-.305.528-.305c.299-.173.401-.555.229-.854-.172-.299-.555-.401-.854-.229l-.529.305v-.61c0-.345-.28-.625-.625-.625s-.625.28-.625.625v.61l-.528-.305c-.299-.172-.682-.07-.854.229-.172.299-.07.681.229.854l.528.305-.528.305c-.299.173-.401.555-.229.854.116.201.326.313.542.313.106 0 .213-.027.312-.083l.528-.305v.61c0 .345.28.625.625.625s.625-.28.625-.625v-.61l.529.305c.098.057.206.083.312.083.216 0 .426-.112.542-.313.172-.299.07-.681-.229-.854zm-5.092 4.891l-.528-.305.528-.305c.299-.173.401-.555.229-.854-.172-.299-.555-.401-.854-.229l-.528.305v-.61c0-.345-.28-.625-.625-.625s-.625.28-.625.625v.61l-.529-.305c-.299-.172-.681-.07-.854.229-.173.299-.07.681.229.854l.528.305-.528.305c-.299.173-.401.555-.229.854.116.201.326.313.542.313.106 0 .213-.027.312-.083l.529-.305v.611c0 .345.28.625.625.625s.625-.28.625-.625v-.61l.528.305c.099.057.206.083.312.083.216 0 .426-.112.542-.313.173-.299.071-.682-.229-.855zm-5.091-4.89l-.529-.305.529-.305c.299-.173.401-.555.229-.854-.172-.299-.555-.402-.854-.229l-.528.305v-.611c0-.345-.28-.625-.625-.625s-.625.28-.625.625v.611l-.529-.305c-.299-.174-.681-.071-.854.229-.173.299-.07.681.229.854l.529.305-.529.305c-.299.172-.401.555-.229.854.116.201.326.313.542.313.106 0 .214-.027.312-.083l.529-.305v.61c0 .345.28.625.625.625s.625-.28.625-.625v-.61l.528.305c.098.057.206.083.312.083.216 0 .426-.112.542-.313.172-.299.07-.682-.229-.854z" fill="#0568ae"/></svg>