<svg xmlns="http://www.w3.org/2000/svg" viewBox="0 0 36 36" enable-background="new 0 0 36 36"><path d="M27.925 19.518c-.16 0-.308-.103-.358-.263-.062-.198.048-.408.246-.47l.325-.114c.732-.287 1.394-.754 1.914-1.352.267-.307.494-.643.676-1.002l-.265.113c-1.829.716-3.883.361-5.362-.926-1.561-1.359-2.167-3.505-1.581-5.461-.331.231-.633.501-.899.808-.611.702-1.009 1.553-1.152 2.461-.032.205-.227.345-.429.312-.205-.032-.344-.224-.313-.428.165-1.048.624-2.029 1.327-2.837.42-.484.916-.89 1.474-1.207.219-.123.491-.096.679.067.189.165.253.431.161.664-.706 1.772-.214 3.804 1.224 5.056 1.268 1.104 3.03 1.407 4.596.794.198-.078.394-.171.581-.277.217-.123.49-.097.679.068.189.164.253.431.161.663-.237.594-.571 1.142-.993 1.626-.599.688-1.362 1.227-2.207 1.558l-.373.131-.111.016zm.087 5.026c0-1.861-1.255-3.454-3.028-3.906-.033-2.147-1.79-3.883-3.945-3.883l-.393.021c-.919-2.176-3.071-3.618-5.448-3.618-2.023 0-3.885 1.017-4.982 2.72-.112.174-.062.406.113.518.174.111.406.062.518-.113.957-1.488 2.584-2.376 4.351-2.376 2.165 0 4.116 1.37 4.855 3.408.063.171.233.273.418.241.201-.036.387-.053.568-.053 1.762 0 3.196 1.433 3.196 3.195l-.008.115-.008.099c-.013.192.122.363.311.394 1.584.268 2.733 1.628 2.733 3.236 0 1.81-1.473 3.284-3.284 3.284h-13.65c-2.47 0-4.48-2.01-4.48-4.48 0-2.47 2.01-4.48 4.48-4.48.727 0 1.449.178 2.088.515.184.098.41.027.507-.157.096-.183.026-.41-.157-.506-.746-.394-1.589-.602-2.438-.602-2.884 0-5.23 2.346-5.23 5.23 0 2.884 2.346 5.23 5.23 5.23h13.65c2.223.001 4.033-1.808 4.033-4.032z" fill="#0568ae"/></svg>