<svg xmlns="http://www.w3.org/2000/svg" viewBox="0 0 36 36" enable-background="new 0 0 36 36"><path d="M18.883 30.147c-.114 0-.229-.02-.342-.061-.519-.189-.787-.763-.598-1.282l1.488-4.09c.189-.519.762-.786 1.282-.598.519.189.787.763.598 1.282l-1.488 4.09c-.148.406-.531.659-.94.659zm-4.014 1.554l2.292-6.302c.189-.519-.079-1.093-.598-1.282-.52-.188-1.093.079-1.282.598l-2.292 6.302c-.189.519.079 1.093.598 1.282.113.041.229.061.342.061.409-.001.793-.253.94-.659zm-3.345-2.213l1.488-4.09c.189-.519-.079-1.093-.598-1.282-.52-.188-1.093.079-1.282.598l-1.488 4.09c-.189.519.079 1.093.598 1.282.113.041.229.061.342.061.409 0 .792-.253.94-.659zm9.299-23.5c.429-.173.636-.661.463-1.09l-.688-1.704c-.173-.429-.661-.636-1.09-.463-.429.173-.636.661-.463 1.09l.688 1.704c.173.429.661.636 1.09.463zm8.399 3.489l1.704-.688c.429-.173.636-.661.463-1.09-.173-.429-.661-.636-1.09-.463l-1.704.688c-.429.173-.636.661-.463 1.09.173.429.661.636 1.09.463zm1.686 5.64c.199-.08.367-.236.457-.449.181-.426-.018-.917-.443-1.098l-1.691-.718c-.426-.181-.918.017-1.098.443-.181.426.018.918.443 1.098l1.691.718c.213.091.442.086.641.006zm-5.163-9.124c.199-.08.367-.236.457-.449l.719-1.691c.181-.426-.018-.918-.444-1.098-.426-.181-.917.017-1.098.443l-.719 1.691c-.181.426.018.917.444 1.098.213.091.442.086.641.006zm-11.341 1.459c-2.896 0-5.274 2.209-5.546 5.033-2.236.299-3.993 2.107-4.207 4.37l-.024.398.002.032-.002.032c0 2.696 2.186 4.881 4.881 4.881h13.723c2.031 0 3.678-1.647 3.678-3.678 0-1.821-1.324-3.329-3.062-3.623l.018-.242c0-1.982-1.607-3.589-3.59-3.589-.217 0-.43.022-.637.059-.775-2.141-2.825-3.673-5.234-3.673m6.17 2.124c2.37.137 4.311 1.904 4.715 4.193.349.15.677.337.98.555 1.209-1.262 1.641-3.159.944-4.884-.947-2.346-3.617-3.48-5.963-2.533-.693.28-1.277.713-1.736 1.24.408.427.766.905 1.06 1.429z" fill="#0568ae"/></svg>