<svg xmlns="http://www.w3.org/2000/svg" viewBox="0 0 36 36" enable-background="new 0 0 36 36"><path d="M14.371 12.952c2.41 0 4.458 1.532 5.235 3.675.207-.037.42-.059.637-.059 1.983 0 3.589 1.607 3.589 3.589l-.018.242c1.738.294 3.062 1.802 3.062 3.623 0 2.031-1.647 3.678-3.678 3.678h-13.722c-2.696 0-4.881-2.185-4.881-4.881l.002-.032-.002-.032.023-.398c.213-2.262 1.97-4.071 4.207-4.37.271-2.826 2.65-5.035 5.546-5.035m16.286 2.369c-.069-.06-.168-.07-.247-.025-.201.115-.413.216-.629.3-1.697.665-3.605.335-4.979-.86-1.559-1.357-2.092-3.558-1.327-5.477.034-.085.01-.182-.059-.242-.069-.06-.169-.069-.247-.025-.521.296-.985.675-1.377 1.127-.93 1.068-1.388 2.434-1.29 3.847.027.387.098.763.204 1.126 2.151.195 3.921 1.729 4.459 3.764.852.101 1.73.007 2.563-.319.789-.309 1.502-.812 2.062-1.455.394-.453.706-.964.927-1.519.032-.085.009-.182-.06-.242z" fill="#0568ae"/></svg>