<svg xmlns="http://www.w3.org/2000/svg" viewBox="0 0 36 36" enable-background="new 0 0 36 36"><path d="M19.776 5.525l-.688-1.704c-.173-.429.034-.917.463-1.09.429-.173.917.034 1.09.463l.688 1.704c.173.429-.034.917-.463 1.09-.429.173-.917-.034-1.09-.463zm9.489 3.952l1.704-.688c.429-.173.636-.661.463-1.09-.173-.429-.661-.636-1.09-.463l-1.704.688c-.429.173-.637.661-.463 1.09.173.429.661.636 1.09.463zm1.686 5.64c.199-.08.367-.236.457-.449.181-.426-.018-.917-.443-1.098l-1.691-.718c-.426-.181-.917.017-1.098.443-.181.426.018.918.443 1.098l1.691.718c.213.091.443.086.641.006zm-5.163-9.124c.199-.08.367-.236.458-.449l.718-1.691c.181-.426-.018-.918-.443-1.098-.426-.181-.917.017-1.099.443l-.718 1.691c-.181.426.018.917.443 1.098.214.091.443.086.641.006zm-5.171 3.583c2.37.137 4.31 1.904 4.714 4.193.35.15.678.337.98.555 1.208-1.262 1.641-3.16.944-4.885-.947-2.346-3.617-3.48-5.963-2.533-.693.28-1.277.713-1.736 1.24.409.428.767.906 1.061 1.43zm-2.871 5.924c-.111 0-.22.049-.294.14l-6.661 8.227c-.091.113-.11.269-.047.4s.194.215.34.215l3.183.006-1.797 6.153c-.05.173.028.357.188.44l.175.043c.111 0 .22-.049.294-.14l6.662-8.227c.091-.113.11-.269.047-.401-.063-.131-.205-.204-.341-.215l-3.196.008 1.811-6.167c.051-.173-.027-.357-.187-.441l-.177-.041m6.145-.602l.018-.242c0-1.982-1.607-3.589-3.589-3.589-.218 0-.431.022-.637.059-.777-2.143-2.826-3.675-5.235-3.675-2.895 0-5.274 2.209-5.546 5.033-2.236.299-3.994 2.107-4.207 4.37l-.023.398.002.032-.002.032c0 2.696 2.186 4.881 4.881 4.881h.66l6.073-7.502c.357-.441.89-.695 1.46-.695.302 0 .604.074.873.215.789.415 1.179 1.336.928 2.191l-1.245 4.24 1.187-.003h.058l.057.004c.687.051 1.293.458 1.583 1.062.075.157.126.322.155.49h1.933c2.031 0 3.678-1.647 3.678-3.678 0-1.821-1.324-3.329-3.062-3.623z" fill="#0568ae"/></svg>