<svg xmlns="http://www.w3.org/2000/svg" viewBox="0 0 36 36" enable-background="new 0 0 36 36"><path d="M20.081 11.162c-.137 0-.268-.074-.334-.204l-.903-1.765c-.094-.185-.021-.41.163-.505.186-.095.411-.021.505.163l.903 1.765c.094.185.021.41-.163.505l-.171.041zm8.675 2.705l1.777-.91c.184-.094.257-.32.163-.505-.094-.184-.32-.258-.505-.163l-1.777.911c-.184.094-.257.32-.163.505.066.13.198.204.334.204l.171-.042zm2.483 5.218c.063-.197-.045-.409-.242-.472l-1.908-.615c-.199-.064-.409.045-.472.242-.064.197.045.409.242.472l1.908.616.115.018c.159-.001.306-.102.357-.261zm-5.98-8.572l.607-1.881c.064-.197-.044-.408-.242-.472-.195-.063-.409.045-.472.242l-.607 1.881c-.064.197.044.409.242.472l.115.018c.158 0 .306-.101.357-.26zm2.054 8.338c.126-.218.237-.448.329-.683.294-.753.398-1.576.302-2.382-.209-1.75-1.347-3.271-2.969-3.967-.797-.342-1.675-.469-2.539-.366-.865.104-1.688.433-2.382.954l-.213.169c-.159.133-.18.369-.047.528.133.159.369.18.528.047l.182-.144c.588-.442 1.287-.721 2.021-.809.732-.087 1.477.02 2.154.311 1.377.591 2.343 1.881 2.52 3.367.083.684-.006 1.382-.255 2.021-.078.2-.171.395-.278.579-.104.179-.043.409.136.513l.188.051c.128-.003.254-.07.323-.189zm.699 5.693c0-1.861-1.255-3.453-3.028-3.905-.033-2.147-1.79-3.883-3.945-3.883l-.393.021c-.919-2.176-3.071-3.618-5.448-3.618-2.023 0-3.885 1.017-4.981 2.72-.112.174-.062.406.113.518.174.111.406.062.518-.113.957-1.488 2.584-2.376 4.35-2.376 2.165 0 4.116 1.37 4.855 3.408.063.171.233.273.418.241.201-.036.387-.053.568-.053 1.762 0 3.196 1.433 3.196 3.195l-.008.117-.009.094c-.014.193.121.365.311.397 1.584.268 2.733 1.628 2.733 3.236 0 1.81-1.473 3.284-3.284 3.284h-13.65c-2.47 0-4.48-2.01-4.48-4.48 0-2.47 2.01-4.48 4.48-4.48.727 0 1.449.178 2.088.515.184.098.41.027.507-.157.097-.183.027-.41-.156-.506-.746-.394-1.589-.602-2.438-.602-2.884 0-5.23 2.346-5.23 5.23 0 2.884 2.346 5.23 5.23 5.23h13.65c2.223 0 4.033-1.809 4.033-4.033z" fill="#0568ae"/></svg>