<svg xmlns="http://www.w3.org/2000/svg" viewBox="0 0 36 36" enable-background="new 0 0 36 36"><path d="M11.642 16.543c2.02 0 3.738 1.284 4.389 3.081.173-.031.352-.05.535-.05 1.662 0 3.009 1.347 3.009 3.008l-.015.203c1.456.246 2.567 1.51 2.567 3.037 0 1.703-1.381 3.084-3.084 3.084h-11.504c-2.26 0-4.092-1.832-4.092-4.092l.001-.027-.001-.027.02-.334c.179-1.897 1.652-3.413 3.527-3.663.226-2.368 2.22-4.22 4.648-4.22m20.836.846c-.108-.094-.263-.109-.387-.038-.316.179-.647.337-.985.47-2.656 1.04-5.641.524-7.79-1.346-2.438-2.123-3.272-5.567-2.076-8.57.053-.133.016-.284-.091-.378-.108-.094-.265-.108-.387-.039-.815.463-1.541 1.057-2.155 1.764-1.455 1.671-2.172 3.808-2.019 6.018.07 1.009.325 1.974.732 2.868 1.83.31 3.288 1.724 3.661 3.531.486.225.914.539 1.286.907 1.803.596 3.787.565 5.627-.156 1.234-.483 2.349-1.271 3.225-2.277.616-.708 1.104-1.508 1.45-2.376.053-.132.016-.284-.091-.378z" fill="#0568ae"/></svg>