<svg xmlns="http://www.w3.org/2000/svg" viewBox="0 0 36 36" enable-background="new 0 0 36 36"><path d="M24.963 22.426c-.105 0-.21-.044-.285-.131-.135-.157-.117-.394.041-.529 1.189-1.018 1.871-2.499 1.871-4.061 0-1.904-1.025-3.679-2.676-4.633-1.622-.94-3.73-.939-5.351 0-.74.428-1.376 1.036-1.838 1.758-.112.175-.343.225-.518.114-.174-.112-.225-.344-.114-.518.526-.823 1.25-1.515 2.094-2.003 1.848-1.07 4.252-1.071 6.102 0 1.881 1.087 3.05 3.112 3.05 5.283 0 1.782-.777 3.47-2.132 4.631-.07.059-.157.089-.244.089zm-3.396-12.672v-2.479c0-.207-.168-.375-.375-.375s-.375.168-.375.375v2.479c0 .207.168.375.375.375s.375-.168.375-.375zm10.394 7.899c0-.207-.168-.375-.375-.375h-2.494c-.207 0-.375.168-.375.375s.168.375.375.375h2.494c.207 0 .375-.168.375-.375zm-16.089-5.321c.147-.146.147-.384 0-.53l-1.723-1.722c-.146-.147-.384-.147-.53 0-.146.146-.146.384 0 .53l1.723 1.722c.073.073.169.11.265.11s.192-.037.265-.11zm12.943 12.944c.146-.146.146-.384 0-.53l-1.772-1.772c-.146-.147-.383-.147-.53 0-.146.146-.146.384 0 .53l1.772 1.772c.073.073.169.11.265.11s.192-.037.265-.11zm-1.771-12.944l1.748-1.747c.146-.146.146-.384 0-.53-.146-.146-.383-.147-.53 0l-1.748 1.747c-.146.146-.146.384 0 .53.073.073.169.11.265.11s.192-.037.265-.11zm-3.494 13.224c0-1.573-1.05-2.92-2.54-3.321-.052-1.812-1.543-3.269-3.367-3.269l-.291.014c-.79-1.824-2.604-3.029-4.606-3.029-1.716 0-3.297.863-4.227 2.308-.112.174-.062.406.112.518.174.112.406.062.518-.112.792-1.23 2.136-1.964 3.596-1.964 1.79 0 3.403 1.132 4.013 2.818.062.172.238.271.418.241.162-.029.318-.043.465-.043 1.444 0 2.619 1.174 2.619 2.617l-.006.087-.008.088c-.013.192.122.362.312.394 1.298.22 2.241 1.335 2.241 2.653 0 1.484-1.208 2.692-2.692 2.692h-11.444c-2.038 0-3.695-1.658-3.695-3.695 0-2.038 1.658-3.696 3.695-3.696.599 0 1.195.147 1.722.425.183.098.41.027.507-.157.096-.183.026-.41-.157-.506-.634-.335-1.351-.512-2.072-.512-2.451 0-4.445 1.994-4.445 4.446 0 2.451 1.994 4.445 4.445 4.445h11.444c1.898 0 3.443-1.544 3.443-3.442z" fill="#0568ae"/></svg>