<svg xmlns="http://www.w3.org/2000/svg" viewBox="0 0 36 36" enable-background="new 0 0 36 36"><path d="M20.194 4.962v-2.297c0-.578.469-1.047 1.047-1.047s1.047.469 1.047 1.047v2.297c0 .578-.469 1.047-1.047 1.047s-1.047-.469-1.047-1.047zm9.148 9.021h2.297c.579 0 1.047-.469 1.047-1.047s-.468-1.047-1.047-1.047h-2.297c-.578 0-1.047.469-1.047 1.047 0 .579.469 1.047 1.047 1.047zm-13.767-5.575c.268 0 .536-.102.741-.307.409-.409.409-1.072 0-1.48l-1.625-1.624c-.409-.409-1.071-.409-1.48 0-.409.409-.409 1.072 0 1.481l1.624 1.624c.205.204.473.306.74.306zm13.082 12.902c.268 0 .536-.102.74-.307.409-.409.409-1.072 0-1.481l-1.624-1.624c-.409-.409-1.071-.409-1.481 0-.409.409-.409 1.072 0 1.48l1.624 1.624c.206.206.474.308.741.308zm-1.714-12.992c.268 0 .536-.102.74-.307l1.624-1.624c.409-.409.409-1.072 0-1.48-.409-.409-1.072-.409-1.48 0l-1.624 1.624c-.409.409-.409 1.072 0 1.481.204.204.472.306.74.306zm-5.639-1.044c-2.735 0-5.019 1.919-5.587 4.484.484.427.911.922 1.244 1.488 1.996.174 3.623 1.654 4.021 3.578.794.368 1.456.952 1.919 1.673 2.385-.692 4.13-2.889 4.13-5.496 0-3.164-2.564-5.727-5.727-5.727zm-7.119 11.223c-.094 0-.187.042-.25.119l-5.662 6.993c-.078.096-.093.228-.041.34.053.111.166.183.29.183l2.705.005-1.527 5.23c-.043.147.024.303.159.374l.149.037c.094 0 .187-.042.25-.119l5.663-6.993c.078-.096.094-.229.04-.34s-.174-.174-.29-.182l-2.716.007 1.539-5.242c.043-.147-.023-.303-.159-.375l-.15-.037m5.375-.557l.015-.202c0-1.662-1.348-3.009-3.009-3.009-.183 0-.361.019-.535.05-.651-1.797-2.369-3.081-4.389-3.081-2.428 0-4.422 1.852-4.649 4.22-1.875.251-3.348 1.767-3.527 3.663l-.02.334.001.027-.001.027c0 2.26 1.832 4.092 4.092 4.092h.058l5.171-6.386c.347-.431.864-.677 1.417-.677.293 0 .585.072.846.208.766.401 1.145 1.295.902 2.126l-.973 3.314.707-.002h.057l.057.004c.664.049 1.25.443 1.532 1.028.06.124.1.253.129.385h1.601c1.703 0 3.084-1.381 3.084-3.084 0-1.527-1.11-2.791-2.566-3.037z" fill="#0568ae"/></svg>