<svg xmlns="http://www.w3.org/2000/svg" viewBox="0 0 36 36" enable-background="new 0 0 36 36"><path d="M24.833 23.541c-.205 0-.373-.165-.375-.371-.002-.207.164-.377.371-.379.963-.011 1.909-.196 2.811-.549 1.178-.461 2.243-1.212 3.08-2.174.564-.649 1.016-1.378 1.343-2.167-.302.166-.617.314-.938.439-2.787 1.091-5.918.55-8.172-1.412-2.53-2.203-3.414-5.762-2.219-8.889-.74.434-1.399.981-1.961 1.629-1.314 1.51-2.004 3.44-1.943 5.436.006.207-.156.38-.363.386-.201.017-.38-.156-.386-.363-.067-2.185.688-4.298 2.127-5.951.642-.739 1.399-1.359 2.252-1.844.263-.149.591-.115.818.082.228.199.306.52.193.801-1.137 2.855-.344 6.129 1.974 8.148 2.044 1.778 4.883 2.267 7.407 1.279.322-.126.637-.276.936-.447.263-.149.592-.116.819.081.228.198.306.52.194.8-.362.907-.872 1.743-1.516 2.484-.917 1.052-2.083 1.875-3.372 2.38-.987.387-2.022.589-3.076.601h-.004zm-1.283 1.861c0-1.573-1.05-2.921-2.54-3.322-.053-1.811-1.542-3.269-3.367-3.269l-.292.014c-.789-1.824-2.603-3.029-4.606-3.029-1.717 0-3.297.863-4.227 2.308-.112.174-.062.406.113.518.174.112.406.062.518-.112.791-1.23 2.135-1.964 3.596-1.964 1.79 0 3.402 1.132 4.013 2.818.062.171.238.273.418.241.164-.029.316-.043.466-.043 1.444 0 2.618 1.174 2.618 2.618l-.006.089-.007.086c-.013.192.122.362.311.394 1.298.219 2.241 1.335 2.241 2.653 0 1.484-1.208 2.692-2.692 2.692h-11.443c-2.038 0-3.696-1.658-3.696-3.696 0-2.038 1.658-3.695 3.696-3.695.6 0 1.196.147 1.722.424.183.098.41.027.507-.157.096-.183.026-.41-.157-.506-.634-.335-1.35-.511-2.072-.511-2.451 0-4.446 1.994-4.446 4.445 0 2.452 1.994 4.446 4.446 4.446h11.444c1.897 0 3.442-1.545 3.442-3.442z" fill="#0568ae"/></svg>