<svg xmlns="http://www.w3.org/2000/svg" viewBox="0 0 36 36" enable-background="new 0 0 36 36"><path d="M20.128 9.962v-2.297c0-.578.469-1.047 1.047-1.047s1.047.469 1.047 1.047v2.297c0 .578-.469 1.047-1.047 1.047s-1.047-.469-1.047-1.047zm9.148 9.021h2.297c.579 0 1.047-.469 1.047-1.047s-.468-1.047-1.047-1.047h-2.297c-.578 0-1.047.469-1.047 1.047 0 .579.469 1.047 1.047 1.047zm-13.767-5.575c.268 0 .536-.102.741-.307.409-.409.409-1.072 0-1.48l-1.624-1.624c-.409-.409-1.071-.409-1.481 0-.409.409-.409 1.072 0 1.481l1.624 1.624c.204.204.472.306.74.306zm13.082 12.902c.268 0 .536-.102.74-.307.409-.409.409-1.072 0-1.481l-1.624-1.624c-.409-.409-1.071-.409-1.48 0-.409.409-.409 1.072 0 1.48l1.624 1.624c.204.206.472.308.74.308zm-1.714-12.992c.268 0 .536-.102.74-.307l1.624-1.624c.409-.409.409-1.072 0-1.481-.409-.409-1.072-.409-1.481 0l-1.624 1.624c-.409.409-.409 1.072 0 1.481.205.205.473.307.741.307zm-15.301 3.379c-2.428 0-4.422 1.852-4.65 4.219-1.875.251-3.348 1.767-3.526 3.664l-.02.334.001.027-.001.027c0 2.26 1.832 4.092 4.092 4.092h11.504c1.703 0 3.084-1.381 3.084-3.084 0-1.527-1.11-2.791-2.567-3.037l.015-.202c0-1.662-1.348-3.009-3.009-3.009-.183 0-.361.019-.535.05-.65-1.797-2.368-3.081-4.388-3.081m9.662-4.423c-2.736 0-5.02 1.919-5.588 4.484.484.427.911.922 1.244 1.488 1.996.174 3.623 1.654 4.021 3.577.794.368 1.456.952 1.919 1.673 2.385-.692 4.13-2.889 4.13-5.496.001-3.163-2.563-5.726-5.726-5.726z" fill="#0568ae"/></svg>