<svg xmlns="http://www.w3.org/2000/svg" viewBox="0 0 36 36" enable-background="new 0 0 36 36"><path d="M20.733 28.313c-.114 0-.229-.02-.342-.061-.519-.189-.787-.763-.598-1.282l1.488-4.09c.189-.519.763-.786 1.282-.598.519.189.787.763.598 1.282l-1.488 4.09c-.148.407-.532.659-.94.659zm-4.015 1.554l2.293-6.302c.189-.519-.079-1.093-.598-1.282-.52-.188-1.093.079-1.282.598l-2.293 6.302c-.189.519.079 1.093.598 1.282.113.041.229.061.342.061.409 0 .793-.253.94-.659zm-3.345-2.212l1.488-4.09c.189-.519-.079-1.093-.598-1.282-.52-.188-1.093.079-1.282.598l-1.488 4.09c-.189.519.079 1.093.598 1.282.113.041.229.061.342.061.409-.001.793-.253.94-.659zm12.706-14.575l.018-.242c0-1.982-1.607-3.589-3.589-3.589-.218 0-.431.022-.638.059-.776-2.143-2.826-3.675-5.235-3.675-2.896 0-5.274 2.209-5.546 5.033-2.236.299-3.994 2.107-4.207 4.37l-.023.398.002.032-.002.034c0 2.696 2.186 4.881 4.881 4.881h13.723c2.031 0 3.678-1.647 3.678-3.678 0-1.822-1.324-3.33-3.062-3.623z" fill="#0568ae"/></svg>