<svg xmlns="http://www.w3.org/2000/svg" viewBox="0 0 36 36" enable-background="new 0 0 36 36"><path d="M16.129 29.805l-.128-.022c-.195-.071-.295-.286-.224-.481l2.137-5.871c.071-.195.287-.293.48-.224.195.071.295.286.224.481l-2.137 5.871c-.055.152-.199.246-.352.246zm4.679-2.028l1.488-4.09c.071-.195-.03-.41-.224-.481-.196-.07-.41.03-.481.224l-1.488 4.09c-.071.195.03.41.224.481l.128.022c.153.001.297-.094.353-.246zm-7.264 0l1.489-4.09c.071-.195-.029-.41-.224-.481-.194-.069-.41.029-.481.224l-1.489 4.09c-.071.195.029.41.224.481l.128.022c.154.001.298-.094.353-.246zm15.855-10.35c0-1.861-1.254-3.454-3.028-3.906-.033-2.147-1.79-3.883-3.946-3.883l-.393.021c-.919-2.176-3.071-3.618-5.448-3.618-2.023 0-3.885 1.017-4.981 2.72-.112.174-.062.406.113.518.173.112.406.062.518-.113.957-1.488 2.584-2.376 4.35-2.376 2.165 0 4.116 1.37 4.855 3.408.062.171.236.274.418.241.201-.036.387-.053.568-.053 1.762 0 3.196 1.433 3.196 3.195l-.008.113-.009.101c-.013.192.122.363.312.395 1.583.267 2.733 1.628 2.733 3.236 0 1.81-1.473 3.284-3.284 3.284h-13.651c-2.47 0-4.48-2.01-4.48-4.48 0-2.47 2.01-4.481 4.48-4.481.727 0 1.449.178 2.088.515.183.097.41.027.507-.157.097-.183.027-.41-.156-.507-.747-.392-1.59-.6-2.439-.6-2.884 0-5.23 2.346-5.23 5.231 0 2.884 2.346 5.23 5.23 5.23h13.651c2.224 0 4.034-1.809 4.034-4.034z" fill="#0568ae"/></svg>