<svg xmlns="http://www.w3.org/2000/svg" viewBox="0 0 36 36" enable-background="new 0 0 36 36"><path d="M12.732 24.998c-.058.161-.246.293-.417.293h-2.165c-.171 0-.264-.132-.207-.293l.79-2.201c.058-.161.246-.293.417-.293h2.165c.171 0 .265.132.207.293l-.79 2.201zm6.588-2.202c.058-.161-.035-.293-.206-.293h-2.165c-.171 0-.359.132-.417.293l-.79 2.201c-.058.161.035.293.207.293h2.165c.171 0 .359-.132.417-.293l.789-2.201zm5.754 0c.058-.161-.035-.293-.206-.293h-2.165c-.171 0-.359.132-.417.293l-.79 2.201c-.058.161.035.293.207.293h2.165c.171 0 .359-.132.417-.293l.789-2.201zm-7.274 4.282c.058-.161-.035-.293-.207-.293h-2.165c-.171 0-.359.132-.417.293l-.79 2.201c-.058.161.035.293.207.293h2.165c.171 0 .359-.132.417-.293l.79-2.201zm5.743 0c.058-.161-.035-.293-.207-.293h-2.165c-.171 0-.359.132-.417.293l-.79 2.201c-.058.161.035.293.206.293h2.165c.171 0 .359-.132.417-.293l.791-2.201zm-6.908-21.444c-2.896 0-5.274 2.209-5.546 5.033-2.236.299-3.994 2.107-4.207 4.37l-.023.398.002.032-.002.033c0 2.696 2.186 4.881 4.881 4.881h13.723c2.031 0 3.678-1.647 3.678-3.678 0-1.821-1.324-3.329-3.062-3.623l.018-.242c0-1.982-1.607-3.589-3.589-3.589-.218 0-.431.022-.638.059-.776-2.143-2.825-3.674-5.235-3.674" fill="#0568ae"/></svg>