<svg xmlns="http://www.w3.org/2000/svg" viewBox="0 0 36 36" enable-background="new 0 0 36 36"><path d="M15.363 32.165c-.114 0-.229-.02-.342-.061-.519-.189-.787-.763-.598-1.281l2.765-7.6c.189-.52.765-.786 1.282-.598.519.189.787.762.598 1.281l-2.765 7.6c-.148.407-.532.659-.94.659zm7.782-5.397l1.041-2.86c.188-.519-.079-1.093-.598-1.281-.517-.188-1.093.078-1.282.598l-1.041 2.86c-.188.519.079 1.093.598 1.281.113.041.228.061.342.061.408-.001.792-.253.94-.659zm-11.797 4.739l1.032-2.837c.188-.519-.079-1.093-.598-1.281-.517-.188-1.093.078-1.282.598l-1.032 2.837c-.188.519.079 1.093.598 1.281.113.041.228.061.342.061.408-.001.792-.253.94-.659zm11.169-1.107l-.528-.305.528-.305c.299-.173.401-.555.229-.854-.173-.299-.555-.402-.854-.229l-.529.305v-.611c0-.345-.28-.625-.625-.625s-.625.28-.625.625v.61l-.528-.305c-.3-.173-.681-.07-.854.229-.172.299-.07.681.229.854l.529.305-.529.306c-.299.173-.401.555-.229.854.116.2.326.313.542.313.106 0 .213-.027.312-.084l.528-.305v.61c0 .345.28.625.625.625s.625-.28.625-.625v-.611l.529.305c.099.057.206.084.312.084.216 0 .426-.112.542-.313.173-.298.07-.68-.229-.853zm-8.348-5.851l-.529-.305.529-.305c.299-.173.401-.555.229-.854-.173-.299-.555-.401-.854-.229l-.529.305v-.611c0-.345-.28-.625-.625-.625s-.625.28-.625.625v.61l-.528-.305c-.299-.172-.681-.07-.854.229-.172.299-.07.681.229.854l.529.305-.529.305c-.299.173-.401.555-.229.854.116.201.326.313.542.313.106 0 .213-.027.312-.084l.528-.305v.61c0 .345.28.625.625.625s.625-.28.625-.625v-.61l.529.305c.099.057.206.084.312.084.216 0 .426-.112.542-.313.172-.298.07-.68-.229-.853zm11.91-11.469l.018-.242c0-1.982-1.607-3.589-3.589-3.589-.218 0-.431.023-.638.059-.776-2.143-2.826-3.675-5.235-3.675-2.896 0-5.274 2.209-5.546 5.033-2.236.299-3.994 2.107-4.207 4.37l-.023.398.002.032-.002.032c0 2.696 2.186 4.881 4.881 4.881h13.723c2.031 0 3.678-1.647 3.678-3.678 0-1.82-1.324-3.328-3.062-3.621z" fill="#0568ae"/></svg>