<svg xmlns="http://www.w3.org/2000/svg" viewBox="0 0 36 36" enable-background="new 0 0 36 36"><path d="M21.553 28.07c-.069.12-.195.188-.325.188l-.187-.05-2.666-1.539v2.92c0 .207-.168.375-.375.375s-.375-.168-.375-.375v-2.92l-2.666 1.539c-.18.104-.409.042-.512-.137-.103-.179-.042-.409.137-.512l3.041-1.756v-7.586l-6.569-3.793-3.041 1.756-.187.05c-.13 0-.256-.067-.325-.188-.104-.179-.042-.409.137-.512l2.666-1.539-2.529-1.46c-.179-.104-.241-.333-.137-.512.103-.179.332-.241.512-.137l2.529 1.46v-3.078c0-.207.168-.375.375-.375s.375.168.375.375v3.511l6.569 3.792 6.569-3.793v-3.511c0-.207.168-.375.375-.375s.375.168.375.375v3.078l2.529-1.46c.18-.104.409-.042.512.137.104.179.042.409-.137.512l-2.529 1.46 2.666 1.539c.179.103.241.333.137.512-.069.12-.195.188-.325.188l-.187-.05-3.041-1.756-6.569 3.793v7.586l3.041 1.756c.179.103.24.333.137.512zm-6.969-19.627l3.041 1.756v4.801c0 .207.168.375.375.375s.375-.168.375-.375v-4.802l3.041-1.756c.179-.104.241-.333.137-.512-.103-.179-.332-.241-.512-.137l-2.666 1.539v-2.92c0-.207-.168-.375-.375-.375s-.375.168-.375.375v2.92l-2.666-1.539c-.18-.104-.409-.042-.512.137-.103.18-.042.409.137.513zm13.401 11.378l-3.04 1.756-4.159-2.401c-.18-.104-.409-.042-.512.137-.103.179-.042.409.137.512l4.159 2.401v3.511c0 .207.168.375.375.375s.375-.168.375-.375v-3.078l2.529 1.46.187.05c.13 0 .256-.067.325-.188.104-.179.042-.409-.137-.512l-2.529-1.46 2.666-1.539c.179-.104.241-.333.137-.512-.104-.179-.334-.241-.513-.137zm-12.259-.508c-.103-.179-.332-.241-.512-.137l-4.159 2.401-3.04-1.756c-.18-.104-.409-.042-.512.137-.104.179-.042.409.137.512l2.666 1.539-2.529 1.46c-.179.104-.241.333-.137.512.069.12.195.188.325.188l.187-.05 2.529-1.46v3.078c0 .207.168.375.375.375s.375-.168.375-.375v-3.511l4.159-2.401c.179-.104.24-.333.136-.512z" fill="#0568ae"/></svg>