<svg xmlns="http://www.w3.org/2000/svg" viewBox="0 0 36 36" enable-background="new 0 0 36 36"><path d="M29.038 19.646c-.276-.478-.888-.643-1.366-.366l-2.728 1.575-4.944-2.855 4.944-2.854 2.728 1.575c.158.091.329.134.499.134.346 0 .682-.179.867-.5.276-.478.112-1.09-.366-1.366l-1.728-.998 1.591-.919c.478-.276.642-.888.366-1.366-.276-.478-.887-.642-1.366-.366l-1.592.919v-1.996c0-.552-.448-1-1-1s-1 .448-1 1v3.15l-4.943 2.855v-5.709l2.728-1.575c.478-.276.642-.888.366-1.366-.276-.478-.887-.643-1.366-.366l-1.728.998v-1.838c0-.552-.448-1-1-1s-1 .448-1 1v1.838l-1.728-.998c-.478-.277-1.09-.112-1.366.366s-.112 1.09.366 1.366l2.728 1.575v5.709l-4.944-2.854v-3.15c0-.552-.448-1-1-1s-1 .448-1 1v1.996l-1.592-.92c-.478-.276-1.09-.112-1.366.366s-.112 1.09.366 1.366l1.591.919-1.728.998c-.478.276-.642.888-.366 1.366.185.321.521.5.867.5.17 0 .342-.043.499-.134l2.728-1.575 4.945 2.854-4.944 2.855-2.728-1.575c-.478-.277-1.09-.112-1.366.366s-.112 1.09.366 1.366l1.728.998-1.591.919c-.478.276-.642.888-.366 1.366.185.321.521.5.867.5.17 0 .342-.043.499-.134l1.592-.919v1.996c0 .552.448 1 1 1s1-.448 1-1v-3.15l4.943-2.856v5.709l-2.728 1.575c-.478.276-.642.888-.366 1.366.276.479.888.643 1.366.366l1.728-.997v1.837c0 .552.448 1 1 1s1-.448 1-1v-1.837l1.728.998c.157.091.329.134.499.134.346 0 .682-.18.867-.5.276-.478.112-1.09-.366-1.366l-2.728-1.576v-5.709l4.944 2.854v3.15c0 .552.448 1 1 1s1-.448 1-1v-1.996l1.592.919c.157.091.329.134.499.134.346 0 .682-.18.867-.5.276-.478.112-1.09-.366-1.366l-1.591-.919 1.728-.998c.478-.274.642-.886.365-1.364z" fill="#0568ae"/></svg>