<svg xmlns="http://www.w3.org/2000/svg" viewBox="0 0 36 36" enable-background="new 0 0 36 36"><path d="M25.38 21.461h-.935c-.207 0-.375-.168-.375-.375s.168-.375.375-.375h.935c1.81 0 3.284-1.473 3.284-3.284 0-1.608-1.149-2.969-2.733-3.236-.19-.032-.325-.203-.312-.395l.008-.098.008-.115c0-1.761-1.434-3.195-3.195-3.195-.18 0-.371.018-.568.053-.185.032-.356-.07-.418-.241-.739-2.039-2.69-3.408-4.855-3.408-1.767 0-3.393.888-4.35 2.376-.113.175-.345.224-.518.113-.174-.112-.225-.344-.113-.518 1.096-1.703 2.958-2.72 4.981-2.72 2.377 0 4.529 1.442 5.448 3.618l.393-.021c2.155 0 3.912 1.736 3.945 3.883 1.774.452 3.028 2.044 3.028 3.906.001 2.223-1.809 4.032-4.033 4.032zm-12.525-.375c0-.207-.168-.375-.375-.375h-.75c-.284 0-.567-.026-.842-.079-2.108-.401-3.638-2.252-3.638-4.402 0-2.47 2.01-4.481 4.481-4.481.727 0 1.449.178 2.088.515.184.096.41.027.507-.157.096-.183.026-.41-.157-.507-.748-.392-1.591-.6-2.439-.6-2.884 0-5.231 2.346-5.231 5.231 0 2.51 1.787 4.67 4.248 5.138.321.062.652.092.982.092h.75c.208 0 .376-.168.376-.375zm2.976 8.456l6.698-8.271c.091-.112.109-.267.047-.398-.063-.13-.194-.213-.338-.213h-.001l-3.22.008 1.822-6.205c.05-.172-.027-.355-.186-.438-.158-.083-.353-.043-.466.096l-6.697 8.271c-.091.112-.109.267-.047.397s.193.213.338.214l3.206.006-1.808 6.191c-.05.171.028.354.186.437l.174.043c.111.001.219-.048.292-.138zm3.76-13.491l-1.436 4.889c-.033.113-.011.236.06.33.071.094.182.15.3.15h.001l2.934-.007-5.027 6.207 1.425-4.878c.033-.113.011-.235-.06-.33-.071-.094-.182-.15-.3-.15l-2.921-.006 5.024-6.205z" fill="#0568ae"/></svg>