<svg xmlns="http://www.w3.org/2000/svg" viewBox="0 0 36 36" enable-background="new 0 0 36 36"><path d="M19.053 13.861l.175.043c.16.083.238.268.187.441l-1.811 6.167 3.196-.008c.103.008.209.051.282.128l.059.086c.063.132.045.288-.047.401l-6.662 8.228c-.073.091-.183.139-.293.139l-.175-.043c-.159-.083-.238-.268-.187-.44l1.796-6.153-3.183-.007c-.146 0-.277-.084-.34-.215s-.044-.287.047-.4l1.292-1.596 5.369-6.632c.075-.091.184-.139.295-.139m7.026-.781l.018-.242c0-1.982-1.607-3.589-3.589-3.589-.218 0-.431.022-.638.059-.776-2.143-2.826-3.675-5.235-3.675-2.896 0-5.274 2.209-5.546 5.033-2.236.299-3.994 2.107-4.207 4.37l-.023.398.002.032-.002.034c0 2.671 2.146 4.838 4.808 4.878l.557-.689 5.368-6.63c.358-.443.89-.698 1.46-.698.304 0 .606.075.871.214.791.414 1.183 1.336.931 2.193l-1.245 4.24 1.187-.003h.057l.057.004c.487.036.937.248 1.269.602.132.141.239.299.315.461l.112.31h2.857c2.031 0 3.678-1.647 3.678-3.678 0-1.823-1.324-3.331-3.062-3.624z" fill="#0568ae"/></svg>