<svg xmlns="http://www.w3.org/2000/svg" viewBox="0 0 36 36" enable-background="new 0 0 36 36"><path d="M23.68 11.231c.207 0 .375-.168.375-.375s-.168-.375-.375-.375h-2.528l-.005-3.302h2.534c.207 0 .375-.168.375-.375s-.168-.375-.375-.375h-2.535l-.001-.604c0-1.727-1.408-3.132-3.139-3.132-1.72 0-3.119 1.401-3.119 3.143v16.632c-1.713 1.079-2.769 2.978-2.769 5.008 0 3.271 2.656 5.932 5.922 5.932 3.266 0 5.922-2.661 5.922-5.932 0-2.035-1.064-3.938-2.79-5.021l-.005-3.119h2.514c.207 0 .375-.168.375-.375s-.168-.375-.375-.375h-2.515l-.005-3.302h2.521c.207 0 .375-.168.375-.375s-.168-.375-.375-.375h-2.521l-.006-3.302h2.525zm-.469 16.244c0 2.857-2.32 5.182-5.172 5.182s-5.172-2.325-5.172-5.182c0-1.836.989-3.55 2.582-4.472.116-.067.187-.191.187-.325v-16.863c0-1.308 1.063-2.372 2.369-2.372 1.317 0 2.389 1.069 2.389 2.383l.027 16.842c0 .134.072.258.188.324 1.605.925 2.602 2.643 2.602 4.483zm-4.793-3.372v-11.089c0-.207-.168-.375-.375-.375s-.375.168-.375.375v11.088c-1.687.185-3.004 1.618-3.004 3.353 0 1.861 1.514 3.375 3.375 3.375s3.375-1.514 3.375-3.375c0-1.733-1.313-3.163-2.996-3.352zm-.379 5.977c-1.448 0-2.625-1.178-2.625-2.625s1.178-2.625 2.625-2.625 2.625 1.178 2.625 2.625c0 1.448-1.178 2.625-2.625 2.625z" fill="#0568ae"/></svg>