<svg xmlns="http://www.w3.org/2000/svg" viewBox="0 0 36 36">
  <path fill="#0568ae" d="M19 20v4.1c0 .3.2.5.4.6 1 .5 1.6 1.5 1.6 2.7 0 1.7-1.3 3-3 3s-3-1.3-3-3c0-1.1.6-2.1 1.5-2.6.1-.1.5-.3.5-.7V18l2 2zm1.5 1.5v1.6c0 .3.1.6.4.8 1.1.9 1.7 2.2 1.7 3.5 0 2.5-2 4.6-4.5 4.6s-4.5-2-4.5-4.6c0-1.4.6-2.6 1.7-3.5.2-.2.4-.5.4-.8v-6.6l-2-2v8.1c-1.3 1.2-2.1 2.9-2.1 4.7 0 3.6 2.9 6.6 6.5 6.6s6.5-2.9 6.5-6.6c0-.8-.1-1.5-.4-2.2l-3.7-3.6zm10.7 7.2c-.2.2-.4.3-.7.3-.3 0-.5-.1-.7-.3l-24-24c-.4-.4-.4-1 0-1.4.4-.4 1-.4 1.4 0l6.3 6.3V6.5C13.5 4 15.5 2 18 2s4.5 2 4.5 4.5v12.1l8.8 8.8c.3.3.3.9-.1 1.3zM15.5 11.6l1.5 1.5V9c0-.6.4-1 1-1s1 .4 1 1v6.1l1.4 1.4V6.4C20.4 5.1 19.3 4 18 4c-1.4 0-2.5 1.1-2.5 2.5v5.1z"/>
</svg>
