<svg xmlns="http://www.w3.org/2000/svg" viewBox="0 0 36 36" enable-background="new 0 0 36 36"><path d="M26.399 18.324c-.106 0-.211-.044-.285-.131-.135-.157-.117-.394.041-.529 1.189-1.019 1.871-2.5 1.871-4.062 0-1.903-1.025-3.679-2.676-4.633-1.624-.94-3.729-.939-5.351 0-.741.428-1.376 1.036-1.838 1.758-.111.174-.344.225-.518.114-.174-.112-.225-.344-.114-.518.526-.822 1.25-1.515 2.094-2.003 1.85-1.071 4.251-1.071 6.102 0 1.882 1.088 3.051 3.112 3.051 5.282 0 1.781-.777 3.469-2.133 4.631-.07.062-.157.091-.244.091zm-3.395-12.672v-2.479c0-.207-.168-.375-.375-.375s-.375.168-.375.375v2.479c0 .207.168.375.375.375s.375-.168.375-.375zm10.393 7.899c0-.207-.168-.375-.375-.375h-2.495c-.207 0-.375.168-.375.375s.168.375.375.375h2.495c.207 0 .375-.168.375-.375zm-16.089-5.321c.146-.146.146-.384 0-.53l-1.723-1.722c-.146-.147-.384-.147-.53 0-.146.146-.146.384 0 .53l1.723 1.722c.073.073.169.11.265.11s.192-.036.265-.11zm12.943 12.944c.146-.146.146-.384 0-.53l-1.771-1.771c-.146-.146-.384-.146-.53 0-.146.146-.146.384 0 .53l1.772 1.771c.073.073.169.11.265.11s.191-.037.264-.11zm-1.771-12.944l1.748-1.747c.146-.146.146-.384 0-.53-.147-.146-.384-.146-.53 0l-1.748 1.747c-.146.147-.146.384 0 .53.073.073.169.11.265.11s.192-.036.265-.11zm-2.94 13.728c0-1.861-1.255-3.453-3.028-3.905-.033-2.147-1.79-3.883-3.945-3.883l-.393.021c-.918-2.176-3.07-3.618-5.448-3.618-2.023 0-3.885 1.017-4.981 2.72-.112.174-.062.406.113.518.174.112.406.061.518-.113.957-1.488 2.584-2.376 4.351-2.376 2.165 0 4.116 1.37 4.855 3.408.062.171.24.273.418.241.201-.036.387-.053.568-.053 1.762 0 3.196 1.433 3.196 3.195l-.008.118-.009.093c-.014.193.121.365.312.397 1.584.268 2.733 1.628 2.733 3.236 0 1.811-1.473 3.284-3.284 3.284h-13.653c-2.47 0-4.48-2.01-4.48-4.48 0-2.47 2.01-4.48 4.48-4.48.727 0 1.449.178 2.088.515.183.096.41.026.507-.157.097-.183.026-.41-.157-.507-.746-.393-1.589-.601-2.438-.601-2.884 0-5.23 2.346-5.23 5.23 0 2.884 2.346 5.23 5.23 5.23h13.65c2.225.001 4.035-1.808 4.035-4.033z" fill="#0568ae"/></svg>