<svg xmlns="http://www.w3.org/2000/svg" viewBox="0 0 36 36" enable-background="new 0 0 36 36"><path d="M21.552 5.562v-2.296c0-.578.469-1.047 1.047-1.047s1.047.469 1.047 1.047v2.297c0 .578-.469 1.047-1.047 1.047-.579-.001-1.047-.469-1.047-1.048zm9.148 9.022h2.297c.578 0 1.047-.469 1.047-1.047s-.469-1.047-1.047-1.047h-2.297c-.578 0-1.047.469-1.047 1.047s.469 1.047 1.047 1.047zm-13.767-5.575c.268 0 .536-.102.74-.307.409-.409.409-1.072 0-1.48l-1.623-1.625c-.409-.409-1.072-.409-1.481 0-.409.409-.409 1.072 0 1.48l1.624 1.624c.205.205.472.308.74.308zm13.082 12.902c.268 0 .536-.102.74-.307.409-.409.409-1.072 0-1.481l-1.624-1.624c-.409-.409-1.072-.409-1.481 0-.409.409-.409 1.072 0 1.48l1.624 1.624c.205.205.473.308.741.308zm-1.714-12.992c.268 0 .536-.102.74-.307l1.624-1.624c.409-.409.409-1.072 0-1.48-.409-.409-1.072-.409-1.48 0l-1.624 1.624c-.409.409-.409 1.072 0 1.481.204.204.472.306.74.306zm-15.524 1.99c-2.896 0-5.275 2.209-5.546 5.033-2.237.299-3.994 2.107-4.207 4.37l-.024.398.002.032-.002.033c0 2.696 2.186 4.881 4.881 4.881h13.723c2.031 0 3.678-1.647 3.678-3.678 0-1.821-1.324-3.329-3.062-3.623l.018-.242c0-1.982-1.607-3.589-3.59-3.589-.218 0-.431.022-.637.059-.776-2.142-2.825-3.674-5.234-3.674m6.17 2.124c2.37.137 4.31 1.904 4.715 4.193.716.308 1.342.77 1.842 1.342 1.722-.987 2.886-2.84 2.886-4.967 0-3.163-2.564-5.727-5.727-5.727-2.304 0-4.285 1.364-5.194 3.325.585.52 1.087 1.138 1.478 1.834z" fill="#0568ae"/></svg>