<svg xmlns="http://www.w3.org/2000/svg" viewBox="0 0 36 36" enable-background="new 0 0 36 36"><path d="M18.578 15.356h-10.478c-.207 0-.375-.168-.375-.375s.168-.375.375-.375l13.04-.002c1.835 0 3.328-1.493 3.328-3.329 0-1.835-1.493-3.328-3.328-3.328-.945 0-1.85.404-2.479 1.108-.138.154-.375.168-.529.029-.154-.138-.167-.375-.029-.529.772-.863 1.88-1.358 3.038-1.358 2.249 0 4.078 1.83 4.078 4.078 0 2.249-1.829 4.079-4.078 4.079l-2.563.002zm.484 13.087c1.646 0 2.984-1.338 2.984-2.984s-1.338-2.985-2.984-2.985l-10.961-.001c-.207 0-.375.168-.375.375s.168.375.375.375l10.961.001c1.231 0 2.234 1.003 2.234 2.235s-1.003 2.234-2.234 2.234c-.635 0-1.241-.271-1.665-.744-.138-.154-.375-.168-.53-.029-.154.137-.167.375-.029.529.566.632 1.377.994 2.224.994m7.154-9.02c1.135 0 2.059-.923 2.059-2.059 0-1.135-.923-2.059-2.059-2.059-.585 0-1.144.25-1.534.686-.139.154-.125.392.029.529.154.139.392.125.529-.029.248-.276.603-.435.975-.435.721 0 1.309.587 1.309 1.309s-.587 1.309-1.309 1.309h-18.114c-.207 0-.375.168-.375.375s.168.375.375.375h16.949l1.166-.001zm-7.154 9.27c-.918 0-1.796-.393-2.41-1.077-.112-.126-.168-.287-.158-.454s.083-.319.208-.43c.246-.219.661-.196.882.05.377.42.916.661 1.479.661 1.094 0 1.984-.891 1.984-1.984 0-1.095-.891-1.985-1.984-1.985l-10.96-.001c-.345 0-.625-.28-.625-.625s.28-.625.625-.625l10.96.001c1.783 0 3.234 1.451 3.234 3.235-.001 1.783-1.452 3.234-3.235 3.234zm-1.945-1.619l-.083.032-.042.085.032.092c.518.578 1.261.91 2.037.91 1.508 0 2.734-1.227 2.734-2.734s-1.227-2.735-2.734-2.735l-10.96-.001c-.069 0-.125.056-.125.125s.056.125.125.125l10.96.001c1.37 0 2.484 1.115 2.484 2.485s-1.114 2.484-2.484 2.484c-.705 0-1.379-.302-1.851-.827l-.093-.042zm7.933-7.4h-16.949c-.345 0-.625-.28-.625-.625s.28-.625.625-.625h18.114c.584 0 1.06-.475 1.06-1.059s-.476-1.059-1.06-1.059c-.301 0-.588.128-.788.352-.223.246-.637.27-.883.047-.124-.11-.198-.263-.207-.43-.01-.167.047-.328.159-.452.438-.488 1.064-.769 1.72-.769 1.273 0 2.31 1.036 2.31 2.309s-1.036 2.309-2.31 2.309l-1.166.002zm-16.949-.75c-.069 0-.125.056-.125.125s.056.125.125.125l18.115-.001c.998 0 1.81-.812 1.81-1.809 0-.997-.812-1.809-1.81-1.809-.514 0-1.005.22-1.348.603l-.032.089.041.085c.06.054.11.066.177-.009.296-.329.719-.518 1.161-.518.86 0 1.56.699 1.56 1.559 0 .859-.699 1.559-1.56 1.559h-18.114zm10.477-3.318h-10.478c-.345 0-.625-.28-.625-.625s.28-.625.625-.625l13.04-.002c1.697 0 3.078-1.381 3.078-3.079 0-1.697-1.381-3.078-3.078-3.078-.875 0-1.71.374-2.292 1.025-.221.247-.637.271-.883.048-.255-.229-.277-.625-.048-.881.82-.916 1.995-1.441 3.224-1.441 2.387 0 4.328 1.941 4.328 4.328 0 2.387-1.941 4.329-4.328 4.329l-2.563.001zm2.562-7.909c1.973 0 3.578 1.605 3.578 3.578 0 1.974-1.605 3.579-3.578 3.579l-13.04.002c-.069 0-.125.056-.125.125s.056.125.125.125l13.041-.002c2.11 0 3.828-1.718 3.828-3.829s-1.718-3.828-3.828-3.828c-1.087 0-2.127.465-2.852 1.275-.046.051-.041.13.01.176.058.051.11.065.176-.01.676-.757 1.648-1.191 2.665-1.191z" fill="#0568ae"/></svg>