<svg xmlns="http://www.w3.org/2000/svg" viewBox="0 0 36 36" enable-background="new 0 0 36 36"><path d="M16.782 15.986h-11.525c-.69 0-1.25-.56-1.25-1.25s.56-1.25 1.25-1.25l14.343-.002c1.558 0 2.825-1.267 2.825-2.823s-1.267-2.824-2.824-2.824c-.802 0-1.569.343-2.103.94-.461.514-1.251.558-1.765.097-.514-.46-.558-1.251-.098-1.765 1.009-1.127 2.454-1.773 3.966-1.773 2.936 0 5.324 2.388 5.324 5.324s-2.388 5.323-5.324 5.323l-2.819.003zm4.653 10.276c0-2.272-1.848-4.121-4.119-4.121l-12.059-.001c-.69 0-1.25.56-1.25 1.25s.56 1.25 1.25 1.25l12.058.001c.893 0 1.62.727 1.62 1.621 0 .893-.727 1.62-1.62 1.62-.46 0-.9-.197-1.206-.54-.461-.515-1.251-.559-1.765-.098-.514.46-.558 1.25-.098 1.765.781.872 1.899 1.373 3.07 1.373 2.271 0 4.119-1.848 4.119-4.12zm6.941-5.95c1.994 0 3.616-1.623 3.616-3.617s-1.622-3.617-3.616-3.617c-1.028 0-2.01.439-2.695 1.204-.46.514-.417 1.305.098 1.765.514.461 1.305.417 1.765-.098.214-.24.51-.372.832-.372.616 0 1.116.501 1.116 1.117s-.5 1.117-1.117 1.117l-23.118.002c-.69 0-1.25.56-1.25 1.25s.56 1.25 1.25 1.25h21.482l1.637-.001z" fill="#0568ae"/></svg>