<svg xmlns="http://www.w3.org/2000/svg" viewBox="0 0 36 36"><path fill="#0568ae" d="M24.4 13.4c.6.7.9 1.6.9 2.8 0 1.2-.3 2.1-.9 2.8-.6.7-1.5 1-2.6 1H20v-7.5h1.8c1.1-.1 2 .3 2.6.9zm8.1-4.9V24c0 1-.8 1.8-1.8 1.8H19v2.1h4.8c.6 0 1 .4 1 1s-.4 1-1 1H12.2c-.6 0-1-.4-1-1s.4-1 1-1H17v-2.1H5.3c-1 0-1.8-.8-1.8-1.8V8.5c0-1 .8-1.8 1.8-1.8h25.4c1 0 1.8.8 1.8 1.8zM15.7 18.6c0-.6-.2-1.2-.5-1.6-.3-.5-.8-.8-1.3-1 .5-.2.9-.5 1.1-.9.3-.4.4-.8.4-1.3 0-.6-.1-1.1-.4-1.5-.3-.4-.7-.8-1.2-1-.5-.2-1.1-.4-1.7-.4-1 0-2.1.3-3 1l.6 1.2c.8-.5 1.6-.8 2.3-.8.6 0 1 .1 1.4.4.3.3.5.7.5 1.1 0 .5-.2.9-.5 1.2-.3.3-.8.4-1.4.4h-1.3v1.3H12c.7 0 1.3.1 1.6.4.4.3.5.7.5 1.3 0 .5-.2 1-.6 1.3-.4.3-.9.5-1.6.5-.8 0-1.7-.2-2.5-.7l-.5 1.2c.9.6 1.9.9 3.1.9 1.1 0 2-.3 2.7-.8.6-.5 1-1.2 1-2.2zm11.4-2.4c0-1.1-.2-2-.6-2.8-.4-.8-1-1.4-1.8-1.9-.8-.4-1.8-.7-2.9-.7h-3.6v10.7h3.6c1.1 0 2-.2 2.8-.6.8-.4 1.4-1 1.9-1.8.4-.8.6-1.8.6-2.9z"/></svg>