<svg xmlns="http://www.w3.org/2000/svg" viewBox="0 0 36 36"><path fill="#0568ae" d="M21.8 9.4H20V17h1.8c1.1 0 2-.3 2.6-1 .6-.7.9-1.6.9-2.8 0-1.2-.3-2.1-.9-2.8-.6-.6-1.5-1-2.6-1z"/><path fill="#0568ae" d="M27 21c-3.3 0-6 2.7-6 6 0 1.2.4 2.3 1 3.3l.1.1 2.1-2.1c-.5-1.1-.3-2.5.6-3.5.6-.6 1.4-.9 2.2-.9.2 0 .5 0 .7.1.1 0 .3.2.1.4L26 26.2c-.5.5-.5 1.3 0 1.8.2.2.6.4.9.4.3 0 .7-.1.9-.4l1.7-1.7c.1-.1.1-.1.2-.1s.2.1.2.2c.2 1 0 2.1-.8 2.9-.6.6-1.4.9-2.2.9-.4 0-.9-.1-1.3-.3L23.5 32l.1.1c.9.6 2 1 3.2 1 3.3 0 6-2.7 6-6C33 23.7 30.3 21 27 21m3.7-17.3H5.3c-1 0-1.8.8-1.8 1.8V21c0 1 .8 1.8 1.8 1.8H17v2.1h-4.8c-.6 0-1 .4-1 1s.4 1 1 1h7.3c0-.7.1-1.4.3-2H19v-2.1h1.8c1.4-2 3.6-3.3 6.2-3.3 2.1 0 4 .9 5.3 2.2.1-.2.2-.5.2-.7V5.5c0-1-.8-1.8-1.8-1.8zM14.6 17.9c-.7.6-1.6.8-2.7.8s-2.2-.3-3.1-.9l.5-1.2c.8.5 1.6.7 2.5.7.7 0 1.2-.2 1.6-.5.4-.3.6-.7.6-1.3 0-.6-.2-1-.5-1.3-.4-.3-.9-.4-1.6-.4h-1.3v-1.3h1.3c.6 0 1.1-.1 1.4-.4.3-.3.5-.7.5-1.2s-.2-.8-.5-1.1c-.3-.3-.8-.4-1.4-.4-.7 0-1.5.3-2.3.8L9 8.8c1-.7 2-1 3-1 .7 0 1.2.1 1.7.4.5.2.9.6 1.2 1 .3.4.4.9.4 1.5 0 .5-.1.9-.4 1.3-.3.4-.6.7-1.1.9.6.2 1 .6 1.3 1 .3.5.5 1 .5 1.6.1 1.1-.3 1.8-1 2.4zm11.9-1.8c-.4.8-1.1 1.4-1.9 1.8-.8.4-1.7.6-2.8.6h-3.6V7.9h3.6c1.1 0 2 .2 2.9.7.8.4 1.4 1.1 1.8 1.9.4.8.6 1.7.6 2.8 0 1-.2 2-.6 2.8z"/></svg>