<svg xmlns="http://www.w3.org/2000/svg" viewBox="0 0 36 36" enable-background="new 0 0 36 36"><path d="M27 21c3.314 0 6 2.687 6 6s-2.686 6-6 6c-3.313 0-6-2.687-6-6s2.687-6 6-6m-2.862 7h1.862v1.862c0 .552.448 1 1 1s1-.448 1-1v-1.862h1.861c.552 0 1-.448 1-1s-.448-1-1-1h-1.861v-1.862c0-.552-.448-1-1-1s-1 .448-1 1v1.862h-1.862c-.552 0-1 .448-1 1s.448 1 1 1m-4.638-1c0-4.135 3.365-7.5 7.5-7.5.355 0 .701.033 1.042.081l3.8-3.703c.851-.834.586-1.654-.594-1.824l-6.351-.923c-1.176-.17-2.57-1.184-3.1-2.252l-2.84-5.754c-.527-1.069-1.389-1.069-1.916 0l-2.841 5.754c-.525 1.068-1.923 2.082-3.098 2.252l-6.352.923c-1.179.17-1.444.99-.594 1.824l4.594 4.479c.855.83 1.39 2.47 1.186 3.645l-1.084 6.324c-.202 1.173.494 1.68 1.549 1.128l5.682-2.987c.963-.51 2.482-.548 3.542-.124-.077-.437-.125-.884-.125-1.343z" fill="#0568ae"/></svg>