<svg xmlns="http://www.w3.org/2000/svg" viewBox="0 0 36 36" enable-background="new 0 0 36 36"><path d="M17.042 5.124c.527-1.069 1.389-1.069 1.916 0l2.84 5.754c.53 1.068 1.924 2.082 3.1 2.252l6.351.923c1.18.17 1.444.99.594 1.824l-4.597 4.479c-.852.83-1.384 2.47-1.181 3.645l1.084 6.324c.2 1.173-.499 1.68-1.549 1.128l-5.683-2.987c-1.055-.558-2.779-.558-3.831 0l-5.682 2.987c-1.055.553-1.751.045-1.549-1.128l1.084-6.324c.203-1.174-.331-2.814-1.186-3.645l-4.594-4.479c-.851-.834-.585-1.654.594-1.824l6.352-.923c1.175-.17 2.573-1.184 3.098-2.252l2.839-5.754zm4.558 13.328h-2.4v-2.4c0-.663-.537-1.2-1.2-1.2-.663 0-1.2.537-1.2 1.2v2.4h-2.4c-.663 0-1.2.537-1.2 1.2 0 .663.537 1.2 1.2 1.2h2.4v2.4c0 .663.537 1.2 1.2 1.2.663 0 1.2-.537 1.2-1.2v-2.4h2.4c.663 0 1.2-.537 1.2-1.2 0-.662-.537-1.2-1.2-1.2z" fill="#0568ae"/></svg>