<svg xmlns="http://www.w3.org/2000/svg" viewBox="0 0 36 36"><path fill="#0568ae" d="M18 3.5C10 3.5 3.5 10 3.5 18S10 32.5 18 32.5 32.5 26 32.5 18 26 3.5 18 3.5zM5.5 18c0-3.2 1.2-6.1 3.2-8.4.4.5.8 1 1.1 1.5h-.2c-.4 0-.7.4-.7.8s.4.7.7.7l1-.1c.2.5.4.9.5 1.4H11c-.4-.1-.8.1-.9.5-.1.4.1.8.5.9l.9.2c.1.6.2 1.2.2 1.8l-.2-.1c-.4-.2-.8 0-1 .3-.2.4 0 .8.3 1l.9.4-.3 1.8-.2-.2c-.3-.3-.8-.2-1.1.1-.3.3-.2.8.1 1.1l.7.6c0 .1-.1.2-.1.3-.1.4-.3.7-.5 1l-.1-.2c-.2-.3-.7-.4-1-.2-.3.2-.4.7-.2 1l.5.8c-.2.7-.5 1-.8 1.4-2-2.3-3.2-5.2-3.2-8.4zm4.3 9.4c.4-.4.7-.9 1-1.3l1 .1h.1c.4 0 .7-.3.7-.7 0-.4-.3-.8-.7-.8h-.3l.6-1.2c.1-.2.1-.3.2-.5l1-.2c.4-.1.7-.5.6-.9-.1-.4-.5-.7-.9-.6h-.2c.2-.7.3-1.4.3-2.1l.9-.5c.4-.2.5-.6.3-1s-.6-.5-1-.3l-.2.1c0-.7-.1-1.4-.2-2.1l.8-.7c.3-.3.4-.7.1-1.1-.3-.3-.7-.4-1.1-.1l-.3.2c-.2-.6-.4-1.3-.7-1.9l.6-.9c.2-.3.1-.8-.2-1-.3-.2-.8-.1-1 .2l-.1.2c-.4-.6-.9-1.2-1.4-1.8 2.3-1.8 5.2-3 8.3-3 3.1 0 6 1.2 8.2 3.1-.5.6-1 1.2-1.4 1.8l-.1-.2c-.2-.3-.7-.4-1-.2-.3.2-.4.7-.2 1l.6.9c-.3.6-.5 1.2-.7 1.9l-.4-.3c-.3-.3-.8-.2-1.1.1-.3.3-.2.8.1 1.1l.8.7c-.1.7-.2 1.4-.2 2.1l-.3-.1c-.4-.2-.8 0-1 .3-.2.4 0 .8.3 1l1 .5.3 2.1-.2-.1c-.4-.1-.8.2-.9.6-.1.4.2.8.6.9l1 .2c.2.6.5 1.2.8 1.7h-.3c-.4 0-.7.4-.7.8s.4.7.7.7h.1l1-.1c.3.5.7.9 1.1 1.3-2.2 1.9-5.1 3.1-8.2 3.1s-5.9-1.1-8.1-3zm17.5-1c-.3-.3-.6-.7-.8-1.1l.5-.8c.2-.3.1-.8-.2-1-.3-.2-.8-.1-1 .2l-.1.2c-.2-.4-.4-.9-.6-1.4l.7-.6c.3-.3.4-.7.1-1.1-.3-.3-.7-.4-1.1-.1l-.2.2-.3-1.8.8-.4c.4-.2.5-.6.3-1s-.6-.5-1-.3l-.2.1c0-.6.1-1.2.2-1.8l.9-.2c.4-.1.6-.5.5-.9-.1-.4-.5-.6-.9-.5h-.1c.2-.5.3-.9.5-1.4l.9.1c.4 0 .7-.3.7-.7 0-.4-.3-.8-.7-.8H26c.3-.5.7-1 1.1-1.5 2 2.2 3.2 5.2 3.2 8.4s-1 5.9-3 8.2z"/></svg>