<svg xmlns="http://www.w3.org/2000/svg" viewBox="0 0 36 36"><path fill="#0568ae" d="M18 4.1C10.3 4.1 4.1 10.3 4.1 18S10.3 31.9 18 31.9 31.9 25.7 31.9 18 25.7 4.1 18 4.1zM4.9 18c0-3.5 1.4-6.7 3.7-9.1.8.8 1.4 1.7 1.9 2.6l-.9.1c-.2 0-.4.2-.4.4s.2.4.4.4l1.2-.1c.4.7.7 1.5.9 2.3l-.7-.3c-.2-.1-.4.1-.5.3-.1.2.1.4.3.5l1.2.3c.2.9.3 1.8.3 2.7v.1l-.8-.4c-.2-.1-.4 0-.5.2-.1.2 0 .4.2.5l1.1.5c-.1.9-.2 1.8-.5 2.7L11 21c-.2-.1-.4-.1-.5 0-.1.2-.1.4 0 .5l.9.8c-.1.2-.1.4-.2.6-.2.6-.5 1.1-.8 1.6l-.4-.6c-.1-.2-.3-.2-.5-.1s-.2.3-.1.5l.7 1c-.4.6-.9 1.2-1.5 1.8-2.3-2.4-3.7-5.6-3.7-9.1zm4.2 9.6c.6-.6 1.1-1.2 1.6-1.9l1.3.1c.2 0 .4-.2.4-.3 0-.2-.1-.4-.3-.4l-1-.1c.3-.6.6-1.1.9-1.7.1-.2.2-.4.2-.7l1.2-.3c.2 0 .3-.2.3-.4s-.2-.3-.4-.3l-.8.2c.3-.9.4-1.9.5-2.9l1.1-.6c.2-.1.3-.3.2-.5-.1-.2-.3-.3-.5-.2l-.8.4c0-1-.1-1.9-.3-2.8l1-.8c.2-.1.2-.4.1-.5-.1-.2-.4-.2-.5-.1l-.7.6c-.2-.9-.6-1.7-1-2.5l.7-1.1c.1-.2.1-.4-.1-.5-.2-.1-.4-.1-.5.1l-.5.7c-.6-1-1.3-1.9-2.1-2.7 2.3-2.2 5.5-3.5 8.9-3.5 3.4 0 6.6 1.3 8.9 3.5-.8.8-1.5 1.8-2.1 2.7l-.5-.7c-.1-.2-.3-.2-.5-.1s-.2.3-.1.5l.7 1.1c-.4.8-.7 1.7-1 2.5l-.7-.6c-.2-.1-.4-.1-.5.1-.1.2-.1.4.1.5l1 .8c-.2.9-.3 1.8-.3 2.8l-.8-.4c-.2-.1-.4 0-.5.2-.1.2 0 .4.2.5l1.1.6c.1 1 .2 1.9.5 2.9l-.8-.2c-.2 0-.4.1-.4.3 0 .2.1.4.3.4l1.3.3c.3.8.7 1.6 1.1 2.4h-1c-.2 0-.4.2-.3.4 0 .2.2.3.4.3l1.3-.1c.5.7 1 1.3 1.6 1.9-2.3 2.2-5.5 3.5-8.9 3.5-3.5.1-6.7-1.2-9-3.4zm18.3-.5l-1.5-1.8.7-1c.1-.2.1-.4-.1-.5-.2-.1-.4-.1-.5.1l-.5.7c-.4-.7-.8-1.4-1-2.2l.9-.8c.2-.1.2-.4 0-.5-.1-.2-.4-.2-.5 0l-.7.6c-.3-.9-.4-1.8-.5-2.7l1.1-.5c.2-.1.3-.3.2-.5-.1-.2-.3-.3-.5-.2l-.7.2c0-.9.1-1.8.3-2.7l1.2-.3c.2-.1.3-.3.3-.5-.1-.2-.3-.3-.5-.3l-.8.2c.2-.8.5-1.6.9-2.3l1.2.1c.2 0 .4-.2.4-.4s-.1-.4-.4-.4l-.9-.1c.5-.9 1.2-1.8 1.9-2.6 2.3 2.4 3.7 5.6 3.7 9.1 0 3.7-1.4 6.9-3.7 9.3z"/></svg>