<svg xmlns="http://www.w3.org/2000/svg" viewBox="0 0 36 36"><path fill="none" d="M0 0h36v36H0z"/><path fill="#0568ae" d="M18.9 4.5c2.9.2 5.8 1.3 8.1 3.4l-9 9-2.8-2.8c2.5-2.7 3.7-6.1 3.7-9.6zm-4.7 8.6c2.2-2.4 3.2-5.5 3.2-8.6-3 .1-6 1.3-8.4 3.4l5.2 5.2zm-1.1 1.1L7.9 9c-2.1 2.4-3.3 5.4-3.4 8.4 3.1 0 6.2-1.1 8.6-3.2zm8.7 6.6c2.7-2.5 6.2-3.7 9.6-3.6-.2-2.9-1.3-5.8-3.4-8.1l-9 9 2.8 2.7zm1.1 1l5.2 5.2c2.1-2.4 3.3-5.4 3.4-8.4-3.1 0-6.2 1.1-8.6 3.2zm-1.1 1.1c-2.2 2.4-3.2 5.5-3.2 8.6 3-.1 6-1.3 8.4-3.4l-5.2-5.2zm-7.6-7.7c-2.7 2.5-6.2 3.7-9.6 3.6.2 2.9 1.3 5.8 3.4 8.1l9-9-2.8-2.7zm6.6 6.6L18 19.1l-9 9c2.3 2.1 5.2 3.2 8.1 3.4 0-3.5 1.2-6.9 3.7-9.7z"/></svg>