<svg xmlns="http://www.w3.org/2000/svg" viewBox="0 0 36 36"><path fill="#0568ae" d="M27.8 8.2c-2.6-2.6-6-4-9.7-4.1H18c-3.7 0-7.2 1.4-9.8 4.1-5.4 5.4-5.4 14.2 0 19.6 2.6 2.6 6.1 4.1 9.8 4.1 3.7 0 7.2-1.4 9.8-4.1 5.4-5.4 5.4-14.2 0-19.6zm3.3 9.3c-3.5.1-6.8 1.4-9.3 3.8L18.5 18l9-9c2.2 2.3 3.5 5.3 3.6 8.5zM18.5 4.9c3.2.1 6.2 1.4 8.5 3.6l-9 9-3.3-3.3c2.4-2.6 3.7-5.8 3.8-9.3zm-.7 0c-.1 3.3-1.3 6.4-3.6 8.8L9 8.5c2.4-2.3 5.5-3.6 8.8-3.6zM4.9 18c0-3.4 1.3-6.6 3.6-9l5.2 5.2c-1.4 1.3-3 2.3-4.8 2.9-.2.1-.3.3-.2.5.1.2.2.3.4.3h.1c1.9-.6 3.6-1.7 5.1-3.1l3.3 3.3-9 9c-2.5-2.5-3.7-5.7-3.7-9.1zm12.6 13.1c-3.2-.1-6.2-1.4-8.5-3.6l9-9 3.3 3.3c-2.4 2.6-3.7 5.8-3.8 9.3zm.7 0c.1-3.3 1.3-6.4 3.6-8.8l5.2 5.2c-2.4 2.3-5.5 3.6-8.8 3.6zm9.3-4.1l-5.2-5.2c2.4-2.3 5.5-3.5 8.8-3.6 0 3.3-1.3 6.4-3.6 8.8z"/></svg>