<svg xmlns="http://www.w3.org/2000/svg" viewBox="0 0 36 36" enable-background="new 0 0 36 36"><path d="M30.079 10.808h-9.758c1.688-.738 5.58-2.66 6.011-4.86.156-.796-.128-1.54-.845-2.21-.715-.67-1.493-.898-2.308-.679-2.579.694-4.645 5.783-5.244 7.749h-.017c-.601-1.966-2.667-7.055-5.246-7.749-.814-.22-1.592.008-2.308.679-.716.67-1 1.414-.845 2.21.43 2.201 4.322 4.122 6.011 4.861h-9.61c-1.313 0-2.381 1.069-2.381 2.382v4.894c0 1.222.929 2.22 2.115 2.354v9.384c0 1.28 1.041 2.321 2.321 2.321h20.049c1.28 0 2.321-1.041 2.321-2.321v-9.384c1.187-.134 2.115-1.133 2.115-2.354v-4.895c.001-1.313-1.067-2.382-2.381-2.382zm-6.704-7.025c.132-.036.262-.053.391-.053.414 0 .812.184 1.209.555.522.489.726.986.622 1.518-.382 1.954-4.686 4-6.312 4.624l-.298.113-.172.098-.068.091c.738-2.247 2.644-6.412 4.628-6.946zm-13.119 2.02c-.104-.533.099-1.029.622-1.518.52-.487 1.043-.653 1.6-.502 1.983.534 3.889 4.696 4.628 6.945l-.066-.089-.172-.098-.298-.113c-1.628-.625-5.932-2.671-6.314-4.625zm10.141 25.589h-4.792v-19.834h4.792v19.834zm-13.993-1.57v-9.357h5.363c.207 0 .375-.168.375-.375s-.168-.375-.375-.375h-5.847c-.898 0-1.631-.732-1.631-1.631v-4.894c0-.9.733-1.632 1.631-1.632h8.935v19.834h-6.88c-.866 0-1.571-.704-1.571-1.57zm21.62 1.57h-6.877v-10.927h8.449v9.357c0 .866-.705 1.57-1.572 1.57zm3.687-13.309c0 .899-.731 1.631-1.632 1.631h-8.932v-8.157h8.932c.901 0 1.632.732 1.632 1.632v4.894z" fill="#0568ae"/></svg>