<svg xmlns="http://www.w3.org/2000/svg" viewBox="0 0 36 36" enable-background="new 0 0 36 36"><path d="M32.365 13.297c0-1.453-1.179-2.631-2.629-2.631h-.945c.74-1.65.114-3.641-2.054-5.486-3.836-3.269-7.225 1.423-8.736 4.095-1.511-2.672-4.9-7.364-8.739-4.095-2.166 1.845-2.793 3.836-2.054 5.486h-.942c-1.449 0-2.625 1.179-2.625 2.631l-.005 5.726c0 .85.535 1.574 1.281 1.865l.003 8.42c0 1.45 1.18 2.629 2.628 2.629h20.907c1.448 0 2.627-1.179 2.627-2.629v-8.42c.747-.291 1.284-1.016 1.284-1.865v-5.726m-20.927-6.49c.54-.194 1.287-.061 2.327 1.112.89 1.094 1.611 2.259 1.584 2.261-.031.009-2.13-.156-3.875-1.115-1.78-.872-.724-1.984-.036-2.258m3.941 23.24h-7.833c-.407 0-.738-.332-.738-.74v-8.279h8.57v9.019m.001-10.911h-9.736l-.118-.113.003-5.726c0-.411.329-.741.736-.741h2.649c1.409.937 3.53 1.577 6.344 1.711h.121v4.869m6.858-11.217c1.038-1.173 1.787-1.307 2.326-1.112.692.274 1.743 1.386-.036 2.259-1.746.959-3.845 1.123-3.875 1.115-.027-.003.697-1.168 1.585-2.262m6.955 21.389c0 .408-.333.74-.738.74h-7.769v-9.018h8.507v8.278m1.165-10.172h-9.672v-4.869h.059c2.812-.134 4.93-.774 6.342-1.711h2.65c.407 0 .736.33.736.741l.003 5.726-.118.113" fill="#0568ae"/></svg>