<svg xmlns="http://www.w3.org/2000/svg" viewBox="0 0 36 36"><path fill="#0568ae" d="M12.5 25.6h11c.6 0 .8.4.4.8l-5.2 6-.2.2c-.3.3-.8.3-1.1 0l-.2-.2-5.2-6c-.3-.4-.1-.8.5-.8zm17.7-21H5.8c-.7 0-1.3.6-1.3 1.3v16.3c0 .7.6 1.3 1.3 1.3h24.4c.7 0 1.3-.6 1.3-1.3V5.8c0-.7-.6-1.2-1.3-1.2zm-15 14.7c-.6.2-1.2.3-1.8.3-1 0-2-.2-2.7-.7-.8-.5-1.4-1.1-1.8-2-.4-.9-.7-1.8-.7-2.9 0-1.1.2-2 .7-2.9.5-.8 1.1-1.5 1.9-1.9.8-.5 1.7-.7 2.6-.7.6 0 1.2.1 1.7.2.6.2 1 .4 1.5.6l-.5 1.4c-.8-.4-1.7-.6-2.5-.6-1.1 0-1.9.4-2.6 1.1-.7.7-1 1.6-1 2.8 0 .8.2 1.5.5 2.1.3.6.7 1 1.3 1.3.5.3 1.2.5 1.8.5.5 0 .9-.1 1.3-.2s.8-.3 1.3-.6l.5 1.4c-.4.3-.9.6-1.5.8zm12.6 0H26v-4.6h-4.9v4.6h-1.8V8.7h1.8v4.5H26V8.7h1.8v10.6z"/></svg>