<svg xmlns="http://www.w3.org/2000/svg" viewBox="0 0 36 36"><path fill="#0568ae" d="M28.7 27c0 .6-.5 1.2-1.2 1.2-.6 0-1.2-.5-1.2-1.2 0-.6.5-1.2 1.2-1.2.6 0 1.2.6 1.2 1.2zm-1.2-6c-3.3 0-6 2.7-6 6s2.7 6 6 6 6-2.7 6-6-2.7-6-6-6zm2.4 6v.4c.3.2.6.5.8.8 0 .1.1.1 0 .2-.1.3-.3.5-.4.7 0 .1-.1.1-.2.1-.4-.1-.7-.2-1-.4-.1.1-.2.1-.3.2-.1.1-.2.1-.3.2 0 .4-.1.7-.3 1.1 0 .1-.1.1-.2.1h-.9c-.1 0-.1-.1-.2-.1-.1-.3-.2-.7-.2-1.1-.1 0-.2-.1-.3-.2-.2 0-.3 0-.4-.1-.3.2-.7.3-1.1.3-.1 0-.1 0-.2-.1-.2-.2-.3-.5-.4-.8v-.2c.2-.3.5-.5.8-.7V27v-.4c-.3-.2-.6-.5-.8-.8 0-.1-.1-.1 0-.2.1-.3.3-.5.4-.7 0-.1.1-.1.2-.1.4.1.7.2 1 .4.1-.1.2-.1.3-.2.1-.1.2-.1.4-.2 0-.4.1-.7.3-1.1 0-.1.1-.1.2-.1h.9c.1 0 .1.1.2.1.1.3.2.7.2 1.1.1.1.2.1.3.2.1.1.2.1.3.2.3-.2.7-.3 1.1-.3.1 0 .1 0 .2.1.2.2.3.5.4.8v.2c-.2.3-.5.5-.8.7v.3zM28.2 6.1H3.8c-.7 0-1.3.6-1.3 1.3v16.3c0 .7.6 1.3 1.3 1.3h16.5c.6-2 1.9-3.6 3.7-4.6v-4.1h-4.9v4.6h-1.8V10.2h1.8v4.5H24v-4.5h1.8v9.6l.2-.1c.5-.1 1-.2 1.5-.2.7 0 1.4.1 2 .3V7.3c0-.7-.6-1.2-1.3-1.2zm-15 14.7c-.6.1-1.2.2-1.8.2-1 0-2-.2-2.7-.7-.8-.5-1.4-1.1-1.8-2-.4-.8-.6-1.8-.6-2.8 0-1.1.2-2 .7-2.9.5-.8 1.1-1.5 1.9-1.9.8-.5 1.7-.7 2.6-.7.6 0 1.2.1 1.7.2.6.2 1 .4 1.5.6l-.5 1.4c-.8-.4-1.7-.6-2.5-.6-1.1 0-1.9.4-2.6 1.1-.7.7-1 1.6-1 2.8 0 .8.2 1.5.5 2.1.3.6.7 1 1.3 1.3.5.3 1.2.5 1.8.5.5 0 .9-.1 1.3-.2s.8-.3 1.3-.6l.5 1.4c-.5.3-1 .6-1.6.8z"/></svg>