<svg xmlns="http://www.w3.org/2000/svg" viewBox="0 0 36 36"><path fill="#0568ae" d="M23.5 11.1h-11c-.6 0-.8-.4-.4-.8l5.2-6 .2-.3c.3-.3.8-.3 1.1 0l.2.2 5.2 6c.3.6.1.9-.5.9zm6.7 2.2H5.8c-.7 0-1.3.6-1.3 1.3v16.3c0 .7.6 1.3 1.3 1.3h24.4c.7 0 1.3-.6 1.3-1.3V14.6c0-.8-.6-1.3-1.3-1.3zM15.2 28c-.6.2-1.2.3-1.8.3-1 0-2-.2-2.7-.7-.8-.5-1.4-1.1-1.8-2-.4-.8-.6-1.8-.6-2.8 0-1.1.2-2 .7-2.9.5-.8 1.1-1.5 1.9-1.9.8-.5 1.7-.7 2.6-.7.6 0 1.2.1 1.7.2.6.2 1 .4 1.5.6l-.5 1.4c-.8-.4-1.7-.6-2.5-.6-1.1 0-1.9.4-2.6 1.1-.7.7-1 1.6-1 2.8 0 .8.2 1.5.5 2.1.3.6.7 1 1.3 1.3.5.3 1.2.5 1.8.5.5 0 .9-.1 1.3-.2s.8-.3 1.3-.6l.5 1.4c-.5.3-1 .5-1.6.7zm12.6.1H26v-4.6h-4.9v4.6h-1.8V17.4h1.8v4.5H26v-4.5h1.8v10.7z"/></svg>