<svg xmlns="http://www.w3.org/2000/svg" viewBox="0 0 36 36" enable-background="new 0 0 36 36"><path d="M30.706 6.711h-25.412c-.99 0-1.8.81-1.8 1.8v15.481c0 .99.81 1.8 1.8 1.8h11.706v2.089h-4.761c-.552 0-1 .448-1 1s.448 1 1 1h11.523c.552 0 1-.448 1-1s-.448-1-1-1h-4.762v-2.089h11.706c.99 0 1.8-.81 1.8-1.8v-15.481c0-.99-.81-1.8-1.8-1.8zm-.2 16.361c0 .396-.324.72-.72.72h-23.572c-.396 0-.72-.324-.72-.72v-13.641c0-.396.324-.72.72-.72h23.571c.396 0 .72.324.72.72v13.641zm-5.184-4.129c0 .414-.336.75-.75.75h-7.528c-.414 0-.75-.336-.75-.75s.336-.75.75-.75h7.528c.414 0 .75.335.75.75zm-9.029-4.434c0-.414.336-.75.75-.75h7.528c.414 0 .75.336.75.75s-.336.75-.75.75h-7.528c-.414 0-.75-.335-.75-.75zm-1.734 3.468v1.929c0 .364-.273.66-.609.66h-1.99c-.336 0-.609-.296-.609-.66v-1.929c0-.364.273-.66.609-.66h1.989c.336.001.61.297.61.66zm1.138-5.688l-2.14 3.448c-.159.257-.431.409-.726.409-.261 0-.506-.12-.672-.329l-1.316-1.654c-.246-.309-.213-.764.075-1.035.281-.264.752-.27 1.038-.011l.756.681 1.715-2.364c.233-.321.716-.408 1.047-.186.343.232.441.689.223 1.041z" fill="#0568ae"/></svg>