<svg xmlns="http://www.w3.org/2000/svg" viewBox="0 0 36 36"><path fill="#0568ae" d="M27.5 21c3.3 0 6 2.7 6 6s-2.7 6-6 6-6-2.7-6-6 2.7-6 6-6m4.4 5l-2.2-1.9c-.2-.1-.3-.1-.3.1v1c-3.4 0-4.7 1.9-5.6 3.4-.2.3-.1.6.2.8.1.1.2.1.3.1.2 0 .4-.1.5-.3.7-1.2 1.7-2.2 4.6-2.2v1.1c0 .2.1.3.3.1l.4-.4 1.8-1.5c.1 0 .1-.2 0-.3zM28.2 6.1H3.8c-.7 0-1.3.6-1.3 1.3v16.3c0 .7.6 1.3 1.3 1.3h16.5c.6-2 1.9-3.6 3.7-4.6v-4.1h-4.9v4.6h-1.8V10.2h1.8v4.5H24v-4.5h1.8v9.6l.2-.1c.5-.1 1-.2 1.5-.2.7 0 1.4.1 2 .3V7.3c0-.7-.6-1.2-1.3-1.2zm-15 14.7c-.6.1-1.2.2-1.8.2-1 0-2-.2-2.7-.7-.8-.5-1.4-1.1-1.8-2-.4-.8-.6-1.8-.6-2.8 0-1.1.2-2 .7-2.9.5-.8 1.1-1.5 1.9-1.9.8-.5 1.7-.7 2.6-.7.6 0 1.2.1 1.7.2.6.2 1 .4 1.5.6l-.5 1.4c-.8-.4-1.7-.6-2.5-.6-1.1 0-1.9.4-2.6 1.1-.7.7-1 1.6-1 2.8 0 .8.2 1.5.5 2.1.3.6.7 1 1.3 1.3.5.3 1.2.5 1.8.5.5 0 .9-.1 1.3-.2s.8-.3 1.3-.6l.5 1.4c-.5.3-1 .6-1.6.8z"/></svg>