<svg xmlns="http://www.w3.org/2000/svg" viewBox="0 0 36 36" enable-background="new 0 0 36 36"><path d="M30.706 6.711h-25.412c-.99 0-1.8.81-1.8 1.8v15.481c0 .99.81 1.8 1.8 1.8h11.706v2.089h-4.761c-.552 0-1 .448-1 1s.448 1 1 1h11.522c.552 0 1-.448 1-1s-.448-1-1-1h-4.761v-2.089h11.706c.99 0 1.8-.81 1.8-1.8v-15.481c0-.99-.81-1.8-1.8-1.8zm-.2 16.361c0 .396-.324.72-.72.72h-23.572c-.396 0-.72-.324-.72-.72v-13.641c0-.396.324-.72.72-.72h23.572c.396 0 .72.324.72.72v13.641zm-8.414-3.237l.021.273c0 1.075-1.828 1.942-4.11 1.942-.861 0-1.659-.124-2.318-.335-1.087-.349-1.798-.937-1.798-1.606l.029-.273.099-.572c.116-.644.3-1.541.527-2.251.087-.275.181-.522.279-.714l.125-.214c.317-.437.966-.787 1.78-.971l.043-.01-.062-.045c-.437-.299-.767-.741-.92-1.26-.059-.204-.094-.42-.094-.645 0-1.276 1.034-2.307 2.309-2.307 1.276 0 2.31 1.031 2.31 2.307 0 .221-.032.432-.091.632-.153.536-.494.991-.948 1.292l-.036.026.024.006c.956.212 1.684.652 1.925 1.192.354.691.645 2.069.805 2.963l.101.57z" fill="#0568ae"/></svg>