<svg xmlns="http://www.w3.org/2000/svg" viewBox="0 0 36 36"><path fill="#0568ae" d="M11.5 16.5c.4.4.6 1 .6 1.8s-.2 1.3-.6 1.8c-.4.4-.9.6-1.6.6H8.8v-4.8h1.1c.6 0 1.2.2 1.6.6zm14.6-.6h-1.2v2.2h1.2c.4 0 .6-.1.8-.3.2-.2.3-.5.3-.8 0-.3-.1-.6-.3-.8-.2-.2-.4-.3-.8-.3zm6.4-5.6v15.5c0 1-.8 1.8-1.8 1.8H5.3c-1 0-1.8-.8-1.8-1.8V10.3c0-1 .8-1.8 1.8-1.8h25.4c1 0 1.8.8 1.8 1.8zm-18.7 8c0-.8-.2-1.5-.5-2.1-.3-.6-.8-1-1.4-1.4-.6-.3-1.3-.5-2.1-.5H7v7.8h2.8c.8 0 1.5-.2 2.1-.5.6-.3 1.1-.8 1.4-1.4.4-.4.5-1.1.5-1.9zm8-3.9h-1.9l-1.7 5.9-1.8-5.9h-1.9l2.7 7.8H19l2.8-7.8zm7.7 7.8l-1.8-3c.4-.2.8-.5 1-.9.2-.4.4-.9.4-1.4 0-.8-.3-1.4-.8-1.9-.5-.4-1.2-.7-2.2-.7h-3v7.8h1.8v-2.7H26l1.5 2.7h2z"/></svg>