<svg xmlns="http://www.w3.org/2000/svg" viewBox="0 0 36 36"><path fill="#0568ae" d="M32.8 23.3v-.1s0-.1-.1-.1l-8.6-8.6v-1.3l4.9-1.9c.1-.1.2-.2.2-.3 0-.2-.1-.3-.2-.3l-5.1-2h-.1-.1-.1-.1-.1-.1l-.1.1v5.8l-3.1 3.1-5.4-5.6v-1.4l4.9-1.9c.1-.1.2-.2.2-.3s-.1-.3-.2-.3l-5.1-2h-.1-.1-.1-.1-.1l-.1.1v5.8l-10.7 11s0 .1-.1.1v6.4c0 .2.2.4.4.4s.4-.2.4-.4v-5.8h6.5v5.8c0 .2.2.4.4.4s.4-.2.4-.4v-5.8h6.5v5.8c0 .2.2.4.4.4s.4-.2.4-.4v-5.8H25v5.8c0 .2.2.4.4.4s.4-.2.4-.4v-6.2-.1s0-.1-.1-.1L21 18.3l3-3 8.3 8.3v6c0 .2.2.4.4.4s.4-.2.4-.4l-.3-6.3zM24.1 9.5l3.7 1.4-3.7 1.4V9.5zM14.8 7l3.7 1.4-3.7 1.4V7zm-4.3 16H4.4l9.1-9.4-3 9.4zm.8 0l3.1-9.6 3.1 9.6h-6.2zm13 0h-6.1l-3-9.4 9.1 9.4z"/></svg>