<svg xmlns="http://www.w3.org/2000/svg" viewBox="0 0 36 36"><path fill="#0568ae" d="M31.2 14.1l-6.4-.9c-1.2-.2-2.6-1.2-3.1-2.3L19 5.1c-.5-1.1-1.4-1.1-1.9 0l-2.8 5.8c-.5 1.1-1.9 2.1-3.1 2.3l-6.4.9c-1.2.2-1.4 1-.6 1.8l4.6 4.5c.9.8 1.4 2.5 1.2 3.6l-1.1 6.3c-.2 1.2.5 1.7 1.5 1.1l5.7-3c1.1-.6 2.8-.6 3.8 0l5.7 3c1.1.6 1.7 0 1.5-1.1l-1-6.3c-.2-1.2.3-2.8 1.2-3.6l4.6-4.5c.8-.9.5-1.7-.7-1.8zm-16.5 9.2c-.7 0-1.3-.2-1.8-.5s-.9-.7-1.2-1.3c-.3-.5-.4-1.1-.4-1.8s.2-1.3.5-1.9c.3-.5.7-.9 1.2-1.2.5-.3 1.1-.4 1.7-.4.4 0 .8.1 1.1.2.4.1.7.2 1 .4l-.4 1.2c-.3-.1-.5-.2-.8-.3-.2-.1-.5-.1-.8-.1-.6 0-1.1.2-1.5.6-.4.4-.6.9-.6 1.5s.2 1.1.6 1.5c.4.4.9.6 1.5.6s1.1-.1 1.6-.4l.4 1.2c-.5.5-1.2.7-2.1.7zm9.2-.1h-1.5v-2.8h-2.6v2.8h-1.5v-6.8h1.5V19h2.6v-2.7h1.5v6.9z"/></svg>