<svg xmlns="http://www.w3.org/2000/svg" viewBox="0 0 36 36" enable-background="new 0 0 36 36"><path d="M19.613 28.336c-1.06-.418-2.57-.378-3.528.13l-5.682 2.987c-1.055.553-1.751.045-1.549-1.128l1.084-6.324c.203-1.174-.331-2.814-1.186-3.645l-4.594-4.479c-.851-.834-.585-1.654.594-1.824l6.352-.923c1.175-.17 2.573-1.184 3.098-2.252l2.841-5.754c.527-1.069 1.389-1.069 1.916 0l2.84 5.754c.53 1.068 1.924 2.082 3.1 2.252l6.351.923c1.18.17 1.444.99.594 1.824l-3.877 3.777c-.317-.041-.638-.069-.966-.069-4.136 0-7.5 3.365-7.5 7.5-.001.428.043.844.112 1.251zm7.387-7.25c-3.314 0-6 2.686-6 6s2.686 6 6 6 6-2.686 6-6-2.687-6-6-6m3.191 7.189c.043.059.051.138.021.205-.126.283-.275.535-.443.749-.049.061-.126.09-.203.075-.369-.073-.717-.191-1.037-.351l-.312.216c-.102.062-.216.116-.35.169-.042.374-.142.746-.301 1.106-.028.064-.087.109-.156.12l-.012.001c-.319.032-.602.029-.868-.01-.076-.011-.139-.064-.165-.136-.12-.343-.195-.712-.218-1.076-.132-.05-.244-.102-.344-.163-.122-.07-.228-.142-.32-.218-.342.153-.713.252-1.105.294-.072.007-.142-.023-.186-.08-.165-.216-.311-.471-.43-.758-.031-.073-.018-.156.034-.217.245-.281.521-.524.823-.724l-.033-.374.03-.391c-.304-.222-.576-.493-.808-.812-.043-.06-.052-.138-.02-.206.124-.283.274-.536.443-.749.047-.061.125-.09.203-.074.371.073.718.191 1.036.35.09-.075.193-.146.311-.216.102-.062.218-.117.351-.168.04-.376.14-.748.299-1.106.031-.068.091-.119.169-.122.314-.033.598-.03.867.01.076.01.138.064.164.136.12.343.195.712.218 1.076.133.051.244.102.347.162.121.071.227.143.319.218.342-.152.714-.253 1.104-.294.072-.008.142.022.185.079.167.217.311.472.432.759.029.073.017.155-.035.215-.246.283-.522.526-.824.725l.034.375-.03.391c.307.221.578.494.81.814zm-3.191-.017c-.647 0-1.172-.525-1.172-1.172 0-.647.525-1.172 1.172-1.172.647 0 1.172.525 1.172 1.172 0 .648-.525 1.172-1.172 1.172z" fill="#0568ae"/></svg>