<svg xmlns="http://www.w3.org/2000/svg" viewBox="0 0 36 36" enable-background="new 0 0 36 36"><path d="M28.008 11.713l-3.318 3.234c-.6.586-.985 1.778-.841 2.603l.78 4.569c.06.354.011.635-.141.814-.073.087-.212.192-.45.192-.172 0-.365-.055-.571-.165l-4.098-2.153c-.736-.389-2.013-.387-2.738-.001l-4.103 2.154c-.205.109-.396.165-.57.165-.238 0-.377-.105-.451-.194-.15-.175-.199-.456-.14-.812l.79-4.57c.137-.827-.252-2.02-.851-2.603l-3.317-3.234c-.305-.297-.426-.603-.342-.863.081-.26.36-.44.785-.502l4.585-.663c.842-.124 1.838-.849 2.219-1.616l2.045-4.148c.246-.499.556-.573.718-.573.163 0 .472.075.717.574l2.051 4.147c.369.755 1.383 1.495 2.216 1.617l4.58.663c.42.061.7.237.788.497.086.263-.037.57-.343.868zm5.39 10.816c0-1.965-2.18-3.625-6.139-4.672-.538-.141-1.081.177-1.223.711-.141.534.177 1.081.711 1.222 3.195.845 4.65 2.012 4.65 2.738 0 1.308-4.601 3.747-13.398 3.747s-13.399-2.44-13.399-3.747c0-.721 1.441-1.882 4.606-2.726.534-.142.851-.69.708-1.224-.143-.533-.688-.851-1.224-.708-3.928 1.048-6.091 2.703-6.091 4.659 0 3.773 7.747 5.747 15.399 5.747 7.654 0 15.4-1.974 15.4-5.747z" fill="#0568ae"/></svg>