<svg xmlns="http://www.w3.org/2000/svg" viewBox="0 0 36 36" enable-background="new 0 0 36 36"><path d="M11.219 14.981c.573.558.946 1.701.814 2.492l-.789 4.571c-.065.394-.007.71.167.913.129.154.324.238.547.238.194 0 .406-.061.628-.179l4.103-2.154c.69-.368 1.921-.37 2.622.001l4.098 2.152c.483.256.936.226 1.175-.057.176-.208.235-.524.168-.916l-.779-4.57c-.139-.789.23-1.93.805-2.491l3.318-3.234c.462-.449.434-.814.375-.997-.104-.306-.42-.512-.888-.58l-4.581-.663c-.797-.117-1.768-.825-2.122-1.549l-2.051-4.146c-.275-.56-.638-.644-.83-.644-.192 0-.554.084-.831.643l-2.044 4.148c-.366.735-1.319 1.429-2.125 1.548l-4.584.663c-.475.069-.791.279-.886.587-.058.178-.086.543.373.991l3.317 3.233zm-2.697-4.069l4.584-.663c1.055-.155 2.211-.996 2.689-1.957l2.045-4.149c.081-.165.147-.213.15-.224.019.011.084.059.165.224l2.051 4.146c.462.946 1.642 1.807 2.686 1.96l4.582.663c.141.021.225.055.267.08-.017.04-.062.115-.168.218l-3.319 3.234c-.753.736-1.201 2.123-1.02 3.156l.779 4.567c.025.149.016.234.007.275-.04-.003-.127-.02-.261-.091l-4.098-2.152c-.911-.483-2.423-.48-3.322 0l-4.103 2.154c-.132.07-.219.087-.258.091-.009-.042-.018-.128.006-.274l.79-4.571c.173-1.039-.281-2.424-1.032-3.155l-3.317-3.234c-.102-.099-.149-.176-.168-.219.041-.024.125-.059.265-.079zm24.252 11.561c0 2.873-6.489 5.123-14.774 5.123s-14.774-2.25-14.774-5.123c0-1.646 1.998-3.086 5.627-4.055.201-.052.406.065.459.266.054.2-.066.406-.266.459-3.175.848-5.07 2.093-5.07 3.33 0 2.112 5.635 4.373 14.024 4.373 8.388 0 14.024-2.261 14.024-4.373 0-1.245-1.912-2.495-5.115-3.342-.2-.053-.32-.258-.267-.458.053-.2.258-.319.458-.267 3.659.968 5.674 2.412 5.674 4.067z" fill="#0568ae"/></svg>