<svg xmlns="http://www.w3.org/2000/svg" viewBox="0 0 36 36" enable-background="new 0 0 36 36"><path d="M12.092 27.336c-1.123-.018-2.157-.139-3.067-.326-2.324-.475-3.3-1.047-3.678-1.705-.38-.656-.388-1.788.362-4.037.293-.882.706-1.839 1.251-2.82l5.132 8.888zm18.561-16.641c-.378-.658-1.353-1.23-3.678-1.705-.91-.187-1.944-.308-3.067-.326l5.131 8.888c.546-.982.958-1.938 1.252-2.82.751-2.25.742-3.382.362-4.037zm-8.445-1.976c-2.453.197-5.227.926-8.081 2.573-2.854 1.648-4.872 3.685-6.269 5.711l5.934 10.278c2.453-.197 5.227-.926 8.081-2.574 2.854-1.648 4.871-3.685 6.269-5.711l-5.934-10.277zm-.605 4.017l-.392.092.076.132c.207.359.084.817-.274 1.024-.118.068-.247.101-.375.101-.259 0-.511-.135-.65-.375l-.266-.46c-.503.166-1.002.354-1.496.565l.094.163c.207.359.084.817-.274 1.024-.118.068-.247.101-.374.101-.259 0-.511-.135-.65-.375l-.155-.269c-.261.136-.52.276-.777.424l-.588.368.153.265c.207.359.084.817-.274 1.024-.118.068-.247.101-.374.101-.259 0-.511-.135-.65-.375l-.099-.172c-.432.318-.848.65-1.246.997l.28.485c.207.359.084.818-.274 1.025-.118.068-.247.101-.375.101-.259 0-.511-.134-.65-.375l-.101-.174-.288.288c-.148.16-.349.241-.552.241-.182 0-.364-.066-.508-.199-.304-.281-.323-.755-.043-1.06.196-.212.408-.411.614-.615l-.197-.341c-.207-.359-.085-.818.274-1.025.359-.207.818-.084 1.025.274l.031.053c.403-.342.821-.669 1.255-.983l-.22-.381c-.207-.359-.084-.817.274-1.024.359-.207.817-.084 1.024.274l.17.295.588-.368c.257-.148.516-.29.776-.426l-.167-.289c-.207-.359-.084-.817.274-1.024.36-.208.818-.084 1.024.274l.224.387c.491-.215.986-.409 1.486-.583l-.042-.072c-.207-.359-.084-.817.274-1.024.358-.207.817-.084 1.024.275l.216.374c.285-.075.572-.145.859-.206.401-.085.804.171.89.576.09.406-.169.805-.574.892z" fill="#0568ae"/></svg>