<svg xmlns="http://www.w3.org/2000/svg" viewBox="0 0 36 36" enable-background="new 0 0 36 36"><path d="M30.978 10.508c-.487-.849-1.699-1.431-3.927-1.885-2.493-.512-7.51-.889-13.112 2.345-5.6 3.234-7.783 7.768-8.586 10.183-.719 2.156-.821 3.495-.332 4.342.488.849 1.7 1.43 3.928 1.885.865.178 2.033.339 3.424.339 2.62 0 6.03-.572 9.687-2.683 5.6-3.233 7.783-7.768 8.586-10.182.72-2.158.822-3.497.332-4.344zm-9.293 13.875c-5.386 3.109-10.197 2.749-12.586 2.26-1.945-.397-3.066-.896-3.428-1.524l-.001-.001c-.363-.627-.234-1.847.394-3.731.262-.787.682-1.811 1.327-2.939l2.459 4.258.866 1.501c.069.12.195.188.325.188l.187-.05c.12-.069.188-.195.188-.325l-.05-.188-.866-1.502-2.665-4.614c1.291-2.018 3.313-4.271 6.479-6.099 3.165-1.827 6.128-2.452 8.521-2.561l2.664 4.614 2.665 4.614c-1.291 2.018-3.313 4.271-6.479 6.099zm8.25-9.77c-.261.787-.682 1.811-1.327 2.939l-2.459-4.258-2.458-4.257c1.3.005 2.397.153 3.209.32 1.945.397 3.066.895 3.428 1.524l.001.001c.363.628.235 1.848-.394 3.731zm-8.41-2.244c-.297.064-.592.137-.887.216l.325.563c.104.179.042.409-.137.512l-.187.05c-.13 0-.256-.067-.325-.188l-.418-.722c-.744.232-1.479.513-2.203.841l.302.524c.104.179.042.409-.137.512l-.187.05c-.129 0-.256-.067-.325-.188l-.332-.576c-.374.186-.745.382-1.112.594-.311.18-.608.374-.906.568l.334.578c.104.18.042.409-.137.512l-.187.05c-.129 0-.256-.067-.325-.188l-.308-.534c-.65.456-1.265.945-1.842 1.465l.436.755c.104.179.042.409-.137.512l-.187.05c-.129 0-.255-.067-.325-.188l-.345-.597c-.217.213-.439.423-.643.645-.074.08-.175.121-.276.121-.091 0-.182-.033-.254-.099-.152-.14-.162-.378-.021-.53.257-.278.531-.543.807-.808l-.34-.59c-.104-.179-.042-.409.137-.512.179-.104.408-.042.512.137l.257.444c.582-.516 1.196-1.004 1.847-1.458l-.388-.672c-.103-.179-.042-.409.137-.512.179-.103.409-.042.512.137l.365.631c.298-.193.594-.388.905-.567.367-.212.738-.408 1.112-.595l-.365-.633c-.104-.179-.042-.409.137-.512.179-.104.409-.042.512.137l.394.683c.722-.33 1.455-.615 2.196-.853l-.272-.472c-.104-.179-.042-.409.137-.512.18-.104.409-.042.512.137l.361.625c.371-.103.743-.199 1.117-.279.203-.043.402.085.445.288.04.206-.089.405-.291.448z" fill="#0568ae"/></svg>