<svg xmlns="http://www.w3.org/2000/svg" viewBox="0 0 36 36" enable-background="new 0 0 36 36"><path d="M14.669 7.104c.153 0 .316.057.448.169l.297.162c.427.219.895.329 1.364.329.47 0 .941-.11 1.368-.331l.293-.159c.131-.112.293-.168.446-.168.136 0 .264.045.355.136l.22.22.132.132 4.37 4.37.045.045.263.263c.145.145.117.429-.062.631l-.123.204c-.562.932-.568 2.105-.02 3.043l.127.217c.188.214.213.519.055.676l-.287.287-11.089 11.086-.347.347c-.089.089-.215.133-.349.133-.153 0-.316-.057-.447-.169l-.297-.162c-.427-.219-.895-.329-1.364-.329-.47 0-.94.11-1.368.331l-.293.159c-.131.112-.293.168-.446.168-.136 0-.264-.045-.355-.136l-.22-.22-.132-.132-4.37-4.37-.045-.045-.263-.263c-.145-.145-.117-.429.062-.631l.123-.204c.562-.932.568-2.105.02-3.043l-.127-.217c-.188-.214-.213-.519-.055-.676l.287-.287 11.088-11.086.347-.347c.089-.089.215-.133.349-.133m20.042 9.569l-.161-.336-.028-.058-2.667-5.574-.081-.168-.134-.28c-.118-.247-.463-.353-.766-.236l-.329.053c-.952.132-1.917-.208-2.577-.906l-.226-.252c-.162-.281-.495-.416-.739-.299l-.443.212-2.443 1.169.904.904.045.045.263.263c.667.667.705 1.757.112 2.549l-.073.121c-.28.464-.284 1.044-.01 1.512l.074.127c.593.803.549 1.906-.127 2.582l-.287.287-8.734 8.734c.333.157.639.373.897.646l.226.252c.163.281.496.416.739.299l.443-.212 14.145-6.769.366-.175c.201-.096.279-.391.173-.656l-.047-.246c-.205-1.067.192-2.17 1.031-2.863l.184-.151c.238-.131.358-.389.27-.574z" fill="#0568ae"/></svg>