<svg xmlns="http://www.w3.org/2000/svg" viewBox="0 0 36 36" enable-background="new 0 0 36 36"><path d="M34.658 17.556l-.16.132c-.736.607-1.082 1.566-.902 2.502l.041.215c.158.443-.001.919-.374 1.096l-14.953 7.156c-.113.054-.233.08-.355.08-.335 0-.677-.195-.87-.529l-.174-.182c-.099-.105-.208-.202-.322-.289-.165-.125-.198-.36-.073-.525.125-.166.36-.198.525-.073.148.112.288.237.416.372.238.252.26.29.278.321.075.129.209.17.253.149l14.954-7.155c.003-.009.023-.087-.013-.179l-.02-.069-.047-.246c-.232-1.206.213-2.441 1.161-3.222l.239-.189.105-.117-.18-.361-2.882-6.023c-.023-.048-.151-.102-.293-.048-.033.013-.071.027-.412.074-1.073.148-2.157-.233-2.901-1.02-.237-.251-.259-.289-.277-.319-.076-.131-.21-.172-.254-.151l-1.926.922c-.187.089-.411.01-.5-.177-.089-.187-.01-.411.176-.5l1.926-.922c.423-.203.962-.005 1.226.449l.175.182c.578.611 1.421.909 2.253.792l.286-.044c.451-.177.994.01 1.199.437l3.07 6.416c.167.357-.005.809-.395 1.045zm-10.147-.25l-11.722 11.722c-.157.157-.375.243-.615.243-.249 0-.495-.092-.69-.259l-.226-.114c-.733-.377-1.656-.376-2.389.002l-.255.137c-.317.277-.953.309-1.275-.014l-5.03-5.03c-.279-.279-.268-.763.022-1.116l.107-.178c.492-.817.499-1.837.018-2.66l-.11-.189c-.296-.364-.304-.866-.013-1.158l11.722-11.72c.32-.32.921-.312 1.305.016l.225.114c.734.377 1.656.376 2.389-.002l.255-.137c.318-.277.954-.309 1.276.014l5.029 5.03c.279.279.268.763-.022 1.116l-.107.178c-.492.817-.499 1.836-.018 2.66l.11.189c.297.363.305.864.014 1.156zm-.748-4.394l.163-.258.06-.146-.29-.281-4.721-4.721c-.043-.043-.202-.024-.292.052-.027.023-.058.049-.364.207-.944.487-2.13.489-3.075.003-.308-.158-.342-.187-.369-.21-.096-.082-.259-.086-.288-.056l-2.598 2.598 1.046 1.039c.147.146.148.383.002.53-.073.074-.17.111-.266.111s-.191-.036-.264-.109l-1.048-1.041-8.594 8.593c.001.009.007.09.072.163l.042.058.127.217c.619 1.06.611 2.373-.023 3.425l-.163.259-.06.145.291.281 4.714 4.714c.063.063.209.031.299-.046.028-.024.059-.05.364-.208.473-.244 1.005-.373 1.54-.373.533 0 1.063.128 1.535.37.307.158.341.186.369.21.097.083.26.085.289.057l8.567-8.567-1.223-1.214c-.147-.146-.148-.383-.002-.53.146-.147.383-.148.53-.002l1.225 1.216 2.625-2.625c0-.009-.007-.09-.072-.164l-.042-.058-.127-.217c-.622-1.057-.613-2.37.021-3.422zm-9.31-.364c-.147-.146-.384-.145-.53.002-.146.147-.145.384.002.53l1.419 1.409c.073.073.169.109.264.109.096 0 .193-.037.266-.111.146-.147.145-.384-.002-.53l-1.419-1.409zm2.838 2.818c-.147-.146-.384-.146-.53.002-.146.147-.145.385.002.53l1.419 1.409c.073.073.169.109.264.109.097 0 .193-.037.266-.111.146-.147.145-.385-.002-.53l-1.419-1.409z" fill="#0568ae"/></svg>