<svg xmlns="http://www.w3.org/2000/svg" viewBox="0 0 36 36" enable-background="new 0 0 36 36"><path d="M26.772 19.108c-1.064 0-1.929-.864-1.929-1.925s.865-1.925 1.929-1.925c1.062 0 1.926.863 1.926 1.925-.001 1.061-.864 1.925-1.926 1.925zm0-3.1c-.65 0-1.179.527-1.179 1.174 0 .648.529 1.175 1.179 1.175.648 0 1.176-.527 1.176-1.175 0-.647-.528-1.174-1.176-1.174zm-12.589-1.673h-2.508v-2.508c0-.207-.168-.375-.375-.375s-.375.168-.375.375v2.508h-2.507c-.207 0-.375.168-.375.375s.168.375.375.375h2.507v2.508c0 .207.168.375.375.375s.375-.168.375-.375v-2.508h2.508c.207 0 .375-.168.375-.375 0-.208-.168-.375-.375-.375zm16.227 13.368c-.633 0-1.225-.256-1.665-.72l-5.052-5.654c-1.252-1.41-1.969-1.668-3.2-1.743h-5.008c-1.208.074-1.924.333-3.176 1.741l-5.045 5.647c-.449.473-1.041.729-1.674.729-1.273 0-2.31-1.034-2.31-2.306h.006c.011-.327.183-1.973 1.407-11.764.266-3.186 2.429-5.336 5.38-5.336h15.851c2.949 0 5.111 2.147 5.382 5.344 1.223 9.784 1.396 11.43 1.407 11.757h.006c.001 1.271-1.035 2.305-2.309 2.305zm-9.895-8.866c1.415.085 2.326.405 3.737 1.993l5.043 5.645c.29.306.688.479 1.114.479.86 0 1.56-.698 1.56-1.556v-.023c-.029-.517-.854-7.216-1.408-11.647l-.001-.015c-.237-2.833-2.057-4.664-4.635-4.664h-15.851c-2.579 0-4.398 1.831-4.634 4.664-.556 4.447-1.38 11.146-1.41 11.663v.023c0 .858.7 1.556 1.56 1.556.425 0 .824-.173 1.122-.487l5.036-5.638c1.411-1.587 2.322-1.907 3.713-1.992l5.054-.001zm2.441-3.539c-1.061 0-1.924-.863-1.924-1.924 0-1.063.863-1.927 1.924-1.927 1.063 0 1.929.864 1.929 1.927-.001 1.061-.866 1.924-1.929 1.924zm0-3.101c-.648 0-1.174.528-1.174 1.177 0 .647.526 1.174 1.174 1.174.65 0 1.179-.527 1.179-1.174-.001-.649-.529-1.177-1.179-1.177z" fill="#0568ae"/></svg>