<svg xmlns="http://www.w3.org/2000/svg" viewBox="0 0 36 36" enable-background="new 0 0 36 36"><path d="M30.996 13.295c-.87-.497-2.087-.342-3.413.135-1.096.395-2.333.495-3.528.52-.754-.016-1.521-.071-2.262-.202-.13 1.538-.459 2.934-.926 4.19.753.253 1.403.682 1.838 1.247.214.278.162.676-.116.89-.115.089-.252.132-.387.132-.19 0-.378-.085-.503-.248-.294-.382-.774-.686-1.323-.853-1.065 2.256-2.573 3.98-4.088 5.159 1.637 5.314 5.963 8.021 7.768 8.021 2.248 0 8.412-4.197 8.412-12.404-.001-1.174.123-5.676-1.472-6.587zm-3.292 13.502l-.019.007c-.095.038-.203.039-.302 0-.016-.006-1.533-.593-3.345-.54-1.823.053-3.283.72-3.308.733-.156.082-.326.042-.448-.068-.122-.11-.167-.282-.114-.438.026-.077.668-1.904 2.454-2.613.418-.166.869-.257 1.339-.271 2.481-.072 3.631 1.978 3.895 2.529l.079.127c.083.211-.02.45-.231.534zm2.865-7.805c-.174.304-.562.41-.866.235-.487-.278-1.185-.337-1.868-.154-.592.158-1.111.481-1.423.887-.125.163-.313.248-.503.248-.135 0-.271-.043-.387-.132-.278-.214-.33-.612-.116-.89.486-.632 1.233-1.107 2.102-1.339 1.014-.271 2.043-.169 2.826.279.304.174.41.562.235.866zm-12.97-13.618c.48 0 .915.093 1.287.306 1.595.911 1.471 5.413 1.471 6.59 0 8.207-6.164 12.404-8.412 12.404-2.247 0-8.412-4.197-8.412-12.404 0-1.177-.124-5.679 1.471-6.59.372-.212.807-.306 1.287-.306.643 0 1.367.168 2.126.441 1.095.395 2.333.495 3.528.52 1.195-.025 2.433-.125 3.528-.52.759-.273 1.483-.441 2.126-.441m-5.56 14.454c.47-.014.921-.105 1.339-.271 1.786-.709 2.428-2.536 2.454-2.613.053-.156.008-.328-.114-.438-.122-.11-.292-.15-.448-.068-.025.014-1.485.68-3.308.733-1.813.053-3.33-.535-3.345-.54-.099-.039-.208-.038-.303 0l-.019.008c-.212.084-.314.323-.23.534l.079.127c.264.55 1.415 2.6 3.895 2.528zm6.044-7.367c.278-.214.329-.613.116-.89-.487-.632-1.233-1.108-2.102-1.339-1.013-.27-2.044-.169-2.826.279-.304.174-.41.562-.236.866.174.305.562.41.866.236.487-.279 1.186-.336 1.869-.154.592.158 1.11.481 1.423.887.125.162.313.247.503.247.135 0 .271-.043.387-.132zm-11.385-.115c.313-.406.831-.729 1.423-.887.683-.183 1.381-.124 1.869.154.304.174.692.068.866-.236.174-.304.069-.692-.236-.866-.782-.448-1.813-.549-2.826-.279-.869.231-1.615.707-2.102 1.339-.214.278-.162.676.116.89.116.089.251.132.387.132.19 0 .378-.085.503-.247z" fill="#0568ae"/></svg>