<svg xmlns="http://www.w3.org/2000/svg" viewBox="0 0 36 36" enable-background="new 0 0 36 36"><path d="M18 23.443c-1.175 0-2.357.057-3.507.165v-8.795l9.879-3.849c.625-.243.72-.609.721-.805.001-.196-.089-.563-.711-.815l-9.886-3.998-.003-.001v-1.63c0-.207-.168-.375-.375-.375s-.375.168-.375.375v19.97c-5.03.58-9.258 2.178-9.258 4.513 0 1.127 1.004 2.163 2.905 2.995.19.082.41-.004.493-.193.083-.19-.003-.411-.193-.494-1.583-.693-2.456-1.512-2.456-2.307 0-1.547 3.285-3.181 8.508-3.773v3.649c0 .207.168.375.375.375s.375-.168.375-.375v-3.726c1.096-.1 2.268-.155 3.507-.155 7.636 0 12.766 2.071 12.766 4.005 0 1.934-5.129 4.004-12.766 4.004-.862 0-1.728-.029-2.573-.085-.201-.014-.385.142-.399.349-.014.207.143.385.349.399.862.058 1.744.087 2.623.087 6.643 0 13.516-1.778 13.516-4.754 0-2.977-6.872-4.756-13.515-4.756zm6.1-13.403l.21.114-.211.112-9.606 3.742v-7.854l9.607 3.886z" fill="#0568ae"/></svg>