<svg xmlns="http://www.w3.org/2000/svg" viewBox="0 0 36 36" enable-background="new 0 0 36 36"><path d="M31.142 27.973c-.334-2.199-5.529-3.968-12.076-4.14-.346-.009-.694-.015-1.047-.015-.368 0-.732.006-1.093.016-.611.017-1.205.052-1.789.095v-9.762l10.145-3.953c.707-.275.711-.734.007-1.019l-10.153-4.106v-1.373c0-.552-.448-1-1-1s-1 .448-1 1v20.419c-4.64.619-7.976 2.091-8.241 3.838l-.017.226c0 .112.017.223.042.333l.015.063.118.314.03.056.193.305.01.014c.08.104.173.206.274.306l.056.055.34.291.053.039.403.277.026.017.482.273.083.043.54.257.016.007.004.001c1.899.831 4.668 1.428 7.856 1.642h.002l.027.001c.409.027.825.048 1.247.062l.025.001c.427.014.86.022 1.299.022.438 0 .871-.008 1.299-.022l.025-.001c.422-.014.838-.035 1.247-.062l.027-.001h.002c3.188-.213 5.957-.811 7.856-1.642l.004-.001.016-.007.54-.257.083-.043.482-.273.027-.017.402-.276.054-.04.339-.29.055-.055c.101-.101.195-.203.274-.307l.01-.014.193-.305.03-.057c.051-.103.09-.208.118-.314l.014-.063c.025-.11.042-.221.042-.333l-.016-.225zm-13.456.192l-.004.017-.032.085-.008.015-.052.083-.003.004-.074.083-.015.015-.092.079-.015.011-.109.075-.007.005-.131.074-.023.012-.146.069-.004.002h-.001c-.515.225-1.265.387-2.129.445h-.007l-.338.017h-.007l-.352.006-.352-.006h-.007l-.338-.017h-.007c-.864-.058-1.614-.22-2.129-.445h-.001l-.004-.002-.146-.069-.022-.012-.131-.074-.007-.005-.109-.075-.015-.011-.092-.079-.015-.015-.075-.083-.003-.004-.052-.083-.008-.015-.032-.085-.004-.017-.011-.09.005-.061c.078-.513 1.133-.939 2.556-1.077v.331c0 .552.448 1 1 1s1-.448 1-1v-.331c1.423.139 2.478.564 2.556 1.077l.005.061-.013.09z" fill="#0568ae"/></svg>