<svg xmlns="http://www.w3.org/2000/svg" viewBox="0 0 36 36" enable-background="new 0 0 36 36"><path d="M4.451 20.379c0-.653.534-1.186 1.186-1.186h9.985c.652 0 1.186.534 1.186 1.186v9.984c0 .652-.534 1.186-1.186 1.186h-9.985c-.653 0-1.186-.534-1.186-1.186v-9.984zm14.741 9.984c0 .652.534 1.186 1.186 1.186h9.985c.653 0 1.186-.534 1.186-1.186v-9.984c0-.653-.534-1.186-1.186-1.186h-9.985c-.653 0-1.186.534-1.186 1.186v9.984zm-2.384-24.727c0-.652-.534-1.186-1.186-1.186h-9.985c-.653 0-1.186.534-1.186 1.186v9.985c0 .652.534 1.186 1.186 1.186h9.985c.652 0 1.186-.534 1.186-1.186v-9.985zm14.742 0c0-.652-.534-1.186-1.186-1.186h-9.985c-.653 0-1.186.534-1.186 1.186v9.985c0 .652.534 1.186 1.186 1.186h9.985c.653 0 1.186-.534 1.186-1.186v-9.985z" fill="#0568ae"/></svg>