<svg xmlns="http://www.w3.org/2000/svg" viewBox="0 0 36 36" enable-background="new 0 0 36 36"><path d="M15.06 16.875h-9.12c-1.001 0-1.815-.814-1.815-1.815v-9.12c0-1.001.814-1.815 1.815-1.815h9.12c1.001 0 1.815.814 1.815 1.815v9.12c0 1.001-.814 1.815-1.815 1.815zm-9.12-12c-.587 0-1.065.478-1.065 1.065v9.12c0 .587.478 1.065 1.065 1.065h9.12c.587 0 1.065-.478 1.065-1.065v-9.12c0-.587-.478-1.065-1.065-1.065h-9.12zm24.12 12h-9.12c-1.001 0-1.815-.814-1.815-1.815v-9.12c0-1.001.814-1.815 1.815-1.815h9.12c1.001 0 1.815.814 1.815 1.815v9.12c0 1.001-.814 1.815-1.815 1.815zm-9.12-12c-.587 0-1.065.478-1.065 1.065v9.12c0 .587.478 1.065 1.065 1.065h9.12c.587 0 1.065-.478 1.065-1.065v-9.12c0-.587-.478-1.065-1.065-1.065h-9.12zm-4.065 25.185v-9.12c0-1.001-.814-1.815-1.815-1.815h-9.12c-1.001 0-1.815.814-1.815 1.815v7.454c0 .207.168.375.375.375s.375-.168.375-.375v-7.454c0-.587.478-1.065 1.065-1.065h9.12c.587 0 1.065.478 1.065 1.065v9.12c0 .587-.478 1.065-1.065 1.065h-9.12c-.207 0-.375.168-.375.375s.168.375.375.375h9.12c1.001 0 1.815-.814 1.815-1.815zm13.185 1.815h-9.12c-1.001 0-1.815-.814-1.815-1.815v-9.12c0-1.001.814-1.815 1.815-1.815h9.12c1.001 0 1.815.814 1.815 1.815v9.12c0 1.001-.814 1.815-1.815 1.815zm-9.12-12c-.587 0-1.065.478-1.065 1.065v9.12c0 .587.478 1.065 1.065 1.065h9.12c.587 0 1.065-.478 1.065-1.065v-9.12c0-.587-.478-1.065-1.065-1.065h-9.12z" fill="#0568ae"/></svg>