<svg xmlns="http://www.w3.org/2000/svg" viewBox="0 0 36 36" enable-background="new 0 0 36 36"><path d="M11.25 17.25h-5.25v-4.875h5.25v4.875zm0-11.25h-3.81c-.792 0-1.44.648-1.44 1.44v3.435h5.25v-4.875zm1.5 4.875h17.25v-3.435c0-.792-.648-1.44-1.44-1.44h-15.81v4.875zm0 6.375h17.25v-4.875h-17.25v4.875zm-1.5 1.5h-5.25v4.875h5.25v-4.875zm1.5 0v4.875h17.25v-4.875h-17.25zm0 11.25h15.809c.792 0 1.44-.648 1.44-1.44v-3.435h-17.249v4.875zm-6.75-4.875v3.435c0 .792.648 1.44 1.44 1.44h3.81v-4.875h-5.25z" fill="#0568ae"/></svg>