<svg xmlns="http://www.w3.org/2000/svg" viewBox="0 0 36 36"><path fill="#0568ae" d="M15.1 19.1H5.9c-1 0-1.8.8-1.8 1.8v7.5c0 .2.2.4.4.4s.4-.2.4-.4v-7.5c0-.6.5-1.1 1.1-1.1h9.1c.6 0 1.1.5 1.1 1.1V30c0 .6-.5 1.1-1.1 1.1H5.9c-.2 0-.4.2-.4.4s.2.4.4.4H15c1 0 1.8-.8 1.8-1.8V21c.1-1.1-.7-1.9-1.7-1.9zM30.1 19.1H21c-1 0-1.8.8-1.8 1.8V30c0 1 .8 1.8 1.8 1.8h9.1c1 0 1.8-.8 1.8-1.8v-9.1c0-1-.8-1.8-1.8-1.8zm1 11c0 .6-.5 1.1-1.1 1.1h-9.1c-.6 0-1.1-.5-1.1-1.1V21c0-.6.5-1.1 1.1-1.1H30c.6 0 1.1.5 1.1 1.1v9.1zM30.1 4.1H5.9c-1 0-1.8.8-1.8 1.8V15c0 1 .8 1.8 1.8 1.8H30c1 0 1.8-.8 1.8-1.8V5.9c.1-1-.7-1.8-1.7-1.8zm1 11c0 .6-.5 1.1-1.1 1.1H5.9c-.6 0-1.1-.5-1.1-1.1V5.9c0-.6.5-1.1 1.1-1.1H30c.6 0 1.1.5 1.1 1.1v9.2z"/></svg>