<svg xmlns="http://www.w3.org/2000/svg" viewBox="0 0 36 36" enable-background="new 0 0 36 36"><path d="M33 27c0 3.313-2.687 6-6 6-1.198 0-2.311-.355-3.247-.96l-.131-.094 2.092-2.093c1.143.513 2.532.299 3.472-.641.798-.799 1.066-1.919.826-2.939-.034-.142-.205-.247-.393-.059l-1.715 1.714c-.504.504-1.317.505-1.817.005-.501-.5-.499-1.314.004-1.818l1.75-1.75c.179-.179.027-.327-.088-.355-1.02-.25-2.145.024-2.945.825-.94.939-1.155 2.33-.642 3.471l-2.097 2.097-.096-.131c-.613-.941-.973-2.064-.973-3.272 0-3.313 2.686-6 6-6s6 2.687 6 6zm-6-7.5c1.067 0 2.08.227 3 .631v-2.768h-17.25v4.875h8.46c1.377-1.671 3.461-2.738 5.79-2.738zm3-8.512h-17.25v4.875h17.25v-4.875zm-24 14.625v1.56c0 .792.648 1.44 1.44 1.44h3.81v-4.875h-5.25v1.875zm24-19.56c0-.792-.648-1.44-1.44-1.44h-15.81v4.875h17.25v-3.435zm-24 16.185h5.25v-4.875h-5.25v4.875zm13.5 4.762c0-1.17.277-2.274.757-3.262h-7.507v4.875h6.926c-.117-.527-.176-1.067-.176-1.613zm-12.06-22.387c-.792 0-1.44.648-1.44 1.44v3.435h5.25v-4.875h-3.81zm-1.44 11.25h5.25v-4.875h-5.25v4.875z" fill="#0568ae"/></svg>