<svg xmlns="http://www.w3.org/2000/svg" viewBox="0 0 36 36"><path fill="#0568ae" d="M31.9 26.4V9.7c0-1-.8-1.8-1.8-1.8H5.9c-1 0-1.8.8-1.8 1.8v14.2c0 .2.2.4.4.4s.4-.2.4-.4V9.7c0-.6.5-1.1 1.1-1.1h24.1c.6 0 1.1.5 1.1 1.1v16.7c0 .6-.5 1.1-1.1 1.1H5.9c-.2 0-.4.2-.4.4s.2.4.4.4H30c1.1-.1 1.9-.9 1.9-1.9zM10.3 13.8h1v3.8h4.6v-3.8h1v8.6h-1v-3.9h-4.6v3.9h-1v-8.6zM26.1 18c0 .9-.2 1.7-.5 2.3-.4.6-.8 1.1-1.5 1.5-.6.3-1.4.5-2.2.5h-2.7v-8.6h2.7c.9 0 1.6.2 2.3.5.6.4 1.1.9 1.5 1.5.2.7.4 1.5.4 2.3zm-1 0c0-1.1-.3-1.9-.9-2.5-.6-.6-1.4-.9-2.4-.9h-1.7v6.8h1.7c1 0 1.8-.3 2.4-.9.6-.6.9-1.4.9-2.5z"/></svg>