<svg xmlns="http://www.w3.org/2000/svg" viewBox="0 0 36 36"><path fill="#0568ae" d="M30.7 8.5H5.3c-1 0-1.8.8-1.8 1.8v15.5c0 1 .8 1.8 1.8 1.8h25.4c1 0 1.8-.8 1.8-1.8V10.3c0-1-.8-1.8-1.8-1.8zM16.6 23.3h-1.7v-4.5H10v4.5H8.3V12.8H10v4.4h4.9v-4.4h1.7v10.5zm10.9-2.5c-.4.8-1 1.4-1.8 1.8-.8.4-1.7.6-2.7.6h-3.5V12.8H23c1.1 0 2 .2 2.8.7.8.4 1.4 1 1.8 1.8.4.8.6 1.7.6 2.8-.1 1-.3 1.9-.7 2.7z"/><path fill="#0568ae" d="M22.9 14.3h-1.8v7.4h1.8c1.1 0 2-.3 2.6-1 .6-.6.9-1.6.9-2.7 0-1.2-.3-2.1-.9-2.7-.7-.7-1.5-1-2.6-1z"/></svg>