<svg xmlns="http://www.w3.org/2000/svg" viewBox="0 0 36 36"><path fill="#0568ae" d="M28.3 21c3.3 0 6 2.7 6 6s-2.7 6-6 6c-1.2 0-2.3-.4-3.2-1l-.1-.1 2.1-2.1c.4.2.8.3 1.3.3.8 0 1.6-.3 2.2-.9.8-.8 1.1-1.9.8-2.9 0-.1-.1-.2-.2-.2s-.1 0-.2.1l-1.7 1.7c-.3.3-.6.4-.9.4-.3 0-.7-.1-.9-.4-.5-.5-.5-1.3 0-1.8l1.8-1.8c.2-.2 0-.3-.1-.4-.2-.1-.5-.1-.7-.1-.8 0-1.6.3-2.2.9-.9.9-1.2 2.3-.6 3.5l-2.1 2.1-.1-.1c-.6-.9-1-2.1-1-3.3-.2-3.2 2.4-5.9 5.8-5.9m2.4-17.3H5.3c-1 0-1.8.8-1.8 1.8V21c0 1 .8 1.8 1.8 1.8H17v2.1h-4.8c-.6 0-1 .4-1 1s.4 1 1 1h8.5c0-.7.1-1.4.3-2h-2v-2.1h3c1.4-2 3.6-3.3 6.2-3.3 1.6 0 3 .5 4.3 1.3V5.5c0-1-.8-1.8-1.8-1.8zM16.6 18.5h-1.7V14H10v4.5H8.3V8H10v4.4h4.9V8h1.7v10.5zm10.9-2.4c-.4.8-1 1.4-1.8 1.8-.8.4-1.7.6-2.7.6h-3.5V8H23c1.1 0 2 .2 2.8.7.8.4 1.4 1 1.8 1.8.4.8.6 1.7.6 2.8-.1 1-.3 2-.7 2.8zm-4.6-6.5h-1.8V17h1.8c1.1 0 2-.3 2.6-1 .6-.6.9-1.6.9-2.7 0-1.2-.3-2.1-.9-2.7-.7-.7-1.5-1-2.6-1z"/></svg>