<svg xmlns="http://www.w3.org/2000/svg" viewBox="0 0 36 36"><path fill="#0568ae" d="M24.3 14.4c.6.6.9 1.6.9 2.7 0 1.2-.3 2.1-.9 2.7-.6.6-1.5 1-2.6 1h-1.8v-7.4h1.8c1.1 0 1.9.3 2.6 1zm4.2 6.6c-3.3 0-6 2.7-6 6s2.7 6 6 6 6-2.7 6-6-2.7-6-6-6m-.5 8.2l-1.4.8c-.1.1-.2.1-.2 0v-.2l.3-1.6c.1-.3-.1-.7-.3-1l-1.1-1.1c-.3-.1-.3-.1-.3-.2s.1-.1.2-.1l1.6-.2c.3 0 .7-.3.8-.6l.7-1.4c.1-.2.2-.2.3 0l.7 1.4c.1.3.5.6.8.6l1.6.2c.1 0 .2.1.2.1 0 .1 0 .1-.1.2l-1.1 1.1c-.2.2-.4.7-.3 1l.3 1.6v.2c0 .1-.1 0-.2 0l-1.5-.8c-.1-.1-.3-.1-.5-.1s-.4.1-.5.1zm-1.9-9c.1-.1.2-.2.2-.3.4-.8.7-1.7.7-2.8 0-1-.2-2-.6-2.8-.4-.8-1-1.4-1.8-1.8-.8-.4-1.7-.7-2.8-.7h-3.5v10.5h3.5c.4 0 .7 0 1-.1-1 1.2-1.6 2.7-1.7 4.4H4.3c-1 0-1.8-.8-1.8-1.8V9.3c0-1 .8-1.8 1.8-1.8h25.4c1 0 1.8.8 1.8 1.8v10.8c-.9-.4-1.9-.6-3-.6 0 0-1.5.1-2.4.7zm-10.7-8.4h-1.7v4.4H8.8v-4.4H7.1v10.5h1.7v-4.5h4.9v4.5h1.7V11.8z"/></svg>