<svg xmlns="http://www.w3.org/2000/svg" viewBox="0 0 36 36"><path fill="#0568ae" d="M22.9 12.5h-1.8v7.4h1.8c1.1 0 2-.3 2.6-1 .6-.6.9-1.6.9-2.7 0-1.2-.3-2.1-.9-2.7-.7-.7-1.5-1-2.6-1z"/><path fill="#0568ae" d="M30.7 6.7H5.3c-1 0-1.8.8-1.8 1.8V24c0 1 .8 1.8 1.8 1.8H17v2.1h-4.8c-.6 0-1 .4-1 1s.4 1 1 1h11.5c.6 0 1-.4 1-1s-.4-1-1-1H19v-2.1h11.7c1 0 1.8-.8 1.8-1.8V8.5c0-1-.8-1.8-1.8-1.8zM16.6 21.5h-1.7V17H10v4.5H8.3V11H10v4.4h4.9V11h1.7v10.5zM27.5 19c-.4.8-1 1.4-1.8 1.8-.8.4-1.7.6-2.7.6h-3.5V11H23c1.1 0 2 .2 2.8.7.8.4 1.4 1 1.8 1.8.4.8.6 1.7.6 2.8-.1 1-.3 1.9-.7 2.7z"/></svg>