<svg xmlns="http://www.w3.org/2000/svg" viewBox="0 0 36 36"><path fill="#0568ae" d="M28.9 23.8H9c-.2 0-.4-.2-.4-.4s.2-.4.4-.4h19.9c.1 0 .1 0 .1-.1V8.8c0-.1 0-.1-.1-.1H7.1c-.1 0-.1.1-.1.1v9.3c0 .2-.2.4-.4.4s-.4-.2-.4-.4V8.8c0-.4.4-.8.9-.8H29c.5 0 .9.4.9.9V23c-.1.4-.5.8-1 .8zm3-16.6v17.7c0 .7-.6 1.3-1.3 1.3H18.4v2.3h5.4c.2 0 .4.2.4.4s-.2.4-.4.4H12.2c-.2 0-.4-.2-.4-.4s.2-.4.4-.4h5.4v-2.3H5.5c-.7 0-1.3-.6-1.3-1.3V7.2c0-.7.6-1.3 1.3-1.3h25.1c.7-.1 1.3.5 1.3 1.3zm-.8 0c0-.3-.3-.6-.6-.6h-25c-.3 0-.6.3-.6.6v17.7c0 .3.3.6.6.6h25.1c.3 0 .6-.3.6-.6V7.2zM11 12h.9v3.4H16V12h.9v7.8H16v-3.5h-4.2v3.5H11V12zm14.4 3.9c0 .8-.2 1.5-.5 2.1-.3.6-.8 1-1.3 1.3-.6.3-1.2.5-2 .5h-2.4V12h2.4c.8 0 1.5.2 2.1.5.6.3 1 .8 1.3 1.4.2.6.4 1.2.4 2zm-.9 0c0-1-.3-1.7-.8-2.3-.5-.5-1.2-.8-2.2-.8H20V19h1.5c.9 0 1.6-.3 2.2-.8.5-.6.8-1.3.8-2.3z"/></svg>