<svg xmlns="http://www.w3.org/2000/svg" viewBox="0 0 36 36" enable-background="new 0 0 36 36"><path d="M18.104 29.907h-.108l-.319-.025c-.755-.047-1.538-.359-2.18-.878l-.094-.072-.136-.115c-2.514-2.131-3.758-3.25-4.358-3.814l.202-.322-.243.286-.088-.085c-2.741-2.647-4.339-4.275-5.457-5.824-1.14-1.563-1.706-3.24-1.682-4.982 0-4.38 3.499-7.964 7.8-7.983l.17.005.055.002c2.621 0 4.497 1.769 5.382 2.823.133.158.112.395-.046.528s-.395.112-.528-.046c-.801-.954-2.49-2.555-4.807-2.555l-.093-.003-.131-.004c-3.888.018-7.053 3.265-7.053 7.238-.022 1.582.496 3.106 1.539 4.536 1.088 1.507 2.668 3.116 5.387 5.74l.041.047.065.052c.594.558 1.828 1.667 4.33 3.788l.155.132.064.048c.518.418 1.15.672 1.776.712l.248.021h.108l.202-.016c.662-.044 1.281-.286 1.784-.685l.304.242-.248-.282.048-.043c.031-.026 2.926-2.456 4.478-3.898l.072-.071.058-.056c2.733-2.641 4.305-4.242 5.37-5.728 1.05-1.436 1.568-2.96 1.543-4.532-.004-3.979-3.171-7.227-7.059-7.244l-.206.006c-3.098.001-5.576 2.959-6.022 4.518-.011.089-.053.174-.125.236l-.152.077c-.09.026-.189.019-.276-.028-.095-.05-.159-.139-.184-.238-.027-.092-.019-.193.024-.279.536-1.803 3.239-5.036 6.711-5.036l.234-.007c4.301.019 7.802 3.603 7.807 7.988.028 1.734-.539 3.411-1.686 4.979-1.097 1.529-2.692 3.156-5.436 5.806l-.077.077-.027.028c-1.566 1.462-4.538 3.955-4.564 3.977l-.152.118c-.59.471-1.358.77-2.131.819l-.289.022z" fill="#0568ae"/></svg>