<svg xmlns="http://www.w3.org/2000/svg" viewBox="0 0 36 36" enable-background="new 0 0 36 36"><path d="M33 18c0 8.284-6.716 15-15 15s-15-6.716-15-15 6.716-15 15-15c8.285 0 15 6.716 15 15zm-6.365-1.415c-.002-2.528-2-4.671-4.57-4.683l-.144.004c-2.097 0-3.661 2.017-3.921 2.976-.331-.984-1.844-2.976-3.926-2.976l-.138-.004c-2.569.012-4.569 2.155-4.57 4.683-.015.99.302 1.98.992 2.926.69.958 1.72 1.999 3.339 3.561l.049.047.017.016c.92.862 2.719 2.375 2.766 2.416l.044.034c.351.285.783.463 1.225.491l.167.013h.066l.163-.013c.433-.028.859-.195 1.201-.469l.061-.047.003-.003.008-.006c.007-.006 1.842-1.545 2.795-2.437l-.008.005.07-.066c1.604-1.55 2.632-2.588 3.318-3.542.693-.946 1.007-1.936.993-2.926z" fill="#0568ae"/></svg>