<svg xmlns="http://www.w3.org/2000/svg" viewBox="0 0 36 36" enable-background="new 0 0 36 36"><path d="M29.515 19.772c-1.034 1.436-2.583 3.001-5 5.336l-.105.1.012-.007c-1.437 1.343-4.202 3.663-4.212 3.672l-.012.009-.005.004-.091.071c-.517.412-1.158.664-1.81.706l-.246.02h-.099l-.251-.02c-.666-.042-1.317-.31-1.846-.739l-.066-.051c-.071-.062-2.781-2.342-4.168-3.641l-.025-.024-.075-.071c-2.44-2.353-3.991-3.922-5.031-5.365-1.04-1.425-1.517-2.917-1.495-4.409.001-3.809 3.015-7.038 6.885-7.055l.208.006c3.138 0 5.417 3.001 5.916 4.484.391-1.445 2.748-4.484 5.907-4.484l.217-.006c3.872.018 6.882 3.247 6.885 7.055.023 1.492-.45 2.984-1.493 4.409z" fill="#0568ae"/></svg>