<svg xmlns="http://www.w3.org/2000/svg" viewBox="0 0 36 36"><path fill="#0568ae" d="M33.1 11c-.2-.1-.4-.1-.5.1l-3.4 5.3-2.6-1.7L32.8 5c.1-.2.1-.4-.1-.5-.2-.1-.4-.1-.5.1l-8.8 13.5-2 3.1c-.8 1.2-2.1 1.8-4.1 1.8h-12c-1.4 0-2.4 1.1-2.4 2.4v1.7c0 1.4 1.1 2.4 2.4 2.4h9.4c.2 0 .4-.2.4-.4s-.2-.4-.4-.4H5.2c-.9 0-1.7-.8-1.7-1.7v-1.7c0-.9.8-1.7 1.7-1.7h12c2.3 0 3.8-.7 4.8-2.1l1.8-2.8 2.6 1.7-3.4 5.4c-.1.2-.1.4.1.5.1 0 .1.1.2.1s.2-.1.3-.2l9.6-14.7c.1-.2.1-.4-.1-.5zm-8.9 7.3l1.9-3 2.6 1.7-1.9 3-2.6-1.7zm-3.6 9.1c-2.1 0-4.3.5-4.3 1.5v2.4c0 1.1 2.2 1.5 4.3 1.5 2.1 0 4.3-.5 4.3-1.5v-2.4c.1-1.1-2.2-1.5-4.3-1.5zm0 4.7c-2.3 0-3.5-.6-3.6-.8v-2.4c.1-.2 1.2-.8 3.6-.8 2.3 0 3.5.6 3.6.8-.1.2-1.3.8-3.6.8-.7 0-1.3-.1-1.9-.1-.2 0-.4.1-.4.3 0 .2.1.4.3.4.6.1 1.3.2 2 .2 1.3 0 2.7-.2 3.6-.6v1.5c0 .1-1.2.7-3.6.7z"/></svg>