<svg xmlns="http://www.w3.org/2000/svg" viewBox="0 0 36 36" enable-background="new 0 0 36 36"><path d="M9.096 22.375l-4.81.729-.151.012c-.492 0-.873-.375-.873-.893v-8.447c0-.518.381-.892.873-.892l.151.011 4.81.729v8.751zm22.77-9.491l-.151.011-4.81.729v8.751l4.81.729.151.012c.492 0 .873-.375.873-.893v-8.447c0-.518-.381-.892-.873-.892zm-7.276-1.146c.449 0 .815.366.815.815v10.895c0 .449-.365.815-.815.815h-13.179c-.449 0-.815-.365-.815-.815v-10.896c0-.449.365-.815.815-.815l13.179.001z" fill="#0568ae"/></svg>