<svg xmlns="http://www.w3.org/2000/svg" viewBox="0 0 36 36" enable-background="new 0 0 36 36"><path d="M25.805 15.415h-17.706c-1.532 0-3.065 1.385-3.065 3.056 0 1.668 1.25 3.021 2.782 3.021l.275-.015v-.002s.484 1.653 1.639 3.34c1.569 2.292 4.02 3.696 7.227 3.696 4.586 0 7.556-2.957 8.859-7.036v.002l.276.015c1.535 0 2.78-1.353 2.78-3.021 0-1.67-1.533-3.056-3.067-3.056zm-13.235 5.953c-.873 0-1.579-.71-1.579-1.584 0-.876.707-1.587 1.579-1.587.874 0 1.582.711 1.582 1.587 0 .874-.708 1.584-1.582 1.584zm7.23 3.632c-1.522 1.422-3.494 1.952-5.641.398-.262-.189-.518-.377-.451-.692.067-.316.377-.516.692-.451.282.059.573.107.872.14 1.167.131 2.418.035 3.501-.28.213-.061.415-.131.61-.205.3-.114.639.035.754.337.116.3-.101.533-.337.753zm1.136-3.623c-.871 0-1.582-.711-1.582-1.584 0-.877.71-1.586 1.582-1.586.871 0 1.578.709 1.578 1.586 0 .873-.707 1.584-1.578 1.584zm10.03-8.462c0 .552-.448 1-1 1h-21.378c-.323 0-.732-.094-.623-.636.905-4.495 4.489-6.598 8.554-6.598 3.75 0 6.98 1.255 8.255 5.234h5.192c.553 0 1 .448 1 1z" fill="#0568ae"/></svg>