<svg xmlns="http://www.w3.org/2000/svg" viewBox="0 0 36 36" enable-background="new 0 0 36 36"><path d="M29.006 10.571v2.439c0 .198-.162.36-.36.36h-5.035c-.198 0-.36-.162-.36-.36v-2.439c0-.198.162-.36.36-.36h5.035c.198 0 .36.162.36.36zm-.36 8.544h-5.035c-.198 0-.36.162-.36.36v2.439c0 .198.162.36.36.36h5.035c.198 0 .36-.162.36-.36v-2.439c0-.197-.162-.36-.36-.36zm0-4.452h-5.035c-.198 0-.36.162-.36.36v2.439c0 .198.162.36.36.36h5.035c.198 0 .36-.162.36-.36v-2.439c0-.198-.162-.36-.36-.36zm3.86-6.152v15.481c0 .99-.81 1.8-1.8 1.8h-11.706v2.089h4.761c.552 0 1 .448 1 1s-.448 1-1 1h-11.523c-.552 0-1-.448-1-1s.448-1 1-1h4.762v-2.089h-11.706c-.99 0-1.8-.81-1.8-1.8v-15.481c0-.99.81-1.8 1.8-1.8h25.411c.99 0 1.801.81 1.801 1.8zm-2 .92c0-.396-.324-.72-.72-.72h-23.572c-.396 0-.72.324-.72.72v13.641c0 .396.324.72.72.72h23.572c.396 0 .72-.324.72-.72v-13.641zm-14.769 7.06c-.332 0-.602.27-.602.604 0 .333.271.603.602.603.332 0 .601-.271.601-.603 0-.334-.269-.604-.601-.604zm-.592 2.172l-.232.078c-.413.12-.889.157-1.334.107l-.332-.053c-.12-.025-.238.052-.264.172-.025.12.072.192.172.264.818.592 1.569.39 2.149-.152.09-.084.173-.173.128-.287-.044-.115-.173-.172-.287-.129zm-2.595-2.175c-.333 0-.602.271-.602.604 0 .333.269.603.602.603.332 0 .603-.27.603-.603 0-.334-.271-.604-.603-.604zm9.285-5.917v11.343c0 .198-.162.36-.36.36h-14.121c-.198 0-.36-.162-.36-.36v-11.343c0-.198.162-.36.36-.36h14.121c.199 0 .36.162.36.36zm-3.075 6.021c0-.636-.584-1.164-1.169-1.164h-6.745c-.584 0-1.168.528-1.168 1.164 0 .635.477 1.151 1.06 1.151l.105-.006v-.001s.184.63.624 1.273c.598.873 1.532 1.408 2.753 1.408 1.747 0 2.878-1.126 3.374-2.68v.001l.106.006c.586-.001 1.06-.516 1.06-1.152zm.798-2.116c0-.21-.171-.381-.381-.381h-1.978c-.486-1.516-1.716-1.994-3.145-1.994-1.549 0-2.914.801-3.259 2.514-.042.206.114.242.237.242h8.144c.211-.001.382-.171.382-.381z" fill="#0568ae"/></svg>