<svg xmlns="http://www.w3.org/2000/svg" viewBox="0 0 36 36" enable-background="new 0 0 36 36"><path d="M10.184 15.106c.125.165.092.4-.073.525-.248.188-.397.465-.397.742 0 .51.369.926.823.926l.098-.006c.171-.004.331.102.38.268.002.007.201.667.655 1.331.64.935 1.609 1.428 2.802 1.428 1.589 0 2.65-.905 3.245-2.768.053-.164.214-.269.381-.26l.119.008c.429-.001.798-.416.798-.926 0-.24-.113-.484-.309-.668-.151-.142-.159-.379-.017-.53.142-.151.379-.159.53-.017.347.326.546.768.546 1.215 0 .87-.625 1.587-1.422 1.668-.718 2.01-2.019 3.029-3.871 3.029-1.431 0-2.646-.623-3.421-1.754-.341-.498-.554-.987-.664-1.277-.806-.088-1.423-.802-1.423-1.666 0-.51.259-1.011.694-1.34.165-.126.401-.093.526.072zm9.889-.479h-9.203c-.288 0-.445-.118-.527-.217-.077-.094-.159-.257-.109-.505.344-1.724 1.896-2.795 4.05-2.795 1.937 0 3.423 1.03 3.976 2.755l.003.012 1.81.001c.207 0 .375.168.375.375 0 .206-.168.374-.375.374zm-2.604-.751c-.503-1.285-1.651-2.016-3.184-2.016-1.339 0-2.873.534-3.274 2.015l6.458.001zm-1.913 4.464l-.233.078c-.411.119-.888.159-1.339.106l-.333-.053c-.204-.044-.402.087-.444.29-.042.203.088.401.291.444l.404.064c.156.018.316.026.48.026.404 0 .791-.053 1.149-.158l.291-.097c.194-.073.291-.29.218-.483-.075-.193-.291-.291-.484-.217zm14.237-9.505v2.832c0 .465-.378.843-.844.843h-3.98c-.465 0-.843-.378-.843-.843v-2.832c0-.465.378-.843.843-.843h3.98c.466 0 .844.378.844.843zm-.75 0c0-.05-.043-.093-.094-.093h-3.98c-.05 0-.093.043-.093.093v2.832c0 .051.042.093.093.093h3.98c.051 0 .094-.043.094-.093v-2.832zm.75 5.653v2.832c0 .465-.378.843-.844.843h-3.98c-.465 0-.843-.378-.843-.843v-2.832c0-.465.378-.843.843-.843h3.98c.466 0 .844.378.844.843zm-.75 0c0-.05-.043-.093-.094-.093h-3.98c-.05 0-.093.042-.093.093v2.832c0 .051.042.093.093.093h3.98c.051 0 .094-.043.094-.093v-2.832zm.75 5.653v2.832c0 .465-.378.843-.844.843h-3.98c-.465 0-.843-.378-.843-.843v-2.832c0-.465.378-.843.843-.843h3.98c.466-.001.844.378.844.843zm-.75 0c0-.051-.043-.093-.094-.093h-3.98c-.05 0-.093.042-.093.093v2.832c0 .051.042.093.093.093h3.98c.051 0 .094-.042.094-.093v-2.832zm2.838-12.975v17.67c0 .734-.599 1.331-1.334 1.331h-12.172v2.339h5.386c.207 0 .375.168.375.375s-.168.375-.375.375h-11.522c-.207 0-.375-.168-.375-.375s.168-.375.375-.375h5.386v-2.339h-12.174c-.734 0-1.332-.597-1.332-1.331v-17.67c0-.733.598-1.33 1.332-1.33h25.095c.736 0 1.335.597 1.335 1.33zm-.75 0c0-.32-.262-.58-.584-.58h-25.096c-.321 0-.582.26-.582.58v17.67c0 .321.261.581.582.581h25.095c.322 0 .584-.261.584-.581v-17.67zm-9.199.826h-14.868c-.471 0-.855.385-.855.857v9.343c0 .207.168.375.375.375s.375-.168.375-.375v-9.343c0-.059.047-.107.105-.107h14.868c.057 0 .103.048.103.107v14.11c0 .058-.048.107-.104.107h-12.931c-.207 0-.375.168-.375.375s.168.375.375.375h12.931c.471 0 .854-.384.854-.857v-14.11c0-.472-.383-.857-.853-.857zm-9.977 8.605c0 .326.264.59.589.59.326 0 .59-.265.59-.59 0-.326-.264-.591-.59-.591-.326 0-.589.265-.589.591zm4.822.004c0-.327-.263-.591-.588-.591-.325 0-.59.264-.59.591 0 .326.265.591.59.591.325-.001.588-.266.588-.591z" fill="#0568ae"/></svg>