<svg xmlns="http://www.w3.org/2000/svg" viewBox="0 0 36 36" enable-background="new 0 0 36 36"><path d="M30 11.625h-11.625v-4.185c0-1.001-.814-1.815-1.815-1.815h-9.12c-1.001 0-1.815.814-1.815 1.815v19.56c0 .207.168.375.375.375s.375-.168.375-.375v-2.625h23.25v4.185c0 .587-.478 1.065-1.065 1.065h-21.12c-.207 0-.375.168-.375.375s.168.375.375.375h21.12c1.001 0 1.815-.814 1.815-1.815v-16.56c0-.207-.168-.375-.375-.375zm-.375 6h-23.25v-5.25h23.25v5.25zm-22.185-11.25l4.562.001h4.557c.587 0 1.065.478 1.065 1.065v4.185h-11.249v-4.186c0-.587.478-1.065 1.065-1.065zm-1.065 17.25v-5.25h23.25v5.25h-23.25z" fill="#0568ae"/></svg>