<svg xmlns="http://www.w3.org/2000/svg" viewBox="0 0 36 36" enable-background="new 0 0 36 36"><path d="M24.171 12.672h-12.341c-.537 0-.972.436-.972.972v8.713c0 .536.435.971.972.971h12.34c.536 0 .971-.435.971-.971v-8.713c.001-.537-.434-.972-.97-.972zm-6.171 8.931c-1.99 0-3.603-1.613-3.603-3.603 0-1.99 1.613-3.603 3.603-3.603s3.603 1.613 3.603 3.603c0 1.99-1.613 3.603-3.603 3.603zm-1.457-5.294c-.003-.094.048-.18.127-.226.079-.05.176-.052.26-.009l3.228 1.69.114.111c.068.13.02.291-.111.358l-3.228 1.694c-.084.045-.18.04-.261-.008-.078-.047-.127-.133-.128-.226v-3.384zm13.488-5.752l-1.088.674c-.169.104-.394.054-.502-.113 0 0-.163-.252-.356-.515-3.815-5.205-11.078-6.684-16.657-3.231-2.819 1.745-4.78 4.471-5.554 7.636l1.542.003c.287 0 .384.191.215.424l-2.526 3.485-.077.105c-.127.174-.333.174-.458-.001l-.9-1.251-1.69-2.349c-.168-.233-.07-.424.217-.423l1.627.003c.811-3.873 3.141-7.221 6.552-9.333 6.533-4.044 15.058-2.256 19.448 3.923l.319.471c.107.166.057.388-.112.492zm-24.062 14.886l1.088-.674c.168-.104.394-.054.501.113 0 0 .163.252.356.515 3.815 5.205 11.078 6.684 16.657 3.231 2.819-1.745 4.78-4.471 5.554-7.636l-1.542-.003c-.287 0-.384-.191-.215-.424l2.527-3.485.077-.106c.127-.174.333-.174.458.001l.9 1.251 1.69 2.35c.167.233.07.423-.217.423l-1.627-.003c-.812 3.873-3.141 7.221-6.552 9.333-6.533 4.044-15.058 2.256-19.448-3.923l-.319-.471c-.107-.166-.057-.388.112-.492z" fill="#0568ae"/></svg>