<svg xmlns="http://www.w3.org/2000/svg" viewBox="0 0 36 36" enable-background="new 0 0 36 36"><path d="M32.18 26.768c0 1.065-.863 1.928-1.928 1.928h-24.502c-1.066 0-1.93-.863-1.93-1.928v-17.299c0-1.066.864-1.931 1.93-1.931h24.502c1.065 0 1.928.865 1.928 1.931v17.299zm-14.18-4.01c3.148 0 5.7-2.552 5.7-5.7s-2.552-5.7-5.7-5.7-5.7 2.552-5.7 5.7 2.552 5.7 5.7 5.7zm-2.305-8.375c-.004-.149.075-.284.2-.358.125-.08.278-.083.411-.014l5.106 2.673c.075.038.139.098.18.175.108.206.032.46-.175.566l-5.107 2.68c-.133.07-.285.063-.413-.012-.124-.074-.201-.21-.202-.357v-5.353zm13.692 10.808h-15.745c-.261-.435-.733-.731-1.277-.731-.543 0-1.016.295-1.277.731h-4.475c-.414 0-.75.336-.75.75s.336.75.75.75h4.461c.258.449.737.756 1.291.756.554 0 1.033-.307 1.291-.756h15.73c.414 0 .75-.336.75-.75.001-.415-.335-.75-.749-.75z" fill="#0568ae"/></svg>