<svg xmlns="http://www.w3.org/2000/svg" viewBox="0 0 36 36" enable-background="new 0 0 36 36"><path d="M24.185 23.716h-12.369c-.744 0-1.349-.605-1.349-1.349v-8.733c0-.744.605-1.35 1.349-1.35h12.369c.744 0 1.349.605 1.349 1.35v8.733c-.001.744-.606 1.349-1.349 1.349zm-12.369-10.681c-.33 0-.599.269-.599.6v8.733c0 .33.269.599.599.599h12.369c.33 0 .599-.269.599-.599v-8.733c0-.331-.268-.6-.599-.6h-12.369zm5.113 7.111c-.108 0-.217-.029-.315-.087-.185-.113-.298-.312-.301-.522v-3.048c-.003-.216.111-.419.298-.529.174-.11.4-.119.596-.02l2.908 1.523c.107.053.202.145.261.256.158.306.041.677-.258.832l-2.904 1.524c-.09.047-.187.071-.285.071zm.134-3.435v2.595l2.475-1.299-2.475-1.296zm4.727 1.297c0-2.089-1.7-3.789-3.79-3.789s-3.79 1.7-3.79 3.789c0 .294.035.59.104.88.048.202.249.325.452.278.201-.048.326-.25.278-.452-.055-.233-.083-.471-.083-.706 0-1.676 1.364-3.039 3.04-3.039s3.04 1.363 3.04 3.039c0 1.676-1.364 3.039-3.04 3.039-.304 0-.601-.044-.885-.13-.196-.061-.407.051-.468.249-.061.198.051.408.249.468.354.108.726.163 1.104.163 2.089.001 3.789-1.699 3.789-3.789zm8.007-7.312c-4.027-6.504-12.596-8.52-19.101-4.494-3.65 2.26-6.009 5.998-6.485 10.266l-.117-.182-1.652-3.663c-.085-.188-.307-.273-.496-.188-.189.085-.273.307-.188.496l1.652 3.662c.185.41.517.698.911.789l.273.031c.31 0 .623-.117.89-.338l3.101-2.558c.16-.132.182-.368.05-.528-.132-.16-.368-.182-.528-.051l-3.1 2.562-.047.032c.455-4.029 2.684-7.558 6.131-9.692 6.154-3.809 14.259-1.902 18.069 4.251.109.176.34.23.516.121.176-.108.23-.339.121-.516zm4.444 12.371l-1.653-3.662c-.184-.41-.516-.698-.911-.789-.394-.092-.818.021-1.163.307l-3.1 2.558c-.16.132-.182.368-.05.528.132.16.369.181.528.05l3.1-2.559.044-.031c-.453 3.978-2.719 7.579-6.128 9.69-6.155 3.81-14.26 1.902-18.068-4.251-.109-.176-.341-.231-.516-.122-.176.109-.231.34-.122.516 2.622 4.236 7.17 6.568 11.82 6.568 2.491 0 5.012-.669 7.281-2.074 3.611-2.236 6.009-6.055 6.481-10.27l.12.186 1.653 3.663c.063.139.199.221.342.221l.154-.033c.19-.085.273-.307.188-.496z" fill="#0568ae"/></svg>