<svg xmlns="http://www.w3.org/2000/svg" viewBox="0 0 36 36" enable-background="new 0 0 36 36"><path d="M30.252 7.103h-24.502c-1.27 0-2.305 1.035-2.305 2.306v17.299c0 1.27 1.035 2.303 2.305 2.303h24.502c1.27 0 2.303-1.033 2.303-2.303v-17.299c0-1.271-1.033-2.306-2.303-2.306zm1.553 19.605c0 .857-.697 1.553-1.553 1.553h-24.502c-.857 0-1.555-.697-1.555-1.553v-17.299c0-.858.698-1.556 1.555-1.556h24.502c.856 0 1.553.698 1.553 1.556v17.299zm-15.319-6.331l5.104-2.678c.189-.097.328-.261.391-.463.064-.204.044-.421-.055-.611-.077-.146-.195-.262-.338-.333l-5.107-2.675c-.249-.128-.562-.11-.773.025-.245.144-.392.409-.385.681v5.356c.002.276.149.536.388.679.125.073.266.112.408.112.126-.001.253-.033.367-.093zm-.414-6.054l.063-.035v-.005l5.127 2.691-.018.06-5.107 2.68-.019.005-.046-.044v-5.352zm-4.273 4.156c-.115-.483-.173-.981-.173-1.481 0-3.515 2.859-6.375 6.375-6.375 3.515 0 6.375 2.86 6.375 6.375s-2.86 6.375-6.375 6.375c-.631 0-1.256-.092-1.855-.274-.198-.06-.31-.27-.25-.468.061-.198.271-.31.468-.25.529.161 1.08.242 1.637.242 3.102 0 5.625-2.524 5.625-5.625 0-3.102-2.523-5.625-5.625-5.625-3.101 0-5.625 2.523-5.625 5.625 0 .441.051.881.153 1.307.047.202-.077.404-.278.452-.203.048-.404-.077-.452-.278zm18.264 7.401c0 .207-.168.375-.375.375h-16.399c-.144.369-.502.631-.923.631-.421 0-.778-.262-.923-.631h-5.123c-.207 0-.375-.168-.375-.375s.168-.375.375-.375h5.131c.151-.356.504-.605.915-.605.411 0 .764.25.915.605h16.406c.208 0 .376.168.376.375z" fill="#0568ae"/></svg>