<svg xmlns="http://www.w3.org/2000/svg" viewBox="0 0 36 36" enable-background="new 0 0 36 36"><path d="M30.706 6.711h-25.412c-.99 0-1.8.81-1.8 1.8v15.481c0 .99.81 1.8 1.8 1.8h11.706v2.089h-4.761c-.552 0-1 .448-1 1s.448 1 1 1h11.522c.552 0 1-.448 1-1s-.448-1-1-1h-4.761v-2.089h11.706c.99 0 1.8-.81 1.8-1.8v-15.481c0-.99-.81-1.8-1.8-1.8zm-.2 16.361c0 .396-.324.72-.72.72h-23.572c-.396 0-.72-.324-.72-.72v-13.641c0-.396.324-.72.72-.72h23.572c.396 0 .72.324.72.72v13.641zm-7.682-12.522h-9.647c-.376 0-.68.305-.68.681v8.056c0 .377.305.681.68.681h3.897c.359.021.632.094.981.529l1.514 1.753s.197.251.461.251c.302 0 .548-.246.548-.547l-.016-1.473c0-.336.277-.495.548-.513h1.714c.377 0 .68-.305.68-.681v-8.056c0-.376-.305-.681-.68-.681zm-1.161 7.017h-7.326c-.176 0-.319-.143-.319-.319 0-.176.143-.319.319-.319h7.326c.177 0 .319.143.319.319 0 .176-.143.319-.319.319zm0-1.999h-7.326c-.176 0-.319-.143-.319-.319s.143-.319.319-.319h7.326c.177 0 .319.143.319.319s-.143.319-.319.319zm0-2h-7.326c-.176 0-.319-.143-.319-.319 0-.176.143-.319.319-.319h7.326c.177 0 .319.143.319.319 0 .176-.143.319-.319.319z" fill="#0568ae"/></svg>