<svg xmlns="http://www.w3.org/2000/svg" viewBox="0 0 36 36" enable-background="new 0 0 36 36"><path d="M18.081 3.353c8.125 0 14.711 6.587 14.711 14.711 0 8.125-6.586 14.711-14.711 14.711-8.124 0-14.711-6.586-14.711-14.711 0-8.124 6.587-14.711 14.711-14.711zm.007 2.976c-1.968 0-3.563 1.595-3.563 3.56 0 1.968 1.596 3.565 3.563 3.565 1.968 0 3.564-1.597 3.564-3.565 0-1.965-1.596-3.56-3.564-3.56zm-1.562 11.671c0 .806.654 1.466 1.462 1.466.811 0 1.469-.66 1.469-1.466 0-.809-.658-1.468-1.469-1.468-.808 0-1.462.659-1.462 1.468zm1.562 4.677c-1.968 0-3.563 1.588-3.563 3.56 0 1.968 1.596 3.563 3.563 3.563 1.968 0 3.564-1.595 3.564-3.563 0-1.972-1.596-3.56-3.564-3.56zm11.731-4.615c0-1.968-1.599-3.564-3.564-3.564-1.966 0-3.563 1.596-3.563 3.564 0 1.966 1.597 3.559 3.563 3.559 1.965 0 3.564-1.593 3.564-3.559zm-16.347 0c0-1.968-1.599-3.564-3.564-3.564-1.966 0-3.563 1.596-3.563 3.564 0 1.966 1.597 3.559 3.563 3.559 1.965 0 3.564-1.593 3.564-3.559z" fill="#0568ae"/></svg>