<svg xmlns="http://www.w3.org/2000/svg" viewBox="0 0 36 36" enable-background="new 0 0 36 36"><path d="M28.949 12.511h-3.981c-.465 0-.843-.378-.843-.843v-2.833c0-.465.378-.843.843-.843h3.981c.465 0 .844.378.844.843v2.832c0 .465-.379.844-.844.844zm-3.98-3.769c-.05 0-.093.042-.093.093v2.832c0 .05.042.093.093.093h3.981c.051 0 .094-.043.094-.093v-2.832c0-.051-.043-.093-.094-.093h-3.981zm3.98 9.421h-3.981c-.465 0-.843-.378-.843-.843v-2.832c0-.465.378-.843.843-.843h3.981c.465 0 .844.378.844.843v2.832c0 .465-.379.843-.844.843zm-3.98-3.768c-.05 0-.093.042-.093.093v2.832c0 .051.042.093.093.093h3.981c.051 0 .094-.042.094-.093v-2.832c0-.051-.043-.093-.094-.093h-3.981zm3.98 9.421h-3.981c-.465 0-.843-.378-.843-.843v-2.832c0-.465.378-.843.843-.843h3.981c.465 0 .844.378.844.843v2.832c0 .465-.379.843-.844.843zm-3.98-3.769c-.05 0-.093.042-.093.093v2.832c0 .051.042.093.093.093h3.981c.051 0 .094-.043.094-.093v-2.832c0-.051-.043-.093-.094-.093h-3.981zm-2.183 2.912v-14.11c0-.472-.383-.857-.854-.857h-14.868c-.471 0-.855.385-.855.857v9.343c0 .207.168.375.375.375s.375-.168.375-.375v-9.343c0-.059.047-.107.105-.107h14.868c.057 0 .104.048.104.107v14.11c0 .058-.048.107-.104.107h-12.932c-.207 0-.375.168-.375.375s.168.375.375.375h12.931c.471 0 .855-.384.855-.857zm7.76-17.123h-25.095c-.734 0-1.332.597-1.332 1.33v17.669c0 .734.598 1.332 1.332 1.332h12.174v2.339h-5.386c-.207 0-.375.168-.375.375s.168.375.375.375h11.522c.207 0 .375-.168.375-.375s-.168-.375-.375-.375h-5.386v-2.339h12.171c.736 0 1.334-.597 1.334-1.332v-17.669c.001-.733-.598-1.33-1.334-1.33zm.585 18.999c0 .321-.262.582-.584.582h-25.096c-.321 0-.582-.261-.582-.582v-17.669c0-.32.261-.58.582-.58h25.095c.322 0 .584.26.584.58v17.669z" fill="#0568ae"/></svg>