<svg xmlns="http://www.w3.org/2000/svg" viewBox="0 0 36 36" enable-background="new 0 0 36 36"><path d="M29.006 19.476v2.439c0 .198-.162.36-.36.36h-5.035c-.198 0-.36-.162-.36-.36v-2.439c0-.198.162-.36.36-.36h5.035c.198-.001.36.162.36.36zm-7.53-9.265h-14.121c-.198 0-.36.162-.36.36v11.343c0 .198.162.36.36.36h14.121c.198 0 .36-.162.36-.36v-11.343c0-.198-.162-.36-.36-.36zm11.03-1.7v15.481c0 .99-.81 1.8-1.8 1.8h-11.706v2.089h4.761c.552 0 1 .448 1 1s-.448 1-1 1h-11.522c-.552 0-1-.448-1-1s.448-1 1-1h4.761v-2.089h-11.706c-.99 0-1.8-.81-1.8-1.8v-15.481c0-.99.81-1.8 1.8-1.8h25.411c.991 0 1.801.81 1.801 1.8zm-2 .92c0-.396-.324-.72-.72-.72h-23.572c-.396 0-.72.324-.72.72v13.641c0 .396.324.72.72.72h23.571c.396 0 .72-.324.72-.72v-13.641zm-1.86.78h-5.035c-.198 0-.36.162-.36.36v2.439c0 .198.162.36.36.36h5.035c.198 0 .36-.162.36-.36v-2.439c0-.198-.162-.36-.36-.36zm0 4.452h-5.035c-.198 0-.36.162-.36.36v2.439c0 .198.162.36.36.36h5.035c.198 0 .36-.162.36-.36v-2.439c0-.198-.162-.36-.36-.36z" fill="#0568ae"/></svg>