<svg xmlns="http://www.w3.org/2000/svg" viewBox="0 0 36 36" enable-background="new 0 0 36 36"><path d="M8.585 14.519l-3.101 2.558c-.266.22-.579.338-.889.338l-.274-.031c-.394-.091-.726-.379-.911-.789l-1.652-3.662c-.085-.189-.001-.411.188-.496.189-.086.411-.001.496.188l1.652 3.663.117.183c.476-4.268 2.834-8.007 6.485-10.267 6.505-4.026 15.074-2.01 19.101 4.494.109.176.055.407-.122.516-.176.109-.407.054-.516-.121-3.809-6.155-11.914-8.061-18.068-4.253-3.447 2.134-5.676 5.662-6.131 9.691l.047-.032 3.102-2.559c.16-.132.396-.109.528.051.131.16.108.396-.052.528zm25.656 8.548l-1.653-3.662c-.185-.41-.516-.698-.911-.789-.394-.092-.818.021-1.163.307l-3.1 2.558c-.16.132-.182.368-.05.528.132.16.369.181.528.05l3.1-2.559.044-.031c-.453 3.978-2.719 7.579-6.128 9.69-2.981 1.845-6.502 2.42-9.915 1.616-3.413-.803-6.308-2.887-8.153-5.867-.109-.176-.341-.231-.516-.122-.176.109-.231.34-.122.516 1.951 3.151 5.012 5.354 8.619 6.203 1.064.25 2.138.374 3.205.374 2.549 0 5.055-.708 7.277-2.083 3.611-2.236 6.009-6.055 6.481-10.27l.12.186 1.653 3.663c.063.139.199.221.342.221l.154-.033c.19-.085.273-.307.188-.496zm-15.796-.806l-.005.026c.043 1.009-.792 2.067-2.072 2.512-.396.137-.795.202-1.176.202-1.046 0-1.947-.493-2.236-1.326-.393-1.135.497-2.478 1.983-2.994.7-.242 1.432-.271 2.061-.08.267.081.493.207.694.353v-10.138c0-.149.089-.284.225-.344.138-.059.296-.032.405.07l4.817 4.49c.151.141.16.379.018.53-.141.152-.379.159-.53.019l-4.185-3.902v10.582zm-.803-.21c-.118-.339-.423-.599-.859-.731-.205-.063-.427-.094-.657-.094-.306 0-.626.055-.941.165-1.077.374-1.774 1.308-1.52 2.039.254.731 1.378 1.034 2.456.66 1.079-.374 1.775-1.308 1.521-2.039z" fill="#0568ae"/></svg>