<svg xmlns="http://www.w3.org/2000/svg" viewBox="0 0 36 36" enable-background="new 0 0 36 36"><path d="M25.716 12.66v3.34c0 .535-.334.689-.742.344l-5.817-4.922v15.402h-.005c-.003.618-.214 1.256-.634 1.858-.603.866-1.559 1.559-2.692 1.952-.637.221-1.284.333-1.924.333-1.684 0-3.049-.798-3.477-2.034-.609-1.759.822-3.858 3.189-4.679.636-.221 1.284-.333 1.924-.333.427 0 .835.039 1.205.154.24.075.341.021.341-.202v-17.965c0-.891.554-1.146 1.23-.566l1.418 1.215 5.248 4.498c.404.349.736 1.071.736 1.605z" fill="#0568ae"/></svg>