<svg xmlns="http://www.w3.org/2000/svg" viewBox="0 0 36 36" enable-background="new 0 0 36 36"><path d="M26.385 13.699l-8.027-7.483c-.109-.102-.269-.129-.405-.07-.137.06-.225.195-.225.344v17.423c-.375-.389-.874-.69-1.479-.874-.999-.303-2.164-.257-3.281.13-2.348.815-3.762 2.91-3.152 4.671.446 1.285 1.847 2.042 3.484 2.042.607 0 1.248-.104 1.883-.325 1.117-.388 2.061-1.073 2.658-1.929.459-.66.673-1.363.632-2.038l.005-.026v-18.212l7.396 6.895c.151.141.389.134.53-.019.141-.15.132-.388-.019-.529zm-9.161 13.501c-.507.728-1.319 1.313-2.288 1.649-1.958.681-3.936.117-4.413-1.254-.474-1.371.732-3.038 2.689-3.716.551-.191 1.112-.288 1.65-.288.408 0 .801.055 1.167.167.806.245 1.372.733 1.595 1.376.224.64.081 1.375-.4 2.066z" fill="#0568ae"/></svg>