<svg xmlns="http://www.w3.org/2000/svg" viewBox="0 0 36 36" enable-background="new 0 0 36 36"><path d="M30.031 10.557l-1.088.674c-.168.104-.394.053-.501-.113 0 0-.163-.252-.356-.515-3.815-5.205-11.078-6.684-16.657-3.231-2.819 1.745-4.78 4.471-5.554 7.636l1.541.003c.287 0 .384.191.215.424l-2.526 3.485-.077.106c-.127.174-.333.174-.459-.001l-.9-1.251-1.69-2.349c-.167-.234-.069-.425.218-.424l1.627.003c.812-3.873 3.141-7.221 6.552-9.333 6.533-4.044 15.058-2.256 19.448 3.923l.319.471c.107.166.057.388-.112.492zm-24.174 15.378l.319.471c4.39 6.179 12.915 7.966 19.448 3.923 3.411-2.112 5.741-5.46 6.552-9.333l1.627.003c.287 0 .385-.19.217-.423l-1.69-2.35-.9-1.251c-.126-.175-.332-.175-.458-.001l-.077.106-2.527 3.485c-.168.232-.072.423.215.424l1.542.003c-.774 3.165-2.734 5.891-5.554 7.636-5.579 3.453-12.842 1.974-16.657-3.231-.193-.263-.356-.515-.356-.515-.108-.166-.333-.217-.502-.113l-1.088.674c-.168.104-.218.326-.111.492zm16.295-12.193l-2.886-2.474-.78-.668c-.372-.319-.677-.179-.677.311v9.881c0 .122-.056.152-.188.111-.203-.063-.428-.085-.663-.085-.352 0-.708.062-1.058.183-1.302.451-2.089 1.606-1.754 2.573.236.68.987 1.119 1.913 1.119.352 0 .708-.062 1.058-.183.623-.216 1.149-.597 1.481-1.074.231-.332.347-.682.349-1.022h.003v-8.471l3.199 2.707c.224.19.408.105.408-.189v-1.837c.001-.293-.182-.69-.405-.882z" fill="#0568ae"/></svg>