<svg xmlns="http://www.w3.org/2000/svg" viewBox="0 0 36 36" enable-background="new 0 0 36 36"><path d="M29.006 13.01c0 .198-.162.36-.36.36h-5.035c-.198 0-.36-.162-.36-.36v-2.439c0-.198.162-.36.36-.36h5.035c.198 0 .36.162.36.36v2.439zm0 6.466c0-.198-.162-.36-.36-.36h-5.035c-.198 0-.36.162-.36.36v2.439c0 .198.162.36.36.36h5.035c.198 0 .36-.162.36-.36v-2.439zm0-4.453c0-.198-.162-.36-.36-.36h-5.035c-.198 0-.36.162-.36.36v2.439c0 .198.162.36.36.36h5.035c.198 0 .36-.162.36-.36v-2.439zm3.5-6.512v15.481c0 .99-.81 1.8-1.8 1.8h-11.706v2.089h4.761c.552 0 1 .448 1 1s-.448 1-1 1h-11.522c-.552 0-1-.448-1-1s.448-1 1-1h4.761v-2.089h-11.706c-.99 0-1.8-.81-1.8-1.8v-15.481c0-.99.81-1.8 1.8-1.8h25.411c.991 0 1.801.81 1.801 1.8zm-2 .92c0-.396-.324-.72-.72-.72h-23.572c-.396 0-.72.324-.72.72v13.641c0 .396.324.72.72.72h23.572c.396 0 .72-.324.72-.72v-13.641zm-8.67 1.14c0-.198-.162-.36-.36-.36h-14.121c-.198 0-.36.162-.36.36v11.343c0 .198.162.36.36.36h14.121c.198 0 .36-.162.36-.36v-11.343zm-7.685 1.984c.145-.301.383-.301.528 0l.783 1.62c.146.301.53.586.855.634l1.751.26c.325.048.398.279.164.513l-1.268 1.261c-.235.234-.382.695-.326 1.026l.299 1.78c.055.33-.138.473-.427.317l-1.567-.841c-.291-.157-.766-.157-1.056 0l-1.567.841c-.291.156-.483.013-.427-.317l.299-1.78c.056-.331-.091-.792-.327-1.026l-1.267-1.261c-.235-.235-.161-.465.164-.513l1.752-.26c.324-.048.709-.333.854-.634l.783-1.62z" fill="#0568ae"/></svg>