<svg xmlns="http://www.w3.org/2000/svg" viewBox="0 0 36 36" enable-background="new 0 0 36 36"><path d="M28.949 12.511h-3.98c-.465 0-.843-.378-.843-.843v-2.833c0-.465.378-.843.843-.843h3.98c.465 0 .844.378.844.843v2.832c0 .465-.379.844-.844.844zm-3.98-3.769c-.05 0-.093.042-.093.093v2.832c0 .05.042.093.093.093h3.98c.051 0 .094-.043.094-.093v-2.832c0-.051-.043-.093-.094-.093h-3.98zm3.98 9.421h-3.98c-.465 0-.843-.378-.843-.843v-2.832c0-.465.378-.843.843-.843h3.98c.465 0 .844.378.844.843v2.832c0 .465-.379.843-.844.843zm-3.98-3.768c-.05 0-.093.042-.093.093v2.832c0 .051.042.093.093.093h3.98c.051 0 .094-.042.094-.093v-2.832c0-.051-.043-.093-.094-.093h-3.98zm3.98 9.421h-3.98c-.465 0-.843-.378-.843-.843v-2.832c0-.465.378-.843.843-.843h3.98c.465 0 .844.378.844.843v2.832c0 .465-.379.843-.844.843zm-3.98-3.769c-.05 0-.093.042-.093.093v2.832c0 .051.042.093.093.093h3.98c.051 0 .094-.043.094-.093v-2.832c0-.051-.043-.093-.094-.093h-3.98zm-2.183 2.912v-14.11c0-.472-.383-.857-.854-.857h-14.868c-.471 0-.855.385-.855.857v9.343c0 .207.168.375.375.375s.375-.168.375-.375v-9.343c0-.059.047-.107.105-.107h14.868c.057 0 .104.048.104.107v14.11c0 .058-.048.107-.105.107h-12.931c-.207 0-.375.168-.375.375s.168.375.375.375h12.931c.471 0 .855-.384.855-.857zm7.76-17.123h-25.095c-.734 0-1.332.597-1.332 1.33v17.669c0 .734.598 1.332 1.332 1.332h12.174v2.339h-5.386c-.207 0-.375.168-.375.375s.168.375.375.375h11.522c.207 0 .375-.168.375-.375s-.168-.375-.375-.375h-5.386v-2.339h12.171c.736 0 1.334-.597 1.334-1.332v-17.669c.001-.733-.598-1.33-1.334-1.33zm.585 18.999c0 .321-.262.582-.584.582h-25.096c-.321 0-.582-.261-.582-.582v-17.669c0-.32.261-.58.582-.58h25.095c.322 0 .584.26.584.58v17.669zm-13.843-4.587c.211-.15.302-.42.251-.739l-.311-1.957c-.039-.244.089-.623.267-.794l1.44-1.369c.233-.225.322-.495.244-.742-.078-.246-.305-.415-.623-.465l-1.962-.308c-.243-.039-.562-.277-.669-.501l-.857-1.788c-.14-.292-.369-.462-.628-.465-.25-.007-.491.161-.637.449l-.9 1.769c-.11.217-.441.452-.682.484l-1.965.263c-.321.042-.552.208-.635.452-.083.245.001.517.23.746l1.403 1.401c.172.172.293.56.251.795l-.212 1.084c-.04.204.093.4.296.441.202.036.4-.093.44-.296l.213-1.089c.089-.486-.108-1.115-.458-1.465l-1.339-1.337 1.876-.251c.489-.064 1.028-.446 1.251-.887l.859-1.688.819 1.708c.214.446.742.84 1.228.917l1.874.294-1.374 1.306c-.357.341-.568.966-.49 1.454l.297 1.869-1.665-.9c-.435-.235-1.094-.243-1.533-.017l-1.396.712c-.185.094-.258.32-.164.504s.319.258.504.164l1.397-.713c.215-.111.62-.106.834.01l1.746.944c.145.078.289.117.424.117.13-.001.252-.038.356-.112z" fill="#0568ae"/></svg>