<svg xmlns="http://www.w3.org/2000/svg" viewBox="0 0 36 36" enable-background="new 0 0 36 36"><path d="M29.006 13.01c0 .198-.162.36-.36.36h-5.035c-.198 0-.36-.162-.36-.36v-2.439c0-.198.162-.36.36-.36h5.035c.198 0 .36.162.36.36v2.439zm0 6.466c0-.198-.162-.36-.36-.36h-5.035c-.198 0-.36.162-.36.36v2.439c0 .198.162.36.36.36h5.035c.198 0 .36-.162.36-.36v-2.439zm0-4.453c0-.198-.162-.36-.36-.36h-5.035c-.198 0-.36.162-.36.36v2.439c0 .198.162.36.36.36h5.035c.198 0 .36-.162.36-.36v-2.439zm-7.53-4.812h-14.122c-.198 0-.36.162-.36.36v11.343c0 .198.162.36.36.36h2.61l.036-.204c.128-.714.333-1.708.584-2.493.097-.305.2-.578.309-.791l.139-.237c.351-.484 1.07-.872 1.972-1.076l.048-.011-.068-.05c-.484-.331-.85-.821-1.019-1.396-.066-.226-.104-.465-.104-.715 0-1.414 1.146-2.556 2.558-2.556 1.413 0 2.559 1.142 2.559 2.556 0 .245-.035.478-.101.7-.17.594-.547 1.098-1.05 1.431l-.039.029.026.006c1.059.235 1.865.722 2.133 1.32.392.766.715 2.293.892 3.283l.036.204h2.601c.198 0 .36-.162.36-.36v-11.343c-.001-.198-.162-.36-.36-.36zm11.03-1.7v15.481c0 .99-.81 1.8-1.8 1.8h-11.706v2.089h4.761c.552 0 1 .448 1 1s-.448 1-1 1h-11.522c-.552 0-1-.448-1-1s.448-1 1-1h4.761v-2.089h-11.706c-.99 0-1.8-.81-1.8-1.8v-15.481c0-.99.81-1.8 1.8-1.8h25.411c.991 0 1.801.81 1.801 1.8zm-2 .92c0-.396-.324-.72-.72-.72h-23.572c-.396 0-.72.324-.72.72v13.641c0 .396.324.72.72.72h23.572c.396 0 .72-.324.72-.72v-13.641z" fill="#0568ae"/></svg>