<svg xmlns="http://www.w3.org/2000/svg" viewBox="0 0 36 36" enable-background="new 0 0 36 36"><path d="M28.949 12.511h-3.98c-.465 0-.843-.378-.843-.843v-2.833c0-.465.378-.843.843-.843h3.98c.465 0 .844.378.844.843v2.832c0 .465-.379.844-.844.844zm-3.98-3.769c-.05 0-.093.042-.093.093v2.832c0 .05.042.093.093.093h3.98c.051 0 .094-.043.094-.093v-2.832c0-.051-.043-.093-.094-.093h-3.98zm3.98 9.421h-3.98c-.465 0-.843-.378-.843-.843v-2.832c0-.465.378-.843.843-.843h3.98c.465 0 .844.378.844.843v2.832c0 .465-.379.843-.844.843zm-3.98-3.768c-.05 0-.093.042-.093.093v2.832c0 .051.042.093.093.093h3.98c.051 0 .094-.042.094-.093v-2.832c0-.051-.043-.093-.094-.093h-3.98zm3.98 9.421h-3.98c-.465 0-.843-.378-.843-.843v-2.832c0-.465.378-.843.843-.843h3.98c.465 0 .844.378.844.843v2.832c0 .465-.379.843-.844.843zm-3.98-3.769c-.05 0-.093.042-.093.093v2.832c0 .051.042.093.093.093h3.98c.051 0 .094-.043.094-.093v-2.832c0-.051-.043-.093-.094-.093h-3.98zm5.577-14.211h-25.095c-.734 0-1.332.597-1.332 1.33v17.669c0 .734.598 1.332 1.332 1.332h12.174v2.339h-5.386c-.207 0-.375.168-.375.375s.168.375.375.375h11.522c.207 0 .375-.168.375-.375s-.168-.375-.375-.375h-5.386v-2.339h12.171c.736 0 1.334-.597 1.334-1.332v-17.669c.001-.733-.598-1.33-1.334-1.33zm.585 18.999c0 .321-.262.582-.584.582h-25.096c-.321 0-.582-.261-.582-.582v-17.669c0-.32.261-.58.582-.58h25.095c.322 0 .584.26.584.58v17.669zm-8.346-1.876v-14.11c0-.472-.383-.857-.853-.857h-14.868c-.471 0-.855.385-.855.857v9.343c0 .207.168.375.375.375s.375-.168.375-.375v-9.343c0-.059.047-.107.105-.107h14.868c.057 0 .103.048.103.107v14.11c0 .058-.048.107-.104.107h-1.856l-.086-.483c-.233-1.302-.611-3.05-1.08-3.962-.301-.676-1.049-1.235-2.093-1.584.398-.403.691-.901.848-1.449.089-.305.133-.619.133-.931 0-1.87-1.523-3.392-3.396-3.392-1.872 0-3.395 1.522-3.395 3.392 0 .315.046.634.138.95.16.538.452 1.028.849 1.43-.854.285-1.515.712-1.897 1.236-.081.113-.148.229-.19.326-.131.256-.262.59-.389.991-.327 1.023-.58 2.314-.701 2.988l-.084.478-.047.271c-.038.204.096.399.299.438.204.039.4-.096.438-.3l.049-.286.081-.464c.118-.66.363-1.913.678-2.897.114-.363.229-.658.35-.894l.123-.212c.36-.494 1.129-.904 2.138-1.133.155-.024.271-.147.303-.301.032-.154-.043-.317-.176-.4l-.052-.039c-.506-.346-.881-.86-1.055-1.443-.071-.246-.107-.495-.107-.739 0-1.457 1.186-2.642 2.645-2.642s2.646 1.185 2.646 2.642c0 .242-.035.485-.104.724-.173.604-.559 1.13-1.095 1.486l-.063.047c-.119.094-.173.251-.132.396s.163.253.313.271c1.134.252 1.998.768 2.265 1.365.458.892.834 2.745 1.018 3.773l.096.546.033.197.031.104c.052.151.194.252.354.252h2.166c.475-.002.858-.386.858-.859z" fill="#0568ae"/></svg>