<svg xmlns="http://www.w3.org/2000/svg" viewBox="0 0 36 36"><path fill="#0568ae" d="M11.1 11.4h-2V5.7c0-1.8 1-2.8 2.8-3 1.7-.2 5.2-.2 5.9-.2h.2c.7 0 4.2 0 5.9.2 1.9.2 2.8 1.2 2.8 3v5.7h-2V7.6c0-.4-.3-.7-.7-.7H11.9c-.4 0-.7.3-.7.7v3.8zm13.8 11.5v3.5c0 .4-.3.7-.7.7H11.9c-.4 0-.7-.3-.7-.7v-3.5h-2v7.2c0 1.8 1 2.8 2.8 3 1.7.2 5.2.2 5.9.2h.2c.7 0 4.2 0 5.9-.2 1.9-.2 2.8-1.2 2.8-3v-7.2h-1.9zm-5.4 8.2h-3c-.6 0-1.1-.5-1.1-1.1 0-.6.5-1.1 1.1-1.1h3c.6 0 1.1.5 1.1 1.1 0 .6-.5 1.1-1.1 1.1zM5.1 16.6v-3.9h.6l1.8 2.8v-2.8h.6v3.9h-.5l-1.8-2.8v2.8h-.7zm5.7-3.9c.4 0 .7.1 1 .3.3.2.5.4.6.7.2.3.2.6.2 1s-.1.7-.2 1c-.2.3-.4.5-.7.7-.3.2-.6.2-.9.2-.4 0-.7-.1-1-.3-.3-.2-.5-.4-.6-.7-.2-.3-.2-.6-.2-1s.1-.7.2-1c.2-.3.4-.5.7-.7.2-.1.5-.2.9-.2zm0 .6c-.2 0-.4.1-.6.2-.2.1-.4.3-.5.5-.1.2-.1.4-.1.7 0 .3.1.5.2.7.1.2.2.4.4.5.2.1.4.2.6.2.2 0 .4-.1.6-.2.2-.1.3-.3.4-.5.1-.2.1-.4.1-.7 0-.3-.1-.5-.2-.7-.1-.2-.2-.4-.4-.5-.1-.1-.3-.2-.5-.2zm3.9-.5h.6v3.9h-.6v-3.9zm4.7 3.8v-2.7l-1 2.1h-.5l-1-2v2.7h-.6v-3.9h.6l1.3 2.5 1.3-2.5h.5v3.9h-.6zm2.6-3.8h.6l1.5 3.9h-.7l-.3-.9h-1.6l-.3.9h-.7l1.5-3.9zm-.2 2.4H23l-.6-1.7-.6 1.7zm4.6 1.5c-.4 0-.7-.1-1-.3-.3-.2-.5-.4-.7-.7-.2-.3-.2-.6-.2-1s.1-.7.3-1c.2-.3.4-.5.7-.7.3-.2.6-.2 1-.2.2 0 .4 0 .6.1.2.1.4.1.6.2l-.2.5c-.2-.1-.3-.1-.5-.2h-.5c-.3 0-.5.1-.7.2-.2.1-.4.3-.5.5-.1.2-.2.4-.2.7 0 .4.1.8.3 1 .2.2.5.4.9.4.3 0 .5 0 .7-.1v-1h-.9v-.6h1.5v1.9c-.3.2-.7.3-1.2.3zm2.1-3.9h2.4v.6h-1.8v1.1h1.5v.5h-1.5v1.1H31v.6h-2.5v-3.9zM5.2 17.7h.6l1.5 3.9h-.7l-.3-.9H4.7l-.3.9h-.6l1.4-3.9zm-.3 2.4h1.2l-.6-1.7-.6 1.7zm2.3-2.4h.7l1 3.2 1-3.2h.7l-1.4 3.9h-.7l-1.3-3.9zm4.7 0h.6l1.5 3.9h-.7l-.3-1h-1.6l-.3.9h-.7l1.5-3.8zm-.3 2.4h1.2l-.6-1.7-.6 1.7zm3-2.4h.6v3.9h-.6v-3.9zm1.5 0h.6V21h1.7v.6H16v-3.9zm4.2 0h.6l1.5 3.9h-.7l-.3-.9h-1.6l-.3.9h-.7l1.5-3.9zm-.3 2.4h1.2l-.6-1.7-.6 1.7zm3-2.4h1.5c.4 0 .7.1 1 .3.2.2.3.4.3.7 0 .2-.1.4-.2.5-.1.2-.3.3-.5.3.2 0 .4.2.6.3.1.2.2.4.2.6 0 .2-.1.4-.2.6-.1.2-.3.3-.5.4-.2.1-.4.1-.7.1H23v-3.8zm.6.5v1.1h.8c.2 0 .4 0 .5-.1.1-.1.2-.2.2-.4s-.1-.3-.2-.4c-.1-.1-.3-.1-.5-.1h-.8zm0 1.7V21h.9c.2 0 .4-.1.5-.2.1-.1.2-.2.2-.4s-.1-.3-.2-.4c-.1-.1-.3-.1-.5-.1h-.9zm3-2.2h.6V21h1.7v.6h-2.4v-3.9zm3 0H32v.6h-1.8v1.1h1.5v.6h-1.5v1H32v.6h-2.5v-3.9z"/></svg>