<svg xmlns="http://www.w3.org/2000/svg" viewBox="0 0 36 36"><path fill="#0568ae" d="M19.7 20.1c-.1-.2-.3-.4-.5-.5-.2-.1-.5-.3-.9-.4V18c.3 0 .7.1 1 .3l.2-.8-.6-.3c-.2-.1-.4-.1-.7-.1v-.7h-.7v.7c-.5.1-.8.2-1.1.5-.3.3-.4.6-.4 1 0 .3 0 .5.1.7.1.2.3.3.5.5.2.1.5.3.9.4v1.3c-.5 0-.9-.1-1.3-.4l-.3.8c.2.1.4.2.7.3.3.1.6.1.9.1v.7h.7v-.8c.5-.1.8-.2 1.1-.5.3-.3.4-.6.4-1 .2-.2.1-.4 0-.6zm-2-1c-.2-.1-.3-.1-.4-.2-.1-.1-.1-.2-.1-.3 0-.3.2-.4.5-.5v1zm.7 2.3v-1.1c.2.1.3.1.4.2.1.1.1.2.1.3 0 .3-.2.5-.5.6zM10.2 6.5L5.8 11H4.1c-.2 0-.4-.2-.4-.4V8.7c0-1.2 1-2.2 2.2-2.2h4.3zm4.1 0L9.9 11H14l4.5-4.5h-4.2zm17.3.7c-.3-.3-.6-.5-1-.6L26.2 11h5.6c.2 0 .4-.2.4-.4V8.7c.1-.6-.2-1.1-.6-1.5zm-9.1-.7L18 11h4.1l4.5-4.5h-4.1zm9.8 6.4v11.9c0 1.2-1 2.2-2.2 2.2H5.9c-1.2 0-2.2-1-2.2-2.2V12.9c0-.2.2-.4.4-.4h27.7c.3 0 .5.2.5.4zm-8.8 7.4c0-.1 0-.2-.1-.2l-.9-.9.7-1c0-.1.1-.1 0-.2 0-.1-.1-.1-.2-.2l-1-.3.2-1.2c0-.1 0-.2-.1-.2 0-.1-.1-.1-.2-.1l-1.2.1-.3-1.2c0-.1-.1-.1-.1-.2h-.2l-1.1.6-.8-1c-.1-.1-.3-.1-.4 0l-.8 1-1-.6h-.2c-.1 0-.1.1-.1.2l-.3 1.2-1.3-.1c-.1 0-.2 0-.2.1-.1.1-.1.1-.1.2l.2 1.2-1.2.4c-.1 0-.1.1-.2.2v.2l.7 1-.9.9c-.1.1-.1.1-.1.2s.1.1.1.2l1.1.6-.5 1.1v.2c0 .1.1.1.2.1l1.2.2V24c0 .1 0 .1.1.2.1 0 .1.1.2 0l1.2-.4.5 1.1c0 .1.1.1.2.1s.2 0 .2-.1l.9-.8.9.8s.1.1.2.1h.1c.1 0 .1-.1.2-.1l.5-1.1 1.2.4h.2c.1 0 .1-.1.1-.2v-1.2l1.2-.2c.1 0 .1-.1.2-.1v-.2l-.5-1.1 1.1-.6c.4-.1.4-.2.4-.3z"/></svg>