<svg xmlns="http://www.w3.org/2000/svg" viewBox="0 0 36 36"><path fill="#0568ae" d="M10.2 6.5L5.8 11H4.1c-.2 0-.4-.2-.4-.4V8.7c0-1.2 1-2.2 2.2-2.2h4.3zm4.1 0L9.9 11H14l4.5-4.5h-4.2zm17.3.7c-.3-.3-.6-.5-1-.6L26.2 11h5.6c.2 0 .4-.2.4-.4V8.7c.1-.6-.2-1.1-.6-1.5zm-9.1-.7L18 11h4.1l4.5-4.5h-4.1zm9.4 6H4.1c-.2 0-.4.2-.4.4v11.9c0 1.2 1 2.2 2.2 2.2h24.2c1.2 0 2.2-1 2.2-2.2V12.9c0-.2-.2-.4-.4-.4zM18.6 24.4c-.2.2-.5.3-.8.3-.3 0-.6-.1-.8-.3-.2-.2-.3-.5-.3-.8 0-.3.1-.6.3-.8.2-.2.5-.3.8-.3.3 0 .6.1.8.3.2.2.3.5.3.8 0 .3-.1.6-.3.8zm2.1-5.8c-.2.4-.6.7-1.1 1.1l-.2.1c-.2.2-.4.3-.5.4-.1.1-.2.3-.3.4-.1.1-.1.3-.1.6v.3h-1.7v-.3c0-.4 0-.8.1-1 .1-.3.2-.5.3-.7.2-.2.4-.4.8-.7l.2-.1c.3-.2.5-.4.6-.6.1-.2.2-.4.2-.6 0-.3-.1-.5-.3-.7-.2-.2-.5-.2-.9-.2-.6 0-1.3.3-2.1.9l-.8-1.3c1-.8 2.1-1.2 3.2-1.2.9 0 1.6.2 2.1.6.5.4.8 1 .8 1.7.1.5 0 .9-.3 1.3z"/></svg>