<svg xmlns="http://www.w3.org/2000/svg" viewBox="0 0 36 36" enable-background="new 0 0 36 36"><path d="M31.89 12.5h-27.779999999999998c-.198 0-.36.162-.36.36v11.979c0 1.188.972 2.16 2.16 2.16h24.18c1.188 0 2.16-.972 2.16-2.16v-11.979c0-.197-.162-.36-.36-.36zm-10.32 7.683l-6.104 3.202c-.159.084-.341.075-.493-.014-.148-.089-.241-.251-.242-.427v-6.398c-.005-.178.09-.339.24-.427.149-.095.332-.099.49-.017l6.103 3.196c.09.045.167.117.215.209.129.245.038.548-.209.676zm-12.404-13.575l-3.433 5.299-1.635.348c-.193.041-.386-.084-.427-.277l-.399-1.878c-.25-1.181.507-2.346 1.687-2.597l4.207-.895zm7.986-1.698l-3.434 5.299-3.998.85 3.434-5.299 3.998-.85zm13.996-.738l.399 1.877c.041.194-.084.386-.277.427l-1.115.237-4.443.945 3.377-5.212c.39.015.772.127 1.109.346.492.319.83.809.95 1.38zm-6-.963l-3.434 5.3-3.998.85 3.434-5.299 3.998-.851z" fill="#0568ae"/></svg>