<svg xmlns="http://www.w3.org/2000/svg" viewBox="0 0 36 36" enable-background="new 0 0 36 36"><path d="M31.83 12.125h-21.516l20.696-5.407c.201-.052.32-.257.268-.457l-.576-2.205c-.122-.467-.419-.86-.838-1.106-.42-.247-.909-.315-1.375-.192l-23.337 6.098c-.968.253-1.55 1.246-1.298 2.214l.576 2.205.025.056v9.986c0 .207.168.375.375.375s.375-.168.375-.375v-9.857l2.25-.588.015.003h23.984v12.685c0 .587-.478 1.065-1.066 1.065h-24.118c-.207 0-.375.168-.375.375s.168.375.375.375h24.12c1.001 0 1.816-.814 1.816-1.815v-13.06c-.001-.207-.169-.375-.376-.375zm-3.153-8.642l.268-.035c.187 0 .372.05.539.148.246.144.421.374.492.648l.481 1.843-5.29 1.382 2.157-3.633 1.353-.353zm-2.384.623l-2.158 3.633-4.501 1.176 2.158-3.633 4.501-1.176zm-5.533 1.446l-2.158 3.633-4.499 1.176 2.158-3.633 4.499-1.176zm-5.532 1.446l-2.158 3.632-4.499 1.176 2.157-3.632 4.5-1.176zm-9.887 2.584l4.354-1.138-2.157 3.632-2.477.647-.481-1.842c-.149-.568.193-1.151.761-1.299zm10.501 13.899c-.147 0-.294-.039-.427-.117-.249-.149-.404-.42-.405-.709v-5.815c-.006-.292.148-.566.403-.716.235-.151.542-.163.808-.025l5.549 2.906c.146.073.275.198.354.349.104.198.125.425.058.638-.066.211-.211.383-.408.484l-5.547 2.91c-.121.064-.253.095-.385.095zm-.006-6.727l-.032.009-.045.063v5.826l.037.066.08.004 5.551-2.912.039-.044-.007-.064-5.585-2.938-.038-.01z" fill="#0568ae"/></svg>