<svg xmlns="http://www.w3.org/2000/svg" viewBox="0 0 36 36" enable-background="new 0 0 36 36"><path d="M32.252 12.861v11.979c0 1.188-.972 2.16-2.16 2.16h-24.18c-1.188 0-2.16-.972-2.16-2.16v-11.979c0-.198.162-.36.36-.36h27.781c.197-.001.359.162.359.36zm-17.519 10.082c.001.176.093.338.242.427.153.089.334.099.493.014l6.104-3.202c.247-.127.338-.431.208-.677-.048-.092-.125-.165-.215-.209l-6.103-3.196c-.158-.082-.342-.078-.49.017-.15.088-.244.249-.24.428v6.398zm-8.79-16.412c-1.207.001-2.189.982-2.19 2.19l.001 1.919c0 .198.162.36.36.36h1.671l4.46-4.469h-4.302zm8.377-.001l-4.46 4.47h4.088l4.46-4.47h-4.088zm17.29.641c-.284-.284-.634-.473-1.013-.569l-4.387 4.396h5.6819999999999995c.198 0 .36-.162.36-.36v-1.919c.001-.584-.227-1.133-.642-1.548zm-9.114-.641l-4.461 4.47h4.088l4.46-4.47h-4.087z" fill="#0568ae"/></svg>