<svg xmlns="http://www.w3.org/2000/svg" viewBox="0 0 36 36" enable-background="new 0 0 36 36"><path d="M10.242 6.531l-4.46 4.469h-1.672c-.198 0-.36-.162-.36-.36v-1.919c.001-1.208.983-2.189 2.19-2.19h4.302zm4.076-.001l-4.461 4.47h4.088l4.46-4.47h-4.087zm17.29.641c-.284-.284-.634-.473-1.013-.569l-4.387 4.396h5.6819999999999995c.198 0 .36-.162.36-.36v-1.919c.001-.584-.228-1.133-.642-1.548zm-9.114-.641l-4.461 4.47h4.088l4.46-4.47h-4.087zm9.756 6.331v11.979c0 1.188-.972 2.16-2.16 2.16h-24.18c-1.188 0-2.16-.972-2.16-2.16v-11.979c0-.198.162-.36.36-.36h27.781c.197-.001.359.162.359.36zm-11.417 7.336c.307-.112.528-.405.528-.752 0-.444-.359-.804-.801-.804h-1.531v.001h-1.019l.015-.037c.144-.304.995-1.684.903-2.596-.09-.899-.855-1.324-1.076-1.264-.578.157-.208 1.303-.9 2.254-.679.93-1.588 1.845-1.812 2.052-.315.293-1.324 1.184-1.324 2.756 0 1.458.724 2.973 2.087 2.956h3.458c.442 0 .801-.36.801-.804 0-.303-.17-.564-.417-.701h.389c.443 0 .801-.36.801-.804 0-.303-.17-.564-.417-.701h.043c.442 0 .801-.36.801-.804-.001-.347-.222-.64-.529-.752z" fill="#0568ae"/></svg>