<svg xmlns="http://www.w3.org/2000/svg" viewBox="0 0 36 36" enable-background="new 0 0 36 36"><path d="M10.242 6.531l-4.46 4.469h-1.672c-.198 0-.36-.162-.36-.36v-1.919c.001-1.208.983-2.19 2.19-2.19h4.302zm4.076-.001l-4.461 4.47h4.088l4.46-4.47h-4.087zm17.29.641c-.284-.284-.634-.473-1.013-.569l-4.387 4.396h5.6819999999999995c.198 0 .36-.162.36-.36v-1.919c0-.584-.228-1.133-.642-1.548zm-9.114-.641l-4.461 4.47h4.088l4.46-4.47h-4.087zm9.756 6.33v11.979c0 1.188-.972 2.16-2.16 2.16h-24.18c-1.188 0-2.16-.972-2.16-2.16v-11.979c0-.198.162-.36.36-.36h27.781c.197 0 .359.162.359.36zm-8.881 5.895c0-1.089-.424-2.114-1.195-2.885-.771-.77-1.796-1.195-2.885-1.195-1.089 0-2.113.424-2.884 1.195-.771.771-1.195 1.795-1.195 2.885 0 .803.232 1.573.674 2.24l-3.017 3.017c-.153.152-.237.355-.237.571 0 .216.084.419.237.572.153.152.355.236.571.236.215 0 .418-.084.571-.236l3.012-3.012c.674.454 1.454.693 2.269.693 1.09 0 2.115-.424 2.885-1.195.77-.772 1.194-1.797 1.194-2.886zm-6.553-.005c0 1.362 1.108 2.469 2.469 2.469 1.362 0 2.469-1.108 2.469-2.469 0-1.362-1.108-2.469-2.469-2.469-1.362-.001-2.469 1.107-2.469 2.469z" fill="#0568ae"/></svg>