<svg xmlns="http://www.w3.org/2000/svg" viewBox="0 0 36 36" enable-background="new 0 0 36 36"><path d="M18.114 10.999l4.461-4.47 4.087-.001-4.46 4.47-4.088.001zm-4.087.001l4.46-4.47h-4.088l-4.46 4.47h4.088zm-9.835 0h1.671l4.46-4.469h-4.301c-1.207.001-2.189.982-2.19 2.19v1.919c0 .199.162.36.36.36zm14.012 8.836c-.531 0-.961.43-.961.961 0 .531.43.961.961.961.531 0 .961-.43.961-.961-.001-.53-.431-.961-.961-.961zm13.485-12.665c-.284-.284-.634-.473-1.013-.569l-4.387 4.396h5.6819999999999995c.198 0 .36-.162.36-.36v-1.919c.001-.584-.227-1.133-.642-1.548zm.642 5.69v11.979c0 1.188-.972 2.16-2.16 2.16h-24.18c-1.188 0-2.16-.972-2.16-2.16v-11.979c0-.198.162-.36.36-.36h27.781c.197-.001.359.162.359.36zm-10.924 7.936c0-1.769-1.434-3.203-3.203-3.203s-3.203 1.434-3.203 3.203 1.434 3.203 3.203 3.203 3.203-1.434 3.203-3.203zm4.655-1.56c-.492-.674-3.187-4.035-7.98-4.035-4.795 0-7.489 3.361-7.98 4.035-.248.34-.174.818.167 1.066.136.099.293.147.449.147.236 0 .468-.109.617-.313.255-.349 2.605-3.409 6.747-3.409 4.141 0 6.493 3.06 6.747 3.408.248.34.725.415 1.066.167.34-.249.415-.726.167-1.066z" fill="#0568ae"/></svg>