<svg xmlns="http://www.w3.org/2000/svg" viewBox="0 0 36 36"><path fill="#0568ae" d="M30.1 31.9H5.9c-.2 0-.4-.2-.4-.4s.2-.4.4-.4H30c.6 0 1.1-.5 1.1-1.1V5.9c0-.6-.5-1.1-1.1-1.1H5.9c-.6 0-1.1.5-1.1 1.1v22c0 .2-.2.4-.4.4s-.3-.1-.3-.3V6c0-1 .8-1.8 1.8-1.8H30c1 0 1.8.8 1.8 1.8v24.1c.1 1-.7 1.8-1.7 1.8zM28.4 18c0-.2-.2-.4-.4-.4H8c-.2 0-.4.2-.4.4s.2.4.4.4h20c.2 0 .4-.2.4-.4zM9.1 8.2h3.7v.6h-3v2.1h2.5v.6H9.8v2.2h3.1v.6H9.1V8.2zm5.9 6.2V8.2h.7l3.3 5v-5h.7v6.2H19l-3.3-5v5H15zm9.7 0c-.6 0-1.1-.1-1.6-.4-.4-.3-.8-.7-1-1.1-.2-.5-.4-1-.4-1.6 0-.6.1-1.2.4-1.7.3-.5.6-.9 1.1-1.1.5-.3 1-.4 1.5-.4.7 0 1.3.2 1.9.5l-.2.6c-.3-.1-.5-.3-.8-.3-.2-.1-.5-.1-.8-.1-.5 0-.9.1-1.2.3-.4.2-.6.5-.8.9-.2.4-.3.8-.3 1.3s.1 1 .3 1.3c.2.4.5.7.8.9.3.2.7.3 1.2.3.3 0 .5 0 .7-.1.2 0 .4-.1.6-.2v-1.9h-1.7V11h2.4v2.9c-.6.4-1.3.5-2.1.5zm-14.2 7.2h3.7v.6h-3v2.1h2.5v.7h-2.5v2.2h3.1v.6h-3.8v-6.2zm7.5 6.3c-.8 0-1.5-.2-2.1-.5l.2-.6c.6.3 1.2.5 1.8.5.5 0 .8-.1 1.1-.3.3-.2.4-.5.4-.8 0-.3-.1-.5-.3-.7-.2-.2-.6-.3-1.1-.5l-.4-.1c-.6-.2-1-.4-1.2-.6-.2-.3-.4-.6-.4-1 0-.5.2-.9.5-1.2.4-.3.9-.5 1.5-.5.7 0 1.3.2 1.8.5l-.2.6c-.5-.3-1-.4-1.6-.4-.4 0-.8.1-1 .3-.2.2-.4.4-.4.7 0 .3.1.5.3.6.2.2.5.3 1 .4l.4.1c.6.2 1.1.4 1.3.7.3.3.4.6.4 1.1 0 .6-.2 1-.6 1.3-.2.3-.7.4-1.4.4zm3.7-6.3h2c.7 0 1.2.2 1.6.5.4.3.6.8.6 1.4 0 .6-.2 1.1-.6 1.4-.4.4-.9.5-1.6.5h-1.3v2.3h-.7v-6.1zm.7 3.3h1.2c.5 0 .8-.1 1.1-.3.3-.2.4-.6.4-1s-.1-.7-.4-.9c-.3-.2-.6-.3-1.1-.3h-1.2v2.5z"/></svg>