<svg xmlns="http://www.w3.org/2000/svg" viewBox="0 0 36 36" enable-background="new 0 0 36 36"><path d="M29.439 12.144h-26.122000000000003c-.186 0-.338.152-.338.338v11.264000000000001c0 1.117.914 2.031 2.031 2.031h22.736c1.117 0 2.031-.914 2.031-2.031v-11.264000000000001c0-.186-.152-.338-.338-.338zm-9.704 7.223l-5.74 3.011c-.149.079-.32.07-.464-.014-.139-.083-.226-.236-.227-.402v-6.016c-.005-.168.084-.319.225-.402.14-.089.313-.093.461-.016l5.738 3.005c.084.042.157.11.202.197.123.232.037.517-.195.637zm-10.652-12.836l-4.193 4.202h-1.572c-.186 0-.338-.152-.338-.339v-1.804c.001-1.135.925-2.059 2.06-2.059h4.043zm7.677-.001l-4.194 4.203h-3.844l4.194-4.203h3.844zm13.017 2.058v1.805c0 .186-.152.339-.338.339h-5.343l4.125-4.133c.356.09.685.268.952.535.39.389.605.906.604 1.454zm-5.33-2.059l-4.194 4.203h-3.844l4.194-4.203h3.844zm3.864 22.533h-22.022c-.414 0-.75-.336-.75-.75s.336-.75.75-.75h22.022c1.77 0 3.21-1.44 3.21-3.21v-13.619c0-.414.336-.75.75-.75s.75.336.75.75v13.619c0 2.597-2.113 4.71-4.71 4.71z" fill="#0568ae"/></svg>