<svg xmlns="http://www.w3.org/2000/svg" viewBox="0 0 36 36" enable-background="new 0 0 36 36"><path d="M7.632 15.435l-2.527 3.485-.077.106c-.126.174-.332.174-.458-.001l-.9-1.251-1.69-2.349c-.168-.234-.07-.425.217-.424l1.627.003c.811-3.873 3.141-7.221 6.552-9.333 6.533-4.044 15.058-2.256 19.448 3.923l.319.471c.107.167.057.388-.112.492l-1.088.674c-.168.104-.394.053-.501-.113 0 0-.163-.252-.356-.515-3.815-5.205-11.078-6.684-16.657-3.231-2.819 1.745-4.78 4.471-5.554 7.636l1.542.003c.287.001.383.191.215.424zm26.389 5.141l-1.69-2.35-.9-1.251c-.126-.175-.332-.175-.458-.001l-.077.106-2.527 3.485c-.168.232-.072.423.215.424l1.541.003c-.773 3.165-2.734 5.891-5.554 7.636-5.579 3.453-12.842 1.974-16.657-3.231-.193-.263-.356-.515-.356-.515-.108-.166-.333-.217-.501-.113l-1.088.674c-.169.104-.219.326-.112.492l.319.471c4.39 6.179 12.915 7.966 19.448 3.923 3.411-2.112 5.741-5.46 6.552-9.333l1.627.003c.287.001.385-.19.218-.423zm-8.433-7.225l.001 9.319c0 .52-.42.939-.938.939h-13.292c-.518 0-.938-.419-.938-.939v-9.319c0-.518.42-.938.938-.938h13.291c.519 0 .938.42.938.938zm-12.067 2.981c0 .656.531 1.188 1.188 1.188.656 0 1.188-.532 1.188-1.188 0-.656-.532-1.188-1.188-1.188-.656 0-1.188.532-1.188 1.188zm10.867 2.116l-2.149-2.149c-.168-.168-.443-.168-.611 0l-2.247 2.247-.566-.566c-.168-.168-.443-.168-.611 0l-4.429 4.429h10.397c.119 0 .216-.097.216-.216v-3.745z" fill="#0568ae"/></svg>