<svg xmlns="http://www.w3.org/2000/svg" viewBox="0 0 36 36" enable-background="new 0 0 36 36"><path d="M32.971 10.848l-2.018 13.077c-.029.185-.188.318-.37.318l-.058-.004c-.205-.032-.345-.223-.313-.428l2.018-13.077c.1-.648-.345-1.256-.992-1.356l-21.893-3.379c-.314-.049-.627.029-.883.216-.256.188-.423.464-.471.778l-.061.324-.156 1.01c-.031.204-.226.342-.427.313-.205-.031-.345-.223-.314-.428l.218-1.346c.077-.5.35-.95.768-1.257.417-.305.929-.43 1.441-.351l21.892 3.378c1.056.163 1.782 1.156 1.619 2.212zm-3.938 1.202l.001 15.531c0 1.069-.869 1.94-1.938 1.94h-22.152c-1.068 0-1.938-.87-1.938-1.94v-15.531c0-1.069.869-1.938 1.938-1.938h22.152c1.068-.001 1.937.869 1.937 1.938zm-.749 15.531l-.001-15.531c0-.655-.533-1.188-1.187-1.188h-22.152c-.655 0-1.188.533-1.188 1.188v15.531c0 .656.533 1.19 1.188 1.19h22.153c.654 0 1.187-.534 1.187-1.19zm-4.541-10.48c-.413-.412-1.136-.412-1.548 0l-3.479 3.48-.678-.678c-.413-.414-1.137-.414-1.549 0l-6.64 6.64c-.146.146-.146.384 0 .53.073.073.169.11.265.11s.192-.037.265-.11l6.64-6.64c.129-.13.359-.13.488 0l.944.943c.147.146.384.146.53 0l3.745-3.745c.129-.129.359-.129.488 0l2.854 2.854c.146.146.384.146.53 0 .146-.146.146-.384 0-.53l-2.855-2.854zm-12.816 2.676c-1.298 0-2.354-1.056-2.354-2.354s1.056-2.354 2.354-2.354 2.354 1.056 2.354 2.354-1.055 2.354-2.354 2.354zm0-.75c.885 0 1.604-.72 1.604-1.604s-.719-1.604-1.604-1.604c-.884 0-1.604.72-1.604 1.604s.72 1.604 1.604 1.604z" fill="#0568ae"/></svg>