<svg xmlns="http://www.w3.org/2000/svg" viewBox="0 0 36 36" enable-background="new 0 0 36 36"><path d="M33.338 9.742l-2.4 15.345c-.1.642-.572 1.141-1.166 1.273-.172.038-.352.015-.352-.321v-13.585c0-1.689-1.374-3.063-3.062-3.063h-18.549l.556-3.556c.134-.853.933-1.436 1.785-1.303l21.886 3.424c.853.134 1.436.933 1.302 1.786zm-5.418 2.712l.001 15.531c0 .866-.699 1.564-1.563 1.564h-22.153c-.863 0-1.562-.698-1.562-1.564v-15.531c0-.864.7-1.563 1.562-1.563h22.152c.864 0 1.563.7 1.563 1.563zm-20.111 4.969c0 1.093.886 1.979 1.979 1.979s1.979-.886 1.979-1.979-.886-1.979-1.979-1.979c-1.093-.001-1.979.885-1.979 1.979zm18.111 3.526l-3.582-3.582c-.28-.28-.738-.28-1.018 0l-3.745 3.745-.943-.943c-.28-.28-.738-.28-1.018 0l-7.382 7.381h17.329c.198 0 .36-.162.36-.36v-6.241z" fill="#0568ae"/></svg>