<svg xmlns="http://www.w3.org/2000/svg" viewBox="0 0 36 36" enable-background="new 0 0 36 36"><path d="M8.586 14.519l-3.101 2.558c-.266.22-.579.338-.89.338l-.273-.031c-.394-.091-.726-.379-.911-.789l-1.652-3.662c-.085-.189-.001-.411.188-.496.189-.086.411-.001.496.188l1.652 3.663.117.182c.476-4.268 2.835-8.007 6.485-10.266 6.505-4.026 15.074-2.01 19.101 4.494.109.176.055.407-.122.516-.176.109-.407.054-.516-.121-3.81-6.155-11.915-8.061-18.069-4.253-3.447 2.134-5.676 5.662-6.131 9.692l.047-.032 3.101-2.559c.16-.132.396-.109.528.051.132.159.109.395-.05.527zm25.655 8.548l-1.653-3.662c-.185-.41-.516-.698-.911-.789-.393-.092-.818.021-1.163.307l-3.1 2.558c-.16.132-.182.368-.05.528.132.16.369.181.528.05l3.1-2.559.044-.031c-.453 3.978-2.719 7.579-6.128 9.69-6.155 3.81-14.26 1.902-18.068-4.251-.109-.176-.341-.231-.516-.122-.176.109-.231.34-.122.516 2.622 4.236 7.17 6.568 11.82 6.568 2.491 0 5.011-.669 7.281-2.074 3.611-2.236 6.009-6.055 6.481-10.27l.12.186 1.653 3.663c.063.139.199.221.342.221l.154-.033c.19-.085.273-.307.188-.496zm-9.595-11.04c.724 0 1.313.589 1.313 1.313v9.319c0 .724-.589 1.313-1.313 1.313h-13.292c-.724 0-1.313-.589-1.313-1.313v-9.319c0-.724.589-1.313 1.313-1.313h13.292zm0 .75h-13.292c-.31 0-.563.253-.563.563v9.319c0 .31.253.563.563.563h13.291c.31 0 .563-.253.563-.563v-9.319c0-.31-.252-.563-.562-.563zm-1.906 3.488c-.304-.304-.838-.304-1.142 0l-1.982 1.981-.3-.3c-.304-.305-.838-.304-1.141 0l-3.984 3.984c-.146.146-.146.384 0 .53.073.073.169.11.265.11s.192-.037.265-.11l3.984-3.984h.08l.565.566c.07.07.166.11.265.11s.195-.039.265-.11l2.247-2.247h.081l1.712 1.712c.146.147.384.147.53 0 .146-.146.146-.384 0-.53l-1.71-1.712zm-7.796 1.861c-.862 0-1.563-.701-1.563-1.563 0-.861.701-1.563 1.563-1.563s1.563.701 1.563 1.563c0 .863-.701 1.563-1.563 1.563zm0-.75c.448 0 .813-.365.813-.813s-.365-.813-.813-.813-.813.365-.813.813.365.813.813.813z" fill="#0568ae"/></svg>