<svg xmlns="http://www.w3.org/2000/svg" viewBox="0 0 36 36" enable-background="new 0 0 36 36"><path d="M26.67 21c3.314 0 6 2.687 6 6s-2.686 6-6 6c-3.313 0-6-2.687-6-6s2.687-6 6-6m-2.862 7h5.724c.552 0 1-.448 1-1s-.448-1-1-1h-5.724c-.552 0-1 .448-1 1s.448 1 1 1m-4.638-1c0-4.136 3.365-7.5 7.5-7.5.355 0 .701.033 1.042.081l3.801-3.703c.851-.834.586-1.654-.594-1.824l-6.351-.923c-1.176-.17-2.57-1.184-3.1-2.252l-2.84-5.754c-.527-1.069-1.389-1.069-1.916 0l-2.841 5.754c-.525 1.069-1.923 2.082-3.098 2.252l-6.352.923c-1.179.17-1.444.99-.594 1.824l4.594 4.479c.855.83 1.39 2.47 1.186 3.645l-1.084 6.324c-.202 1.173.494 1.68 1.549 1.127l5.682-2.987c.963-.51 2.482-.548 3.542-.125-.078-.435-.126-.882-.126-1.341z" fill="#0568ae"/></svg>