<svg xmlns="http://www.w3.org/2000/svg" viewBox="0 0 36 36"><path fill="#0568ae" d="M10.2 6.5L5.8 11H4.1c-.2 0-.4-.2-.4-.4V8.7c0-1.2 1-2.2 2.2-2.2h4.3zm4.1 0L9.9 11H14l4.5-4.5h-4.2zm17.3.7c-.3-.3-.6-.5-1-.6L26.2 11h5.6c.2 0 .4-.2.4-.4V8.7c.1-.6-.2-1.1-.6-1.5zm-9.1-.7L18 11h4.1l4.5-4.5h-4.1zm-3.9 14.2v1.7c.6-.1.9-.4.9-.9 0-.2-.1-.4-.2-.5-.1 0-.4-.2-.7-.3zm-2-2.9c0 .2.1.4.2.5.1.1.4.2.7.4V17c-.6.1-.9.3-.9.8zm15.3-5.3H4.1c-.2 0-.4.2-.4.4v11.9c0 1.2 1 2.2 2.2 2.2h24.2c1.2 0 2.2-1 2.2-2.2V12.9c0-.2-.2-.4-.4-.4zM20.4 23.1c-.4.4-1.1.7-1.8.8v1.2h-1.1V24c-.5 0-1-.1-1.4-.2-.5-.1-.8-.3-1.2-.5l.4-1.3c.6.3 1.4.5 2.2.6v-2.2c-.6-.2-1.1-.4-1.5-.6-.3-.2-.6-.5-.8-.7-.2-.3-.2-.6-.2-1.1 0-.6.2-1.2.7-1.6.4-.4 1.1-.7 1.8-.8v-1.2h1.1v1.2c.4 0 .7.1 1.1.2.4.1.7.2 1 .4l-.4 1.3c-.6-.3-1.2-.4-1.7-.5v2c.6.2 1.1.4 1.4.6.4.2.6.5.8.8.2.3.3.7.3 1.1 0 .6-.2 1.2-.7 1.6z"/></svg>