<svg xmlns="http://www.w3.org/2000/svg" viewBox="0 0 36 36"><path fill="#0568ae" d="M24.5 15.3c.6.6.9 1.6.9 2.7 0 1.2-.3 2.1-.9 2.7-.6.7-1.5 1-2.6 1h-1.8v-7.4H22c1.1 0 1.9.4 2.5 1zm8-5v15.5c0 1-.8 1.8-1.8 1.8H5.3c-1 0-1.8-.8-1.8-1.8V10.3c0-1 .8-1.8 1.8-1.8h25.4c1 0 1.8.8 1.8 1.8zm-16.4 10c0-.6-.1-1-.3-1.4-.2-.4-.5-.7-.9-.9-.4-.3-1-.5-1.7-.7l-.6-.2c-.7-.2-1.1-.4-1.4-.6-.3-.2-.4-.5-.4-.9 0-.5.2-.8.5-1 .3-.2.8-.4 1.5-.4.4 0 .9.1 1.3.2.5.1.9.3 1.2.4l.5-1.4c-.4-.3-.9-.5-1.5-.6-.5-.1-1.1-.2-1.7-.2-1.1 0-2 .3-2.7.8-.7.5-1 1.3-1 2.2 0 .8.2 1.4.6 1.8.4.5 1.1.8 2 1.1l.6.2c.6.2 1.1.3 1.3.5.3.1.5.3.6.5.1.2.2.4.2.6 0 .5-.2.9-.6 1.1-.4.3-.9.4-1.6.4-1 0-2-.2-3-.7l-.5 1.4c1 .6 2.2.9 3.6.9 1.2 0 2.1-.3 2.8-.9.8-.5 1.2-1.2 1.2-2.2zM27.2 18c0-1-.2-2-.6-2.8-.4-.8-1-1.4-1.8-1.8-.8-.4-1.8-.6-2.8-.6h-3.5v10.5H22c1 0 2-.2 2.8-.6.8-.4 1.4-1 1.8-1.8.4-.8.6-1.8.6-2.9z"/></svg>