<svg xmlns="http://www.w3.org/2000/svg" viewBox="0 0 36 36" enable-background="new 0 0 36 36"><path d="M13.253 15.381c1.699 0 3.298.662 4.501 1.864 1.202 1.203 1.864 2.801 1.864 4.5 0 1.699-.662 3.298-1.864 4.5s-2.801 1.864-4.501 1.864c-1.271 0-2.488-.373-3.539-1.081l-4.698 4.699c-.239.238-.555.369-.891.369-.336 0-.652-.131-.89-.368-.238-.238-.369-.555-.369-.892 0-.336.131-.653.369-.89l4.706-4.706c-.689-1.041-1.051-2.242-1.051-3.495 0-1.7.662-3.298 1.864-4.5s2.8-1.864 4.499-1.864m-.007 10.208c2.124 0 3.852-1.728 3.852-3.852 0-2.124-1.728-3.852-3.852-3.852-2.124 0-3.852 1.728-3.852 3.852 0 2.124 1.728 3.852 3.852 3.852m-5.066-9.846v-4.755h5.25v2.901l-.177-.009c-1.879.001-3.655.66-5.073 1.863zm5.25-11.13h-3.81c-.792 0-1.44.648-1.44 1.44v3.435h5.25v-4.875zm5.384 22.693c-.522.522-1.107.956-1.734 1.307h13.66c.792 0 1.44-.648 1.44-1.44v-3.435h-11.325c-.348 1.336-1.038 2.565-2.041 3.568zm11.926-22.693h-15.81v4.875h17.25v-3.435c0-.792-.648-1.44-1.44-1.44zm-15.81 9.452c1.306.283 2.514.898 3.53 1.798h13.72v-4.875h-17.25v3.077zm6.188 7.68l-.024.493h11.086v-4.875h-12.395c.866 1.286 1.333 2.798 1.333 4.382z" fill="#0568ae"/></svg>