<svg xmlns="http://www.w3.org/2000/svg" viewBox="0 0 36 36" enable-background="new 0 0 36 36"><path d="M28.938 23.816h-10.737c-.207 0-.375-.168-.375-.375s.168-.375.375-.375h10.737c.057 0 .104-.049.104-.107v-14.11c0-.059-.047-.107-.104-.107h-21.874c-.058 0-.105.048-.105.107v2.664c0 .207-.168.375-.375.375s-.375-.168-.375-.375v-2.664c0-.472.384-.857.855-.857h21.875c.471 0 .854.384.854.857v14.11c0 .472-.383.857-.855.857zm.48-15.165 1.128-2.815h-25.095c-.734 0-1.332.597-1.332 1.33v13.111c0 .207.168.375.375.375s.375-.168.375-.375v-13.111c0-.32.261-.58.582-.58h25.095c.322 0 .584.26.584.58v17.669c0 .321-.262.582-.584.582h-21.035c-.207 0-.375.168-.375.375s.168.375.375.375h8.114v2.339h-5.386c-.207 0-.375.168-.375.375s.168.375.375.375h11.522c.207 0 .375-.168.375-.375s-.168-.375-.375-.375h-5.386v-2.339h12.171c.736 0 1.334-.597 1.334-1.332v-17.669c.001-.733-.598-1.33-1.334-1.33zm-25.918 21.419l4.698-4.699c1.051.708 2.268 1.081 3.54 1.081 1.7 0 3.299-.662 4.5-1.864 1.202-1.202 1.864-2.801 1.864-4.5 0-1.7-.662-3.298-1.864-4.5-1.203-1.202-2.801-1.864-4.5-1.864-1.7 0-3.298.662-4.5 1.864-1.203 1.203-1.865 2.801-1.865 4.5 0 1.253.363 2.454 1.052 3.495l-4.706 4.706c-.238.237-.369.553-.369.89 0 .337.131.654.369.892.238.237.554.368.89.368.336 0 .652-.131.891-.369zm12.208-13.951c1.06 1.061 1.644 2.47 1.644 3.97s-.584 2.91-1.644 3.97-2.47 1.644-3.97 1.644c-1.217 0-2.377-.388-3.356-1.121-.149-.111-.358-.097-.49.035l-4.922 4.922c-.193.192-.528.192-.721 0-.097-.096-.15-.224-.15-.36 0-.136.053-.264.149-.36l4.929-4.928c.131-.131.147-.338.037-.487-.714-.97-1.091-2.116-1.091-3.315 0-1.498.584-2.908 1.645-3.97 1.06-1.06 2.47-1.644 3.969-1.644 1.499 0 2.909.583 3.971 1.644zm-.721 7.219c.867-.867 1.345-2.021 1.345-3.25s-.478-2.382-1.345-3.248c-.869-.868-2.023-1.346-3.25-1.346s-2.38.478-3.249 1.346c-.146.146-.146.384 0 .53.147.146.384.146.53 0 .727-.726 1.692-1.127 2.718-1.127 1.027 0 1.992.4 2.719 1.127.726.725 1.126 1.691 1.126 2.718s-.4 1.994-1.126 2.719c-.727.726-1.692 1.126-2.719 1.126-.207 0-.375.168-.375.375s.168.375.375.375c1.229 0 2.382-.478 3.251-1.345z" fill="#0568ae"/></svg>