<svg xmlns="http://www.w3.org/2000/svg" viewBox="0 0 36 36" enable-background="new 0 0 36 36"><path d="M12.325 11.049c1.613 0 3.13.628 4.272 1.769 1.141 1.142 1.769 2.659 1.769 4.272 0 1.613-.628 3.131-1.769 4.272-1.141 1.141-2.658 1.769-4.272 1.769-1.207 0-2.362-.354-3.36-1.026l-4.46 4.46c-.227.226-.527.35-.846.35-.319 0-.619-.124-.845-.35-.226-.226-.351-.527-.35-.846 0-.319.124-.62.35-.845l4.467-4.467c-.654-.988-.998-2.128-.998-3.317 0-1.613.628-3.13 1.77-4.272 1.142-1.141 2.659-1.769 4.272-1.769m-.007 9.69c2.016 0 3.657-1.64 3.657-3.656 0-2.017-1.64-3.657-3.657-3.657-2.016 0-3.657 1.64-3.657 3.657.001 2.015 1.641 3.656 3.657 3.656m18.388-14.028h-25.411c-.99 0-1.8.81-1.8 1.8v13.562l1.935-1.935c-.424-.955-.645-1.99-.645-3.048 0-1.119.25-2.198.71-3.183v-4.476c0-.396.324-.72.72-.72h23.571c.396 0 .72.324.72.72v13.641c0 .396-.324.72-.72.72h-14.006c-1.056.546-2.233.839-3.455.839-1.077 0-2.129-.228-3.097-.667l-1.828 1.829h9.6v2.089h-4.761c-.552 0-1 .448-1 1s.448 1 1 1h11.523c.552 0 1-.448 1-1s-.448-1-1-1h-4.762v-2.089h11.706c.99 0 1.8-.81 1.8-1.8v-15.482c0-.99-.81-1.8-1.8-1.8z" fill="#0568ae"/></svg>