<svg xmlns="http://www.w3.org/2000/svg" viewBox="0 0 36 36" enable-background="new 0 0 36 36"><path d="M9.854 6.531l-4.194 4.202h-1.571c-.186 0-.338-.152-.338-.338v-1.805c.001-1.135.925-2.059 2.06-2.059h4.043zm3.833-.001l-4.194 4.203h3.844l4.194-4.203h-3.844zm16.257.603c-.267-.267-.596-.445-.952-.535l-4.125 4.133h5.343c.186 0 .338-.152.338-.339v-1.804c.001-.548-.214-1.065-.604-1.455zm-8.57-.603l-4.194 4.203h3.844l4.194-4.203h-3.844zm12.418 17.822v-13.619c0-.414-.336-.75-.75-.75s-.75.336-.75.75v13.619c0 1.77-1.44 3.21-3.21 3.21h-22.023c-.414 0-.75.336-.75.75s.336.75.75.75h22.022c2.598 0 4.711-2.113 4.711-4.71zm-3.582-12.208h-26.122000000000003c-.186 0-.338.152-.338.339v11.264000000000001c0 1.117.914 2.031 2.031 2.031h22.736c1.117 0 2.031-.914 2.031-2.031v-11.264000000000001c0-.187-.152-.339-.338-.339zm-9.138 6.817c0 .537-.435.972-.972.972h-5.832c-.537 0-.972-.435-.972-.972 0-.537.435-.972.972-.972h5.832c.537 0 .972.435.972.972z" fill="#0568ae"/></svg>