<svg xmlns="http://www.w3.org/2000/svg" viewBox="0 0 36 36"><path fill="#0568ae" d="M18 3.5C10 3.5 3.5 10 3.5 18S10 32.5 18 32.5 32.5 26 32.5 18 26 3.5 18 3.5zm9.9 22.1h-4.1c-.2 0-.3.1-.4.3l-1.3 3.9c-1.3.5-2.7.7-4.2.7s-2.9-.3-4.2-.7l-1.3-3.9c-.1-.2-.2-.3-.4-.3H7.9c-1.6-2.1-2.6-4.7-2.6-7.6v-.3l3.4-2.5c.3 0 .4-.2.3-.4l-1.3-4c1.6-2.2 3.9-3.9 6.5-4.8l3.5 2.5c.1 0 .1.1.2.1s.2 0 .2-.1L21.6 6c2.7.8 5 2.5 6.5 4.8l-1.3 4c-.1.2 0 .3.1.4l3.4 2.5v.3c.2 2.9-.8 5.5-2.4 7.6zm-4.8-9.5c.1.1.2.3.1.4l-1.9 5.8c-.1.2-.2.3-.4.3h-6.1c-.2 0-.3-.1-.4-.3l-1.9-5.8c-.1-.2 0-.3.1-.4l4.9-3.6c.1-.1.3-.1.4 0l5.2 3.6z"/></svg>