<svg xmlns="http://www.w3.org/2000/svg" viewBox="0 0 36 36"><path fill="#0568ae" d="M18 4.1C10.3 4.1 4.1 10.3 4.1 18S10.3 31.9 18 31.9 31.9 25.7 31.9 18 25.6 4.1 18 4.1zm5.8 21.2l-2-2.7 2-6.1 3.2-1 4.1 3c-.1 2.5-.9 4.9-2.2 6.9h-5.1zm-8.9-3L13 16.4l5-3.7 5 3.7-1.9 5.9h-6.2zm12.6-7.4l1.4-4.2c1.3 2 2.1 4.3 2.2 6.8l-3.6-2.6zm.8-5l-1.6 4.8-3.3 1.1-5.1-3.7V8.7l4.1-3c2.4.8 4.4 2.3 5.9 4.2zm-6.7-4.5L18 8l-3.6-2.6c1.1-.3 2.3-.5 3.6-.5 1.2 0 2.4.2 3.6.5zm-8.1.3l4.1 3v3.4l-5.1 3.7-3.3-1.1-1.6-4.8c1.5-1.9 3.6-3.4 5.9-4.2zm-5 9.2l-3.6 2.6c.1-2.5.9-4.9 2.2-6.8l1.4 4.2zm-3.6 3.5l4.1-3 3.2 1 2 6.1-2.1 3c-.1.2-.1.4.1.5.1 0 .1.1.2.1s.2-.1.3-.2l2.1-2.9h6.5l2 2.7-1.6 4.8c-1.2.3-2.4.5-3.6.5-7.2.1-13-5.5-13.2-12.6zm17.6 11.9l1.4-4.2h4.4c-1.5 1.9-3.5 3.4-5.8 4.2z"/></svg>