<svg xmlns="http://www.w3.org/2000/svg" viewBox="0 0 36 36" enable-background="new 0 0 36 36"><path d="M23.5 21.728c-3.313 0-6 2.686-6 6s2.687 6 6 6 6-2.686 6-6-2.687-6-6-6zm2.861 7h-1.861v1.862c0 .552-.448 1-1 1s-1-.448-1-1v-1.862h-1.862c-.552 0-1-.448-1-1s.448-1 1-1h1.862v-1.862c0-.552.448-1 1-1s1 .448 1 1v1.862h1.861c.552 0 1 .448 1 1s-.448 1-1 1zm-10.358-.92l-.178.069c-.637.221-1.284.333-1.924.333-1.684 0-3.049-.798-3.478-2.034-.609-1.759.822-3.858 3.189-4.679.636-.221 1.284-.333 1.924-.333.427 0 .835.039 1.205.154.24.075.341.021.341-.202v-17.967c0-.891.553-1.146 1.23-.566l1.417 1.215 5.248 4.498c.406.348.738 1.07.738 1.605v3.34c0 .535-.334.69-.742.344l-5.817-4.922v12.96c-1.906 1.362-3.156 3.588-3.156 6.105l.003.08z" fill="#0568ae"/></svg>