<svg xmlns="http://www.w3.org/2000/svg" viewBox="0 0 36 36" enable-background="new 0 0 36 36"><path d="M22.116 20.625c-1.353 0-2.606.427-3.639 1.148v-16.92l7.396 6.895c.151.141.389.134.53-.019.141-.151.133-.389-.019-.53l-8.027-7.483c-.109-.102-.269-.129-.405-.07-.137.06-.225.195-.225.344v17.423c-.375-.389-.874-.69-1.479-.874-.999-.303-2.164-.257-3.281.13-2.348.814-3.762 2.91-3.152 4.671.446 1.285 1.847 2.042 3.484 2.042.608 0 1.248-.104 1.883-.325.196-.068.384-.148.568-.233l-.009.176c0 3.515 2.86 6.375 6.375 6.375s6.375-2.86 6.375-6.375-2.86-6.375-6.375-6.375zm-7.18 5.724c-1.958.681-3.937.117-4.413-1.254-.474-1.371.732-3.038 2.689-3.716.551-.191 1.112-.288 1.65-.288.407 0 .801.055 1.167.167.76.231 1.303.681 1.55 1.271-.899.911-1.52 2.093-1.743 3.408-.279.16-.58.301-.9.412zm7.18 6.276c-3.102 0-5.625-2.523-5.625-5.625 0-3.101 2.523-5.625 5.625-5.625s5.625 2.524 5.625 5.625c0 3.102-2.524 5.625-5.625 5.625zm3.554-5.625c0 .207-.168.375-.375.375h-2.804v2.805c0 .207-.168.375-.375.375s-.375-.168-.375-.375v-2.805h-2.805c-.207 0-.375-.168-.375-.375s.168-.375.375-.375h2.805v-2.805c0-.207.168-.375.375-.375s.375.168.375.375v2.805h2.804c.207 0 .375.168.375.375z" fill="#0568ae"/></svg>