<svg xmlns="http://www.w3.org/2000/svg" viewBox="0 0 36 36" enable-background="new 0 0 36 36"><path d="M11.722 21.328c-.077.192-.296.287-.487.21-.414-.165-1.06-.142-1.421.05l-2.598 1.364c-.171.091-.325.128-.459.128-.204 0-.359-.086-.454-.199-.095-.11-.197-.322-.136-.689l.5-2.894c.075-.454-.148-1.135-.476-1.455l-2.1-2.048c-.344-.335-.317-.625-.271-.768.043-.141.191-.396.672-.465l2.902-.42c.463-.068 1.031-.482 1.241-.905l1.295-2.625c.207-.421.495-.484.649-.484h.001c.153 0 .441.063.648.485l1.299 2.624c.203.416.782.838 1.24.905.205.03.346.221.316.425-.03.205-.221.348-.425.317-.702-.102-1.494-.681-1.805-1.317l-1.274-2.575-1.271 2.578c-.321.646-1.097 1.21-1.806 1.314l-2.848.412 2.061 2.009c.503.49.808 1.42.692 2.118l-.49 2.84 2.548-1.338c.55-.292 1.432-.328 2.048-.083.192.075.286.293.209.486zm20.186-5.533c.344-.335.318-.625.272-.765-.045-.145-.192-.399-.673-.469l-2.901-.42c-.464-.068-1.033-.482-1.242-.904l-1.296-2.626c-.207-.421-.495-.484-.649-.484-.153 0-.441.063-.647.483l-1.3 2.627c-.202.414-.781.836-1.239.903-.205.03-.347.221-.317.425s.223.348.426.317c.701-.102 1.494-.681 1.804-1.315l1.274-2.577 1.271 2.578c.32.645 1.096 1.21 1.806 1.314l2.847.412-2.061 2.009c-.504.49-.808 1.421-.692 2.121l.491 2.837-2.546-1.337c-.553-.294-1.433-.33-2.05-.084-.192.076-.286.294-.21.487.077.192.294.287.487.21.415-.165 1.059-.142 1.422.051l2.594 1.362c.173.092.328.13.462.13.203 0 .357-.086.45-.196.097-.113.2-.325.139-.694l-.5-2.89c-.076-.456.147-1.137.476-1.458l2.102-2.047zm-8.178 10.201c.058.343.004.624-.154.81-.226.268-.618.292-1.051.062l-3.383-1.777c-.561-.297-1.552-.296-2.104-.001l-3.389 1.779c-.196.105-.384.157-.552.157-.201 0-.375-.074-.498-.222-.156-.182-.21-.461-.152-.807l.652-3.774.008-.085.003-.053v-.001c.046-.636-.246-1.453-.665-1.861l-2.74-2.67c-.404-.395-.377-.724-.325-.885.025-.08.08-.192.2-.294.119-.102.303-.194.585-.236l3.785-.547c.558-.082 1.221-.515 1.579-1.029v-.001l.127-.212 1.688-3.425c.243-.493.571-.567.744-.567.174.001.501.075.744.568l1.693 3.424.183.282c.369.482 1.008.886 1.521.961l3.783.548c.556.08.731.362.786.523.054.167.081.497-.326.892l-2.74 2.67c-.461.45-.757 1.366-.646 2l.024.144v.004l.62 3.623zm-.727.263l-.013-.138-.619-3.629-.001-.001-.024-.142c-.152-.872.226-2.042.861-2.664l2.74-2.67.092-.104-.136-.031-3.783-.547c-.711-.104-1.518-.605-2.009-1.248l-.001-.001c-.115-.151-.197-.279-.259-.406l-1.694-3.424-.071-.117-.072.117-1.689 3.426-.181.306-.003.003c-.48.691-1.317 1.23-2.085 1.344l-3.787.548-.052.012-.082.019.091.104 2.739 2.67c.578.563.953 1.595.89 2.454v.002h-.001l-.011.041.009.002-.017.165-.652 3.774-.012.137.124-.054 3.39-1.779c.76-.406 2.033-.408 2.804 0l3.384 1.777.13.054z" fill="#0568ae"/></svg>