<svg xmlns="http://www.w3.org/2000/svg" viewBox="0 0 36 36" enable-background="new 0 0 36 36"><path d="M26.162 17.287l-2.706 2.637c-.489.478-.803 1.45-.686 2.122l.636 3.726c.049.289.009.518-.115.664-.06.071-.173.157-.367.157-.141 0-.297-.045-.465-.134l-3.342-1.755c-.6-.318-1.642-.316-2.233-.001l-3.346 1.756c-.167.089-.323.135-.465.135-.194 0-.307-.086-.368-.158-.122-.143-.162-.372-.114-.662l.644-3.726c.112-.675-.206-1.647-.694-2.123l-2.705-2.637c-.248-.242-.347-.492-.279-.703.066-.213.293-.359.64-.409l3.738-.541c.687-.101 1.499-.692 1.809-1.318l1.668-3.383c.201-.407.453-.468.586-.468.133 0 .385.061.585.468l1.673 3.382c.301.616 1.128 1.219 1.807 1.318l3.735.541c.342.049.571.193.643.405.07.214-.03.464-.279.707zm-14.668 3.711l-2.703-2.636c-.659-.641-.906-1.478-.665-2.223.24-.773.934-1.314 1.858-1.449l2.212-.32c-.501-.104-1.083-.538-1.301-.984l-1.269-2.565c-.151-.309-.343-.355-.443-.355-.101 0-.293.046-.444.355l-1.265 2.566c-.236.474-.852.923-1.372.999l-2.836.41c-.263.038-.435.149-.485.31-.052.161.023.35.211.534l2.052 2c.371.361.611 1.098.526 1.61l-.488 2.827c-.037.22-.006.394.087.502.046.055.132.12.279.12.107 0 .226-.035.352-.102l2.538-1.332c.448-.239 1.239-.24 1.694 0l1.667.876.059-.34c.029-.192-.124-.665-.264-.803zm21.726-5.895c-.055-.161-.227-.27-.487-.307l-2.833-.41c-.515-.075-1.143-.533-1.371-1l-1.269-2.565c-.152-.309-.343-.355-.444-.355-.101 0-.292.046-.444.355l-1.265 2.566c-.225.454-.797.88-1.303.984l2.209.32c.917.132 1.59.645 1.855 1.429.247.763-.001 1.602-.66 2.243l-2.704 2.635c-.136.136-.288.602-.256.798l.059.344 1.664-.873c.448-.239 1.238-.24 1.693 0l2.535 1.332c.127.067.247.102.353.102.148 0 .233-.065.278-.119.094-.11.124-.284.087-.503l-.482-2.826c-.089-.51.149-1.247.52-1.61l2.052-2c.19-.187.266-.377.213-.54z" fill="#0568ae"/></svg>