<svg xmlns="http://www.w3.org/2000/svg" viewBox="0 0 36 36" enable-background="new 0 0 36 36"><path d="M28.949 12.511h-3.98c-.465 0-.843-.378-.843-.843v-2.833c0-.465.378-.843.843-.843h3.98c.465 0 .844.378.844.843v2.832c0 .466-.378.844-.844.844zm-3.98-3.769c-.05 0-.093.043-.093.093v2.832c0 .051.043.093.093.093h3.98c.051 0 .094-.043.094-.093v-2.832c0-.05-.043-.093-.094-.093h-3.98zm3.98 9.421h-3.98c-.465 0-.843-.378-.843-.843v-2.832c0-.465.378-.843.843-.843h3.98c.465 0 .844.378.844.843v2.832c0 .465-.378.843-.844.843zm-3.98-3.768c-.05 0-.093.042-.093.093v2.832c0 .051.043.093.093.093h3.98c.051 0 .094-.043.094-.093v-2.832c0-.05-.043-.093-.094-.093h-3.98zm3.98 9.421h-3.98c-.465 0-.843-.378-.843-.843v-2.832c0-.465.378-.843.843-.843h3.98c.465 0 .844.378.844.843v2.832c0 .465-.378.843-.844.843zm-3.98-3.769c-.05 0-.093.042-.093.093v2.832c0 .051.043.093.093.093h3.98c.051 0 .094-.042.094-.093v-2.832c0-.051-.043-.093-.094-.093h-3.98zm-2.184 2.912v-14.11c0-.472-.383-.857-.853-.857h-14.868c-.471 0-.855.385-.855.857v9.343c0 .207.168.375.375.375s.375-.168.375-.375v-9.343c0-.059.047-.107.105-.107h14.868c.057 0 .103.048.103.107v14.11c0 .058-.048.107-.104.107h-12.931c-.207 0-.375.168-.375.375s.168.375.375.375h12.931c.471 0 .854-.384.854-.857zm7.761-17.123h-25.095c-.734 0-1.332.597-1.332 1.33v17.67c0 .734.598 1.331 1.332 1.331h12.174v2.339h-5.386c-.207 0-.375.168-.375.375s.168.375.375.375h11.522c.207 0 .375-.168.375-.375s-.168-.375-.375-.375h-5.386v-2.339h12.171c.736 0 1.335-.597 1.335-1.331v-17.67c0-.733-.599-1.33-1.335-1.33zm.585 19c0 .321-.262.581-.585.581h-25.095c-.321 0-.582-.261-.582-.581v-17.67c0-.32.261-.58.582-.58h25.095c.322 0 .585.26.585.58v17.67zm-11.784-5.442l-1.549-.664c-.069-.031-.135-.077-.186-.294l-.117-.677 1.594.248.058.004c.182 0 .341-.132.37-.317.032-.205-.108-.397-.313-.428l-3.603-.561-.028-.066c-.099-.299.423-.496.443-.503.228-.083 1.143-.469 1.872-.779.365-.157.481-.601.381-.94v-.001c-.175-.586-.408-1.085-.714-1.526-.888-1.279-2.278-1.947-3.808-1.827-1.895.146-3.597 1.448-4.237 3.24-.635 1.777.515 4.481 1.326 5.004.37.24 1.055.521 2.221.91.428.143.815.215 1.16.215.814 0 1.401-.399 1.781-1.206.299-.637.176-1.225-.015-1.702l.735.114c.042.269.126.803.165.97.06.255.188.616.613.809l1.556.667.148.03c.146 0 .284-.085.345-.227.081-.191-.008-.411-.198-.493zm-4.027-.488c-.311.661-.775 1.016-2.024.598-1.073-.358-1.744-.629-2.051-.829-.538-.346-1.531-2.708-1.027-4.122.541-1.518 1.983-2.62 3.588-2.744l.295-.011c1.153 0 2.153.532 2.838 1.518.26.375.46.804.612 1.313l.001.056c-.978.416-1.629.688-1.791.746-.611.226-1.125.76-.897 1.445.05.151.13.309.215.476.235.466.503.996.241 1.554zm-1.964-1.76c-.368-.011-.675.278-.686.647-.011.368.277.675.646.686.367.011.676-.278.686-.646.011-.368-.277-.676-.646-.687z" fill="#0568ae"/></svg>