<svg xmlns="http://www.w3.org/2000/svg" viewBox="0 0 36 36" enable-background="new 0 0 36 36"><path d="M29.006 13.01c0 .198-.162.36-.36.36h-5.035c-.198 0-.36-.162-.36-.36v-2.439c0-.198.162-.36.36-.36h5.035c.198 0 .36.162.36.36v2.439zm0 6.466c0-.198-.162-.36-.36-.36h-5.035c-.198 0-.36.162-.36.36v2.439c0 .198.162.36.36.36h5.035c.198 0 .36-.162.36-.36v-2.439zm0-4.453c0-.198-.162-.36-.36-.36h-5.035c-.198 0-.36.162-.36.36v2.439c0 .198.162.36.36.36h5.035c.198 0 .36-.162.36-.36v-2.439zm-15.658 2.23c-.462 0-.813.342-.826.778-.013.442.336.813.777.826h.024c.437 0 .789-.342.802-.779.013-.44-.336-.811-.777-.825zm8.488-6.682v11.343c0 .198-.162.36-.36.36h-14.122c-.198 0-.36-.162-.36-.36v-11.343c0-.198.162-.36.36-.36h14.121c.199 0 .361.162.361.36zm-3.087 8.801l-1.362-.584c-.02-.009-.056-.026-.092-.18l-.079-.45 1.127.175.067.005c.212 0 .398-.154.432-.37.037-.239-.126-.462-.365-.5l-3.2-.498c-.009-.229.377-.377.395-.384.196-.071.998-.41 1.635-.681.321-.138.421-.527.334-.823-.153-.514-.358-.951-.626-1.337-.78-1.124-1.99-1.703-3.333-1.599-1.659.128-3.148 1.268-3.708 2.836-.555 1.555.45 3.922 1.161 4.38.324.21.923.456 1.943.796.384.128.717.191 1.017.191.702 0 1.226-.356 1.557-1.057.238-.507.17-.977.031-1.372l.622.097c.039.25.104.655.135.791.091.386.284.641.591.781l1.372.587.172.036c.17 0 .331-.1.402-.265.098-.222-.005-.48-.228-.575zm13.757-10.861v15.481c0 .99-.81 1.8-1.8 1.8h-11.706v2.089h4.761c.552 0 1 .448 1 1s-.448 1-1 1h-11.522c-.552 0-1-.448-1-1s.448-1 1-1h4.761v-2.089h-11.706c-.99 0-1.8-.81-1.8-1.8v-15.481c0-.99.81-1.8 1.8-1.8h25.411c.991 0 1.801.81 1.801 1.8zm-2 .92c0-.396-.324-.72-.72-.72h-23.572c-.396 0-.72.324-.72.72v13.641c0 .396.324.72.72.72h23.572c.396 0 .72-.324.72-.72v-13.641z" fill="#0568ae"/></svg>