<svg xmlns="http://www.w3.org/2000/svg" viewBox="0 0 36 36" enable-background="new 0 0 36 36"><path d="M33.171 28.735l-1.111-.472.003-.021.076-3.972.333.052.155.012c.484 0 .91-.353.987-.847.084-.546-.289-1.057-.834-1.142l-6.63-1.037c-.322-1.891-.654-3.868-.776-4.593 1.07-.449 2.231-.942 3.02-1.278.478-.204.674-.914.509-1.473-.437-1.467-1.063-2.929-1.993-4.27-2.638-3.798-6.555-5.313-10.441-5.015-4.989.384-9.895 3.747-11.768 9-1.711 4.794 1.466 12.39 3.539 13.728.856.555 2.536 1.316 6.425 2.615 3.891 1.301 6.122.467 7.467-2.389.878-1.869.267-3.585-.408-4.991l2.696.421c.418 2.43.469 2.653.49 2.739.173.74.542 1.789 1.772 2.349l5.708 2.425c.128.054.26.08.391.08.389 0 .759-.229.921-.609.215-.508-.022-1.096-.531-1.312zm-18.087-2.257c-1.109-.034-1.977-.959-1.943-2.065.032-1.108.958-1.979 2.064-1.945 1.107.033 1.976.959 1.944 2.065-.035 1.107-.962 1.977-2.065 1.945zm5.666-6.013c-.314-1.45 1.159-2.37 2.076-2.707l.651-.256c.133.794.357 2.12.588 3.481l-3.315-.518zm9.327 6.956l-2.591-1.1c-.238-.108-.465-.264-.63-.973-.016-.068-.082-.403-.351-1.958l3.639.569-.067 3.462z" fill="#0568ae"/></svg>