<svg xmlns="http://www.w3.org/2000/svg" viewBox="0 0 36 36" enable-background="new 0 0 36 36"><path d="M12.268 24.411c-.039 1.311.996 2.41 2.307 2.45l.072.001c1.295 0 2.339-1.014 2.379-2.309.038-1.313-.997-2.413-2.307-2.452l-.075-.001c-1.295 0-2.339 1.015-2.376 2.311zm.75.022c.025-.888.739-1.582 1.625-1.582l.051.001c.897.027 1.606.78 1.581 1.68-.027.871-.758 1.581-1.629 1.581-.946-.029-1.655-.782-1.628-1.68zm-5.479 3.298c1.061.687 3.068 1.506 6.51 2.655 1.242.415 2.307.617 3.256.617 2.126 0 3.653-1.047 4.669-3.202 1.046-2.227.135-4.241-.628-5.759l3.117.485c.229 1.351.482 2.816.557 3.14.23.986.662 1.576 1.399 1.913l5.717 2.429.146.03c.146 0 .285-.086.346-.228.081-.191-.008-.411-.199-.492l-1.736-.738c.139-.051.241-.179.247-.336l.093-2.664c.007-.207-.155-.38-.362-.388-.206-.016-.381.155-.388.362l-.093 2.664.035.164-3.505-1.489c-.51-.233-.794-.638-.971-1.396-.067-.287-.291-1.582-.506-2.848l6.826 1.063.058.004c.182 0 .341-.132.37-.317.032-.205-.108-.396-.313-.428l-7.073-1.102-.32-1.918c-.034-.204-.227-.341-.431-.309-.204.034-.343.227-.309.432l.28 1.674-3.395-.529c-.111-.232-.206-.447-.271-.643-.518-1.558 1.555-2.372 1.793-2.459.704-.256 3.801-1.568 5.584-2.327.708-.302.926-1.234.722-1.924-.503-1.688-1.172-3.119-2.044-4.377-2.334-3.362-5.814-5.213-9.799-5.213-.324 0-.653.013-.979.038-5.409.417-10.268 4.133-12.093 9.248-1.765 4.949 1.47 12.735 3.69 14.168zm-2.983-13.916c1.726-4.841 6.326-8.358 11.444-8.752.307-.023.617-.035.921-.035 3.732 0 6.993 1.737 9.183 4.89.826 1.192 1.461 2.554 1.941 4.163.121.408-.024.904-.297 1.021-1.776.756-4.859 2.063-5.548 2.313-1.389.511-2.81 1.708-2.247 3.4.134.402.362.852.604 1.33.75 1.481 1.683 3.325.738 5.338-.891 1.89-2.159 2.771-3.99 2.771-.867 0-1.854-.189-3.019-.579-3.333-1.113-5.348-1.931-6.34-2.573-1.852-1.196-5.078-8.555-3.39-13.287z" fill="#0568ae"/></svg>