<svg xmlns="http://www.w3.org/2000/svg" viewBox="0 0 36 36" enable-background="new 0 0 36 36"><path d="M32.041 16.307l-4.633 4.406c-.769.734-1.278 2.242-1.11 3.29l1.004 6.309c.156.964-.227 1.397-.469 1.569-.133.095-.357.204-.674.204-.257 0-.577-.071-.961-.28l-5.624-3.04c-.936-.505-2.523-.522-3.467-.038l-4.497 2.296c-.184.094-.41.021-.504-.164-.094-.184-.021-.41.164-.504l4.497-2.296c1.172-.602 3.002-.581 4.164.046l5.625 3.041c.362.195.676.242.844.124.167-.119.229-.433.163-.839l-1.003-6.31c-.208-1.303.378-3.038 1.334-3.951l4.631-4.404c.295-.286.436-.575.373-.772-.061-.195-.34-.349-.745-.413l-6.319-.99c-1.3-.206-2.766-1.3-3.337-2.492l-2.763-5.761c-.178-.372-.407-.596-.613-.598h-.003c-.204 0-.437.217-.621.581l-2.899 5.699c-.589 1.159-2.114 2.24-3.399 2.41l-6.334.847c-.408.054-.691.202-.757.395-.066.194.069.484.361.775l4.524 4.513c.935.936 1.48 2.684 1.243 3.981l-.688 3.499c-.04.203-.236.335-.44.295-.203-.039-.336-.237-.296-.44l.685-3.494c.191-1.039-.283-2.558-1.036-3.31l-4.524-4.514c-.692-.692-.636-1.266-.541-1.547.095-.281.399-.77 1.368-.898l6.334-.847c1.052-.139 2.347-1.058 2.83-2.007l2.899-5.699c.442-.871 1.019-.999 1.302-.991.297.003.858.141 1.279 1.024l2.763 5.761c.461.959 1.733 1.91 2.778 2.075l6.319.99c.961.151 1.253.646 1.342.927.09.285.135.86-.569 1.542z" fill="#0568ae"/></svg>