<svg xmlns="http://www.w3.org/2000/svg" viewBox="0 0 36 36"><path fill="#0568ae" d="M33.8 24.4V10.7c0-.4-.3-.8-.8-.8-.4 0-.8.3-.8.8v13.6c0 1.8-1.4 3.2-3.2 3.2H7c-.4 0-.8.3-.8.8 0 .4.3.8.8.8h22c2.7 0 4.8-2.2 4.8-4.7zM9.9 6.5l-4.2 4.2H4.1c-.2 0-.3-.2-.3-.3V8.6c0-1.1.9-2.1 2.1-2.1h4zm3.8 0l-4.2 4.2h3.8l4.2-4.2h-3.8zm16.2.6c-.3-.3-.6-.4-1-.5l-4.1 4.1h5.4c.2 0 .3-.2.3-.3V8.6c0-.6-.2-1.1-.6-1.5zm-8.5-.6l-4.2 4.2H21l4.2-4.2h-3.8zm-3.7 13.4v1.6c.6-.1.8-.4.8-.8 0-.2-.1-.3-.2-.5-.1-.1-.3-.2-.6-.3zm-1.8-2.8c0 .2.1.4.2.5.1.1.3.2.6.3v-1.6c-.5.1-.8.4-.8.8zm14.3-5H4.1c-.2 0-.3.2-.3.3V23.8c0 1.1.9 2 2 2h22.7c1.1 0 2-.9 2-2V12.5c0-.2-.1-.4-.3-.4zm-10.8 10c-.4.4-1 .7-1.7.7V24h-1v-1.1c-.5 0-.9-.1-1.4-.2-.4-.1-.8-.3-1.1-.5l.4-1.2c.6.3 1.3.5 2 .5v-2c-.6-.2-1.1-.4-1.4-.6-.3-.2-.6-.4-.7-.7-.1-.3-.2-.6-.2-1 0-.6.2-1.1.6-1.5.4-.4 1-.6 1.7-.7v-1.1h1V15c.4 0 .7.1 1 .2.3.1.6.2.9.4l-.4 1.2c-.6-.3-1.1-.4-1.6-.4v1.9c.6.2 1 .3 1.3.5.3.2.6.5.7.7.2.3.2.6.2 1 .4.7.2 1.2-.3 1.6z"/></svg>