<svg xmlns="http://www.w3.org/2000/svg" viewBox="0 0 36 36" enable-background="new 0 0 36 36"><path d="M11.455 24.143c.207 0 .375.168.375.375s-.168.375-.375.375h-3.283c-.207 0-.375-.168-.375-.375s.168-.375.375-.375h3.283zm5.468 0h-3.283c-.207 0-.375.168-.375.375s.168.375.375.375h3.282c.207 0 .375-.168.375-.375.001-.207-.167-.375-.374-.375zm5.468.75c.207 0 .375-.168.375-.375s-.168-.375-.375-.375h-3.284c-.207 0-.375.168-.375.375s.168.375.375.375h3.284zm2.185-.75c-.207 0-.375.168-.375.375s.168.375.375.375h3.282c.207 0 .375-.168.375-.375s-.168-.375-.375-.375h-3.282zm-14.433 2.678h-3.939c-.207 0-.375.168-.375.375s.168.375.375.375h3.939c.207 0 .375-.168.375-.375s-.168-.375-.375-.375zm6.562 0h-3.94c-.207 0-.375.168-.375.375s.168.375.375.375h3.94c.207 0 .375-.168.375-.375s-.168-.375-.375-.375zm6.561.75c.207 0 .375-.168.375-.375s-.168-.375-.375-.375h-3.94c-.207 0-.375.168-.375.375s.168.375.375.375h3.94zm6.937-.375c0-.207-.168-.375-.375-.375h-3.94c-.207 0-.375.168-.375.375s.168.375.375.375h3.94c.207 0 .375-.168.375-.375zm-21.634 2.302h-4.729c-.207 0-.375.168-.375.375s.168.375.375.375h4.728c.207 0 .375-.168.375-.375.001-.207-.167-.375-.374-.375zm7.873 0h-4.727c-.207 0-.375.168-.375.375s.168.375.375.375h4.727c.207 0 .375-.168.375-.375s-.168-.375-.375-.375zm7.874 0h-4.727c-.207 0-.375.168-.375.375s.168.375.375.375h4.727c.207 0 .375-.168.375-.375s-.168-.375-.375-.375zm7.874 0h-4.728c-.207 0-.375.168-.375.375s.168.375.375.375h4.728c.207 0 .375-.168.375-.375s-.168-.375-.375-.375zm-27.521-7.11v-16.26c0-.207.168-.375.375-.375s.375.168.375.375v15.881c1.707-.034 2.18-.3 2.285-.381-.027-3.488-1.261-6.032-1.274-6.058l-.003-.01-.007-.012-.012-.061-.015-.073.01-.07.014-.071.035-.06.04-.061.058-.045.05-.039.011-.003.01-.007c3.218-1.343 4.684-5.537 4.684-8.865 0-.207.168-.375.375-.375s.375.168.375.375c0 .333-.018.672-.044 1.014h12.007c-.026-.341-.044-.681-.044-1.014 0-.207.168-.375.375-.375s.375.168.375.375c0 3.329 1.466 7.523 4.684 8.865l.01.007.011.003.047.036.062.048.037.057.037.065.013.066.01.074-.014.07-.013.064-.007.012-.002.009c-.013.026-1.254 2.593-1.274 6.059.107.081.582.346 2.285.38v-15.88c0-.207.168-.375.375-.375s.375.168.375.375v16.26c0 .207-.168.375-.375.375-1.772 0-2.83-.211-3.233-.644-.173-.187-.181-.365-.176-.432 0-.262.008-.517.02-.769h-19.164c.013.26.022.524.022.795.004.041-.003.219-.177.405-.403.433-1.46.644-3.233.644-.207.001-.375-.167-.375-.374zm3.707-2.22h19.277c.212-2.213.829-3.893 1.12-4.585-2.773-1.357-4.266-4.532-4.676-7.626h-12.164c-.41 3.095-1.903 6.27-4.677 7.626.292.69.906 2.367 1.12 4.585z" fill="#0568ae"/></svg>