<svg xmlns="http://www.w3.org/2000/svg" viewBox="0 0 36 36"><path fill="none" d="M0 0h36v36H0z"/><path fill="#0568ae" d="M34.7 17.6l-.2.1c-.7.6-1.1 1.6-.9 2.5v.2c.2.4 0 .9-.4 1.1l-15 7.2c-.1.1-.2.1-.4.1-.3 0-.7-.2-.9-.5l-.2-.2-.3-.3c-.2-.1-.2-.4-.1-.5.1-.2.4-.2.5-.1.1.1.3.2.4.4.2.3.3.3.3.3.3.1.4.1.5.1l15-7.2v-.5c-.2-1.2.2-2.4 1.2-3.2l.2-.2c.1 0 .1-.1.1-.1l-.2-.4-2.9-6s-.2-.1-.3 0c0 0-.1 0-.4.1-1.1.1-2.2-.2-2.9-1-.2-.3-.3-.3-.3-.3-.2-.2-.3-.3-.3-.2l-1.9.9c-.2.1-.4 0-.5-.2-.1-.2 0-.4.2-.5l1.9-.9c.4-.2 1 0 1.2.4l.2.2c.6.6 1.4.9 2.3.8h.3c.5-.2 1 0 1.2.4l3.1 6.4c0 .4-.2.8-.5 1.1zm-10.2-.3L12.8 29c-.2.2-.4.2-.6.2-.2 0-.5-.1-.7-.3l-.2-.1c-.7-.4-1.7-.4-2.4 0-.2.2-.3.2-.3.2-.3.3-1 .3-1.3 0l-5-5c-.3-.3-.3-.8 0-1.1l.1-.2c.5-.8.5-1.8 0-2.7l-.1-.2c-.3-.3-.3-.8 0-1.1L14.1 7c.3-.3.9-.3 1.3 0l.2.1c.7.4 1.7.4 2.4 0l.2-.1c.3-.3 1-.3 1.3 0l5 5c.3.3.3.8 0 1.1l-.1.2c-.5.8-.5 1.8 0 2.7l.1.2c.3.3.3.8 0 1.1zm-.7-4.4l.2-.3.1-.1-.3-.3L19 7.5s-.2 0-.3.1c0 0-.1 0-.4.2-.9.5-2.1.5-3.1 0-.3-.2-.3-.2-.4-.2-.1-.1-.3-.1-.3-.1L12 10.1l1 1c.1.1.1.4 0 .5-.1.1-.2.1-.3.1-.1 0-.2 0-.3-.1l-1-1-8.6 8.6s0 .1.1.2v.1l.1.2c.6 1.1.6 2.4 0 3.4l-.2.3-.1.1.3.3 4.7 4.7c.1.1.2 0 .3 0 0 0 .1-.1.4-.2.5-.2 1-.4 1.5-.4s1.1.1 1.5.4c.3.2.3.2.4.2.1.1.3.1.3.1l8.6-8.6-1.2-1.2c-.1-.1-.1-.4 0-.5.1-.1.4-.1.5 0l1.2 1.2 2.6-2.6s0-.1-.1-.2v-.1l-.1-.2c-.5-1.1-.5-2.4.2-3.5zm-9.3-.4c-.1-.1-.4-.1-.5 0-.1.1-.1.4 0 .5l1.4 1.4c.1.1.2.1.3.1.1 0 .2 0 .3-.1.1-.1.1-.4 0-.5l-1.5-1.4zm2.8 2.9c-.1-.1-.4-.1-.5 0-.1.1-.1.4 0 .5l1.4 1.4c.1.1.2.1.3.1.1 0 .2 0 .3-.1.1-.1.1-.4 0-.5l-1.5-1.4z"/></svg>