<svg xmlns="http://www.w3.org/2000/svg" viewBox="0 0 36 36"><path fill="none" d="M0 0h36v36H0z"/><path fill="#0568ae" d="M14.7 7.1c.2 0 .3.1.4.2l.3.2c.4.2.9.3 1.4.3.5 0 .9-.1 1.4-.3.3-.1.3-.2.3-.2.1-.1.3-.2.4-.2.1 0 .3 0 .4.1l.2.2.1.1L24 12l.3.3c.1.1.1.4-.1.6l-.1.2c-.6.9-.6 2.1 0 3l.1.2c.2.2.2.5.1.7l-.3.3-11.1 11.1-.3.3c-.1.1-.2.1-.3.1-.2 0-.3-.1-.4-.2l-.3-.2c-.4-.2-.9-.3-1.4-.3-.5 0-.9.1-1.4.3-.3.1-.3.2-.3.2-.1.1-.3.2-.4.2-.1 0-.3 0-.4-.1l-.2-.2-.1-.1L2.9 24l-.3-.3c-.1-.1-.1-.4.1-.6l.1-.2c.6-.9.6-2.1 0-3l-.1-.2c-.2-.2-.2-.5-.1-.7l.3-.3L14 7.6l.3-.3c.1-.2.2-.2.4-.2m20 9.6c-.1-.2-.2-.3-.2-.3v-.1l-2.7-5.6s0-.1-.1-.2c0-.1-.1-.2-.1-.3-.1-.2-.5-.4-.8-.2l-.3.1c-1 .1-1.9-.2-2.6-.9-.2-.2-.2-.3-.2-.3-.2-.3-.5-.4-.7-.3l-.4.2-2.5 1.2.9.9.3.3c.7.7.7 1.8.1 2.5l-.1.1c-.3.5-.3 1 0 1.5l.1.1c.6.8.5 1.9-.1 2.6l-.3.4-8.7 8.7.9.6c.2.2.2.3.2.3.2.3.5.4.7.3l.4-.2 14.1-6.8.4-.2c.2-.1.3-.4.2-.7v-.2c-.2-1.1.2-2.2 1-2.9l.2-.2c.3 0 .4-.2.3-.4z"/></svg>