<svg xmlns="http://www.w3.org/2000/svg" viewBox="0 0 36 36"><path fill="#0568ae" d="M28.6 9.2L28 6.6l-.4-1.7c-.1-.3-.3-.3-.5-.1L26 6.1c-2.4-1.7-5.4-2.7-8.4-2.7-3.5 0-6.7 1.2-9.3 3.4-.3.2-.5.5-.5.5-.1.1-.1.4 0 .5l.9.9c.1.1.4.1.5 0 0 0 .3-.2.5-.5 2.2-1.8 5-2.9 8-2.9 2.5 0 5 .8 7.1 2.2l-1 1.2c-.2.2-.1.4.2.4l1 .2 3.3.3c.2 0 .4-.2.3-.4zM5.9 18H3.1v2.6h2.8V18zm.8-4.2h9.2V12c0-.4-.3-.8-.8-.8H6.7v2.6zm-.8.8H3.1v2.6h2.8v-2.6zm0-3.3h-2c-.4 0-.8.3-.8.8v1.8h2.8v-2.6zm.8 5.9h9.2v-2.6H6.7v2.6zm0 .8v2.6h9.2V18H6.7zm-3.6 3.4v1.8c0 .4.3.8.8.8h2v-2.6H3.1zM6.7 24h8.4c.4 0 .8-.3.8-.8v-1.8H6.7V24zm21.6 4.2l-.9-.9c-.1-.1-.4-.1-.5 0 0 0-.3.2-.5.5-2.2 1.8-5 2.9-8 2.9-2.5 0-5-.8-7.1-2.2l1-1.2c.2-.2.1-.4-.2-.4l-1.1-.2-3.3-.3c-.2 0-.3.1-.3.3l.6 2.7.4 1.7c.1.3.3.3.5.1l1.1-1.3c2.4 1.7 5.4 2.7 8.4 2.7 3.5 0 6.7-1.2 9.3-3.4.3-.2.5-.5.5-.5.2-.1.2-.3.1-.5zm-8.6-7.4c-.5 0-.9-.1-1.2-.4-.3-.3-.4-.7-.4-1.2s.2-.9.5-1.2c.3-.3.7-.4 1.3-.4h1.3c0-.3-.1-.6-.2-.7-.2-.1-.4-.2-.7-.2-.5 0-1 .1-1.5.4l-.4-1.1c.7-.3 1.4-.5 2.2-.5.7 0 1.2.2 1.6.5.4.4.6.9.6 1.5v3.2h-1.2l-.1-.5c-.2.2-.5.3-.8.5-.4 0-.7.1-1 .1zm.5-1.2c.1 0 .3 0 .5-.1s.3-.1.4-.2v-.9h-.9c-.2 0-.4.1-.5.2-.1.1-.2.2-.2.4s.1.3.2.4c.2.2.3.2.5.2zm3.6 1v-7.3h1.5v2.5c.4-.3.9-.5 1.4-.5.4 0 .8.1 1.2.3.3.2.6.6.8 1 .2.4.3.9.3 1.4 0 .5-.1 1-.3 1.4-.2.4-.5.7-.8.9-.3.2-.7.3-1.2.3-.6 0-1.1-.2-1.5-.5l-.2.4h-1.2zm2.5-4c-.3 0-.7.1-1 .3v2.3c.3.2.6.3.9.3.4 0 .7-.1.9-.4.2-.3.3-.6.3-1.1 0-.5-.1-.8-.3-1.1-.2-.2-.5-.3-.8-.3zm6 4.2c-.5 0-1-.1-1.4-.3-.4-.2-.7-.5-.9-.9-.2-.4-.3-.9-.3-1.4 0-.5.1-1 .3-1.4.2-.4.5-.7.9-.9.4-.2.9-.3 1.4-.3.6 0 1.1.1 1.6.4l-.4 1.1c-.2-.1-.4-.2-.5-.2-.2 0-.3-.1-.5-.1-.4 0-.8.1-1 .4-.2.3-.4.6-.4 1.1 0 .4.1.8.4 1.1.2.3.6.4 1 .4.2 0 .4 0 .6-.1.2 0 .4-.1.6-.2l.4 1c-.6.1-1.2.3-1.8.3z"/></svg>