<svg xmlns="http://www.w3.org/2000/svg" viewBox="0 0 36 36"><path fill="#0568ae" d="M27.8 28c-2.6 2.5-6.1 4-9.7 4-3.2 0-6.4-1.1-8.9-3.2-.3-.3-.6-.5-.9-.8l.9 3.9c0 .2-.1.4-.3.4h-.1c-.2 0-.3-.1-.4-.3l-.9-3.9c-.1-.4 0-.9.3-1.2.3-.3.7-.5 1.1-.5l4 .2c.2 0 .4.2.4.4s-.2.4-.4.4l-4-.2h-.2l1 1c2.3 1.9 5.3 3 8.4 3 3.4 0 6.7-1.3 9.2-3.7.1-.1.4-.1.5 0 .1.1.1.4 0 .5zm.1-20.1L27 4c0-.2-.2-.3-.4-.3s-.3.2-.3.4l.9 3.9c-.3-.3-.6-.6-.9-.8-2.5-2-5.7-3.2-8.9-3.2-3.6 0-7.1 1.4-9.7 4-.1.1-.2.4 0 .5.1.1.4.2.5 0 2.5-2.4 5.7-3.7 9.2-3.7 3.1 0 6 1.1 8.4 3 .4.3.7.6 1 .9h-.2l-4-.2c-.2 0-.4.2-.4.4s.2.4.4.4l4 .2h.1c.4 0 .8-.2 1-.5.2-.2.3-.6.2-1.1zm-12.3 4.8v10.6c0 .6-.5 1.1-1.1 1.1H4c-.6 0-1.1-.5-1.1-1.1V12.7c0-.6.5-1.1 1.1-1.1h10.6c.5 0 1 .5 1 1.1zm-1.1-.3H6.6v2.3h8.3v-1.9c0-.3-.2-.4-.4-.4zM3.6 17.6h2.3v-2.3H3.6v2.3zm0 3h2.3v-2.3H3.6v2.3zm3 0h8.3v-2.3H6.6v2.3zm8.3-3v-2.3H6.6v2.3h8.3zM3.6 12.7v1.9h2.3v-2.3H4c-.2.1-.4.2-.4.4zM4 23.6h1.9v-2.2H3.6v1.9c0 .2.2.3.4.3zm10.9-.3v-1.9H6.6v2.2h7.9c.2 0 .4-.1.4-.3zm4.8-2.4c-.5 0-.8-.1-1.1-.4-.3-.2-.4-.6-.4-1 0-.5.1-.8.4-1.1s.7-.4 1.2-.4h1.4v-.2c0-.4-.1-.8-.3-1-.2-.2-.5-.3-.9-.3-.5 0-1 .1-1.4.4l-.2-.5c.3-.2.6-.3.9-.4.3-.1.6-.1.9-.1.6 0 1 .2 1.3.5.3.3.4.8.4 1.4v2.9h-.6l-.1-.5c-.2.2-.5.3-.8.5-.1.1-.4.2-.7.2zm.2-.7c.2 0 .5-.1.7-.2.3-.1.5-.2.7-.4v-1.1H20c-.7 0-1.1.3-1.1.9 0 .2.1.4.2.6.2.2.5.2.8.2zm3.7.6V14h.7v2.6c.3-.2.5-.4.7-.4.2-.1.5-.1.8-.1.4 0 .7.1 1 .3.3.2.5.5.7.9.2.4.2.8.2 1.3s-.1.9-.3 1.3c-.2.4-.4.6-.7.8-.3.2-.7.3-1.1.3-.3 0-.5 0-.8-.1s-.5-.2-.7-.4l-.1.4h-.4zm2-4.2c-.2 0-.5 0-.7.1-.2.1-.4.2-.7.4v2.6c.2.2.4.3.6.4.2.1.4.1.7.1.5 0 .8-.2 1.1-.5.3-.3.4-.8.4-1.3s-.1-1-.4-1.3c-.2-.3-.5-.5-1-.5zm5.6 4.3c-.5 0-.9-.1-1.2-.3-.4-.2-.6-.5-.8-.9-.2-.4-.3-.8-.3-1.2 0-.5.1-.9.3-1.3.2-.4.5-.7.8-.9.3-.2.7-.3 1.2-.3s1 .1 1.4.4l-.2.5c-.3-.2-.7-.3-1.1-.3-.3 0-.6.1-.9.2-.3.2-.4.4-.6.7-.1.3-.2.6-.2.9 0 .4.1.7.2 1 .1.3.3.5.6.6.3.1.5.2.9.2.2 0 .4 0 .6-.1.2 0 .4-.1.6-.2l.2.5c-.5.3-1 .5-1.5.5z"/></svg>