<svg xmlns="http://www.w3.org/2000/svg" viewBox="0 0 36 36" enable-background="new 0 0 36 36"><g fill="#0568ae"><path d="M23.767 16.902h-2.439c-.198 0-.36.162-.36.36v2.447c0 .198.162.36.36.36h2.439c.198 0 .36-.162.36-.36v-2.447c0-.198-.162-.36-.36-.36zM19.315 12.45h-2.439c-.198 0-.36.162-.36.36v2.446c0 .198.162.36.36.36h2.439c.198 0 .36-.162.36-.36v-2.446c0-.198-.162-.36-.36-.36zM19.315 16.902h-2.439c-.198 0-.36.162-.36.36v2.447c0 .198.162.36.36.36h2.439c.198 0 .36-.162.36-.36v-2.447c0-.198-.162-.36-.36-.36zM30.706 6.711h-25.412c-.99 0-1.8.81-1.8 1.8v15.481c0 .99.81 1.8 1.8 1.8h11.706v2.089h-4.761c-.552 0-1 .448-1 1s.448 1 1 1h11.522c.552 0 1-.448 1-1s-.448-1-1-1h-4.761v-2.089h11.706c.99 0 1.8-.81 1.8-1.8v-15.481c0-.99-.81-1.8-1.8-1.8zm-19.383 14.999h-4.562c-.414 0-.75-.336-.75-.75s.336-.75.75-.75h4.561c.414 0 .75.336.75.75s-.335.75-.749.75zm0-4.693h-4.562c-.414 0-.75-.336-.75-.75s.336-.75.75-.75h4.561c.414 0 .75.336.75.75.001.415-.335.75-.749.75zm0-4.695h-4.562c-.414 0-.75-.336-.75-.75s.336-.75.75-.75h4.561c.414 0 .75.336.75.75.001.414-.335.75-.749.75zm19.183 10.75c0 .396-.324.72-.72.72h-14.57c-.396 0-.72-.324-.72-.72v-13.641c0-.396.324-.72.72-.72h14.57c.396 0 .72.324.72.72v13.641zM23.767 12.45h-2.439c-.198 0-.36.162-.36.36v2.446c0 .198.162.36.36.36h2.439c.198 0 .36-.162.36-.36v-2.446c0-.198-.162-.36-.36-.36zM28.219 12.454h-2.447c-.198 0-.36.162-.36.36v2.439c0 .198.162.36.36.36h2.447c.198 0 .36-.162.36-.36v-2.439c0-.198-.162-.36-.36-.36zM28.219 16.906h-2.447c-.198 0-.36.162-.36.36v2.439c0 .198.162.36.36.36h2.447c.198 0 .36-.162.36-.36v-2.439c0-.198-.162-.36-.36-.36z"/></g></svg>