<svg xmlns="http://www.w3.org/2000/svg" viewBox="0 0 36 36" enable-background="new 0 0 36 36"><path d="M30.706 6.711h-25.412c-.99 0-1.8.81-1.8 1.8v15.481c0 .99.81 1.8 1.8 1.8h11.706v2.089h-4.761c-.552 0-1 .448-1 1s.448 1 1 1h11.522c.552 0 1-.448 1-1s-.448-1-1-1h-4.761v-2.089h11.706c.99 0 1.8-.81 1.8-1.8v-15.481c0-.99-.81-1.8-1.8-1.8zm-.2 16.361c0 .396-.324.72-.72.72h-23.572c-.396 0-.72-.324-.72-.72v-13.641c0-.396.324-.72.72-.72h23.572c.396 0 .72.324.72.72v13.641zm-1.322-5.271l-1.851 1.331-.456.328c-.149.107-.264.045-.263-.139v-.897h-4.416v3.367c0 .428-.347.775-.775.775-.428 0-.775-.347-.775-.775v-3.367h-13.141c-.428 0-.775-.347-.775-.775 0-.428.347-.775.775-.775h13.14v-4.331h-.898c-.184 0-.246-.123-.138-.271l.33-.455.693-.956.597-.822.049-.068c.081-.112.213-.111.294.001l1.331 1.851.328.456c.107.149.045.264-.139.263h-.897v4.331h4.416v-.898c0-.184.123-.246.271-.138l.455.33.956.693.822.597.068.049c.111.082.111.215-.001.295z" fill="#0568ae"/></svg>