<svg xmlns="http://www.w3.org/2000/svg" viewBox="0 0 36 36"><path fill="#0568ae" d="M30.7 6.7H5.3c-1 0-1.8.8-1.8 1.8V24c0 1 .8 1.8 1.8 1.8H17v2.1h-4.8c-.6 0-1 .4-1 1s.4 1 1 1h11.5c.6 0 1-.4 1-1s-.4-1-1-1H19v-2.1h11.7c1 0 1.8-.8 1.8-1.8V8.5c0-1-.8-1.8-1.8-1.8zm-.2 16.4c0 .4-.3.7-.7.7H6.2c-.4 0-.7-.3-.7-.7V9.4c0-.4.3-.7.7-.7h23.6c.4 0 .7.3.7.7v13.7zm-11-2.2c0 .4-.1.7-.4 1-.3.3-.6.4-1.1.4-.4 0-.8-.1-1-.4-.3-.3-.4-.6-.4-1s.1-.8.4-1c.3-.3.6-.4 1-.4s.8.1 1 .4c.3.3.5.6.5 1zm-.5-2.7h-2l-.3-7.9h2.7l-.4 7.9z"/></svg>