<svg xmlns="http://www.w3.org/2000/svg" viewBox="0 0 36 36" enable-background="new 0 0 36 36"><path d="M32.519 8.511v15.481c0 .99-.81 1.8-1.8 1.8h-11.706v2.089h4.761c.552 0 1 .448 1 1s-.448 1-1 1h-11.522c-.552 0-1-.448-1-1s.448-1 1-1h4.761v-2.089h-11.706c-.99 0-1.8-.81-1.8-1.8v-4.231h2v3.311c0 .396.324.72.72.72h23.571c.396 0 .72-.324.72-.72v-13.641c0-.396-.324-.72-.72-.72h-23.571c-.396 0-.72.324-.72.72v3.579h-2v-4.499c0-.99.81-1.8 1.8-1.8h25.411c.991 0 1.801.81 1.801 1.8zm-28.678 9.75h11.196l-.002 2.33c-.001.463.306.62.681.349l3.357-2.42 2.442-1.76c.282-.203.282-.535.001-.739l-.171-.123-5.62-4.067c-.375-.271-.682-.115-.682.348l-.002 2.331h-11.2c-.198 0-.36.162-.36.36v3.031c0 .198.162.36.36.36z" fill="#0568ae"/></svg>