<svg xmlns="http://www.w3.org/2000/svg" viewBox="0 0 36 36" enable-background="new 0 0 36 36"><path d="M8.585 14.519l-3.101 2.558c-.266.22-.579.338-.889.338l-.274-.031c-.394-.092-.726-.379-.91-.789l-1.652-3.662c-.085-.189-.001-.411.188-.496.189-.086.411-.001.496.188l1.652 3.663.117.183c.476-4.268 2.834-8.007 6.485-10.267 6.505-4.026 15.074-2.01 19.101 4.494.109.176.055.407-.122.516-.176.109-.407.054-.516-.121-3.81-6.155-11.915-8.062-18.069-4.253-3.447 2.134-5.676 5.662-6.131 9.691l.047-.032 3.102-2.559c.16-.132.396-.109.528.051.131.16.108.396-.052.528zm25.656 8.548l-1.653-3.662c-.184-.41-.516-.698-.91-.79-.394-.092-.819.021-1.163.307l-3.1 2.558c-.16.132-.182.368-.05.528.132.16.368.181.528.05l3.1-2.559.044-.031c-.453 3.978-2.719 7.58-6.128 9.69-2.981 1.845-6.502 2.419-9.914 1.616-3.413-.803-6.308-2.887-8.153-5.867-.109-.176-.341-.231-.516-.122-.176.109-.231.34-.122.516 1.95 3.151 5.011 5.354 8.619 6.203 1.065.25 2.138.374 3.205.374 2.549 0 5.055-.708 7.276-2.083 3.612-2.236 6.01-6.055 6.481-10.27l.12.186 1.653 3.663c.063.139.199.221.342.221l.154-.033c.189-.084.272-.306.187-.495zm-22.649-1.883v-2.47h-.146c-.501 0-.908-.408-.908-.909v-2.093c0-.501.407-.909.908-.909h.146c.006-.875.72-1.585 1.596-1.585h6.894c.88 0 1.596.716 1.596 1.596v1.032l2.218-1.423c.379-.242.772-.284 1.08-.116.309.169.485.523.485.971v5.438c0 .449-.177.803-.485.972-.309.168-.702.126-1.08-.117l-2.218-1.422v1.032c0 .88-.716 1.597-1.596 1.597h-6.894c-.88.003-1.596-.713-1.596-1.594zm.375-3.22c.207 0 .375.168.375.375v2.845c0 .467.38.847.846.847h6.894c.467 0 .846-.38.846-.847v-1.718c0-.137.075-.263.195-.329.12-.066.267-.06.382.013l2.796 1.792c.153.099.268.115.315.09.047-.026.095-.133.095-.313v-5.438c0-.181-.048-.287-.095-.313-.047-.026-.163-.008-.315.089l-2.796 1.793c-.116.075-.262.079-.382.014-.121-.066-.195-.192-.195-.329v-1.718c0-.467-.379-.846-.846-.846h-6.894c-.467 0-.846.38-.846.846v.364c0 .207-.168.375-.375.375h-.521c-.086 0-.158.073-.158.159v2.093c0 .086.072.159.158.159h.521zm1.94-1.777h3.134c.207 0 .375-.168.375-.375s-.168-.375-.375-.375h-3.134c-.207 0-.375.168-.375.375s.168.375.375.375z" fill="#0568ae"/></svg>