<svg xmlns="http://www.w3.org/2000/svg" viewBox="0 0 36 36" enable-background="new 0 0 36 36"><path d="M32.378 15.916c-.002.522-.269 1.024-.734 1.378l-4.511 3.431c-.068.052-.147.077-.227.077-.113 0-.225-.051-.299-.148-.125-.165-.094-.4.071-.525l4.511-3.431c.147-.112.258-.242.332-.381h-16.737c-.207 0-.375-.168-.375-.375s.168-.375.375-.375h16.761c-.072-.16-.187-.31-.352-.437l-4.496-3.45c-.164-.126-.195-.362-.069-.526.126-.164.361-.196.526-.069l4.496 3.45c.47.361.729.852.728 1.381zm-1.37-3.961c.207 0 .375-.168.375-.375v-4.414c0-.733-.598-1.33-1.334-1.33h-25.095c-.734 0-1.332.597-1.332 1.33v17.67c0 .734.598 1.331 1.332 1.331h12.174v2.339h-5.386c-.207 0-.375.168-.375.375s.168.375.375.375h11.522c.207 0 .375-.168.375-.375s-.168-.375-.375-.375h-5.386v-2.339h12.172c.735 0 1.334-.597 1.334-1.331v-4.661c0-.207-.168-.375-.375-.375s-.375.168-.375.375v4.661c0 .321-.262.581-.584.581h-25.096c-.321 0-.582-.261-.582-.581v-17.67c0-.32.261-.58.582-.58h25.096c.322 0 .584.26.584.58v4.414c-.001.207.167.375.374.375zm-2.087 9.427c-.207 0-.375.168-.375.375v1.202c0 .058-.048.107-.104.107h-19.939c-.207 0-.375.168-.375.375s.168.375.375.375h19.938c.471 0 .854-.384.854-.857v-1.202c.001-.207-.167-.375-.374-.375zm.375-12.533c0-.472-.383-.857-.854-.857h-21.875c-.471 0-.855.385-.855.857v9.343c0 .207.168.375.375.375s.375-.168.375-.375v-9.343c0-.059.047-.107.105-.107h21.875c.058 0 .104.048.104.107v1.465c0 .207.168.375.375.375s.375-.168.375-.375v-1.465z" fill="#0568ae"/></svg>