<svg xmlns="http://www.w3.org/2000/svg" viewBox="0 0 36 36" enable-background="new 0 0 36 36"><path d="M7.632 15.435l-2.528 3.485-.077.106c-.126.174-.332.174-.458-.001l-.9-1.251-1.69-2.349c-.167-.234-.069-.425.218-.424l1.627.003c.812-3.873 3.141-7.221 6.552-9.333 6.533-4.044 15.058-2.256 19.448 3.923l.319.471c.107.167.057.388-.112.492l-1.089.674c-.168.104-.394.054-.501-.113 0 0-.163-.252-.356-.515-3.815-5.205-11.078-6.684-16.657-3.231-2.819 1.745-4.78 4.471-5.554 7.636l1.541.003c.289.001.385.191.217.424zm26.389 5.141l-1.69-2.349-.9-1.251c-.126-.175-.332-.175-.458-.001l-.077.106-2.527 3.485c-.168.232-.072.423.215.424l1.542.003c-.773 3.165-2.734 5.891-5.554 7.636-5.579 3.453-12.842 1.974-16.657-3.231-.193-.263-.356-.515-.356-.515-.107-.166-.333-.217-.501-.113l-1.088.674c-.17.103-.22.325-.113.491l.319.471c4.39 6.179 12.914 7.967 19.448 3.923 3.411-2.111 5.741-5.46 6.552-9.333l1.627.003c.287.001.385-.19.218-.423zm-22.054.608v-2.845h-.521c-.293 0-.534-.24-.534-.534v-2.093c0-.293.24-.534.534-.534h.521v-.364c0-.672.549-1.221 1.221-1.221h6.894c.672 0 1.222.55 1.222 1.221v1.718l2.796-1.793c.543-.348.987-.105.987.54v5.438c0 .645-.444.888-.987.54l-2.796-1.793v1.718c0 .672-.55 1.221-1.222 1.221h-6.894c-.671.003-1.221-.547-1.221-1.219zm1.553-4.698c0 .213.174.386.387.386h3.135c.212 0 .386-.174.386-.386v-.92c0-.212-.174-.386-.386-.386h-3.135c-.213 0-.387.174-.387.386v.92z" fill="#0568ae"/></svg>