<svg xmlns="http://www.w3.org/2000/svg" viewBox="0 0 36 36" enable-background="new 0 0 36 36"><path d="M32.506 18.916v5.076c0 .99-.81 1.8-1.8 1.8h-11.706v2.089h4.761c.552 0 1 .448 1 1s-.448 1-1 1h-11.522c-.552 0-1-.448-1-1s.448-1 1-1h4.761v-2.089h-11.706c-.99 0-1.8-.81-1.8-1.8v-15.481c0-.99.81-1.8 1.8-1.8h25.411c.99 0 1.8.81 1.8 1.8v5.35l-2-1.447v-2.983c0-.396-.324-.72-.72-.72h-23.571c-.396 0-.72.324-.72.72v13.641c0 .396.324.72.72.72h23.571c.396 0 .72-.324.72-.72v-2.714l.862-.621 1.139-.821zm.45-2.182c.186-.151.235-.361.135-.54-.035-.063-.088-.122-.158-.173l-.171-.123-5.62-4.067-.163-.091-.045-.015-.109-.022-.026-.005-.014.003-.124.029-.096.084-.022.034-.046.101-.014.046-.022.185-.002 2.331h-11.127l-.14.029c-.129.055-.22.183-.22.332v3.031c0 .198.162.36.36.36h11.122l-.002 2.33.022.186.014.045.046.101.022.034.096.084.002.001.122.028.014.003.027-.005.108-.022.045-.015.026-.009.137-.082 3.357-2.42 2.442-1.76.024-.028z" fill="#0568ae"/></svg>