<svg xmlns="http://www.w3.org/2000/svg" viewBox="0 0 36 36" enable-background="new 0 0 36 36"><path d="M32.374 7.166v17.669c0 .734-.598 1.331-1.333 1.331h-12.172v2.339h5.386c.207 0 .375.168.375.375s-.168.375-.375.375h-11.522c-.207 0-.375-.168-.375-.375s.168-.375.375-.375h5.386v-2.339h-12.174c-.734 0-1.332-.597-1.332-1.331v-5.749c0-.207.168-.375.375-.375s.375.168.375.375v5.749c0 .321.261.581.582.581h25.095c.322 0 .583-.261.583-.581v-17.669c0-.32-.262-.58-.583-.58h-25.095c-.321 0-.582.26-.582.58v5.453c0 .207-.168.375-.375.375s-.375-.168-.375-.375v-5.453c0-.733.598-1.33 1.332-1.33h25.095c.736 0 1.334.597 1.334 1.33zm-11.507 7.369l-4.497-3.45c-.165-.126-.399-.095-.526.069-.126.164-.095.4.069.526l4.497 3.45c.165.127.28.277.352.436h-16.761c-.207 0-.375.168-.375.375s.168.375.375.375h16.738c-.074.139-.185.269-.332.381l-4.511 3.431c-.165.125-.197.36-.072.525.074.097.186.148.299.148.079 0 .159-.025.227-.077l4.511-3.431c.465-.354.733-.857.734-1.379.001-.527-.258-1.018-.728-1.379zm9.42 8.424v-14.11c0-.472-.383-.857-.854-.857h-21.875c-.471 0-.855.384-.855.857v3.77c0 .207.168.375.375.375s.375-.168.375-.375v-3.77c0-.059.047-.107.105-.107h21.875c.058 0 .104.048.104.107v14.11c0 .058-.048.107-.104.107h-19.939c-.207 0-.375.168-.375.375s.168.375.375.375h19.939c.471 0 .854-.384.854-.857z" fill="#0568ae"/></svg>