<svg xmlns="http://www.w3.org/2000/svg" viewBox="0 0 36 36"><path fill="none" d="M0 0h36v36H0z"/><path fill="#0568ae" d="M28.9 23.8H9c-.2 0-.4-.2-.4-.4s.2-.4.4-.4h19.9c.1 0 .1 0 .1-.1V8.8c0-.1 0-.1-.1-.1H7.1c-.1 0-.1.1-.1.1v9.3c0 .2-.2.4-.4.4s-.4-.2-.4-.4V8.8c0-.4.4-.8.9-.8H29c.5 0 .9.4.9.9V23c-.1.4-.5.8-1 .8zm3-16.6v17.7c0 .7-.6 1.3-1.3 1.3H18.4v2.3h5.4c.2 0 .4.2.4.4s-.2.4-.4.4H12.2c-.2 0-.4-.2-.4-.4s.2-.4.4-.4h5.4v-2.3H5.5c-.7 0-1.3-.6-1.3-1.3V7.2c0-.7.6-1.3 1.3-1.3h25.1c.7-.1 1.3.5 1.3 1.3zm-.8 0c0-.3-.3-.6-.6-.6h-25c-.3 0-.6.3-.6.6v17.7c0 .3.3.6.6.6h25.1c.3 0 .6-.3.6-.6V7.2zM15 20.6l7.2-3.8c.2-.1.4-.3.5-.6.1-.2.1-.5-.1-.8-.1-.2-.2-.3-.4-.4L15 11.3c-.3-.2-.7-.1-.9 0-.3.2-.5.5-.5.8v7.6c0 .3.2.7.5.8.2.1.3.1.5.1.1.1.2.1.4 0zm-.4-8.6l7.2 3.8s.1 0 .1.1v.2c0 .1-.1.1-.1.1L14.6 20h-.2c-.1 0-.1-.1-.1-.2v-7.6c0-.1 0-.1.1-.2h.2z"/></svg>