<svg xmlns="http://www.w3.org/2000/svg" viewBox="0 0 36 36" enable-background="new 0 0 36 36"><path d="M30.706 6.711h-25.412c-.99 0-1.8.81-1.8 1.8v15.481c0 .99.81 1.8 1.8 1.8h11.706v2.089h-4.761c-.552 0-1 .448-1 1s.448 1 1 1h11.523c.552 0 1-.448 1-1s-.448-1-1-1h-4.762v-2.089h11.706c.99 0 1.8-.81 1.8-1.8v-15.481c0-.99-.81-1.8-1.8-1.8zm-.2 16.361c0 .396-.324.72-.72.72h-23.572c-.396 0-.72-.324-.72-.72v-13.641c0-.396.324-.72.72-.72h23.571c.396 0 .72.324.72.72v13.641zm-16.398-10.478c-.005-.211.105-.401.283-.505.175-.113.393-.117.58-.02l7.212 3.776c.108.052.196.139.256.247.153.292.043.651-.249.801l-7.216 3.785c-.185.1-.4.088-.58-.017-.177-.105-.285-.296-.287-.505v-7.562z" fill="#0568ae"/></svg>