<svg xmlns="http://www.w3.org/2000/svg" viewBox="0 0 36 36" enable-background="new 0 0 36 36"><path d="M10.242 6.531l-4.46 4.469h-1.672c-.198 0-.36-.162-.36-.36v-1.919c.001-1.208.983-2.19 2.191-2.19h4.301zm4.076-.001l-4.461 4.47h4.088l4.46-4.47h-4.087zm17.29.641c-.284-.284-.634-.473-1.013-.569l-4.387 4.396h5.6819999999999995c.198 0 .36-.162.36-.36v-1.919c.001-.584-.227-1.133-.642-1.548zm-9.114-.641l-4.461 4.47h4.088l4.46-4.47h-4.087zm9.756 6.331v11.979c0 1.188-.972 2.16-2.16 2.16h-24.18c-1.188 0-2.16-.972-2.16-2.16v-11.979c0-.198.162-.36.36-.36h27.781c.197-.001.359.162.359.36zm-9.882 4.195c.093.093.215.14.338.14.122 0 .245-.047.338-.14l.742-.742c.187-.187.187-.49 0-.676-.187-.187-.489-.187-.676 0l-.742.742c-.187.187-.187.49 0 .676zm-2.745-1.393c0 .264.214.478.479.478s.479-.214.479-.478v-1.049c0-.264-.214-.478-.479-.478s-.479.214-.479.478v1.049zm-3.19.692l.742.742c.093.093.216.14.338.14.122 0 .245-.047.338-.14.187-.187.187-.49 0-.676l-.742-.742c-.187-.187-.49-.187-.676 0-.187.187-.187.49 0 .676zm4.417 6.836c0-.832-.605-1.521-1.399-1.655l.008-.11c0-.905-.734-1.639-1.64-1.639l-.292.027c-.354-.979-1.291-1.679-2.391-1.679-1.323 0-2.41 1.009-2.534 2.299-1.022.137-1.825.963-1.922 1.996l-.011.182.001.015-.001.015c0 1.231.999 2.23 2.23 2.23h6.269c.929 0 1.682-.753 1.682-1.681zm1.896-3.856c0-1.445-1.171-2.616-2.616-2.616-.884 0-1.661.441-2.135 1.112.16.16.312.33.444.516 1.119.225 2.024 1.046 2.37 2.117.382.229.705.537.958.896.592-.479.979-1.203.979-2.025zm1.081 2.98l-.742-.742c-.187-.187-.49-.187-.676 0-.187.187-.187.49 0 .676l.742.742c.093.093.216.14.338.14.122 0 .245-.047.338-.14.187-.186.187-.489 0-.676zm1.503-3.009c0-.264-.214-.478-.478-.478h-1.049c-.264 0-.479.214-.479.478s.214.478.479.478h1.049c.264.001.478-.214.478-.478z" fill="#0568ae"/></svg>