<svg xmlns="http://www.w3.org/2000/svg" viewBox="0 0 36 36">
  <path fill="#0568ae" d="M27.657 24.355l.02.26c0 1.02-1.737 1.844-3.905 1.844-.818 0-1.576-.118-2.203-.32-1.034-.33-1.71-.89-1.71-1.525l.03-.26.093-.543c.11-.612.285-1.465.5-2.138.083-.26.172-.495.265-.68l.12-.203c.3-.414.916-.747 1.69-.922l.04-.01-.058-.043c-.415-.284-.73-.704-.874-1.197-.056-.194-.09-.4-.09-.613 0-1.212.984-2.192 2.195-2.192 1.213 0 2.196.98 2.196 2.192 0 .21-.03.41-.086.6-.145.51-.47.943-.9 1.228l-.035.025.023.005c.908.202 1.6.62 1.83 1.133.335.656.612 1.966.764 2.815l.095.545zM32.85 7.48l-3.746-3.747c-.353-.353-.995-.62-1.494-.62H12.026c-.998 0-1.81.792-1.81 1.763v13.306l2.376-3.275v-8.92c0-.274.225-.5.5-.5h13.863v3.765c0 .207.168.375.375.375h3.764v19.05c0 .276-.226.5-.5.5h-17.5c-.276 0-.5-.224-.5-.5v-2.066c-.59.544-1.354.855-2.168.855l-.208-.012v2.338c0 .973.81 1.763 1.81 1.763H31.66c.996 0 1.806-.79 1.806-1.762V8.973c0-.498-.266-1.14-.618-1.493zM20.408 8.92c-.59-.396-1.448-.24-1.862.33l-8.332 11.49-4.657-4.2c-.51-.46-1.345-.45-1.845.02-.512.48-.57 1.29-.133 1.838l5.48 6.888c.34.43.838.677 1.364.677.594 0 1.144-.314 1.47-.84l8.91-14.355c.39-.626.216-1.438-.396-1.848z"/>
</svg>
