<svg xmlns="http://www.w3.org/2000/svg" viewBox="0 0 36 36">
  <path fill="#0568ae" d="M9.454 10.832c-.36.23-.778.352-1.204.352-.774 0-1.487-.39-1.9-1.043-.322-.506-.43-1.108-.298-1.694.13-.587.482-1.087.988-1.41.36-.23.78-.352 1.205-.352.775 0 1.485.39 1.9 1.043.665 1.046.356 2.44-.69 3.105zm22.453 3.65H29.67l-1.37-4.42c-.065-.21-.268-.353-.48-.35-.222 0-.415.148-.477.36l-2.403 8.332-2.51-9.18c-.057-.208-.243-.357-.46-.367-.213-.003-.415.122-.49.325l-1.984 5.338h-.004v.03h-6.79c-.277 0-.5-.224-.5-.5s.223-.5.5-.5h5.926l-1.7-2.338c-.184-.255-.593-.463-.907-.463h-3.766c-.315 0-.8.12-1.078.266l-2.263 1.197c-.278.147-.648.482-.822.744l-1.02 1.548c-.176.26-.577.475-.892.475H3.97c-.67 0-1.21.54-1.21 1.208 0 .663.54 1.207 1.21 1.207h3.487c.315 0 .717-.213.894-.473l.83-1.218c.177-.26.464-.258.637.004l1.56 2.36c.172.262.13.655-.097.874L8.505 21.63c-.226.218-.42.654-.428.97l-.153 5.064c-.027.832.63 1.53 1.465 1.555.832.025 1.526-.63 1.556-1.462l.11-3.718c.008-.315.197-.755.418-.98l1.66-1.658c.162-.162.413-.12.54.138.15.224.275.665.28.98l.032 2.52c.004.316.257.636.562.713l5.388 1.36c.807.203 1.63-.286 1.834-1.093.03-.124.043-.25.043-.37 0-.678-.45-1.293-1.14-1.465l-3.166-.794c-.305-.075-.555-.396-.555-.71v-3.007c0-.596-.036-1.087-.19-1.57l-.07-.222c-.097-.247-.23-.497-.416-.76-.102-.148-.568-.858-1.05-1.598h4.62c.21 0 .396-.13.47-.326l1.562-4.208 2.57 9.397c.06.216.255.367.48.368h.002c.223 0 .42-.147.48-.36l2.434-8.437.984 3.176c.065.21.258.352.477.352h2.604c.275 0 .5-.224.5-.5-.003-.277-.227-.5-.503-.5z"/>
</svg>
