<svg xmlns="http://www.w3.org/2000/svg" viewBox="0 0 36 36">
  <path fill="#0568ae" d="M18.622 14.836c-.116 0-.23-.054-.304-.155l-2.073-2.852H11.8c-.208 0-.376-.168-.376-.375s.168-.375.375-.375h4.636c.12 0 .233.057.304.155l2.185 3.008c.122.17.085.403-.083.525-.067.048-.144.07-.22.07zm-4.248-.054c.174-.113.223-.345.11-.52l-.1-.15h.697l.41.563c.123.168.357.206.525.083.167-.122.205-.356.083-.524l-.522-.72c-.07-.096-.183-.153-.303-.153h-1.578c-.137 0-.264.076-.33.197-.066.12-.06.268.015.383l.475.732c.072.11.192.17.315.17.07 0 .14-.02.204-.06zM9.67 11.34c.563-.358.952-.914 1.098-1.567.145-.652.028-1.32-.33-1.884C9.98 7.164 9.19 6.73 8.33 6.73c-.476 0-.94.135-1.342.39-.562.358-.95.915-1.097 1.566-.145.65-.027 1.318.33 1.883.46.727 1.25 1.16 2.113 1.16.474 0 .936-.135 1.337-.39zm.136-3.048c.25.393.332.862.23 1.318-.102.457-.374.846-.768 1.096-.28.18-.604.273-.935.273-.604 0-1.157-.304-1.478-.81-.25-.396-.334-.864-.232-1.32.102-.455.375-.845.768-1.095.282-.18.606-.273.94-.273.6 0 1.153.303 1.476.81zm22.854 7.193l-2.833-.015-1.17-3.762c-.048-.158-.18-.27-.36-.264-.167.002-.312.113-.357.272l-2.238 7.848-2.61-9.79c-.043-.16-.185-.273-.35-.278-.167-.01-.315.1-.368.256l-1.92 5.733h-8.192c-.207 0-.375.168-.375.375s.168.375.375.375h2.583l.983 1.45c.15.21.265.42.346.626l.063.2c.134.42.16.852.16 1.368v3.38c0 .17.118.32.285.363l3.514.88c.466.118.79.537.79 1.02l-.027.26c-.144.56-.717.903-1.278.76l-5.332-1.346-.04-3.173c-.002-.07-.024-.14-.063-.2l-.51-.772c-.062-.094-.163-.155-.275-.166-.084-.01-.168.012-.238.057l-.066.05c-.385.38-.833.836-1.228 1.237-.433.44-.842.857-.95.948-.082.07-.13.168-.133.275l-.12 4.05c-.02.58-.49 1.047-1.083 1.017-.28-.008-.54-.125-.734-.33-.193-.205-.294-.472-.285-.752l.156-5.17 3.29-3.183c.13-.125.152-.326.052-.476l-2.07-3.128c-.068-.104-.184-.167-.31-.168-.125 0-.24.06-.31.164l-1.28 1.88H4.518c-.424 0-.77-.343-.77-.765s.346-.766.77-.766h2.625c.125 0 .24-.062.31-.165.053-.078 1.268-1.883 1.573-2.37.11-.175.056-.407-.12-.517-.175-.11-.406-.056-.516.12-.245.39-1.133 1.713-1.447 2.18H4.517c-.837 0-1.52.68-1.52 1.516 0 .834.682 1.514 1.52 1.514H8.35c.124 0 .24-.06.31-.164l1.075-1.582 1.59 2.403-3.176 3.073c-.07.068-.112.16-.115.258l-.16 5.323c-.015.48.158.938.49 1.29.33.35.777.55 1.256.565h.058c.964 0 1.765-.77 1.798-1.744l.115-3.893c.17-.162.455-.45.874-.876l.9-.91.196.298.044 3.35c.002.17.118.318.283.36l5.612 1.416c.96.242 1.94-.34 2.186-1.303.035-.137.052-.28.052-.442 0-.83-.56-1.547-1.36-1.747l-3.23-.81V19.88c0-.507-.024-1.052-.193-1.584l-.08-.246c-.108-.275-.25-.535-.43-.79l-.694-1.023h4.974c.16 0 .304-.103.356-.256l1.608-4.804 2.638 9.897c.043.163.19.277.36.278h.002c.167 0 .314-.11.36-.27l2.267-7.946.877 2.822c.048.156.192.263.356.264l3.108.017c.208 0 .376-.167.376-.373.002-.21-.165-.378-.372-.38z"/>
</svg>
