<svg xmlns="http://www.w3.org/2000/svg" viewBox="0 0 36 36">
  <path fill="#0568ae" d="M13.377 25.295c-.004-.304.07-.633.205-.96H11.11c-.175 0-.318-.142-.318-.317v-3.38c0-.174.143-.317.318-.317h3.514c.175 0 .318.144.318.32v2.033c.42-.283.89-.473 1.39-.565v-1.28l-1.39-2.978v.758c0 .175-.143.318-.318.318H11.11c-.175 0-.318-.143-.318-.318v-3.38c0-.174.143-.317.318-.317h3.394c.256-.746.802-1.393 1.573-1.753l.255-.103V9.82c0-.175.143-.318.318-.318h3.515c.175 0 .318.143.318.318v3.38c0 .174-.143.317-.318.317h-.96c.368.287.675.654.88 1.09l.147.318c.142.032.25.153.25.304v.233l1.32 2.83.07-.03V15.23c0-.176.143-.32.318-.32h3.515c.175 0 .318.144.318.32v2.19l.06-.002c.62 0 1.215.198 1.71.54V5.882c0-.525-.428-.954-.953-.954h-3.013V3.664c0-.716-.596-1.294-1.32-1.262-.69.03-1.206.654-1.206 1.344v1.18H9.98V3.665c0-.716-.595-1.294-1.32-1.262-.69.03-1.205.653-1.205 1.344v1.18H4.442c-.525 0-.954.43-.954.955v19.287c0 .525.43.954.954.954h9.147c-.128-.227-.21-.496-.213-.825zM25.703 9.502c.175 0 .318.143.318.318v3.38c0 .174-.142.317-.317.317h-3.515c-.175 0-.318-.143-.318-.318V9.82c0-.175.143-.318.318-.318h3.515zM23.825 6.19c0 .716-.596 1.294-1.32 1.262-.69-.03-1.206-.572-1.206-1.262h2.525zM9.403 24.017c0 .175-.143.318-.318.318H5.57c-.175 0-.318-.143-.318-.318v-3.38c0-.174.143-.317.318-.317h3.515c.175 0 .318.143.318.318v3.38zm0-5.41c0 .176-.143.32-.318.32H5.57c-.175 0-.318-.144-.318-.32V15.23c0-.176.143-.32.318-.32h3.515c.175 0 .318.144.318.32v3.378zM8.66 7.453c-.69-.03-1.205-.572-1.205-1.262H9.98c0 .717-.595 1.294-1.32 1.262zm21.974 12.502l2.033 4.36c1.122 2.406-.573 5.52-3.476 6.88-1.908.893-3.972.873-5.537.087-.497-.24-1.784-1.088-3.43-2.648-2.953-2.8-5.338-2.717-5.346-3.356-.008-.635 1.386-2.942 4.33-.924.217.15.41.29.614.41l-3.842-8.24c-.354-.758-.024-1.653.732-2.007.758-.354 1.66-.03 2.013.726l2.89 6.196c-.2-.703.142-1.467.823-1.786.76-.357 1.656-.03 2.013.727l.14.297c-.11-.65.222-1.318.847-1.612.76-.356 1.66-.03 2.016.727l.372.79c0-.554.312-1.083.848-1.334.738-.346 1.613-.03 1.96.708z"/>
</svg>
