<svg xmlns="http://www.w3.org/2000/svg" viewBox="0 0 36 36">
  <path fill="#0568ae" d="M21.287 13.85H8.713c-.414 0-.75-.337-.75-.75s.336-.75.75-.75h12.575c.414 0 .75.335.75.75 0 .413-.336.75-.75.75zm-6.555 3.044c0-.414-.336-.75-.75-.75h-5.27c-.414 0-.75.336-.75.75s.336.75.75.75h5.27c.415 0 .75-.336.75-.75zM29.71 21.28c-.537.252-.848.78-.85 1.336l-.37-.792c-.358-.756-1.255-1.083-2.017-.727-.625.294-.956.963-.847 1.612l-.14-.298c-.358-.76-1.255-1.084-2.014-.727-.68.32-1.024 1.083-.824 1.786l-2.89-6.194c-.35-.756-1.254-1.08-2.012-.726-.757.354-1.086 1.25-.732 2.006l3.843 8.24c-.206-.12-.398-.26-.615-.41-2.943-2.017-4.337.29-4.33.925.01.64 2.395.56 5.347 3.358 1.645 1.56 2.932 2.407 3.43 2.65 1.565.785 3.628.805 5.537-.09 2.903-1.36 4.598-4.472 3.475-6.88L31.67 21.99c-.35-.74-1.223-1.055-1.96-.71zM16.32 29.33l-.367-.15H6.25c-.275 0-.5-.226-.5-.5V5.99c0-.276.224-.5.5-.5H20.11v3.763c0 .207.168.375.375.375h3.764v10.425c.3.014.592.064.868.162.212-.19.453-.35.72-.475.252-.12.517-.196.787-.24V8.972c0-.5-.265-1.14-.618-1.494L22.26 3.732c-.352-.353-.994-.62-1.493-.62H5.184c-.998 0-1.81.792-1.81 1.763l.002 24.916c0 .972.81 1.762 1.81 1.762H20c-1.51-1.362-2.807-1.882-3.678-2.225z"/>
</svg>
