<svg xmlns="http://www.w3.org/2000/svg" viewBox="0 0 36 36">
  <path fill="#0568ae" d="M17.837 14.48c0 .706-.572 1.278-1.277 1.278-.706 0-1.277-.572-1.277-1.277s.572-1.276 1.277-1.276c.706 0 1.277.572 1.277 1.277zm10.52 6.162c-.025.01-.43.183-.704.38l-.095.086c-.025.14-.04.27-.043.402.025.107.063.198.108.256.106.14.21.41.186.673l-.012.107-.02.065h.002c-.04.158-.156.333-.347.518.063.272.1.666-.25 1.062-.093.16-.267.345-.42.51l-.047.052c.077 1.003.172 2.355-.727 2.943-.42.274-.95.396-1.722.396-.336 0-.693-.024-1.05-.047-.338-.02-.68-.045-1.007-.045-.583 0-.99.078-1.283.244-.49.282-.673 1.79-.67 3.176 0 .223-.185.653-.657.653H9.67c-.634 0-.682-.46-.644-.68 1.173-6.637.366-8.83-1.43-11.19-2.13-2.8-2.33-8.353.43-12.1 2.005-2.722 5.59-4.364 9.5-4.16 5.666.29 9.168 3.64 9.557 8.658.042.553-.01 1.122-.06 1.676-.074.802-.142 1.56.1 2.08.153.33.414.68.688 1.057l.19.252.233.303c.308.392.66.836.748 1.212.192.814-.32 1.313-.623 1.462zm-17.998-5.49l1.294-1.692.32-.417c.103-.136.048-.252-.124-.257l-.812-.022c.423-1.352 1.327-2.527 2.56-3.26 2.57-1.53 5.853-.835 7.602 1.51l.245.36c.05.08.16.106.242.057l.946-.562c.082-.05.108-.155.057-.236l-.26-.39c-2.17-3.007-6.328-3.914-9.573-1.984-1.66.987-2.843 2.612-3.312 4.464l-.82-.022c-.17-.005-.232.108-.136.25l.294.434.62.912.535.785.043.066c.074.105.198.11.276.006zm8.622-.89c.227-.11.442-.235.627-.367.043-.032.064-.087.052-.14-.034-.15-.08-.3-.143-.457-.02-.048-.066-.082-.118-.085-.25-.016-.5-.007-.753.026l-.004-.007-.118-.178-.137-.174c.11-.203.205-.417.292-.664.02-.053.002-.112-.04-.148-.142-.12-.264-.21-.385-.284l-.143.002c-.215.136-.414.29-.592.46l-.15-.057-.063-.024-.21-.057c-.033-.246-.087-.49-.156-.71-.017-.054-.065-.092-.12-.096-.158-.012-.317-.016-.475-.003-.053.005-.098.038-.116.086-.09.22-.16.468-.208.722l-.222.06-.056.02-.144.055c-.167-.175-.35-.337-.543-.48-.042-.032-.1-.035-.148-.01-.132.076-.25.168-.366.257l-.023.018c-.043.033-.062.09-.047.143.072.268.155.495.257.707l-.134.168-.126.186v.004c-.236-.043-.48-.067-.725-.072-.06-.003-.11.035-.13.088l-.013.03c-.05.135-.104.274-.137.422-.01.05.007.1.046.134.187.156.396.297.623.42l-.007.113-.005.12.005.1.006.11c-.228.108-.443.234-.628.366-.045.032-.066.088-.054.14.033.15.08.3.143.457.02.05.067.082.12.086.248.015.5.005.75-.027l.004.007.118.177.137.173c-.11.202-.204.416-.29.665-.02.053-.003.112.04.148.142.12.264.21.384.284l.143-.002c.215-.137.413-.292.592-.46l.15.056.063.024.207.056c.034.243.088.487.157.71.016.052.064.09.12.094l.27.01.205-.007c.05-.004.095-.037.115-.085.09-.22.16-.468.208-.72l.22-.062.055-.02.146-.055c.167.176.35.337.544.48.043.033.1.037.148.01.134-.077.254-.17.388-.274.044-.033.063-.09.048-.142-.073-.266-.155-.493-.257-.705l.134-.17.126-.186v-.002c.235.043.48.067.726.07.06 0 .118-.056.138-.11.052-.136.105-.278.14-.43.01-.048-.007-.1-.047-.133-.187-.156-.396-.297-.62-.42l.004-.112.005-.123-.005-.1-.005-.105zm5.55 1.75l-.296-.433-.622-.913-.534-.785-.044-.064c-.073-.107-.196-.11-.274-.008l-1.295 1.693-.32.417c-.104.136-.048.252.123.257l.812.022c-.423 1.35-1.327 2.526-2.56 3.26-2.57 1.528-5.853.834-7.603-1.51l-.246-.36c-.05-.08-.16-.107-.242-.058l-.946.563c-.082.05-.108.155-.057.236l.26.392c2.168 3.006 6.327 3.913 9.572 1.983 1.66-.987 2.844-2.612 3.312-4.464l.82.024c.172.004.234-.11.137-.25z"/>
</svg>
