<svg xmlns="http://www.w3.org/2000/svg" viewBox="0 0 36 36">
  <path fill="#0568ae" d="M8.174 24.005c-.207 0-.375-.168-.375-.375V6.245c0-1 .813-1.814 1.813-1.814h6.43c1 0 1.813.815 1.813 1.815V16.88c0 .208-.168.376-.375.376s-.374-.168-.374-.375V6.246c0-.587-.478-1.064-1.064-1.064h-6.43c-.586 0-1.063.48-1.063 1.065V23.63c0 .207-.17.375-.376.375zm16.894 7.06c-1.008.472-2.08.708-3.12.708-.972 0-1.914-.208-2.746-.625-.5-.242-1.806-1.088-3.52-2.71-1.766-1.675-3.332-2.29-4.267-2.66-.717-.28-1.19-.467-1.196-.965-.007-.467.442-1.358 1.298-1.816.64-.343 1.68-.545 3.124.27l-2.316-4.94c-1.653-.245-2.927-1.67-2.927-3.388 0-1.89 1.537-3.43 3.427-3.43s3.43 1.54 3.43 3.43c0 .652-.19 1.26-.508 1.78l1.38 2.943c.19-.35.487-.643.865-.82.457-.214.97-.238 1.444-.067.243.088.462.223.647.396.182-.393.498-.724.91-.917.917-.43 2.014-.055 2.48.838.183-.28.442-.508.755-.654.92-.433 2.024-.035 2.458.886l2.034 4.36c1.175 2.52-.5 5.898-3.656 7.378zm-13.155-13.62l-.234-.5c-.215-.458-.237-.97-.064-1.443.173-.472.52-.85.976-1.063.457-.215.97-.238 1.444-.068.475.17.854.517 1.067.974l.236.502c.105-.283.165-.59.165-.91 0-1.476-1.202-2.678-2.68-2.678-1.476 0-2.677 1.2-2.677 2.678 0 1.154.74 2.13 1.765 2.506zm16.132 6.558l-2.033-4.36c-.258-.546-.915-.782-1.462-.526-.39.182-.63.563-.63.996 0 .175-.123.327-.294.366-.172.036-.347-.05-.42-.208l-.373-.792c-.268-.568-.95-.813-1.517-.547-.458.215-.72.713-.637 1.21.03.185-.08.364-.258.42-.18.055-.372-.028-.452-.197l-.14-.297c-.13-.28-.36-.488-.646-.59-.286-.104-.594-.09-.87.04-.506.238-.773.815-.623 1.345.054.188-.046.385-.228.454-.184.067-.387-.016-.47-.192l-2.567-5.463c-.128-.275-.356-.483-.642-.586-.286-.104-.596-.09-.873.04-.276.13-.485.356-.59.64-.103.285-.09.593.04.867l.463.99.163.346 2.894 6.173c.07.15.034.326-.087.436-.122.11-.3.13-.443.046-.178-.105-.346-.222-.528-.35l-.11-.076c-1.1-.753-2.082-.94-2.84-.534-.587.314-.86.89-.897 1.1.107.083.43.21.717.323.986.39 2.636 1.038 4.508 2.813 1.65 1.563 2.904 2.374 3.336 2.583 1.52.762 3.467.728 5.215-.09 2.79-1.308 4.298-4.23 3.295-6.383z"/>
</svg>
