<svg xmlns="http://www.w3.org/2000/svg" viewBox="0 0 36 36">
  <path fill="#0568ae" d="M10.547 28.295h-1.23c-1.976 0-3.583-1.608-3.583-3.584V5.59c0-1.976 1.608-3.584 3.583-3.584h7.07c1.977 0 3.584 1.608 3.584 3.584v14.3l-.152-.012c-.444 0-.875.096-1.28.286l-.567-1.215V5.587c0-.87-.712-1.583-1.583-1.583h-7.07c-.87 0-1.583.713-1.583 1.584V24.71c0 .872.712 1.585 1.583 1.585h.965c-.11.297-.17.593-.168.87.007.488.18.85.433 1.13zm.71-11.574c.276-.752.83-1.353 1.557-1.693.404-.19.834-.285 1.278-.285.79 0 1.534.32 2.087.85.018-.145.032-.292.032-.443 0-1.856-1.504-3.36-3.36-3.36-1.853 0-3.357 1.505-3.357 3.36 0 1.205.638 2.26 1.592 2.85-.036-.427.018-.862.17-1.28zm16.115 5.103c-.253-.534-.78-.847-1.334-.847-.21 0-.424.045-.627.14-.535.25-.846.78-.846 1.335l-.372-.79c-.26-.55-.802-.872-1.372-.872-.215 0-.435.046-.644.144-.625.295-.956.963-.847 1.613l-.142-.297c-.258-.55-.8-.872-1.37-.872-.214 0-.434.047-.643.145-.68.32-1.024 1.083-.824 1.787l-2.887-6.195c-.256-.548-.8-.87-1.37-.87-.216 0-.435.047-.643.144-.757.354-1.086 1.248-.733 2.006l3.843 8.24c-.205-.12-.398-.26-.615-.41-.862-.59-1.59-.81-2.19-.81-1.45 0-2.145 1.285-2.14 1.734.01.64 2.395.558 5.347 3.357 1.646 1.56 2.932 2.408 3.43 2.65.767.384 1.654.585 2.583.585.968 0 1.982-.218 2.956-.675 2.904-1.36 4.6-4.473 3.476-6.88l-2.034-4.36z"/>
</svg>
