<svg xmlns="http://www.w3.org/2000/svg" viewBox="0 0 36 36">
  <path fill="#0568ae" d="M27.406 18.785c.89-.326 1.53-1.175 1.53-2.18 0-1.287-1.04-2.33-2.324-2.33h-4.437v.002H19.22l.043-.108c.417-.88 2.883-4.883 2.616-7.526-.262-2.606-2.48-3.838-3.12-3.665-1.676.453-.602 3.776-2.61 6.532-1.967 2.694-4.602 5.346-5.25 5.947-.915.848-3.837 3.432-3.837 7.988 0 4.225 2.097 8.617 6.05 8.57h10.02c1.284 0 2.324-1.044 2.324-2.33 0-.88-.492-1.636-1.21-2.032h1.13c1.282 0 2.322-1.043 2.322-2.33 0-.88-.493-1.635-1.21-2.03h.123c1.283 0 2.323-1.044 2.323-2.33 0-1.006-.64-1.855-1.53-2.18z"/>
</svg>
