<svg xmlns="http://www.w3.org/2000/svg" viewBox="0 0 36 36">
  <path fill="#0568ae" d="M29.05 20.877c.01-.758-.288-1.534-.777-2.025l-.17-.144c.567-.456.947-1.242.947-1.932 0-.688-.33-1.423-.88-1.967-.595-.587-1.402-.908-2.277-.908h-6.827l.092-.17c.836-1.55 2.574-4.777 2.336-7.126-.204-2.042-1.48-3.126-2.018-3.498-.598-.412-1.187-.597-1.573-.492-1.076.292-1.25 1.42-1.455 2.723-.184 1.18-.413 2.65-1.358 3.95-1.992 2.728-4.63 5.434-5.183 5.876l-.086.11c-.985.79-1.815 1.834-2.404 3.03-.68 1.366-1.052 2.938-1.076 4.546-.003.207.162.377.37.38h.005c.205 0 .372-.165.375-.37.022-1.496.367-2.955.998-4.223.564-1.146 1.363-2.136 2.313-2.865l.098-.126c.81-.71 3.296-3.313 5.2-5.918 1.052-1.446 1.296-3.015 1.492-4.277.194-1.246.332-1.958.91-2.115.075-.02.44.033.953.387.452.312 1.522 1.225 1.695 2.954.214 2.12-1.512 5.327-2.25 6.695l-.28.527h-1.384c-.207 0-.375.168-.375.375s.167.375.374.375h9.02c.882-.006 1.463.37 1.79.69.406.4.658.95.658 1.433 0 .68-.577 1.56-1.19 1.565h-8.976c-.207 0-.375.168-.375.375s.17.375.376.375h8.984c.213.002.43.096.625.29.34.343.565.94.558 1.487v.002c-.003.284-.068.56-.19.817-.325.662-.98 1.087-1.673 1.087h-8.304c-.207 0-.375.168-.375.375s.17.374.376.374h7.82c.237.002.453.1.643.29.342.343.56.946.554 1.527-.01.297-.076.575-.198.827-.31.64-.945 1.037-1.664 1.037h-.022l-1.286.004h-5.848c-.207 0-.375.168-.375.375s.168.375.375.375h5.845c.245.003.45.172.608.504.158.33.25.796.244 1.24-.007.298-.074.594-.19.855-.312.67-.93 1.084-1.614 1.084h-.02s-7.098.017-11.653.017c-.207 0-.375.168-.375.375s.168.375.375.375c4.555 0 11.655-.016 11.655-.016h.018c.98 0 1.857-.58 2.294-1.522.16-.354.25-.75.26-1.152.006-.567-.11-1.142-.318-1.578l-.1-.184h.132c1.005 0 1.897-.557 2.334-1.46.168-.346.26-.726.273-1.137.007-.74-.252-1.476-.68-1.967.66-.22 1.235-.71 1.562-1.376.172-.36.262-.74.266-1.136v-.002z"/>
</svg>
