<svg xmlns="http://www.w3.org/2000/svg" viewBox="0 0 36 36">
  <path fill="#0568ae" d="M26.626 4.867h-6.46v-.572c0-.63-.514-1.142-1.144-1.142h-2.044c-.63 0-1.143.513-1.143 1.142v.572h-6.46c-1.185 0-2.152.966-2.156 2.153v23.1c.003 1.185.97 2.15 2.156 2.152h17.25c1.188 0 2.155-.967 2.155-2.154V7.02c0-1.186-.966-2.153-2.154-2.153zm-10.04-.572c0-.213.18-.392.392-.392h2.044c.217 0 .394.176.394.392v4.628c0 .216-.177.392-.394.392h-2.044c-.217 0-.393-.176-.393-.392V4.295zM28.03 30.118c0 .773-.63 1.403-1.404 1.404H9.376c-.773 0-1.404-.63-1.407-1.404V7.02c.002-.773.633-1.403 1.406-1.404h6.46v3.306c0 .63.51 1.142 1.142 1.142h2.044c.63 0 1.144-.512 1.144-1.142V5.617h6.46c.775 0 1.405.63 1.405 1.404V30.12zm-3.947-16.892H11.92c-.84 0-1.527.685-1.527 1.526v7.99c0 .208.168.376.375.376s.375-.168.375-.375v-7.99c0-.43.35-.777.778-.777h12.164c.426 0 .773.348.773.776v12.54c0 .426-.34.773-.76.774l-.09-.518c-.204-1.134-.625-3.192-1.15-4.215-.32-.722-1.13-1.32-2.252-1.685.435-.432.756-.97.926-1.563.094-.324.14-.655.14-.984 0-1.978-1.61-3.588-3.592-3.588-1.98 0-3.593 1.61-3.593 3.59 0 .328.05.665.148 1.002.17.58.488 1.11.924 1.542-.924.303-1.636.76-2.043 1.32-.087.12-.158.242-.204.347-.14.276-.28.63-.412 1.05-.325 1.02-.585 2.293-.747 3.183l-.08.472-.008.047H11.9c-.207 0-.375.168-.375.375s.168.375.375.375h12.195c.834 0 1.512-.684 1.512-1.524V14.75c0-.84-.684-1.524-1.524-1.524zM12.89 27.68c.156-.867.41-2.108.722-3.088.12-.383.244-.698.374-.956l.135-.23c.386-.53 1.21-.97 2.243-1.206l.05-.012c.16-.024.278-.15.308-.307.03-.156-.05-.32-.187-.4l-.05-.036c-.548-.375-.95-.926-1.132-1.55-.077-.27-.117-.537-.117-.794 0-1.566 1.275-2.84 2.843-2.84s2.843 1.275 2.843 2.84c0 .26-.04.52-.112.777-.187.65-.602 1.215-1.166 1.59l-.067.048c-.12.087-.16.24-.128.383.03.145.158.26.302.293 1.214.27 2.143.826 2.43 1.466.49.954.89 2.93 1.087 4.025l.067.385h-10.51l.065-.384z"/>
</svg>
