<svg xmlns="http://www.w3.org/2000/svg" viewBox="0 0 36 36">
  <path fill="#0568ae" d="M19.022 3.52c.424 0 .77.345.77.766v4.627c0 .42-.346.767-.77.767h-2.045c-.422 0-.768-.346-.768-.767V4.286c0-.42.344-.767.767-.767h2.045m7.604 1.712H21.29v3.68c0 1.25-1.018 2.268-2.27 2.268h-2.043c-1.25 0-2.268-1.017-2.268-2.267v-3.68H9.375c-.982 0-1.78.795-1.782 1.778v23.1c.003.984.8 1.777 1.78 1.778h17.252c.983 0 1.78-.795 1.78-1.78V7.012c0-.982-.796-1.777-1.78-1.778zM25.26 27.288c0 .635-.518 1.154-1.143 1.154-.627 0-1.155-.518-1.168-1.154l-.048-.228c-.06-.983-.174-2.03-.517-2.685-.12-.258-.325-.604-.588-.96l-.016-.024-.01-.004c-.394-.525-.932-1.058-1.57-1.355-.176-.082-.362-.152-.555-.192.2-.134.384-.288.55-.46.464-.472.77-1.087.873-1.77.03-.16.047-.327.047-.507-.022-1.78-1.48-3.204-3.26-3.185-1.777.02-3.207 1.48-3.187 3.257.003.18.025.348.057.507.12.678.44 1.287.91 1.747.17.17.358.32.563.448-.193.043-.377.118-.556.207-.633.31-1.165.857-1.555 1.392l-.002.003-.004.01c-.263.364-.468.718-.582.984-.317.645-.41 1.656-.45 2.618l-.036.2c-.003.636-.515 1.155-1.136 1.155-.626 0-1.135-.518-1.135-1.154V14.7c0-.633.52-1.153 1.157-1.153h12.208c.634 0 1.154.52 1.154 1.154V27.29z"/>
</svg>
