<svg xmlns="http://www.w3.org/2000/svg" viewBox="0 0 36 36">
  <path fill="#0568ae" d="M7.4 12.6c.4 0 .8-.1 1.1-.3 1-.6 1.2-1.9.6-2.8-.4-.6-1-1-1.7-1-.4 0-.8.1-1.1.3-.5.3-.8.8-.9 1.3-.1.5 0 1.1.3 1.6.4.6 1 .9 1.7.9zm11.1-1.7c.4 0 .9-.1 1.3-.4 1.1-.7 1.4-2.2.7-3.3-.4-.7-1.2-1.1-2-1.1-.4 0-.9.1-1.3.4-.5.3-.9.9-1 1.5-.1.6 0 1.2.3 1.8.4.7 1.2 1.1 2 1.1zm13.1 13.7l-3.3-.8c-.3-.1-.6-.4-.6-.7v-3.2c0-.6 0-1.1-.2-1.6 0-.1 0-.2-.1-.2-.1-.3-.2-.5-.4-.8-.2-.3-2.4-3.7-2.4-3.7-.2-.3-.1-.5.3-.5h.6c.3 0 .7.2.9.5l1.6 2.1c.4.6 1.2.7 1.8.3.6-.4.7-1.2.3-1.8L27.8 11c-.2-.3-.6-.5-1-.5h-4c-.3 0-.8.1-1.1.3L19.2 12c-.3.2-.7.5-.9.8l-1.1 1.6c-.2.3-.6.5-.9.5H14c-.7 0-1.3.6-1.3 1.3 0 .7.6 1.3 1.3 1.3h3.7c.3 0 .8-.2.9-.5l.9-1.3c.2-.3.5-.3.7 0l1.6 2.5c.2.3.1.7-.1.9l-2.9 2.8c-.2.2-.4.7-.5 1l-.2 5.3c0 .9.7 1.6 1.5 1.6.9 0 1.6-.7 1.6-1.5l.1-3.9c0-.3.2-.8.4-1l1.7-1.7c.2-.2.4-.1.6.1.2.2.3.7.3 1v2.7c0 .3.3.7.6.7l5.7 1.4c.8.2 1.7-.3 1.9-1.1v-.4c.3-.7-.2-1.4-.9-1.5z"/>
  <path fill="#0568ae" d="M15 21.9v-2c0-.5 0-1-.2-1.4H14c-1.3 0-2.3-1-2.3-2.3 0-1.3 1-2.3 2.3-2.3h2.3l-.9-1.2c-.2-.2-.5-.4-.8-.4h-3.4c-.3 0-.7.1-1 .2L8 13.6c-.3.1-.6.4-.8.7l-.9 1.4c-.2.2-.5.4-.8.4H4.3c-.6 0-1.1.5-1.1 1.1 0 .6.5 1.1 1.1 1.1h2.3c.3 0 .7-.2.8-.4l.8-1.1c.2-.2.4-.2.6 0l1.1 1.6c.2.2.1.6-.1.8l-2.2 2.1c-.2.2-.4.6-.4.9l-.1 3.5c0 .8.6 1.4 1.3 1.4.8 0 1.4-.6 1.4-1.3l.1-2.3c0-.3.2-.7.4-.9 0 0 .7-.7 1.2-1.1.1-.1.4-.1.5.1.1.2.3.6.3.9v1.6c0 .3.2.6.5.7l3.9 1c.2 0 .4.1.6 0l.1-2.7-1.8-.5c-.3-.1-.6-.4-.6-.7z"/>
</svg>
