<svg xmlns="http://www.w3.org/2000/svg" viewBox="0 0 36 36">
  <g fill="#0568ae">
    <path d="M7.6 13.5c.4 0 .9-.1 1.2-.4 1.1-.7 1.4-2.1.7-3.1-.4-.7-1.2-1.1-1.9-1.1-.4 0-.9.1-1.2.4-.5.3-.9.8-1 1.4-.1.6 0 1.2.3 1.7.4.7 1.1 1.1 1.9 1.1zm-1.5-2.6c.1-.4.3-.7.7-1 .2-.1.5-.2.8-.2.5 0 1 .3 1.3.7.5.7.2 1.7-.5 2.1-.2.2-.5.2-.8.2-.5 0-1-.3-1.3-.7-.2-.3-.3-.7-.2-1.1zm4.2 2.4h4.3l.5.7c.1.1.2.2.3.2.1 0 .1 0 .2-.1.2-.1.2-.4.1-.5l-.6-.9c-.1-.1-.2-.2-.3-.2h-4.5c-.2 0-.4.2-.4.4s.2.4.4.4zm6.4 9.2l-1.6-.5v-2.8c0-.2-.2-.4-.4-.4s-.4.2-.4.4v3.1c0 .2.1.3.3.4l1.9.5h.1c.2 0 .3-.1.4-.3.1-.2-.1-.4-.3-.4z"/>
    <path d="M16.6 25.1l-4.1-1v-1.7c0-.4-.3-1.2-.5-1.4-.1-.1-.2-.2-.3-.2-.1 0-.2 0-.3.1-.5.4-1.7 1.5-1.7 1.6-.1.1-.1.2-.1.3l-.1 2.7c0 .5-.4.9-.9.9-.2 0-.5-.1-.6-.3-.2-.2-.3-.4-.2-.6l.1-3.6 2.3-2.1c.3-.3.4-.8.1-1.2l-1-1.5c-.1-.2-.4-.3-.6-.3-.2 0-.4.1-.6.3l-.8 1.3H4.8c-.4 0-.6-.3-.6-.6 0-.4.3-.6.6-.6h1.6c.1 0 .2-.1.3-.2L8 15c.1-.2.1-.4-.1-.5-.2-.1-.4-.1-.5.1l-1.1 1.8H4.8c-.8 0-1.4.6-1.4 1.4 0 .8.6 1.4 1.4 1.4h2.7c.1 0 .2-.1.3-.2l.9-1.4 1 1.4v.3l-2.4 2.2c-.1.1-.1.2-.1.3L7 25.3c0 .4.1.9.4 1.2.3.3.7.5 1.2.5h.1c.9 0 1.6-.7 1.6-1.6l.1-2.5c.2-.2.8-.7 1.3-1.1.1.2.2.5.2.6v2c0 .2.1.3.3.4l4.3 1.1c.2.1.4-.1.5-.3-.1-.3-.2-.5-.4-.5z"/>
    <path d="M31.1 24.3l-3.5-.9V20c0-.6 0-1.1-.2-1.7 0-.1-.1-.2-.1-.3-.1-.3-.3-.6-.5-.9-.2-.3-1.3-1.9-2.3-3.5h.8L27 16c.3.4.6.6 1.1.6.4.1.9 0 1.2-.3.7-.5.9-1.5.4-2.3l-2.6-3.6c-.1-.1-.2-.2-.3-.2h-5c-.2 0-.4.2-.4.4s.2.4.4.4h4.8l2.5 3.4c.3.4.2.9-.2 1.2-.2.1-.4.2-.6.2-.2 0-.4-.2-.6-.3l-1.9-2.6c-.1-.1-.2-.2-.3-.2h-1.7c-.1 0-.3.1-.3.2-.1.1-.1.3 0 .4 1.1 1.7 2.4 3.7 2.7 4.1.2.2.3.5.4.7 0 .1 0 .1.1.2.1.5.2.9.2 1.5v3.7c0 .2.1.3.3.4l3.8 1c.5.1.9.6.9 1.1v.3c-.2.6-.8 1-1.4.8l-5.8-1.5v-3.5c0-.1 0-.1-.1-.2l-.6-.8c-.1-.1-.2-.2-.3-.2-.1 0-.2 0-.3.1l-1.3 1.3-1 1c-.1.1-.1.2-.1.3 0 1-.1 4.4-.1 4.4 0 .6-.6 1.2-1.2 1.1-.3 0-.6-.1-.8-.4-.2-.2-.3-.5-.3-.8l.2-5.6 3.6-3.5c.1-.1.2-.3.1-.5l-2.2-3.4c-.1-.1-.2-.2-.3-.2-.1 0-.2.1-.3.2L18.3 17h-4c-.5 0-.9-.4-.9-.9s.4-.9.9-.9h2.9c.1 0 .2-.1.3-.2.1-.1 1.4-2 1.7-2.6.1-.2.1-.4-.1-.5-.2-.1-.4-.1-.5.1-.3.4-1.2 1.9-1.6 2.4h-2.7c-.9 0-1.6.7-1.6 1.6 0 .9.7 1.6 1.6 1.6H18c.1 0 .2-.1.3-.2l1.2-1.8 1.8 2.7-3.5 3.4c-.1.1-.1.2-.1.3l-.2 5.8c0 .5.2 1 .5 1.4.4.4.8.6 1.3.6h.1c1 0 1.9-.8 1.9-1.9 0 0 .1-3.1.1-4.2l1-1 1-1 .2.4v3.6c0 .2.1.3.3.4l6.1 1.5c1 .3 2.1-.4 2.3-1.4 0-.1.1-.3.1-.5.2-.4-.4-1.2-1.3-1.4zM18 11.2c.5 0 1-.1 1.4-.4 1.2-.8 1.6-2.5.8-3.7-.5-.8-1.3-1.2-2.3-1.2-.5 0-1 .1-1.4.4-.6.4-1 1-1.2 1.7-.2.7 0 1.4.4 2 .6.7 1.4 1.2 2.3 1.2zm-1.9-3.1c.1-.5.4-.9.8-1.2.3-.2.7-.3 1-.3.7 0 1.3.3 1.6.9.6.9.3 2.1-.6 2.7-.3.2-.7.3-1 .3-.7 0-1.3-.3-1.6-.9-.2-.5-.3-1-.2-1.5z"/>
  </g>
</svg>
