<svg xmlns="http://www.w3.org/2000/svg" viewBox="0 0 36 36">
  <path fill="#0568ae" d="M16.553 20.103c0 .207-.168.375-.375.375H2.996c.094.25.264.48.517.673L9.28 25.54c.165.125.197.36.07.525-.073.097-.185.148-.298.148-.08 0-.16-.024-.227-.076l-5.767-4.387c-.578-.44-.898-1.036-.9-1.68 0-.643.316-1.24.893-1.68l5.75-4.41c.164-.127.4-.096.526.068s.095.4-.07.526L3.51 18.983c-.276.21-.458.47-.543.746h13.212c.208 0 .376.168.376.375zm5.585 8.757s.093-3.23.13-4.46c.19-.182.518-.515 1.008-1.014.345-.352.727-.74 1.073-1.086l.27.407.048 3.837c.003.17.12.317.283.36l6.402 1.615c1.068.268 2.16-.382 2.43-1.45.04-.153.057-.314.057-.49 0-.92-.623-1.72-1.512-1.94l-3.724-.935v-3.562c0-.576-.027-1.192-.218-1.79l-.088-.278c-.124-.31-.284-.605-.49-.894-.205-.297-1.305-1.982-2.4-3.668h.92l1.837 2.53c.262.364.65.604 1.093.674.44.068.884-.036 1.25-.298.747-.54.915-1.59.374-2.343l-2.732-3.762c-.07-.097-.183-.155-.303-.155h-5.29c-.207 0-.375.168-.375.375s.168.375.375.375h5.1l2.618 3.606c.3.415.206.997-.205 1.295-.203.144-.448.203-.694.164-.244-.04-.457-.17-.602-.372l-1.952-2.687c-.07-.097-.183-.154-.303-.154h-1.8c-.137 0-.264.076-.33.197-.065.12-.06.268.015.383.978 1.508 2.527 3.888 2.79 4.27.174.242.307.485.403.728l.07.227c.156.485.188.98.188 1.576v3.855c0 .172.117.322.284.364l4.008 1.004c.555.14.943.637.943 1.213 0 .115-.01.215-.033.307-.17.668-.854 1.075-1.52.906l-6.12-1.545-.048-3.66c-.002-.072-.024-.143-.064-.203l-.583-.878c-.058-.087-.167-.132-.27-.15-.105-.017-.228.027-.31.093-.44.433-.952.954-1.4 1.412-.495.5-.96.975-1.086 1.08-.08.07-.13.17-.133.276-.034 1.083-.135 4.62-.135 4.62-.025.675-.582 1.21-1.253 1.21h-.04c-.333-.01-.645-.15-.874-.394-.23-.244-.35-.56-.338-.894l.178-5.92 3.765-3.644c.13-.125.152-.326.052-.476l-2.358-3.57c-.07-.103-.186-.167-.31-.167-.118-.013-.243.062-.314.165l-1.474 2.167H14.25c-.51 0-.927-.415-.927-.925s.417-.925.928-.925h2.995c.125 0 .24-.062.31-.166.06-.087 1.446-2.146 1.793-2.7.11-.176.057-.407-.12-.517-.174-.11-.406-.058-.516.118-.284.454-1.323 2.002-1.667 2.514H14.25c-.925 0-1.678.752-1.678 1.675 0 .924.753 1.675 1.678 1.675h4.372c.124 0 .24-.062.31-.164l1.27-1.87 1.88 2.843-3.652 3.535c-.07.068-.11.16-.114.258l-.183 6.07c-.017.533.175 1.042.542 1.432.368.39.865.614 1.4.63h.062c1.072.003 1.963-.853 2-1.935zM20.1 10.36c1.302-.828 1.688-2.56.86-3.863-.516-.812-1.4-1.296-2.362-1.296-.53 0-1.05.152-1.5.44-.63.4-1.065 1.022-1.227 1.752-.162.728-.03 1.477.37 2.108.515.813 1.398 1.298 2.365 1.298.53 0 1.046-.153 1.496-.44zm.228-3.46c.605.953.323 2.22-.63 2.826-.328.21-.707.32-1.094.32-.708 0-1.354-.355-1.73-.95-.294-.462-.39-1.01-.27-1.543.118-.534.437-.99.898-1.283.33-.21.708-.32 1.096-.32.705 0 1.352.356 1.73.95z"/>
</svg>
