<svg xmlns="http://www.w3.org/2000/svg" viewBox="0 0 36 36">
  <path fill="#0568ae" d="M33.967 26.556c0 .136-.013.274-.048.412-.23.896-1.142 1.44-2.04 1.215l-5.99-1.512c-.338-.085-.62-.44-.624-.79l-.036-2.803c-.004-.35-.144-.84-.31-1.09-.14-.286-.42-.334-.6-.154l-1.845 1.844c-.246.25-.455.738-.465 1.088l-.12 4.134c-.034.923-.805 1.652-1.732 1.623-.927-.026-1.66-.803-1.63-1.728l.17-5.63c.01-.35.226-.836.477-1.08L22.26 19.1c.25-.244.3-.682.106-.974l-1.733-2.622c-.193-.292-.512-.294-.708-.005l-.922 1.353c-.197.29-.644.526-.994.526h-3.877c-.744 0-1.345-.605-1.345-1.343 0-.742.602-1.342 1.345-1.342h2.455c.35 0 .796-.237.99-.527l1.137-1.72c.193-.29.605-.663.914-.826l2.515-1.33c.31-.164.848-.298 1.198-.298h4.187c.35 0 .804.232 1.01.515l2.447 3.368c.433.6.298 1.444-.3 1.877-.605.434-1.444.303-1.876-.3l-1.64-2.26c-.205-.282-.633-.514-.95-.514h-.645c-.35 0-.48.24-.29.534 0 0 2.273 3.494 2.526 3.86.208.293.355.57.464.847l.078.25c.17.534.21 1.08.21 1.743v3.342c0 .35.278.706.617.79l3.52.883c.766.19 1.267.874 1.267 1.628zm-15.074-16.08c.473 0 .936-.134 1.338-.39 1.164-.74 1.508-2.288.77-3.45-.462-.726-1.25-1.16-2.113-1.16-.473 0-.938.135-1.34.39-.562.36-.952.916-1.097 1.568-.145.65-.026 1.32.33 1.884.46.725 1.252 1.16 2.113 1.16zM9.97 28.6v-2.66h5.91c.28 0 .51-.23.51-.51v-5.048c0-.28-.23-.51-.51-.51H9.97v-2.66c0-.626-.39-.805-.866-.398l-6.243 5.35-.215.186c-.357.306-.357.806 0 1.112l.216.185 6.244 5.35c.476.408.865.23.865-.397z"/>
</svg>
