<svg xmlns="http://www.w3.org/2000/svg" viewBox="0 0 36 36">
  <path fill="#0568ae" d="M16.377 19.736c0 .736-.595 1.333-1.33 1.333h-.07c.41.226.692.658.692 1.162 0 .736-.596 1.333-1.33 1.333h-.645c.41.227.692.66.692 1.163 0 .736-.595 1.332-1.33 1.332H7.326c-2.26.028-3.46-2.485-3.46-4.902 0-2.607 1.672-4.085 2.195-4.57.37-.344 1.878-1.86 3.004-3.402 1.148-1.577.534-3.478 1.492-3.737.366-.1 1.635.605 1.785 2.096.154 1.512-1.257 3.802-1.495 4.305l-.025.06h4.23c.733 0 1.328.596 1.328 1.33 0 .576-.366 1.062-.875 1.248.51.187.874.673.874 1.248zm4.12-2.226c-.508.187-.874.672-.874 1.247 0 .736.595 1.333 1.33 1.333h4.228l-.024.06c-.24.504-1.65 2.794-1.496 4.306.15 1.49 1.418 2.195 1.785 2.097.958-.26.344-2.16 1.492-3.737 1.126-1.54 2.634-3.06 3.004-3.402.524-.486 2.196-1.964 2.196-4.57 0-2.417-1.2-4.93-3.46-4.902h-5.733c-.734 0-1.33.596-1.33 1.332 0 .503.282.936.693 1.163h-.645c-.733 0-1.328.597-1.328 1.332 0 .502.28.935.692 1.162h-.07c-.735 0-1.33.597-1.33 1.332 0 .574.364 1.06.874 1.246z"/>
</svg>
