<svg xmlns="http://www.w3.org/2000/svg" viewBox="0 0 36 36">
  <path fill="#0568ae" d="M15.908 18.464c.276.3.445.745.44 1.182v.004c-.003.238-.057.47-.16.688-.164.332-.43.59-.74.75.177.28.278.64.274 1-.007.25-.063.48-.166.69-.24.496-.69.817-1.234.88.125.332.137.673.135.803-.006.244-.06.483-.156.696-.267.576-.803.93-1.403.93h-.01s-3.867.008-6.348.008c-.208 0-.376-.168-.376-.375s.168-.376.375-.376c2.48 0 6.345-.008 6.345-.008h.004c.31.024.587-.186.73-.492.053-.12.084-.258.087-.397.004-.296-.08-.605-.202-.73l-.092-.045H10.23c-.206 0-.374-.168-.374-.375s.168-.375.375-.375h3.186l.7-.002c.333-.004.624-.176.765-.468.058-.116.088-.244.092-.38.002-.267-.1-.553-.252-.707-.07-.07-.146-.107-.23-.108h-4.258c-.207 0-.375-.168-.375-.375s.168-.375.375-.375h4.523c.313 0 .61-.194.757-.497.056-.116.086-.243.087-.372.002-.255-.1-.53-.255-.688-.07-.07-.144-.107-.216-.107h-4.897c-.207 0-.375-.168-.375-.375s.168-.375.375-.375h4.888c.21-.002.48-.384.48-.682 0-.218-.118-.47-.308-.658-.155-.152-.427-.343-.852-.327H9.525c-.207 0-.375-.168-.375-.375s.168-.375.375-.375h.65l.106-.195c.395-.732 1.32-2.446 1.208-3.55-.114-1.138-1.032-1.667-1.25-1.667h-.002c-.178.05-.247.36-.348 1.01-.11.705-.247 1.582-.844 2.403-1.024 1.4-2.357 2.8-2.832 3.227l-.086.1c-.497.38-.916.9-1.21 1.498-.336.67-.517 1.44-.528 2.23-.003.205-.17.37-.375.37h-.006c-.207-.003-.372-.173-.37-.38.014-.9.223-1.783.604-2.55.327-.662.786-1.243 1.33-1.686l.074-.082c.295-.236 1.713-1.69 2.792-3.167.49-.673.606-1.42.71-2.077.114-.738.222-1.434.916-1.622.372-.1.822.17.998.292.313.216 1.054.846 1.17 2.028.13 1.258-.72 2.915-1.206 3.82h3.413c.534.013 1.02.187 1.38.543.33.327.53.772.53 1.192 0 .37-.17.768-.44 1.052zm16.085-3.953c-.2 0-.377.164-.38.37-.012.79-.193 1.56-.526 2.228-.295.6-.714 1.12-1.21 1.5l-.086.1c-.473.425-1.807 1.826-2.83 3.227-.598.82-.735 1.698-.844 2.404-.1.646-.17.957-.348 1.008-.22 0-1.137-.528-1.25-1.668-.113-1.103.81-2.816 1.204-3.548l.106-.196h.65c.207 0 .375-.168.375-.375s-.168-.374-.375-.374h-4.914c-.417.012-.698-.174-.853-.327-.188-.188-.306-.44-.306-.66 0-.298.268-.68.477-.682h4.89c.207 0 .375-.168.375-.375s-.168-.375-.375-.375h-4.896c-.072 0-.144-.036-.215-.108-.157-.156-.26-.432-.255-.686v-.002c0-.13.03-.256.086-.373.15-.304.447-.498.76-.498h4.52c.208 0 .376-.168.376-.375s-.168-.375-.375-.375h-4.26c-.084-.002-.16-.037-.23-.108-.153-.153-.254-.44-.252-.706.004-.136.035-.264.09-.38.143-.292.427-.475.767-.468l.7-.002h3.185c.207 0 .375-.168.375-.375s-.168-.375-.375-.375h-3.182c-.078 0-.14-.097-.18-.178-.074-.157-.117-.383-.115-.597.004-.14.035-.278.09-.397.142-.307.426-.494.73-.492h.003s3.866-.008 6.346-.008c.207 0 .375-.168.375-.375s-.168-.374-.375-.374c-2.48 0-6.348.008-6.348.008h-.01c-.6 0-1.137.354-1.404.93-.097.212-.15.45-.157.695-.003.28.048.562.137.8-.528.058-.997.39-1.235.88-.102.213-.158.443-.166.694-.004.358.098.718.274 1-.31.16-.575.417-.738.75-.105.217-.16.45-.162.687v.005c-.006.438.164.883.44 1.182-.27.285-.44.684-.44 1.052 0 .418.2.864.53 1.19.357.352.838.544 1.36.544h3.433c-.485.905-1.334 2.562-1.207 3.82.118 1.183.86 1.813 1.172 2.028.15.103.496.314.825.314l.173-.022c.693-.188.802-.884.917-1.622.102-.658.218-1.403.708-2.077 1.077-1.475 2.496-2.93 2.792-3.167l.073-.082c.545-.442 1.003-1.023 1.33-1.687.38-.767.59-1.648.603-2.55.002-.206-.163-.376-.37-.38z"/>
</svg>
