<svg xmlns="http://www.w3.org/2000/svg" viewBox="0 0 36 36">
  <path fill="#0568ae" d="M10.144 18.225c-3.926-.21-7.057-3.46-7.057-7.44 0-4.112 3.346-7.458 7.46-7.458s7.458 3.346 7.458 7.46c0 1.665-.556 3.2-1.483 4.443l-1.016-2.18c.317-.69.5-1.456.5-2.265 0-3.01-2.45-5.46-5.46-5.46s-5.46 2.45-5.46 5.46c0 2.52 1.72 4.64 4.045 5.266l1.014 2.175zm15.8-2.39c-.717.335-1.132 1.042-1.133 1.783l-.496-1.058c-.476-1.01-1.675-1.447-2.692-.97-.835.392-1.277 1.285-1.132 2.152l-.19-.396c-.475-1.013-1.674-1.448-2.687-.97-.91.425-1.367 1.445-1.1 2.384l-3.86-8.274c-.47-1.01-1.675-1.442-2.687-.97-1.01.473-1.45 1.67-.978 2.68l5.133 11.007c-.273-.162-.53-.347-.82-.548-3.932-2.696-5.794.385-5.783 1.233.01.854 3.197.745 7.14 4.483 2.2 2.084 3.918 3.216 4.582 3.54 2.09 1.05 4.846 1.076 7.396-.12 3.877-1.816 6.14-5.973 4.642-9.188l-2.715-5.823c-.466-.985-1.634-1.408-2.62-.945z"/>
</svg>
