<svg xmlns="http://www.w3.org/2000/svg" viewBox="0 0 36 36">
  <path fill="#0568ae" d="M24.177 24.996c.036.215.032.274.032.41 0 1.61-2.74 2.908-6.16 2.908-1.29 0-2.485-.185-3.473-.502-1.628-.523-2.694-1.404-2.694-2.407 0-.135.02-.273.044-.41l.148-.856c.173-.966.45-2.31.79-3.373.13-.412.27-.78.417-1.07.05-.11.113-.217.188-.32.475-.656 1.447-1.18 2.667-1.456l.065-.014-.093-.068c-.655-.448-1.15-1.11-1.38-1.888-.088-.306-.14-.63-.14-.967 0-1.912 1.55-3.457 3.46-3.457 1.912 0 3.462 1.545 3.462 3.457 0 .33-.048.647-.136.947-.23.803-.74 1.485-1.42 1.935l-.053.04.036.01c1.43.317 2.522.976 2.884 1.785.53 1.035.966 3.1 1.207 4.44l.147.856zm-12.743-4.684c.162-.51.324-.924.496-1.267.087-.187.196-.37.326-.552.34-.467.816-.88 1.402-1.22-.15-.29-.274-.59-.367-.906-.132-.456-.2-.922-.2-1.386l.018-.328c-.507-.402-1.233-.72-2.09-.91l-.033-.01.05-.036c.646-.427 1.13-1.074 1.347-1.835.083-.284.13-.583.13-.897 0-1.813-1.47-3.277-3.282-3.277-1.81 0-3.28 1.465-3.28 3.277 0 .32.05.627.133.916.217.737.686 1.364 1.306 1.79l.087.063-.062.015c-1.157.262-2.077.76-2.528 1.38-.07.1-.13.2-.178.304-.14.274-.274.624-.398 1.015-.32 1.007-.584 2.282-.748 3.197l-.14.813c-.025.13-.042.26-.042.388 0 .95 1.01 1.786 2.554 2.282.937.3 2.07.476 3.293.476.496 0 .975-.032 1.434-.087.18-.95.442-2.175.77-3.204zm21.234.144l-.14-.813c-.228-1.27-.64-3.227-1.144-4.21-.343-.766-1.377-1.39-2.735-1.692l-.035-.007.05-.037c.646-.427 1.13-1.074 1.347-1.835.083-.284.13-.583.13-.897 0-1.813-1.47-3.277-3.282-3.277-1.81 0-3.28 1.465-3.28 3.277 0 .32.05.627.133.916.217.737.686 1.364 1.306 1.79l.087.063-.062.015c-.84.19-1.55.504-2.05.9l.016.334c0 .462-.065.922-.193 1.36-.093.324-.218.637-.373.932.808.472 1.406 1.078 1.73 1.774.552 1.1.982 2.966 1.263 4.465.457.054.93.09 1.422.09 3.24 0 5.837-1.232 5.837-2.76.002-.128.006-.183-.03-.387z"/>
</svg>
