<svg xmlns="http://www.w3.org/2000/svg" viewBox="0 0 36 36">
  <path fill="#0568ae" d="M24.358 24.08c-.218-1.217-.67-3.428-1.233-4.525-.348-.778-1.225-1.42-2.45-1.812.48-.466.835-1.052 1.02-1.7.1-.344.15-.698.15-1.052 0-2.112-1.72-3.83-3.836-3.83-2.116 0-3.837 1.718-3.837 3.83 0 .36.053.72.158 1.073.188.636.54 1.213 1.022 1.68-1.226.39-2.102 1.03-2.444 1.79-.538 1.055-.974 3.055-1.245 4.548l-.144.842c-.052.17-.077.334-.077.486 0 1.845 2.885 3.29 6.567 3.29 3.683 0 6.568-1.445 6.568-3.29 0-.157-.024-.316-.075-.486-.033-.22-.083-.51-.145-.84zM18.01 27.95c-3.48 0-5.817-1.313-5.817-2.54 0-.084.017-.183.05-.292l.013-.056.145-.846c.215-1.18.653-3.316 1.183-4.356.303-.67 1.297-1.27 2.58-1.56l.06-.016c.155-.025.27-.153.3-.308.027-.156-.052-.32-.19-.4l-.052-.04c-.59-.404-1.028-1.002-1.228-1.684-.084-.285-.127-.574-.127-.86 0-1.7 1.385-3.082 3.086-3.082 1.703 0 3.088 1.383 3.088 3.082 0 .283-.04.567-.122.844-.2.705-.65 1.318-1.27 1.728l-.067.05c-.12.087-.157.24-.126.383.03.143.16.26.303.292 1.315.292 2.32.895 2.632 1.59.527 1.03.96 3.158 1.17 4.338.063.336.113.63.146.845l.012.056c.034.107.05.203.05.29 0 1.23-2.337 2.542-5.818 2.542zm15.044-7.1c0 1.528-2.065 2.794-5.022 3.08-.28.027-.564.045-.856.054l-.367.005c-.31 0-.63-.012-.948-.035-.207-.015-.362-.195-.346-.4.015-.208.198-.365.4-.348.42.03.837.04 1.238.028.275-.007.542-.024.806-.05 2.477-.24 4.344-1.243 4.344-2.334 0-.083-.015-.17-.046-.272l-.013-.05-.138-.803c-.2-1.118-.61-3.134-1.108-4.107-.295-.655-1.243-1.222-2.483-1.5-.144-.03-.272-.148-.303-.293-.03-.144.01-.297.13-.383l.05-.036c.594-.394 1.017-.97 1.206-1.635.076-.264.114-.53.114-.796 0-1.6-1.303-2.902-2.906-2.902-1.602 0-2.906 1.302-2.906 2.902 0 .265.04.538.12.81.19.642.6 1.205 1.157 1.586l.05.038c.136.08.216.243.188.398-.03.155-.143.282-.298.308-.637.146-1.173.348-1.593.598l-.05.03c-.17.108-.404.062-.517-.107-.113-.17-.075-.394.092-.51l.063-.04c.347-.206.725-.375 1.14-.51-.45-.44-.776-.982-.95-1.577-.102-.342-.152-.686-.152-1.022 0-2.014 1.64-3.652 3.656-3.652s3.655 1.638 3.655 3.652c0 .335-.048.673-.143 1.002-.173.607-.502 1.157-.95 1.6 1.158.378 1.976.984 2.304 1.716.532 1.043.962 3.14 1.17 4.296l.137.795c.048.16.07.312.07.462zm-20.55-6.138c-.422-.25-.958-.454-1.553-.588l-.048-.012c-.142-.04-.263-.163-.284-.31-.022-.146.03-.295.154-.375l.077-.058c.557-.38.967-.942 1.156-1.585.08-.265.12-.537.12-.81 0-1.6-1.304-2.903-2.906-2.903-1.603 0-2.906 1.3-2.906 2.9 0 .266.04.533.114.794.19.667.615 1.244 1.192 1.628l.046.032c.117.086.184.24.156.382-.028.142-.125.263-.266.298l-.074.016c-1.212.27-2.16.838-2.445 1.476-.508.994-.918 3.008-1.116 4.122l-.14.806-.01.052-.047.27c0 1.093 1.868 2.096 4.345 2.335.262.026.53.043.803.05.406.012.82.003 1.242-.027.21-.017.386.14.402.347.014.206-.14.386-.348.4-.32.025-.638.036-.947.036l-.37-.005c-.29-.007-.575-.025-.854-.053-2.956-.285-5.022-1.552-5.022-3.08 0-.153.024-.306.072-.467l.138-.798c.206-1.15.633-3.247 1.177-4.31.323-.72 1.145-1.326 2.297-1.7-.448-.442-.776-.992-.95-1.6-.096-.326-.145-.664-.145-1 0-2.014 1.64-3.652 3.657-3.652s3.654 1.638 3.654 3.652c0 .347-.05.692-.15 1.025-.176.597-.505 1.14-.948 1.576.412.134.78.3 1.106.492l.043.026.043.027c.172.115.22.348.104.52-.115.172-.348.22-.52.104l-.047-.03z"/>
</svg>
