<svg xmlns="http://www.w3.org/2000/svg" viewBox="0 0 36 36">
  <path fill="#0568ae" d="M31.325 17.108l-2.754 2.236-8.478-7.076-.056-.03-.013-.015c-.904-.69-2.21-.728-3.168-.097l-2.875 1.792c-.527.328-1.222.167-1.55-.36-.328-.526-.167-1.222.36-1.55l6.098-3.8c.468-.3 1.037-.366 2.032-.237l1.947.266c1.028.142 2.232.308 3.528.48 1.263.167 2.455-.51 2.79-.72.445-.28 2.442-1.623 2.527-1.68.172-.116.217-.35.102-.52-.115-.172-.347-.217-.52-.102-.02.014-2.072 1.393-2.508 1.668-.2.126-1.25.748-2.293.61-1.293-.17-2.496-.338-3.523-.48-.757-.104-1.418-.195-1.952-.265-1.174-.152-1.908-.05-2.53.347l-.588.366-.704-.438c-.626-.4-1.36-.502-2.534-.35-.532.07-1.193.162-1.948.267-1.028.14-2.232.307-3.526.477-1.043.136-2.093-.484-2.293-.61-.395-.25-2.087-1.384-2.104-1.396-.17-.115-.404-.07-.52.103-.114.172-.07.405.103.52.07.047 1.717 1.153 2.122 1.408.335.213 1.524.888 2.79.72 1.296-.17 2.502-.337 3.53-.48l1.944-.264c.993-.13 1.563-.062 2.036.24l.395.246-4.796 2.99c-.877.546-1.146 1.705-.6 2.582.355.57.968.883 1.595.883.337 0 .68-.09.987-.283l2.883-1.797c.693-.457 1.664-.43 2.308.06l.04.02.003.005 9.537 7.96c.544.457.61 1.275.15 1.824-.22.264-.532.425-.875.455-.342.026-.677-.075-.94-.296l-.39-.324-.013-.014-.01-.005-2.525-2.103c-.16-.133-.395-.11-.528.048s-.11.396.048.528l2.547 2.123c.257.222.416.528.445.867.03.346-.076.683-.3.948-.462.55-1.287.622-1.836.16l-.052-.028-.036-.046-2.934-2.49c-.157-.134-.395-.115-.528.043-.134.157-.115.394.043.527l2.57 2.18.01.013c.262.215.423.518.452.854.03.338-.077.667-.3.926-.463.536-1.288.604-1.842.15l-.047-.024-.036-.046-2.91-2.45c-.16-.132-.395-.113-.53.047-.132.158-.112.395.047.528l2.47 2.078c.258.217.416.52.446.852.03.33-.074.654-.29.91-.415.492-1.177.72-1.738.257l-1.42-1.187c.497-.736.477-1.74-.125-2.46-.35-.416-.84-.67-1.38-.71-.237-.02-.47.01-.692.07l.012-.066c.05-.556-.122-1.096-.48-1.52-.538-.642-1.372-.858-2.127-.623.047-.55-.13-1.106-.49-1.524-.56-.65-1.437-.846-2.213-.57.038-.53-.132-1.066-.474-1.47-.73-.865-2-1.01-2.826-.32l-.095.08-2.64-2.208c-.158-.133-.395-.112-.527.047-.133.16-.112.395.047.528l2.537 2.122-.884.742c-.862.723-.97 2.015-.243 2.882.35.417.84.673 1.383.72l.18.008c.178 0 .35-.03.517-.074l-.014.076c-.047.545.12 1.077.474 1.496.405.482.988.73 1.574.73.192 0 .383-.033.57-.086l-.004.022c-.047.54.123 1.067.48 1.48.402.468.98.71 1.565.71.22 0 .442-.037.656-.108-.04.525.122 1.035.464 1.438.43.51 1.024.775 1.607.775.423 0 .84-.14 1.185-.428l1.453-1.218.008.01 1.444 1.208h.002c.345.29.76.428 1.184.428.583 0 1.176-.266 1.606-.775.34-.404.504-.913.464-1.438.214.07.435.108.657.108.585 0 1.164-.242 1.567-.71.356-.414.527-.94.48-1.48l-.005-.022c.187.054.378.087.57.087.587 0 1.17-.25 1.575-.73.352-.42.52-.952.473-1.498l-.014-.076c.168.043.34.073.516.073l.18-.008c.543-.047 1.035-.303 1.384-.72.35-.417.52-.947.474-1.49-.045-.548-.3-1.042-.716-1.392l-.47-.395 2.64-2.143-.48-.577zM7.14 23.083c-.342-.03-.652-.192-.874-.455-.46-.55-.394-1.368.15-1.825l1.56-1.31c.513-.425 1.31-.324 1.775.227.222.262.332.61.3.954-.027.32-.173.607-.414.82l-1.14.95-.013.006-.02.02-.382.318c-.263.22-.6.32-.94.295zm1.665 1.77c-.224-.265-.33-.602-.3-.948.03-.335.186-.638.44-.86l1.142-.95.014-.007.02-.02.458-.38.023-.027.03-.014c.564-.46 1.36-.408 1.815.12.23.266.343.62.312.972-.03.335-.185.634-.437.84l-.02.023-1.568 1.34-.036.046-.053.03c-.552.458-1.375.386-1.838-.162zm2.614 2.14c-.224-.26-.33-.588-.3-.926.028-.336.19-.64.452-.854l.013-.016 1.647-1.405.007-.008.01-.005c.56-.47 1.354-.415 1.808.126.228.27.337.616.306.972-.03.346-.19.656-.45.875l-.005.005-1.565 1.318-.035.045-.048.026c-.556.45-1.382.382-1.843-.153zm2.69 2.045c-.216-.255-.32-.58-.29-.91.03-.333.188-.634.47-.873l1.505-1.267c.266-.222.597-.33.936-.304.34.026.645.185.865.447.222.266.33.602.3.948-.027.346-.188.657-.45.877l-1.595 1.34c-.56.464-1.325.235-1.74-.257z"/>
</svg>
