<svg xmlns="http://www.w3.org/2000/svg" viewBox="0 0 36 36">
  <path fill="#0568ae" d="M32.76 18.05c0-.413-.336-.748-.75-.748-.17 0-.327.06-.453.157v-.002l-1.828 1.475-.707.57-.18.112-.064.026-.14.048-.08.017-.14.02-.084.006-.05.004-.065-.005-.16-.014-.104-.016-.157-.038-.094-.028-.154-.065-.07-.034-.19-.126c-.075-.063-7.454-6.142-7.5-6.177-.793-.607-1.936-.607-2.74-.076l-2.876 1.792c-.703.437-1.628.222-2.066-.48-.438-.704-.223-1.63.48-2.067l6.094-3.798.275-.146.083-.036.226-.076.082-.023.323-.057.054-.004.307-.016.05-.002.07.003.27.01.12.008.42.044c1.257.166 3.23.448 5.476.744l.38.022.126-.007.245-.018.144-.023.212-.042.145-.037.193-.055.136-.045.177-.067.12-.05.164-.073.1-.047.15-.08.072-.037.174-.104.993-.653 1.525-1.022-.002-.003c.197-.135.326-.36.326-.617 0-.413-.335-.748-.748-.748-.153 0-.294.046-.412.125-.57.383-2.13 1.428-2.48 1.65-.335.21-.897.455-1.382.455l-.164-.01c-1.292-.17-2.493-.336-3.52-.477l-1.955-.267c-.408-.053-.76-.078-1.08-.078-.86 0-1.583.195-2.21.596l-.948.59-.206-.128c-.58-.372-1.26-.426-2.282-.293-1.256.166-3.23.448-5.475.744-1.07.14-2.117-.397-2.54-.664-.41-.26-2.118-1.406-2.118-1.406-.493-.33-.897-.116-.897.478v9.212c0 .594.377 1.387.838 1.762L7.56 20.41c-.105.26-.185.53-.21.818-.066.752.165 1.484.65 2.06.462.552 1.11.9 1.817.985.11.36.29.697.537.992.462.55 1.11.9 1.817.983.11.36.29.697.538.992.462.55 1.11.9 1.817.984.11.36.29.697.537.992.538.64 1.326 1.01 2.164 1.01.543 0 1.07-.166 1.522-.457l.45.376c.558.47 1.39.396 1.86-.163.47-.56.396-1.392-.163-1.86l-.002-.002-.077-.064c.197-.17.36-.37.5-.585l.448.38c.596.5 1.485.42 1.985-.175s.42-1.485-.175-1.985l-2.458-2.083c-.164-.137-.185-.38-.048-.544.136-.164.38-.185.544-.048l2.94 2.482c.594.498 1.48.42 1.978-.173.498-.594.42-1.48-.173-1.977l-2.43-2.04c-.164-.137-.185-.38-.048-.545.137-.163.38-.185.545-.048l2.998 2.497c.575.484 1.432.41 1.914-.166s.406-1.432-.17-1.915l-.03-.027c.306-.095.587-.24.83-.438.173-.142 2.526-2.04 2.526-2.04l-.006-.006c.164-.14.27-.34.27-.57zm-12.947 8.895l-1.736 1.472c-.238.2-.54.31-.85.31-.392 0-.763-.173-1.015-.474-.277-.33-.375-.776-.262-1.196.038-.14-.01-.29-.12-.384-.07-.058-.156-.088-.242-.088l-.16.035c-.528.247-1.196.103-1.57-.343-.277-.33-.375-.776-.262-1.195.038-.14-.01-.29-.12-.385-.113-.094-.27-.113-.4-.053-.53.247-1.198.104-1.572-.343-.277-.33-.375-.775-.262-1.194.038-.14-.01-.29-.12-.385-.113-.093-.27-.112-.4-.052-.53.246-1.198.103-1.572-.342-.227-.27-.336-.614-.305-.966.03-.352.197-.67.468-.9l1.744-1.464c.538-.45 1.408-.374 1.858.163.278.33.375.778.26 1.197-.04.142.007.292.12.387.112.095.27.115.402.052.527-.25 1.198-.107 1.572.34.277.33.374.778.26 1.197-.04.14.007.292.12.386.11.094.27.114.4.05.528-.248 1.2-.106 1.572.34.278.33.375.78.26 1.198-.04.142.008.292.12.387.113.095.27.115.402.052.527-.25 1.198-.107 1.573.34.226.27.334.61.303.96-.03.352-.196.67-.467.898z"/>
</svg>
