<svg xmlns="http://www.w3.org/2000/svg" viewBox="0 0 36 36">
  <path fill="#0568ae" d="M18.002 3C9.716 3 3 9.715 3 18s6.716 15 15.002 15c8.285 0 15.002-6.715 15.002-15S26.287 3 18.002 3zm2.815 20.028c-.59.506-.914 1.225-1.254 1.987-.66 1.475-1.48 3.31-4.403 3.31-1.974 0-3.59-1.73-3.758-4.026-.035-.482.327-.9.808-.936.48-.038.9.326.935.808.087 1.182.863 2.405 2.014 2.405 1.79 0 2.194-.906 2.807-2.275.386-.863.823-1.84 1.695-2.585 3.302-2.995 4.693-6.31 3.795-9.078-.637-1.968-2.354-3.335-4.478-3.57-4.357-.48-5.074 3.67-5.102 3.845-.076.477-.524.802-1 .725-.478-.076-.802-.524-.726-1 .33-2.067 2.224-5.836 7.02-5.307 2.773.306 5.108 2.177 5.948 4.766 1.12 3.45-.45 7.433-4.303 10.928zm-5.32-6.043c-.75-.474-.83-1.34-.158-2.19.67-.847.688-2.276 1.737-3.28.907-.867 3.115-1.192 3.823.76.15.416-.427.373-.678.194-.795-.566-1.76-.687-2.635.787-.572 1.065.12 3.24.313 4.694.2 1.5-1.148 4.524-3.153 2.92-.79-.63.158-1.716.63-2.03.475-.317.87-1.382.12-1.855z"/>
</svg>
