<svg xmlns="http://www.w3.org/2000/svg" viewBox="0 0 36 36">
  <path fill="#0568ae" d="M14.932 33.416c-2.823 0-5.134-2.475-5.374-5.758-.05-.688.467-1.288 1.155-1.338.688-.054 1.287.467 1.338 1.155.125 1.69 1.236 3.44 2.882 3.44 2.56 0 3.14-1.295 4.016-3.255.552-1.235 1.177-2.634 2.424-3.698 4.723-4.285 6.712-9.027 5.43-12.986-.913-2.813-3.368-4.77-6.406-5.104-6.23-.688-7.256 5.247-7.296 5.5-.11.682-.75 1.148-1.432 1.037-.682-.11-1.146-.75-1.037-1.433.474-2.956 3.182-8.348 10.04-7.59 3.97.438 7.31 3.114 8.51 6.818 1.6 4.935-.644 10.633-6.156 15.633-.846.723-1.306 1.753-1.794 2.843-.942 2.11-2.116 4.736-6.298 4.736zm8.79-23.02c-1.142-3.143-4.695-2.62-6.156-1.224-1.69 1.615-1.718 3.916-2.798 5.28-1.08 1.366-.953 2.763.254 3.526 1.207.762.572 2.477-.19 2.985-.763.508-2.287 2.254-1.017 3.27 3.23 2.584 5.398-2.285 5.076-4.698-.31-2.34-1.424-5.842-.503-7.557 1.408-2.373 2.96-2.178 4.242-1.268.405.285 1.334.355 1.09-.314z"/>
</svg>
