<svg xmlns="http://www.w3.org/2000/svg" viewBox="0 0 36 36">
  <path fill="#0568ae" d="M27.648 19.434v6.424c0 3.548-3.81 6.358-8.09 6.367-2.817.005-5.303-1.184-6.755-3.02-.466-.572-1.545-2.324-2.657-5.142-1.994-5.054-4.93-6.302-4.577-7.08.348-.775 3.338-2.78 5.76 1.325.18.305.334.58.514.844V7.007c0-1.116.904-2.014 2.02-2.015 1.116 0 2.026.9 2.026 2.015v9.13c.155-.964 1.002-1.695 2.005-1.696 1.12-.003 2.023.898 2.026 2.017l.004.44c.235-.848 1.013-1.47 1.936-1.474 1.123-.002 2.025.902 2.03 2.018l.003 1.17c.314-.67.99-1.137 1.78-1.138 1.09-.004 1.97.873 1.975 1.962zm-5.835-15.66h-2.735c-.316 0-.573.284-.573.632v2.592c0 .35.257.634.573.634h2.735c.317 0 .574-.284.574-.634V4.406c0-.348-.257-.632-.574-.632zm5.274 0H24.35c-.316 0-.573.284-.573.632v2.592c0 .35.257.634.573.634h2.737c.316 0 .574-.284.574-.634V4.406c0-.348-.256-.632-.573-.632zM21.813 8.92h-2.735c-.316 0-.573.284-.573.633v2.593c0 .35.257.633.573.633h2.735c.317 0 .574-.285.574-.634V9.553c0-.348-.257-.632-.574-.632zm5.274 0H24.35c-.316 0-.573.284-.573.633v2.593c0 .35.257.633.573.633h2.737c.316 0 .574-.285.574-.634V9.553c0-.348-.256-.632-.573-.632z"/>
</svg>
