<svg xmlns="http://www.w3.org/2000/svg" viewBox="0 0 36 36">
  <path fill="#0568ae" d="M19.847 7.698h2.735c.385 0 .7-.34.7-.76V4.35c0-.42-.315-.758-.7-.758h-2.735c-.385 0-.698.34-.698.757V6.94c-.002.418.312.758.697.758zm.05-.76l.008-2.6h2.626v.008l-.006 2.6h-2.626V6.94zm5.223.76h2.737c.385 0 .7-.34.7-.76V4.35c0-.42-.314-.758-.7-.758H25.12c-.385 0-.698.34-.698.757V6.94c0 .418.313.758.698.758zm.052-.76l.006-2.6h2.627v.008l-.007 2.6H25.17l.002-.007zm-5.325 5.907h2.735c.385 0 .7-.34.7-.758V9.494c0-.417-.315-.757-.7-.757h-2.735c-.385 0-.698.34-.698.757v2.593c-.002.418.312.758.697.758zm.05-.758l.008-2.6h2.626v.007l-.005 2.6h-2.627v-.007zm5.223.758h2.737c.385 0 .7-.34.7-.758V9.494c0-.417-.314-.757-.7-.757H25.12c-.385 0-.698.34-.698.757v2.593c0 .418.313.758.698.758zm.052-.758l.006-2.6h2.627v.007l-.006 2.6h-2.63l.002-.007zm3.766 7.352v6.97c0 .206-.168.374-.375.374s-.375-.168-.375-.375v-6.97c0-.435-.17-.843-.48-1.15-.306-.306-.714-.474-1.15-.474h-.003c-.613 0-1.157.338-1.44.882v1.157c0 .207-.167.375-.374.375s-.374-.168-.374-.375V17.412c-.003-.925-.76-1.678-1.688-1.678h-.003c-.732.002-1.38.49-1.594 1.188v2.29c0 .206-.166.374-.374.374-.207 0-.375-.168-.375-.375v-2.8c-.004-.926-.76-1.68-1.686-1.68h-.004c-.823.003-1.516.593-1.65 1.404l.003 2.534c0 .207-.167.375-.375.375s-.375-.167-.375-.374l-.016-12.612c0-.445-.175-.865-.492-1.18-.32-.32-.742-.495-1.193-.495h-.002c-.927 0-1.68.757-1.68 1.685l.027 13.085c0 .164-.106.31-.263.358-.156.05-.326-.008-.42-.144-.222-.32-.402-.602-.566-.885-.947-1.603-2.084-2.416-3.31-2.353-1.03.056-1.777.726-1.888.97.012.123.407.538.755.905.985 1.037 2.634 2.774 3.912 6.01 1.163 2.944 2.232 4.656 2.635 5.15.13.16.107.395-.053.526-.07.057-.155.085-.238.085-.108 0-.216-.047-.29-.138-.46-.563-1.56-2.324-2.753-5.347-1.225-3.102-2.812-4.77-3.76-5.77-.683-.72-1.132-1.194-.895-1.728.25-.55 1.266-1.344 2.534-1.413 1.015-.057 2.494.34 3.844 2.477L12.11 6.068c0-1.342 1.09-2.435 2.43-2.436h.003c.65 0 1.26.253 1.722.713.458.458.712 1.066.712 1.71v.002l.01 8.584c.435-.406 1.014-.656 1.653-.658h.003c1.088 0 2.014.72 2.326 1.71.444-.44 1.05-.708 1.705-.71h.003c1.34 0 2.433 1.088 2.438 2.427v.14c.404-.31.904-.483 1.44-.483h.004c.634 0 1.23.246 1.68.692.45.446.697 1.042.698 1.68z"/>
</svg>
