<svg xmlns="http://www.w3.org/2000/svg" viewBox="0 0 36 36">
  <g fill="#0568ae">
    <path d="M9.5 9c.6 0 1.2-.2 1.7-.5 1.5-.9 1.9-2.9 1-4.4-.6-.9-1.6-1.5-2.7-1.5-.6-.1-1.2.1-1.7.4-.8.5-1.3 1.2-1.4 2.1-.2.8 0 1.7.4 2.4.6.9 1.6 1.5 2.7 1.5zM7.1 5.2c.1-.6.5-1.2 1.1-1.5.4-.3.8-.4 1.3-.4.8 0 1.6.4 2.1 1.1.7 1.1.4 2.7-.8 3.4-.4.3-.8.4-1.3.4-.8 0-1.6-.4-2.1-1.1-.3-.6-.4-1.2-.3-1.9z"/>
    <path d="M13.1 9c-.2-.1-.4 0-.5.2-.1.2 0 .4.2.5 1.3.4 2.2 1.7 2.2 3.1v6.8c0 1-.8 1.8-1.7 2v-7.8c0-.2-.2-.4-.4-.4s-.4.2-.4.4v17.6c0 .8-.6 1.4-1.4 1.4-.8 0-1.4-.6-1.4-1.4v-8.7c0-.2-.2-.4-.4-.4s-.4.2-.4.4v8.7c0 .8-.6 1.4-1.4 1.4-.8 0-1.4-.6-1.4-1.4V13.7c0-.2-.2-.4-.4-.4s-.4.2-.4.4v7.8c-1-.1-1.7-.9-1.7-2v-6.8c0-1.4.9-2.6 2.2-3.1.2-.1.3-.3.2-.5.3 0 .1-.2-.1-.1-1.7.5-2.8 2.1-2.8 3.8v6.8c0 1.4 1.1 2.6 2.5 2.7v9c0 1.2 1 2.1 2.1 2.1.7 0 1.4-.4 1.7-.9.4.6 1 .9 1.8.9 1.2 0 2.1-1 2.1-2.1v-9c1.4-.1 2.5-1.3 2.5-2.7v-6.8c.1-1.7-1-3.3-2.7-3.8zM25.6 9c.6 0 1.2-.2 1.7-.5 1.5-.9 1.9-2.9 1-4.4-.6-.9-1.6-1.5-2.7-1.5-.6 0-1.2.2-1.7.5-.7.5-1.2 1.2-1.4 2-.2.8 0 1.7.4 2.4.5.9 1.6 1.5 2.7 1.5zm-2.4-3.8c.1-.6.5-1.2 1.1-1.5.4-.3.9-.4 1.3-.4.8 0 1.6.4 2.1 1.1.7 1.1.4 2.7-.8 3.4-.4.3-.8.4-1.3.4-.8 0-1.6-.4-2.1-1.1-.4-.6-.5-1.2-.3-1.9zM31.3 21.5c1.2-.6 1.9-2 1.4-3.3l-2.6-7.4c-.2-.6-.7-1.2-1.3-1.5-.2-.1-.4 0-.5.1-.1.2 0 .4.1.5.5.3.9.7 1 1.1l2.6 7.4c.3.9-.1 1.9-1 2.4l-2.4-7.2c-.1-.2-.3-.3-.5-.2-.2.1-.3.3-.2.5L31.4 24c.1.2 0 .3 0 .4-.1.1-.2.1-.4.1h-2.4c-.2 0-.4.2-.4.4v6.7c0 .6-.5 1.1-1.1 1.1-.6 0-1.1-.5-1.1-1.1v-6.7c0-.2-.2-.4-.4-.4s-.4.2-.4.4v6.7c0 .6-.5 1.1-1.1 1.1-.6 0-1.1-.5-1.1-1.1v-6.7c0-.2-.2-.4-.4-.4h-2.4c-.2 0-.3-.1-.4-.1-.1-.1-.1-.2 0-.4l3.4-10.2c.1-.2 0-.4-.2-.5-.2-.1-.4 0-.5.2L20 20.8c-.8-.4-1.3-1.4-1-2.4l2.6-7.4c.2-.4.5-.9 1-1.1.2-.1.2-.3.1-.5s-.3-.2-.5-.1c-.6.4-1.1.9-1.3 1.5l-2.6 7.4c-.4 1.3.2 2.7 1.4 3.3l-.7 2.2c-.1.4-.1.8.1 1.1.2.3.6.5 1 .5h2.1v6.3c0 1 .8 1.9 1.9 1.9.6 0 1.2-.3 1.5-.8.3.5.9.8 1.5.8 1 0 1.9-.8 1.9-1.9v-6.3h2c.4 0 .8-.2 1-.5.2-.3.3-.7.1-1.1l-.8-2.2z"/>
  </g>
</svg>
