<svg xmlns="http://www.w3.org/2000/svg" viewBox="0 0 36 36">
  <path fill="#0568ae" d="M7.1 6.9c-.4-.6-.6-1.4-.4-2.1C6.9 4 7.3 3.4 8 3c.5-.3 1-.4 1.5-.4 1 0 1.9.5 2.4 1.3.8 1.3.4 3.1-.9 3.9-.5.3-1 .4-1.5.4-1 0-1.9-.5-2.4-1.3zM11.7 9H7.2c-2.4 0-4.3 1.9-4.3 4.3v7.2c0 .6.5 1.1 1.1 1.1.6 0 1.1-.5 1.1-1.1v-6.7c0-.3.2-.5.5-.5s.5.2.5.5V32c0 .8.7 1.4 1.5 1.4.7.1 1.4-.6 1.4-1.4V21.9c0-.3.2-.5.5-.5s.5.2.5.5V32c0 .8.7 1.4 1.5 1.4S13 32.8 13 32V13.8c0-.3.2-.5.5-.5s.5.2.5.5v6.7c0 .6.5 1.1 1.1 1.1.6 0 1.1-.5 1.1-1.1v-7.2c-.1-2.4-2.1-4.3-4.5-4.3zM22.8 6.9c-.4-.6-.5-1.4-.4-2.1.1-.8.6-1.4 1.2-1.8.5-.3 1-.4 1.5-.4 1 0 1.9.5 2.4 1.3.8 1.3.4 3.1-.9 3.9-.5.3-1 .4-1.5.4-.9 0-1.8-.5-2.3-1.3zM33 19.5l-.8-2.2v-.1l-2-5.8C29.9 10 28.4 9 27 9h-3.7c-1.4 0-2.9 1.1-3.3 2.4l-2.7 8.1c-.2.6.1 1.2.7 1.4.6.2 1.2-.1 1.4-.7l2.2-6.5c.1-.3.4-.4.6-.3s.4.4.3.6L19 24.3c-.2.6.1 1 .7 1h2.1c.2 0 .4.2.4.4v6.5c0 .7.6 1.2 1.2 1.2.7 0 1.2-.6 1.2-1.2v-6.4c0-.3.2-.5.5-.5s.5.2.5.5v6.4c0 .7.6 1.2 1.2 1.2.7 0 1.2-.6 1.2-1.2v-6.5c0-.2.2-.4.4-.4h2.1c.6 0 .9-.5.7-1L27.8 14c-.1-.3.1-.5.3-.6.3-.1.5.1.6.3l2.2 6.5c.2.6.8.9 1.4.7.6-.2.9-.9.7-1.4z"/>
</svg>
