<svg xmlns="http://www.w3.org/2000/svg" viewBox="0 0 36 36">
  <path fill="#0568ae" d="M13.904 27.967l-.064-.005c-5.748-.99-9.92-5.946-9.92-11.788 0-6.596 5.366-11.962 11.96-11.962 5.66 0 10.587 4.017 11.72 9.552.053.257.097.517.133.78.028.205-.116.394-.32.422-.207.028-.395-.116-.423-.32-.034-.247-.075-.49-.125-.732-1.062-5.187-5.68-8.952-10.984-8.952-6.18 0-11.21 5.03-11.21 11.212 0 5.476 3.91 10.123 9.297 11.05.204.034.34.228.306.432-.03.182-.19.31-.37.31zm12.57 1.96c3.157-1.478 4.83-4.857 3.656-7.377l-2.034-4.36c-.435-.922-1.54-1.32-2.46-.887-.312.146-.57.375-.754.654-.465-.89-1.56-1.268-2.48-.838-.41.192-.727.523-.91.916-.184-.173-.403-.308-.648-.396-.473-.17-.986-.147-1.444.068-.378.177-.675.47-.864.82L16.51 14.21c-.214-.456-.593-.802-1.068-.973-.475-.17-.987-.147-1.444.067-.943.44-1.352 1.564-.913 2.504l2.964 6.323c-1.444-.813-2.485-.612-3.125-.27-.857.46-1.305 1.35-1.3 1.816.007.498.48.685 1.198.967.935.368 2.5.984 4.267 2.657 1.714 1.624 3.02 2.47 3.52 2.712.83.418 1.774.626 2.747.625 1.036 0 2.108-.236 3.117-.71zm-13.196-7.406c.756-.404 1.74-.22 2.838.536l.102.07c.185.13.356.25.537.355.142.084.32.066.443-.045s.157-.288.087-.436l-3.52-7.51c-.264-.565-.017-1.242.55-1.507.277-.13.587-.144.874-.04.285.103.513.31.64.586l2.567 5.463c.083.176.288.26.47.19s.284-.265.23-.453c-.15-.53.117-1.107.622-1.344.276-.13.585-.144.87-.042.284.103.513.312.644.59l.14.296c.08.17.274.254.452.196.178-.056.288-.235.257-.42-.083-.496.18-.994.636-1.21.568-.264 1.25-.02 1.517.548l.372.792c.074.16.247.245.42.207.172-.038.294-.19.294-.366 0-.433.242-.814.63-.996.548-.256 1.205-.02 1.463.527l2.033 4.36c1.003 2.15-.506 5.074-3.295 6.382-1.747.817-3.696.85-5.215.09-.432-.21-1.685-1.02-3.336-2.585-1.87-1.774-3.522-2.423-4.508-2.812-.288-.113-.61-.24-.717-.323.037-.21.31-.784.898-1.1z"/>
</svg>
