<svg xmlns="http://www.w3.org/2000/svg" viewBox="0 0 36 36">
  <path fill="#0568ae" d="M14.714 12.89c.57 0 1.114.32 1.37.87l2.888 6.194c-.2-.703.143-1.467.824-1.786.21-.098.43-.145.644-.145.568 0 1.11.322 1.368.872l.14.297c-.108-.65.223-1.318.848-1.612.21-.098.428-.144.644-.144.57 0 1.113.323 1.372.87l.372.793c0-.556.312-1.086.848-1.336.203-.095.416-.14.626-.14.553 0 1.082.313 1.334.848l2.033 4.36c1.122 2.406-.573 5.52-3.476 6.88-.975.455-1.99.673-2.956.673-.93 0-1.816-.2-2.583-.586-.496-.243-1.783-1.09-3.43-2.65-2.95-2.8-5.337-2.717-5.345-3.356-.006-.45.69-1.735 2.14-1.735.6 0 1.328.22 2.19.81.217.15.41.29.615.41l-3.843-8.24c-.354-.758-.024-1.653.733-2.007.21-.097.428-.143.644-.143m-2.068 12.92c-.8-.314-1.894-.744-1.91-1.998-.008-.695.375-1.52 1-2.152.673-.682 1.565-1.07 2.522-1.1l-2.28-4.886c-.7-1.502-.047-3.297 1.458-4 .404-.19.834-.285 1.278-.285 1.166 0 2.237.68 2.73 1.734l1.717 3.684c.406-.19.836-.286 1.28-.286.347 0 .685.06 1.003.173.212-.19.453-.35.72-.475.404-.19.835-.286 1.28-.286.64 0 1.254.207 1.76.57l.194-.1c.224-.105.457-.178.695-.224.03-.34.048-.686.048-1.035 0-6.4-5.188-11.587-11.587-11.587S2.966 8.746 2.966 15.145s5.188 11.587 11.587 11.587h.026c-.763-.454-1.423-.72-1.934-.92z"/>
</svg>
