<svg xmlns="http://www.w3.org/2000/svg" viewBox="0 0 36 36">
  <path fill="#0568ae" d="M15.87 9.22c1.242 0 2.333 1.006 2.333 2.25v.644c0 .198.162.36.36.36h3.092c.695 0 1.258.563 1.258 1.258 0 .695-.563 1.258-1.258 1.258h-3.092c-.198 0-.36.162-.36.36v3.47c0 .197.162.36.36.36h5.95c1.975 0 2.626 2.173 2.84 2.773l2.81 6.647c.055.152.206.25.363.25l.105-.015.555-.165c.095-.03.19-.042.286-.042.43 0 .83.28.96.715.157.53-.145 1.086-.674 1.244l-2.667.8-.118.016c-.12.03-.238.05-.355.05-.61 0-1.185-.377-1.408-.984l-3.18-7.6c-.07-.187-.288-.34-.486-.34h-7.911l-.017-.003-.37-.037-.102-.017-.24-.074c-.883-.304-1.522-1.134-1.522-2.12v-8.81c0-1.244 1.244-2.25 2.487-2.25m7.314 15.516c-.945 3.79-4.336 6.437-8.25 6.437-4.688 0-8.503-3.814-8.503-8.503 0-3.497 2.19-6.683 5.452-7.938v-2.634c-.294.085-.585.18-.87.29-4.235 1.616-7.08 5.75-7.08 10.283 0 6.068 4.935 11.004 11.002 11.004 4.082 0 7.72-2.227 9.62-5.66l-1.37-3.278zM15.67 3.076c-1.486 0-2.696 1.21-2.696 2.697s1.21 2.697 2.697 2.697 2.698-1.21 2.698-2.697-1.21-2.697-2.697-2.697z"/>
</svg>
