<svg xmlns="http://www.w3.org/2000/svg" viewBox="0 0 36 36">
  <path fill="#0568ae" d="M13.696 32.798c-5.35 0-9.705-4.353-9.705-9.705 0-4 2.51-7.644 6.247-9.07.487-.186.994-.333 1.507-.438.202-.04.4.09.443.292l.008.076c0 .174-.122.33-.3.367-.473.097-.94.233-1.39.404-3.447 1.316-5.763 4.68-5.763 8.37 0 4.938 4.017 8.955 8.955 8.955 4.126 0 7.7-2.794 8.693-6.793.174-.704.262-1.43.262-2.163 0-.207.168-.375.375-.375s.375.167.375.374c0 .792-.096 1.58-.284 2.343-1.077 4.334-4.95 7.36-9.422 7.36zm15.67-2.306c-.153 0-.296-.095-.352-.246l-3.075-8.372c-.317-.884-.587-1.18-1.075-1.18h-9.01c-.993 0-1.8-.81-1.8-1.802V9.848c0-.207.167-.375.374-.375s.374.168.374.375v3.706h5.81c.208 0 .376.168.376.375s-.168.374-.375.374h-5.81v4.588c0 .58.47 1.05 1.05 1.05h9.01c1.038 0 1.47.806 1.78 1.677l2.95 8.037 1.932-.576c.2-.06.407.055.466.253.06.198-.054.407-.253.466l-2.268.675-.106.017zm-14.9-22.147c-1.417 0-2.57-1.154-2.57-2.572 0-1.418 1.153-2.572 2.57-2.572 1.42 0 2.573 1.155 2.573 2.573s-1.155 2.572-2.573 2.572zm0-4.394c-1.004 0-1.82.818-1.82 1.823s.816 1.822 1.82 1.822 1.823-.817 1.823-1.822-.818-1.822-1.823-1.822z"/>
</svg>
