<svg xmlns="http://www.w3.org/2000/svg" viewBox="0 0 36 36">
  <path fill="#0568ae" d="M4.566 14.918c-.19 0-.352-.143-.372-.335-.022-.206.127-.39.333-.412 1.81-.19 3.567-.84 5.08-1.872 2.704-1.85 4.438-4.78 4.76-8.044.02-.206.208-.356.41-.337.205.02.356.204.336.41-.343 3.484-2.195 6.615-5.082 8.59-1.615 1.103-3.49 1.795-5.424 2h-.04zm-.27-3.166c1.41-.18 2.722-.683 3.897-1.49 2.08-1.42 3.472-3.67 3.82-6.172.03-.205-.114-.394-.32-.423-.203-.026-.393.115-.422.32-.32 2.294-1.595 4.356-3.5 5.657-1.078.74-2.28 1.198-3.57 1.364-.205.026-.35.214-.324.42.024.19.185.327.37.327l.05-.003zm-.344-3.145c.878-.116 1.707-.436 2.462-.952 1.326-.907 2.212-2.342 2.432-3.937.028-.205-.115-.395-.32-.423-.21-.026-.395.115-.423.32-.19 1.387-.96 2.634-2.112 3.42-.656.45-1.375.728-2.136.83-.205.026-.35.215-.323.42.026.19.187.326.372.326l.05-.003zM22.43 31.114s.08-2.8.114-3.893c.17-.16.453-.45.87-.875l.902-.912.197.298.043 3.352c.002.17.12.317.283.36l5.61 1.415c.966.243 1.943-.342 2.188-1.303.035-.137.052-.28.052-.442 0-.83-.56-1.547-1.36-1.747l-3.23-.81V23.47c0-.508-.023-1.052-.192-1.584l-.08-.246c-.107-.274-.25-.535-.433-.794-.18-.262-1.132-1.718-2.058-3.144h.696l1.597 2.2c.237.33.588.545.99.61.396.062.8-.033 1.13-.27.674-.49.826-1.44.337-2.12l-2.396-3.298c-.07-.097-.182-.155-.302-.155H22.75c-.206 0-.374.167-.374.374s.168.375.375.375h4.447l2.283 3.142c.247.343.17.824-.17 1.07-.167.12-.372.168-.573.137-.202-.033-.378-.142-.498-.31l-1.712-2.355c-.07-.097-.183-.154-.303-.154h-1.578c-.138 0-.264.076-.33.197-.066.12-.06.268.015.383 1.03 1.59 2.236 3.438 2.448 3.744.15.212.265.422.347.628l.063.2c.134.42.16.85.16 1.367v3.378c0 .172.118.322.285.364l3.514.88c.465.117.79.536.79 1.02l-.027.257c-.143.56-.715.903-1.277.76l-5.333-1.346-.04-3.173c-.002-.07-.023-.14-.063-.2l-.51-.772c-.072-.107-.2-.17-.32-.168-.07 0-.137.022-.193.058l-.066.052c-.385.38-.834.837-1.23 1.24-.43.438-.838.854-.946.945-.082.07-.13.168-.133.275l-.12 4.05c-.02.58-.51 1.04-1.082 1.017-.28-.008-.542-.125-.735-.33-.192-.205-.293-.472-.284-.752l.154-5.17 3.288-3.184c.13-.124.152-.325.052-.475l-2.068-3.13c-.07-.103-.186-.166-.31-.167-.132.007-.243.06-.314.164l-1.28 1.88H15.47c-.425 0-.77-.343-.77-.765s.345-.765.77-.765h2.624c.125 0 .24-.062.31-.166.053-.077 1.27-1.882 1.573-2.37.11-.175.056-.406-.12-.516-.176-.11-.407-.056-.517.12-.244.39-1.13 1.714-1.446 2.182h-2.426c-.837 0-1.518.68-1.518 1.515 0 .835.68 1.515 1.518 1.515H19.3c.125 0 .24-.062.31-.164l1.077-1.582 1.588 2.403-3.173 3.07c-.07.07-.11.162-.114.26l-.16 5.32c-.015.48.158.94.488 1.29.33.352.778.553 1.258.566h.056c.964.002 1.766-.768 1.8-1.742zM20.622 14.93c.563-.356.952-.912 1.098-1.565.146-.652.03-1.32-.328-1.884-.46-.724-1.25-1.157-2.11-1.157-.476 0-.94.135-1.34.39-.56.358-.95.914-1.097 1.566-.145.645-.028 1.314.33 1.882.46.726 1.25 1.16 2.112 1.16.472 0 .934-.136 1.336-.39zm.135-3.046c.25.393.33.862.23 1.318-.102.457-.375.846-.768 1.096-.28.18-.604.273-.935.273-.604 0-1.157-.302-1.478-.808-.25-.4-.333-.867-.232-1.318.103-.458.376-.848.768-1.097.28-.18.605-.273.937-.273.602 0 1.155.302 1.478.81z"/>
</svg>
