<svg xmlns="http://www.w3.org/2000/svg" viewBox="0 0 36 36">
  <path fill="#0568ae" d="M4.757 16.85c-.505 0-.94-.38-.993-.893-.058-.55.34-1.042.89-1.1 1.912-.203 3.768-.888 5.367-1.98 2.856-1.953 4.688-5.05 5.028-8.5.054-.55.543-.953 1.093-.896.55.055.952.544.898 1.094-.398 4.038-2.544 7.666-5.888 9.954-1.872 1.278-4.045 2.08-6.286 2.317l-.107.006zm-.224-3.516c1.658-.213 3.198-.802 4.578-1.75 2.443-1.667 4.08-4.31 4.49-7.248.075-.547-.307-1.052-.853-1.13-.55-.078-1.053.306-1.13.853-.332 2.382-1.657 4.523-3.636 5.875-1.116.767-2.362 1.243-3.702 1.416-.548.07-.935.573-.864 1.12.065.504.495.872.99.872l.13-.008zm-.38-3.49c1.066-.14 2.07-.527 2.984-1.152 1.606-1.1 2.68-2.837 2.947-4.77.075-.547-.307-1.052-.854-1.127-.55-.076-1.052.307-1.127.854-.19 1.374-.954 2.61-2.095 3.39-.652.447-1.365.723-2.117.823-.547.072-.932.574-.86 1.122.066.503.496.87.99.87l.133-.01zm14.957 21.12c-.026.802.61 1.477 1.415 1.5.804.025 1.474-.607 1.503-1.41l.105-3.59c.01-.303.19-.728.404-.944l1.602-1.602c.156-.156.398-.115.52.134.145.217.265.642.27.946l.03 2.434c.004.304.248.613.543.687l5.2 1.312c.78.196 1.573-.276 1.77-1.055.03-.12.042-.24.042-.358 0-.655-.435-1.25-1.1-1.414l-3.057-.766c-.295-.074-.536-.383-.536-.687V23.25c0-.574-.035-1.05-.183-1.514l-.07-.215c-.094-.238-.22-.48-.4-.733-.22-.32-2.194-3.352-2.194-3.352-.165-.255-.052-.463.25-.463h.562c.275 0 .646.2.824.447l1.425 1.96c.376.524 1.104.637 1.63.26.518-.376.635-1.108.26-1.63L27.8 15.085c-.177-.246-.572-.447-.876-.447h-3.636c-.304 0-.772.116-1.04.258l-2.185 1.155c-.27.143-.626.466-.794.72l-.987 1.492c-.17.252-.557.458-.86.458H15.29c-.646 0-1.168.52-1.168 1.166 0 .64.522 1.165 1.168 1.165h3.366c.304 0 .692-.204.863-.456l.8-1.176c.17-.25.447-.25.614.004L22.44 21.7c.166.252.125.633-.093.844l-2.68 2.594c-.217.21-.403.632-.412.936l-.145 4.89m2.145-19.245c-.4-.63-1.086-1.007-1.835-1.007-.41 0-.815.117-1.163.34-.49.31-.827.794-.954 1.36-.126.567-.023 1.148.288 1.637.4.63 1.088 1.007 1.835 1.007.41 0 .813-.117 1.162-.34 1.01-.643 1.31-1.988.668-2.998z"/>
</svg>
