<svg xmlns="http://www.w3.org/2000/svg" viewBox="0 0 36 36">
  <path fill="#0568ae" d="M28.64 27.084v.067c0 2.973-4.745 5.3-10.802 5.3-3.134 0-6.1-.647-8.138-1.776-.18-.1-.246-.33-.146-.51s.328-.247.51-.146c1.93 1.07 4.764 1.683 7.774 1.683 5.542 0 10.05-2.04 10.05-4.55v-.07c.002-.176.002-.265-.048-.558l-.048-.288c-.055-.326-.12-.72-.202-1.158-.36-2.008-1.098-5.64-2.007-7.413-.563-1.258-2.29-2.308-4.63-2.828l-.05-.013c-.15-.02-.266-.13-.303-.28-.037-.147.028-.3.15-.39l.11-.08c1.09-.72 1.89-1.81 2.248-3.064.143-.492.215-.997.215-1.5 0-3.02-2.46-5.477-5.484-5.477S12.355 6.49 12.355 9.51c0 .505.076 1.02.227 1.53.354 1.21 1.13 2.273 2.183 2.993l.077.058.064.048c.132.082.2.237.17.39-.03.153-.15.27-.303.298l-.11.026c-2.293.52-4.002 1.564-4.553 2.79-.9 1.766-1.64 5.36-2.003 7.345-.038.204-.23.338-.437.302-.203-.037-.34-.232-.3-.436.452-2.475 1.176-5.79 2.065-7.533.582-1.298 2.214-2.412 4.422-3.034-.947-.79-1.647-1.85-1.994-3.033-.17-.58-.257-1.165-.257-1.74 0-3.435 2.796-6.228 6.233-6.228s6.233 2.793 6.233 6.227c0 .573-.083 1.148-.245 1.707-.343 1.2-1.042 2.27-1.997 3.067 2.21.624 3.84 1.74 4.43 3.056.945 1.844 1.702 5.556 2.07 7.604.08.44.148.84.203 1.168l.048.286c.06.355.06.494.06.686z"/>
</svg>
