<svg xmlns="http://www.w3.org/2000/svg" viewBox="0 0 36 36">
  <path fill="#0568ae" d="M28.13 25.142c-.408-2.266-1.146-5.763-2.044-7.516-.613-1.37-2.46-2.485-4.883-3.024l-.06-.015.09-.067c1.15-.763 2.016-1.918 2.404-3.276.15-.51.23-1.044.23-1.604 0-3.237-2.624-5.852-5.86-5.852-3.232 0-5.856 2.615-5.856 5.852 0 .572.088 1.12.24 1.636.386 1.318 1.224 2.438 2.33 3.197l.158.114-.11.026c-2.065.467-3.71 1.355-4.514 2.463-.127.176-.234.357-.318.543-.25.488-.487 1.114-.708 1.81-.574 1.8-1.043 4.076-1.336 5.71l-.25 1.45c-.044.232-.075.464-.075.693 0 1.697 1.804 3.19 4.56 4.074 1.674.536 3.698.85 5.882.85 5.788 0 10.424-2.198 10.424-4.925 0-.23.008-.328-.054-.692l-.25-1.448z"/>
</svg>
