<svg xmlns="http://www.w3.org/2000/svg" viewBox="0 0 36 36">
  <path fill="#0568ae" d="M7.8 9c-.5-1.3-.4-2.8.2-4.2.9-1.9 2.8-3.2 5-3.2.8 0 1.6.2 2.3.5 2.7 1.3 3.9 4.5 2.6 7.3-.4.8-1 1.5-1.7 2.1v-3c0-1.8-1.5-3.3-3.3-3.3-1.8 0-3.3 1.5-3.3 3.3v3.1C8.9 10.9 8.2 10 7.8 9zm11.7 18c0-3.5 2.4-6.4 5.6-7.3v-.3c0-1-.8-1.7-1.7-1.7-.7 0-1.3.4-1.6 1v-1c0-1-.8-1.8-1.8-1.8-.8 0-1.5.6-1.7 1.3v-.4c0-1-.8-1.8-1.8-1.8-.9 0-1.6.6-1.8 1.5v-8c0-1-.8-1.8-1.8-1.8s-1.8.8-1.8 1.8v10.7c-.2-.2-.3-.5-.5-.7-1-1.7-2.1-2.2-3-2.2-1.1 0-1.9.7-2.1 1-.3.7 2.3 1.8 4 6.3 1 2.5 1.9 4 2.3 4.5 1.3 1.6 3.5 2.7 5.9 2.7.8 0 1.6-.1 2.3-.3-.2-1.1-.5-2.3-.5-3.5zm7.5-6c-3.3 0-6 2.7-6 6s2.7 6 6 6 6-2.7 6-6-2.7-6-6-6zm.9 2.1l-.2 5.1h-1.3l-.2-5.1h1.7zm-.2 7.5c-.2.2-.4.3-.7.3-.3 0-.5-.1-.7-.3-.2-.2-.3-.4-.3-.7 0-.3.1-.5.3-.7.2-.2.4-.3.7-.3.3 0 .5.1.7.3.2.2.3.4.3.7-.1.3-.1.6-.3.7z"/>
</svg>
