<svg xmlns="http://www.w3.org/2000/svg" viewBox="0 0 36 36">
  <path fill="#0568ae" d="M18 24.375c-3.68 0-6.672-2.993-6.672-6.672S14.32 11.03 18 11.03s6.672 2.994 6.672 6.673S21.68 24.375 18 24.375zm0-12.594c-3.266 0-5.922 2.658-5.922 5.923 0 3.266 2.657 5.922 5.922 5.922s5.922-2.657 5.922-5.922c0-3.266-2.656-5.922-5.922-5.922zm0 8.187c-1.25 0-2.264-1.016-2.264-2.264 0-1.25 1.016-2.264 2.264-2.264 1.25 0 2.264 1.015 2.264 2.263S19.25 19.967 18 19.967zm0-3.78c-.835 0-1.514.68-1.514 1.515s.68 1.514 1.514 1.514 1.514-.68 1.514-1.514-.68-1.514-1.514-1.514zm-14.937.207c.563-.773 5.77-7.55 14.937-7.55 9.165 0 14.374 6.777 14.938 7.55.122.167.355.202.524.08.167-.12.204-.356.082-.523-.587-.803-6.01-7.855-15.544-7.855-9.54 0-14.957 7.053-15.543 7.857-.122.167-.085.402.082.524.066.05.143.072.22.072.115 0 .23-.054.303-.154z"/>
</svg>
