<svg xmlns="http://www.w3.org/2000/svg" viewBox="0 0 36 36">
  <path fill="#0568ae" d="M18 13.367c-3.478 0-6.297 2.82-6.297 6.297 0 3.478 2.82 6.297 6.297 6.297 3.478 0 6.297-2.818 6.297-6.296s-2.82-6.297-6.297-6.297zm0 8.186c-1.043 0-1.89-.846-1.89-1.89 0-1.042.847-1.888 1.89-1.888 1.044 0 1.89.846 1.89 1.89 0 1.042-.846 1.888-1.89 1.888zM3.28 18.98c-.306 0-.616-.094-.882-.288-.67-.488-.816-1.426-.328-2.096.966-1.325 6.263-7.934 15.69-7.934 9.424 0 14.723 6.608 15.69 7.933.488.67.34 1.608-.328 2.096-.67.49-1.608.343-2.096-.327-.5-.686-5.125-6.7-13.266-6.7-8.144 0-12.766 6.014-13.266 6.7-.294.404-.75.617-1.214.617z"/>
</svg>
