<svg xmlns="http://www.w3.org/2000/svg" viewBox="0 0 36 36">
  <path fill="#0568ae" d="M10.43 23.95c-1.54-.006-2.97-.228-4.152-.607C4.296 22.706 3 21.633 3 20.413c0-.164.022-.33.053-.497l.18-1.043c.212-1.175.55-2.81.96-4.104.16-.502.33-.952.51-1.303.06-.134.137-.264.228-.39.58-.798 1.76-1.436 3.246-1.772l.08-.02-.114-.08c-.796-.546-1.398-1.352-1.677-2.3-.107-.37-.17-.764-.17-1.175 0-2.327 1.887-4.207 4.21-4.207 2.327 0 4.213 1.88 4.213 4.207 0 .402-.06.787-.165 1.153-.28.977-.9 1.807-1.728 2.355l-.065.048.043.01c1.743.387 3.07 1.19 3.51 2.174.18.35.35.798.508 1.296-1.612.25-3.102.99-4.28 2.167-1.462 1.463-2.268 3.408-2.268 5.476 0 .52.056 1.037.158 1.54zm22.53-4.034l-.18-1.043c-.292-1.63-.823-4.143-1.468-5.403-.44-.985-1.767-1.786-3.51-2.174l-.043-.01.064-.048c.827-.548 1.45-1.378 1.728-2.355.107-.366.165-.75.165-1.153 0-2.327-1.886-4.207-4.212-4.207-2.324 0-4.21 1.88-4.21 4.207 0 .41.063.804.17 1.176.28.947.88 1.753 1.678 2.298l.113.082-.08.02c-1.484.335-2.666.973-3.244 1.77-.09.126-.168.257-.228.39-.178.352-.35.8-.507 1.298 1.62.247 3.115.99 4.297 2.17 1.462 1.463 2.267 3.408 2.267 5.476 0 .524-.052 1.04-.153 1.542C29.72 23.926 33 22.358 33 20.414c0-.165.005-.237-.04-.498zm-8.7 2.493c0 1.666-.65 3.235-1.83 4.415-1.178 1.18-2.747 1.83-4.415 1.83-1.247 0-2.44-.367-3.473-1.062l-4.61 4.61c-.234.233-.544.362-.874.362-.33 0-.64-.128-.874-.36-.234-.235-.362-.546-.362-.876 0-.33.13-.642.362-.875l4.617-4.617c-.675-1.02-1.03-2.2-1.03-3.43 0-1.667.65-3.235 1.83-4.414 1.18-1.18 2.746-1.83 4.413-1.83 1.667 0 3.235.65 4.416 1.83 1.18 1.18 1.83 2.748 1.83 4.415zM14.23 22.4c0 2.084 1.694 3.78 3.78 3.78 2.083 0 3.778-1.696 3.778-3.78 0-2.084-1.695-3.78-3.78-3.78-2.084 0-3.78 1.696-3.78 3.78z"/>
</svg>
