<svg xmlns="http://www.w3.org/2000/svg" viewBox="0 0 36 36">
  <path fill="#0568ae" d="M9.468 24.25c-1.175-.074-2.318-.28-3.305-.596-2.217-.712-3.54-1.94-3.54-3.288 0-.166.02-.345.06-.566l.076-.436.103-.606c.21-1.157.547-2.817.973-4.15.174-.55.354-1.008.532-1.36.065-.143.156-.297.26-.442.544-.748 1.524-1.354 2.8-1.74-.63-.575-1.085-1.3-1.32-2.103-.126-.42-.19-.852-.19-1.282 0-2.526 2.06-4.58 4.587-4.58 2.53 0 4.587 2.054 4.587 4.58 0 .422-.06.845-.18 1.258-.234.82-.695 1.556-1.323 2.128 1.532.46 2.638 1.247 3.066 2.203.087.17.18.384.27.617l.138.374c.066.197-.038.41-.234.477-.194.065-.41-.04-.475-.235l-.125-.342c-.084-.21-.166-.4-.25-.57-.395-.876-1.61-1.61-3.26-1.976-.15-.013-.277-.117-.322-.26-.046-.145.002-.304.117-.402l.106-.078c.76-.504 1.32-1.266 1.57-2.143.1-.345.15-.698.15-1.048 0-2.113-1.72-3.832-3.836-3.832-2.115 0-3.836 1.72-3.836 3.832 0 .358.053.718.157 1.07.25.846.79 1.59 1.528 2.094l.063.047c.134.082.22.25.19.405-.03.154-.137.286-.292.31l-.07.017c-1.387.314-2.49.906-3.01 1.622-.076.104-.14.214-.19.326-.17.33-.333.75-.495 1.262-.414 1.296-.746 2.922-.95 4.057l-.103.595-.078.45c-.033.175-.048.31-.048.43 0 .988 1.157 1.974 3.02 2.572.928.296 2.008.49 3.123.56.23.016.462.025.698.03.207.002.372.173.37.38-.004.205-.172.37-.376.37H10.2c-.247-.005-.492-.015-.732-.03zm23.85-4.45l-.077-.446-.1-.594c-.21-1.156-.548-2.815-.974-4.152-.177-.555-.357-1.013-.525-1.343-.07-.157-.16-.31-.268-.458-.542-.746-1.517-1.35-2.8-1.74.625-.567 1.085-1.296 1.32-2.103.128-.428.192-.86.192-1.282 0-2.527-2.06-4.582-4.59-4.582-2.528 0-4.587 2.055-4.587 4.582 0 .423.06.846.18 1.256.235.817.692 1.55 1.326 2.13-1.542.465-2.642 1.247-3.057 2.182-.095.182-.19.397-.283.636l-.117.317-.02.053c-.07.195.033.41.227.48.195.07.41-.032.48-.227l.018-.055.11-.295c.084-.217.17-.406.26-.585.38-.855 1.582-1.583 3.26-1.965.143-.02.264-.12.308-.258.046-.144 0-.302-.115-.4l-.1-.074c-.764-.506-1.323-1.27-1.577-2.148-.1-.344-.15-.696-.15-1.048 0-2.113 1.722-3.832 3.837-3.832 2.117 0 3.84 1.72 3.84 3.832 0 .35-.055.71-.16 1.07-.25.847-.792 1.59-1.536 2.1l-.09.067c-.134.08-.204.24-.173.394.03.154.155.273.312.296l.053.013c1.4.317 2.503.91 3.024 1.626.077.104.142.213.2.34.157.31.32.73.485 1.246.413 1.3.744 2.923.948 4.058l.1.583.08.46c.032.174.047.31.047.43 0 .99-1.157 1.975-3.02 2.573-.93.298-2.01.492-3.124.563-.228.015-.46.024-.698.028-.206.004-.372.175-.368.382.003.205.17.37.375.37h.01c.247-.005.493-.015.732-.03 1.192-.076 2.304-.276 3.307-.597 2.248-.722 3.54-1.92 3.54-3.287-.002-.168-.02-.35-.062-.57zM22.51 17.87c1.203 1.202 1.865 2.8 1.865 4.5 0 1.698-.662 3.296-1.864 4.5-1.2 1.202-2.8 1.864-4.5 1.864-1.27 0-2.488-.373-3.538-1.08l-4.7 4.698c-.238.238-.554.37-.89.37-.335 0-.65-.132-.89-.37-.238-.238-.37-.554-.37-.89 0-.338.132-.654.37-.892l4.706-4.706c-.69-1.04-1.052-2.24-1.052-3.495 0-1.7.663-3.3 1.865-4.5s2.8-1.865 4.5-1.865c1.7 0 3.3.663 4.5 1.864zm1.115 4.5c0-1.5-.584-2.91-1.645-3.97-1.06-1.06-2.47-1.645-3.97-1.645s-2.91.584-3.968 1.644c-1.062 1.06-1.646 2.47-1.646 3.97 0 1.2.377 2.346 1.09 3.314.11.15.096.356-.036.488L8.52 31.1c-.096.096-.15.224-.15.36 0 .136.054.264.15.36.193.193.528.193.722 0l4.922-4.922c.13-.132.34-.147.49-.035.978.733 2.138 1.12 3.355 1.12 1.5 0 2.91-.583 3.97-1.643 1.06-1.062 1.645-2.47 1.645-3.97zm-5.614-4.595c-1.226 0-2.38.478-3.248 1.346-.146.147-.146.385 0 .53.146.147.384.147.53 0 .726-.726 1.692-1.126 2.72-1.126 1.025 0 1.99.4 2.718 1.127.726.726 1.125 1.69 1.125 2.72s-.4 1.993-1.125 2.718c-.728.726-1.693 1.126-2.72 1.126-.206 0-.374.168-.374.375s.17.374.375.374c1.228 0 2.382-.478 3.25-1.346.87-.867 1.346-2.02 1.346-3.25 0-1.228-.478-2.382-1.345-3.25-.87-.865-2.022-1.343-3.25-1.343z"/>
</svg>
