<svg xmlns="http://www.w3.org/2000/svg" viewBox="0 0 36 36">
  <path fill="#0568ae" d="M29 19.4v7c0 .2-.2.4-.4.4s-.4-.2-.4-.4v-7c0-.4-.2-.8-.5-1.1-.3-.3-.7-.5-1.2-.5-.6 0-1.2.3-1.4.9v1.2c0 .2-.2.4-.4.4s-.4-.2-.4-.4v-2.4c0-.9-.8-1.7-1.7-1.7-.7 0-1.4.5-1.6 1.2v2.3c0 .2-.2.4-.4.4s-.4-.2-.4-.4v-2.8c0-.9-.7-1.7-1.7-1.7-.8 0-1.5.6-1.7 1.4v2.5c0 .2-.2.4-.4.4s-.4-.2-.4-.4V6.1c0-.4-.2-.9-.5-1.2-.3-.3-.7-.5-1.2-.5-.9 0-1.7.8-1.7 1.7v13.1c0 .2-.1.3-.3.4-.2 0-.3 0-.4-.1l-.6-.9c-.9-1.6-2.1-2.4-3.3-2.4-1 .1-1.8.7-1.9 1 0 .1.4.5.8.9 1 1 2.6 2.8 3.9 6 1.2 2.9 2.2 4.7 2.6 5.1.1.2.1.4-.1.5-.1.1-.2.1-.2.1-.1 0-.2 0-.3-.1-.5-.6-1.6-2.3-2.8-5.3-1.2-3.1-2.8-4.8-3.8-5.8-.7-.7-1.1-1.2-.9-1.7.7-.7 1.7-1.5 3-1.5 1-.1 2.5.3 3.8 2.5V6.1c0-1.3 1.1-2.4 2.4-2.4.7 0 1.3.3 1.7.7.5.4.8 1 .8 1.6v8.6c.4-.4 1-.7 1.7-.7 1.1 0 2 .7 2.3 1.7.4-.4 1.1-.7 1.7-.7 1.3 0 2.4 1.1 2.4 2.4v.1c.4-.3.9-.5 1.4-.5.6 0 1.2.2 1.7.7.5.6.8 1.2.8 1.8zm-9.8-8.3V5c0-.8.7-1.5 1.5-1.5h6.1c.8 0 1.5.7 1.5 1.5v6.1c0 .8-.7 1.5-1.5 1.5h-6.1c-.9 0-1.5-.7-1.5-1.5zm.7 0c0 .4.3.7.7.7h6.1c.4 0 .7-.3.7-.7V5c0-.4-.3-.7-.7-.7h-6.1c-.4 0-.7.3-.7.7v6.1z"/>
</svg>
