<svg xmlns="http://www.w3.org/2000/svg" viewBox="0 0 36 36">
  <path fill="#0568ae" d="M18.042 19c-3.313 0-6 2.687-6 6s2.687 6 6 6c3.314 0 6-2.687 6-6s-2.686-6-6-6zm2.862 7h-1.86v1.862c0 .552-.45 1-1 1s-1-.448-1-1V26H15.18c-.552 0-1-.448-1-1s.448-1 1-1h1.862v-1.862c0-.552.448-1 1-1s1 .448 1 1V24h1.86c.553 0 1 .448 1 1 .002.552-.446 1-.998 1zm12.138-3.017c0 1.96-3.333 3.54-7.494 3.54l-.16-.006c.1-.49.154-.998.154-1.518 0-3.756-2.776-6.866-6.382-7.408l.077-.253c.16-.502.33-.952.51-1.304.06-.134.136-.264.228-.39.578-.798 1.76-1.436 3.245-1.772l.08-.02-.114-.08c-.796-.546-1.398-1.352-1.677-2.3-.11-.37-.172-.764-.172-1.175 0-2.328 1.886-4.208 4.21-4.208 2.326 0 4.212 1.88 4.212 4.207 0 .402-.06.786-.166 1.152-.28.977-.9 1.807-1.728 2.355l-.065.048.044.01c1.743.387 3.07 1.19 3.51 2.174.646 1.26 1.176 3.772 1.47 5.402l.18 1.043c.044.262.038.334.038.498zM10.698 26.52l-.15.004c-1.57 0-3.025-.226-4.227-.61-1.98-.637-3.277-1.71-3.277-2.93 0-.165.023-.332.053-.497l.18-1.043c.212-1.175.55-2.81.96-4.104.16-.5.33-.95.51-1.303.06-.134.137-.264.228-.39.578-.798 1.76-1.436 3.245-1.772l.078-.02-.113-.08c-.796-.546-1.398-1.352-1.677-2.3-.108-.37-.17-.764-.17-1.175 0-2.327 1.885-4.207 4.21-4.207s4.21 1.88 4.21 4.207c0 .403-.058.787-.165 1.153-.28.977-.9 1.807-1.728 2.355l-.065.048.043.01c1.743.387 3.07 1.19 3.51 2.174.21.41.406.95.587 1.55-3.614.534-6.4 3.648-6.4 7.41.002.52.056 1.03.158 1.52z"/>
</svg>
