<svg xmlns="http://www.w3.org/2000/svg" viewBox="0 0 36 36">
  <path fill="#0568ae" d="M10.595 26.497c-.003.205-.17.37-.375.37h-.006c-.247-.005-.492-.016-.732-.03-1.175-.074-2.318-.28-3.305-.597-2.217-.712-3.54-1.94-3.54-3.287 0-.165.02-.345.06-.566l.076-.437.104-.605c.21-1.157.547-2.817.973-4.15.174-.55.354-1.008.532-1.36.065-.144.156-.297.26-.442.544-.748 1.524-1.354 2.8-1.74-.63-.575-1.085-1.3-1.32-2.103-.126-.42-.19-.852-.19-1.282 0-2.527 2.06-4.582 4.587-4.582 2.528 0 4.586 2.056 4.586 4.582 0 .42-.06.844-.18 1.257-.234.82-.695 1.556-1.323 2.128 1.533.46 2.64 1.247 3.067 2.203.087.172.18.385.27.618l.138.374c.066.196-.038.41-.234.476-.194.066-.41-.04-.475-.235l-.126-.343c-.083-.21-.166-.4-.25-.57-.395-.876-1.61-1.61-3.26-1.976-.15-.012-.277-.116-.322-.26-.046-.144 0-.303.117-.4l.105-.08c.76-.503 1.32-1.265 1.57-2.142.1-.346.15-.7.15-1.05 0-2.112-1.72-3.83-3.837-3.83-2.115 0-3.836 1.718-3.836 3.83 0 .36.053.72.157 1.07.247.848.79 1.59 1.527 2.095l.063.047c.134.082.22.25.19.405-.03.154-.137.286-.292.31l-.07.018c-1.387.313-2.49.906-3.01 1.622-.076.104-.14.214-.19.326-.17.332-.333.75-.495 1.263-.413 1.296-.745 2.922-.95 4.058l-.102.595-.077.45c-.032.175-.047.312-.047.43 0 .99 1.157 1.975 3.02 2.573.928.297 2.008.49 3.122.562.23.015.462.024.698.028.208 0 .373.17.37.38zm22.737-4.112l-.077-.445-.102-.595c-.208-1.156-.547-2.815-.973-4.15-.177-.556-.356-1.014-.525-1.344-.072-.156-.16-.31-.27-.456-.54-.746-1.516-1.35-2.798-1.74.624-.567 1.084-1.296 1.32-2.103.127-.427.19-.858.19-1.28 0-2.528-2.058-4.583-4.588-4.583-2.53 0-4.59 2.056-4.59 4.582 0 .422.062.844.18 1.255.236.817.693 1.55 1.327 2.13-1.542.465-2.642 1.246-3.057 2.182-.095.182-.19.397-.283.636l-.117.317-.02.053c-.07.195.033.41.228.48s.41-.033.48-.227l.018-.054.11-.295c.083-.217.168-.406.26-.585.38-.855 1.58-1.583 3.26-1.965.142-.02.263-.12.307-.258.046-.145 0-.303-.115-.4l-.1-.075c-.764-.506-1.323-1.27-1.577-2.148-.098-.344-.15-.696-.15-1.048 0-2.114 1.723-3.833 3.838-3.833 2.117 0 3.84 1.72 3.84 3.832 0 .35-.055.71-.16 1.07-.25.846-.79 1.59-1.536 2.098l-.09.068c-.134.083-.204.24-.173.395.03.155.154.274.31.297l.054.013c1.402.317 2.504.91 3.025 1.626.076.105.14.214.198.34.158.31.32.73.486 1.247.414 1.3.745 2.923.95 4.058l.1.584.08.46c.03.173.046.31.046.43 0 .988-1.157 1.974-3.018 2.572-.93.297-2.01.49-3.125.562-.23.015-.462.024-.7.028-.205.004-.37.174-.367.38.003.206.17.37.375.37h.007c.247-.004.493-.015.732-.03 1.192-.075 2.304-.275 3.307-.596 2.25-.723 3.54-1.92 3.54-3.287.002-.168-.017-.348-.058-.568zm-8.943 2.58c0 3.516-2.86 6.376-6.376 6.376s-6.375-2.86-6.375-6.374 2.86-6.375 6.374-6.375c3.516 0 6.375 2.86 6.375 6.376zm-.75 0c0-3.1-2.524-5.624-5.626-5.624s-5.625 2.524-5.625 5.626c0 3.1 2.522 5.625 5.624 5.625s5.625-2.522 5.625-5.624zm-2.446-.374H18.39v-2.804c0-.207-.17-.375-.376-.375s-.375.17-.375.376v2.805h-2.806c-.207 0-.375.17-.375.376s.167.375.374.375h2.805v2.806c0 .207.167.375.374.375s.375-.167.375-.374V25.34h2.804c.207 0 .375-.167.375-.374s-.17-.375-.376-.375z"/>
</svg>
