<svg xmlns="http://www.w3.org/2000/svg" viewBox="0 0 36 36">
  <path fill="#0568ae" d="M12.704 14.427l-.154.256c-.095.19-.19.433-.283.72-.17.54-.34 1.26-.502 2.148l-.018.102-.073.426-.033.322c0 .783.706 1.458 1.937 1.854.676.216 1.462.33 2.274.33 2.397 0 4.203-.94 4.203-2.21l-.025-.29-.024-.136-.07-.4c-.136-.763-.42-2.15-.775-2.846-.216-.477-.718-.875-1.4-1.13.238-.277.417-.602.518-.955.065-.226.1-.46.1-.693 0-1.392-1.133-2.523-2.527-2.523s-2.526 1.133-2.526 2.524c0 .236.035.474.105.706.1.347.277.668.515.942-.554.207-.985.502-1.24.855zm.523.58l.08-.134c.237-.326.773-.61 1.45-.764.154-.024.27-.14.306-.29.034-.15-.032-.31-.16-.397l-.048-.036c-.34-.233-.592-.578-.708-.97-.05-.165-.074-.33-.074-.495 0-.978.797-1.773 1.777-1.773.98 0 1.775.794 1.775 1.772 0 .163-.023.326-.07.485-.116.406-.374.76-.72.988l-.078.058c-.116.098-.16.256-.115.4.044.135.16.233.296.255v.002c.776.172 1.364.516 1.543.914.234.458.495 1.425.715 2.658l.068.388.023.142.014.188c0 .678-1.417 1.433-3.452 1.433-.736 0-1.442-.102-2.044-.294-.86-.277-1.416-.724-1.416-1.14l.022-.188.075-.436.016-.095c.16-.85.32-1.54.48-2.048.08-.247.164-.458.247-.624zm4.736 8.772c0 .206-.168.374-.375.374H5.613c-1.2 0-2.176-.976-2.176-2.175V8.987c0-1.2.977-2.175 2.176-2.175H26.08c1.2 0 2.174.976 2.174 2.175v2.626c0 .207-.168.375-.375.375s-.377-.17-.377-.376V8.988c0-.786-.638-1.425-1.422-1.425H5.614c-.785 0-1.425.64-1.425 1.425V21.98c0 .786.64 1.425 1.425 1.425h11.975c.207 0 .375.167.375.374zm15.094 4.67l-.047-.274-.11-.636c-.23-1.288-.71-3.625-1.304-4.785-.37-.827-1.31-1.508-2.615-1.918.52-.494.903-1.12 1.103-1.815.105-.363.158-.735.158-1.107 0-2.224-1.81-4.033-4.036-4.033-2.228 0-4.04 1.81-4.04 4.033 0 .377.058.756.168 1.13.2.68.58 1.296 1.102 1.792-1.08.34-1.913.863-2.38 1.506-.094.13-.175.266-.232.392-.154.304-.31.703-.466 1.19-.37 1.16-.664 2.606-.846 3.614l-.085.5-.07.404c-.037.195-.054.354-.054.5 0 1.21 1.136 2.27 3.114 2.906 1.125.36 2.435.55 3.792.55 3.865 0 6.892-1.518 6.892-3.493-.002-.14-.004-.23-.04-.458zm-.712.497c0 1.466-2.812 2.705-6.142 2.705-1.28 0-2.513-.178-3.563-.514-1.6-.514-2.592-1.353-2.592-2.19 0-.1.013-.216.04-.362l.074-.424.084-.49c.178-.985.465-2.397.822-3.52.143-.447.285-.81.427-1.09l.163-.277c.445-.613 1.394-1.12 2.586-1.39l.065-.017c.153-.026.263-.154.292-.308.03-.153-.05-.316-.184-.398l-.06-.045c-.632-.432-1.097-1.07-1.31-1.795-.09-.304-.135-.612-.135-.917 0-1.81 1.476-3.283 3.29-3.283 1.81 0 3.286 1.473 3.286 3.283 0 .3-.044.604-.13.9-.216.752-.695 1.405-1.345 1.837l-.09.065c-.12.096-.17.255-.127.4.044.146.168.25.32.267 1.398.31 2.468.953 2.8 1.695.56 1.09 1.02 3.346 1.243 4.595l.11.625.045.277c.03.174.03.222.03.37z"/>
</svg>
