<svg xmlns="http://www.w3.org/2000/svg" viewBox="0 0 36 36">
  <path fill="#0568ae" d="M32.81 26.516l-.052-.296-.13-.75c-.265-1.478-.813-4.16-1.494-5.49-.427-.954-1.528-1.737-3.066-2.202.627-.572 1.088-1.308 1.322-2.127.12-.41.18-.833.18-1.257 0-2.527-2.057-4.582-4.586-4.582-2.528 0-4.586 2.057-4.586 4.583 0 .427.063.858.187 1.282.236.803.693 1.528 1.322 2.103-1.276.386-2.257.993-2.802 1.743-.108.15-.198.304-.258.44-.177.35-.357.807-.53 1.36-.43 1.344-.768 3-.974 4.148l-.112.646-.068.4c-.04.218-.06.397-.06.565 0 1.365 1.29 2.563 3.54 3.286 1.283.41 2.785.63 4.343.63 4.413 0 7.87-1.72 7.87-3.963-.002-.16-.003-.26-.046-.517zm-7.827 3.728c-1.48 0-2.903-.205-4.113-.593-1.862-.597-3.02-1.582-3.02-2.57 0-.122.017-.257.048-.43l.07-.412.11-.634c.167-.925.51-2.682.95-4.057.163-.515.327-.933.494-1.263.047-.107.11-.216.188-.324.52-.716 1.624-1.31 3.01-1.623l.074-.018c.155-.027.262-.16.29-.314.03-.155-.058-.323-.192-.403l-.06-.045c-.738-.505-1.28-1.25-1.53-2.094-.103-.355-.156-.715-.156-1.07 0-2.114 1.72-3.833 3.836-3.833 2.115 0 3.837 1.72 3.837 3.833 0 .354-.052.706-.152 1.05-.25.877-.81 1.64-1.577 2.148l-.08.06c-.117.09-.15.242-.12.385.032.143.165.26.307.292 1.65.367 2.867 1.1 3.26 1.98.645 1.26 1.175 3.86 1.433 5.3l.128.74.05.297c.036.203.035.264.034.435 0 1.714-3.26 3.164-7.12 3.164zm-7.637-12.236c-.277-1.1-.567-1.965-.843-2.502-.393-.88-1.608-1.612-3.26-1.98-.14-.03-.272-.146-.304-.29-.033-.14 0-.294.114-.383l.094-.068c.758-.503 1.317-1.265 1.57-2.143.1-.345.15-.698.15-1.05 0-2.113-1.723-3.832-3.84-3.832S7.193 7.48 7.193 9.592c0 .352.053.712.16 1.07.248.847.79 1.59 1.527 2.094l.06.045c.135.08.222.25.192.405-.03.155-.136.287-.292.313l-.075.018c-1.61.364-2.81 1.093-3.197 1.946-.648 1.272-1.183 3.878-1.444 5.32l-.097.566-.083.48c-.03.17-.046.307-.046.427 0 1.716 3.266 3.165 7.132 3.165 1.583 0 3.084-.232 4.338-.67.197-.068.41.036.478.232.068.195-.035.41-.23.477-1.334.464-2.92.71-4.586.71-4.42 0-7.882-1.72-7.882-3.915 0-.167.02-.347.06-.566l.08-.464.098-.58c.33-1.81.857-4.235 1.507-5.51.423-.935 1.524-1.716 3.06-2.18-.63-.575-1.085-1.3-1.322-2.104-.124-.426-.187-.857-.187-1.28 0-2.528 2.058-4.583 4.587-4.583 2.53 0 4.588 2.055 4.588 4.58 0 .423-.06.846-.18 1.258-.236.82-.696 1.556-1.323 2.128 1.533.462 2.638 1.247 3.065 2.203.296.576.6 1.472.894 2.642.05.2-.072.405-.272.455-.202.053-.405-.068-.456-.27z"/>
</svg>
