<svg xmlns="http://www.w3.org/2000/svg" viewBox="0 0 36 36">
  <path fill="#0568ae" d="M32.643 27.024c.046.273.04.348.04.52 0 2.05-3.483 3.7-7.833 3.7-1.64 0-3.162-.235-4.42-.638-2.07-.665-3.426-1.787-3.426-3.062 0-.172.023-.347.056-.52l.19-1.09c.22-1.23.572-2.94 1.003-4.29.166-.525.345-.995.532-1.363.063-.14.143-.275.24-.407.604-.833 1.84-1.5 3.39-1.85l.084-.02-.12-.087c-.83-.57-1.46-1.412-1.752-2.402-.113-.39-.18-.8-.18-1.23 0-2.43 1.973-4.396 4.402-4.396 2.432 0 4.403 1.965 4.403 4.397 0 .42-.06.823-.173 1.205-.292 1.02-.942 1.89-1.807 2.462l-.068.05.045.01c1.822.406 3.21 1.244 3.67 2.273.675 1.317 1.23 3.945 1.535 5.648l.188 1.09zM16.82 21.19c.2-.63.4-1.14.61-1.56.1-.215.227-.43.378-.638.136-.188.297-.365.47-.537-.29-1.235-.646-2.476-1.045-3.256-.46-1.03-1.848-1.868-3.67-2.273l-.045-.01.068-.05c.865-.574 1.515-1.442 1.807-2.463.112-.382.173-.784.173-1.205 0-2.433-1.972-4.398-4.403-4.398-2.43 0-4.4 1.965-4.4 4.397 0 .43.064.84.178 1.23.292.99.92 1.83 1.754 2.4l.118.087-.083.02c-1.553.35-2.79 1.018-3.393 1.85-.095.133-.176.27-.24.41-.186.367-.365.837-.53 1.36-.432 1.353-.784 3.063-1.005 4.29l-.19 1.092c-.03.172-.055.347-.055.52 0 1.274 1.356 2.395 3.427 3.06 1.257.404 2.778.64 4.42.64 1.748 0 3.35-.27 4.65-.723.224-1.223.57-2.874 1.007-4.248z"/>
</svg>
