<svg xmlns="http://www.w3.org/2000/svg" viewBox="0 0 36 36">
  <path fill="#0568ae" d="M27 21c-3.313 0-6 2.687-6 6s2.687 6 6 6 6-2.687 6-6-2.687-6-6-6zm2.86 7H28v1.862c0 .552-.448 1-1 1s-1-.448-1-1V28h-1.862c-.552 0-1-.448-1-1s.448-1 1-1H26v-1.862c0-.552.448-1 1-1s1 .448 1 1V26h1.86c.553 0 1 .448 1 1s-.446 1-1 1zM19.5 27c0 1.895.712 3.624 1.876 4.946-1.056.17-2.186.265-3.368.265-2.184 0-4.208-.313-5.88-.85-2.758-.884-4.56-2.377-4.56-4.073 0-.23.03-.462.073-.692l.252-1.45c.293-1.635.762-3.91 1.336-5.71.22-.697.46-1.323.708-1.812.083-.186.19-.367.318-.543.805-1.108 2.45-1.997 4.514-2.463l.11-.026-.157-.114c-1.107-.758-1.944-1.88-2.33-3.196-.152-.517-.24-1.064-.24-1.636 0-3.237 2.625-5.852 5.858-5.852 3.236 0 5.86 2.615 5.86 5.852 0 .56-.082 1.095-.23 1.604-.39 1.36-1.254 2.514-2.405 3.276l-.09.067.06.016c2.425.54 4.27 1.654 4.883 3.024.26.505.504 1.158.732 1.883-4.05.094-7.318 3.412-7.318 7.487z"/>
</svg>
