<svg xmlns="http://www.w3.org/2000/svg" viewBox="0 0 36 36">
  <path fill="none" d="M0 0h36v36H0z"/>
  <path fill="#0568ae" d="M19.5 27c0 1.9.7 3.6 1.9 4.9-1.1.2-2.2.3-3.4.3-2.2 0-4.2-.3-5.9-.9-2.8-.9-4.6-2.4-4.6-4.1 0-.2 0-.5.1-.7.1-.4.1-.9.3-1.5.3-1.6.8-3.9 1.3-5.7.2-.7.5-1.3.7-1.8.1-.2.2-.4.3-.5.8-1.1 2.4-2 4.5-2.5h.1c-.1 0-.1-.1-.2-.1-1.1-.8-1.9-1.9-2.3-3.2-.2-.5-.2-1.1-.2-1.6 0-3.2 2.6-5.9 5.9-5.9 3.2 0 5.9 2.6 5.9 5.9 0 .6-.1 1.1-.2 1.6-.4 1.4-1.3 2.5-2.4 3.3 0 0-.1 0-.1.1h.1c2.4.5 4.3 1.7 4.9 3 .3.5.5 1.2.7 1.9-4.1.1-7.4 3.4-7.4 7.5z"/>
  <g fill="#0568ae">
    <path d="M27.1 23.9c-.7 0-1.3.5-1.3 1.2v1.4h2.5v-1.4c0-.6-.5-1.2-1.2-1.2z"/>
    <path d="M27 21c-3.3 0-6 2.7-6 6s2.7 6 6 6 6-2.7 6-6-2.7-6-6-6zm2.8 8.9c0 .3-.2.5-.5.5h-4.6c-.3 0-.5-.2-.5-.5V27c0-.3.2-.5.5-.5h.1v-1.4c0-1.2 1-2.1 2.2-2.1 1.2 0 2.2.9 2.2 2.1v1.4h.1c.3 0 .5.2.5.5v2.9z"/>
  </g>
</svg>
