<svg xmlns="http://www.w3.org/2000/svg" viewBox="0 0 36 36">
  <path fill="#0568ae" d="M27.06 20.66c-.305-1.114-.653-2.157-1.033-2.897-.59-1.316-2.22-2.432-4.43-3.056.956-.8 1.655-1.866 1.998-3.067.163-.56.245-1.134.245-1.708 0-3.434-2.797-6.227-6.234-6.227s-6.233 2.793-6.233 6.227c0 .577.086 1.163.257 1.742.347 1.183 1.048 2.243 1.994 3.033-2.208.622-3.84 1.737-4.422 3.035-.89 1.742-1.614 5.058-2.065 7.534-.037.2.097.397.3.434s.4-.098.438-.302c.362-1.986 1.103-5.58 2.003-7.344.552-1.227 2.26-2.272 4.555-2.79l.11-.027c.152-.027.273-.145.303-.3.03-.152-.04-.308-.172-.39l-.064-.046-.076-.056c-1.054-.72-1.83-1.782-2.184-2.992-.15-.51-.227-1.025-.227-1.53 0-3.02 2.46-5.477 5.483-5.477 3.024 0 5.484 2.457 5.484 5.477 0 .503-.072 1.008-.215 1.5-.36 1.254-1.158 2.343-2.247 3.064l-.107.077c-.124.09-.19.244-.153.393.037.148.153.258.305.28l.05.012c2.34.52 4.066 1.57 4.63 2.828.34.665.657 1.59.94 2.594-3.242.297-5.79 3.028-5.79 6.345 0 1.778.733 3.387 1.912 4.544-1.43.353-3.066.555-4.806.555-3.01 0-5.845-.614-7.774-1.683-.18-.1-.41-.035-.51.146-.1.182-.035.41.146.51 2.038 1.13 5.004 1.777 8.138 1.777 2.024 0 3.895-.265 5.498-.722 1.058.78 2.36 1.247 3.77 1.247 3.516 0 6.376-2.86 6.376-6.375 0-3.452-2.762-6.266-6.19-6.365zm-.184 11.99c-1.045 0-2.02-.29-2.86-.79-.264-.156-.517-.33-.75-.528-1.23-1.032-2.015-2.58-2.015-4.307 0-2.97 2.317-5.404 5.238-5.605l.388-.02.386.02c2.92.2 5.24 2.634 5.24 5.605 0 3.102-2.525 5.626-5.626 5.626zm-.802-2.2c-.173 0-.337-.082-.454-.23l-1.968-2.47c-.13-.163-.102-.4.06-.528.162-.128.398-.103.527.06l1.815 2.28 3.21-5.17c.108-.175.34-.23.516-.12.177.108.23.34.122.516l-3.338 5.377c-.106.17-.272.273-.458.284h-.032z"/>
</svg>
