<svg xmlns="http://www.w3.org/2000/svg" viewBox="0 0 36 36">
  <path fill="#0568ae" d="M27 21c-3.313 0-6 2.685-6 6 0 3.312 2.687 6 6 6s6-2.688 6-6c0-3.315-2.687-6-6-6zm3.378 5.123l-1.14 1.11c-.227.223-.368.658-.313.97l.267 1.57c.016.094.006.168-.03.21-.042.05-.135.047-.244-.01l-1.408-.74c-.138-.074-.32-.114-.51-.114s-.374.04-.51.112l-1.41.74c-.11.058-.2.063-.245.01-.035-.04-.045-.114-.03-.21l.272-1.568c.052-.313-.09-.75-.317-.97l-1.14-1.11c-.078-.077-.113-.154-.094-.21.017-.055.09-.097.2-.112l1.575-.228c.32-.047.684-.31.828-.602l.702-1.425c.098-.198.242-.2.34 0l.704 1.425c.14.286.51.556.826.602l1.573.228c.11.016.183.057.202.113.018.055-.018.13-.097.208zM19.5 27c0 1.894.712 3.623 1.876 4.945-1.056.17-2.186.265-3.368.265-2.184 0-4.208-.314-5.88-.85-2.758-.885-4.562-2.377-4.562-4.074 0-.23.03-.462.074-.692l.25-1.45c.294-1.635.763-3.91 1.337-5.71.22-.697.46-1.323.708-1.812.083-.186.19-.367.318-.543.805-1.11 2.45-1.997 4.514-2.464l.11-.026-.157-.115c-1.108-.758-1.945-1.88-2.332-3.197-.15-.517-.238-1.064-.238-1.636 0-3.237 2.624-5.852 5.857-5.852 3.236 0 5.86 2.615 5.86 5.852 0 .56-.082 1.095-.23 1.604-.39 1.36-1.254 2.514-2.405 3.276l-.09.067.06.014c2.426.54 4.272 1.654 4.884 3.024.26.506.504 1.158.732 1.882-4.05.096-7.318 3.415-7.318 7.49z"/>
</svg>
