<svg xmlns="http://www.w3.org/2000/svg" viewBox="0 0 36 36">
  <path fill="#0568ae" d="M24.46 25.04l-.105-.598c-.208-1.164-.64-3.277-1.177-4.328-.333-.742-1.166-1.356-2.326-1.732.452-.444.785-1 .96-1.61.096-.332.145-.67.145-1.01 0-2.03-1.65-3.678-3.682-3.678-2.03 0-3.68 1.65-3.68 3.677 0 .347.05.693.15 1.03.178.603.51 1.15.96 1.593-.955.31-1.69.78-2.11 1.356-.086.118-.16.243-.208.353-.142.276-.28.63-.425 1.08-.333 1.044-.6 2.354-.766 3.268l-.092.53-.048.29c-.033.176-.05.322-.05.46 0 1.11 1.034 2.077 2.835 2.655 1.017.326 2.205.498 3.435.498 3.51 0 6.258-1.386 6.258-3.19 0-.127 0-.21-.037-.42l-.037-.222zm-6.184 3.082c-1.153 0-2.26-.16-3.204-.462-1.427-.458-2.313-1.203-2.313-1.942l.036-.324.05-.302.09-.516c.162-.893.422-2.17.744-3.175.128-.404.254-.728.383-.98l.142-.24c.398-.548 1.247-1 2.365-1.256.156-.025.272-.15.303-.305.03-.156-.048-.32-.184-.4l-.055-.04c-.56-.385-.975-.953-1.168-1.6-.078-.27-.12-.544-.12-.818 0-1.614 1.315-2.927 2.93-2.927 1.618 0 2.933 1.313 2.933 2.927 0 .27-.04.538-.115.802-.19.67-.62 1.25-1.21 1.644l-.07.052c-.112.09-.148.24-.116.382.03.14.158.255.3.286 1.252.278 2.208.85 2.504 1.51.504.984.916 3.014 1.117 4.14l.104.588.038.223.025.33c-.003 1.16-2.217 2.402-5.51 2.402zm-5.834-9.802h-1.304c-.086.007-.22.048-.22.198.023 1.124.025 1.496.018 1.64 0 .543-.433.983-.965.983-.33 0-.633-.17-.81-.453-.11-.145-1.034-1.242-1.6-1.91-.31-.402-.505-.44-.793-.458H5.384c-.61 0-1.106-.51-1.106-1.134V9.18c0-.61.49-1.085 1.117-1.085l10.986-.002c.367 0 .665.302.665.673v1.567c0 .207-.168.375-.375.375s-.375-.168-.375-.375v-1.49l-10.9.002c-.183 0-.367.115-.367.335v8.006c0 .212.16.384.356.384H6.79c.516.03.91.164 1.352.736 1.32 1.557 1.582 1.882 1.648 1.982.11.174.394.077.394-.128l.003-.045c.005-.135-.008-1.002-.02-1.588 0-.526.388-.916.943-.955h1.33c.208 0 .376.167.376.374 0 .206-.167.374-.374.374zm7.823-8.593v-.9c0-.198.163-.36.36-.36h.9c.198 0 .36.162.36.36v.9c0 .198-.162.36-.36.36h-.9c-.196 0-.36-.162-.36-.36zm8.178-.9v.9c0 .198-.16.36-.36.36h-.9c-.198 0-.358-.162-.358-.36v-.9c0-.198.16-.36.358-.36h.9c.2 0 .36.162.36.36zm-3.28 2.73v.9c0 .198-.16.36-.36.36h-.9c-.197 0-.358-.162-.358-.36v-.9c0-.198.162-.36.36-.36h.9c.198 0 .36.162.36.36zm3.28 0v.9c0 .198-.16.36-.36.36h-.9c-.198 0-.358-.162-.358-.36v-.9c0-.198.16-.36.358-.36h.9c.2 0 .36.162.36.36zm3.28 0v.9c0 .198-.162.36-.36.36h-.9c-.197 0-.36-.162-.36-.36v-.9c0-.198.163-.36.36-.36h.9c.198 0 .36.162.36.36zm-3.28 2.73v.9c0 .197-.16.36-.36.36h-.9c-.198 0-.358-.163-.358-.36v-.9c0-.198.16-.36.358-.36h.9c.2 0 .36.162.36.36zm3.28 0v.9c0 .197-.162.36-.36.36h-.9c-.197 0-.36-.163-.36-.36v-.9c0-.198.163-.36.36-.36h.9c.198 0 .36.162.36.36zm-6.56 2.73v.9c0 .197-.16.36-.36.36h-.9c-.197 0-.358-.163-.358-.36v-.9c0-.198.162-.36.36-.36h.9c.198 0 .36.162.36.36zm3.28 0v.9c0 .197-.16.36-.36.36h-.9c-.198 0-.358-.163-.358-.36v-.9c0-.198.16-.36.358-.36h.9c.2 0 .36.162.36.36z"/>
</svg>
