<svg xmlns="http://www.w3.org/2000/svg" viewBox="0 0 36 36">
  <path fill="#0568ae" d="M33.16 23.568c.68-3.596-.196-7.336-2.4-10.26-.33-.44-.958-.53-1.4-.197-.44.333-.528.96-.196 1.4 1.866 2.477 2.606 5.643 2.03 8.688-.323 1.73-1.027 3.306-2.09 4.69-.338.437-.256 1.065.182 1.4.182.14.396.208.61.208.3 0 .595-.134.792-.39 1.258-1.635 2.09-3.498 2.472-5.537v-.002zm-4.182-.69c.487-2.616-.15-5.325-1.752-7.435-.334-.44-.96-.526-1.4-.193-.44.334-.527.96-.194 1.4 1.26 1.663 1.763 3.8 1.38 5.86-.22 1.157-.688 2.212-1.394 3.135-.336.44-.252 1.066.187 1.402.18.14.395.206.607.206.3 0 .598-.135.795-.392.9-1.172 1.495-2.512 1.77-3.98zm-5.99-5.357l-.21-.273-.17-.228c-.25-.34-.485-.658-.625-.956-.218-.47-.157-1.157-.09-1.882.045-.5.092-1.015.055-1.515-.352-4.538-3.52-7.57-8.643-7.83-3.537-.184-6.78 1.3-8.593 3.763-2.496 3.388-2.313 8.41-.386 10.944 1.624 2.135 2.353 4.118 1.292 10.12-.035.2.01.615.58.615h8.982c.427 0 .593-.39.593-.592-.002-1.253.163-2.617.607-2.872.264-.15.633-.22 1.16-.22.297 0 .605.022.912.04.323.022.645.043.95.043.696 0 1.175-.11 1.555-.36.813-.53.727-1.754.657-2.66l.044-.05c.137-.148.295-.316.378-.46.317-.36.283-.715.226-.96.172-.17.278-.327.314-.47h-.002l.018-.06.01-.097c.022-.24-.07-.483-.168-.61-.04-.05-.074-.134-.097-.23l.04-.363.085-.08c.25-.176.614-.332.637-.342.272-.135.736-.586.565-1.323-.08-.338-.397-.74-.676-1.094z"/>
</svg>
