<svg xmlns="http://www.w3.org/2000/svg" viewBox="0 0 36 36">
  <path fill="#0568ae" d="M23.992 25.345c.035.205.03.26.03.39 0 1.54-2.616 2.78-5.882 2.78-1.233 0-2.375-.177-3.32-.48-1.555-.5-2.573-1.342-2.573-2.3 0-.128.018-.26.042-.39l.14-.82c.167-.92.43-2.205.755-3.22.125-.394.26-.747.4-1.023.047-.105.108-.207.18-.307.453-.625 1.38-1.127 2.547-1.39l.062-.015-.09-.065c-.624-.428-1.097-1.06-1.315-1.804-.086-.29-.135-.6-.135-.922 0-1.826 1.48-3.302 3.305-3.302 1.826 0 3.306 1.476 3.306 3.302 0 .316-.046.618-.13.905-.22.767-.707 1.418-1.357 1.85l-.052.037.034.008c1.368.304 2.41.933 2.756 1.706.507.99.923 2.962 1.153 4.24l.142.82zm-12.99-7.195h2.988l-.135-.208c-.133-.262-.242-.536-.326-.82-.13-.44-.195-.892-.195-1.343 0-2.53 1.968-4.604 4.453-4.786V7.092c0-.268-.214-.486-.477-.486l-12.98.002c-.522 0-.93.394-.93.898v9.697c0 .522.41.947.917.947H6.64c.32.02.572.068.925.524.587.693 1.544 1.83 1.613 1.93.145.23.39.366.655.366.43 0 .777-.356.777-.794.006-.103.007-.43-.017-1.64.002-.34.352-.38.41-.386zm17.25-11.184c0-.198-.163-.36-.36-.36h-1.275c-.198 0-.36.162-.36.36V8.24c0 .198.162.36.36.36h1.274c.2 0 .36-.162.36-.36V6.966zm0 3.294c0-.198-.163-.36-.36-.36h-1.275c-.198 0-.36.162-.36.36v1.274c0 .198.162.36.36.36h1.274c.2 0 .36-.162.36-.36V10.26zm0 3.294c0-.198-.163-.36-.36-.36h-1.275c-.198 0-.36.162-.36.36v1.274c0 .198.162.36.36.36h1.274c.2 0 .36-.162.36-.36v-1.274zm3.293-3.294c0-.198-.162-.36-.36-.36H29.91c-.197 0-.36.162-.36.36v1.274c0 .198.163.36.36.36h1.275c.198 0 .36-.162.36-.36V10.26zm0 3.294c0-.198-.162-.36-.36-.36H29.91c-.197 0-.36.162-.36.36v1.274c0 .198.163.36.36.36h1.275c.198 0 .36-.162.36-.36v-1.274zm-3.294 3.294c0-.198-.16-.36-.36-.36h-1.273c-.198 0-.36.162-.36.36v1.274c0 .198.162.36.36.36h1.274c.2 0 .36-.162.36-.36v-1.274zm-3.293-6.588c0-.198-.162-.36-.36-.36h-1.274c-.198 0-.36.162-.36.36v1.274c0 .198.162.36.36.36h1.274c.198 0 .36-.162.36-.36V10.26zm0 6.588c0-.198-.162-.36-.36-.36h-1.274c-.198 0-.36.162-.36.36v1.274c0 .198.162.36.36.36h1.274c.198 0 .36-.162.36-.36v-1.274zM21.303 8.6c.198 0 .36-.162.36-.36V6.966c0-.198-.162-.36-.36-.36H20.03c-.2 0-.36.162-.36.36V8.24c0 .198.16.36.36.36h1.273z"/>
</svg>
