<svg xmlns="http://www.w3.org/2000/svg" viewBox="0 0 36 36">
  <path fill="#0568ae" d="M10.377 31.02c-.207 0-.375-.167-.375-.374l-.024-.32-.018-.352c-.066-1.45-.107-2.328.663-2.77.346-.194.796-.284 1.42-.284.282 0 .572.018.862.036l.126.007c.355.024.68.046.986.046.66 0 1.108-.1 1.45-.32.172-.113.576-.58.567-2.447 0-.148 0-.316.175-.43.472-.304.448-.572.422-.856-.017-.19-.043-.475.212-.647.128-.086.196-.183.216-.306.032-.194-.068-.398-.1-.44-.233-.23-.268-.485-.254-.654.027-.317.235-.545.34-.62.26-.183.603-.34.74-.4 0 0 .55-.285.39-.976-.068-.28-.39-.687-.65-1.016l-.235-.307-.175-.237c-.262-.354-.535-.723-.7-1.072-.277-.598-.202-1.41-.13-2.193.048-.53.095-1.052.057-1.542-.312-4.042-2.657-6.58-6.782-7.34-.204-.038-.338-.234-.3-.437.037-.204.233-.34.436-.3 4.432.816 7.058 3.665 7.394 8.02.043.552-.007 1.107-.055 1.643-.066.713-.132 1.42.06 1.834.132.28.37.603.624.945l.18.244.213.278c.322.41.685.87.79 1.31.237 1.016-.418 1.64-.797 1.827-.112.048-.42.187-.627.333l-.028.072.048.072c.153.152.35.563.31.998-.03.32-.18.595-.437.805l.004.04c.028.302.083.908-.594 1.435-.003 1.615-.3 2.595-.91 2.994-.47.304-1.042.44-1.857.44-.327 0-.673-.023-1.007-.045l-.15-.01c-.276-.016-.55-.033-.816-.033-.484 0-.827.06-1.05.186-.32.184-.35.634-.284 2.085l.013.303c.017.08.03.244.03.4 0 .207-.17.375-.376.375zM28.97 23.5c.743-3.937-.213-8.03-2.625-11.23-.124-.164-.36-.197-.525-.073-.166.125-.2.36-.074.525 2.284 3.032 3.19 6.91 2.486 10.637-.038.203.096.4.3.437l.07.006c.177 0 .334-.125.368-.304zm-2.704 6.058c1.376-1.788 2.286-3.828 2.705-6.06.04-.203-.095-.4-.298-.437-.206-.037-.4.097-.438.3-.396 2.115-1.26 4.047-2.562 5.74-.126.165-.095.4.07.527.067.052.147.078.227.078.11 0 .22-.05.296-.147zm-2.12-6.856c.52-2.802-.163-5.705-1.877-7.965-.126-.165-.36-.197-.526-.072-.165.125-.197.36-.072.525 1.587 2.092 2.22 4.78 1.737 7.375-.04.204.095.4.3.438l.068.006c.176-.002.333-.128.367-.308zm-1.897 4.266c.96-1.257 1.6-2.692 1.895-4.266.038-.204-.096-.4-.3-.438-.204-.04-.398.096-.437.3-.274 1.456-.865 2.784-1.754 3.947-.126.166-.094.4.07.527.068.052.15.077.228.077.112 0 .223-.05.297-.146z"/>
</svg>
