<svg xmlns="http://www.w3.org/2000/svg" viewBox="0 0 36 36">
  <path fill="#0568ae" d="M27.4 20.7c-.3-1.2-.7-2.3-1.1-3.1-.6-1.3-2.2-2.4-4.4-3.1 1-.8 1.7-1.9 2-3.1.2-.6.2-1.1.2-1.7 0-3.4-2.8-6.2-6.2-6.2-3.4 0-6.2 2.8-6.2 6.2 0 .6.1 1.2.3 1.7.3 1.2 1 2.2 2 3-2.2.6-3.8 1.7-4.4 3-.9 1.7-1.6 5.1-2.1 7.5 0 .2.1.4.3.4.2 0 .4-.1.4-.3.4-2 1.1-5.6 2-7.3.6-1.2 2.3-2.3 4.6-2.8h.1c.2 0 .3-.1.3-.3 0-.2 0-.3-.2-.4h-.1l-.1-.1c-1.1-.7-1.8-1.8-2.2-3-.2-.5-.2-1-.2-1.5 0-3 2.5-5.5 5.5-5.5s5.5 2.5 5.5 5.5c0 .5-.1 1-.2 1.5-.4 1.3-1.2 2.3-2.2 3.1 0 0-.1 0-.1.1-.1.1-.2.2-.2.4 0 .1.2.3.3.3 2.3.5 4.1 1.6 4.6 2.8.4.7.7 1.7 1 2.8-3.3.3-5.9 3-5.9 6.4 0 1.7.7 3.2 1.8 4.4-1.4.3-3 .5-4.6.5-3 0-5.8-.6-7.8-1.7-.2-.1-.4 0-.5.1-.1.2 0 .4.1.5 2 1.1 5 1.8 8.1 1.8 1.9 0 3.7-.2 5.3-.7 1.1.9 2.5 1.4 3.9 1.4 3.5 0 6.4-2.9 6.4-6.4.1-3.3-2.7-6-6-6.2zm-.3 12c-1.1 0-2.2-.3-3-.9-.3-.2-.5-.4-.7-.6-1.1-1-1.9-2.5-1.9-4.2 0-3 2.4-5.5 5.3-5.6h.8c2.9.2 5.1 2.7 5.1 5.6 0 3.2-2.5 5.7-5.6 5.7zm-.5-8.4c0-.2.1-.3.2-.4.1-.1.2-.2.4-.2s.3.1.4.2c.1.1.2.2.2.4s-.1.3-.2.4c-.1.1-.2.2-.4.2s-.3-.1-.4-.2c-.2-.1-.2-.2-.2-.4zm.1 1.3h1v4.7h-1v-4.7z"/>
</svg>
