<?xml version="1.0" encoding="utf-8"?>
<!-- Generator: Adobe Illustrator 18.1.0, SVG Export Plug-In . SVG Version: 6.00 Build 0)  -->
<svg version="1.1" id="Layer_1" xmlns="http://www.w3.org/2000/svg" xmlns:xlink="http://www.w3.org/1999/xlink" x="0px" y="0px"
	 viewBox="0 0 36 36" enable-background="new 0 0 36 36" xml:space="preserve">
<g>
	<rect x="0" y="0" fill="none" width="36" height="36"/>
	<path fill="#009FDB" d="M18,3C9.7,3,3,9.7,3,18c0,8.3,6.7,15,15,15s15-6.7,15-15C33,9.7,26.3,3,18,3z M26.5,11.6l-9.1,14.7
		c-0.3,0.5-0.9,0.9-1.5,0.9c-0.5,0-1-0.3-1.4-0.7l-5.6-7c-0.4-0.6-0.4-1.4,0.1-1.9c0.5-0.5,1.4-0.5,1.9,0l4.8,4.3l8.5-11.7
		c0.4-0.6,1.3-0.7,1.9-0.3C26.8,10.1,26.9,11,26.5,11.6z"/>
</g>
</svg>
