<svg xmlns="http://www.w3.org/2000/svg" viewBox="0 0 36 36">
  <path fill="#0568ae" d="M30.586 6.813h-3.41v-1.43c0-.81-.675-1.464-1.494-1.428-.78.034-1.365.74-1.365 1.522v1.336h-12.81v-1.43c0-.81-.675-1.464-1.494-1.428-.78.034-1.365.74-1.365 1.52v1.338h-3.41c-.594 0-1.08.486-1.08 1.08V29.72c0 .594.486 1.08 1.08 1.08h25.347c.594 0 1.08-.486 1.08-1.08V7.893c0-.594-.485-1.08-1.08-1.08zM10.854 28.42c0 .197-.162.36-.36.36H6.516c-.198 0-.36-.163-.36-.36v-3.825c0-.198.162-.36.36-.36h3.978c.198 0 .36.162.36.36v3.824zm0-6.124c0 .198-.162.36-.36.36H6.516c-.198 0-.36-.162-.36-.36v-3.824c0-.198.162-.36.36-.36h3.978c.198 0 .36.162.36.36v3.824zm-.84-12.626c-.78-.034-1.365-.647-1.365-1.428h2.858c0 .81-.675 1.464-1.494 1.428zm7.11 18.75c0 .197-.163.36-.36.36h-3.98c-.197 0-.36-.163-.36-.36v-3.825c0-.198.163-.36.36-.36h3.98c.197 0 .36.162.36.36v3.824zm0-6.124c0 .198-.163.36-.36.36h-3.98c-.197 0-.36-.162-.36-.36v-3.824c0-.198.163-.36.36-.36h3.98c.197 0 .36.162.36.36v3.824zm6.27 6.123c0 .197-.163.36-.36.36h-3.98c-.197 0-.36-.163-.36-.36v-3.825c0-.198.163-.36.36-.36h3.98c.197 0 .36.162.36.36v3.824zm0-6.124c0 .198-.163.36-.36.36h-3.98c-.197 0-.36-.162-.36-.36v-3.824c0-.198.163-.36.36-.36h3.98c.197 0 .36.162.36.36v3.824zm0-6.122c0 .198-.163.36-.36.36h-3.98c-.197 0-.36-.162-.36-.36V12.35c0-.198.163-.36.36-.36h3.98c.197 0 .36.162.36.36v3.824zm.924-7.932h2.86c0 .81-.676 1.464-1.495 1.428-.78-.034-1.365-.647-1.365-1.428zm5.345 20.177c0 .197-.162.36-.36.36h-3.978c-.198 0-.36-.163-.36-.36v-3.825c0-.198.162-.36.36-.36h3.978c.198 0 .36.162.36.36v3.824zm0-6.124c0 .198-.162.36-.36.36h-3.978c-.198 0-.36-.162-.36-.36v-3.824c0-.198.162-.36.36-.36h3.978c.198 0 .36.162.36.36v3.824zm0-6.122c0 .198-.162.36-.36.36h-3.978c-.198 0-.36-.162-.36-.36V12.35c0-.198.162-.36.36-.36h3.978c.198 0 .36.162.36.36v3.824z"/>
</svg>
