<svg xmlns="http://www.w3.org/2000/svg" viewBox="0 0 36 36">
  <path fill="#0568ae" d="M32.132 17.977l-.007-.034V7.208c0-1-.814-1.815-1.815-1.815h-2.675v-1.01c0-.995-.81-1.805-1.804-1.805s-1.804.81-1.804 1.805v1.01h-12.06v-1.01c0-.995-.81-1.805-1.805-1.805-.994 0-1.803.81-1.803 1.805v1.01H5.682c-1 0-1.815.813-1.815 1.814V28.36c0 1 .814 1.815 1.815 1.815H30.31c1 0 1.815-.814 1.815-1.815V18.01l.007-.033zm-27.515.375h6.254v5.273H4.618v-5.273zm7.005 0h6.033v5.273h-6.033v-5.273zm12.96-.75h-6.177v-5.688h6.176v5.688zm-6.928 0H11.62v-5.688h6.034v5.688zm.75.75h6.177v5.273h-6.175v-5.273zm6.927 0h6.046v5.273H25.33v-5.273zm-.553-13.97c0-.58.473-1.054 1.055-1.054.58 0 1.054.473 1.054 1.055v2.86c0 .58-.473 1.054-1.054 1.054-.582 0-1.055-.473-1.055-1.055v-2.86zm-15.67 0c0-.58.473-1.054 1.054-1.054.583 0 1.056.473 1.056 1.055v2.86c0 .58-.473 1.054-1.055 1.054-.58 0-1.053-.473-1.053-1.055v-2.86zM4.617 7.21c0-.587.478-1.065 1.065-1.065h2.675v1.1c0 .995.81 1.805 1.804 1.805s1.806-.81 1.806-1.805v-1.1h12.06v1.1c0 .995.81 1.805 1.805 1.805.996 0 1.805-.81 1.805-1.805v-1.1h2.675c.587 0 1.065.478 1.065 1.065v10.394H25.33v-5.688h1.666c.207 0 .375-.168.375-.375s-.167-.376-.374-.376H4.616V7.208zm6.255 4.706v5.688H4.617v-5.688h6.255zm-5.19 17.51c-.587 0-1.065-.477-1.065-1.064v-3.985h6.254v5.05H5.683zm5.94 0v-5.05h6.033v5.05h-6.033zm6.783 0v-5.05h6.176v5.05h-6.175zm11.906 0h-4.98v-5.05h6.046v3.986c0 .588-.478 1.065-1.065 1.065z"/>
</svg>
