<?xml version="1.0" encoding="utf-8"?>
<!-- Generator: Adobe Illustrator 18.1.0, SVG Export Plug-In . SVG Version: 6.00 Build 0)  -->
<svg version="1.1" id="Layer_1" xmlns="http://www.w3.org/2000/svg" xmlns:xlink="http://www.w3.org/1999/xlink" x="0px" y="0px"
	 viewBox="0 0 36 36" enable-background="new 0 0 36 36" xml:space="preserve">
<g>
	<rect y="0" fill="none" width="36" height="36"/>
	<path fill="#009FDB" d="M18,3C9.7,3,3,9.7,3,18s6.7,15,15,15c8.3,0,15-6.7,15-15S26.3,3,18,3z M18.7,26.8c-0.3,0.3-0.7,0.5-1.2,0.5
		c-0.5,0-0.9-0.2-1.2-0.5c-0.3-0.3-0.5-0.7-0.5-1.2c0-0.5,0.2-0.9,0.5-1.2c0.3-0.3,0.7-0.5,1.2-0.5c0.5,0,0.9,0.2,1.2,0.5
		c0.3,0.3,0.5,0.7,0.5,1.2C19.2,26.1,19.1,26.5,18.7,26.8z M22.8,15.7c-0.4,0.7-1,1.3-1.9,2L20.5,18c-0.7,0.5-1.1,0.9-1.4,1.4
		c-0.3,0.4-0.4,0.9-0.4,1.6v0.7h-2.4v-0.7c0-1.1,0.2-1.9,0.5-2.5c0.3-0.6,0.9-1.2,1.8-1.9l0.4-0.3c0.4-0.3,0.7-0.6,0.9-0.8
		c0.2-0.3,0.4-0.5,0.5-0.8c0.1-0.3,0.2-0.6,0.2-1c0-0.6-0.3-1.1-0.8-1.5c-0.5-0.4-1.2-0.6-2-0.6c-1.3,0-2.6,0.6-4,1.7l-1.1-1.8
		c0.8-0.7,1.7-1.3,2.6-1.7c1-0.4,1.9-0.6,3-0.6c1.5,0,2.8,0.4,3.7,1.1c0.9,0.8,1.4,1.8,1.4,3.1C23.4,14.3,23.2,15,22.8,15.7z"/>
</g>
</svg>
