<svg xmlns="http://www.w3.org/2000/svg" viewBox="0 0 30 30">
  <path fill="#FFF" d="M26.785 4.285H3.215c-.593 0-1.07.48-1.07 1.07V7.5c0 .592.478 1.07 1.07 1.07h23.57c.592 0 1.07-.478 1.07-1.07V5.356c0-.59-.478-1.07-1.07-1.07zm0 8.57H3.215c-.593 0-1.07.482-1.07 1.073v2.143c0 .593.478 1.073 1.07 1.073h23.57c.592 0 1.07-.48 1.07-1.072V13.93c0-.59-.478-1.072-1.07-1.072zm0 8.574H3.215c-.593 0-1.07.478-1.07 1.07v2.143c0 .592.478 1.072 1.07 1.072h23.57c.592 0 1.07-.48 1.07-1.072V22.5c0-.592-.478-1.07-1.07-1.07z"/>
</svg>
