<svg xmlns="http://www.w3.org/2000/svg" viewBox="0 0 36 36">
  <path fill="#0568ae" d="M24.025 2.588c-1.86-.176-5.856-.168-6.023-.168-.17 0-4.167-.008-6.027.168-1.935.182-2.958 1.25-2.958 3.092v24.4c0 1.84 1.023 2.908 2.958 3.092 1.683.16 5.12.167 5.886.167h.15c.172 0 4.156.007 6.016-.168 1.935-.184 2.958-1.253 2.958-3.092V5.68c0-1.84-1.023-2.91-2.96-3.092zm2.208 27.492c0 1.452-.724 2.197-2.278 2.345-1.824.172-5.904.163-5.946.165-.043-.002-4.14.008-5.965-.165-1.555-.147-2.28-.892-2.28-2.345V5.68c0-1.454.725-2.2 2.28-2.345 1.668-.158 5.23-.165 5.86-.165h.093c.045 0 4.133-.008 5.957.165 1.554.147 2.278.892 2.278 2.345v24.4zm-6.726-1.507h-3.014c-.806 0-1.462.655-1.462 1.46 0 .806.656 1.462 1.463 1.463h3.015c.806 0 1.46-.657 1.46-1.462 0-.806-.655-1.46-1.46-1.46zm0 2.174h-3.013c-.393 0-.712-.32-.712-.712 0-.392.32-.71.712-.71h3.014c.392 0 .712.318.712.71 0 .39-.32.71-.713.712zM25.03 7.25v19.096c0 .616-.5 1.116-1.113 1.116H12.083c-.207 0-.375-.168-.375-.375s.168-.375.375-.375h11.834c.204 0 .363-.16.363-.366V7.25c0-.2-.163-.36-.363-.36H12.083c-.2 0-.363.16-.363.36v13.513c0 .207-.168.375-.375.375s-.375-.168-.375-.375V7.25c0-.612.5-1.11 1.113-1.11h11.834c.614 0 1.113.497 1.113 1.11z"/>
</svg>
