<svg xmlns="http://www.w3.org/2000/svg" viewBox="0 0 36 36">
  <path fill="#0568ae" d="M24.014 2.713c-1.688-.16-5.208-.168-5.896-.168h-.233c-.688 0-4.21.008-5.898.168-1.862.175-2.845 1.2-2.845 2.967v24.4c0 1.764.983 2.79 2.845 2.967 1.688.16 5.216.167 5.906.167h.235c.688 0 4.2-.008 5.886-.167 1.86-.177 2.845-1.203 2.845-2.967V5.68c-.002-1.766-.986-2.792-2.846-2.967zm-4.507 28.41h-3.015c-.598-.002-1.086-.488-1.086-1.09 0-.6.49-1.084 1.086-1.084h3.015c.602 0 1.086.485 1.086 1.084 0 .6-.484 1.087-1.086 1.088zm5.352-4.756c0 .396-.325.72-.72.72H11.86c-.395 0-.72-.324-.72-.72V7.577c0-.396.325-.72.72-.72h12.28c.396 0 .72.324.72.72v18.79z"/>
</svg>
