<svg xmlns="http://www.w3.org/2000/svg" viewBox="0 0 36 36">
  <path fill="#0568ae" d="M28.722 26.97H17.715c-.207 0-.375-.17-.375-.376s.168-.375.375-.375h11.007c.207 0 .375.167.375.374s-.168.375-.375.375zm0-4.164H17.715c-.207 0-.375-.168-.375-.375s.168-.374.375-.374h11.007c.207 0 .375.168.375.375s-.168.376-.375.376zm3.94-2.998c-.01-1.066-.91-1.933-2-1.933H18.998v-5.503c0-4.146-3.515-7.52-7.834-7.52-4.32 0-7.832 3.374-7.832 7.52v2.31c0 .53.198.98.572 1.3.323.276.754.427 1.213.427.89 0 1.79-.595 1.79-1.73v-2.308c0-2.262 1.91-4.102 4.258-4.102 2.345 0 4.252 1.84 4.252 4.102v2.31c0 .206.168.374.375.374s.375-.168.375-.375v-2.308c0-2.676-2.244-4.852-5.002-4.852-2.762 0-5.008 2.177-5.008 4.852v2.31c0 .77-.654.977-1.04.977-.278 0-.543-.092-.728-.25-.205-.174-.31-.42-.31-.73v-2.308c0-3.732 3.178-6.77 7.083-6.77 3.906 0 7.083 3.038 7.083 6.77v5.503h-2.492c-1.09 0-1.988.867-2 1.938v9.4c.01 1.066.91 1.934 2 1.934H30.66c.963 0 1.775-.673 1.962-1.562h.043l-.002-9.777zm-.75 9.397c-.007.657-.568 1.19-1.252 1.19H15.757c-.682 0-1.244-.534-1.252-1.186v-9.393c.01-.658.57-1.192 1.252-1.192h14.905c.682 0 1.243.534 1.25 1.19l.003 9.11-.003.28z"/>
</svg>
