<svg xmlns="http://www.w3.org/2000/svg" viewBox="0 0 36 36">
  <path fill="#0568ae" d="M19.346 13.257c0-.414-.336-.75-.75-.75H12.83c-.414 0-.75.336-.75.75s.336.75.75.75h5.766c.414 0 .75-.335.75-.75zM24 16.297c0-.414-.337-.75-.75-.75H12.83c-.413 0-.75.336-.75.75s.337.75.75.75h10.42c.413 0 .75-.336.75-.75zm5.984 2.59H27.89v-7.22c0-.396-.228-.95-.508-1.23l-3.747-3.745c-.28-.28-.833-.51-1.23-.51H9.516c-.79 0-1.434.623-1.434 1.388v11.318H6.096c-1.13 0-2.05.92-2.05 2.05v6.834c0 1.11.89 2.014 1.994 2.044h24c1.104-.03 1.994-.933 1.994-2.044v-6.834c0-1.13-.92-2.05-2.05-2.05zM10.082 8.684c0-.275.225-.5.5-.5h11.17v3.764c0 .207.17.375.376.375h3.764v6.566h-15.81V8.683zm-3.184 13.85c-.414 0-.75-.337-.75-.75s.336-.75.75-.75h3.09c.414 0 .75.335.75.75s-.336.75-.75.75h-3.09zm19.038 4.396c0 .296-.243.54-.54.54H10.683c-.297 0-.54-.244-.54-.54v-.568c0-.297.243-.54.54-.54h14.713c.297 0 .54.243.54.54v.567z"/>
</svg>
