<svg xmlns="http://www.w3.org/2000/svg" viewBox="0 0 36 36">
  <path fill="#0568ae" d="M29.958 29.945H6.068c-1.198 0-2.173-.976-2.173-2.175v-6.834c0-1.2.975-2.175 2.174-2.175h23.888c1.2 0 2.175.977 2.175 2.176v6.834c0 1.2-.976 2.175-2.175 2.175zM6.068 19.51c-.784 0-1.423.64-1.423 1.425v6.834c0 .785.64 1.424 1.424 1.424h23.888c.786 0 1.425-.64 1.425-1.425v-6.835c0-.786-.64-1.425-1.425-1.425H6.068zm5.408 1.88c0-.208-.168-.376-.375-.376H6.735c-.207 0-.375.168-.375.375s.167.374.374.374H11.1c.208 0 .376-.168.376-.375zm13.597 5.005c0-.207-.168-.375-.375-.375H11.33c-.207 0-.375.168-.375.375s.168.375.375.375h13.368c.207 0 .375-.167.375-.375zm-.72-11.106c0-.208-.167-.376-.374-.376H12.05c-.208 0-.376.168-.376.375s.168.374.375.374h11.93c.206 0 .374-.168.374-.375zm-6.274-2.564c0-.207-.17-.375-.376-.375H12.05c-.208 0-.376.17-.376.376s.168.375.375.375h5.654c.207 0 .375-.167.375-.374zm8.94-2.554l-3.745-3.746c-.353-.353-.995-.62-1.494-.62H10.198c-.998 0-1.81.792-1.81 1.764l.002 8.785c0 .207.167.375.374.375s.375-.168.375-.375L9.136 7.57c0-.558.475-1.013 1.06-1.013H21.78c.1 0 .222.028.345.065v4.323c0 .207.168.375.375.375h4.324c.038.123.065.244.065.345l-.002 4.69c0 .207.168.375.375.375s.375-.168.375-.375v-4.69c.002-.498-.264-1.14-.617-1.493zm-4.145-3.084l3.484 3.484h-3.485V7.088z"/>
</svg>
