<svg xmlns="http://www.w3.org/2000/svg" viewBox="0 0 36 36">
  <path fill="#0568ae" d="M28.786 20.088c-.012-1.09-.852-1.983-1.928-2.133v-6.5c0-4.683-3.97-8.493-8.85-8.493-4.88 0-8.85 3.81-8.85 8.493v6.495c-.96.125-1.736.843-1.91 1.767H7.21V30.87l.002.375h.036c.19 1.016 1.11 1.79 2.203 1.79h17.094c1.094 0 2.014-.774 2.205-1.79h.04l-.004-11.157zM18.01 3.712c4.465 0 8.1 3.474 8.1 7.743v6.47h-2.465v-6.47c0-3.013-2.527-5.464-5.634-5.464-3.108 0-5.638 2.452-5.638 5.465v2.623c0 .207.168.375.375.375s.375-.168.375-.375v-2.623c0-2.6 2.193-4.714 4.89-4.714 2.692 0 4.883 2.116 4.883 4.715v6.47H9.91v-6.47c0-4.27 3.633-7.743 8.1-7.743zm10.025 27.154c-.008.783-.677 1.42-1.49 1.42H9.45c-.813 0-1.48-.637-1.488-1.42V20.097c.01-.784.677-1.422 1.49-1.422h17.093c.812 0 1.48.637 1.49 1.42l.002 10.4-.003.372zm-3.713-2.62H11.697c-.207 0-.375-.168-.375-.375s.168-.374.375-.374h12.625c.207 0 .375.168.375.375s-.168.376-.375.376zm0-4.775H11.697c-.207 0-.375-.167-.375-.374s.168-.375.375-.375h12.625c.207 0 .375.17.375.376s-.168.375-.375.375z"/>
</svg>
