<svg xmlns="http://www.w3.org/2000/svg" viewBox="0 0 36 36">
  <path fill="#0568ae" d="M30.957 10.347l-19.076.005-.618-2.715c-.104-.455-.508-.778-.975-.778h-5.56c-.55 0-1 .447-1 1s.45 1 1 1H9.49c2.93 12.84 3.002 13.15 3.002 13.15.42 1.79 1.272 2.958 2.66 3.582-.15.32-.242.676-.242 1.054 0 1.377 1.117 2.493 2.493 2.493 1.377 0 2.492-1.117 2.492-2.494 0-.17-.017-.34-.05-.5h4.914c-.034.16-.052.328-.052.5 0 1.377 1.116 2.493 2.493 2.493 1.38 0 2.494-1.117 2.494-2.494 0-1.295-.99-2.346-2.253-2.47l-.24-.03h-8.957c-2.438 0-3.272-.794-3.694-2.18l14.165.02h.06c.784 0 1.46-.532 1.64-1.287l2.166-8.186.04-.17.024-.274c.003-.95-.755-1.723-1.687-1.723z"/>
</svg>
