<svg xmlns="http://www.w3.org/2000/svg" viewBox="0 0 36 36">
  <path fill="#0568ae" d="M28.91 22.126h-.06l-14.083-.03c-.207 0-.375-.167-.374-.375 0-.206.168-.373.375-.373l14.083.03h.06c.436 0 .812-.298.913-.722l2.194-8.312.01-.133c0-.528-.43-.974-.938-.974H12.35c-.207 0-.375-.168-.375-.375s.168-.374.375-.374H31.09c.93 0 1.688.773 1.688 1.724l-.025.274-.038.17-2.165 8.185c-.182.753-.857 1.286-1.64 1.286zm1.292 4.717c0 1.58-1.287 2.868-2.868 2.868-1.582 0-2.868-1.286-2.868-2.867l.026-.366h-5.347l.026.366c0 1.58-1.285 2.868-2.867 2.868s-2.868-1.286-2.868-2.867c0-.54.153-1.043.413-1.475-.874-.747-1.495-1.864-1.848-3.362 0 0-.045-.188-3.113-13.634H3.63c-.208 0-.376-.168-.376-.375s.168-.375.375-.375h5.557c.175 0 .327.12.366.29.03.138 3.136 13.745 3.177 13.92.316 1.343.836 2.316 1.576 2.956.517-.503 1.22-.814 1.997-.814 1.186 0 2.205.723 2.642 1.752h5.747c.436-1.028 1.456-1.752 2.642-1.752 1.582 0 2.868 1.288 2.868 2.87zm-11.818-.366c-.024-.135-.06-.266-.11-.39v-.002c-.048-.125-.108-.245-.18-.357-.373-.6-1.034-1.002-1.79-1.002-.522 0-.993.196-1.363.51-.095.08-.183.17-.263.266l-.002.003c-.08.097-.15.2-.213.31-.17.307-.278.654-.278 1.028 0 1.168.95 2.118 2.118 2.118 1.167 0 2.118-.95 2.118-2.117 0-.125-.015-.247-.036-.366zm11.068.366c0-1.167-.95-2.118-2.118-2.118-.757 0-1.418.403-1.792 1.002-.07.113-.13.232-.18.357v.002c-.048.125-.085.255-.11.39-.02.12-.036.24-.036.366 0 1.168.95 2.118 2.118 2.118s2.118-.95 2.118-2.117z"/>
</svg>
