<svg xmlns="http://www.w3.org/2000/svg" viewBox="0 0 36 36" id="svg-spinner" x="0px" y="0px" xml:space="preserve">
   <path fill="#F5F5F5" d="M18 36C8.1 36 0 27.9 0 18S8.1 0 18 0s18 8.1 18 18-8.1 18-18 18zm0-31.5c-7.5 0-13.5 6-13.5 13.5S10.6 31.5 18 31.5c7.5 0 13.5-6.1 13.5-13.5 0-7.5-6-13.5-13.5-13.5z"/>
   <path fill="#0568AE" id="spinner" d="M30.7 5.3l-3.1 3.2c2.4 2.4 3.9 5.8 3.9 9.5 0 7.4-6.1 13.5-13.5 13.5S4.5 25.4 4.5 18 10.6 4.5 18 4.5V0C8.1 0 0 8.1 0 18s8.1 18 18 18 18-8.1 18-18c0-5-2-9.5-5.3-12.7z">
      <animateTransform 
         attributeType="xml"
         attributeName="transform"
         type="rotate"
         from="0 18 18"
         to="360 18 18"
         dur="1.0s"
         repeatCount="indefinite"
      />
   </path>
</svg>