<?xml version="1.0" encoding="utf-8"?>
<!-- Generator: Adobe Illustrator 18.1.0, SVG Export Plug-In . SVG Version: 6.00 Build 0)  -->
<svg version="1.1" id="Layer_1" xmlns="http://www.w3.org/2000/svg" xmlns:xlink="http://www.w3.org/1999/xlink" x="0px" y="0px"
	 viewBox="0 0 36 36" enable-background="new 0 0 36 36" xml:space="preserve">
<g id="Layer_4">
	<g>
		<path fill="#0569AE" d="M18,36c-2.7,0-4.8-0.6-6.2-1C8,33.6,5.4,31.1,4,29.3c-1.3-1.7-3.1-4.6-3.7-8.5c-0.3-2.1-0.5-5.4,0.9-9.1
			c1.8-4.9,5.2-7.6,7.1-8.9C11.8,0.5,15.4,0,17.8,0l0.1,4.3c-1.8,0-4.6,0.4-7.3,2.2c-1.4,0.9-4,3-5.4,6.7c-1,2.8-0.9,5.3-0.7,6.9
			c0.5,3,1.8,5.1,2.9,6.4c1.1,1.4,3,3.2,6,4.3c1.5,0.5,4.6,1.3,8.3,0.3c3-0.8,5-2.5,6.2-3.7c1.4-1.4,2.4-3.2,3.1-5
			c0.4-1.3,0.9-3.3,0.6-5.8c-0.5-4.2-2.8-7.1-4.2-8.5L30.5,5c1.8,1.8,4.8,5.6,5.4,11.1c0.3,3.2-0.3,5.9-0.9,7.6
			c-0.8,2.4-2.2,4.8-4,6.7c-1.5,1.6-4.2,3.8-8.1,4.9C21.1,35.8,19.5,36,18,36z"/>
	</g>
</g>
<g id="Layer_3">
	<g>
		<path fill="#FFFFFF" d="M17.8,2.2c1.8,0,4.9,0.3,8.2,2.2c1.2,0.7,2.2,1.5,3,2.3"/>
		<path fill="#F2F2F3" d="M27.5,8.1c-0.8-0.8-1.7-1.4-2.6-1.9c-2.1-1.2-4.5-1.9-7.1-1.9V0c3.3,0,6.5,0.9,9.3,2.4
			C28.3,3.2,29.4,4,30.5,5L27.5,8.1z"/>
	</g>
</g>
</svg>
