<svg id="Layer_1" xmlns="http://www.w3.org/2000/svg" viewBox="0 0 62.5 10.2">
  <style>
    .st0{fill:#ea7400;} .st1{fill:#FFFFFF;}
  </style>
  <path class="st0" d="M5.1 1.8l.8 1.7.3.5.5.1 1.9.3-1.4 1.4-.4.4.1.5.3 2-1.6-1-.5-.2-.5.2-1.6.9.3-2 .1-.5-.3-.3-1.4-1.4 1.9-.3.5-.1.2-.5.8-1.7m0-1.7c-.2 0-.3.1-.4.3L3.4 3.1l-2.9.4c-.2 0-.3.2-.4.3 0 .2 0 .4.1.5l2.1 2.1-.5 3c0 .2 0 .4.2.5.1.1.2.1.3.1.1 0 .1 0 .2-.1l2.6-1.4L7.7 10c.1 0 .1.1.2.1s.2 0 .3-.1c.1-.1.2-.3.2-.5l-.5-3L10 4.3c.1-.1.2-.3.1-.5s-.2-.3-.4-.3l-2.9-.4L5.5.3c0-.1-.2-.2-.4-.2zM18.2 1.8l.8 1.7.2.5.5.1 1.9.3-1.4 1.4-.4.4.2.5.3 2-1.6-.9-.5-.3-.5.3-1.6.9.3-2 .1-.5-.4-.4-1.4-1.4 1.9-.3.5-.1.2-.5.9-1.7m0-1.7c-.2 0-.3.1-.4.3l-1.3 2.8-2.9.4c-.2 0-.3.2-.4.3-.1.2 0 .4.1.5l2.1 2.1-.5 3c0 .2 0 .4.2.5.1.1.2.1.3.1.1 0 .1 0 .2-.1l2.6-1.4 2.6 1.4c.1 0 .1.1.2.1s.2 0 .3-.1c.1-.1.2-.3.2-.5l-.5-3 2.1-2.1c.1-.1.2-.3.1-.5s-.2-.3-.4-.3l-2.9-.4L18.6.4c-.1-.2-.2-.3-.4-.3zM31.3 1.8l.8 1.7.2.5.5.1 1.9.3-1.4 1.4-.3.4v.5l.3 2-1.6-.9-.5-.3-.5.3-1.6.9.3-2 .1-.5-.4-.4-1.4-1.4 1.9-.3.6-.1.2-.5.9-1.7m0-1.7c-.2 0-.3.1-.4.3l-1.3 2.8-2.9.4c-.2 0-.3.2-.4.3-.1.2 0 .4.1.5l2.1 2.1-.5 3c0 .2 0 .4.2.5.1.1.2.1.3.1.1 0 .1 0 .2-.1l2.6-1.4 2.6 1.4c.1 0 .1.1.2.1s.2 0 .3-.1c.1-.1.2-.3.2-.5l-.5-3 2.1-2.1c.1-.1.2-.3.1-.5s-.2-.3-.4-.3L33 3.1 31.7.3c-.1-.1-.3-.2-.4-.2zM44.3 1.8l.8 1.7.3.5.5.1 1.9.3-1.4 1.4-.4.4.1.5.3 2-1.6-.9-.5-.3-.5.3-1.6.9.3-2 .1-.5-.4-.4-1.4-1.4 1.9-.3.6-.1.2-.5.8-1.7m0-1.7c-.2 0-.3.1-.4.3l-1.3 2.8-2.9.4c-.2 0-.3.2-.4.3-.1.2 0 .4.1.5l2.1 2.1-.5 3c0 .2 0 .4.2.5.1.1.2.1.3.1.1 0 .1 0 .2-.1l2.6-1.4 2.6 1.4c.1 0 .1.1.2.1s.2 0 .3-.1c.1-.1.2-.3.2-.5l-.5-3 2.1-2.1c.1-.1.2-.3.1-.5s-.2-.3-.4-.3L46 3.1 44.7.3c0-.1-.2-.2-.4-.2zM57.4 1.8l.8 1.7.2.5.6.1 1.9.3-1.4 1.4-.4.4.1.5.3 2-1.6-.9-.5-.3-.5.3-1.6.9.3-2 .1-.5-.4-.4-1.4-1.4 1.9-.3.6-.1.2-.5.8-1.7m0-1.7c-.2 0-.3.1-.4.3l-1.3 2.8-2.9.4c-.2 0-.3.2-.4.3-.1.2 0 .4.1.5l2.1 2.1-.5 3c0 .2 0 .4.2.5.1.1.2.1.3.1.1 0 .1 0 .2-.1l2.6-1.4L60 10c.1 0 .1.1.2.1s.2 0 .3-.1c.1-.1.2-.3.2-.5l-.5-3 2.1-2.1c.1-.1.2-.3.1-.5s-.2-.3-.4-.3l-2.9-.4L57.8.4c-.1-.2-.2-.3-.4-.3z"/>
  <path class="st1" d="M0 0v10.2h62.5V0H0zm10 4.3L7.9 6.5l.5 3c0 .2 0 .4-.2.5-.1 0-.2.1-.3.1-.1 0-.1 0-.2-.1L5.1 8.6 2.5 10c-.2.1-.3.1-.5 0-.1-.1-.2-.3-.2-.5l.5-3L.2 4.3C.1 4.2.1 4 .1 3.9c.1-.2.2-.3.4-.3l2.9-.4L4.7.4c.1-.2.2-.3.4-.3s.3.1.4.3l1.3 2.8 2.9.4c.2 0 .3.2.4.3.1.1 0 .3-.1.4zm13.1 0L21 6.5l.5 3c0 .2 0 .4-.2.5-.1.1-.2.1-.3.1-.1 0-.1 0-.2-.1l-2.6-1.4-2.6 1.4c-.2.1-.3.1-.5 0-.1-.1-.2-.3-.2-.5l.5-3-2.1-2.1c-.1-.1-.2-.3-.1-.5s.2-.3.4-.3l2.9-.4L17.8.4c.1-.2.2-.3.4-.3s.3.1.4.3l1.3 2.8 2.9.4c.2 0 .3.2.4.3 0 .1 0 .3-.1.4zm13 0L34 6.5l.5 3c0 .2 0 .4-.2.5-.1.1-.2.1-.3.1-.1 0-.1 0-.2-.1l-2.6-1.4-2.6 1.4c-.2.1-.3.1-.5 0-.1-.1-.1-.3-.1-.5l.5-3-2.1-2.1c-.1-.1-.2-.3-.1-.5s.2-.3.4-.3l2.9-.4L30.9.4c.1-.2.2-.3.4-.3s.3.1.4.3L33 3.1l2.9.4c.2 0 .3.2.4.3 0 .2 0 .4-.2.5zm13.1 0l-2.1 2.1.5 3c0 .2 0 .4-.2.5-.1.1-.2.1-.3.1-.1 0-.1 0-.2-.1l-2.6-1.4-2.6 1.5c-.2.1-.3.1-.5 0-.1-.1-.2-.3-.2-.5l.5-3-2.1-2.1c-.1-.1-.2-.3-.1-.5s.2-.3.4-.3l2.9-.4L43.9.4c.1-.2.2-.3.4-.3s.3.1.4.3L46 3.1l3 .4c.2 0 .3.2.4.3 0 .2-.1.4-.2.5zm13.1 0l-2.1 2.1.5 3c0 .2 0 .4-.2.5-.1.1-.2.1-.3.1-.1 0-.1 0-.2-.1l-2.6-1.4-2.6 1.5c-.2.1-.3.1-.5 0-.1-.1-.2-.3-.2-.5l.5-3-2.1-2.1c-.1-.1-.2-.3-.1-.5s.2-.3.4-.3l2.9-.4L57 .3c.1-.2.2-.3.4-.3s.3.1.4.3l1.3 2.8 2.9.4c.2 0 .3.2.4.3.1.2 0 .4-.1.5z"/>
</svg>
