<svg xmlns="http://www.w3.org/2000/svg" viewBox="0 0 36 36">
  <path fill="#0568ae" d="M28.212 2.99H7.788c-.99 0-1.8.81-1.8 1.8v26.422c0 .99.81 1.8 1.8 1.8h20.424c.99 0 1.8-.81 1.8-1.8V4.79c0-.99-.81-1.8-1.8-1.8zM22.11 30.942h-2.396c-.414 0-.75-.336-.75-.75s.336-.75.75-.75h2.396c.414 0 .75.336.75.75s-.336.75-.75.75zm4.972-.45c-.114.564-.58 1.023-1.145 1.127-1.02.185-1.896-.697-1.7-1.716.11-.566.573-1.03 1.14-1.137 1.026-.195 1.912.697 1.705 1.724zm.93-3.8c0 .374-.305.68-.68.68H8.68c-.375 0-.68-.306-.68-.68V5.67c0-.375.305-.68.68-.68h18.65c.376 0 .68.305.68.68v21.02z"/>
</svg>
