<svg xmlns="http://www.w3.org/2000/svg" viewBox="0 0 36 36">
  <path fill="#0568ae" d="M30.51 4.66c0-.922-.766-1.67-1.71-1.67H7.203c-.946 0-1.715.748-1.715 1.67l.003 26.68c0 .92.77 1.67 1.712 1.67H28.8c.944 0 1.71-.75 1.71-1.67V4.66zM28.8 32.26H7.203c-.53 0-.96-.414-.96-.922L6.237 4.66c0-.508.433-.92.965-.92H28.8c.53 0 .96.412.96.92l.002 26.68c0 .508-.43.922-.962.922zm-.858-25.43V26.2c0 .578-.48 1.048-1.073 1.048H9.13c-.207 0-.375-.168-.375-.375s.168-.374.375-.374h17.74c.177 0 .322-.134.322-.298V6.833c0-.166-.145-.3-.323-.3H9.13c-.178 0-.322.134-.322.3v12.784c0 .207-.168.375-.375.375s-.375-.168-.375-.375V6.833c0-.58.48-1.05 1.072-1.05h17.74c.59 0 1.072.47 1.072 1.05zm-2.836 21.492c-.817 0-1.48.65-1.48 1.446 0 .797.663 1.447 1.48 1.45.818-.002 1.484-.653 1.484-1.45 0-.797-.666-1.446-1.484-1.446zm0 2.147c-.403 0-.73-.314-.73-.7 0-.383.327-.695.73-.695.404 0 .733.313.733.696 0 .386-.33.7-.733.7zm-2.7-.7c0 .208-.17.376-.376.376h-3c-.207 0-.375-.168-.375-.375s.168-.374.375-.374h3c.207 0 .375.168.375.375z"/>
</svg>
