<svg xmlns="http://www.w3.org/2000/svg" viewBox="0 0 36 36">
  <path fill="#0568ae" d="M30.547 5.853H5.451c-.734 0-1.332.597-1.332 1.33v17.669c0 .734.597 1.332 1.332 1.332h12.174v2.339h-5.386c-.207 0-.375.168-.375.375s.168.375.375.375h11.523c.208 0 .375-.168.375-.375s-.168-.375-.375-.375h-5.386v-2.339h12.172c.735 0 1.334-.597 1.334-1.332V7.183c-.001-.733-.6-1.33-1.335-1.33zm.584 19c0 .32-.263.582-.584.582H5.451c-.321 0-.582-.261-.582-.582V7.183c0-.32.261-.58.582-.58h25.096c.321 0 .584.26.584.58v17.67zM29.792 8.866v14.11c0 .472-.383.857-.855.857H9c-.207 0-.375-.168-.375-.375s.168-.375.375-.375h19.938c.058 0 .105-.048.105-.107V8.866c0-.059-.046-.107-.104-.107H7.063c-.058 0-.104.048-.104.107v9.343c0 .207-.168.375-.375.375s-.375-.168-.375-.375V8.866c0-.472.383-.857.854-.857h21.875c.471 0 .854.385.854.857z"/>
</svg>
