<svg xmlns="http://www.w3.org/2000/svg" viewBox="0 0 36 36" enable-background="new 0 0 36 36"><path fill="none" d="M0 0h36v36h-36z"/><path fill="#0568ae" d="M33.3 18.1c0 1.3-.2 2.5-.5 3.7-1.7 6.9-7.8 11.7-14.9 11.7-8.5 0-15.4-6.9-15.4-15.4 0-.2.2-.4.4-.4s.4.2.4.4c0 8.1 6.6 14.6 14.6 14.6 6.7 0 12.6-4.6 14.2-11.1.3-1.1.4-2.3.4-3.5 0-.2.2-.4.4-.4s.4.2.4.4zm-8.6.1c-.1-.1-.4-.1-.5 0l-5 5.1c-.2.3-.5.4-.9.5v-20.7c0-.2-.2-.4-.4-.4s-.4.2-.4.4v20.7c-.4-.1-.7-.2-1-.5l-5-5.1c-.1-.1-.4-.2-.5 0-.1.1-.2.4 0 .5l5 5.1c.5.5 1.1.8 1.8.8s1.3-.3 1.8-.8l5-5.1c.2-.1.2-.4.1-.5z"/></svg>