<svg xmlns="http://www.w3.org/2000/svg" viewBox="0 0 36 36"><path fill="none" d="M0 0h36v36H0z"/><g fill="#0568ae"><path d="M8.5 17.5l5.3-3.8 1.3-.9c.4-.3.8-.1.8.4V16h1.4c7.6 0 12.4 4.6 15.5 9.4.2.4.5.8.5.8.1.2 0 .4-.1.5l-2.8 1.7c-.2.1-.4 0-.5-.1 0 0-.3-.5-.6-.9-2.4-3.8-6-7.4-12-7.4h-1.4v2.8c0 .5-.3.7-.8.4l-1.3-.9-3.8-2.9-1.3-.9-.2-.1c-.3-.3-.3-.7 0-.9z"/><path d="M7.9 19.7l-.2-.1c-.5-.4-.9-1-.9-1.6 0-.6.3-1.2.9-1.6l2.6-1.9v-1.3c0-.5-.4-.7-.8-.4l-1.3.9-5.3 3.8c-.3.2-.3.6 0 .8l.1.2 1.3.9 3.8 2.7 1.3.9c.4.3.8.1.8-.4v-1.3l-1.1-.8-1.2-.8z"/></g></svg>