<svg xmlns="http://www.w3.org/2000/svg" viewBox="0 0 36 36" enable-background="new 0 0 36 36"><path fill="none" d="M0 0h36v36h-36z"/><path fill="#0568ae" d="M20.1 26.7c-.5.5-1.1.8-1.8.8s-1.3-.3-1.8-.8l-5-5.1c-.1-.1-.1-.4 0-.5.1-.1.4-.1.5 0l5 5.1c.3.3.6.4 1 .5v-17.6c0-.2.2-.4.4-.4s.4.2.4.4v17.6c.3-.1.6-.2.9-.5l5-5.1c.1-.1.4-.2.5 0 .1.1.2.4 0 .5l-5.1 5.1zm-2.1-24.1c-7.1 0-13.2 4.8-14.9 11.7-.3 1.2-.5 2.5-.5 3.7 0 1.9.3 3.7 1 5.4 1.1 2.8 3 5.3 5.4 7.1.2.1.4.1.5-.1.1-.2.1-.4-.1-.5-2.4-1.7-4.2-4-5.2-6.7-.6-1.6-.9-3.4-.9-5.2 0-1.2.1-2.4.4-3.5 1.7-6.6 7.6-11.1 14.3-11.1 8.1 0 14.6 6.6 14.6 14.6 0 7.7-6 14.1-13.6 14.6-.2 0-.4.2-.3.4 0 .2.2.4.4.4 8-.5 14.3-7.3 14.3-15.3 0-8.6-6.9-15.5-15.4-15.5z"/></svg>