<svg xmlns="http://www.w3.org/2000/svg" viewBox="0 0 36 36" enable-background="new 0 0 36 36"><path fill="none" d="M0 0h36v36h-36z"/><path fill="#0568ae" d="M11.2 12c-.1-.1-.2-.4 0-.5l5-5.1c.5-.5 1.1-.8 1.8-.8s1.3.3 1.8.8l5 5.1c.1.1.1.4 0 .5-.1.1-.4.1-.5 0l-5-5.1c-.3-.3-.6-.4-1-.5v17.6c0 .2-.2.4-.4.4s-.4-.2-.4-.4v-17.6c-.3.1-.6.2-.9.5l-5 5.1c.1.1-.2.3-.4 0zm20.3 5.6c-.2 0-.4.2-.4.4v12.1c0 .6-.5 1.1-1.1 1.1h-24.1c-.6 0-1.1-.5-1.1-1.1v-12.1c0-.2-.2-.4-.4-.4s-.4.2-.4.4v12.1c0 1 .8 1.8 1.8 1.8h24.1c1 0 1.8-.8 1.8-1.8v-12.1c.2-.2 0-.4-.2-.4z"/></svg>