<svg xmlns="http://www.w3.org/2000/svg" viewBox="0 0 36 36" enable-background="new 0 0 36 36"><path fill="none" d="M0 0h36v36h-36z"/><path fill="#0568ae" d="M18.2 2.6c-7.1 0-13.2 4.8-14.9 11.7-.3 1.2-.5 2.4-.5 3.7 0 .2.2.4.4.4s.4-.2.4-.4c0-1.2.1-2.4.4-3.5 1.6-6.6 7.4-11.1 14.2-11.1 8.1 0 14.6 6.6 14.6 14.6 0 .2.2.4.4.4s.4-.2.4-.4c0-8.5-6.9-15.4-15.4-15.4zm6.8 14.8c.1.1.1.4 0 .5-.1.1-.4.1-.5 0l-5-5.1c-.3-.3-.6-.4-1-.5v17.7c0 .2-.2.4-.4.4s-.4-.2-.4-.4v-17.6c-.3.1-.6.2-.9.5l-4.8 5.1c-.1.1-.2.1-.3.1-.1 0-.2 0-.3-.1-.1-.1-.2-.4 0-.5l5-5.1c.5-.5 1.1-.8 1.8-.8s1.3.3 1.8.8l5 5z"/></svg>