<svg xmlns="http://www.w3.org/2000/svg" viewBox="0 0 36 36" enable-background="new 0 0 36 36"><path fill="none" d="M0 0h36v36h-36z"/><path fill="#0568ae" d="M31.5 18.7c-.6 0-1-.4-1-1 0-6.9-5.6-12.5-12.5-12.5-5.8 0-10.8 3.9-12.1 9.5-.2 1-.4 2-.4 3 0 .6-.4 1-1 1s-1-.4-1-1c0-1.2.1-2.4.4-3.5 1.6-6.5 7.4-11 14.1-11 8 0 14.5 6.5 14.5 14.5 0 .6-.4 1-1 1zm-20.7 2.8h3.3v7.9c0 .4.3.6.6.6h6.3c.4 0 .6-.3.6-.6v-7.9h3.3c.8 0 1-.5.5-1.1l-6.7-7.8-.2-.3c-.4-.4-1-.4-1.4 0l-.1.3-6.7 7.8c-.5.6-.3 1.1.5 1.1z"/></svg>