<svg xmlns="http://www.w3.org/2000/svg" viewBox="0 0 36 36" enable-background="new 0 0 36 36"><path fill="none" d="M0 0h36v36h-36z"/><path d="M21.142 14.895c-.369-.37-.535-.915-.456-1.494l.763-5.615c.028-.205.214-.348.422-.321.206.028.349.217.321.422l-.763 5.615c-.025.183-.011.353.034.504l9.639-9.639c.146-.147.384-.147.53 0 .146.146.146.384 0 .53l-9.657 9.656c.164.063.353.087.559.06l5.62-.74c.207-.028.394.118.42.323.027.205-.117.394-.323.421l-5.62.74c-.654.096-1.176-.148-1.489-.462zm-6.525-7.126c-.027-.206-.216-.35-.421-.323-.206.027-.35.215-.323.421l.74 5.619c.027.207.002.395-.06.559l-9.656-9.657c-.146-.147-.384-.147-.53 0-.147.147-.147.384 0 .53l9.639 9.639c-.151.046-.321.059-.504.035l-5.616-.764c-.204-.031-.394.116-.422.321-.028.205.116.394.321.422 0 0 5.668.794 5.949.788.391-.008.851-.172 1.16-.481.37-.368.538-.912.462-1.491l-.739-5.618zm-1.25 12.875l-5.62.74c-.206.027-.35.215-.323.42.027.205.216.354.421.323l5.62-.74c.206-.026.394-.002.558.06l-9.656 9.656c-.147.146-.147.384 0 .53.073.073.169.11.265.11s.192-.037.265-.11l9.639-9.639c.046.151.06.321.035.504l-.764 5.615c-.028.205.116.394.321.422l.051.003c.185 0 .345-.136.371-.325l.764-5.615c.079-.579-.087-1.124-.456-1.494-.368-.368-.912-.537-1.491-.46zm8.627.799c.151-.046.321-.06.504-.034l5.616.764c.2.029.394-.116.422-.321.028-.205-.116-.394-.321-.422l-5.616-.764c-.578-.077-1.124.088-1.494.456-.375.374-.54.904-.462 1.492l.739 5.619c.025.189.186.326.371.326l.049-.003c.206-.027.35-.215.323-.42l-.739-5.619c-.027-.207-.002-.395.06-.559l9.656 9.657c.073.073.169.11.265.11s.192-.037.265-.11c.146-.147.146-.384 0-.53l-9.638-9.642z" fill="#0568ae"/></svg>