<svg xmlns="http://www.w3.org/2000/svg" viewBox="0 0 36 36" enable-background="new 0 0 36 36"><path fill="none" d="M0 0h36v36h-36z"/><path fill="#0568ae" d="M28.9 14.9l-7.4.6h-.3c-.4 0-.7-.3-.7-.7v-.3l.6-7.4c0-.6.4-.7.8-.3l1.7 1.7 4-4c.2-.2.5-.2.7 0l3.2 3.2c.2.2.2.5 0 .7l-4 4 1.7 1.7c.4.4.2.8-.3.8zm-22.1 7l1.7 1.7-4 4c-.2.2-.2.5 0 .7l3.2 3.2c.2.2.5.2.7 0l4-4 1.7 1.7c.4.4.8.3.8-.3l.6-7.4v-.3c0-.4-.3-.7-.7-.7h-.3l-7.4.6c-.5 0-.7.4-.3.8zm15.1 7.3l1.7-1.7 4 4c.2.2.5.2.7 0l3.2-3.2c.2-.2.2-.5 0-.7l-4-4 1.7-1.7c.4-.4.3-.8-.3-.8l-7.4-.6h-.3c-.4 0-.7.3-.7.7v.3l.6 7.4c0 .5.4.7.8.3zm-7.8-22.4l-1.7 1.7-4-4c-.2-.2-.5-.2-.7 0l-3.2 3.2c-.2.2-.2.5 0 .7l4 4-1.7 1.7c-.4.4-.3.8.3.8l7.4.6h.3c.4 0 .7-.3.7-.7v-.3l-.6-7.4c0-.5-.4-.7-.8-.3z"/><path fill="none" d="M0 0h36v36h-36z"/></svg>