<svg xmlns="http://www.w3.org/2000/svg" viewBox="0 0 36 36" enable-background="new 0 0 36 36"><path fill="none" d="M0 0h36v36h-36z"/><path d="M14.343 4.64c.792 0 1.439.648 1.439 1.44v9c0 .792-.648 1.44-1.439 1.44h-9.001c-.792 0-1.44-.648-1.44-1.44v-9c0-.792.648-1.44 1.44-1.44h9.001m14.425 9.047l-1.61-.001v-1.725c0-2.139-1.74-3.88-3.88-3.88h-5.995v2h5.995c1.037 0 1.88.843 1.88 1.88v1.724l-1.61-.001c-.287 0-.385.19-.217.423l.513.711 2.082 2.886c.126.175.332.175.458 0l1.746-2.415.853-1.179c.169-.233.072-.423-.215-.423zm1.89 5.793c.792 0 1.44.648 1.44 1.44v9c0 .792-.648 1.44-1.44 1.44h-9.001c-.792 0-1.439-.648-1.439-1.44v-9c0-.792.648-1.44 1.439-1.44h9.001m-17.936 6.439c-1.037 0-1.88-.843-1.88-1.88v-1.724l1.61.001c.287 0 .385-.19.217-.423l-.513-.711-2.082-2.886c-.126-.174-.332-.175-.458 0l-1.746 2.415-.854 1.179c-.168.233-.071.423.216.423l1.61.001v1.725c0 2.139 1.74 3.88 3.88 3.88h5.995v-2h-5.995z" fill="#0568ae"/></svg>