<svg xmlns="http://www.w3.org/2000/svg" viewBox="0 0 36 36" enable-background="new 0 0 36 36"><path fill="none" d="M0 0h36v36h-36z"/><path d="M29.76 19.104h-9.001c-1 0-1.815.814-1.815 1.815v5.846h-6.161c-1.381 0-2.505-1.124-2.505-2.505v-4.88l1.128 1.483c.074.097.186.148.299.148.079 0 .159-.025.227-.076.165-.126.197-.361.071-.526l-1.382-1.817c-.186-.244-.462-.394-.735-.385-.28 0-.547.139-.733.381l-1.39 1.811c-.126.164-.095.399.069.526.164.126.4.095.526-.069l1.17-1.525v4.929c0 1.795 1.46 3.255 3.255 3.255h6.161v2.404c0 1.001.814 1.815 1.815 1.815h9.001c1 0 1.814-.814 1.814-1.815v-9c0-1-.814-1.815-1.814-1.815zm1.064 10.816c0 .587-.477 1.065-1.064 1.065h-9.001c-.587 0-1.065-.478-1.065-1.065v-9c0-.587.478-1.065 1.065-1.065h9.001c.587 0 1.064.478 1.064 1.065v9zm-13.769-14.84v-5.845h6.295c1.381 0 2.505 1.124 2.505 2.505v4.881l-1.128-1.483c-.125-.165-.361-.197-.525-.071-.165.125-.197.361-.071.525l1.381 1.816c.185.244.452.384.732.385h.002c.28 0 .547-.139.733-.381l1.39-1.811c.126-.164.095-.4-.069-.526-.165-.127-.399-.095-.526.069l-1.17 1.524v-4.928c0-1.795-1.46-3.255-3.255-3.255h-6.295v-2.405c0-1.001-.814-1.815-1.815-1.815h-9c-1.001 0-1.815.814-1.815 1.815v9c0 1.001.814 1.815 1.815 1.815h9c1.002 0 1.816-.814 1.816-1.815zm-11.881 0v-9c0-.587.478-1.065 1.065-1.065h9c.587 0 1.065.478 1.065 1.065v9c0 .587-.478 1.065-1.065 1.065h-9c-.587 0-1.065-.478-1.065-1.065z" fill="#0568ae"/></svg>