<svg xmlns="http://www.w3.org/2000/svg" viewBox="0 0 36 36" enable-background="new 0 0 36 36"><path fill="none" d="M0 0h36v36h-36z"/><path d="M9.065 17.328h17.613c-.079-.33-.246-.634-.497-.878l-5.115-4.966c-.149-.144-.152-.382-.008-.53.146-.149.383-.152.53-.008l5.115 4.966c.501.487.778 1.138.779 1.834.001.694-.272 1.345-.771 1.833l-5.095 4.988c-.073.071-.168.107-.262.107-.097 0-.194-.038-.268-.113-.145-.148-.142-.385.006-.531l5.095-4.988c.271-.266.446-.601.513-.964h-17.635c-.207 0-.375-.168-.375-.375s.168-.375.375-.375zm8.935-14.703c-7.085 0-13.222 4.796-14.924 11.663-.3 1.208-.451 2.456-.451 3.712 0 1.866.331 3.691.984 5.424 1.074 2.848 2.955 5.295 5.438 7.077.169.121.402.083.523-.086.121-.168.082-.402-.086-.523-2.363-1.695-4.152-4.023-5.173-6.732-.621-1.648-.936-3.384-.936-5.16 0-1.195.144-2.383.428-3.531 1.62-6.532 7.458-11.094 14.197-11.094 8.064 0 14.625 6.561 14.625 14.625 0 7.676-5.993 14.085-13.643 14.593-.206.014-.363.192-.349.399.013.198.178.35.374.35l.025-.001c8.043-.533 14.343-7.272 14.343-15.341 0-8.478-6.897-15.375-15.375-15.375z" fill="#0568ae"/></svg>