<svg xmlns="http://www.w3.org/2000/svg" viewBox="0 0 36 36" enable-background="new 0 0 36 36"><path fill="none" d="M0 0h36v36h-36z"/><path d="M19.418 12.802c-.891-.466-1.847-.775-2.839-.919-.159-.024-.313.056-.386.198-.073.141-.05.313.059.43 2.359 2.521 2.871 6.272 1.272 9.333-1.408 2.697-4.176 4.372-7.223 4.372-.388 0-.78-.028-1.163-.084-.158-.021-.313.056-.386.198-.074.141-.05.313.059.43.686.732 1.485 1.339 2.377 1.806 1.268.662 2.689 1.012 4.109 1.012 3.328 0 6.351-1.831 7.889-4.778 1.1-2.105 1.313-4.512.602-6.778-.714-2.268-2.265-4.122-4.37-5.22zm3.1 11.649c-1.408 2.698-4.176 4.375-7.224 4.375-1.319 0-2.584-.312-3.762-.927-.504-.264-.977-.577-1.412-.936l.179.002h.001c3.327 0 6.349-1.83 7.887-4.775 1.575-3.016 1.274-6.645-.692-9.348.543.152 1.07.361 1.575.625 1.928 1.006 3.348 2.703 4 4.778.651 2.074.455 4.278-.552 6.206zm9.934-12.844l-.979 3.964c-.11.442-.388.789-.764.952-.157.068-.325.102-.498.102-.24 0-.487-.066-.718-.195l-3.566-1.989c-.181-.101-.246-.329-.145-.51s.33-.247.51-.145c0 0 3.612 2.009 3.634 2.019-1.19-3.953-4.069-7.079-7.914-8.583-3.319-1.3-6.946-1.229-10.213.201-3.266 1.429-5.78 4.044-7.079 7.364-.074.194-.292.288-.484.213-.193-.075-.288-.293-.212-.486 1.371-3.505 4.026-6.268 7.476-7.777 3.45-1.51 7.28-1.585 10.787-.213 4.068 1.591 7.113 4.901 8.366 9.086.039-.064 1.071-4.182 1.071-4.182.05-.201.254-.323.454-.274.201.049.323.252.274.453z" fill="#0568ae"/></svg>