<svg xmlns="http://www.w3.org/2000/svg" viewBox="0 0 36 36" enable-background="new 0 0 36 36"><path fill="none" d="M0 0h36v36h-36z"/><path d="M23.188 24.801c-1.538 2.947-4.561 4.778-7.889 4.778-1.42 0-2.841-.35-4.109-1.011-.892-.466-1.691-1.074-2.376-1.806-.109-.116-.133-.289-.059-.43.074-.141.224-.223.386-.198.384.056.775.084 1.163.084 3.047 0 5.814-1.675 7.223-4.372 1.599-3.061 1.087-6.812-1.272-9.333-.109-.116-.132-.289-.059-.43.074-.141.224-.223.386-.198.993.144 1.948.453 2.839.919 2.105 1.099 3.657 2.952 4.368 5.218.712 2.267.498 4.674-.601 6.779zm8.676-11.915l-1.569.373c-1.679-3.551-4.758-6.322-8.518-7.579-3.673-1.227-7.605-.951-11.07.778-3.104 1.548-5.5 4.096-6.849 7.248-.158.368-.308.79-.308.79-.066.186.033.39.22.453l1.214.406c.188.063.397-.038.464-.224 0 0 .162-.447.33-.824 1.177-2.63 3.209-4.756 5.822-6.059 2.988-1.49 6.377-1.729 9.544-.67 3.106 1.038 5.672 3.278 7.155 6.158l-1.512.36c-.279.066-.33.274-.112.462l3.26 2.812c.217.188.485.124.595-.142l1.644-3.979c.109-.266-.03-.429-.31-.363z" fill="#0568ae"/></svg>