<svg xmlns="http://www.w3.org/2000/svg" viewBox="0 0 36 36" enable-background="new 0 0 36 36"><path fill="none" d="M0 0h36v36h-36z"/><path d="M12.708 17.743l2.585-5.964c.004-.013.189-.523.818-.523h3.084c.268 0 .457.072.563.214.13.174.075.375.068.398l-.914 2.738-.011.032c-.033.093-.095.267-.03.359.049.069.174.106.363.106h1.784c.252 0 .423.072.508.215.129.216-.01.484-.026.514-.069.101-6.191 8.906-6.369 9.168-.094.136-.239.217-.389.217-.112 0-.213-.047-.277-.128-.07-.089-.09-.211-.058-.345.045-.185 1.293-5.631 1.305-5.686.003-.013.068-.224-.033-.366-.069-.096-.206-.147-.407-.151-.367-.008-.719-.006-1.152-.003l-.844.003c-.311 0-.517-.084-.612-.25-.133-.236.025-.517.044-.548zm-7.718 2.57c-.139-.747-.209-1.51-.209-2.277 0-4.108 2.007-7.92 5.368-10.196.194-.132.469-.286.755-.437l.344 1.447c.067.279.274.33.462.112l.573-.664.898-1.041 1.341-1.555.085-.099c.141-.163.093-.364-.107-.446l-.121-.05-3.978-1.644c-.266-.11-.428.029-.362.308l.388 1.629c-.463.231-1.016.524-1.399.783-3.912 2.649-6.247 7.08-6.247 11.853 0 .919.087 1.834.259 2.729l.1.472c.046.193.24.31.432.261l1.241-.316c.192-.049.312-.246.266-.439l-.089-.43zm21.05 6.832c-.138-.142-.369-.147-.513-.011l-.329.292c-.577.494-1.203.936-1.868 1.32-3.558 2.054-7.862 2.222-11.514.45-.211-.103-.482-.263-.756-.435l1.081-1.021c.208-.198.149-.403-.134-.456l-.861-.164-1.351-.257-2.017-.384-.128-.025c-.212-.04-.362.102-.333.315l.017.129.566 4.268c.038.285.239.356.448.159l1.216-1.15c.431.285.962.618 1.378.82 4.25 2.063 9.254 1.87 13.388-.517.796-.46 1.545-.992 2.234-1.589l.359-.323c.144-.136.149-.364.01-.505l-.893-.916zm6.944-8.246l-1.604-.479c.032-.516.054-1.142.021-1.603-.338-4.712-3.008-8.949-7.141-11.336-.796-.46-1.632-.842-2.493-1.14l-.459-.15c-.19-.057-.389.053-.443.244l-.347 1.232c-.054.191.058.393.247.45l.417.138c.718.254 1.414.575 2.078.958 3.558 2.054 5.856 5.698 6.146 9.747.017.234.013.549.001.872l-1.425-.425c-.275-.082-.423.073-.329.344l.289.828.453 1.298.676 1.939.043.123c.071.203.269.262.439.131l.104-.08 3.413-2.623c.228-.175.189-.386-.086-.468z" fill="#0568ae"/></svg>