<svg xmlns="http://www.w3.org/2000/svg" viewBox="0 0 36 36" enable-background="new 0 0 36 36"><path fill="none" d="M0 0h36v36h-36z"/><path d="M33.463 19.532l-2.963 2.715c-.271.25-.604.385-.934.385l-.21-.018c-.398-.07-.746-.34-.952-.74l-1.839-3.574c-.095-.185-.023-.41.162-.505.184-.094.41-.022.505.162l1.838 3.573.103.151.105-.362c.28-1.075.422-2.19.422-3.314 0-5.993-4.048-11.221-9.845-12.712-.201-.052-.321-.256-.27-.457.052-.201.256-.322.456-.27 6.129 1.577 10.409 7.103 10.409 13.439 0 1.187-.151 2.365-.447 3.503l-.066.23.056-.044 2.963-2.715c.153-.141.39-.129.53.022.14.154.13.391-.023.531zm-30.013-1.527c0-5.924 3.935-11.065 9.606-12.638l-.072.222-1.818 3.583c-.094.185-.02.41.165.504l.17.04c.137 0 .269-.075.335-.205l1.818-3.583c.203-.401.219-.84.043-1.205-.176-.364-.529-.624-.968-.714l-3.937-.811c-.202-.043-.401.088-.442.291-.042.203.088.401.291.443l3.903.805c-5.827 1.763-9.844 7.115-9.844 13.268 0 1.427.215 2.833.641 4.178.05.16.198.262.357.262l.113-.018c.198-.063.307-.273.245-.471-.402-1.272-.606-2.601-.606-3.951zm22.299 9.386c-2.466 2.411-5.724 3.739-9.173 3.739-3.056 0-6.031-1.074-8.378-3.022-.356-.296-.691-.615-1.012-.943l.24-.035 4.014.181c.214.008.382-.151.392-.358.009-.207-.151-.382-.357-.391l-4.016-.182c-.451-.024-.857.146-1.116.457-.259.31-.351.739-.252 1.176l.881 3.921c.039.174.194.293.365.293l.082-.009c.202-.045.329-.246.284-.448l-.876-3.9c.285.282.58.558.89.815 2.482 2.061 5.628 3.195 8.858 3.195 3.646 0 7.09-1.404 9.698-3.953.148-.145.151-.382.006-.53-.145-.149-.383-.151-.53-.006zm-13.467-9.887l2.645-6.106c.081-.238.41-.684 1.063-.684h3.172c.356 0 .616.107.773.317.2.268.125.566.108.623l-.942 2.821-.056.18.157.014h1.835c.437 0 .638.185.73.339.196.33.016.697-.022.768l-6.563 9.449c-.142.206-.366.328-.6.328-.19 0-.363-.082-.475-.224-.119-.151-.156-.35-.104-.561.046-.189 1.329-5.788 1.342-5.844l.005-.181c-.01-.014-.071-.051-.227-.054l-.59-.006-.588.003-.869.003c-.414 0-.696-.128-.84-.379-.205-.36.02-.761.046-.806zm.63.422l.164.014.864-.003.592-.003.607.006c.469.01.707.206.823.37.247.348.121.768.106.815-.036.162-.867 3.79-1.2 5.238 1.245-1.793 5.775-8.309 6.214-8.941l-.045-.001h-1.835c-.372 0-.637-.109-.789-.324-.219-.31-.089-.676-.033-.833l.93-2.784-.149-.015h-3.171c-.26 0-.347.164-.368.214l-2.674 6.166-.036.081z" fill="#0568ae"/></svg>