<svg xmlns="http://www.w3.org/2000/svg" viewBox="0 0 36 36"><path fill="none" d="M7.8 7h20.3v20.3H7.8z"/><path fill="#000000" d="M26 16.2l-3.3-2.5c-.1-.1-.2-.1-.3 0-.1.1-.1.2 0 .3l3.3 2.5c.1.1.2.2.3.4h-3.7c-7.8 0-11.3 3.4-12.7 5.5-.1.1 0 .2.1.3.1.1.3 0 .3-.1 1.3-2 4.7-5.3 12.3-5.3H26c0 .2-.2.3-.3.4l-3.2 2.5c-.1.1-.1.2 0 .3 0 .1.1.1.3 0L26 18c.3-.2.5-.6.5-.9 0-.3-.2-.7-.5-.9z"/><g><path fill="none" d="M0 0h36v36H0z"/><path fill="#000000" d="M18 2.6c-7.1 0-13.2 4.8-14.9 11.7-.3 1.2-.5 2.5-.5 3.7 0 1.9.3 3.7 1 5.4 1.1 2.8 3 5.3 5.4 7.1.2.1.4.1.5-.1.1-.2.1-.4-.1-.5-2.4-1.7-4.2-4-5.2-6.7-.6-1.6-.9-3.4-.9-5.2 0-1.2.1-2.4.4-3.5C5.4 7.9 11.3 3.4 18 3.4c8.1 0 14.6 6.6 14.6 14.6 0 7.7-6 14.1-13.6 14.6-.2 0-.4.2-.3.4 0 .2.2.4.4.4 8-.5 14.3-7.3 14.3-15.3 0-8.6-6.9-15.5-15.4-15.5z"/></g></svg>