<?xml version="1.0" encoding="utf-8"?>
<!-- Generator: Adobe Illustrator 18.1.0, SVG Export Plug-In . SVG Version: 6.00 Build 0)  -->
<svg version="1.0" id="Layer_1" xmlns="http://www.w3.org/2000/svg" xmlns:xlink="http://www.w3.org/1999/xlink" x="0px" y="0px"
	 viewBox="0 0 36 36" enable-background="new 0 0 36 36" xml:space="preserve">
<path fill="#0568ae" d="M27,23.9h0.6v6.2H27v-5.4l-1.5,1.1l-0.3-0.5L27,23.9z M31.9,23c0.9,1.1,1.4,2.5,1.4,4
			c0,3.5-2.9,6.4-6.4,6.4c-3.4,0-6.2-2.7-6.4-6h-5.1c0,0,0,0,0,0l2.8,2.2c0.2,0.1,0.2,0.4,0.1,0.5c-0.1,0.1-0.2,0.1-0.3,0.1
			c-0.1,0-0.2,0-0.2-0.1L15.1,28c-0.3-0.3-0.5-0.6-0.5-1c0-0.4,0.2-0.7,0.5-1l2.9-2.2c0.2-0.1,0.4-0.1,0.5,0.1
			c0.1,0.2,0.1,0.4-0.1,0.5l-2.9,2.2c0,0,0,0,0,0h5.1c0.2-3.3,3-6,6.4-6c1.7,0,3.3,0.7,4.4,1.8c0.8-1.3,1.2-2.8,1.2-4.4
			c0-4.8-3.9-8.6-8.6-8.6c-0.2,0-0.4-0.2-0.4-0.4c0-0.2,0.2-0.4,0.4-0.4c5.2,0,9.4,4.2,9.4,9.4C33.4,19.8,32.8,21.5,31.9,23z
			 M27,21.4c-3.1,0-5.6,2.5-5.6,5.6s2.5,5.6,5.6,5.6c3.1,0,5.6-2.5,5.6-5.6S30.1,21.4,27,21.4z M12,26.6c-4.8,0-8.6-3.9-8.6-8.6
			c0-4.8,3.9-8.6,8.6-8.6h8.4c0,0,0,0,0,0l-2.9,2.2c-0.2,0.1-0.2,0.4-0.1,0.5c0.1,0.1,0.2,0.1,0.3,0.1c0.1,0,0.2,0,0.2-0.1l2.9-2.2
			c0.3-0.3,0.5-0.6,0.5-1c0-0.4-0.2-0.7-0.5-1L18,5.8c-0.2-0.1-0.4-0.1-0.5,0.1c-0.1,0.2-0.1,0.4,0.1,0.5l2.8,2.2c0,0,0,0,0,0H12
			c-5.2,0-9.4,4.2-9.4,9.4c0,5.2,4.2,9.4,9.4,9.4c0.2,0,0.4-0.2,0.4-0.4C12.4,26.8,12.2,26.6,12,26.6z"/>
</svg>
