<svg xmlns="http://www.w3.org/2000/svg" viewBox="0 0 36 36" enable-background="new 0 0 36 36"><path fill="none" d="M0 0h36v36h-36z"/><path d="M12.375 27c0 .207-.168.375-.375.375-5.169 0-9.375-4.205-9.375-9.375 0-5.169 4.206-9.375 9.375-9.375h8.408l-.005-.004-2.843-2.182c-.164-.126-.195-.361-.069-.526.126-.164.361-.195.526-.069l2.843 2.182c.328.252.517.61.516.984-.001.373-.19.731-.519.981l-2.856 2.169c-.068.052-.147.076-.226.076-.113 0-.225-.051-.299-.148-.125-.165-.093-.4.072-.525l2.855-2.169.021-.019h-8.424c-4.756 0-8.625 3.869-8.625 8.625s3.869 8.625 8.625 8.625c.207 0 .375.168.375.375zm19.56-4.03c.899 1.099 1.44 2.502 1.44 4.03 0 3.515-2.86 6.375-6.375 6.375-3.389 0-6.16-2.66-6.356-6h-5.053l.005.004 2.843 2.182c.164.126.195.361.069.526-.074.096-.185.147-.298.147-.08 0-.16-.025-.228-.078l-2.843-2.182c-.328-.252-.516-.611-.515-.984.001-.373.19-.731.519-.981l2.855-2.169c.165-.125.4-.093.525.072.125.165.093.4-.072.525l-2.855 2.169-.021.019h5.068c.196-3.34 2.968-6 6.356-6 1.708 0 3.258.679 4.404 1.777.771-1.29 1.221-2.793 1.221-4.402 0-4.756-3.869-8.625-8.625-8.625-.207 0-.375-.168-.375-.375s.168-.375.375-.375c5.17 0 9.375 4.206 9.375 9.375.001 1.827-.532 3.528-1.439 4.97zm-4.935-1.595c-3.102 0-5.625 2.523-5.625 5.625s2.523 5.625 5.625 5.625 5.625-2.523 5.625-5.625-2.523-5.625-5.625-5.625zm2.513 3.111c-.147-.146-.384-.146-.53 0l-1.983 1.984-1.983-1.983c-.146-.146-.384-.146-.53 0-.147.146-.147.384 0 .53l1.982 1.983-1.983 1.984c-.147.146-.147.384 0 .53.073.073.169.11.265.11s.192-.037.265-.11l1.984-1.984 1.983 1.983c.073.073.169.11.265.11s.192-.037.265-.11c.146-.147.146-.384 0-.53l-1.983-1.983 1.983-1.984c.147-.146.147-.384 0-.53z" fill="#0568ae"/></svg>