<svg xmlns="http://www.w3.org/2000/svg" viewBox="0 0 36 36" enable-background="new 0 0 36 36"><path fill="none" d="M0 0h36v36h-36zM0 0h36v36h-36z"/><path d="M23.199 7.903l-3.584 2.577-.883.635c-.289.208-.525.087-.524-.27l.004-1.737h-5.882c-3.862 0-7.005 3.142-7.005 7.005 0 2.538 1.359 4.843 3.523 6.081.242.139.429.224.429.224.18.083.264.299.187.482l-.888 2.1c-.077.182-.288.266-.469.185l-.351-.172c-3.322-1.706-5.43-5.122-5.43-8.9 0-5.517 4.488-10.005 10.005-10.005h5.888l.004-1.738c.001-.356.237-.476.525-.267l.88.639 1.85 1.343 1.592 1.155.13.094c.217.157.216.413-.001.569zm3.801 13.097c-1.536 0-3.071.586-4.243 1.757-2.343 2.343-2.343 6.142 0 8.485 1.172 1.172 2.708 1.758 4.243 1.758 1.535 0 3.071-.586 4.243-1.757 2.343-2.343 2.343-6.142 0-8.485-1.172-1.172-2.707-1.758-4.243-1.758m-2.024 9.024c-.256 0-.512-.098-.707-.293-.39-.391-.39-1.024 0-1.414l1.317-1.317-1.317-1.317c-.391-.391-.391-1.024 0-1.414.195-.195.451-.293.707-.293.256 0 .512.098.707.293l1.317 1.317 1.317-1.317c.195-.195.451-.293.707-.293s.512.098.707.293c.39.391.39 1.024 0 1.414l-1.317 1.317 1.316 1.316c.391.39.391 1.024 0 1.414-.195.195-.451.293-.707.293-.256 0-.512-.098-.707-.293l-1.316-1.316-1.317 1.317c-.195.195-.451.293-.707.293m1.747-20.216s.187.085.428.224c2.164 1.238 3.523 3.543 3.523 6.081 0 1.414-.424 2.729-1.148 3.831.941.336 1.809.861 2.56 1.556 1-1.557 1.588-3.403 1.588-5.387 0-3.778-2.108-7.194-5.43-8.9l-.351-.172c-.181-.081-.392.003-.469.185l-.888 2.1c-.077.182.007.399.187.482zm-6.133 13.31h-2.801l.004-1.736c.001-.356-.235-.478-.524-.27l-.883.635-3.584 2.577c-.217.156-.217.412-.001.569l.131.095 1.592 1.155 1.85 1.343.88.639c.288.209.525.089.526-.267l.004-1.738h1.775c.123-1.073.476-2.09 1.031-3.002z" fill="#0568ae"/></svg>