<?xml version="1.0" encoding="utf-8"?>
<!-- Generator: Adobe Illustrator 18.1.0, SVG Export Plug-In . SVG Version: 6.00 Build 0)  -->
<svg version="1.0" id="Layer_1" xmlns="http://www.w3.org/2000/svg" xmlns:xlink="http://www.w3.org/1999/xlink" x="0px" y="0px"
	 viewBox="0 0 36 36" enable-background="new 0 0 36 36" xml:space="preserve">
<path fill="#0568ae" d="M23.2,7.9l-3.6,2.6h0l-0.9,0.6c-0.3,0.2-0.5,0.1-0.5-0.3l0-1.7h-5.9c-3.9,0-7,3.1-7,7
			c0,2.5,1.4,4.8,3.5,6.1c0.2,0.1,0.4,0.2,0.4,0.2c0.2,0.1,0.3,0.3,0.2,0.5L8.6,25c-0.1,0.2-0.3,0.3-0.5,0.2c0,0-0.1-0.1-0.4-0.2
			c-3.3-1.7-5.4-5.1-5.4-8.9c0-5.5,4.5-10,10-10h5.9l0-1.7c0-0.4,0.2-0.5,0.5-0.3l0.9,0.6l0,0l1.9,1.3l1.6,1.2l0.1,0.1
			C23.4,7.5,23.4,7.7,23.2,7.9z M20.6,23.1h-2.8l0-1.7c0-0.4-0.2-0.5-0.5-0.3l-0.9,0.6h0l-3.6,2.6c-0.2,0.2-0.2,0.4,0,0.6l0.1,0.1
			l1.6,1.2l1.9,1.3l0,0l0.9,0.6c0.3,0.2,0.5,0.1,0.5-0.3l0-1.7h1.8C19.7,25,20,24,20.6,23.1z M26.7,9.8c0,0,0.2,0.1,0.4,0.2
			c2.2,1.2,3.5,3.5,3.5,6.1c0,1.4-0.4,2.7-1.2,3.9c1,0.3,1.8,0.9,2.6,1.5c1-1.6,1.6-3.4,1.6-5.4c0-3.8-2.1-7.2-5.4-8.9
			C28,7.1,27.9,7,27.9,7c-0.2-0.1-0.4,0-0.5,0.2l-0.9,2.1C26.5,9.5,26.5,9.7,26.7,9.8z M27,21c-3.4,0-6,2.6-6,6c0,3.3,2.6,6,6,6
			c3.4,0,6-2.6,6-6C33,23.7,30.3,21,27,21z M28.1,30.3h-1.4v-5.1l-1.3,0.9l-0.6-0.9l2-1.5h1.3V30.3z"/>
</svg>
