<svg xmlns="http://www.w3.org/2000/svg" viewBox="0 0 36 36" enable-background="new 0 0 36 36"><path fill="none" d="M0 0h36v36h-36z"/><path d="M34.381 12.044c-.188-.089-.411-.009-.5.177l-1.918 4.031c-.047.098-.106.178-.172.245-.753-6.963-6.746-12.372-13.79-12.372-7.651 0-13.875 6.224-13.875 13.875s6.224 13.875 13.875 13.875c4.794 0 9.185-2.425 11.745-6.484.573-.908 1.039-1.883 1.386-2.896.067-.196-.038-.409-.234-.476s-.409.038-.476.234c-.327.958-.768 1.879-1.31 2.738-2.422 3.841-6.575 6.134-11.11 6.135-7.237 0-13.125-5.888-13.125-13.125s5.888-13.125 13.125-13.125c6.669 0 12.343 5.127 13.047 11.722l-.169-.115-3.386-2.911c-.157-.135-.394-.117-.529.04s-.117.394.04.529l3.386 2.911c.292.251.639.385.982.385l.268-.028c.427-.09.791-.394 1.001-.833l1.918-4.031c.087-.189.008-.412-.179-.501z" fill="#0568ae"/></svg>