<svg xmlns="http://www.w3.org/2000/svg" viewBox="0 0 36 36" enable-background="new 0 0 36 36"><path fill="none" d="M0 0h36v36h-36z"/><path d="M32.3 11.907l-1.658.559c-.217-.515-.459-1.019-.736-1.506-2.532-4.452-7.284-7.218-12.4-7.218-7.861 0-14.257 6.397-14.257 14.258s6.396 14.258 14.257 14.258c4.926 0 9.437-2.491 12.067-6.662.351-.556.775-1.415.775-1.415.087-.177.012-.389-.169-.471l-2.078-.937c-.181-.081-.4-.003-.488.175 0 0-.301.609-.578 1.048-2.078 3.295-5.64 5.262-9.53 5.263-6.208 0-11.257-5.05-11.257-11.258s5.05-11.258 11.257-11.258c4.04 0 7.793 2.184 9.793 5.701.182.32.342.65.491.986l-1.624.548c-.338.114-.376.376-.087.583l.885.632 3.593 2.564c.217.155.46.073.539-.182l.048-.155.581-1.879.676-2.184.321-1.039c.107-.34-.083-.525-.421-.411z" fill="#0568ae"/></svg>