<svg xmlns="http://www.w3.org/2000/svg" viewBox="0 0 36 36" enable-background="new 0 0 36 36"><path fill="none" d="M0 0h36v36h-36z"/><path d="M33.463 19.532l-2.963 2.715c-.272.25-.604.384-.935.384l-.211-.018c-.398-.07-.746-.34-.952-.739l-1.838-3.574c-.095-.184-.022-.41.162-.505.184-.095.411-.022.505.162l1.838 3.573.103.151.105-.363c.28-1.076.422-2.191.422-3.314 0-5.993-4.048-11.221-9.845-12.712-.201-.052-.321-.256-.27-.457.052-.201.26-.321.457-.27 6.129 1.578 10.409 7.104 10.409 13.44 0 1.187-.151 2.365-.447 3.503l-.067.23.057-.044 2.963-2.715c.153-.14.391-.129.53.023.14.153.13.39-.023.53zm-30.013-1.527c0-5.923 3.935-11.065 9.606-12.638l-.072.222-1.818 3.583c-.094.185-.02.41.165.504l.169.04c.137 0 .269-.075.335-.205l1.818-3.583c.203-.401.219-.84.043-1.205-.176-.364-.529-.624-.968-.714l-3.936-.811c-.201-.044-.401.088-.442.291-.042.203.088.401.291.443l3.903.805c-5.827 1.763-9.844 7.116-9.844 13.268 0 1.427.215 2.833.64 4.178.05.16.198.262.358.262l.113-.018c.197-.062.307-.273.245-.47-.402-1.272-.606-2.602-.606-3.952zm22.299 9.386c-2.467 2.411-5.725 3.739-9.173 3.739-3.056 0-6.031-1.074-8.379-3.023-.359-.298-.696-.619-1.018-.95l.247-.029 4.014.182c.207.019.382-.151.391-.358.01-.207-.151-.382-.358-.392l-4.014-.182c-.447-.019-.857.147-1.116.458-.259.31-.35.739-.252 1.175l.881 3.921c.039.175.194.293.366.293l.082-.009c.202-.045.329-.246.284-.448l-.876-3.9c.285.282.579.557.89.815 2.482 2.061 5.627 3.196 8.858 3.196 3.646 0 7.09-1.404 9.698-3.953.148-.144.151-.382.006-.53-.146-.147-.383-.15-.531-.005z" fill="#0568ae"/></svg>