<svg xmlns="http://www.w3.org/2000/svg" viewBox="0 0 36 36" enable-background="new 0 0 36 36"><path fill="none" d="M0 0h36v36h-36zM0 0h36v36h-36z"/><path d="M32.476 17.841l-.756.781-1.59 1.643-1.368 1.413-.113.116c-.186.192-.439.155-.563-.081l-2.046-3.912-.504-.964c-.165-.316-.012-.532.341-.481l1.653.239c-.425-3.288-2.351-6.201-5.236-7.866-.359-.208-.729-.394-1.107-.557-.436-.189-.996-.367-.996-.367-.188-.06-.299-.265-.245-.456l.617-2.195c.054-.191.252-.299.442-.24 0 0 .506.156.921.318.642.251 1.267.552 1.868.898 3.897 2.25 6.433 6.274 6.785 10.765l-.003.14 1.709.247c.353.052.439.303.191.559zm-26.023 1.453c-.047-.409-.071-.822-.071-1.237 0-3.331 1.56-6.456 4.194-8.467l.619 1.551c.132.331.396.355.587.054l.583-.918 2.365-3.728c.143-.225.048-.463-.211-.528l-.157-.039-1.908-.478-2.217-.556-1.054-.264c-.345-.087-.52.113-.388.444l.64 1.603-.123.067c-3.713 2.55-5.93 6.759-5.93 11.259 0 .694.052 1.385.156 2.067.067.441.185.957.185.957.044.193.237.311.429.262l2.209-.563c.192-.049.314-.247.272-.44 0-.001-.125-.574-.18-1.046zm18.275 6.673c-.138-.142-.371-.149-.517-.016 0 0-.434.396-.816.679-.331.245-.677.472-1.036.68-2.884 1.665-6.371 1.877-9.43.601l1.033-1.312c.22-.28.109-.521-.246-.536l-1.087-.045-4.411-.184c-.267-.011-.425.19-.352.447l.044.156.54 1.891.628 2.198.299 1.046c.098.343.358.394.578.114l1.068-1.356.119.073c4.065 1.94 8.819 1.756 12.715-.494.601-.347 1.174-.738 1.712-1.168.348-.278.736-.638.736-.638.145-.135.151-.361.013-.503l-1.59-1.633z" fill="#0568ae"/></svg>