<svg xmlns="http://www.w3.org/2000/svg" viewBox="0 0 36 36" enable-background="new 0 0 36 36"><path fill="none" d="M0 0h36v36h-36z"/><path d="M34.326 21.191l-1.688.005c-.851 3.867-3.211 7.304-6.585 9.454-6.596 4.204-15.264 2.591-19.945-3.496-.269-.35-.566-.794-.566-.794-.11-.165-.063-.386.103-.493l1.923-1.225c.167-.107.394-.059.505.105 0 0 .272.402.53.728 3.772 4.744 10.616 5.972 15.837 2.645 2.508-1.599 4.316-4.087 5.106-6.914l-1.695.005c-.356.001-.478-.235-.27-.524l.634-.883 2.573-3.587c.156-.217.412-.218.569-.002l.095.131 1.156 1.59 1.344 1.849.639.88c.211.288.091.524-.265.526zm-26.559-4.994l.634-.884c.208-.289.086-.525-.27-.524l-1.695.005c.79-2.827 2.598-5.316 5.106-6.914 5.222-3.328 12.066-2.099 15.837 2.645.259.326.531.728.531.728.111.164.338.212.505.105l1.923-1.225c.167-.107.214-.328.104-.493 0 0-.297-.444-.566-.794-4.682-6.087-13.349-7.699-19.945-3.496-3.374 2.15-5.734 5.587-6.585 9.454l-1.688.005c-.356.001-.476.238-.267.526l.639.88 1.344 1.849 1.156 1.591.095.131c.157.216.413.215.569-.002l2.573-3.587z" fill="#0568ae"/></svg>