<svg xmlns="http://www.w3.org/2000/svg" viewBox="0 0 36 36" enable-background="new 0 0 36 36"><path fill="none" d="M0 0h36v36h-36z"/><path d="M8.585 14.519l-3.101 2.558c-.266.22-.579.338-.889.338l-.274-.031c-.394-.091-.726-.379-.911-.789l-1.652-3.662c-.085-.189-.001-.411.188-.496.189-.086.411-.001.496.188l1.652 3.663.117.183c.476-4.268 2.834-8.007 6.485-10.267 6.505-4.026 15.074-2.01 19.101 4.494.109.176.055.407-.122.516-.176.109-.407.054-.516-.121-3.81-6.153-11.915-8.06-18.069-4.251-3.447 2.134-5.676 5.662-6.131 9.691l.047-.032 3.102-2.559c.16-.132.396-.109.528.051.132.158.109.394-.051.526zm25.656 8.548l-1.653-3.662c-.185-.41-.516-.698-.911-.789-.394-.092-.818.021-1.163.307l-3.1 2.558c-.16.132-.182.368-.05.528.132.16.369.181.528.05l3.1-2.559.044-.031c-.453 3.978-2.719 7.579-6.128 9.69-2.981 1.845-6.502 2.42-9.915 1.616-3.413-.803-6.308-2.887-8.153-5.867-.109-.176-.341-.231-.516-.122-.176.109-.231.34-.122.516 1.95 3.151 5.011 5.354 8.619 6.203 1.064.25 2.138.374 3.205.374 2.549 0 5.055-.708 7.277-2.083 3.611-2.236 6.009-6.055 6.481-10.27l.12.186 1.653 3.663c.063.139.199.221.342.221l.154-.033c.19-.085.273-.307.188-.496z" fill="#0568ae"/></svg>