<?xml version="1.0" encoding="utf-8"?>
<!-- Generator: Adobe Illustrator 18.1.0, SVG Export Plug-In . SVG Version: 6.00 Build 0)  -->
<svg version="1.0" id="Layer_1" xmlns="http://www.w3.org/2000/svg" xmlns:xlink="http://www.w3.org/1999/xlink" x="0px" y="0px"
	 viewBox="0 0 36 36" enable-background="new 0 0 36 36" xml:space="preserve">
<path fill="#0568ae" d="M24.7,25.3l1.8-1.4h0.6v6.2h-0.7v-5.4L25,25.8L24.7,25.3z M6.6,13.6v7.3c0,0,0,0,0,0l2.2-2.8
			c0.1-0.2,0.4-0.2,0.5-0.1c0.2,0.1,0.2,0.4,0.1,0.5l-2.2,2.8c-0.3,0.3-0.6,0.5-1,0.5h0c-0.4,0-0.7-0.2-1-0.5l-2.2-2.9
			C2.9,18.4,3,18.1,3.1,18c0.2-0.1,0.4-0.1,0.5,0.1l2.2,2.9c0,0,0,0,0,0v-7.3c0-2.7,2.2-4.8,4.8-4.8h5.9c2.7,0,4.8,2.2,4.8,4.8V18
			c0,0.2-0.2,0.4-0.4,0.4c-0.2,0-0.4-0.2-0.4-0.4v-4.4c0-2.2-1.8-4.1-4.1-4.1h-5.9C8.4,9.5,6.6,11.4,6.6,13.6z M29.5,21.3v-6.2
			c0,0,0,0,0,0l2.2,2.9c0.1,0.1,0.2,0.1,0.3,0.1c0.1,0,0.2,0,0.2-0.1c0.2-0.1,0.2-0.4,0.1-0.5l-2.2-2.9c-0.3-0.3-0.6-0.5-1-0.5
			c0,0,0,0,0,0c-0.4,0-0.7,0.2-1,0.5L26,17.5c-0.1,0.2-0.1,0.4,0.1,0.5c0.2,0.1,0.4,0.1,0.5-0.1l2.2-2.8c0,0,0,0,0,0V21
			c-0.7-0.2-1.4-0.4-2.1-0.4c-3.3,0-6.1,2.6-6.3,5.8h-1.6c-2.2,0-4.1-1.8-4.1-4.1V18c0-0.2-0.2-0.4-0.4-0.4c-0.2,0-0.4,0.2-0.4,0.4
			v4.4c0,2.7,2.2,4.8,4.8,4.8h1.6c0.1,3.4,2.9,6.2,6.4,6.2c3.5,0,6.4-2.9,6.4-6.4C33,24.5,31.6,22.4,29.5,21.3z M26.6,32.6
			c-3.1,0-5.6-2.5-5.6-5.6s2.5-5.6,5.6-5.6c3.1,0,5.6,2.5,5.6,5.6S29.7,32.6,26.6,32.6z"/>
</svg>
