<svg xmlns="http://www.w3.org/2000/svg" viewBox="0 0 36 36" enable-background="new 0 0 36 36"><path fill="none" d="M0 0h36v36h-36z"/><path d="M10.397 18.524l-.634.883-2.576 3.584c-.156.217-.412.217-.569.001l-.095-.131-1.156-1.591-1.343-1.85-.639-.88c-.209-.288-.089-.525.267-.525l1.738-.004v-5.4c0-2.812 2.288-5.1 5.1-5.1h6.8c2.812 0 5.1 2.288 5.1 5.1v5.03c0 .198-.162.36-.36.36h-2.28c-.198 0-.36-.162-.36-.36v-5.03c0-1.158-.942-2.1-2.1-2.1h-6.8c-1.158 0-2.1.942-2.1 2.1v5.394l1.738-.005c.356-.001.477.235.269.524zm22.217-1.064l-.639-.88-1.343-1.85-1.155-1.592-.095-.131c-.157-.216-.413-.216-.569.001l-2.576 3.585-.635.883c-.208.289-.087.525.269.524l1.737-.004v5.394c0 1.158-.942 2.1-2.1 2.1h-6.8c-1.158 0-2.1-.942-2.1-2.1v-5.03c0-.198-.162-.36-.36-.36h-2.28c-.198 0-.36.162-.36.36v5.03c0 2.812 2.288 5.1 5.1 5.1h6.8c2.812 0 5.1-2.288 5.1-5.1v-5.4l1.738-.004c.357-.001.477-.238.268-.526z" fill="#0568ae"/></svg>