<svg xmlns="http://www.w3.org/2000/svg" viewBox="0 0 36 36" enable-background="new 0 0 36 36"><path fill="none" d="M0 0h36v36h-36z"/><path d="M21.772 13.61v4.393c0 .207-.168.375-.375.375s-.375-.168-.375-.375v-4.393c0-2.249-1.83-4.079-4.079-4.079h-5.939c-2.249 0-4.079 1.83-4.079 4.079v7.321l.006-.006 2.182-2.843c.125-.165.361-.196.526-.069.164.126.195.361.069.526l-2.182 2.843c-.251.328-.609.516-.981.516h-.001c-.374 0-.732-.19-.982-.519l-2.169-2.854c-.125-.165-.093-.4.072-.526.165-.126.4-.093.525.072l2.169 2.854.017.019v-7.334c0-2.663 2.166-4.829 4.829-4.829h5.939c2.662 0 4.828 2.166 4.828 4.829zm11.603 13.39c0 3.515-2.86 6.375-6.375 6.375-3.441 0-6.247-2.742-6.364-6.155h-1.58c-2.663 0-4.829-2.167-4.829-4.829v-4.393c0-.207.168-.375.375-.375s.375.168.375.375v4.393c0 2.249 1.83 4.079 4.079 4.079h1.595c.271-3.267 3.012-5.845 6.348-5.845.727 0 1.423.128 2.075.354v-5.91l-.006.006-2.182 2.843c-.125.164-.361.196-.526.069-.164-.126-.195-.362-.069-.526l2.182-2.843c.251-.328.609-.516.981-.516h.003c.373.001.731.19.981.519l2.169 2.855c.125.165.093.4-.072.525-.068.052-.148.076-.227.076-.113 0-.225-.051-.299-.148l-2.169-2.855-.017-.018v6.236c2.102 1.045 3.552 3.208 3.552 5.708zm-.75 0c0-3.102-2.524-5.625-5.625-5.625-3.102 0-5.625 2.523-5.625 5.625 0 3.101 2.523 5.625 5.625 5.625 3.101 0 5.625-2.524 5.625-5.625zm-5.095 0l1.983-1.984c.146-.146.146-.384 0-.53-.147-.146-.384-.146-.53 0l-1.983 1.984-1.983-1.983c-.146-.146-.384-.146-.53 0s-.146.384 0 .53l1.982 1.983-1.983 1.984c-.146.146-.146.384 0 .53.073.073.169.11.265.11s.192-.037.265-.11l1.984-1.984 1.983 1.983c.073.073.169.11.265.11s.192-.037.265-.11c.146-.147.146-.384 0-.53l-1.983-1.983z" fill="#0568ae"/></svg>