<svg xmlns="http://www.w3.org/2000/svg" viewBox="0 0 36 36" enable-background="new 0 0 36 36"><path fill="none" d="M0 0h36v36h-36z"/><path d="M32.537 18.002c-.068.052-.148.076-.227.076-.113 0-.225-.051-.299-.148l-2.169-2.855-.017-.018v7.333c0 2.663-2.167 4.829-4.83 4.829h-5.938c-2.663 0-4.829-2.167-4.829-4.829v-4.393c0-.207.168-.375.375-.375s.375.168.375.375v4.393c0 2.249 1.83 4.079 4.079 4.079h5.938c2.25 0 4.08-1.83 4.08-4.079v-7.322l-.006.006-2.182 2.843c-.125.164-.361.196-.526.069-.164-.126-.195-.362-.069-.526l2.182-2.843c.251-.328.609-.516.981-.516h.003c.373.001.731.19.981.519l2.169 2.855c.125.167.093.402-.071.527zm-21.532-8.471h5.939c2.249 0 4.079 1.83 4.079 4.079v4.393c0 .207.168.375.375.375s.375-.168.375-.375v-4.393c0-2.663-2.166-4.829-4.829-4.829h-5.939c-2.663 0-4.829 2.166-4.829 4.829v7.333l-.017-.019-2.17-2.854c-.125-.165-.361-.197-.525-.072-.165.125-.197.361-.072.526l2.169 2.854c.25.329.608.519.982.519h.001c.373 0 .731-.188.982-.516l2.182-2.843c.126-.164.095-.4-.069-.526-.165-.127-.4-.095-.526.069l-2.182 2.843-.006.006v-7.32c0-2.25 1.83-4.079 4.08-4.079z" fill="#0568ae"/></svg>