<?xml version="1.0" encoding="utf-8"?>
<!-- Generator: Adobe Illustrator 18.1.0, SVG Export Plug-In . SVG Version: 6.00 Build 0)  -->
<svg version="1.0" id="Layer_1" xmlns="http://www.w3.org/2000/svg" xmlns:xlink="http://www.w3.org/1999/xlink" x="0px" y="0px"
	 viewBox="0 0 36 36" enable-background="new 0 0 36 36" xml:space="preserve">

   <path fill="#0568ae" d="M27,21.1c-3.4,0-6,2.6-6,6c0,3.3,2.6,6,6,6c3.4,0,6-2.6,6-6C33,23.7,30.4,21.1,27,21.1z M28.1,30.3h-1.4
      v-5.1l-1.3,0.9l-0.6-0.9l2-1.5h1.3V30.3z M22,18h-2.3c-0.2,0-0.4-0.2-0.4-0.4v-5c0-1.2-0.9-2.1-2.1-2.1h-6.8c-1.2,0-2.1,0.9-2.1,2.1
      V18l1.7,0c0.4,0,0.5,0.2,0.3,0.5l-0.6,0.9l0,0L7.2,23c-0.2,0.2-0.4,0.2-0.6,0l-0.1-0.1l-1.2-1.6L4,19.4l0,0l-0.6-0.9
      C3.2,18.3,3.3,18,3.7,18l1.7,0v-5.4c0-2.8,2.3-5.1,5.1-5.1h6.8c2.8,0,5.1,2.3,5.1,5.1v5C22.4,17.8,22.2,18,22,18z M25.9,18l1.7,0
      v1.6c1.1,0.1,2.1,0.4,3,0.9V18l1.7,0c0.4,0,0.5-0.2,0.3-0.5L32,16.6l0,0l-1.3-1.9l-1.2-1.6L29.4,13c-0.2-0.2-0.4-0.2-0.6,0l-2.6,3.6
      l0,0l-0.6,0.9C25.4,17.8,25.5,18,25.9,18z M18.7,25.5c-1.2,0-2.1-0.9-2.1-2.1v-5c0-0.2-0.2-0.4-0.4-0.4H14c-0.2,0-0.4,0.2-0.4,0.4v5
      c0,2.8,2.3,5.1,5.1,5.1h1c-0.1-0.5-0.1-1-0.1-1.4c0-0.5,0.1-1.1,0.2-1.6H18.7z"/>
</svg>
