<svg xmlns="http://www.w3.org/2000/svg" viewBox="0 0 36 36" enable-background="new 0 0 36 36"><path fill="none" d="M0 0h36v36h-36z"/><path d="M30.466 15.109c0 4.422-3.597 8.019-8.018 8.019h-16.098c.089.268.267.517.536.721l5.767 4.387c.165.125.197.36.071.525-.074.097-.186.148-.299.148-.079 0-.159-.025-.227-.077l-5.767-4.387c-.578-.439-.897-1.036-.899-1.68-.001-.644.315-1.241.892-1.681l5.748-4.411c.164-.126.399-.095.526.069.126.164.095.4-.069.526l-5.747 4.412c-.26.199-.433.44-.523.698h16.09c4.008 0 7.268-3.261 7.268-7.269s-3.261-7.268-7.268-7.268h-4.356c-.207 0-.375-.168-.375-.375s.168-.375.375-.375h4.356c4.42 0 8.017 3.597 8.017 8.018z" fill="#0568ae"/></svg>