<svg xmlns="http://www.w3.org/2000/svg" viewBox="0 0 36 36" enable-background="new 0 0 36 36"><path fill="none" d="M0 0h36v36h-36z"/><path d="M22.448 5.466h-4.746c-.198 0-.36.162-.36.36v3.28c0 .198.162.36.36.36h4.746c3.112 0 5.644 2.532 5.644 5.644s-2.532 5.643-5.644 5.643h-10.452l.004-2.81c.001-.528-.349-.707-.777-.399l-1.307.942-5.307 3.822c-.321.231-.322.61-.001.842l.266.192 6.336 4.589c.427.309.778.131.778-.397l.004-2.782h10.457c5.317 0 9.644-4.326 9.644-9.643-.002-5.317-4.328-9.643-9.645-9.643z" fill="#0568ae"/></svg>