<svg baseProfile="tiny" xmlns="http://www.w3.org/2000/svg" viewBox="0 0 36 36">
   <style>
      #s01{fill:#0568ae}
      #s02{fill:#0568ae}
   </style>
   <path id="s01" d="M5.6 14.5l10.3 19.9c.5 1.2 1.4 1.6 2.3 1.6s1.9-.7 2.3-1.6L31 14.5c.7-1.4.7-2.8.2-3.7s-1.4-1.4-2.3-1.4h-3.5V1.6c0-.9-.7-1.6-1.6-1.6H12.6c-.9 0-1.6.7-1.6 1.6v7.9H7.5c-.9 0-1.9.5-2.3 1.4-.5 1-.3 2.2.4 3.6z"/>
   <path id="s02" d="M27.8 12.8c.5 0 .7.2.5.7l-9.4 18c-.2.5-.9.5-1.2 0l-9.4-18c-.1-.4.3-.6.8-.6h4.7V3.7c0-.6.2-1 .9-1l7.3-.1c.4 0 .7.3.7 1.1v9.1h5.1z"/>
</svg>