<svg xmlns="http://www.w3.org/2000/svg" viewBox="0 0 36 36"><path fill="none" d="M0 0h36v36H0z"/><path fill="#0568ae" d="M29.4 19.5L25 11c-.2-.5-.6-.7-1-.7s-.8.3-1 .7l-4.5 8.5c-.3.6-.3 1.2-.1 1.6.2.4.6.6 1 .6h1.5V25c0 .4.3.7.7.7h4.8c.4 0 .7-.3.7-.7v-3.4h1.5c.4 0 .8-.2 1-.6.2-.4.1-.9-.2-1.5zm-1.5.7h-2.2v3.9c0 .1-.1.2-.2.2h-3.2c-.1 0-.2-.1-.2-.2v-3.9h-2.2c-.2 0-.3-.1-.2-.3l4-7.7c.1-.2.2-.2.3 0l4 7.7c.2.2.1.3-.1.3zm-10.1-4.7l-5 9.5-.2.3c-.3.5-.7.5-1 0l-.2-.3-5.1-9.6c-.3-.5 0-1 .6-1h2.4V11c0-.4.3-.7.7-.7h4.1c.4 0 .7.3.7.7v3.5h2.4c.6 0 .9.4.6 1z"/></svg>