<svg baseProfile="tiny" xmlns="http://www.w3.org/2000/svg" viewBox="0 0 36 36">
   <style>
      #s01{fill:#0568ae}
      #s02{fill:#ffffff}
   </style>
   <path id="s01" d="M30.9 21.5L20.6 1.6C20.2.5 19.2 0 18.3 0c-.9 0-1.9.7-2.3 1.6L5.4 21.5c-.7 1.4-.7 2.8-.2 3.7.5.9 1.4 1.4 2.3 1.4H11v7.7c0 .9.7 1.6 1.6 1.6h11.2c.9 0 1.6-.7 1.6-1.6v-7.9h3.5c.9 0 1.9-.5 2.3-1.4.7-.9.4-2.1-.3-3.5z"/>
   <path id="s02" d="M28.2 22.4c.1.5-.3.7-.8.7h-4.7v9.1c0 .6-.2 1-.9 1l-7.3.1c-.4 0-.7-.3-.7-1.1v-9.1H8.7c-.5 0-.7-.2-.5-.7l9.4-18c.2-.5.9-.5 1.2 0l9.4 18z"/>
</svg>