<svg xmlns="http://www.w3.org/2000/svg" viewBox="0 0 36 36"><path fill="none" d="M0 0h36v36H0z"/><path fill="#0568ae" d="M6.6 16.5L11 25c.2.5.6.7 1 .7s.8-.3 1-.7l4.5-8.5c.3-.6.3-1.2.1-1.6-.2-.4-.6-.6-1-.6h-1.5V11c0-.4-.3-.7-.7-.7H9.7c-.4 0-.7.3-.7.7v3.4H7.5c-.4 0-.8.2-1 .6-.3.4-.2.9.1 1.5zm1.5-.7h2.2v-3.9c0-.1.1-.2.2-.2h3.2c.1 0 .2.1.2.2v3.9h2.2c.2 0 .3.1.2.3l-4 7.7c-.1.2-.2.2-.3 0l-4-7.7c-.2-.2-.1-.3.1-.3zm10.1 4.7l5.1-9.6.2-.3c.3-.5.7-.5 1 0l.2.3 5.1 9.6c.3.5 0 1-.6 1h-2.4V25c0 .4-.3.7-.7.7H22c-.4 0-.7-.3-.7-.7v-3.5h-2.4c-.7 0-1-.4-.7-1z"/></svg>