<svg xmlns="http://www.w3.org/2000/svg" viewBox="0 0 36 36" enable-background="new 0 0 36 36"><path fill="none" d="M0 0h36v36h-36z"/><path d="M32.085 16.284l-5.767-4.387c-.165-.126-.4-.093-.525.071-.125.165-.094.4.071.525l5.767 4.387c.253.192.422.424.517.674h-28.994c-.207 0-.375.168-.375.375s.168.375.375.375h29.023c-.084.277-.266.534-.542.745l-5.749 4.411c-.164.127-.195.362-.069.526.074.096.185.146.297.146.08 0 .16-.025.228-.077l5.749-4.411c.575-.441.891-1.038.89-1.682 0-.643-.318-1.239-.896-1.678z" fill="#0568ae"/></svg>