<svg xmlns="http://www.w3.org/2000/svg" viewBox="0 0 36 36" enable-background="new 0 0 36 36"><path fill="none" d="M0 0h36v36h-36zM0 0h36v36h-36z"/><path d="M33.675 18c0 5.517-4.488 10.005-10.005 10.005h-5.888l-.004 1.738c-.001.356-.237.476-.526.267l-.88-.639-1.85-1.343-1.592-1.155-.13-.094c-.216-.157-.216-.413.001-.569l3.584-2.577.883-.635c.289-.208.525-.087.524.269l-.004 1.737h5.881c3.862 0 7.005-3.142 7.005-7.005 0-2.538-1.359-4.843-3.523-6.081l-.428-.224c-.18-.083-.264-.299-.187-.482l.888-2.1c.077-.182.288-.266.469-.185l.351.172c3.323 1.707 5.431 5.123 5.431 8.901zm-21.345-7.005h5.881l-.004 1.736c-.001.356.235.477.524.269l.883-.635 3.584-2.577c.217-.156.217-.412.001-.569l-.131-.095-1.592-1.155-1.85-1.343-.88-.639c-.288-.209-.525-.089-.525.267l-.004 1.738h-5.887c-5.517.003-10.005 4.491-10.005 10.008 0 3.778 2.108 7.194 5.43 8.9l.351.172c.181.081.392-.003.469-.185l.888-2.1c.077-.182-.007-.399-.187-.482 0 0-.187-.085-.429-.224-2.163-1.238-3.522-3.543-3.522-6.081 0-3.863 3.143-7.005 7.005-7.005z" fill="#0568ae"/></svg>