<svg xmlns="http://www.w3.org/2000/svg" viewBox="0 0 36 36" enable-background="new 0 0 36 36"><path fill="none" d="M0 0h36v36h-36z"/><path d="M33.398 18c0 5.169-4.205 9.375-9.375 9.375h-8.409l.005.004 2.844 2.182c.164.127.196.362.069.526-.074.096-.185.146-.298.146-.08 0-.16-.025-.228-.077l-2.844-2.182c-.328-.252-.516-.61-.515-.984 0-.373.189-.731.519-.981l2.855-2.17c.165-.125.4-.093.526.072.125.164.093.4-.072.525l-2.855 2.169-.021.019h8.424c4.756 0 8.625-3.869 8.625-8.625s-3.869-8.625-8.625-8.625c-.207 0-.375-.168-.375-.375s.168-.375.375-.375c5.17.001 9.375 4.206 9.375 9.376zm-12.514-9.974l-2.843-2.182c-.164-.126-.4-.095-.526.069s-.095.4.069.526l2.843 2.182.004.004h-8.408c-5.169 0-9.375 4.205-9.375 9.375 0 5.169 4.206 9.375 9.375 9.375.207 0 .375-.168.375-.375s-.168-.375-.375-.375c-4.756 0-8.625-3.869-8.625-8.625s3.869-8.625 8.625-8.625h8.424l-.021.019-2.854 2.169c-.165.125-.197.361-.072.525.074.097.186.148.299.148.079 0 .159-.025.226-.076l2.855-2.169c.329-.25.518-.608.519-.982.001-.373-.187-.732-.515-.983z" fill="#0568ae"/></svg>