<svg xmlns="http://www.w3.org/2000/svg" viewBox="0 0 36 36" enable-background="new 0 0 36 36"><path fill="none" d="M0 0h36v36h-36z"/><path d="M33.194 17.962c0 .574-.357 1.096-1.006 1.471l-6.315 3.646c-.37.213-.733.321-1.07.321-.254 0-.493-.061-.707-.185-.497-.287-.771-.857-.771-1.607v-1.212h-20.144c-.207 0-.375-.168-.375-.375s.168-.375.375-.375h20.521c.1 0 .195.04.265.11s.11.166.11.265l-.001 1.587c0 .463.144.812.396.957.251.146.625.096 1.027-.136l6.315-3.646c.401-.232.631-.531.631-.821 0-.29-.23-.59-.631-.821l-6.315-3.646c-.401-.232-.775-.281-1.027-.136-.252.145-.396.494-.396.957v1.545c0 .207-.168.375-.375.375h-7.405c-.207 0-.375-.168-.375-.375s.168-.375.375-.375h7.03v-1.17c0-.749.274-1.32.771-1.607.497-.287 1.128-.238 1.777.136l6.315 3.646c.648.374 1.005.897 1.005 1.471zm-23.456.361h13.962c.207 0 .375-.168.375-.375s-.168-.375-.375-.375h-13.962c-.207 0-.375.168-.375.375s.168.375.375.375z" fill="#0568ae"/></svg>