<svg xmlns="http://www.w3.org/2000/svg" viewBox="0 0 36 36" enable-background="new 0 0 36 36"><path fill="none" d="M0 0h36v36h-36z"/><path d="M32.883 17.448l-.299-.184-2.284-1.402-4.173-2.561-1.685-1.034c-.66-.405-1.2-.103-1.2.672v1.812h-13.134c-.414 0-.75.336-.75.75s.336.75.75.75h5.5249999999999995c.276 0 .5.224.5.5s-.224.5-.5.5h-8.75c-.414 0-.75.336-.75.75s.336.75.75.75h5.3629999999999995c.276 0 .5.224.5.5s-.224.5-.5.5h-8.75c-.414 0-.75.336-.75.75s.336.75.75.75h19.744v1.812c0 .774.54 1.077 1.2.672l1.685-1.034 4.173-2.561 2.284-1.402.299-.184c.497-.305.497-.803.002-1.106z" fill="#0568ae"/></svg>