<svg xmlns="http://www.w3.org/2000/svg" viewBox="0 0 27.751 30.145" enable-background="new 0 0 27.751 30.145"><path d="M18.932 27.993l-.137.026c-.15 0-.291-.091-.35-.238-.075-.193.02-.411.213-.486 6.739-2.637 10.076-10.266 7.439-17.005-1.461-3.734-4.596-6.612-8.427-7.775l.022.05 1.958 3.51c.101.181.036.409-.146.51l-.182.047c-.131 0-.259-.069-.328-.192l-1.958-3.51c-.219-.391-.252-.829-.091-1.2s.504-.646.94-.754l3.9-.965c.201-.051.404.073.454.274.05.201-.073.404-.274.454l-3.901.965-.205.084c4.061 1.225 7.385 4.272 8.933 8.227 2.792 7.126-.736 15.19-7.86 17.978zm-10.178-4.288c-.101-.181-.329-.246-.51-.144-.181.101-.246.329-.145.51l1.957 3.511.024.053c-3.881-1.175-6.951-4.003-8.428-7.779-2.637-6.739.7-14.368 7.44-17.005.193-.075.288-.293.213-.486-.075-.194-.293-.288-.486-.213-7.124 2.788-10.653 10.853-7.864 17.977 1.564 3.998 4.816 6.992 8.928 8.23l-.2.082-3.901.965c-.201.05-.324.253-.274.454.042.171.195.285.364.285l.09-.011 3.9-.965c.436-.108.779-.383.94-.754.161-.371.127-.808-.092-1.199l-1.956-3.511z" fill="#0568ae"/></svg>