<svg xmlns="http://www.w3.org/2000/svg" viewBox="0 0 30.003 31.012" enable-background="new 0 0 30.003 31.012"><path d="M13.495 28.906l-.15.061-1.823.736-2.12.856-1.008.407c-.33.133-.53-.04-.445-.386l.404-1.639c-3.545-1.763-6.308-4.885-7.577-8.68-2.481-7.418 1.184-15.436 8.223-18.503.405-.176.907-.357.907-.357.186-.067.39.032.453.22l.723 2.162c.063.188-.038.397-.224.465 0 0-.456.166-.835.338-5.516 2.51-8.366 8.852-6.403 14.724.943 2.821 2.92 5.178 5.471 6.629l.406-1.646c.085-.346.344-.407.574-.135l.704.829 2.856 3.366c.173.205.112.453-.136.553zm15.732-18.156c-1.268-3.795-4.031-6.917-7.577-8.68l.404-1.639c.085-.346-.115-.52-.445-.386l-1.008.407-2.12.856-1.823.736-.15.061c-.248.1-.309.348-.136.552l2.856 3.366.704.829c.23.272.489.211.574-.135l.405-1.646c2.552 1.452 4.528 3.808 5.471 6.629 1.963 5.872-.887 12.215-6.403 14.724-.379.172-.835.338-.835.338-.186.068-.287.277-.224.464l.723 2.162c.063.188.267.287.453.22 0 0 .503-.181.907-.357 7.04-3.064 10.704-11.083 8.224-18.501z" fill="#0568ae"/></svg>