<svg xmlns="http://www.w3.org/2000/svg" viewBox="0 0 36 36" enable-background="new 0 0 36 36"><path fill="none" d="M0 0h36v36h-36z"/><path d="M18.565 9.47v17.635c0 .207-.168.375-.375.375s-.375-.168-.375-.375v-17.613c-.33.079-.634.246-.876.497l-4.968 5.115c-.074.076-.171.114-.27.114-.094 0-.188-.035-.261-.106-.148-.144-.152-.382-.008-.53l4.966-5.115c.487-.501 1.138-.778 1.834-.779h.005c.692 0 1.342.273 1.828.771l4.988 5.094c.145.148.143.385-.006.53-.148.145-.385.142-.53-.005l-4.988-5.095c-.265-.272-.6-.446-.964-.513zm-.565-6.848c-7.085 0-13.222 4.796-14.924 11.663-.299 1.207-.451 2.456-.451 3.712 0 1.87.331 3.695.984 5.424 1.073 2.847 2.954 5.294 5.438 7.077.168.121.403.082.523-.086.121-.169.082-.402-.086-.524-2.364-1.696-4.152-4.024-5.174-6.732-.621-1.645-.936-3.38-.936-5.159 0-1.195.145-2.384.429-3.531 1.62-6.532 7.458-11.094 14.197-11.094 8.064 0 14.625 6.561 14.625 14.625 0 7.676-5.993 14.085-13.643 14.593-.206.014-.363.192-.349.399.014.198.178.35.374.35l.025-.001c8.043-.533 14.343-7.271 14.343-15.341 0-8.478-6.897-15.375-15.375-15.375z" fill="#0568ae"/></svg>