<svg xmlns="http://www.w3.org/2000/svg" viewBox="0 0 36 36" enable-background="new 0 0 36 36"><path d="M30.238 6.195c-.415-.418-.983-.639-1.648-.639-1.297 0-2.976.905-4.49 2.42l-3.762 3.718-12.457-2.644c-.296-.063-.607.03-.82.244l-1.649 1.649c-.208.208-.3.502-.249.771.042.285.223.533.488.665l9.396 4.602-3.821 3.821-3.267-.513c-.282-.045-.575.054-.771.251l-1.286 1.282c-.207.213-.296.513-.241.796.052.289.257.542.536.658l4.935 2.063 1.975 4.844c.114.278.358.48.653.54.287.058.6-.036.808-.245l1.273-1.273c.199-.191.297-.474.261-.766l-.49-3.303 3.795-3.795 4.604 9.399c.132.258.376.44.646.483l.154.014h.003c.233 0 .463-.095.632-.262l1.648-1.652c.213-.214.304-.518.243-.816l-2.644-12.451 3.764-3.718c1.028-1.029 1.793-2.145 2.154-3.139.462-1.239.329-2.306-.373-3.004zm-.33 2.745c-.325.896-1.029 1.915-1.979 2.866l-3.908 3.86c-.091.09-.13.22-.104.345l2.686 12.649-.04.134-1.647 1.651-.102.043-.029-.003-.104-.08-4.831-9.865c-.053-.109-.155-.185-.275-.205l-.062-.005c-.099 0-.194.039-.265.11l-4.3 4.299c-.084.084-.123.203-.106.32l.517 3.481-.043.129-1.279 1.279-.127.04-.109-.089-2.034-4.988c-.038-.092-.111-.166-.203-.204l-5.078-2.123-.088-.105.037-.13 1.283-1.279.123-.04 3.456.543c.117.02.238-.021.323-.105l4.327-4.327c.085-.086.125-.207.105-.327-.02-.12-.096-.222-.205-.275l-9.865-4.831-.081-.117.039-.117 1.65-1.65.133-.04 12.654 2.686c.123.025.251-.011.341-.1l3.908-3.861c1.358-1.358 2.875-2.202 3.968-2.202.454 0 .838.144 1.111.419.485.479.557 1.265.203 2.214zm-1.124 10.647c.382.381.594.889.594 1.43 0 .542-.21 1.053-.594 1.437l-1.057 1.061c-.073.074-.169.11-.266.11-.096 0-.191-.037-.265-.109-.147-.146-.147-.383-.001-.53l1.057-1.062c.242-.243.375-.564.375-.906 0-.34-.133-.66-.374-.899-.375-.374-.949-.479-1.432-.261-.189.085-.411.001-.496-.188-.085-.189-.001-.411.188-.496.766-.345 1.677-.179 2.271.413zm-15.912-10.397c-.146-.147-.146-.384.001-.53l1.061-1.057c.791-.791 2.079-.791 2.871 0 .59.591.754 1.503.409 2.269-.063.139-.199.221-.342.221l-.154-.033c-.189-.085-.273-.307-.188-.496.218-.484.115-1.058-.255-1.43-.5-.498-1.312-.498-1.811 0l-1.062 1.057c-.147.146-.384.145-.53-.001z" fill="#0568ae"/></svg>