<svg xmlns="http://www.w3.org/2000/svg" viewBox="0 0 36 36" enable-background="new 0 0 36 36"><path d="M21.558 8.203l-5.392 3.11c-3.354 1.937-6.486 2.113-7.978 2.124-.692.005-1.167-.332-1.319-.477l-1.856-1.901c-.102-.104-.195-.391.025-.549l.747-.432c.15-.098.526-.144.781-.052l2.152.777c.202.079.569.112.817-.031l2.257-1.301c.142-.082.199-.278.049-.329l-4.735-2.423c-.172-.088-.231-.29.004-.467l1.452-.838c.28-.161.583-.138.835-.125l6.693.983c.414.051 1.147.054 1.703-.268l1.869-1.08c2.14-1.232 4.384-1.552 4.907-.648.525.905-.9 2.705-3.011 3.927zm8.854 8.11l-1.156 3.743h.931c.308 0 .56.275.56.611v1.298c0 .336-.251.611-.56.611h-2.494l.693 9.307c.015.197-.135.359-.333.359h-6.893c-.198 0-.348-.162-.333-.359l.692-9.307h-2.347c-.308 0-.559-.275-.559-.611v-1.298c0-.336.251-.611.559-.611h1.096l-1.183-3.743-.69-2.182c-.084-.411.162-.744.546-.744h8.19v-3.739c0-.414.336-.75.75-.75s.75.336.75.75v3.739h1.915c.285 0 .494.188.546.455l.012.14-.016.15-.676 2.181zm-1.57 0h-8.185l1.183 3.743h5.845l1.157-3.743z" fill="#0568ae"/></svg>