<svg xmlns="http://www.w3.org/2000/svg" viewBox="0 0 36 36" enable-background="new 0 0 36 36"><path d="M23.772 3.68c-.186-.322-.616-.705-1.607-.705-1.065 0-2.49.454-3.811 1.216l-2.471 1.428-8.046-1.182c-.085-.012-.169.004-.242.047l-2.226 1.283c-.118.069-.19.197-.187.334.003.137.082.262.204.324l4.824 2.469-2.182 1.258-2.883-1.041c-.104-.037-.219-.027-.315.028l-1.461.844c-.1.058-.168.159-.184.273-.016.115.023.231.103.313l2.596 2.659c.058.059.132.097.213.109.018.003.465.068 1.22.068 1.548 0 4.635-.283 7.914-2.177l5.393-3.111c2.105-1.217 3.858-3.211 3.148-4.437zm-8.916 6.9c-3.128 1.806-6.066 2.076-7.539 2.076-.477 0-.819-.028-.99-.045l-2.166-2.219.893-.515 2.883 1.041c.104.037.219.027.314-.028l2.93-1.689c.119-.069.191-.197.187-.334-.003-.137-.082-.262-.204-.325l-4.822-2.47 1.514-.874 8.046 1.181c.086.012.169-.004.242-.046l2.584-1.493c1.212-.698 2.498-1.115 3.437-1.115.495 0 .835.117.958.331.35.606-.829 2.229-2.875 3.413l-5.392 3.111zm17.701 1.812c-.173-.212-.435-.334-.718-.334h-2.29v-3.588c0-.207-.168-.375-.375-.375s-.375.168-.375.375v3.588h-8.565c-.29 0-.547.119-.723.335-.186.228-.256.542-.184.89l1.748 5.989h-.611c-.515 0-.934.442-.934.986v1.298c0 .543.419.986.934.986h1.942l-.688 9.263c-.016.207.14.387.346.402l.028.001c.195 0 .359-.15.374-.347l.718-9.666c.008-.104-.028-.206-.099-.283-.071-.077-.17-.12-.275-.12h-2.347c-.1 0-.184-.108-.184-.236v-1.298c0-.128.084-.236.184-.236h11.016c.1 0 .185.108.185.236v1.298c0 .127-.084.236-.185.236h-2.494c-.104 0-.204.043-.275.12-.071.077-.107.179-.099.283l.72 9.666c.015.197.179.347.374.347l.028-.001c.207-.015.361-.195.346-.402l-.69-9.263h2.091c.515 0 .935-.442.935-.986v-1.298c0-.544-.419-.986-.935-.986h-.484l1.751-6.019c.065-.318-.004-.632-.19-.861zm-12.465.475l.142-.059h11.604l.137.058c.044.053.057.14.044.207l-.445 1.531h-11.081l-.438-1.501c-.02-.097-.006-.183.037-.236zm10.123 6.405h-2.375l.448-3.918h3.067l-1.14 3.918zm-3.129 0h-2.104l-.447-3.918h2.999l-.448 3.918zm-6.374-3.919h3.068l.447 3.918h-2.371l-1.144-3.918z" fill="#0568ae"/></svg>