<svg xmlns="http://www.w3.org/2000/svg" viewBox="0 0 36 36" enable-background="new 0 0 36 36"><path d="M28.615 5.534c.557-.001 1.037.183 1.38.528.592.589.695 1.517.289 2.608-.347.955-1.087 2.022-2.068 3.005l-3.908 3.86 1.044 4.921.794 3.733.848 3.998c.035.171-.017.349-.142.474l-1.648 1.652c-.097.097-.233.152-.368.152l-.087-.008c-.162-.026-.302-.133-.38-.285l-4.831-9.865-4.3 4.299.518 3.49c.02.162-.031.327-.15.441l-1.279 1.278c-.124.125-.3.177-.467.143-.171-.035-.315-.152-.381-.315l-2.034-4.988-5.079-2.123c-.159-.067-.28-.21-.311-.379-.033-.17.022-.346.141-.468l1.282-1.277c.116-.117.286-.171.448-.146l3.456.543 4.327-4.327-9.868-4.832c-.15-.075-.257-.215-.282-.383-.032-.164.022-.333.141-.452l1.65-1.649c.126-.127.303-.18.477-.143l3.994.848 3.737.793 4.924 1.044 3.906-3.859c1.445-1.446 3.028-2.312 4.227-2.311zm-1.197 17.424l1.369-1.369c.635-.634.635-1.663 0-2.298-.594-.595-1.532-.625-2.17-.104l.203.958.598 2.813zm-10.59-13.561c.52-.638.49-1.575-.105-2.17-.635-.634-1.664-.635-2.298 0l-1.369 1.369 2.811.597.961.204z" fill="#0568ae"/></svg>