<svg xmlns="http://www.w3.org/2000/svg" viewBox="0 0 36 36" enable-background="new 0 0 36 36"><path d="M27.894 26.17c0 1.127-.914 2.041-2.041 2.041-1.128 0-2.042-.914-2.042-2.041 0-1.128.914-2.042 2.042-2.042 1.127 0 2.041.914 2.041 2.042zm-19.233-2.042c-1.128 0-2.042.914-2.042 2.042 0 1.127.913 2.041 2.042 2.041 1.127 0 2.041-.914 2.041-2.041 0-1.128-.914-2.042-2.041-2.042zm2.009-5.831h22.787v-3.1c0-1.001-.814-1.815-1.815-1.815h-24.993c-.945 0-1.982.679-2.358 1.546l-.979 2.248c-.334.767-.606 2.072-.606 2.91v1.365l5.005-2.476c.79-.382 2.088-.678 2.959-.678zm-2.52 1.575l-5.444 2.694v2.156c0 .793.646 1.439 1.439 1.439h1.475c.005-1.673 1.367-3.033 3.041-3.033s3.036 1.36 3.04 3.033h11.11c.005-1.673 1.367-3.033 3.041-3.033s3.036 1.36 3.041 3.033h3.124c.794 0 1.44-.646 1.44-1.439v-5.425h-22.787c-.719 0-1.873.263-2.52.575z" fill="#0568ae"/></svg>