<svg xmlns="http://www.w3.org/2000/svg" viewBox="0 0 36 36" enable-background="new 0 0 36 36"><path d="M31.615 13.419h-24.993c-.945 0-1.981.679-2.358 1.546l-.979 2.248c-.334.767-.606 2.073-.606 2.91v4.636c0 .793.646 1.439 1.44 1.439h2.136c.18 1.156 1.173 2.045 2.379 2.045 1.205 0 2.198-.889 2.378-2.045h12.435c.18 1.156 1.173 2.045 2.379 2.045 1.205 0 2.198-.889 2.379-2.045h4.598c.207 0 .375-.168.375-.375s-.168-.375-.375-.375h-4.599c-.184-1.152-1.175-2.038-2.378-2.038s-2.195.886-2.378 2.038h-12.437c-.183-1.152-1.175-2.038-2.377-2.038s-2.195.886-2.378 2.038h-2.138c-.413 0-.69-.356-.69-.689v-2.741l4.611-2.221c.661-.319 1.84-.588 2.575-.588h18.31c.207 0 .375-.168.375-.375s-.168-.375-.375-.375h-18.31c-.841 0-2.142.297-2.9.662l-4.285 2.064v-1.063c0-.738.249-1.934.543-2.611l.979-2.248c.258-.594 1.023-1.095 1.671-1.095h24.993c.587 0 1.065.478 1.065 1.065v6.779c0 .207.168.375.375.375s.375-.168.375-.375v-6.779c0-1-.815-1.814-1.815-1.814zm-5.79 10.741c.918 0 1.666.748 1.666 1.667s-.748 1.666-1.666 1.666c-.919 0-1.667-.747-1.667-1.666.001-.92.748-1.667 1.667-1.667zm-17.192 0c.919 0 1.666.748 1.666 1.667s-.747 1.666-1.666 1.666c-.919 0-1.667-.747-1.667-1.666.001-.92.748-1.667 1.667-1.667z" fill="#0568ae"/></svg>