<svg xmlns="http://www.w3.org/2000/svg" viewBox="0 0 36 36" enable-background="new 0 0 36 36"><path d="M25.204 26.063c0 1.127-.914 2.041-2.041 2.041-1.128 0-2.042-.914-2.042-2.041 0-1.128.914-2.042 2.042-2.042 1.127 0 2.041.914 2.041 2.042zm-11.387-2.042c-1.128 0-2.041.914-2.041 2.042 0 1.127.914 2.041 2.041 2.041s2.042-.914 2.042-2.041c0-1.128-.914-2.042-2.042-2.042zm13.688-4.065v4.632c-.01.554-.374 1.342-1.303 1.445-.016-1.664-1.373-3.013-3.04-3.013-1.674 0-3.037 1.36-3.042 3.033h-3.263c-.005-1.673-1.367-3.033-3.041-3.033s-3.036 1.36-3.04 3.033h-.74c-.85 0-1.542-.691-1.542-1.54v-2.674c0-1.002.49-1.942 1.311-2.516l5.294-3.715c.701-.49 1.916-.873 2.767-.873h4.816c2.75.001 4.823 2.245 4.823 5.221zm-10.189-2.86c0-.478-.428-.572-.712-.37l-3.624 2.543c-.392.274-.321.499.157.499h3.818c.198 0 .36-.162.36-.36v-2.312zm5.484-.257c0-.198-.162-.36-.36-.36h-3.001c-.198 0-.36.162-.36.36v2.568c0 .198.162.36.36.36h3.001c.198 0 .36-.162.36-.36v-2.568z" fill="#0568ae"/></svg>