<svg xmlns="http://www.w3.org/2000/svg" viewBox="0 0 36 36" enable-background="new 0 0 36 36"><path d="M19.426 18.136h-3.202v-2.05h3.202v2.05zm4.202-5.112h-3.202v2.062h3.202v-2.062zm0 3.063h-3.202v2.05h3.202v-2.05zm-4.202-3.063h-3.202v2.062h3.202v-2.062zm13.888 6.514c-.064-.235-.274-.401-.548-.401h-2.43v-6.9879999999999995c0-.26-.213-.474-.473-.474h-2.066c-.26 0-.473.213-.473.474v.876h-2.695v6.112h-12.766c-.286 0-.65-.142-.912-.334l-.191-.166-.233-.267-.233-.267c-.241-.276-.738-.501-1.104-.501h-6.121c-.366 0-.509.255-.318.568l3.248 5.333c.048.078.112.153.187.221.225.204.549.348.825.348h24.966c.366 0 .713-.298.771-.658l.315-1.975.263-1.646c.014-.09.009-.176-.012-.255zm-18.09-3.451h-3.202v2.05h3.202v-2.05zm0-3.063h-2.538c-.366 0-.665.299-.665.664v1.398h3.202v-2.062z" fill="#0568ae"/></svg>