<svg xmlns="http://www.w3.org/2000/svg" viewBox="0 0 36 36" enable-background="new 0 0 36 36"><path d="M33.487 19.058c-.176-.206-.44-.325-.724-.325h-2.055v-6.111c0-.468-.38-.849-.848-.849h-1.566c-.467 0-.848.381-.848.849v.5h-2.274c-.573 0-1.039.466-1.039 1.039v4.572h-12.269c-.257 0-.649-.178-.821-.372l-.467-.533c-.314-.359-.91-.629-1.386-.629h-6.117c-.314 0-.567.13-.695.358-.128.228-.107.512.056.78l3.247 5.331c.259.428.832.75 1.332.75h24.96c.552 0 1.053-.428 1.142-.974l.577-3.62c.045-.281-.03-.56-.205-.766zm-1.113 4.266c-.028.18-.22.343-.4.343h-24.961c-.234 0-.569-.189-.691-.39l-3.246-5.329h6.114c.259 0 .651.178.822.373l.468.534c.316.358.911.627 1.384.627h12.644c.207 0 .375-.168.375-.375v-4.947c0-.157.133-.289.289-.289h2.649c.207 0 .375-.168.375-.375v-.875c0-.053.046-.099.098-.099h1.566c.053 0 .098.045.098.099v6.111h-2.54c-.207 0-.375.168-.375.375s.168.375.375.375h5.345c.066 0 .119.021.153.061.034.04.046.096.036.161l-.578 3.62zm-9.018-7.043c0 .207-.168.375-.375.375h-2.496c-.043 0-.081.038-.081.082v1.112c0 .207-.168.375-.375.375s-.375-.168-.375-.375v-1.112c0-.459.373-.832.831-.832h2.496c.207 0 .375.168.375.375zm-3.715-1.194v-1.111c0-.459.373-.832.831-.832h2.496c.207 0 .375.168.375.375s-.168.375-.375.375h-2.496c-.043 0-.081.038-.081.082v1.111c0 .207-.168.375-.375.375s-.375-.167-.375-.375zm-.428 1.194c0 .207-.168.375-.375.375h-2.31c-.044 0-.081.038-.081.082v1.112c0 .207-.168.375-.375.375s-.375-.168-.375-.375v-1.112c0-.459.373-.832.831-.832h2.31c.207 0 .375.168.375.375zm-3.531-1.194v-1.111c0-.459.373-.832.832-.832h2.311c.207 0 .375.168.375.375s-.168.375-.375.375h-2.311c-.044 0-.082.038-.082.082v1.111c0 .207-.168.375-.375.375s-.375-.167-.375-.375zm-.426 1.194c0 .207-.168.375-.375.375h-2.313c-.042 0-.079.038-.079.082v1.112c0 .207-.168.375-.375.375s-.375-.168-.375-.375v-1.112c0-.459.372-.832.829-.832h2.313c.207 0 .375.168.375.375zm-3.532-1.194v-1.111c0-.459.373-.832.831-.832h2.311c.207 0 .375.168.375.375s-.168.375-.375.375h-2.311c-.043 0-.081.038-.081.082v1.111c0 .207-.168.375-.375.375s-.375-.167-.375-.375z" fill="#0568ae"/></svg>