<svg xmlns="http://www.w3.org/2000/svg" viewBox="0 0 36 36" enable-background="new 0 0 36 36"><path d="M27.164 25.395h-1.394c-.183-1.152-1.175-2.038-2.377-2.038-1.203 0-2.195.886-2.379 2.038h-4.852c-.183-1.152-1.175-2.038-2.378-2.038s-2.195.886-2.378 2.038h-1.403c-.429 0-.792-.362-.792-.79v-2.674c0-.655.453-1.526.99-1.901l5.295-3.715c.572-.4 1.642-.737 2.337-.737h5.113c2.198 0 3.159 1.891 3.199 1.97.313.641.576 1.786.576 2.5v2.298c0 .207.168.375.375.375s.375-.168.375-.375v-2.298c0-.836-.286-2.079-.652-2.829-.048-.098-1.197-2.392-3.873-2.392h-5.113c-.851 0-2.066.383-2.767.873l-5.295 3.715c-.735.514-1.31 1.619-1.31 2.516v2.674c0 .849.691 1.54 1.542 1.54h1.402c.18 1.155 1.174 2.045 2.379 2.045 1.206 0 2.199-.89 2.379-2.045h4.851c.18 1.155 1.174 2.045 2.379 2.045s2.198-.89 2.378-2.045h1.393c.207 0 .375-.168.375-.375s-.168-.375-.375-.375zm-13.381 2.045c-.919 0-1.666-.747-1.666-1.666 0-.919.748-1.667 1.666-1.667.919 0 1.667.748 1.667 1.667s-.748 1.666-1.667 1.666zm9.61 0c-.919 0-1.667-.747-1.667-1.666 0-.919.748-1.667 1.667-1.667s1.666.748 1.666 1.667-.748 1.666-1.666 1.666z" fill="#0568ae"/></svg>