<svg xmlns="http://www.w3.org/2000/svg" viewBox="0 0 36 36" enable-background="new 0 0 36 36"><path d="M27.164 25.393h-1.394c-.183-1.152-1.175-2.038-2.377-2.038-1.203 0-2.195.886-2.379 2.038h-4.852c-.183-1.152-1.176-2.038-2.378-2.038-1.203 0-2.195.886-2.378 2.038h-1.403c-.429 0-.792-.362-.792-.791v-2.674c0-.655.453-1.526.991-1.901l5.295-3.715c.572-.4 1.642-.738 2.337-.738h5.113c2.198 0 3.159 1.891 3.198 1.971.313.641.577 1.786.577 2.5v2.298c0 .207.168.375.375.375s.375-.168.375-.375v-2.298c0-.836-.286-2.078-.652-2.829-.048-.098-1.197-2.392-3.873-2.392h-5.113c-.851 0-2.066.383-2.767.873l-5.295 3.715c-.735.514-1.31 1.619-1.31 2.516v2.674c0 .85.691 1.541 1.542 1.541h1.402c.18 1.156 1.174 2.045 2.379 2.045 1.206 0 2.199-.889 2.379-2.045h4.851c.18 1.156 1.174 2.045 2.379 2.045s2.198-.889 2.378-2.045h1.393c.207 0 .375-.168.375-.375-.001-.207-.169-.375-.376-.375zm-13.381 2.045c-.919 0-1.666-.748-1.666-1.666 0-.92.748-1.667 1.666-1.667.919 0 1.667.747 1.667 1.667 0 .919-.748 1.666-1.667 1.666zm9.61 0c-.919 0-1.667-.748-1.667-1.666 0-.92.748-1.667 1.667-1.667.918 0 1.666.747 1.666 1.667 0 .919-.748 1.666-1.666 1.666zm-.945-16.427c.669.209 1.288.531 1.847.962.164.126.195.362.068.526-.074.096-.185.146-.297.146-.08 0-.161-.025-.228-.078-.551-.425-1.173-.72-1.845-.898l-.369-.093-.186-.025c-1.396-.212-2.826.142-3.951.993l-.124.06-.042.007-.06.009-.023-.005-.104-.024-.047-.016-.126-.104c-.125-.165-.092-.4.073-.525.504-.381 1.062-.676 1.649-.88.979-.339 2.042-.423 3.081-.227.233.045.462.102.684.172zm-8.483-3.149c-.131-.16-.107-.397.053-.528 2.119-1.73 4.795-2.56 7.487-2.351l.22.023.356.038.488.079.087.014h.001c1.723.324 3.343 1.076 4.686 2.175.161.131.184.367.053.528l-.125.098-.045.014-.104.023-.016.004-.066-.011-.047-.008-.124-.065c-1.247-1.019-2.75-1.718-4.349-2.019l-.026-.004c-2.843-.529-5.757.215-8.001 2.046-.07.054-.154.082-.237.082-.109 0-.217-.047-.291-.138zm11.371 2.381c-.959-.74-2.052-1.23-3.247-1.456-2.111-.403-4.309.108-6.027 1.4l-.123.059-.043.007-.058.009-.022-.005-.106-.024-.046-.016-.126-.104c-.125-.166-.091-.401.074-.525 1.887-1.418 4.3-1.978 6.618-1.537 1.313.248 2.512.786 3.565 1.599.164.127.194.362.067.526-.074.096-.184.146-.297.146-.08-.001-.161-.027-.229-.079z" fill="#0568ae"/></svg>