<svg xmlns="http://www.w3.org/2000/svg" viewBox="0 0 36 36" enable-background="new 0 0 36 36"><path d="M27.731 8.094c-.148.181-.364.275-.581.275-.167 0-.335-.056-.474-.169-1.199-.98-2.645-1.651-4.182-1.941-2.742-.518-5.556.197-7.72 1.964-.139.114-.307.169-.474.169-.217 0-.433-.094-.582-.276-.262-.321-.214-.793.107-1.055 2.508-2.047 5.769-2.877 8.947-2.276 1.783.336 3.461 1.116 4.853 2.254.321.261.368.734.106 1.055zm-1.683 1.246c-1.101-.849-2.353-1.411-3.724-1.67h-.001c-2.422-.461-4.941.124-6.913 1.606-.331.249-.398.719-.149 1.05.147.196.372.3.6.299.157 0 .315-.049.45-.15 1.635-1.228 3.723-1.714 5.731-1.331h.001c1.137.215 2.175.68 3.088 1.384.136.105.297.156.458.156.225 0 .447-.1.594-.292.254-.328.193-.799-.135-1.052zm-1.461 2.353c-.792-.61-1.698-1.016-2.69-1.205h-.001c-1.765-.334-3.597.095-5.026 1.176-.33.25-.396.72-.146 1.051.147.195.372.297.599.297.158 0 .317-.049.452-.152 1.091-.826 2.493-1.153 3.841-.899.759.145 1.451.454 2.056.92.136.105.297.156.457.156.225 0 .447-.101.595-.293.252-.328.191-.799-.137-1.051zm-1.82 12.435c-1.128 0-2.042.914-2.042 2.042 0 1.127.914 2.041 2.042 2.041 1.128 0 2.041-.914 2.041-2.041 0-1.128-.914-2.042-2.041-2.042zm-9.345 0c-1.128 0-2.041.914-2.041 2.042 0 1.127.913 2.041 2.041 2.041s2.042-.914 2.042-2.041c-.001-1.128-.915-2.042-2.042-2.042zm13.687-4.065v4.632c-.01.554-.374 1.342-1.303 1.445-.016-1.664-1.373-3.013-3.04-3.013-1.674 0-3.037 1.36-3.042 3.033h-3.263c-.005-1.673-1.367-3.033-3.041-3.033s-3.036 1.36-3.041 3.033h-.74c-.85 0-1.542-.691-1.542-1.54v-2.674c0-1.002.49-1.942 1.311-2.516l5.294-3.715c.701-.49 1.916-.873 2.767-.873h4.816c2.751.001 4.824 2.245 4.824 5.221zm-10.188-2.861c0-.478-.428-.572-.712-.37l-3.624 2.543c-.392.274-.321.499.157.499h3.818c.198 0 .36-.162.36-.36v-2.312zm5.483-.256c0-.198-.162-.36-.36-.36h-3.001c-.198 0-.36.162-.36.36v2.568c0 .198.162.36.36.36h3.001c.198 0 .36-.162.36-.36v-2.568z" fill="#0568ae"/></svg>