<svg xmlns="http://www.w3.org/2000/svg" viewBox="0 0 36 36" enable-background="new 0 0 36 36"><path d="M13.649 24.59l-1.134-1.155-2.665 1.118c-.17.404-.423.825-.774 1.262-.354.436-.852.75-1.394 1.005-.543.253-1.136.443-1.688.587-1.103.287-2.045.39-2.058.391l-.05.002c-.188 0-.355-.116-.421-.295-.071-.195 0-.412.172-.527l1.39-.929 1.819-5.703c.039-.117.121-.213.233-.267.111-.054.237-.06.352-.017.019.007.381.143.838.423.456.282 1.014.707 1.409 1.325.104.163.189.344.262.535l2.306-.967v-3.352c0-.594.485-1.08 1.082-1.08h6.657c.594 0 1.082-.486 1.082-1.08l.007-2.885c.001-.594.488-1.08 1.082-1.08h5.098c.594 0 1.276.445 1.515.989l1.701 3.866c.19.393.233.821.233 1.106v3.787c-.315-.083-.643-.132-.983-.132h-12.305c-1.855 0-3.408 1.321-3.766 3.073zm18.913.771c0 1.568-1.276 2.844-2.844 2.844h-12.303c-1.568 0-2.844-1.276-2.844-2.844 0-1.568 1.276-2.844 2.844-2.844h12.304c1.568 0 2.843 1.276 2.843 2.844zm-13.87.001c0-.675-.549-1.224-1.223-1.224s-1.223.549-1.223 1.224c0 .674.549 1.223 1.223 1.223.674-.001 1.223-.549 1.223-1.223zm12.283 0c0-.675-.549-1.224-1.224-1.224-.674 0-1.223.549-1.223 1.224 0 .674.548 1.223 1.223 1.223.675-.001 1.224-.549 1.224-1.223z" fill="#0568ae"/></svg>