<svg xmlns="http://www.w3.org/2000/svg" viewBox="0 0 36 36" enable-background="new 0 0 36 36"><path d="M13.154 23.012l-.004-.015v-.285l6.491-2.722c.191-.08.281-.3.201-.491-.08-.191-.3-.281-.491-.201l-6.202 2.602v-3.872c0-.389.317-.705.707-.705h6.657c.802 0 1.457-.652 1.458-1.454l.007-2.885c0-.389.318-.706.707-.706h5.098c.445 0 .993.357 1.172.765l1.701 3.866.004.006.001.006c.17.352.195.742.195.943v3.008c0 .207.168.375.375.375s.375-.168.375-.375v-3.008c0-.32-.047-.795-.263-1.251l-.001-.005-1.701-3.866c-.299-.68-1.116-1.213-1.858-1.213h-5.098c-.802 0-1.456.652-1.457 1.454l-.007 2.885c0 .389-.318.706-.708.706h-6.657c-.803 0-1.457.653-1.457 1.455v4.187l-2.074.87c-.038-.515-.198-1.021-.487-1.475-.348-.546-.862-1.031-1.528-1.443-.464-.285-.833-.429-.902-.455-.208-.079-.446-.067-.647.03-.202.097-.353.269-.428.491l-1.778 5.576-1.282.857c-.315.212-.445.61-.314.969.122.328.425.54.772.54l.093-.005c.102-.011 1.03-.12 2.109-.401.669-.175 1.259-.38 1.752-.61.691-.324 1.176-.676 1.527-1.109.579-.719.935-1.434 1.068-2.134l2.125-.891c.007.189.076.366.206.504l.835.874c.074.077.172.116.271.116.093 0 .187-.035.259-.104.15-.143.155-.38.012-.53l-.834-.874zm-9.417 4.414h-.006l-.069-.049.028-.087 1.39-.929c.071-.047.123-.117.149-.198l1.817-5.697.04-.049.059-.003c.035.013.36.138.772.391.568.351 1.002.758 1.289 1.208.256.402.385.837.385 1.291 0 .716-.324 1.482-.963 2.275-.276.341-.677.627-1.261.901-.452.211-.998.401-1.623.564-1.028.267-1.907.37-2.007.382zm26.511-4.908h-12.304c-1.568 0-2.844 1.276-2.844 2.844s1.275 2.844 2.844 2.844h12.304c1.568 0 2.844-1.276 2.844-2.844s-1.276-2.844-2.844-2.844zm0 4.938h-12.304c-1.155 0-2.094-.939-2.094-2.094s.939-2.094 2.094-2.094h12.304c1.154 0 2.094.939 2.094 2.094s-.94 2.094-2.094 2.094zm-11.277-2.093c0 .537-.436.973-.973.973s-.973-.436-.973-.973c0-.538.436-.974.973-.974s.973.436.973.974zm12.283 0c0 .537-.435.973-.974.973-.537 0-.973-.436-.973-.973 0-.538.436-.974.973-.974.538 0 .974.436.974.974z" fill="#0568ae"/></svg>