<svg xmlns="http://www.w3.org/2000/svg" viewBox="0 0 36 36" enable-background="new 0 0 36 36"><path d="M13.638 10.898v-1.267c0-.276.224-.5.5-.5s.5.224.5.5v1.267c0 .276-.224.5-.5.5s-.5-.224-.5-.5zm2.369 1.117c.128 0 .256-.049.354-.147l.895-.895c.195-.195.195-.512 0-.707-.195-.195-.512-.195-.707 0l-.895.895c-.195.195-.195.512 0 .707.097.098.225.147.353.147zm-4.091-.147c.098.098.226.147.353.147.128 0 .256-.049.354-.147.195-.195.195-.512 0-.707l-.896-.895c-.195-.195-.512-.195-.707 0s-.195.512 0 .707l.896.895zm13.565 12.259c-1.128 0-2.042.914-2.042 2.042 0 1.127.914 2.041 2.042 2.041 1.128 0 2.041-.914 2.041-2.041 0-1.127-.914-2.042-2.041-2.042zm-14.594 0c-1.128 0-2.041.914-2.041 2.042 0 1.127.913 2.041 2.041 2.041 1.127 0 2.041-.914 2.041-2.041.001-1.127-.914-2.042-2.041-2.042zm19.579-8.706v9.284c0 .802-.653 1.455-1.455 1.455h-.489c-.005-1.673-1.367-3.033-3.041-3.033s-3.036 1.36-3.041 3.033h-8.512c-.005-1.673-1.367-3.033-3.041-3.033s-3.036 1.36-3.041 3.033h-.872c-.794 0-1.44-.646-1.44-1.439l.001-4.49c0-.701.384-1.643.875-2.144l3.156-3.225c.492-.503 1.429-.897 2.133-.897h.932v-.556c0-.802.652-1.454 1.454-1.454h.107c.802 0 1.454.652 1.454 1.454v.556h13.365c.802.001 1.455.654 1.455 1.456zm-8.12 4.136c0-.353-.289-.642-.642-.642h-1.548v-1.549c0-.353-.288-.642-.642-.642h-1.039c-.354 0-.642.289-.642.642l-.003 1.549h-1.548c-.354 0-.642.288-.642.642v1.038c0 .354.289.643.642.643h1.551v1.547c0 .354.288.642.642.642h1.039c.354 0 .642-.288.642-.642v-1.547h1.548c.353 0 .642-.29.642-.643v-1.038z" fill="#0568ae"/></svg>