<svg xmlns="http://www.w3.org/2000/svg" viewBox="0 0 36 36" enable-background="new 0 0 36 36"><path d="M18.455 23.776h1.02c.555 0 1.006-.451 1.006-1.005v-1.144h1.145c.555 0 1.006-.452 1.006-1.007v-1.02c0-.554-.451-1.005-1.006-1.005h-1.145v-1.145c0-.554-.451-1.005-1.006-1.005h-1.02c-.554 0-1.006.451-1.006 1.005l-.003 1.147h-1.145c-.555 0-1.006.451-1.006 1.005v1.02c0 .555.451 1.007 1.006 1.007h1.148v1.144c.001.552.452 1.003 1.006 1.003zm-2.153-2.899c-.139 0-.256-.118-.256-.257v-1.02c0-.14.115-.255.256-.255h1.519c.207 0 .375-.167.375-.374l.004-1.521c0-.141.115-.255.256-.255h1.02c.141 0 .256.115.256.255v1.521c0 .207.167.375.375.375h1.52c.141 0 .256.115.256.255v1.02c0 .139-.117.257-.256.257h-1.52c-.208 0-.375.168-.375.375v1.519c0 .141-.115.255-.256.255h-1.02c-.141 0-.256-.114-.256-.255v-1.519c0-.207-.168-.375-.375-.375h-1.523zm13.818 4.568h-1.638c-.184-1.152-1.175-2.038-2.378-2.038s-2.195.886-2.378 2.038h-10.49c-.183-1.152-1.175-2.038-2.378-2.038s-2.195.886-2.378 2.038h-1.535c-.413 0-.69-.356-.69-.689l.001-4.49c0-.503.309-1.26.661-1.619l3.155-3.225c.351-.358 1.097-.672 1.598-.672h17.311c.389 0 .706.317.706.705v6.579c0 .207.168.375.375.375s.375-.168.375-.375v-6.579c0-.802-.653-1.455-1.455-1.455h-13.365v-.903c0-.802-.652-1.454-1.454-1.454h-.107c-.802 0-1.454.652-1.454 1.454v.903h-.932c-.704 0-1.641.394-2.134.897l-3.155 3.225c-.49.502-.875 1.443-.875 2.144l-.001 4.49c0 .794.646 1.439 1.44 1.439h1.535c.18 1.155 1.173 2.045 2.379 2.045 1.205 0 2.198-.89 2.379-2.045h10.487c.18 1.155 1.173 2.045 2.379 2.045 1.205 0 2.198-.89 2.379-2.045h1.637c.207 0 .375-.168.375-.375s-.168-.375-.375-.375zm-16.768-12.348c0-.388.316-.704.704-.704h.107c.388 0 .704.316.704.704v.903h-1.515v-.903zm-2.493 14.393c-.919 0-1.667-.748-1.667-1.666 0-.919.747-1.667 1.667-1.667.919 0 1.666.748 1.666 1.667 0 .918-.748 1.666-1.666 1.666zm15.245 0c-.919 0-1.667-.748-1.667-1.666 0-.919.747-1.667 1.667-1.667.919 0 1.666.748 1.666 1.667-.001.918-.748 1.666-1.666 1.666zm-12.37-16.905v-1.267c0-.207.168-.375.375-.375s.375.168.375.375v1.267c0 .207-.168.375-.375.375s-.375-.168-.375-.375zm1.979.883c-.147-.147-.147-.384 0-.531l.895-.895c.146-.146.384-.146.53 0 .146.147.146.384 0 .53l-.895.895c-.073.073-.169.11-.265.11s-.192-.036-.265-.109zm-4.633-.896c-.146-.146-.146-.384 0-.53.146-.146.384-.146.53 0l.895.895c.147.146.147.384 0 .53-.073.073-.169.11-.265.11s-.192-.037-.265-.11l-.895-.895z" fill="#0568ae"/></svg>