<svg xmlns="http://www.w3.org/2000/svg" viewBox="0 0 36 36" enable-background="new 0 0 36 36"><path d="M11.618 24.128c1.128 0 2.042.914 2.042 2.042 0 1.127-.914 2.041-2.042 2.041s-2.041-.914-2.041-2.041c0-1.128.914-2.042 2.041-2.042m12.468-3.593c-2.12 0-3.837 1.718-3.837 3.838 0 2.118 1.717 3.837 3.837 3.837s3.837-1.718 3.837-3.837-1.718-3.838-3.837-3.838zm-4.906 3.871c0-.609.117-1.19.322-1.728l.408-.828c.861-1.396 2.4-2.332 4.157-2.332.877 0 1.737.235 2.487.679.416.248.952.108 1.199-.307.246-.416.109-.952-.307-1.199-.44-.261-.91-.465-1.396-.617v-4.722c0-.604-.491-1.095-1.095-1.095h-5.635c-.554 0-1.128.411-1.307.936l-1.949 5.738h-2.703v-4.561c0-.948-.771-1.72-1.72-1.72h-.856c-.552 0-1 .448-1 1s.448 1 1 1h.576v4.281h-2.279c-.31 0-.582.13-.746.356-.164.227-.202.525-.105.82l1.275 3.88c.548-.531 1.292-.859 2.113-.859 1.439 0 2.646 1.006 2.96 2.352h2.949l.056.348c.089.409.452.688.854.688l.188-.02c.472-.104.771-.57.668-1.042-.076-.342-.114-.695-.114-1.048zm-.306-6.07c-.215 0-.319-.161-.232-.357l1.21-3.575c.076-.193.245-.273.397-.273h3.361c.215 0 .364.173.391.391l-.005 3.249c-.926.01-1.806.211-2.605.565h-2.517z" fill="#0568ae"/></svg>