<svg xmlns="http://www.w3.org/2000/svg" viewBox="0 0 36 36" enable-background="new 0 0 36 36"><path d="M24.086 20.16c-2.322 0-4.212 1.89-4.212 4.213 0 2.322 1.89 4.211 4.212 4.211 2.323 0 4.212-1.889 4.212-4.211s-1.89-4.213-4.212-4.213zm0 7.675c-1.909 0-3.462-1.553-3.462-3.461 0-1.91 1.553-3.463 3.462-3.463 1.909 0 3.462 1.554 3.462 3.463 0 1.908-1.553 3.461-3.462 3.461zm-5.406-3.429c0-2.971 2.417-5.388 5.387-5.388 1.284 0 2.527.459 3.501 1.292.156.135.395.117.528-.041.135-.157.117-.394-.041-.528-.593-.508-1.276-.89-2.006-1.139v-5.75c0-.604-.491-1.095-1.095-1.095h-5.635c-.558 0-1.126.417-1.294.949l-1.965 6.225h-3.325v-4.561c0-.604-.491-1.095-1.095-1.095h-.856c-.207 0-.375.168-.375.375s.168.375.375.375h.856c.19 0 .345.155.345.345v4.561h-2.903c-.31 0-.582.13-.746.356-.164.227-.202.525-.105.82l1.456 4.431.056.129c-.332.414-.539.932-.539 1.503 0 1.332 1.084 2.416 2.416 2.416 1.332 0 2.417-1.084 2.417-2.416 0-.241-.046-.47-.113-.69h4.103c.056.318.136.632.242.938.054.155.199.252.354.252l.123-.021c.196-.068.299-.281.231-.477-.197-.566-.297-1.161-.297-1.766zm.059-11.475c.07-.222.346-.425.579-.425h5.635c.191 0 .345.155.345.345v5.546c-.403-.083-.816-.13-1.233-.13-1.01 0-1.96.249-2.801.683l-.102-.021h-4.317l1.894-5.998zm-7.121 14.904h-.004c-.919 0-1.666-.747-1.666-1.666l.015-.148.013-.127.038-.163.035-.114.061-.154.055-.101c.215-.385.574-.674 1.008-.794l.048-.015.123-.025.263-.027.007-.001h.004l.285.029.1.021.157.049.237.105.046.023h-.004c.301.173.543.433.688.75h.004l.006.018.062.182.047.152.005.046.033.292c.001.921-.747 1.668-1.666 1.668zm1.93-3.106c-.441-.59-1.138-.977-1.929-.977-.47 0-.906.141-1.278.374l-1.398-4.255.001-.146.139-.046h11.073c-1.358 1.127-2.225 2.826-2.225 4.726l.013.324h-4.396z" fill="#0568ae"/></svg>