<svg xmlns="http://www.w3.org/2000/svg" viewBox="0 0 36 36" enable-background="new 0 0 36 36"><path d="M28.906 21.55c.214-.304.333-.669.333-1.043v-5.307c0-1.001-.815-1.815-1.815-1.815h-14.245c-1.001 0-1.815.814-1.815 1.815v5.308c0 1.001.814 1.815 1.815 1.815h8.129c-.889.82-1.542 1.886-1.853 3.091h-7.72c-.183-1.152-1.176-2.038-2.378-2.038-1.203 0-2.195.886-2.378 2.038h-1.536c-.413 0-.69-.356-.69-.689v-4.487c0-.411.253-1.03.54-1.324l2.66-2.718c.285-.292.894-.548 1.304-.548h.506c.207 0 .375-.168.375-.375s-.168-.375-.375-.375h-.505c-.608 0-1.416.34-1.84.773l-2.66 2.718c-.423.432-.754 1.244-.754 1.849v4.487c0 .793.646 1.439 1.44 1.439h1.535c.18 1.156 1.174 2.045 2.379 2.045s2.198-.889 2.379-2.045h7.572c-.036.275-.062.554-.062.839 0 3.515 2.86 6.375 6.375 6.375s6.375-2.86 6.375-6.375c-.001-2.312-1.243-4.335-3.091-5.453zm-19.549 5.909c-.919 0-1.667-.747-1.667-1.666 0-.919.747-1.667 1.667-1.667.919 0 1.666.748 1.666 1.667 0 .918-.747 1.666-1.666 1.666zm12.827-5.887h-9.005c-.587 0-1.065-.478-1.065-1.065v-5.307c0-.587.477-1.065 1.065-1.065h14.246c.587 0 1.065.478 1.065 1.065v5.308c0 .255-.094.493-.259.685-.798-.359-1.679-.564-2.609-.564-1.23 0-2.376.356-3.351.962l-.087-.019zm3.437 11.056c-3.101 0-5.625-2.524-5.625-5.625 0-3.102 2.524-5.625 5.625-5.625 3.102 0 5.625 2.523 5.625 5.625s-2.523 5.625-5.625 5.625zm3.673-6.559c.147-.17.187-.405.1-.619-.141-.334-.311-.632-.504-.884-.125-.164-.331-.252-.534-.23-.373.039-.733.125-1.077.256l-.2-.126-.204-.107c-.04-.342-.118-.685-.23-1.006-.075-.211-.258-.361-.473-.39-.318-.047-.649-.051-.983-.014-.221.006-.416.141-.51.352-.153.344-.259.7-.317 1.061l-.221.118-.182.116c-.309-.134-.637-.236-.978-.303-.224-.046-.447.037-.582.212-.199.251-.374.545-.516.868-.09.192-.068.42.058.597.223.306.479.576.763.808l-.012.255.012.207c-.273.202-.527.437-.759.703-.147.174-.184.412-.096.617.138.33.308.628.502.883.124.164.33.256.536.232.377-.041.738-.127 1.076-.257l.199.125.204.107c.041.343.119.686.231 1.006.074.21.256.359.474.39.174.025.353.038.534.038l.438-.023.073-.006c.199-.032.367-.162.447-.346.152-.344.259-.7.319-1.061l.22-.118.181-.115c.309.135.638.237.978.304.218.044.443-.036.585-.214.195-.249.369-.542.516-.87.088-.194.064-.421-.061-.591-.223-.307-.478-.579-.762-.809l.011-.237v-.02l-.011-.206c.273-.205.527-.44.755-.703zm-1.361.207c-.124.082-.188.228-.164.374l.031.337-.028.357c-.021.139.038.276.151.358.266.193.507.43.716.705-.097.207-.206.392-.324.553-.321-.071-.626-.178-.909-.319-.132-.065-.292-.048-.407.048l-.283.195-.314.152c-.129.051-.219.169-.235.307-.036.331-.121.658-.252.975-.231.019-.441.018-.639-.004-.098-.304-.159-.629-.181-.948-.01-.147-.104-.274-.241-.326l-.31-.146-.288-.195c-.11-.09-.261-.111-.391-.052-.299.134-.625.225-.966.27-.119-.165-.225-.353-.317-.56.221-.241.466-.452.73-.627.123-.081.187-.226.163-.371l-.03-.33.028-.369c.02-.137-.038-.273-.15-.355-.268-.196-.51-.433-.718-.704.095-.204.204-.39.325-.554.321.07.626.178.907.318.134.066.294.048.408-.048l.283-.195.313-.149c.131-.051.224-.171.238-.31.035-.33.119-.657.251-.975.226-.018.437-.017.639.005.098.304.16.629.18.947.009.147.103.274.24.327l.311.145.292.199c.11.088.26.108.389.051.305-.136.629-.227.968-.27.118.165.225.353.317.558-.223.242-.468.452-.733.626zm-.75 1.263c-.198.576-.692.994-1.289 1.091l-.269.022c-.341 0-.672-.107-.956-.31-.356-.257-.592-.636-.663-1.069-.071-.432.031-.867.288-1.224.256-.356.636-.592 1.069-.663.206-.034.397.104.431.309.033.204-.105.397-.31.431-.235.039-.441.167-.581.361-.14.194-.195.43-.157.665.039.235.167.441.361.581.194.14.431.195.665.157.325-.053.593-.281.7-.594.067-.196.28-.301.477-.233.197.067.301.28.234.476z" fill="#0568ae"/></svg>