<svg xmlns="http://www.w3.org/2000/svg" viewBox="0 0 36 36" enable-background="new 0 0 36 36"><path d="M20.186 22.053c-.99 1.124-1.651 2.541-1.827 4.107h-5.774c-.005-1.673-1.367-3.033-3.041-3.033s-3.036 1.36-3.041 3.033h-.872c-.794 0-1.44-.646-1.44-1.439v-4.487c0-.605.332-1.417.754-1.849l2.66-2.718c.424-.434 1.232-.773 1.84-.773h1.641v5.219c0 1.07.87 1.94 1.94 1.94h7.16zm-10.642 2.074c-1.128 0-2.042.914-2.042 2.042 0 1.127.913 2.041 2.042 2.041 1.127 0 2.041-.914 2.041-2.041.001-1.127-.913-2.042-2.041-2.042zm19.72-3.777l.034-.237v-5.85c0-.518-.422-.94-.94-.94h-15.332c-.518 0-.94.422-.94.94v5.85c0 .518.422.94.94.94h8.231c1.264-.97 2.84-1.554 4.553-1.554 1.245.001 2.419.311 3.454.851zm-2.283 6.65c0-.647-.525-1.172-1.172-1.172-.647 0-1.172.525-1.172 1.172s.525 1.172 1.172 1.172c.647 0 1.172-.525 1.172-1.172zm2.019 1.189c.043.059.051.137.021.205-.126.283-.275.535-.443.748-.049.061-.126.09-.203.075-.369-.073-.717-.191-1.037-.351l-.311.216c-.102.062-.216.116-.35.169-.042.374-.142.746-.301 1.106-.028.064-.087.109-.156.121l-.012.001c-.319.032-.602.029-.868-.01-.076-.011-.139-.064-.164-.136-.12-.343-.195-.712-.219-1.076-.132-.05-.244-.102-.345-.162-.122-.07-.228-.142-.32-.218-.342.153-.713.252-1.105.294-.072.007-.142-.023-.186-.08-.165-.216-.31-.471-.43-.758-.031-.073-.018-.156.034-.217.244-.281.521-.524.823-.725l-.033-.374.031-.391c-.304-.222-.576-.493-.808-.812-.043-.06-.052-.138-.02-.206.125-.283.274-.536.443-.749.047-.061.125-.09.203-.074.371.073.718.191 1.036.35.09-.075.193-.146.312-.216.102-.062.218-.117.351-.168.04-.376.14-.747.299-1.106.03-.068.091-.119.169-.122.314-.033.597-.03.867.01.076.01.138.064.164.136.12.343.195.712.218 1.076.133.051.245.102.347.162l.319.218c.342-.152.714-.253 1.104-.293.072-.008.142.022.186.079.167.217.311.472.432.759.029.073.017.155-.035.215-.245.283-.521.526-.824.725l.034.375-.03.391c.303.22.574.493.807.813zm-3.191-7.189c-3.313 0-6 2.687-6 6s2.687 6 6 6 6-2.687 6-6-2.687-6-6-6" fill="#0568ae"/></svg>