<svg xmlns="http://www.w3.org/2000/svg" viewBox="0 0 36 36" enable-background="new 0 0 36 36"><path d="M33.103 18.072v2.487c0 .207-.168.375-.375.375s-.375-.168-.375-.375v-2.487c0-.19-.155-.345-.345-.345h-18.22c-.334 0-.887.137-1.182.293l-5.451 2.872-.175.043c-.135 0-.265-.073-.332-.2-.096-.183-.026-.41.157-.506l5.451-2.872c.403-.212 1.076-.379 1.532-.379h18.22c.603-.001 1.095.49 1.095 1.094zm0 5.011v.914c0 .513-.301 1.142-.701 1.463l-3.012 2.42c-.373.299-1.039.534-1.516.534h-16.136c-.479 0-1.144-.238-1.514-.543l-2.926-2.407c-.395-.326-.693-.956-.693-1.467v-.914c0-.604.491-1.095 1.095-1.095h24.308c.603 0 1.095.491 1.095 1.095zm-.75 0c0-.191-.155-.345-.345-.345h-24.308c-.19 0-.345.155-.345.345v.914c0 .284.2.708.419.888l2.926 2.407c.237.195.731.372 1.038.372h16.135c.313 0 .802-.172 1.046-.369l3.012-2.42c.22-.177.421-.596.421-.878v-.914zm-20.359 1.048c-.591 0-1.07.48-1.07 1.071s.479 1.07 1.07 1.07c.592 0 1.071-.479 1.071-1.07-.001-.591-.48-1.071-1.071-1.071zm7.85 0c-.591 0-1.07.48-1.07 1.071s.479 1.07 1.07 1.07c.592 0 1.071-.479 1.071-1.07 0-.591-.479-1.071-1.071-1.071zm-3.925 0c-.591 0-1.07.48-1.07 1.071s.479 1.07 1.07 1.07c.592 0 1.071-.479 1.071-1.07 0-.591-.479-1.071-1.071-1.071zm7.85 0c-.591 0-1.07.48-1.07 1.071s.479 1.07 1.07 1.07c.592 0 1.071-.479 1.071-1.07 0-.591-.479-1.071-1.071-1.071zm3.925 0c-.591 0-1.07.48-1.07 1.071s.479 1.07 1.07 1.07c.592 0 1.071-.479 1.071-1.07 0-.591-.479-1.071-1.071-1.071zm-21.441-9.332h-2.664c-.675 0-1.224-.549-1.224-1.224v-.287c0-.675.549-1.224 1.224-1.224h2.663c.596 0 1.092.428 1.201.993h5.932c.175-.332.439-.624.745-.78l3.226-1.654c.469-.24 1.249-.429 1.776-.429h6.644c.675 0 1.224.549 1.224 1.224v3.228c0 .675-.549 1.224-1.224 1.224h-11.382c-.675 0-1.224-.549-1.224-1.224v-.799l.003-.04h-5.72c-.109.564-.605.992-1.2.992zm7.667-.153c0 .262.213.474.474.474h11.381c.261 0 .474-.213.474-.474v-3.228c0-.261-.213-.474-.474-.474h-6.644c-.404 0-1.074.162-1.433.346l-3.226 1.654c-.289.148-.552.578-.552.903v.799zm-7.193-1.358c0-.261-.213-.474-.474-.474h-2.664c-.262 0-.474.213-.474.474v.287c0 .261.213.474.474.474h2.663c.261 0 .474-.213.474-.474v-.287z" fill="#0568ae"/></svg>