<svg xmlns="http://www.w3.org/2000/svg" viewBox="0 0 36 36" enable-background="new 0 0 36 36"><path d="M32.728 20.809c0 .396-.324.72-.72.72h-24.308c-.396 0-.72-.324-.72-.72v-.115c0-.396.3-.841.668-.989l4.753-1.918c.367-.148.992-.27 1.388-.27h18.22c.396 0 .72.324.72.72v2.572zm0 2.44v.914c0 .396-.253.923-.561 1.171l-3.012 2.42c-.309.248-.885.451-1.281.451h-16.136c-.396 0-.97-.206-1.276-.457l-2.926-2.408c-.306-.251-.556-.781-.556-1.177v-.914c0-.396.324-.72.72-.72h24.308c.396 0 .72.324.72.72zm-18.552 2.119c0-.788-.641-1.429-1.429-1.429-.787 0-1.428.641-1.428 1.429 0 .787.641 1.428 1.428 1.428.788-.001 1.429-.641 1.429-1.428zm4.737 0c0-.788-.641-1.429-1.428-1.429-.787 0-1.428.641-1.428 1.429 0 .787.641 1.428 1.428 1.428.787-.001 1.428-.641 1.428-1.428zm4.738 0c0-.788-.641-1.429-1.428-1.429-.787 0-1.428.641-1.428 1.429 0 .787.641 1.428 1.428 1.428.787-.001 1.428-.641 1.428-1.428zm4.737 0c0-.788-.641-1.429-1.429-1.429-.787 0-1.428.641-1.428 1.429 0 .787.641 1.428 1.428 1.428.788-.001 1.429-.641 1.429-1.428zm-2.613-14.633h-6.643c-.467 0-1.189.174-1.605.387l-2.878 1.476h-7.67c-.148-.249-.418-.418-.727-.418h-2.663c-.467 0-.849.382-.849.849v1.138c0 .467.382.849.849.849h2.663c.309 0 .578-.169.727-.418h6.566v1.071c0 .467.382.849.849.849h11.381c.467 0 .849-.382.849-.849v-4.085c0-.467-.382-.849-.849-.849z" fill="#0568ae"/></svg>