<svg xmlns="http://www.w3.org/2000/svg" viewBox="0 0 36 36">
  <path fill="#0568ae" d="M32 30.8c-.1 0-.2 0-.3-.1L5.2 4.2c-.2-.2-.2-.4 0-.5.1-.1.4-.1.5 0l26.6 26.5c.1.1.1.4 0 .5-.1.1-.2.1-.3.1zM17.8 33c-.2 0-.4-.2-.4-.4s.2-.4.4-.4c3.1 0 6.2-1 8.7-2.9.2-.1.4-.1.5.1.1.2.1.4-.1.5-2.6 2.1-5.8 3.1-9.1 3.1z"/>
  <path fill="#0568ae" d="M29.1 27.8c-.1 0-.2 0-.2-.1-.2-.1-.2-.4 0-.5 1.6-1.8 2.6-4.1 3.1-6.4.9-4.2-.3-8.6-3-11.9-2.8-3.4-6.9-5.4-11.2-5.4-.2 0-.4-.2-.4-.4s.2-.4.4-.4c4.5 0 8.8 2.1 11.7 5.6 2.9 3.6 4.1 8.2 3.2 12.6-.5 2.5-1.6 4.8-3.3 6.8-.1 0-.2.1-.3.1zM17.9 33c-2.5 0-5-.6-7.2-1.8-3.9-2.1-6.7-5.8-7.6-10.1-1-4.3 0-8.8 2.6-12.3.1-.2.3-.2.5-.1s.2.4.1.5c-2.5 3.3-3.4 7.6-2.5 11.7.9 4.1 3.5 7.7 7.2 9.6 2.1 1.1 4.5 1.7 6.9 1.7.2 0 .4.2.4.4-.1.3-.2.4-.4.4z"/>
  <path fill="#0568ae" d="M8.3 6.9c-.1 0-.2 0-.3-.1-.1-.2-.1-.4 0-.5 2.7-2.3 6.2-3.6 9.8-3.6.2 0 .4.2.4.4s-.2.4-.4.4c-3.4 0-6.7 1.2-9.3 3.4h-.2zM21.5 15.5c0-1.1-.4-1.9-1-2.5-.7-.6-1.7-.9-2.9-.9h-3.4v11.5h.8V19h2.6c1.2 0 2.2-.3 2.9-.9.7-.6 1-1.5 1-2.6zm-3.9 2.8H15v-5.4h2.5c1 0 1.7.2 2.3.7.5.5.8 1.1.8 2 0 .9-.3 1.5-.8 2-.5.4-1.3.7-2.2.7z"/>
</svg>
