<svg xmlns="http://www.w3.org/2000/svg" viewBox="0 0 36 36">
  <g fill="#0568ae">
    <path d="M17.5 20.3h-1.9v5.3h-2.5v-9.7l-7-7c-1.9 2.5-3 5.6-3 8.9C3 26 9.6 32.6 17.8 32.6c3.4 0 6.5-1.1 8.9-3l-9.2-9.3zM21.4 15.3c0-.9-.3-1.5-.8-2-.6-.5-1.3-.7-2.4-.7h-2.6v3.6l2 2h.6c1 0 1.8-.3 2.4-.8.5-.5.8-1.2.8-2.1z"/>
    <path d="M17.8 3c-4.2 0-8 1.8-10.7 4.7l6 6v-3.4h5.3c1.8 0 3.1.4 4.1 1.3 1 .9 1.5 2.1 1.5 3.6 0 1.6-.5 2.8-1.5 3.7-.7.7-1.7 1.1-2.8 1.3l8.4 8.3c2.9-2.7 4.6-6.5 4.6-10.8C32.6 9.6 26 3 17.8 3z"/>
  </g>
</svg>
