<svg xmlns="http://www.w3.org/2000/svg" viewBox="0 0 36 36" enable-background="new 0 0 36 36"><path d="M31.313 19.025l-.508 3.664c-.055.398-.429.725-.832.727l-21.248.084c-.403.001-.88-.29-1.063-.649l-2.805-5.51c-.194-.318-.048-.577.323-.577h9.31c.161 0 .526.086.753.273.228.188 1.206.965 1.433 1.112.21.136.524.179.695.185h13.372c.372.001.626.324.57.691zm-15.435-2.759c.281.231 1.134.903 1.327 1.035l.188.034h11.213000000000001l-.345-2.163c-.077-.426-.494-.776-.928-.776h-.858v-1.753c0-.414-.336-.75-.75-.75s-.75.336-.75.75v1.753h-4.017c-.434 0-.981-.298-1.217-.661l-.148-.227c-.236-.363-.783-.661-1.218-.661h-4.341c-.433 0-.903.336-1.042.746l-.867 2.171h2.364c.377.001.972.158 1.389.502z" fill="#0568ae"/></svg>