<svg xmlns="http://www.w3.org/2000/svg" viewBox="0 0 36 36" enable-background="new 0 0 36 36"><path d="M31.447 19.096c.042-.284-.037-.567-.217-.778-.176-.206-.437-.324-.714-.324h-2.2l-.001-.006-.415-2.596c-.103-.57-.637-1.017-1.217-1.017h-.814v-1.72c0-.207-.168-.375-.375-.375s-.375.168-.375.375v1.72h-4.258c-.27 0-.65-.207-.798-.434l-.135-.207c-.287-.441-.9-.774-1.427-.774h-3.295c-.556 0-1.13.412-1.299.917l-.996 2.494c-.01.029-.029.077-.172.077h-7.395c-.314 0-.567.131-.695.358-.122.218-.105.486.039.744l.003.011 2.762 5.425c.245.482.837.844 1.378.844h.004l20.922-.083c.587-.002 1.109-.459 1.189-1.039l.499-3.602v-.001l.001-.005.001-.004zm-1.242 3.509c-.028.208-.239.391-.449.392l-20.923.083h-.001c-.256 0-.594-.206-.71-.434l-2.762-5.424-.008-.01-.004-.012h7.392c.424 0 .742-.207.872-.558l1-2.505c.075-.223.359-.426.596-.426h3.295c.271 0 .651.206.798.433l.135.207c.287.442.9.775 1.426.775h5.822c.217 0 .44.187.477.392l.395 2.478h-8.073c-.207 0-.375.168-.375.375s.168.375.375.375h11.032c.076 0 .121.034.145.062.04.046.057.114.046.185v.002l-.001.003-.5 3.607z" fill="#0568ae"/></svg>