<svg xmlns="http://www.w3.org/2000/svg" viewBox="0 0 36 36" enable-background="new 0 0 36 36"><path d="M10.991 13.324c-.518 0-.94.422-.94.94v5.85c0 .518.422.94.94.94h20.832c.519 0 .941-.422.941-.94v-5.85c0-.518-.422-.94-.941-.94h-20.832zm-2.916 10.804c1.127 0 2.041.914 2.041 2.042 0 1.127-.914 2.041-2.041 2.041-1.128 0-2.042-.914-2.042-2.041 0-1.128.913-2.042 2.042-2.042m17.034 2.042c0 1.127-.914 2.041-2.041 2.041-1.128 0-2.042-.914-2.042-2.041 0-1.128.914-2.042 2.042-2.042 1.127 0 2.041.914 2.041 2.042zm6.978-.411c-.223.231-.527.36-.879.389-.012-1.667-1.37-3.021-3.04-3.021h-5.101c-1.674 0-3.036 1.36-3.041 3.033h-8.911c-.005-1.673-1.367-3.033-3.041-3.033s-3.036 1.36-3.041 3.033h-.872c-.794 0-1.44-.646-1.44-1.439v-4.487c0-.604.331-1.416.754-1.849l2.66-2.718c.424-.434 1.233-.773 1.84-.773h1.076v5.219c0 1.07.87 1.94 1.94 1.94h20.832c.247 0 .482-.051.699-.135v2.644c.003.063.013.734-.435 1.197zm-9.02 2.452c-1.128 0-2.042-.914-2.042-2.041 0-1.128.913-2.042 2.042-2.042 1.127 0 2.041.914 2.041 2.042 0 1.126-.913 2.041-2.041 2.041zm7.142-2.041c0 1.127-.914 2.041-2.041 2.041-1.128 0-2.042-.914-2.042-2.041 0-1.128.914-2.042 2.042-2.042 1.127 0 2.041.914 2.041 2.042z" fill="#0568ae"/></svg>