<svg xmlns="http://www.w3.org/2000/svg" viewBox="0 0 36 36" enable-background="new 0 0 36 36"><path d="M32.803 25.413h-1.038c-.183-1.152-1.175-2.038-2.378-2.038s-2.194.886-2.378 2.038h-1.174c-.184-1.152-1.175-2.038-2.378-2.038s-2.195.886-2.378 2.038h-10.668c-.184-1.152-1.175-2.038-2.378-2.038s-2.195.886-2.378 2.038h-1.536c-.412 0-.69-.356-.69-.689v-4.487c0-.411.252-1.03.54-1.324l2.66-2.718c.286-.292.895-.548 1.304-.548h.507c.207 0 .375-.168.375-.375s-.168-.375-.375-.375h-.506c-.607 0-1.416.34-1.84.773l-2.66 2.717c-.423.433-.754 1.245-.754 1.85v4.487c0 .793.646 1.439 1.44 1.439h1.535c.18 1.156 1.173 2.045 2.379 2.045 1.205 0 2.198-.889 2.379-2.045h10.667c.18 1.156 1.173 2.045 2.379 2.045 1.205 0 2.199-.889 2.378-2.045h1.173c.18 1.156 1.173 2.045 2.378 2.045s2.199-.889 2.379-2.045h1.037c.207 0 .375-.168.375-.375-.001-.207-.169-.375-.376-.375zm-24.77 2.045c-.919 0-1.667-.748-1.667-1.666 0-.92.748-1.667 1.667-1.667s1.666.747 1.666 1.667c0 .919-.747 1.666-1.666 1.666zm15.425 0c-.919 0-1.667-.748-1.667-1.666 0-.92.747-1.667 1.667-1.667.918 0 1.667.747 1.667 1.667-.001.919-.749 1.666-1.667 1.666zm5.93 0c-.919 0-1.666-.748-1.666-1.666 0-.92.747-1.667 1.666-1.667.919 0 1.667.747 1.667 1.667-.001.919-.748 1.666-1.667 1.666zm2.228-14.073h-19.761c-1.001 0-1.815.814-1.815 1.815v5.308c0 1 .814 1.815 1.815 1.815h19.761c1.001 0 1.815-.815 1.815-1.815v-5.308c0-1.001-.815-1.815-1.815-1.815zm1.065 7.122c0 .587-.478 1.065-1.065 1.065h-19.761c-.587 0-1.065-.478-1.065-1.065v-5.307c0-.587.478-1.065 1.065-1.065h19.761c.587 0 1.065.478 1.065 1.065v5.307z" fill="#0568ae"/></svg>