<svg xmlns="http://www.w3.org/2000/svg" viewBox="0 0 36 36">
  <path fill="#0568ae" d="M22.4 16.7h-8.9c-.9 0-1.6-.7-1.6-1.6v-1.6c0-.9.7-1.6 1.6-1.6h8.9c.9 0 1.6.7 1.6 1.6v1.6c0 .9-.7 1.6-1.6 1.6zm-7.8 1.5c-.8-.2-1.6.5-1.3 1.3.1.4.4.7.8.8.8.2 1.6-.5 1.3-1.3-.2-.4-.5-.7-.8-.8zm7.2 0c-.8-.2-1.6.5-1.3 1.3.1.4.4.7.8.8.8.2 1.6-.5 1.3-1.3-.1-.4-.4-.7-.8-.8zM19.5 27c0-.9.2-1.9.5-2.7h-5.7v1.9c0 .6-.5 1.2-1.2 1.2-.6 0-1.2-.5-1.2-1.2v-1.9h-.1c-.8 0-1.5-.7-1.5-1.5V10.5c0-.8.7-1.5 1.5-1.5H24c.8 0 1.5.7 1.5 1.5v9.2c.5-.1 1-.2 1.5-.2 2.1 0 4.1.9 5.4 2.4.3-1.2.5-2.5.5-3.9 0-8.3-6.7-15-15-15C9.7 3 3 9.7 3 18s6.7 15 15 15c1.3 0 2.6-.2 3.8-.5-1.5-1.4-2.3-3.4-2.3-5.5zm13.4 0c0 3.3-2.7 6-6 6s-6-2.7-6-6 2.7-6 6-6c3.4 0 6 2.7 6 6zm-5 2.7c0-.5-.4-.9-.9-.9s-.9.4-.9.9.4.9.9.9c.5.1.9-.3.9-.9zm1.6-2.4c-.5-.4-1.1-.7-1.8-.8-1.2-.2-2.4.1-3.3.8-.2.2-.3.5-.1.7.2.2.5.3.7.1.7-.6 1.6-.8 2.5-.6.5.1 1 .3 1.4.6.1.1.2.1.3.1.2 0 .3-.1.4-.2.2-.2.1-.5-.1-.7zm1.4-2c-.8-.6-1.7-1-2.7-1.2-1.8-.3-3.6.1-5.1 1.2-.2.2-.3.5-.1.7.2.2.5.3.7.1 1.2-.9 2.8-1.3 4.3-1 .9.2 1.6.5 2.3 1 .1.1.2.1.3.1.1 0 .3-.1.4-.2.2-.2.1-.5-.1-.7z"/>
</svg>
