<svg xmlns="http://www.w3.org/2000/svg" viewBox="0 0 36 36"><path fill="none" d="M0 0h36v36H0z"/><path fill="#0568ae" d="M14.8 5.4c-1.7 0-3.1 1.4-3.1 3.1s1.4 3.1 3.1 3.1 3.1-1.4 3.1-3.1-1.4-3.1-3.1-3.1zm0 5.5c-1.3 0-2.3-1.1-2.3-2.3s1.1-2.3 2.3-2.3 2.3 1.1 2.3 2.3-1 2.3-2.3 2.3zm0 2.7c-1.7 0-3.1 1.4-3.1 3.1 0 1.7 1.4 3.1 3.1 3.1.9 0 1.7-.4 2.3-1 .5-.6.8-1.3.8-2.1 0-1.7-1.4-3.1-3.1-3.1zm1.7 4.6c-.4.5-1.1.8-1.7.8-1.3 0-2.3-1.1-2.3-2.3 0-1.3 1.1-2.3 2.3-2.3s2.3 1.1 2.3 2.3c0 .6-.2 1.1-.6 1.5zm-1.7 3.5c-1.7 0-3.1 1.4-3.1 3.1 0 1.7 1.4 3.1 3.1 3.1s3.1-1.4 3.1-3.1c0-1.7-1.4-3.1-3.1-3.1zm0 5.5c-1.3 0-2.3-1.1-2.3-2.3 0-1.3 1.1-2.3 2.3-2.3s2.3 1.1 2.3 2.3c0 1.2-1 2.3-2.3 2.3zm10.8-6.6c-1.3 0-2.6.4-3.6 1.1v-17c0-1.1-.9-2-2-2H9.6c-1.1 0-2 .9-2 2v23.9c0 1.1.9 2 2 2h8c.2 0 .4-.2.4-.4s-.2-.4-.4-.4h-8c-.7 0-1.3-.6-1.3-1.3V4.7c0-.7.6-1.3 1.3-1.3H20c.7 0 1.3.6 1.3 1.3v17.6c-1.2 1.2-2 2.8-2 4.7 0 3.5 2.9 6.4 6.4 6.4s6.4-2.9 6.4-6.4-3-6.4-6.5-6.4zm0 12c-3.1 0-5.6-2.5-5.6-5.6s2.5-5.6 5.6-5.6 5.6 2.5 5.6 5.6-2.5 5.6-5.6 5.6zm.6-2.4c0 .3-.3.6-.6.6s-.6-.3-.6-.6.3-.6.6-.6c.4 0 .6.2.6.6zm1.4-1.9c.2.1.2.4.1.5-.1.1-.2.1-.3.1-.1 0-.2 0-.2-.1-.3-.2-.7-.4-1.1-.5-.7-.1-1.4 0-2 .5-.2.1-.4.1-.5-.1-.1-.2-.1-.4.1-.5.7-.6 1.7-.8 2.6-.6.4.2.9.4 1.3.7zm1.1-1.5c.2.1.2.4.1.5-.1.1-.2.1-.3.1-.1 0-.2 0-.2-.1-.5-.4-1.1-.7-1.8-.8-1.2-.2-2.4.1-3.4.8-.2.1-.4.1-.5-.1-.1-.2-.1-.4.1-.5 1.1-.9 2.6-1.2 3.9-.9.7.2 1.4.5 2.1 1zm1.1-1c-.1.2-.4.2-.5.1-.7-.6-1.6-1-2.6-1.2-1.7-.3-3.4.1-4.7 1.2-.1.1-.2.1-.3.1-.1 0-.2 0-.3-.1-.1-.2-.1-.4.1-.5 1.5-1.2 3.5-1.7 5.4-1.4 1.1.2 2.1.7 2.9 1.3.1.1.1.4 0 .5z"/></svg>