<svg xmlns="http://www.w3.org/2000/svg" viewBox="0 0 36 36">
  <path fill="#0568ae" d="M27 21c-3.3 0-6 2.7-6 6s2.7 6 6 6 6-2.7 6-6-2.7-6-6-6zm0 9.7c-.5 0-.9-.4-.9-.9s.4-.9.9-.9.9.4.9.9c0 .4-.4.9-.9.9zm2.6-2.7c-.1.1-.2.2-.4.2-.1 0-.2 0-.3-.1-.4-.3-.8-.5-1.4-.6-.9-.2-1.8.1-2.5.6-.2.2-.5.1-.7-.1-.2-.2-.1-.5.1-.7.9-.7 2.2-1 3.3-.8.7.1 1.3.4 1.8.8.2.2.3.5.1.7zm1.4-2c-.1.1-.2.2-.4.2-.1 0-.2 0-.3-.1-.7-.5-1.5-.9-2.3-1-1.5-.3-3.1.1-4.3 1-.2.2-.5.1-.7-.1-.2-.2-.1-.5.1-.7 1.5-1.1 3.3-1.5 5.1-1.2 1 .2 1.9.6 2.7 1.2.2.2.3.5.1.7z"/>
  <g fill="#0568ae">
    <path d="M19.5 27c0-4.2 3.4-7.5 7.5-7.5 2.2 0 4.1.9 5.5 2.4.3-1.3.5-2.6.5-3.9 0-8.3-6.7-15-15-15S3 9.7 3 18s6.7 15 15 15c1.3 0 2.6-.2 3.8-.5-1.4-1.4-2.3-3.3-2.3-5.5zm-3.8-6.5v5.4h-2.5V10.4h5.3c1.8 0 3.2.4 4.2 1.3s1.5 2.1 1.5 3.7-.5 2.8-1.5 3.8c-1 .9-2.4 1.4-4.1 1.4h-2.9z"/>
    <path d="M18.3 12.6h-2.6v5.7h2.6c1 0 1.8-.3 2.4-.8.6-.5.9-1.2.9-2.1 0-.9-.3-1.6-.8-2-.6-.6-1.4-.8-2.5-.8z"/>
  </g>
</svg>
