<svg xmlns="http://www.w3.org/2000/svg" viewBox="0 0 36 36">
  <g fill="#0568ae">
    <path d="M26.6 21.1c3.1 0 5.6 2.5 5.6 5.6s-2.5 5.6-5.6 5.6-5.6-2.5-5.6-5.6 2.5-5.6 5.6-5.6m0-.8c-3.5 0-6.4 2.9-6.4 6.4s2.9 6.4 6.4 6.4 6.4-2.9 6.4-6.4-2.9-6.4-6.4-6.4z"/>
    <path d="M27.2 29.6c.3.6-.3 1.1-.8.8l-.3-.3c-.3-.6.3-1.1.8-.8l.3.3zM30.5 25c-.8-.6-1.8-1.1-2.8-1.3-1.8-.3-3.7.1-5.1 1.3-.2.1-.2.4 0 .5.1.1.2.1.3.1.1 0 .2 0 .2-.1 1.3-1 2.9-1.5 4.5-1.2.9.2 1.7.6 2.5 1.1.2.1.4.1.5-.1.1.1.1-.2-.1-.3zM27.1 27.3c-.9-.2-1.8.1-2.4.6-.2.1-.2.3-.1.5s.3.2.5.1c.5-.4 1.2-.6 1.9-.4.4.1.7.2 1 .4.1 0 .1.1.2.1s.2 0 .3-.1c.1-.2.1-.4-.1-.5-.3-.4-.8-.6-1.3-.7z"/>
    <path d="M27.5 25.5c-1.3-.2-2.7.1-3.8.9-.2.1-.2.3-.1.5s.3.2.5.1c.9-.7 2.1-1 3.2-.8.6.1 1.2.4 1.7.8.1.1.1.1.2.1s.2 0 .3-.1c.1-.2.1-.4-.1-.5-.5-.6-1.2-.9-1.9-1z"/>
    <g>
      <path d="M4.7 22.9c-.6-1.6-.9-3.3-.9-5 0-1.2.1-2.3.4-3.4C5.8 8.1 11.4 3.6 18 3.6c7.8 0 14.2 6.4 14.2 14.2 0 1.8-.3 3.5-.9 5.1l.6.6c.7-1.7 1.1-3.7 1.1-5.6 0-8.3-6.7-15-15-15-6.9 0-12.9 4.7-14.5 11.4-.3 1.1-.5 2.4-.5 3.6 0 1.8.3 3.6 1 5.3 1 2.8 2.9 5.2 5.3 6.9.2.1.4.1.5-.1.1-.2.1-.4-.1-.5-2.3-1.7-4-4-5-6.6zM22.7 31.3c-1.2.4-2.4.7-3.7.8-.2 0-.4.2-.3.4 0 .2.2.3.4.3 1.6-.1 3-.5 4.4-1-.4-.1-.6-.3-.8-.5z"/>
    </g>
    <path d="M21.8 15.6c0-1.1-.4-1.9-1.1-2.6-.7-.6-1.7-.9-2.9-.9h-3.4v11.6h.9v-4.5h2.6c1.2 0 2.2-.3 2.9-1 .6-.6 1-1.4 1-2.6zm-4 2.8h-2.6V13h2.6c1 0 1.8.2 2.3.7.5.5.8 1.1.8 2 0 .9-.3 1.5-.8 2-.6.5-1.4.7-2.3.7z"/>
  </g>
</svg>
