<svg xmlns="http://www.w3.org/2000/svg" viewBox="0 0 36 36">
  <g fill="#0568ae">
    <path d="M27 21.7c3.1 0 5.6 2.6 5.5 5.7-.1 2.8-2.5 5.2-5.3 5.3-3.1.1-5.7-2.4-5.7-5.5 0-3 2.5-5.5 5.5-5.5m0-.7c-3.5 0-6.4 2.9-6.3 6.5.1 3.2 2.8 5.9 6 6 3.6.1 6.5-2.7 6.5-6.3.1-3.4-2.7-6.2-6.2-6.2M18.2 19.4c-.3 0-.6.1-.8.2l-5.8-8.8c-.1-.2-.3-.2-.5-.1s-.2.3-.1.5l5.8 8.8c-.6.5-.9 1.3-.7 2.1.2.8.8 1.5 1.7 1.7 1.4.3 2.7-.8 2.7-2.1-.1-1.4-1.1-2.3-2.3-2.3m0 3.6c-1 0-1.7-.9-1.4-1.9.1-.4.5-.8.9-.9 1-.3 1.9.4 1.9 1.4 0 .8-.6 1.4-1.4 1.4"/>
    <path d="M30.3 10.8l-1.7 1c-.2.1-.2.3-.1.5.1.1.2.2.3.2h.2l1.7-1c1.1 1.9 1.7 4.1 1.7 6.5h-1.9c-.2 0-.4.2-.4.4s.2.4.4.4h1.9c0 1.7-.4 3.3-1 4.9.2.2.4.5.5.7.8-1.9 1.3-3.9 1.3-6 0-8.3-6.7-15-15-15s-15 6.7-15 15c0 2.6.7 5.2 2 7.5.1.1.2.2.3.2h.2c.2-.1.2-.3.1-.5-1.2-2-1.8-4.4-1.9-6.7h1.9c.2 0 .4-.2.4-.4s-.2-.4-.4-.4H3.9c.1-2.3.7-4.5 1.7-6.4l1.6.9h.2c.1 0 .2-.1.3-.2.1-.2 0-.4-.1-.5L6 10.8c1.2-1.9 2.8-3.5 4.7-4.7l.9 1.6c.1.1.2.2.3.2h.2c.2-.1.2-.3.1-.5l-1-1.6C13.3 4.7 15.5 4 17.8 4v1.9c0 .2.2.4.4.4s.4-.2.4-.4V4c2.3 0 4.5.7 6.4 1.7l-1 1.7c-.1.2 0 .4.1.5h.2c.1 0 .2-.1.3-.2l1-1.7c1.9 1.2 3.6 2.9 4.7 4.8M27.7 30.4c0 .3-.3.6-.6.6s-.6-.3-.6-.6.3-.6.6-.6c.3-.1.6.2.6.6"/>
    <path d="M30.9 25.6c-.8-.6-1.7-1.1-2.7-1.3-1.8-.3-3.6.1-5 1.3-.1.1-.2.3 0 .5.1.1.2.1.3.1.1 0 .2 0 .2-.1 1.2-1 2.9-1.4 4.4-1.1.9.2 1.7.6 2.4 1.1.2.1.4.1.5-.1 0-.1 0-.3-.1-.4M27.6 27.8c-.8-.2-1.7 0-2.4.6-.2.1-.2.3-.1.5s.3.2.5.1c.3-.2.6-.4 1-.5.7-.1 1.4.1 1.9.5.1 0 .1.1.2.1s.2 0 .3-.1c.1-.2.1-.4-.1-.5-.4-.4-.9-.6-1.3-.7"/>
    <path d="M27.9 26c-1.3-.2-2.6.1-3.7.9-.2.1-.2.3-.1.5.1.1.3.2.5.1.6-.4 1.2-.7 1.8-.8 1.2-.1 2.2.2 3 .8.1 0 .1.1.2.1s.2 0 .3-.1c.1-.2.1-.4-.1-.5-.5-.6-1.2-.9-1.9-1"/>
  </g>
</svg>
