<svg xmlns="http://www.w3.org/2000/svg" viewBox="0 0 36 36">
  <path fill="#0568ae" d="M15.2 19.5c0 .5-.4.9-.9.9s-.9-.4-.9-.9.4-.9.9-.9.9.5.9.9zm6.4-.8c-.5 0-.9.4-.9.9s.4.9.9.9.9-.4.9-.9-.4-.9-.9-.9zm2.3-2.4V13c0-.6-.5-1.1-1.1-1.1h-9.6c-.6 0-1.1.5-1.1 1.1v3.2c0 .2.2.4.4.4s.4-.2.4-.4V13c0-.2.2-.3.3-.3h9.6c.2 0 .3.2.3.3v3.2c0 .2-.2.3-.3.3h-7c-.2 0-.4.2-.4.4s.2.4.4.4h7c.6.1 1.1-.4 1.1-1zm8.4 7.2c.6 1 1 2.2 1 3.5 0 3.5-2.9 6.4-6.4 6.4-1.3 0-2.5-.4-3.5-1-1.4.6-2.9.9-4.5 1-.2 0-.4-.2-.4-.4s.1-.4.3-.4c1.3-.1 2.6-.4 3.9-.8-1.4-1.2-2.2-2.9-2.2-4.8 0-.7.1-1.4.3-2h-6.2V26.7c0 .9-.7 1.6-1.6 1.6s-1.6-.7-1.6-1.6V25c-.8-.1-1.5-.8-1.5-1.6V10.5c0-.9.7-1.6 1.6-1.6h12.6c.9 0 1.6.7 1.6 1.6v10.2c.3-.1.7-.1 1.1-.1 1.9 0 3.6.9 4.8 2.2.5-1.5.8-3.1.8-4.8.2-8-6.3-14.6-14.4-14.6C11.3 3.4 5.4 8 3.8 14.5c-.3 1.1-.4 2.3-.4 3.5 0 1.8.3 3.5.9 5.2 1 2.7 2.8 5 5.2 6.7.2.1.2.4.1.5-.1.2-.4.2-.5.1-2.5-1.8-4.4-4.2-5.4-7.1-.7-1.7-1-3.6-1-5.4 0-1.3.2-2.5.5-3.7C4.8 7.4 10.9 2.6 18 2.6c8.5 0 15.4 6.9 15.4 15.4 0 2-.4 3.8-1.1 5.5zM14 26.6v-1.5h-1.7v1.7c0 .5.4.9.9.9s.9-.4.9-.9v-.1l-.1-.1zm7.2-2.3c.8-1.6 2.2-2.9 3.9-3.4V10.5c0-.5-.4-.9-.9-.9H11.7c-.5 0-.9.4-.9.9v12.9c0 .5.4.9.9.9h9.5zm10.8.1c-.1-.3-.3-.5-.5-.8-1-1.4-2.7-2.3-4.5-2.3-3.1 0-5.6 2.5-5.6 5.6 0 1.8.9 3.5 2.3 4.5.2.2.5.3.8.5.8.4 1.7.6 2.6.6 3.1 0 5.6-2.5 5.6-5.6-.1-.8-.3-1.7-.7-2.5zm-5 5.2c-.3 0-.6.3-.6.6s.3.6.6.6.6-.3.6-.6c.1-.3-.2-.6-.6-.6zm.6-1.8c-.9-.2-1.8.1-2.6.6-.2.1-.2.4-.1.5.1.2.4.2.5.1.6-.4 1.3-.6 2-.5.4.1.8.2 1.1.5.1.1.1.1.2.1s.2-.1.3-.1c.1-.2.1-.4-.1-.5-.3-.4-.8-.6-1.3-.7zm.4-1.9c-1.4-.3-2.8.1-3.9.9-.2.1-.2.4-.1.5.1.2.4.2.5.1 1-.7 2.2-1 3.4-.8.7.1 1.3.4 1.8.8.1.1.1.1.2.1s.2-.1.3-.1c.1-.2.1-.4-.1-.5-.6-.5-1.3-.8-2.1-1zm.3-1.9c-1.9-.4-3.9.1-5.4 1.4-.2.1-.2.4-.1.5.1.1.2.1.3.1.1 0 .2 0 .2-.1 1.3-1.1 3.1-1.5 4.7-1.2.9.2 1.8.6 2.6 1.2.2.1.4.1.5-.1.1-.2.1-.4-.1-.5-.7-.6-1.7-1.1-2.7-1.3z"/>
</svg>
