<svg xmlns="http://www.w3.org/2000/svg" viewBox="0 0 36 36">
  <path fill="#0568ae" d="M27 21.2c-3.3 0-6 2.7-6 6.1 0 3.4 2.7 6.1 6 6.1s6-2.7 6-6.1c0-3.4-2.7-6.1-6-6.1zm0 9.7c-.5 0-.9-.4-.9-.9s.4-.9.9-.9.9.4.9.9-.4.9-.9.9zm2.7-2.7c-.1.1-.2.2-.4.2-.1 0-.2 0-.3-.1-.4-.3-.9-.5-1.4-.6-.9-.2-1.8.1-2.5.6-.2.2-.5.1-.7-.1-.2-.2-.1-.5.1-.7.9-.7 2.2-1 3.3-.8.7.1 1.3.4 1.8.8.2.2.2.5.1.7zm1.4-1.9c-.1.1-.2.2-.4.2-.1 0-.2 0-.3-.1-.7-.5-1.5-.9-2.3-1.1-1.5-.3-3.1.1-4.3 1-.2.2-.5.1-.7-.1-.2-.2-.1-.5.1-.7 1.5-1.1 3.3-1.6 5.1-1.2 1 .2 1.9.6 2.8 1.2.1.2.1.5 0 .8z"/>
  <path fill="#0568ae" d="M18 3.2C9.7 3.2 3 10 3 18.4c0 2.4.6 4.8 1.7 7 .5 1 1.6 1.7 2.8 1.7h12c.1-4.1 3.4-7.4 7.5-7.4 2.2 0 4.2 1 5.6 2.5.3-1.2.5-2.5.5-3.7C33 10 26.3 3.2 18 3.2zm-.7 2c0-.4.3-.7.7-.7.4 0 .7.3.7.7v2c0 .4-.3.8-.7.8-.4 0-.7-.3-.7-.7V5.2zM6.9 19.8H5c-.4 0-.7-.3-.7-.7 0-.4.3-.7.7-.7h1.9c.4 0 .7.3.7.7 0 .3-.3.7-.7.7zM9 13.5c-.1.2-.4.4-.6.4-.1 0-.3 0-.4-.1l-1.6-1c-.3-.2-.5-.7-.2-1 .2-.4.7-.5 1-.2l1.6 1c.3.1.4.6.2.9zm2.1-7.1c.4-.2.8-.1 1 .3l.9 1.7c.2.4.1.8-.3 1-.1.1-.2.1-.4.1-.3 0-.5-.1-.6-.4l-.9-1.7c-.2-.3 0-.8.3-1zM18 24.2c-.6 0-1.1-.3-1.4-.8l-5.1-10.1c-.2-.2-.1-.5.1-.7.2-.2.5-.1.7.1l6.9 8.7c.2.3.4.6.4 1.1 0 1-.7 1.7-1.6 1.7zm7.1-16.8l-.9 1.7c-.1.2-.4.4-.6.4-.1 0-.2 0-.4-.1-.4-.2-.5-.6-.3-1l.9-1.7c.2-.4.6-.5 1-.3s.5.7.3 1zm1.9 6.1c-.2-.3-.1-.8.2-1l1.6-1c.3-.2.8-.1 1 .2.2.3.1.8-.2 1l-1.6 1c-.1.1-.2.1-.4.1-.2.1-.5-.1-.6-.3z"/>
</svg>
