<svg xmlns="http://www.w3.org/2000/svg" viewBox="0 0 36 36">
  <path fill="#0568ae" d="M27.8 16.9c0 .7-.5 1.1-1.4 1.1h-1.1v-2.2h1.1c.9 0 1.4.4 1.4 1.1zm-7.4-1.1c-1.2 0-2 .9-2 2.2 0 1.3.8 2.2 2 2.2s2-.9 2-2.2c.1-1.3-.8-2.2-2-2.2zm12-3v10.5c0 .4-.2.9-.5 1.2l-7.4 7.4c-.3.3-.8.5-1.2.5H12.8c-.4 0-.9-.2-1.2-.5l-7.4-7.4c-.3-.3-.5-.8-.5-1.2V12.8c0-.4.2-.9.5-1.2l7.4-7.4c.3-.3.8-.5 1.2-.5h10.5c.4 0 .9.2 1.2.5l7.4 7.4c.3.2.5.8.5 1.2zm-20.7 6.5c0-1.1-1-1.5-2-1.8-.8-.2-1.4-.3-1.4-.9 0-.5.5-.9 1.2-.9s1.3.3 1.6.8c0 0 .4-.2.4-.5 0-.4-.7-1-2-1s-2.1.7-2.1 1.7c0 1.2.9 1.5 1.9 1.7.8.2 1.5.3 1.5 1 0 .6-.5.9-1.3.9s-1.4-.4-1.8-.9c0 0-.4.2-.4.5 0 .5.8 1.2 2.2 1.2 1.4 0 2.2-.7 2.2-1.8zm5.5-3.9c0-.3-.1-.4-.4-.4h-4.2c-.3 0-.4.1-.4.4 0 .3.2.4.4.4h1.6v5.1h.9v-5.1h1.6c.4.1.5-.1.5-.4zm6.2 2.6c0-1.8-1.2-3.1-3-3.1-1.7 0-3 1.3-3 3.1s1.2 3 3 3c1.8.1 3-1.2 3-3zm5.3-1.1c0-1.2-.8-1.9-2.3-1.9h-1.5c-.3 0-.5.2-.5.5v5.4h.9v-2.1h1c1.6 0 2.4-.6 2.4-1.9z"/>
</svg>
