<svg xmlns="http://www.w3.org/2000/svg" viewBox="0 0 36 36">
  <g fill="#0568ae">
    <path d="M23.2 32.8H12.8c-.5 0-1.1-.3-1.5-.6L7 27.9c-.1-.1-.1-.4 0-.5s.4-.1.5 0l4.2 4.2c.2.2.7.4 1 .4h10.5c.3 0 .8-.2 1-.4l7.4-7.4c.2-.2.4-.7.4-1V12.8c0-.3-.2-.8-.4-1l-7.4-7.4c-.2-.2-.7-.4-1-.4H12.8c-.3 0-.8.2-1 .4l-7.4 7.4c-.2.2-.4.7-.4 1v10.5c0 .2-.2.4-.4.4s-.4-.2-.4-.4V12.8c0-.5.3-1.1.6-1.5l7.4-7.4c.4-.4 1-.6 1.5-.6h10.5c.5 0 1.1.3 1.5.6l7.4 7.4c.4.4.6 1 .6 1.5v10.5c0 .5-.3 1.1-.6 1.5l-7.4 7.4c-.3.3-1 .6-1.5.6z"/>
    <path d="M7 20c0-.3.4-.4.4-.4.3.6 1 1 1.9 1 1 0 1.5-.4 1.5-1.1 0-.8-.8-1-1.7-1.2-.9-.2-1.9-.5-1.9-1.7 0-1 .9-1.7 2.1-1.7.9 0 1.5.3 1.8.6.2.2.2.3.2.4 0 .3-.4.4-.4.4-.3-.5-.9-.9-1.6-.9-.9 0-1.4.4-1.4 1.1 0 .8.6 1 1.6 1.2 1 .2 2 .6 2 1.8 0 1-.8 1.7-2.1 1.7-.9 0-1.6-.3-2-.7-.3-.2-.4-.4-.4-.5zM14.2 15.5h-1.9c-.2 0-.3-.1-.3-.3 0-.2.1-.3.3-.3h4.5c.2 0 .3.1.3.3 0 .2-.1.3-.3.3h-1.9v5.6h-.6v-5.6zM20.6 14.8c1.8 0 3.1 1.3 3.1 3.2s-1.3 3.2-3.1 3.2-3.1-1.3-3.1-3.2 1.3-3.2 3.1-3.2zm0 5.8c1.4 0 2.4-1.1 2.4-2.6s-1-2.6-2.4-2.6-2.4 1.1-2.4 2.6 1 2.6 2.4 2.6zM24.8 15.3c0-.2.2-.4.4-.4h1.6c1.4 0 2.3.7 2.3 1.9s-.8 1.9-2.3 1.9h-1.2v2.4H25v-5.8zm2 2.8c1.1 0 1.6-.5 1.6-1.3 0-.9-.5-1.3-1.6-1.3h-1.3v2.6h1.3z"/>
  </g>
</svg>
