<svg xmlns="http://www.w3.org/2000/svg" viewBox="0 0 36 36" enable-background="new 0 0 36 36"><path d="M24.416 24.128c-1.128 0-2.042.914-2.042 2.042 0 1.127.914 2.041 2.042 2.041 1.128 0 2.041-.914 2.041-2.041 0-1.128-.913-2.042-2.041-2.042zm-12.984 0c-1.128 0-2.041.914-2.041 2.042 0 1.127.914 2.041 2.041 2.041s2.042-.914 2.042-2.041c-.001-1.128-.914-2.042-2.042-2.042zm18.424-3.167l-.004 3.626c0 .064-.011.652-.459 1.103-.312.312-.743.471-1.283.471h-.653c-.005-1.673-1.367-3.033-3.041-3.033s-3.036 1.36-3.041 3.033h-6.902c-.005-1.673-1.367-3.033-3.041-3.033s-3.036 1.36-3.041 3.033h-.707c-.849 0-1.54-.691-1.54-1.539v-3.873c0-.825.671-1.496 1.496-1.496h3.474c.204 0 .526-.142.665-.292l2.936-3.26c.469-.48 1.342-.848 2-.848h9.672c.765 0 1.779.473 2.07 1.177l.834 2.049c.313.775.567 2.067.565 2.882zm-10.973-4.014c0-.198-.162-.36-.36-.36h-1.311c-.372 0-.888.217-1.148.483l-.366.397-1.229 1.406c-.201.218-.123.397.174.397h3.8800000000000003c.198 0 .36-.162.36-.36v-1.9629999999999999zm5.951-.36h-4.063v2.683h4.063v-2.683z" fill="#0568ae"/></svg>