<svg xmlns="http://www.w3.org/2000/svg" viewBox="0 0 36 36" enable-background="new 0 0 36 36"><path d="M29.476 22.739c.207 0 .375-.167.376-.374l.004-1.405c.002-.816-.252-2.108-.566-2.88l-.833-2.048v-.002c-.291-.704-1.306-1.177-2.07-1.177h-9.671999999999999c-.657 0-1.531.367-1.989.837l-.003.004-.005.003-2.939 3.191c-.138.15-.461.292-.665.292h-3.474c-.825 0-1.496.671-1.496 1.496v3.944c0 .849.691 1.54 1.54 1.54h1.369c.18 1.156 1.173 2.045 2.378 2.045 1.206 0 2.199-.889 2.379-2.045h8.226c.181 1.156 1.174 2.045 2.38 2.045 1.205 0 2.198-.889 2.378-2.045h2.682c.207 0 .375-.168.375-.375s-.168-.375-.375-.375h-2.683c-.184-1.152-1.176-2.038-2.378-2.038-1.203 0-2.195.886-2.379 2.038h-8.226c-.183-1.152-1.175-2.038-2.378-2.038-1.202 0-2.194.886-2.377 2.038h-1.37c-.428 0-.79-.362-.79-.79v-3.944c0-.411.334-.746.746-.746h3.474c.413 0 .936-.229 1.216-.534l2.934-3.185c.318-.325.995-.609 1.45-.609h9.671999999999999c.49 0 1.213.318 1.377.713l.832 2.046c.278.685.513 1.874.511 2.596l-.004 1.404c-.002.209.166.377.373.378zm-5.059 1.382c.918 0 1.666.748 1.666 1.667s-.748 1.666-1.666 1.666c-.919 0-1.667-.747-1.667-1.666 0-.919.747-1.667 1.667-1.667zm-12.985 0c.919 0 1.667.748 1.667 1.667s-.748 1.666-1.667 1.666c-.918 0-1.666-.747-1.666-1.666 0-.919.747-1.667 1.666-1.667z" fill="#0568ae"/></svg>