<svg xmlns="http://www.w3.org/2000/svg" viewBox="0 0 36 36" enable-background="new 0 0 36 36"><path d="M24.986 15.043v-1.289h1.935v1.289h-1.935zm1.935 1h-1.935v1.289h1.935v-1.289zm2.665-2.288h-1.665v5.32c0 .276-.224.5-.5.5s-.5-.224-.5-.5v-.743h-1.935v.743c0 .276-.223.5-.5.5-.276 0-.5-.224-.5-.5v-5.32h-9.7c-1.054 0-2.006.438-2.686 1.14-.652.672-1.056 1.584-1.056 2.59 0 2.052 1.679 3.72 3.742 3.72l15.3-.005c.664 0 1.287-.172 1.829-.472 1.153-.637 1.936-1.856 1.936-3.253 0-2.051-1.689-3.72-3.765-3.72zm-21.584 10.373c-1.128 0-2.041.914-2.041 2.042 0 1.127.913 2.041 2.041 2.041 1.127 0 2.041-.914 2.041-2.041.001-1.128-.913-2.042-2.041-2.042zm14.993 0c-1.128 0-2.041.914-2.041 2.042 0 1.127.914 2.041 2.041 2.041 1.128 0 2.041-.914 2.041-2.041 0-1.128-.913-2.042-2.041-2.042zm9.455.434v-3.32c-.798.598-1.789.958-2.864.958l-15.3.005c-2.615 0-4.742-2.118-4.742-4.72 0-.956.288-1.845.779-2.59h-2.42c-.607 0-1.415.34-1.84.773l-2.66 2.718c-.423.432-.754 1.244-.754 1.849v4.487c0 .793.646 1.439 1.439 1.439h.873c.005-1.673 1.367-3.033 3.041-3.033s3.036 1.36 3.041 3.033h8.911c.005-1.673 1.367-3.033 3.041-3.033h5.101c1.67 0 3.028 1.353 3.04 3.021.352-.029.656-.158.879-.389.447-.464.438-1.135.435-1.198zm-4.354-.434c-1.128 0-2.041.914-2.041 2.042 0 1.127.914 2.041 2.041 2.041 1.128 0 2.041-.914 2.041-2.041 0-1.128-.914-2.042-2.041-2.042z" fill="#0568ae"/></svg>