<svg xmlns="http://www.w3.org/2000/svg" viewBox="0 0 36 36" enable-background="new 0 0 36 36"><path d="M13.983 22.342h1.255v.049c0 .207.168.375.375.375s.375-.168.375-.375v-.05l12.66-.004c2.618 0 4.749-2.112 4.749-4.708 0-2.593-2.13-4.703-4.749-4.703h-1.232v-.048c0-.207-.168-.375-.375-.375s-.375.168-.375.375v.048h-2.099v-.048c0-.207-.168-.375-.375-.375s-.375.168-.375.375v.048h-7.829v-.048c0-.207-.168-.375-.375-.375s-.375.168-.375.375v.048h-1.255c-2.606 0-4.726 2.114-4.726 4.713.001 2.593 2.12 4.703 4.726 4.703zm12.684-8.666v1.176h-2.099v-1.176h2.099zm0 3.106h-2.099v-1.18h2.099v1.18zm-2.099.75h2.099v1.18h-2.099v-1.18zm-.75-3.856v5.969c0 .207.168.375.375.375s.375-.168.375-.375v-.183h2.099v.183c0 .207.168.375.375.375s.375-.168.375-.375v-5.969h1.232c2.205 0 3.999 1.773 3.999 3.953 0 2.182-1.793 3.958-3.999 3.958l-12.66.004v-7.915h7.829zm-9.835 0h1.255v7.915h-1.255c-2.192 0-3.976-1.773-3.976-3.953.001-2.184 1.784-3.962 3.976-3.962zm18.743 11.781h-1.038c-.183-1.152-1.175-2.038-2.378-2.038s-2.194.886-2.378 2.038h-1.174c-.184-1.152-1.175-2.038-2.378-2.038s-2.195.886-2.378 2.038h-10.668c-.184-1.152-1.175-2.038-2.378-2.038s-2.195.886-2.378 2.038h-1.536c-.413 0-.69-.356-.69-.689v-4.487c0-.411.252-1.03.54-1.324l2.66-2.718c.286-.292.895-.548 1.304-.548h.506c.207 0 .375-.168.375-.375s-.168-.375-.375-.375h-.505c-.607 0-1.416.34-1.84.773l-2.66 2.718c-.423.432-.754 1.244-.754 1.849v4.487c0 .794.646 1.439 1.44 1.439h1.535c.18 1.156 1.173 2.045 2.379 2.045 1.205 0 2.198-.889 2.379-2.045h10.667c.18 1.156 1.173 2.045 2.379 2.045 1.205 0 2.199-.889 2.378-2.045h1.173c.18 1.156 1.173 2.045 2.378 2.045s2.199-.889 2.379-2.045h1.037c.207 0 .375-.168.375-.375-.001-.207-.169-.375-.376-.375zm-24.77 2.045c-.919 0-1.667-.748-1.667-1.666 0-.919.748-1.667 1.667-1.667s1.666.748 1.666 1.667c0 .918-.747 1.666-1.666 1.666zm15.425 0c-.919 0-1.667-.748-1.667-1.666 0-.919.747-1.667 1.667-1.667.918 0 1.667.748 1.667 1.667-.001.918-.749 1.666-1.667 1.666zm5.93 0c-.919 0-1.666-.748-1.666-1.666 0-.919.747-1.667 1.666-1.667.919 0 1.667.748 1.667 1.667-.001.918-.748 1.666-1.667 1.666z" fill="#0568ae"/></svg>