<svg xmlns="http://www.w3.org/2000/svg" viewBox="0 0 36 36" enable-background="new 0 0 36 36"><path d="M30.12 25.447h-1.638c-.184-1.152-1.175-2.038-2.378-2.038s-2.195.886-2.378 2.038h-10.489c-.183-1.152-1.175-2.038-2.378-2.038s-2.194.886-2.378 2.038h-1.536c-.413 0-.689-.356-.689-.689l.001-4.49c0-.503.309-1.26.661-1.619l3.155-3.225c.351-.358 1.097-.672 1.598-.672h1.792c.389 0 .705.317.705.705v5.168c0 .964.785 1.748 1.75 1.748h14.202c.207 0 .375-.168.375-.375s-.168-.375-.375-.375h-14.202c-.552 0-1-.447-1-.998v-5.168c0-.802-.653-1.455-1.455-1.455h-1.792c-.704 0-1.641.394-2.134.897l-3.156 3.225c-.49.501-.874 1.443-.874 2.144l-.001 4.49c0 .794.646 1.439 1.439 1.439h1.535c.18 1.156 1.174 2.045 2.379 2.045 1.206 0 2.199-.889 2.379-2.045h10.487c.18 1.156 1.173 2.045 2.379 2.045 1.205 0 2.198-.889 2.379-2.045h1.637c.207 0 .375-.168.375-.375s-.168-.375-.375-.375zm-19.262 2.045c-.919 0-1.666-.748-1.666-1.666 0-.92.747-1.667 1.666-1.667.919 0 1.667.747 1.667 1.667 0 .919-.748 1.666-1.667 1.666zm15.246 0c-.919 0-1.667-.748-1.667-1.666 0-.92.747-1.667 1.667-1.667.919 0 1.666.747 1.666 1.667 0 .919-.748 1.666-1.666 1.666zm-10.712-9.112c-.098-.183-.029-.41.153-.507l13.056-6.992c.761-.415 1.382-.156 1.659.285.295.47.251 1.227-.413 1.703l-.379.305v2.496c0 .468-.3.77-.598.861-.308.094-.522.387-.522.712 0 .412.334.746.745.746.23 0 .444-.104.587-.286.128-.163.364-.191.526-.063.163.128.191.364.063.526-.285.364-.714.573-1.177.573-.825 0-1.495-.671-1.495-1.496 0-.661.422-1.235 1.052-1.429.001 0 .068-.023.068-.144v-1.892l-8.99 7.244c-.069.056-.153.083-.235.083-.109 0-.218-.048-.292-.14-.13-.162-.104-.397.057-.527l10.136-8.166c.308-.222.345-.526.232-.707-.114-.182-.364-.19-.667-.024l-13.058 6.993c-.183.098-.411.028-.508-.154z" fill="#0568ae"/></svg>