<svg xmlns="http://www.w3.org/2000/svg" viewBox="0 0 36 36" enable-background="new 0 0 36 36"><path d="M29.241 28.4h-1.394l-6.917-23.89c-.2-.69-.841-1.172-1.56-1.172h-2.85c-.722 0-1.364.485-1.561 1.178l-6.805 23.884h-1.395c-.802 0-1.455.653-1.455 1.455v1.423c0 .802.653 1.455 1.455 1.455h22.481c.802 0 1.455-.653 1.455-1.455v-1.423c.001-.802-.652-1.455-1.454-1.455zm-15.981-15.184h9.41l1.583 5.469h-12.551l1.558-5.469zm.961-3.372h7.456l.016-.003.76 2.625h-8.979l.747-2.622zm1.46-5.123c.106-.373.452-.634.84-.634h2.85c.387 0 .732.259.839.631l1.267 4.376h-7.042l1.246-4.373zm-4.193 14.714h12.982l.759 2.622h-10.729c-.207 0-.375.168-.375.375s.168.375.375.375h10.947l1.619 5.594h-18.132l2.554-8.966zm18.458 11.843c0 .389-.316.705-.705.705h-22.482c-.389 0-.705-.316-.705-.705v-1.423c0-.389.316-.705.705-.705h22.481c.389 0 .705.316.705.705v1.423z" fill="#0568ae"/></svg>