<svg xmlns="http://www.w3.org/2000/svg" viewBox="0 0 36 36" enable-background="new 0 0 36 36"><path d="M30.571 29.82v1.423c0 .733-.597 1.33-1.33 1.33h-22.482c-.733 0-1.33-.597-1.33-1.33v-1.423c0-.733.597-1.33 1.33-1.33h1.713l1.693-5.817h15.642l1.719 5.817h1.713c.735 0 1.332.596 1.332 1.33zm-8.572-20.305l-.023-.081-1.406-4.856c-.154-.534-.643-.901-1.199-.901h-2.85c-.558 0-1.048.37-1.201.906l-1.382 4.851-.317 1.111h8.676l-.298-1.03zm2.753 9.509l-1.573-5.435h-10.425l-1.549 5.435-.172.604h13.894l-.175-.604z" fill="#0568ae"/></svg>