<svg xmlns="http://www.w3.org/2000/svg" viewBox="0 0 36 36" enable-background="new 0 0 36 36"><path d="M33.375 26.233c0 .207-.168.375-.375.375h-30c-.207 0-.375-.168-.375-.375s.168-.375.375-.375h30c.207 0 .375.168.375.375zm-27.602-4.028v-.775c0-1.831 3.161-5.491 7.312-5.491h10.767c.604 0 1.095.491 1.095 1.095v5.473c0 .604-.491 1.095-1.095 1.095h-.821c-.214.867-.976 1.514-1.885 1.514-.91 0-1.671-.647-1.883-1.514h-6.547c-.214.867-.975 1.514-1.885 1.514s-1.671-.647-1.882-1.514h-1.778c-.771 0-1.398-.626-1.398-1.397zm6.163 1.397h-2.208c.181.449.607.764 1.103.764.495.001.922-.315 1.105-.764zm10.315 0h-2.208c.182.449.608.764 1.104.764s.921-.315 1.104-.764zm1.947-1.095v-3.074h-11.551c-1.127 0-2.947.393-3.973.857l-2.13.964-.021.176v.775c0 .313.26.647.648.647h16.681c.191 0 .346-.154.346-.345zm-10.411-3.824h2.972v-1.994h-2.972v1.994zm6.695 0v-1.994h-2.973v1.994h2.973zm3.371-1.994h-2.621v1.994h2.966v-1.649c0-.19-.155-.345-.345-.345zm-16.909 3.561l1.421-.643c1.125-.51 3.047-.924 4.282-.924h.39v-1.991c-2.857.023-5.181 2.018-6.093 3.558zm20.077-.817v3.074c0 .19.155.345.345.345h5.634c.207 0 .375.168.375.375s-.168.375-.375.375h-1.247c-.214.867-.975 1.514-1.884 1.514-.911 0-1.671-.647-1.884-1.514h-.619c-.603 0-1.095-.491-1.095-1.095v-5.473c0-.604.491-1.095 1.095-1.095h5.634c.207 0 .375.168.375.375s-.168.375-.375.375h-2.21v1.994h2.21c.207 0 .375.168.375.375s-.168.375-.375.375h-5.979zm3.953 4.169h-2.208c.182.449.608.764 1.104.764.495.001.921-.315 1.104-.764zm-3.953-6.568v1.649h3.019v-1.994h-2.674c-.19 0-.345.155-.345.345z" fill="#0568ae"/></svg>