<svg xmlns="http://www.w3.org/2000/svg" viewBox="0 0 36 36" enable-background="new 0 0 36 36"><path d="M7.128 19.823c.978 0 1.771.793 1.771 1.771 0 .978-.793 1.77-1.771 1.77-.977 0-1.77-.793-1.77-1.77 0-.978.793-1.771 1.77-1.771zm19.618 1.771c0 .978.792 1.77 1.771 1.77.978 0 1.77-.793 1.77-1.77 0-.978-.792-1.771-1.77-1.771-.979 0-1.771.793-1.771 1.771zm7.256-1.673c-.009-.037-.212-.905-.33-1.272-.159-.493-.607-.896-1.143-1.026-.338-.082-2.781-.533-2.88-.552-.267-.054-.379-.149-.566-.307l-1.616-1.448c-.546-.458-.99-.691-1.906-.691h-16.838c-.659 0-1.225.238-1.688.712l-1.165 1.235-.289.289c-.457.467-.666.679-1.525.679h-.183c-.734 0-1.253.382-1.461 1.068-.012.037-.307.916-.427 1.557-.067.36.021.718.241.984.237.286.608.443 1.045.443h1.086c.001-1.527 1.243-2.769 2.77-2.769s2.77 1.242 2.771 2.769h15.847c.001-1.527 1.244-2.769 2.771-2.769s2.769 1.242 2.77 2.769h1.328c.45 0 .861-.19 1.129-.52.258-.317.349-.724.259-1.151z" fill="#0568ae"/></svg>