<svg xmlns="http://www.w3.org/2000/svg" viewBox="0 0 36 36" enable-background="new 0 0 36 36"><path d="M33.282 20.795c0 1.594-4.043 1.428-5.254 1.428h-7.968l-8.733-.001c-1.923 0-3.177-.854-3.894-1.5-.241-.217-.803-.983-1.268-1.64h-.937c-1.052 0-1.547.054-1.967-.574-.163-.243-.201-.297-.376-.584-.363-.593-.16-1.456.877-1.456.701 0 1.095-.649.614-1.382-.541-.825-1.174-1.803-1.337-2.094-.34-.606.008-1.242.65-1.242h1.526c.481 0 .688.11 1.052.453 1.119 1.055 2.979 2.904 3.609 3.442 1.499 1.282 2.687 1.253 4.495 1.253h10.135c1.706 0 3.563-.098 4.456 1.106 0 0 .556.827 1.424.985 1.883.443 2.896.817 2.896 1.806z" fill="#0568ae"/></svg>