<svg xmlns="http://www.w3.org/2000/svg" viewBox="0 0 36 36" enable-background="new 0 0 36 36"><path d="M33.021 20.118c-.008-.034-.199-.848-.31-1.194-.162-.5-.614-.907-1.154-1.038-.317-.077-2.596-.497-2.686-.515-.216-.044-.301-.116-.47-.259l-1.495-1.34-.006-.003-.004-.005c-.519-.436-.968-.673-1.855-.673h-8.044l-.01.002-.011-.002h-7.613c-.649 0-1.207.235-1.663.702l-1.08 1.145-.272.272c-.412.42-.583.595-1.33.595h-.17c-.743 0-1.269.387-1.479 1.079-.012.035-.288.862-.401 1.466-.07.372.022.743.251 1.02.245.295.625.457 1.068.457h1.327c.065 1.058.937 1.9 2.01 1.9 1.116 0 2.024-.908 2.024-2.024s-.908-2.024-2.024-2.024c-.896 0-1.648.589-1.914 1.397h-1.423c-.22 0-.39-.065-.491-.187-.087-.105-.12-.248-.092-.402.103-.553.373-1.357.379-1.376.115-.38.357-.557.764-.557h.17c1.063 0 1.417-.362 1.866-.821l.269-.269 1.089-1.153c.31-.318.677-.472 1.122-.472h7.612l.01-.002.011.002h8.044c.725 0 1.002.186 1.367.492l1.393 1.256.114.095c.197.167.401.339.813.423.654.121 2.406.447 2.652.506.332.081.549.33.616.539.103.317.292 1.127.292 1.127.044.208.004.396-.115.543-.13.161-.336.253-.565.253h-1.902c-.266-.808-1.018-1.397-1.913-1.397-.896 0-1.649.589-1.915 1.397h-14.349c-.207 0-.375.168-.375.375s.168.375.375.375h14.252c.065 1.058.938 1.9 2.011 1.9 1.073 0 1.945-.843 2.01-1.9h1.806c.456 0 .875-.193 1.148-.531.264-.319.358-.735.266-1.174zm-25.396.313c.702 0 1.274.571 1.274 1.273s-.571 1.274-1.274 1.274c-.702 0-1.273-.571-1.273-1.274 0-.702.571-1.273 1.273-1.273zm20.167 2.547c-.703 0-1.274-.571-1.274-1.274 0-.702.571-1.273 1.274-1.273.702 0 1.273.571 1.273 1.273s-.572 1.274-1.273 1.274z" fill="#0568ae"/></svg>