<svg xmlns="http://www.w3.org/2000/svg" viewBox="0 0 36 36" enable-background="new 0 0 36 36"><path d="M32.93 20.637c0 .326-.128.625-.37.864-.751.744-2.485.875-4.315.875l-.392-.001-.302-.002-15.905-.001c-1.908 0-3.168-.865-3.949-1.517-.159-.132-.181-.368-.048-.528.132-.16.368-.18.528-.048.751.625 1.823 1.342 3.469 1.342l16.214.003c.954.007 3.48.03 4.172-.656.101-.1.148-.206.148-.332 0-.594-.577-.91-2.471-1.354-.952-.173-1.557-1.056-1.582-1.093-.668-.9-2.155-.895-3.589-.889l-.344.001h-9.763c-1.696-.01-2.912.001-4.414-1.283-.371-.318-1.152-1.075-1.979-1.876-.523-.507-1.052-1.019-1.471-1.414-.297-.281-.409-.33-.745-.33h-1.452c-.146 0-.261.059-.323.165-.072.124-.061.296.031.459.123.22.594.958 1.26 1.973.296.453.346.935.135 1.325-.194.358-.58.572-1.033.572-.197 0-.454.042-.565.239-.089.158-.069.384.049.577l.302.471.049.072c.248.37.48.384 1.34.381h3.289c.207 0 .375.168.375.375s-.168.375-.375.375h-3.286c-.894.005-1.484.006-1.966-.713l-.048-.072-.319-.498c-.261-.427-.286-.938-.063-1.335.13-.232.461-.622 1.219-.622.176 0 .313-.066.374-.179.075-.139.037-.342-.103-.556-.324-.494-1.098-1.679-1.287-2.017-.223-.399-.232-.849-.023-1.205.197-.335.559-.536.97-.536h1.453c.589 0 .875.173 1.259.534.422.397.953.912 1.479 1.422.782.758 1.591 1.542 1.945 1.845 1.292 1.104 2.288 1.105 3.926 1.103l10.104-.001c1.55-.005 3.301-.013 4.205 1.206.013.019.466.673 1.122.793 1.743.407 3.065.818 3.065 2.086z" fill="#0568ae"/></svg>