<svg xmlns="http://www.w3.org/2000/svg" viewBox="0 0 36 36" enable-background="new 0 0 36 36"><path d="M33.282 15.138c0 1.594-4.043 1.428-5.254 1.428h-7.968l-8.733-.001c-1.923 0-3.177-.854-3.894-1.5-.241-.217-.803-.983-1.268-1.64h-.937c-1.052 0-1.547.054-1.967-.574-.163-.243-.201-.297-.376-.584-.363-.593-.16-1.456.877-1.456.701 0 1.095-.648.614-1.382-.542-.824-1.175-1.802-1.338-2.093-.34-.606.008-1.242.65-1.242h1.526c.481 0 .688.11 1.052.453 1.12 1.055 2.98 2.904 3.609 3.443 1.499 1.281 2.687 1.253 4.495 1.253h10.135c1.706 0 3.563-.098 4.456 1.106 0 0 .556.827 1.424.985 1.884.441 2.897.816 2.897 1.804zm-27.924 12.755c0 .978.793 1.77 1.77 1.77.978 0 1.771-.793 1.771-1.77 0-.978-.793-1.771-1.771-1.771-.978 0-1.77.793-1.77 1.771zm23.159-1.771c.978 0 1.77.793 1.77 1.771 0 .978-.792 1.77-1.77 1.77-.979 0-1.771-.793-1.771-1.77 0-.978.792-1.771 1.771-1.771zm5.227 1.249c-.268.331-.679.52-1.129.52h-1.328c-.001-1.527-1.243-2.769-2.77-2.769s-2.77 1.242-2.771 2.769h-15.847c-.001-1.527-1.244-2.769-2.771-2.769s-2.769 1.242-2.77 2.769h-1.086c-.436 0-.807-.157-1.044-.443-.221-.266-.309-.624-.241-.984.12-.64.414-1.52.427-1.557.206-.685.726-1.067 1.459-1.067h.182c.859 0 1.068-.213 1.525-.679l.289-.289 1.165-1.234c.462-.474 1.029-.712 1.688-.712h16.839c.915 0 1.36.233 1.906.691l1.616 1.448c.186.158.299.253.565.307.099.018 2.543.47 2.881.552.535.13.983.533 1.142 1.026.118.366.321 1.235.33 1.272.091.426-.001.833-.257 1.149z" fill="#0568ae"/></svg>