<svg xmlns="http://www.w3.org/2000/svg" viewBox="0 0 36 36" enable-background="new 0 0 36 36"><path d="M33.034 26.263c-.008-.035-.198-.849-.31-1.195-.162-.499-.613-.907-1.153-1.038-.317-.077-2.596-.498-2.686-.515-.217-.044-.301-.116-.47-.259l-1.496-1.34-.006-.004-.004-.004c-.519-.436-.968-.673-1.855-.673h-8.045l-.01.002-.011-.002h-7.611c-.649 0-1.207.235-1.663.702l-1.081 1.145-.272.271c-.412.421-.583.596-1.331.596h-.17c-.742 0-1.269.387-1.478 1.079-.011.035-.288.861-.401 1.466-.07.372.022.743.251 1.019.245.296.625.458 1.069.458h1.327c.065 1.058.938 1.9 2.011 1.9 1.116 0 2.023-.908 2.023-2.023 0-1.116-.908-2.024-2.023-2.024-.895 0-1.648.589-1.914 1.397h-1.424c-.22 0-.39-.064-.492-.187-.087-.106-.119-.248-.091-.401.104-.553.373-1.358.379-1.376.115-.38.358-.557.764-.557h.17c1.063 0 1.418-.362 1.867-.821l.268-.269 1.09-1.153c.309-.317.676-.472 1.121-.472h7.612l.009-.002.011.002h8.045c.671 0 .954.145 1.368.493l1.393 1.255.115.096c.197.167.4.339.812.422.654.121 2.406.447 2.652.507.332.081.548.329.617.54.102.317.291 1.126.291 1.126.045.208.005.396-.115.543-.128.159-.339.253-.565.253h-1.902c-.265-.808-1.018-1.397-1.913-1.397-.896 0-1.649.589-1.915 1.397h-14.35c-.207 0-.375.168-.375.375s.168.375.375.375h14.252c.066 1.058.938 1.9 2.012 1.9 1.073 0 1.945-.843 2.011-1.9h1.805c.457 0 .875-.193 1.148-.531.262-.323.357-.739.264-1.176zm-25.395.311c.702 0 1.273.571 1.273 1.274 0 .703-.571 1.273-1.273 1.273s-1.273-.571-1.273-1.273c0-.703.571-1.274 1.273-1.274zm20.166 2.547c-.702 0-1.274-.571-1.274-1.273s.572-1.274 1.274-1.274c.702 0 1.273.571 1.273 1.274 0 .702-.571 1.273-1.273 1.273zm4.986-13.898c0 .326-.128.625-.37.864-.75.744-2.485.875-4.316.875l-.392-.001-.302-.002-15.905-.001c-1.908 0-3.168-.865-3.949-1.516-.159-.132-.181-.368-.048-.528.131-.159.368-.18.528-.048.75.625 1.823 1.342 3.469 1.342l16.214.003c.954.007 3.48.031 4.173-.656.101-.1.148-.206.148-.332 0-.594-.577-.91-2.47-1.354-.952-.173-1.557-1.056-1.582-1.094-.668-.9-2.152-.895-3.589-.888l-.344.001h-9.763c-1.702-.008-2.912.001-4.414-1.283-.371-.318-1.152-1.075-1.978-1.876-.524-.507-1.052-1.019-1.471-1.414-.298-.281-.409-.33-.745-.33h-1.453c-.146 0-.261.059-.323.164-.073.125-.061.296.031.46.124.22.594.958 1.26 1.973.296.452.346.935.135 1.324-.194.358-.58.573-1.033.573-.196 0-.454.042-.565.239-.088.158-.069.384.049.577l.302.47.049.073c.248.37.48.382 1.34.381l3.29-.001c.207 0 .375.168.375.375s-.168.375-.375.375l-3.286.001c-.894.005-1.484.006-1.966-.713l-.048-.072-.319-.497c-.261-.427-.286-.939-.063-1.335.13-.232.461-.622 1.218-.622.176 0 .313-.066.374-.179.075-.139.037-.342-.103-.556-.326-.496-1.1-1.681-1.289-2.019-.223-.399-.232-.849-.023-1.206.197-.335.559-.536.97-.536h1.453c.589 0 .876.173 1.259.534.421.398.953.913 1.478 1.422.782.758 1.591 1.542 1.945 1.844 1.292 1.104 2.285 1.095 3.926 1.103l10.104-.001c1.546-.007 3.301-.013 4.205 1.205.013.019.466.673 1.122.793 1.745.41 3.067.821 3.067 2.089z" fill="#0568ae"/></svg>