<svg xmlns="http://www.w3.org/2000/svg" viewBox="0 0 36 36" enable-background="new 0 0 36 36"><path d="M27.444 26.169c0 1.127-.914 2.041-2.041 2.041-1.128 0-2.041-.914-2.041-2.041 0-1.128.914-2.042 2.041-2.042 1.128 0 2.041.914 2.041 2.042zm-16.634-2.042c-1.128 0-2.042.914-2.042 2.042 0 1.127.913 2.041 2.042 2.041 1.127 0 2.041-.914 2.041-2.041 0-1.128-.914-2.042-2.041-2.042zm18.948-2.087l-.134.014h-15.333c-1.07 0-1.94-.87-1.94-1.94v-5.219h-1.641c-.608 0-1.416.34-1.84.773l-2.66 2.718c-.423.432-.754 1.244-.754 1.849v4.487c0 .793.646 1.439 1.439 1.439h.873c.005-1.673 1.367-3.033 3.041-3.033s3.036 1.36 3.041 3.033h8.512c.005-1.673 1.367-3.033 3.041-3.033 1.67 0 3.029 1.353 3.04 3.021.352-.029.656-.158.879-.389.447-.462.438-1.134.436-1.196v-2.524zm-.134-8.716c.518 0 .94.422.94.94v5.85c0 .518-.422.94-.94.94h-15.333c-.518 0-.94-.422-.94-.94v-5.85c0-.518.422-.94.94-.94h15.333z" fill="#0568ae"/></svg>