<svg xmlns="http://www.w3.org/2000/svg" viewBox="0 0 36 36" enable-background="new 0 0 36 36"><path d="M15.917 20.312v-2.685l12.684-6.784c.761-.416 1.382-.156 1.659.285.295.47.251 1.227-.413 1.703l-.483.389v2.951c0 .66-.434 1.088-.863 1.219-.151.046-.257.192-.257.353 0 .205.166.371.371.371.115 0 .221-.052.292-.142.255-.326.727-.384 1.053-.128.326.255.383.727.128 1.053-.357.455-.894.716-1.472.716-1.031 0-1.871-.84-1.871-1.871 0-.756.442-1.421 1.121-1.715v-1.6l-7.638 6.158h-4.048c-.002.003-.263.024-.263-.273zm9.535 3.815c-1.128 0-2.042.914-2.042 2.042 0 1.127.913 2.041 2.042 2.041 1.127 0 2.041-.914 2.041-2.041 0-1.127-.913-2.042-2.041-2.042zm-14.594 0c-1.128 0-2.041.914-2.041 2.042 0 1.127.913 2.041 2.041 2.041 1.127 0 2.041-.914 2.041-2.041.001-1.127-.913-2.042-2.041-2.042zm18.182-2.539h-13.123c-.551 0-1-.448-1-.998v-5.169c0-.802-.653-1.455-1.455-1.455h-1.792c-.703 0-1.64.394-2.134.897l-3.155 3.225c-.49.501-.874 1.443-.874 2.144l-.001 4.49c0 .793.645 1.439 1.439 1.439h.873c.005-1.673 1.367-3.033 3.041-3.033s3.036 1.36 3.04 3.033h8.512c.005-1.673 1.367-3.033 3.041-3.033s3.036 1.36 3.041 3.033h.547c.802 0 1.455-.653 1.455-1.455v-1.662c0-.803-.653-1.456-1.455-1.456z" fill="#0568ae"/></svg>