<svg xmlns="http://www.w3.org/2000/svg" viewBox="0 0 36 36">
  <path fill="#0568ae" d="M30 10.6l-1.1.7c-.2.1-.4.1-.5-.1 0 0-.2-.3-.4-.5-3.7-5.3-11-6.8-16.6-3.3-2.8 1.7-4.8 4.4-5.5 7.6h1.5c.3 0 .4.2.2.4l-2.5 3.5-.1.1c-.1.2-.3.2-.5 0l-.9-1.3L2 15.4c-.2-.2-.1-.4.2-.4h1.6c.8-3.9 3.1-7.2 6.6-9.3 6.5-4 15.1-2.3 19.4 3.9.2.3.3.5.3.5.1.1.1.4-.1.5zM6 25.4l1.1-.7c.2-.1.4-.1.5.1 0 0 .2.3.4.5 3.8 5.2 11.1 6.7 16.7 3.2 2.8-1.7 4.8-4.5 5.6-7.6h-1.5c-.3 0-.4-.2-.2-.4l2.5-3.5H31c.1-.2.3-.2.5 0l.9 1.3 1.7 2.3c.2.2.1.4-.2.4h-1.6c-.8 3.9-3.1 7.2-6.6 9.3-6.5 4-15.1 2.3-19.4-3.9-.2-.3-.3-.5-.3-.5-.2-.1-.2-.4 0-.5zm11.3 1.3v-2c-.8 0-1.5-.2-2.2-.4-.7-.2-1.3-.5-1.8-.8l.5-1.6c1.1.6 2.3.9 3.5 1v-4.4c-1.5-.4-2.5-.9-3-1.5-.6-.6-.8-1.3-.8-2.3 0-1 .3-1.8 1-2.5s1.6-1.1 2.8-1.2V9.3h1.6v1.8c1.2.1 2.3.4 3.3 1l-.5 1.6c-.9-.4-1.8-.7-2.8-.8V17c1.4.4 2.4.9 3 1.5.6.6.9 1.4.9 2.4s-.3 1.9-1 2.6c-.7.7-1.6 1.1-2.8 1.3v2h-1.7zm-1.9-12c0 .5.1.8.4 1.1.3.3.8.5 1.5.7v-3.6c-1.2.2-1.9.8-1.9 1.8zm5.4 6.3c0-.5-.1-.8-.4-1.1-.3-.3-.8-.6-1.5-.8V23c1.3-.3 1.9-1 1.9-2z"/>
</svg>
