<svg xmlns="http://www.w3.org/2000/svg" viewBox="0 0 36 36">
  <path fill="#0568ae" d="M29.8 10.7c-4-6.5-12.6-8.5-19.1-4.5-3.7 2.3-6 6-6.5 10.3 0-.1-.1-.1-.1-.2l-1.7-3.7c-.1-.2-.3-.3-.5-.2-.2.1-.3.3-.2.5l1.7 3.7c.2.4.5.7.9.8h.3c.3 0 .6-.1.9-.3l3.1-2.6c.2-.1.2-.4.1-.5-.1-.2-.4-.2-.5-.1L5 16.5c.5-4 2.7-7.6 6.1-9.7 6.2-3.8 14.3-1.9 18.1 4.3.1.2.3.2.5.1s.2-.3.1-.5zm4.4 12.4l-1.7-3.7c-.2-.4-.5-.7-.9-.8-.4-.1-.8 0-1.2.3l-3.1 2.6c-.2.1-.2.4-.1.5.1.2.4.2.5.1l3.1-2.6c-.5 4-2.7 7.6-6.1 9.7-3 1.8-6.5 2.4-9.9 1.6-3.4-.8-6.3-2.9-8.2-5.9-.1-.2-.3-.2-.5-.1s-.2.3-.1.5c2 3.2 5 5.4 8.6 6.2 1.1.3 2.1.4 3.2.4 2.5 0 5.1-.7 7.3-2.1 3.6-2.2 6-6.1 6.5-10.3 0 .1.1.1.1.2l1.7 3.7c.1.1.2.2.3.2h.2c.3-.1.4-.3.3-.5zm-16.5 3.2v-1.9c-.7 0-1.3-.1-2-.3-.7-.2-1.3-.5-1.8-.8l.3-.8c1.1.7 2.3 1 3.5 1V18c-.9-.2-1.6-.5-2.1-.8-.5-.3-.9-.6-1.1-1-.2-.4-.4-.9-.4-1.5s.2-1.2.5-1.6c.3-.5.7-.9 1.3-1.1.5-.3 1.2-.4 1.8-.5V9.7h.8v1.7c1.1 0 2.2.4 3.2 1l-.3.8c-1-.5-2-.8-2.9-.9v5.1c1.3.4 2.3.8 2.9 1.3.6.5.8 1.3.8 2.2 0 .7-.2 1.2-.5 1.7s-.7.9-1.3 1.2c-.6.3-1.2.5-2 .5v1.9h-.7zM15 14.6c0 .7.2 1.2.6 1.5.4.4 1.1.7 2.1 1v-4.9c-.8.1-1.5.3-2 .7-.5.5-.7 1-.7 1.7zm6.3 6.3c0-.7-.2-1.2-.6-1.6-.4-.4-1.1-.7-2.2-1v5.3c.9-.1 1.6-.4 2.1-.8.4-.6.7-1.2.7-1.9z"/>
</svg>
