<svg xmlns="http://www.w3.org/2000/svg" viewBox="0 0 36 36">
  <path fill="#0568ae" d="M19.9 24.1v-.9c-.3 0-.7-.1-1-.2-.3-.1-.6-.2-.8-.4l.2-.5c.5.3 1.1.5 1.6.5v-2.4c-.6-.2-1-.4-1.3-.6-.2-.2-.4-.6-.4-1s.2-.8.5-1.1c.3-.3.7-.5 1.2-.5v-.8h.6v.8c.5 0 1 .2 1.5.5l-.2.5c-.4-.2-.9-.4-1.3-.4v2.2c.6.2 1.1.4 1.4.7.3.3.4.6.4 1 0 .5-.2.9-.5 1.2-.3.3-.7.5-1.3.6v.9h-.6zm-1-5.6c0 .3.1.5.2.6s.4.3.8.4v-2c-.3 0-.6.1-.8.3-.1.2-.2.4-.2.7zm2.7 2.9c0-.3-.1-.5-.2-.7-.2-.2-.4-.3-.9-.4v2.2c.4-.1.6-.2.8-.4.2-.1.3-.3.3-.7zm.1 11c-.2 0-.4 0-.6-.1-.7-.2-1.1-.6-1.2-.6l-.7-.7L4 15.8c-.3-.3-.5-.8-.5-1.1V4.5c.1-.5.5-.9 1-.9h10.2c.4 0 .9.2 1.1.5l15.6 15.6c2.1 2.1.4 3.9.4 3.9l-.8.7-7.1 7.1c-.8.8-1.6 1-2.2 1zM4.5 4.3c-.1 0-.1.1-.1.1v10.2c0 .2.1.5.3.6l15.9 15.9c.1.1 1.3 1.2 2.9-.4l7.9-7.9c.1-.1 1.2-1.3-.4-2.9-2-1.6-15.7-15.3-15.7-15.3-.1-.1-.4-.3-.6-.3H4.5zM20 26.1c-1.4 0-2.8-.6-3.9-1.7-.1-.1-.1-.4 0-.5.1-.1.4-.1.5 0 1 1 2.2 1.5 3.4 1.5 2.9 0 5.2-2.3 5.3-5.1 0-1.4-.5-2.9-1.6-4-1-1-2.2-1.5-3.4-1.5-2.9 0-5.2 2.3-5.3 5.1 0 .2-.2.4-.4.4s-.4-.2-.4-.4c.1-3.3 2.7-5.8 6-5.9 1.4 0 2.9.6 4 1.7 1.2 1.2 1.8 2.8 1.8 4.5 0 3.3-2.7 5.9-6 5.9zM9.6 12.6c-.8 0-1.5-.3-2.1-.9-1.2-1.2-1.2-3.1 0-4.3 1.2-1.2 3.1-1.2 4.3 0 1.2 1.2 1.2 3.1 0 4.3-.7.6-1.5.9-2.2.9zm0-5.3c-.6 0-1.2.2-1.6.7-.9.9-.9 2.3 0 3.2.9.9 2.3.9 3.2 0 .9-.9.9-2.3 0-3.2-.5-.5-1.1-.7-1.6-.7z"/>
</svg>
