<svg xmlns="http://www.w3.org/2000/svg" viewBox="0 0 36 36">
  <path fill="#0568ae" d="M22.4 20.9c-.1-.2-.3-.4-.6-.6-.3-.2-.6-.3-1.1-.4v-1.5c.4 0 .8.1 1.3.4l.3-1c-.2-.1-.5-.2-.7-.3-.3-.1-.5-.1-.8-.2v-.9H20v.9c-.6.1-1 .3-1.4.6-.4.3-.6.7-.6 1.1 0 .3.1.6.2.8.1.2.3.4.6.6.3.2.6.3 1.1.4v1.6c-.6 0-1.1-.2-1.6-.4l-.3 1c.2.2.5.3.9.4.3.1.7.2 1.1.2v.9h.8v-.9c.6-.1 1-.3 1.4-.6.3-.3.5-.7.5-1.2-.2-.4-.2-.7-.3-.9zm-2.5-1.3c-.2-.1-.4-.2-.5-.3-.1-.1-.1-.2-.1-.4 0-.3.2-.5.7-.6v1.3zm.8 2.8v-1.3c.2.1.4.2.5.3.1.1.1.2.1.4 0 .3-.2.5-.6.6zm10.6-2.2C29.5 18.3 15.8 4.6 15.8 4.6c-.2-.2-.6-.4-.9-.4H4.7c-.3 0-.5.2-.5.5V15c0 .3.2.7.4.9l15.2 15.2.7.7s1.5 1.5 3.4-.4l7.1-7.1.7-.7s1.5-1.5-.4-3.4zm-19.7-8.4c-1 1-2.7 1-3.7 0s-1-2.7 0-3.7 2.7-1 3.7 0c1.1.9 1.1 2.6 0 3.7zm8.6 14.3c-3.1 0-5.7-2.5-5.7-5.7 0-3.1 2.5-5.7 5.7-5.7 3.1 0 5.7 2.5 5.7 5.7 0 3.1-2.6 5.7-5.7 5.7z"/>
</svg>
