<svg xmlns="http://www.w3.org/2000/svg" viewBox="0 0 36 36" enable-background="new 0 0 36 36"><path d="M29.987 8.735h-23.81c-.99 0-1.8.81-1.8 1.8v14.845c0 .99.81 1.8 1.8 1.8h23.81c.99 0 1.8-.81 1.8-1.8v-14.845c0-.99-.81-1.8-1.8-1.8zm-16.366 15.288h-6.517c-.414 0-.75-.336-.75-.75s.336-.75.75-.75h6.517c.414 0 .75.336.75.75s-.336.75-.75.75zm8.269-3.404h-14.874c-.414 0-.75-.336-.75-.75s.336-.75.75-.75h14.874c.414 0 .75.336.75.75s-.335.75-.75.75zm7.242 3.404h-2.858c-.414 0-.75-.336-.75-.75s.336-.75.75-.75h2.858c.414 0 .75.336.75.75s-.336.75-.75.75zm.75-9.371c0 .198-.162.36-.36.36h-22.896c-.198 0-.36-.162-.36-.36v-2.749c0-.198.162-.36.36-.36h22.896c.198 0 .36.162.36.36v2.749z" fill="#0568ae"/></svg>