<svg xmlns="http://www.w3.org/2000/svg" viewBox="0 0 36 36" enable-background="new 0 0 36 36"><path d="M30.313 8.36h-24.516c-1.005 0-1.822.817-1.822 1.822v1.354l-.001.007v3.469l.001.005-.001 9.258c0 .207.168.375.375.375s.375-.168.375-.375l.001-8.888h26.659v10.345c0 .248-.081.479-.235.671-.203.255-.508.402-.836.402h-24.694c-.207 0-.375.168-.375.375s.168.375.375.375h24.694c.558 0 1.077-.25 1.422-.684.257-.321.399-.725.399-1.14v-15.549c0-1.004-.817-1.822-1.821-1.822zm-24.516.75h24.516c.59 0 1.071.481 1.071 1.072v.985h-26.659v-.985c0-.591.481-1.072 1.072-1.072zm-1.072 5.527v-2.719h26.659v2.719h-26.659zm17.137 5.607h-14.874c-.207 0-.375-.168-.375-.375s.168-.375.375-.375h14.875c.207 0 .375.168.375.375-.001.207-.169.375-.376.375zm-8.269 2.764h-6.517c-.207 0-.375-.168-.375-.375s.168-.375.375-.375h6.517c.207 0 .375.168.375.375s-.168.375-.375.375zm15.511 0h-2.858c-.207 0-.375-.168-.375-.375s.168-.375.375-.375h2.858c.207 0 .375.168.375.375s-.168.375-.375.375z" fill="#0568ae"/></svg>