<svg xmlns="http://www.w3.org/2000/svg" viewBox="0 0 36 36" enable-background="new 0 0 36 36"><path d="M31.512 10.892c-.347-.24-.811-.279-1.283-.102l-6.469 2.615.004-1.827 5.528-2.189c.581-.229 1.24-.703 1.315-1.202.082-.538-.535-1.052-1.186-1.282l-8.509-3.002c-2.246-.809-2.607-.885-4.534-.213l-9.108 3.655c-.584.199-.986.7-1.024 1.276-.038.573.297 1.093.929 1.406l4.792 1.863c-.518.25-.934.785-1.078 1.355l-5.13-1.997c-.46-.18-.924-.147-1.271.09-.341.233-.536.642-.536 1.122v14.363c0 .91.673 1.888 1.535 2.227l8.67 3.336c.382.146.767.116 1.059-.084.292-.2.459-.549.459-.958v-4.75l2.788-1.122-.002 5.996c0 .483.196.888.537 1.111.185.121.402.182.633.182.203 0 .417-.047.63-.14l10.29-4.529c.84-.368 1.499-1.365 1.499-2.27v-13.805c-.001-.479-.197-.889-.538-1.125zm-8.502 2.817l-.972.393c-.634.237-1.704.233-2.335-.008l-5.699-2.215 8.529-3.389.206-.044.152.041c.083.056.13.178.129.335l-.01 4.887zm-16.016-5.038c.018-.269.226-.516.537-.623l9.111-3.655c1.669-.582 1.819-.574 4.019.217l8.511 3.003c.442.156.676.414.696.455-.033.111-.362.431-.851.624l-5.25 2.079.004-1.948c0-.41-.166-.759-.458-.957-.291-.198-.675-.226-1.057-.074l-9.279 3.687-5.499-2.136c-.33-.165-.502-.403-.484-.672zm5.352 3.866l.634-.252 6.452 2.509c.803.307 2.063.313 2.877.007l.699-.283-.015 7.498c-.001.441-.36.971-.769 1.136l-3.012 1.212.002-6.251c0-.91-.674-1.886-1.535-2.222l-6.087-2.37c.067-.404.39-.839.754-.984zm2.578 18.807c0 .16-.047.28-.133.339-.086.06-.216.06-.365.002l-8.668-3.335c-.573-.225-1.057-.924-1.057-1.527v-14.362c0-.232.075-.41.21-.502.141-.096.345-.1.576-.01l5.342 2.08v12.881c0 .41.167.758.459.956.166.112.362.168.57.168.158 0 .323-.033.488-.099l2.578-1.037v4.446zm-2.858-4.106c-.145.059-.275.06-.358.005-.082-.056-.129-.177-.129-.334v-12.589l5.829 2.269c.573.224 1.057.921 1.057 1.523l-.002 6.553-6.397 2.573zm19.233-1.415c0 .609-.48 1.333-1.05 1.583l-10.291 4.529c-.219.096-.42.102-.551.017-.127-.083-.197-.254-.197-.483l.002-6.298 3.292-1.324c.693-.279 1.237-1.083 1.239-1.83l.016-7.803 6.743-2.726c.232-.087.439-.08.583.02.138.095.213.276.213.509v13.806z" fill="#0568ae"/></svg>