<svg xmlns="http://www.w3.org/2000/svg" viewBox="0 0 36 36" enable-background="new 0 0 36 36"><path d="M31.903 10.43c-.518-.359-1.191-.424-1.874-.168l-5.607 2.267.002-.993c.001-.244.15-.464.377-.554l3.642-1.442c.709-.281 1.582-.892 1.703-1.689.141-.924-.707-1.65-1.609-1.959l-7.378-2.526c-2.398-.862-2.878-.938-4.978-.205l-9.107 3.655c-.807.287-1.363.997-1.417 1.815-.056.833.409 1.578 1.242 1.994l3.91 1.522c-.258.336-.443.727-.523 1.134l-4.266-1.66c-.657-.256-1.331-.199-1.851.156-.514.351-.809.948-.809 1.638v13.462c0 1.169.83 2.376 1.936 2.81l8.67 3.336c.577.222 1.173.167 1.637-.152.464-.319.73-.856.73-1.473v-3.924c0-.244.148-.463.374-.554l1.163-.468-.002 5.071c0 .698.299 1.294.82 1.634.289.189.623.284.974.284.288 0 .588-.064.883-.194l10.289-4.529c1.068-.467 1.874-1.689 1.874-2.842v-13.807c0-.687-.293-1.284-.805-1.639zm-9.541 2.932l-.43.174c-.549.222-1.451.228-2.004.013l-2.771-1.078c-.505-.197-.508-.911-.005-1.111l4.456-1.775c.393-.156.819.133.818.556l-.006 3.134-.058.087zm-14.702-4.605l.089-.059 9.133-3.663c1.525-.532 1.524-.532 3.614.219l5.622 1.925c.525.18.542.916.026 1.12l-1.716.679v-.102c.001-.503-.177-.959-.5-1.282-.467-.468-1.195-.598-1.871-.33l-8.831 3.509c-.14.056-.296.056-.437.002l-5.03-1.957-.099-.061zm4.578 4.962c0-.184.202-.482.373-.55l.408-.163 6.224 2.422c.694.266 1.645.336 2.485.211.363-.054.687.219.686.586l-.011 5.438c-.001.445-.339.944-.752 1.11l-.959.386c-.393.158-.82-.131-.82-.554l.002-3.541c0-1.169-.831-2.374-1.933-2.804l-5.703-2.22v-.321zm2.095 16.431c0 .419-.42.708-.812.557l-7.501-2.886c-.327-.128-.66-.605-.66-.945v-12.494c0-.42.422-.709.814-.556l3.683 1.434c.229.089.381.31.381.556v11.144c0 .997.711 1.749 1.654 1.75.24 0 .482-.049.721-.145l.9-.362c.392-.158.82.131.82.554v1.393zm-2.095-4.474v-8.616c0-.42.422-.709.814-.556l4.163 1.621c.327.128.659.602.659.94l-.002 4.827c0 .244-.148.463-.374.554l-4.44 1.786c-.392.156-.82-.133-.82-.556zm18.47.199c0 .354-.341.863-.677 1.01l-9.323 4.104c-.395.174-.838-.115-.838-.547l.002-4.394c0-.244.148-.463.374-.554l2.152-.866c1.1-.443 2.003-1.775 2.005-2.962l.013-6.577c0-.243.148-.461.373-.552l5.097-2.061c.393-.159.821.13.821.554v12.845z" fill="#0568ae"/></svg>