<svg xmlns="http://www.w3.org/2000/svg" viewBox="0 0 36 36">
  <path fill="#0568ae" d="M11.2 23.9v-1.4c-.5 0-1-.1-1.5-.2s-.9-.3-1.3-.6l.2-.5c.8.5 1.7.7 2.5.7v-4c-.6-.2-1.1-.3-1.5-.5-.4-.2-.6-.4-.8-.7-.2-.3-.3-.7-.3-1.1 0-.4.1-.8.3-1.2.2-.3.5-.6.9-.8.4-.2.8-.3 1.3-.3V12h.6v1.2c.8 0 1.6.3 2.3.7l-.2.5c-.7-.4-1.4-.6-2.1-.6v3.7c1 .3 1.6.6 2.1 1 .4.4.6.9.6 1.6 0 .5-.1.9-.3 1.3-.2.4-.5.7-.9.9-.4.2-.9.4-1.4.4v1.4h-.5zm-1.9-8.4c0 .5.1.8.4 1.1.3.3.8.5 1.5.7v-3.5c-.6 0-1.1.2-1.4.5-.4.3-.5.7-.5 1.2zm4.5 4.5c0-.5-.1-.9-.4-1.2-.3-.3-.8-.5-1.6-.7v3.8c.6-.1 1.1-.3 1.5-.6.3-.3.5-.7.5-1.3zM30.3 8.4H5.7c-1 0-1.8.8-1.8 1.8v14.2c0 .2.2.4.4.4s.4-.2.4-.4V10.2c0-.6.5-1.1 1.1-1.1h10.9l5.6 5.6c-.5-.2-1-.3-1.4-.3-1 0-1.6.7-1.6 1.8 0 .6.2 1 .4 1.3.3.3.6.4 1.1.4.8 0 1.7-.4 2.4-.8-.4.9-.8 2-.7 2.7.1.5.4 1.3 1.8 1.3.8 0 1.3-.3 1.6-.8.3-.6.2-1.5-.2-2.3l5.7 5.7v1.9c0 .6-.5 1.1-1.1 1.1H5.7c-.2 0-.4.2-.4.4s.2.4.4.4h24.5c1 0 1.8-.8 1.8-1.8V10.2c.1-1-.7-1.8-1.7-1.8zm-9.6 8.8c-.3 0-.5-.1-.6-.2-.2-.2-.2-.4-.2-.8 0-.9.4-1.1.9-1.1.8 0 2 .6 2.8 1-.8.4-2 1.1-2.9 1.1zm2.5-5c0-.1.2-.4.9-.4.8 0 .9.3 1 .4.4.7-.3 2.2-.9 3.2-.6-1-1.3-2.5-1-3.2zm1.9 7.9c0 .1-.2.4-.9.4-.8 0-.9-.3-1-.4-.4-.7.3-2.2.9-3.2.7 1 1.4 2.5 1 3.2zm-.2-3.9c.7-.4 1.9-1.1 2.8-1.1.4 0 .8.1.8 1s-.4 1.1-.9 1.1c-.9 0-2.1-.6-2.7-1zm6.4 6.6l-5.2-5.2c.5.2 1.1.3 1.5.3 1 0 1.6-.7 1.6-1.8s-.6-1.8-1.6-1.8c-.8 0-1.7.4-2.4.8.4-.8.7-1.8.7-2.4 0-.5-.1-.9-.4-1.2-.3-.3-.8-.5-1.4-.5-.8 0-1.3.3-1.6.8-.3.6-.2 1.5.2 2.3L17.6 9h12.6c.6 0 1.1.5 1.1 1.1v12.7z"/>
</svg>
