<svg xmlns="http://www.w3.org/2000/svg" viewBox="0 0 36 36">
  <path fill="#0568ae" d="M21 15.1c.6 0 1.4.3 2.1.7-.7.4-1.6.7-2.1.7-.1 0-.3 0-.3-.1-.1-.1-.1-.3-.1-.6-.2-.7.1-.7.4-.7zm4.1-3.1c-.1-.2-.5-.2-.7-.2-.2 0-.5 0-.6.2-.2.4.1 1.4.7 2.4.5-1 .9-2 .6-2.4zm-2.6-.8c.2-.4.8-1 2-1 .7 0 1.3.2 1.7.6.4.4.5.8.5 1.5 0 .5-.1 1.1-.4 1.7.6-.2 1.2-.4 1.8-.4 1.2 0 2 .8 2 2.2 0 1.4-.8 2.2-2 2.2h-.3l4 4V10.5c0-1-.8-1.8-1.8-1.8H18.4l3.9 3.9c-.1-.5 0-1 .2-1.4zm6.1 4.6c0-.7-.2-.7-.5-.7-.6 0-1.4.3-2.1.7.7.3 1.5.7 2.1.7.2 0 .5 0 .5-.7zm-4.7 3.9c.1.2.5.2.7.2.2 0 .5 0 .6-.2.2-.4-.1-1.4-.7-2.4-.5.9-.9 2-.6 2.4zM9.5 15.8c0 .3.1.6.3.7.2.2.5.3 1 .5v-2.4c-.9.1-1.3.5-1.3 1.2zm2.3 2.8v2.6c.9-.2 1.3-.6 1.3-1.3 0-.3-.1-.6-.3-.7-.2-.2-.5-.4-1-.6zm14.9.5c.1.5 0 .9-.2 1.3-.2.5-.8 1-2 1-.7 0-1.3-.2-1.7-.6-.4-.4-.5-.8-.5-1.5 0-.5.1-1.1.4-1.7-.6.2-1.2.4-1.8.4-.7 0-1.2-.3-1.4-.5-.4-.4-.6-.9-.6-1.6 0-1.4.8-2.2 2-2.2h.3l-4.9-4.9H6.1c-1 0-1.8.8-1.8 1.8v14.8c0 1 .8 1.8 1.8 1.8h23.8c1 0 1.8-.8 1.8-1.8v-1.3l-5-5zm-13 2.5c-.5.5-1.1.7-1.9.8v1.3h-1v-1.3c-.5 0-1-.1-1.5-.2s-.9-.3-1.2-.5l.4-1.1c.7.4 1.5.6 2.3.7v-2.9c-1-.3-1.6-.6-2-1-.4-.4-.6-.9-.6-1.5 0-.7.2-1.2.7-1.7.5-.4 1.1-.7 1.9-.8v-1.2h1v1.2c.8.1 1.5.3 2.2.7l-.3 1.1c-.6-.3-1.2-.5-1.8-.5v2.7c.9.3 1.6.6 2 1 .4.4.6.9.6 1.6-.1.5-.3 1.1-.8 1.6z"/>
</svg>
