<svg xmlns="http://www.w3.org/2000/svg" viewBox="0 0 36 36" enable-background="new 0 0 36 36"><path d="M5.908 16.511v-4.38c0-.394.297-.713.666-.713h3.78c.774-1.383 3.901-2.418 7.646-2.418s6.872 1.035 7.646 2.418h3.782c.366 0 .663.32.663.713v4.38h-2.817c-.522-1.14-2.181-1.977-4.166-1.977-1.987 0-3.645.838-4.166 1.977h-2.051c-.521-1.14-2.181-1.977-4.166-1.977-1.985 0-3.644.838-4.166 1.977h-2.651zm25.337 1.5h-26.489c-.426 0-.77.319-.77.714v8.122c0 .552.448 1 1 1s1-.448 1-1v-1.637h24.028v1.637c0 .552.448 1 1 1s1-.448 1-1v-8.122c0-.395-.343-.714-.769-.714z" fill="#0568ae"/></svg>