<svg xmlns="http://www.w3.org/2000/svg" viewBox="0 0 36 36" enable-background="new 0 0 36 36"><path d="M16.987 16.323c-.15 0-.291-.09-.349-.238-.394-1.006-1.93-1.736-3.653-1.736-1.722 0-3.259.73-3.653 1.737-.076.193-.295.287-.486.212-.193-.076-.288-.293-.212-.486.511-1.303 2.3-2.213 4.352-2.213 2.052 0 3.842.91 4.352 2.213.076.193-.02.41-.212.486l-.139.025zm2.208-.239c.394-1.006 1.931-1.736 3.654-1.736 1.722 0 3.259.73 3.653 1.737.076.193.293.288.486.212.193-.076.288-.293.212-.486-.511-1.303-2.3-2.213-4.352-2.213-2.052 0-3.842.91-4.352 2.213-.076.193.019.41.212.486l.137.026c.151 0 .292-.091.35-.239zm11.271.424v-4.377c0-.6-.466-1.088-1.038-1.088h-3.576c-1.016-1.434-4.18-2.418-7.852-2.418-3.672 0-6.835.985-7.851 2.418h-3.575c-.574 0-1.041.488-1.041 1.088v4.377c0 .207.168.375.375.375s.375-.168.375-.375v-4.377c0-.187.13-.338.291-.338h3.78c.136 0 .261-.073.327-.192.604-1.079 3.375-2.226 7.318-2.226 3.944 0 6.715 1.147 7.319 2.226.066.118.191.192.327.192h3.782c.159 0 .288.152.288.338v4.377c0 .207.168.375.375.375.208 0 .376-.168.376-.375zm1.923 2.217v8.97c0 .207-.168.375-.375.375s-.375-.168-.375-.375v-2.11h-27.278v2.11c0 .207-.168.375-.375.375s-.375-.168-.375-.375v-8.97c0-.601.514-1.089 1.145-1.089h26.489c.631 0 1.144.489 1.144 1.089zm-.75 6.109v-6.109c0-.187-.177-.339-.394-.339h-26.489c-.218 0-.395.152-.395.339v6.109h27.278z" fill="#0568ae"/></svg>