<svg xmlns="http://www.w3.org/2000/svg" viewBox="0 0 36 36" enable-background="new 0 0 36 36"><path d="M18.792 31.578c-.096 0-.192-.037-.265-.11-.295-.294-.934-1.055-1.552-1.79-.531-.631-1.192-1.417-1.331-1.535-.324-.274-3.589-3.148-3.728-3.271-.318-.287-.39-.579-.396-.774-.012-.415.257-.699.287-.73.523-.615 1.399-.274 1.832.027.099.056 3.088 1.779 4.405 2.642.471.348 1.278.821 1.654.821l.078.008c-.021-.006.486-.065.919-1.605.014-.069.505-2.203 2.143-2.036.084.016.476.109.68.524.195.397.138.923-.169 1.565-.002.005-.52 1.175.003 2.278.034.075.739 1.68.54 3.315-.025.206-.211.354-.417.327-.205-.025-.352-.212-.327-.417.174-1.43-.471-2.896-.477-2.91-.672-1.418-.028-2.851-.001-2.911.273-.57.216-.823.179-.906-.034-.075-.092-.108-.121-.121l-.054-.002c-.92 0-1.249 1.46-1.253 1.475-.599 2.137-1.488 2.199-1.754 2.166-.772-.022-1.922-.859-2.052-.956-1.281-.838-4.347-2.606-4.378-2.624-.032-.02-.647-.425-.877-.153-.015.016-.095.107-.09.205.004.088.081.175.145.233.031.027 3.396 2.988 3.714 3.258.179.151.657.716 1.421 1.625.579.689 1.236 1.47 1.508 1.742.146.146.146.384 0 .53-.074.074-.17.11-.266.11zm-12.433-15.39c1.538-4.06 5.737-6.961 10.697-7.391.206-.018.359-.2.341-.406-.018-.206-.205-.359-.406-.341-5.245.455-9.693 3.545-11.333 7.873-.073.194.024.41.218.483l.133.024c.151.001.294-.092.35-.242zm24.966 6.172l.099-.009c.207 0 .375-.168.375-.375s-.168-.375-.375-.375l-.122.01h-25.648c-.461 0-.703-.432-.703-.858 0-.202.051-.859.703-.859h24.438c.507 0 .94-.173 1.218-.487.24-.27.347-.622.303-.991-.637-5.366-5.304-9.602-11.35-10.3-.429-.05-.429-.071-.426-.618v-.089c.003-.065.015-.647-.368-1.046-.216-.225-.516-.345-.866-.345h-1.544c-.207 0-.375.168-.375.375s.168.375.375.375h1.544c.144 0 .25.037.323.112.14.143.164.41.161.513v.099c-.003.552-.005 1.239 1.09 1.367 5.7.658 10.096 4.624 10.691 9.644.019.156-.023.296-.119.405-.134.151-.368.234-.657.234h-24.438c-.855 0-1.453.662-1.453 1.609 0 .917.624 1.608 1.453 1.608l25.671.001z" fill="#0568ae"/></svg>