<svg xmlns="http://www.w3.org/2000/svg" viewBox="0 0 36 36" enable-background="new 0 0 36 36"><path d="M31.579 22.449h-26.842c-.552 0-1-.448-1-1s.448-1 1-1h26.842c.552 0 1 .448 1 1s-.448 1-1 1zm-.104-4.032c-1.04-5.287-5.544-9.399-11.169-10.226v-.717c0-.594-.486-1.08-1.08-1.08h-1.989c-.594 0-1.08.486-1.08 1.08v.715c-5.63.825-10.139 4.938-11.179 10.228-.041.208.025.528.426.528h25.645c.401 0 .467-.32.426-.528zm-7.972 12.444c.166-1.552-.507-3.108-.507-3.108-.608-1.285-.002-2.601-.002-2.601.657-1.37-.21-1.553-.21-1.553-1.333-.133-1.745 1.764-1.745 1.764-.572 2.038-1.357 1.871-1.357 1.871-.67.001-1.86-.883-1.86-.883-1.323-.866-4.414-2.647-4.414-2.647s-.886-.617-1.35-.071c0 0-.458.465.089.959 0 0 3.398 2.991 3.723 3.265.325.275 2.369 2.743 2.906 3.347.929 1.043 4.449 2.26 4.727-.343z" fill="#0568ae"/></svg>