<svg xmlns="http://www.w3.org/2000/svg" viewBox="0 0 36 36">
  <path fill="#0568ae" d="M32.9 17.4L30.5 16c-.1-.1-.2-.1-.2-.2s0-.2.1-.3l1.7-2.1c.2-.2.2-.5.2-.7-.1-.2-.3-.4-.6-.4l-2.7-.5c-.1 0-.2-.1-.3-.2-.1-.1-.1-.2 0-.3l.9-2.6c.1-.2.1-.5 0-.6 0-.1-.2-.2-.6-.1l-2.7.5c-.1 0-.2 0-.3-.1-.1-.1-.1-.2-.1-.3V5.4c0-.6-.5-.9-1-.6l-2.4 1.4c-.2.1-.4 0-.5-.2l-.9-2.6c-.1-.5-.7-.6-1.1-.2l-1.7 2.1c-.1.2-.4.2-.5 0L16 3.2c-.4-.4-.9-.3-1.1.2l-1 2.6c-.1.2-.3.3-.5.2L11 4.8c-.1-.1-.3-.1-.4-.1-.4 0-.6.3-.6.7v2.7c0 .2-.2.4-.4.3L7 8c-.3-.1-.6 0-.7.2-.1.2-.1.4 0 .6l.9 2.6v.3c0 .1-.1.1-.3.2l-2.7.5c-.3 0-.5.2-.6.4-.1.2 0 .5.2.7l1.7 2.1c.1.1.1.2.1.3 0 .1-.1.2-.2.2L3 17.5c-.2.1-.4.4-.4.6s.1.4.4.6l2.4 1.4c.1.1.2.1.2.2s0 .2-.1.3l-1.7 2.1c-.2.2-.2.5-.2.7.1.2.3.4.6.4l2.7.5c.1 0 .2.1.3.2.1.1.1.2 0 .3l-.9 2.6c-.1.2-.1.5 0 .6.1 0 .3.1.7 0l2.7-.5c.2 0 .4.1.4.3v2.7c0 .6.5.9 1 .6l2.4-1.4c.2-.1.4 0 .5.2l.9 2.6c.2.5.8.6 1.1.2l1.7-2.1c.1-.2.4-.2.5 0l1.7 2.1c.2.2.3.3.5.3.3 0 .5-.2.6-.5l.9-2.6c.1-.2.3-.3.5-.2l2.4 1.4c.5.3 1 0 1-.6v-2.7c0-.2.2-.4.4-.3l2.8.5h.2c.2 0 .4-.1.5-.2.1-.2.1-.4 0-.6l-.9-2.6v-.3c0-.1.1-.1.3-.2l2.7-.5c.3 0 .5-.2.6-.4.1-.2 0-.5-.2-.7l-1.7-2.1c-.1-.1-.1-.2-.1-.3 0-.1.1-.2.2-.2l2.4-1.4c.2-.1.4-.4.4-.6s-.3-.3-.5-.5zm-19.1 4.2h-1.2l-2.5-3.9v3.9H8.8v-6.1H10l2.5 3.9v-3.9h1.3v6.1zm5.5 0h-4.1v-6.1h4v1.2h-2.6V18h2.1v1.2h-2.1v1.3h2.7v1.1zm6.9 0h-1.4l-.9-3.5-.9 3.5h-1.4L20 15.5h1.5l.8 4.2 1-3.7h1.1l1 3.7.8-4.2h1.4l-1.4 6.1z"/>
</svg>
