<svg xmlns="http://www.w3.org/2000/svg" viewBox="0 0 36 36">
  <path fill="#0568ae" d="M15.4 33.2h-.1c-.3 0-.5-.3-.6-.6l-.9-2.6c-.1-.2 0-.4.2-.5.2-.1.4 0 .5.2l.9 2.6v.1l1.7-2.1c.4-.5 1.1-.5 1.5 0l1.7 2.1v-.1l.9-2.6c.1-.3.3-.5.6-.6.3-.1.6-.1.8.1l2.4 1.4h.1V27.8c0-.3.1-.6.3-.8.2-.2.5-.3.8-.2l2.7.5h.1v-.1l-.9-2.6c-.1-.3-.1-.6.1-.8.1-.2.4-.4.7-.5l2.7-.5h.1v-.1L30 20.9c-.2-.2-.3-.5-.2-.8 0-.3.2-.5.5-.7l2.4-1.4h0l-2.4-1.4c-.3-.1-.4-.4-.5-.7 0-.3 0-.6.2-.8l1.7-2.1v-.1h-.1l-2.6-.4c-.3-.1-.5-.2-.7-.5-.1-.2-.2-.5-.1-.8l.9-2.6v-.1H29l-2.7.5c-.3.1-.6 0-.8-.2-.2-.2-.3-.5-.3-.8V5.3v-.1h-.1l-2.4 1.4c-.3.1-.6.2-.8.1-.3-.1-.5-.3-.6-.6l-.9-2.6v-.1l-1.7 2.1c-.4.5-1.1.5-1.5 0l-1.7-2.1v.1l-.9 2.6c-.1.3-.3.5-.6.6-.3.1-.6.1-.8-.1l-2.4-1.4h-.1V8c0 .3-.1.6-.3.8-.2.2-.5.3-.8.2l-2.7-.4h-.1v.1l.9 2.6c.1.3.1.6-.1.8-.1.2-.4.4-.7.5l-2.6.4h-.1v.1l1.8 2c.2.2.3.5.2.8 0 .3-.2.5-.5.7L3.4 18h-.1.1l2.4 1.4c.3.1.4.4.5.7 0 .3 0 .6-.2.8L4.3 23h.1l2.6.5c.3.1.5.2.7.5.1.2.2.5.1.8l-.9 2.6v.1H7l2.7-.5c.3-.1.6 0 .8.2.2.2.3.5.3.8v2.7c0 .2-.2.4-.4.4s-.4-.2-.4-.4V28c0-.1 0-.1-.1-.2 0 0-.1-.1-.2 0l-2.7.3c-.3.1-.6 0-.8-.2-.2-.2-.2-.5-.1-.8l.9-2.6v-.2c0-.1-.1-.1-.2-.1l-2.7-.5c-.3-.1-.6-.2-.7-.5-.1-.3 0-.5.2-.8l1.7-2.1c.1-.1.1-.1.1-.2s-.1-.1-.1-.2L3 18.7c-.3-.2-.4-.4-.4-.7 0-.3.2-.5.4-.7L5.4 16c.1 0 .1-.1.1-.2s0-.1-.1-.2l-1.7-2.1c-.2-.3-.3-.5-.2-.8.1-.3.3-.4.7-.5l2.7-.5c.1 0 .1-.1.2-.1v-.2l-1-2.5c-.1-.3-.1-.6.1-.8.2-.2.5-.3.8-.2l2.7.5h.2s.1-.1.1-.2V5.5c0-.3.1-.6.4-.7.2-.1.5-.1.8 0l2.4 1.4h.2c.1 0 .1-.1.1-.1l.9-2.6c.1-.3.3-.5.6-.6.3 0 .5.1.8.3l1.7 2.1c.1.1.2.1.4 0L20 3.2c.2-.2.5-.4.8-.3.3 0 .5.3.6.6l.9 2.6c0 .1.1.1.1.1h.2L25 4.8c.3-.2.6-.2.8 0 .2.1.4.4.4.7v2.7c0 .1 0 .1.1.2 0 0 .1.1.2 0l2.5-.5c.3-.1.6 0 .8.2.2.2.2.5.1.8l-.9 2.6v.2c0 .1.1.1.2.1l2.7.5c.3.1.6.2.7.5.1.3 0 .5-.2.8l-1.7 2.1c-.1.1-.1.1-.1.2s.1.1.1.2l2.4 1.4c.3.2.4.4.4.7s-.2.5-.4.7L30.6 20c-.1 0-.1.1-.1.2s0 .1.1.2l1.7 2.1c.2.3.3.5.2.8-.1.3-.3.4-.7.5l-2.7.5c-.1 0-.1.1-.2.1v.2l.9 2.6c.1.3.1.6-.1.8-.2.2-.5.3-.8.2l-2.7-.5H26s-.1.1-.1.2v2.7c0 .3-.1.6-.4.7-.2.1-.5.1-.8 0l-2.4-1.4h-.2c-.1 0-.1.1-.1.1l-.9 2.6c-.1.3-.3.5-.6.6-.3 0-.5-.1-.8-.3L18 30.8c-.1-.1-.2-.1-.4 0l-1.7 2.1c0 .2-.2.3-.5.3zM10.5 21v-5.1h.8l2.4 3.7v-3.7h.8V21h-.8l-2.4-3.7V21h-.8zm5.3-5.1H19v.7h-2.3V18h1.9v.7h-1.9v1.5h2.4v.8h-3.2v-5.1zM21 21l-1.2-5.1h.9l.8 4 1-3.5h.7l1 3.5.9-4h.8L24.6 21h-.9l-.9-3.4-.9 3.4H21z"/>
</svg>
