<svg xmlns="http://www.w3.org/2000/svg" viewBox="0 0 36 36">
  <g fill="#0568ae">
    <path d="M15.4 14.7c0 .5.1.8.4 1.1.3.3.8.5 1.5.7V13c-1.2.1-1.9.7-1.9 1.7zM18.9 19v3.9c1.3-.2 1.9-.9 1.9-1.9 0-.5-.1-.8-.4-1.1-.3-.4-.8-.6-1.5-.9z"/>
    <path d="M32.9 17.4L30.5 16c-.1-.1-.2-.1-.2-.2s0-.2.1-.3l1.7-2.1c.2-.2.2-.5.2-.7-.1-.2-.3-.4-.6-.4l-2.7-.5c-.1 0-.2-.1-.3-.2-.1-.1-.1-.2 0-.3l.9-2.6c.1-.2.1-.5 0-.6 0-.1-.2-.2-.6-.1l-2.7.5c-.1 0-.2 0-.3-.1-.1-.1-.1-.2-.1-.3V5.4c0-.6-.5-.9-1-.6l-2.4 1.4c-.2.1-.4 0-.5-.2l-.9-2.6c-.1-.5-.7-.6-1.1-.2l-1.7 2.1c-.1.2-.4.2-.5 0L16 3.2c-.4-.4-.9-.3-1.1.2l-1 2.6c-.1.2-.3.3-.5.2L11 4.8c-.1-.1-.3-.1-.4-.1-.4 0-.6.3-.6.7v2.7c0 .2-.2.4-.4.3L7 8c-.3-.1-.6 0-.7.2-.1.2-.1.4 0 .6l.9 2.6v.3c0 .1-.1.1-.3.2l-2.7.5c-.3 0-.5.2-.6.4-.1.2 0 .5.2.7l1.7 2.1c.1.1.1.2.1.3 0 .1-.1.2-.2.2L3 17.5c-.2.1-.4.4-.4.6 0 .2.1.4.4.6l2.4 1.4c.1.1.2.1.2.2s0 .2-.1.3l-1.7 2.1c-.2.2-.2.5-.2.7.1.2.3.4.6.4l2.7.5c.1 0 .2.1.3.2.1.1.1.2 0 .3l-.9 2.6c-.1.2-.1.5 0 .6.1 0 .3.1.7 0l2.7-.5c.2 0 .4.1.4.3v2.7c0 .6.5.9 1 .6l2.4-1.4c.2-.1.4 0 .5.2l.9 2.6c.2.5.8.6 1.1.2l1.7-2.1c.1-.2.4-.2.5 0l1.7 2.1c.2.2.3.3.5.3.3 0 .5-.2.6-.5l.9-2.6c.1-.2.3-.3.5-.2l2.4 1.4c.5.3 1 0 1-.6v-2.7c0-.2.2-.4.4-.3l2.8.5h.2c.2 0 .4-.1.5-.2.1-.2.1-.4 0-.6l-.9-2.6v-.3c0-.1.1-.1.3-.2l2.7-.5c.3 0 .5-.2.6-.4.1-.2 0-.5-.2-.7l-1.7-2.1c-.1-.1-.1-.2-.1-.3 0-.1.1-.2.2-.2l2.4-1.4c.2-.1.4-.4.4-.6l-.5-.5zm-11.2 6c-.7.7-1.6 1.1-2.8 1.3v2h-1.6v-2c-.8 0-1.5-.2-2.2-.4-.7-.2-1.3-.5-1.8-.8l.5-1.6c1.1.6 2.3.9 3.5 1v-4.4c-1.4-.4-2.4-.9-3-1.4-.6-.6-.8-1.3-.8-2.3 0-1 .3-1.8 1-2.5s1.6-1.1 2.8-1.2V9.3h1.6v1.8c1.2.1 2.3.4 3.3 1l-.5 1.6c-.9-.4-1.8-.7-2.7-.8v4c1.4.4 2.4.9 3 1.5.6.6.9 1.4.9 2.4-.2 1.1-.5 1.9-1.2 2.6z"/>
  </g>
</svg>
