<svg xmlns="http://www.w3.org/2000/svg" viewBox="0 0 36 36">
  <path fill="#0568ae" d="M17.6 27.3v-2.1c-.7 0-1.5-.1-2.3-.3-.8-.2-1.4-.5-2-.9l.3-.8c1.3.7 2.6 1.1 3.9 1.1v-6.2c-1-.2-1.7-.5-2.3-.8-.6-.3-1-.7-1.3-1.1-.3-.4-.4-1-.4-1.7s.2-1.3.5-1.8.8-1 1.4-1.3c.6-.3 1.3-.5 2-.5V9h.9v1.9c1.2.1 2.4.4 3.6 1.1l-.3.8c-1.1-.6-2.2-.9-3.2-1v5.6c1.5.4 2.5.9 3.2 1.5.6.6.9 1.4.9 2.4 0 .7-.2 1.4-.5 1.9-.3.6-.8 1-1.4 1.4-.6.3-1.3.5-2.2.6v2.1h-.8zm-2.9-12.9c0 .7.2 1.3.6 1.7.4.4 1.2.8 2.3 1.1v-5.4c-.9.1-1.7.3-2.2.8-.5.4-.7 1-.7 1.8zm6.9 6.9c0-.8-.2-1.4-.7-1.8-.5-.4-1.3-.8-2.4-1.2v5.9c1-.1 1.8-.4 2.3-.9.5-.4.8-1.1.8-2zm-1 11.9c-.2 0-.5-.1-.6-.3l-1.7-2.1c-.1-.1-.1-.1-.2-.1s-.1 0-.2.1l-1.7 2.1c-.2.3-.5.4-.8.3-.3 0-.5-.3-.6-.6l-.9-2.6c-.1-.2 0-.4.2-.5.2-.1.4 0 .5.2l.9 2.6v.1l1.7-2.1c.2-.2.5-.4.8-.4.3 0 .6.1.7.4l1.7 2.1v-.1l.9-2.6c.1-.3.3-.5.6-.6.3-.1.6-.1.8.1l2.4 1.4h.1V27.8c0-.3.1-.6.3-.8.2-.2.5-.3.8-.2l2.7.5h.1v-.1l-.9-2.6c-.1-.3-.1-.6.1-.8.1-.2.4-.4.7-.5l2.7-.5h.1v-.1L30 20.9c-.2-.2-.3-.5-.2-.8 0-.3.2-.5.5-.7l2.4-1.4h0l-2.4-1.4c-.3-.1-.4-.4-.5-.7 0-.3 0-.6.2-.8l1.7-2.1v-.1h-.1l-2.6-.4c-.3-.1-.5-.2-.7-.5-.1-.2-.2-.5-.1-.8l.9-2.6v-.1H29l-2.7.5c-.3.1-.6 0-.8-.2-.2-.2-.3-.5-.3-.8V5.4v-.1h-.1l-2.4 1.4c-.3.2-.6.2-.8.1-.3-.1-.5-.3-.6-.6l-.9-2.6v-.1l-1.7 2.1c-.2.2-.5.4-.7.4-.3 0-.6-.1-.8-.4l-1.7-2.1v.1l-.9 2.6c-.1.3-.3.5-.6.6-.3.1-.6.1-.8-.1l-2.4-1.4h-.1V8.1c0 .3-.1.6-.3.8-.2.2-.5.3-.8.2l-2.7-.5h-.1v.1l.9 2.6c.1.3.1.6-.1.8-.1.2-.4.4-.7.5l-2.6.4h-.1L6 15.1c.2.2.3.5.2.8 0 .3-.2.5-.5.7L3.4 18h-.1.1l2.4 1.4c.3.2.4.4.5.7 0 .3 0 .6-.2.8L4.3 23v.1h.1l2.6.4c.3.1.5.2.7.5.1.2.2.5.1.8l-.9 2.6v.1H7l2.7-.5c.3-.1.6 0 .8.2.2.2.3.5.3.8v2.7c0 .2-.2.4-.4.4s-.4-.2-.4-.4V28c0-.1 0-.1-.1-.2 0 0-.1-.1-.2 0l-2.7.3c-.3.1-.6 0-.8-.2-.2-.2-.2-.5-.1-.8l.9-2.6v-.2c0-.1-.1-.1-.2-.1l-2.7-.5c-.3-.1-.6-.2-.7-.5-.1-.3 0-.5.2-.8l1.7-2.1c.1-.1.1-.1.1-.2s-.1-.1-.1-.2L3 18.7c-.3-.2-.4-.4-.4-.7 0-.3.2-.5.4-.7L5.4 16c.1 0 .1-.1.1-.2s0-.1-.1-.2l-1.7-2.1c-.2-.2-.3-.5-.2-.8.1-.3.3-.4.7-.5l2.7-.5c.1 0 .1-.1.2-.1v-.2l-1-2.5c-.1-.3-.1-.6.1-.8.2-.2.5-.3.8-.2l2.7.5h.2s.1-.1.1-.2V5.5c0-.3.1-.6.4-.7.2-.1.5-.1.8 0l2.4 1.4h.2c.1 0 .1-.1.1-.1l.9-2.6c.1-.3.3-.5.6-.6.3 0 .5.1.8.3l1.7 2.1c.1.1.1.1.2.1s.1 0 .2-.1L20 3.2c.2-.2.5-.4.8-.3.3 0 .5.3.6.6l.9 2.6c0 .1.1.1.1.1h.2L25 4.8c.3-.2.6-.2.8 0 .2.1.4.4.4.7v2.7c0 .1 0 .1.1.2 0 0 .1.1.2 0l2.5-.5c.3-.1.6 0 .8.2.2.2.2.5.1.8l-.9 2.6v.2c0 .1.1.1.2.1l2.7.5c.3.1.6.2.7.5.1.3 0 .5-.2.8l-1.7 2.1c-.1.1-.1.1-.1.2s.1.1.1.2l2.4 1.4c.3.2.4.4.4.7s-.2.5-.4.7L30.6 20c-.1 0-.1.1-.1.2s0 .1.1.2l1.7 2.1c.2.3.3.5.2.8-.1.3-.3.4-.7.5l-2.7.5c-.1 0-.1.1-.2.1v.2l.9 2.6c.1.3.1.6-.1.8-.2.2-.5.3-.8.2l-2.7-.5H26s-.1.1-.1.2v2.7c0 .3-.1.6-.4.7-.2.1-.5.1-.8 0l-2.4-1.4h-.2c-.1 0-.1.1-.1.1l-.9 2.6c-.1.3-.3.5-.6.6h.1z"/>
</svg>
