<svg xmlns="http://www.w3.org/2000/svg" viewBox="0 0 36 36">
  <path fill="#0568ae" d="M17.2 12.3v4c-.8-.3-1.4-.5-1.7-.8-.3-.3-.5-.7-.5-1.2 0-1.2.7-1.8 2.2-2zm1.6 6.8v4.3c1.4-.3 2.2-1 2.2-2.2 0-.5-.2-.9-.5-1.2-.3-.4-.9-.7-1.7-.9zm14.2-1C33 26.5 26.4 33 18 33S3 26.5 3 18.1s6.6-15 15-15 15 6.6 15 15zm-9.9 3c0-1.1-.3-1.9-1-2.6-.6-.7-1.7-1.2-3.3-1.7v-4.5c1 .1 2 .4 3 .9l.6-1.8c-1.1-.6-2.3-1-3.6-1.1v-2h-1.7v2c-1.3.2-2.4.6-3.2 1.3-.8.7-1.2 1.7-1.2 2.8 0 1.1.3 1.9.9 2.5.6.6 1.7 1.2 3.3 1.6v4.9c-1.4-.1-2.7-.5-3.9-1.1l-.6 1.8c.6.4 1.2.6 2 .9.8.2 1.6.4 2.5.4v2.2h1.7v-2.2c1.3-.2 2.4-.7 3.2-1.4 1-.8 1.3-1.8 1.3-2.9z"/>
</svg>
