<svg xmlns="http://www.w3.org/2000/svg" viewBox="0 0 36 36">
  <path fill="#0568ae" d="M19 33.4c8-.5 14.3-7.3 14.3-15.3 0-8.5-6.9-15.4-15.4-15.4C10.8 2.7 4.7 7.5 3 14.4c-.3 1.2-.5 2.5-.5 3.7 0 1.9.3 3.7 1 5.4 1.1 2.8 3 5.3 5.4 7.1.2.1.4.1.5-.1.1-.2.1-.4-.1-.5-2.4-1.7-4.2-4-5.2-6.7-.6-1.6-.9-3.4-.9-5.2 0-1.2.1-2.4.4-3.5C5.4 8 11.3 3.4 18 3.4c8.1 0 14.6 6.6 14.6 14.6 0 7.7-6 14.1-13.6 14.6-.2 0-.4.2-.3.4-.1.2.1.4.3.4zm-1.4-6.1v-2.1c-.7 0-1.5-.1-2.3-.3-.8-.2-1.4-.5-2-.9l.3-.8c1.3.7 2.6 1.1 3.9 1.1v-6.2c-1-.2-1.7-.5-2.3-.8-.6-.3-1-.7-1.3-1.1-.3-.4-.4-1-.4-1.7s.2-1.3.5-1.8.8-1 1.4-1.3c.6-.3 1.3-.5 2-.5V9h.9v1.9c1.2.1 2.4.4 3.6 1.1l-.3.8c-1.1-.6-2.2-.9-3.2-1v5.6c1.5.4 2.5.9 3.2 1.5.6.6.9 1.4.9 2.4 0 .7-.2 1.4-.5 1.9-.3.6-.8 1-1.4 1.4-.6.3-1.3.5-2.2.6v2.1h-.8zm-2.9-12.9c0 .7.2 1.3.6 1.7.4.4 1.2.8 2.3 1.1v-5.4c-.9.1-1.7.3-2.2.8-.5.4-.7 1.1-.7 1.8zm6.9 7c0-.8-.2-1.4-.7-1.8-.5-.4-1.3-.8-2.4-1.2v5.9c1-.1 1.8-.4 2.3-.9.5-.5.8-1.2.8-2z"/>
</svg>
