<svg xmlns="http://www.w3.org/2000/svg" viewBox="0 0 36 36" enable-background="new 0 0 36 36"><path d="M5.979 4.722c.197 0 .439.046.62.224l23.833 24.661c.725.749.704 1.948-.045 2.673-.355.343-.821.531-1.313.531h-.033c-.505-.009-.976-.213-1.327-.576l-9.011-9.324c-.157-.179-.484-.351-.697-.441-.246-.102-.517-.146-.794-.146l-.137.01c-.324.015-.966.169-1.265.237-.154.034-.315.052-.483.052-.54 0-1.1-.19-1.446-.59-3.717-4.294-8.201-11.139-8.845-16.246-.069-.56.327-.985.744-1.05l.199-.015m6.769 18.29c-.356-.411-.72-.852-1.087-1.307l-7.987 7.972c-.715.716-.715 1.881 0 2.596.348.346.807.537 1.298.537s.95-.191 1.297-.537l8.255-8.24c-.706-.153-1.33-.505-1.776-1.021zm19.863-13.778c-.268-.237-.656-.247-.933-.047l-4.823 4.822c-.122.122-.282.183-.442.183-.16 0-.32-.061-.442-.183-.244-.244-.244-.64 0-.884l4.732-4.761c.287-.299.278-.773-.021-1.06-.298-.287-.772-.278-1.061.021l-4.721 4.715c-.122.122-.282.183-.442.183-.16 0-.32-.061-.442-.183-.244-.244-.244-.64 0-.884l4.73-4.753c.107-.112.172-.249.196-.391l.009-.174c-.012-.182-.089-.36-.232-.495-.301-.285-.775-.274-1.06.027l-4.714 4.7c-.122.122-.282.183-.442.183s-.32-.061-.442-.183c-.244-.244-.244-.64 0-.884l4.721-4.72c.285-.286.297-.746.018-1.041-.284-.302-.759-.315-1.06-.032l-6.227 5.523c-1.531 1.531-2.02 3.675-1.225 5.706.375.957 2.555 2.938 3.528 3.253.478.14.975.211 1.472.211 1.419 0 2.843-.551 3.849-1.556l5.537-6.237c.275-.31.247-.784-.063-1.059z" fill="#0568ae"/></svg>