<svg xmlns="http://www.w3.org/2000/svg" viewBox="0 0 36 36" enable-background="new 0 0 36 36"><path d="M5.346 31.845c-.589 0-1.144-.229-1.563-.646-.417-.417-.647-.972-.647-1.563s.23-1.146.647-1.564l7.471-7.471c.146-.146.384-.146.53 0 .146.146.146.384 0 .53l-7.471 7.471c-.275.275-.427.642-.427 1.033 0 .391.152.757.427 1.032.554.551 1.513.551 2.065 0l7.47-7.471c.146-.146.384-.146.53 0 .146.146.146.384 0 .53l-7.47 7.471c-.418.418-.973.648-1.562.648zm14.139-18.471c.196-.065.303-.278.237-.474-.575-1.725-.234-3.333.945-4.513l6.173-5.472.046-.043c.151-.142.158-.379.016-.53-.142-.151-.379-.158-.53-.016l-6.218 5.514c-1.387 1.386-1.803 3.316-1.143 5.296.053.157.199.256.356.256l.118-.018zm7.76 1.554l.06-.059.053-.049 5.412-6.115c.137-.155.123-.392-.032-.529s-.392-.123-.529.032l-5.391 6.091-.105.102c-1.094 1.092-2.825 1.503-4.308 1.026-.197-.063-.408.045-.472.242-.063.197.045.408.242.472.482.156.988.231 1.494.231 1.32-.001 2.643-.513 3.576-1.444zm-2.198-2.386l4.823-4.829c.459-.462.732-.736.88-.917l.014.013.043-.045c.144-.149.139-.387-.01-.53-.148-.143-.386-.139-.53.01l-.043.046-.015.016c-.211.223-4.171 4.185-5.692 5.706-.146.147-.146.384 0 .53.073.073.169.11.265.11s.192-.037.265-.11zm-1.958-1.959l4.822-4.829c.462-.464.735-.738.882-.918l.014.013.043-.045c.143-.15.137-.387-.013-.53-.15-.143-.387-.137-.53.013l-.043.045-.013.014c-.208.219-4.17 4.185-5.692 5.707-.146.147-.146.384 0 .53.073.073.169.11.265.11s.192-.036.265-.11zm7.934 20.626c.898-.869.922-2.306.054-3.203l-23.84-24.668c-.387-.381-.925-.345-1.139-.312-.586.091-1.157.676-1.058 1.465.667 5.291 5.229 12.165 8.933 16.444.498.576 1.445.847 2.296.66l.1-.023c.294-.067.841-.193 1.098-.205l.121-.009c.243 0 .462.039.647.117.24.102.476.246.562.343l9.023 9.338c.42.434.984.679 1.59.69h.039c.59-.001 1.148-.226 1.574-.637zm-12.497-10.426c-.28-.116-.596-.175-.938-.175l-.154.01c-.301.014-.774.118-1.233.223l-.095.022c-.575.126-1.244-.046-1.565-.419-3.923-4.531-8.152-11.251-8.757-16.047-.045-.361.219-.598.428-.63.079-.012.349-.041.492.099l23.833 24.661c.581.6.565 1.561-.036 2.142-.292.281-.673.43-1.08.425-.405-.007-.783-.171-1.063-.461l-9.005-9.318c-.242-.271-.691-.475-.827-.532z" fill="#0568ae"/></svg>