<svg xmlns="http://www.w3.org/2000/svg" viewBox="0 0 36 36" enable-background="new 0 0 36 36"><path d="M30.032 12.885l-.004-.042c-.042-1.068-.929-1.927-2.002-1.927h-2.251v-1.368c0-3.355-2.73-6.085-6.086-6.085-3.357 0-6.087 2.73-6.087 6.085v1.368h-2.248c-1.081 0-1.974.87-2.007 1.946l-.002.023-.185 3.888c-.01.207.15.383.357.392.216.009.382-.15.392-.357l.183-3.854.003-.047c.008-.685.572-1.242 1.257-1.242h2.248v1.918c-.28.135-.474.419-.474.751 0 .462.375.837.837.837.462 0 .837-.375.837-.837 0-.322-.184-.597-.45-.738v-1.932h10.673v1.925c-.272.138-.461.418-.461.744 0 .462.375.837.834.837.464 0 .837-.375.837-.837 0-.326-.188-.606-.46-.744v-1.925h2.251c.684 0 1.246.557 1.254 1.242l.006.063.811 17.172-.001.012c-.007.685-.57 1.242-1.254 1.242h-7.441c-.207 0-.375.168-.375.375s.168.375.375.375h7.441c1.08 0 1.972-.87 2.003-1.948l.002-.058-.813-17.254zm-15.681-1.969v-1.368c0-2.942 2.394-5.335 5.337-5.335 2.942 0 5.336 2.393 5.336 5.335v1.368h-10.673zm3.574 22.202h-10.958c-1 0-1.814-.814-1.814-1.815v-11.166c0-1.001.814-1.815 1.814-1.815h10.958c1 0 1.814.814 1.814 1.815v11.166c0 1.001-.814 1.815-1.814 1.815zm-10.958-14.046c-.587 0-1.064.478-1.064 1.065v11.166c0 .587.477 1.065 1.064 1.065h10.958c.587 0 1.064-.478 1.064-1.065v-11.166c0-.587-.478-1.065-1.064-1.065h-10.958zm9.585 3.618l.004.02v.514c0 2.268-1.845 4.114-4.113 4.114-2.269 0-4.115-1.846-4.115-4.114v-.539c-.258-.143-.435-.414-.435-.73 0-.462.374-.837.837-.837.462 0 .837.375.837.837 0 .338-.201.627-.489.759v.51c0 1.855 1.51 3.364 3.365 3.364 1.854 0 3.363-1.509 3.363-3.364v-.514c-.284-.134-.482-.421-.482-.756 0-.462.375-.837.837-.837.462 0 .837.375.837.837-.001.32-.182.595-.446.736z" fill="#0568ae"/></svg>