<svg xmlns="http://www.w3.org/2000/svg" viewBox="0 0 36 36" enable-background="new 0 0 36 36"><path d="M29.667 12.903h-.003c-.01-.894-.736-1.612-1.629-1.612h-1.626v-1.743c0-3.7-3.011-6.71-6.711-6.71-3.701 0-6.712 3.01-6.712 6.71v1.743h-1.623c-.897 0-1.622.718-1.632 1.612h-.003l-.141 4.294h8.347c1.621 0 2.94 1.319 2.94 2.94v11.166c0 .16-.016.316-.041.469h8.019c.896 0 1.619-.72 1.629-1.613h.001l-.815-17.256zm-14.682-1.612v-1.743c0-2.597 2.114-4.71 4.712-4.71s4.711 2.113 4.711 4.71v1.743h-9.423zm4.388 20.012c0 .792-.647 1.44-1.439 1.44h-10.958c-.792 0-1.439-.648-1.439-1.44v-11.166c0-.792.647-1.44 1.439-1.44h10.958c.792 0 1.439.648 1.439 1.44v11.166zm-2.491-9.349c0-.668-.543-1.212-1.212-1.212-.668 0-1.212.544-1.212 1.212 0 .384.183.723.462.945v1.377h-4.93v-1.377c.279-.222.462-.561.462-.945 0-.668-.543-1.212-1.212-1.212s-1.212.544-1.212 1.212c0 .384.183.723.462.945v2.127c0 .414.336.75.75.75h6.43c.414 0 .75-.336.75-.75v-2.127c.279-.222.462-.561.462-.945zm-2.909-6.407c-.668 0-1.212-.544-1.212-1.212 0-.668.543-1.212 1.212-1.212s1.212.543 1.212 1.212c0 .668-.544 1.212-1.212 1.212zm11.434 0c-.667 0-1.209-.544-1.209-1.212 0-.668.542-1.212 1.209-1.212.668 0 1.212.543 1.212 1.212 0 .668-.544 1.212-1.212 1.212z" fill="#0568ae"/></svg>