<svg xmlns="http://www.w3.org/2000/svg" viewBox="0 0 36 36" enable-background="new 0 0 36 36"><path d="M23.628 10.066c-.207 0-.375-.168-.375-.375v-.967c0-.934-.78-1.693-1.738-1.693h-7.029c-.958 0-1.738.76-1.738 1.693v.967c0 .207-.168.375-.375.375s-.375-.168-.375-.375v-.967c0-1.347 1.116-2.443 2.488-2.443h7.029c1.372 0 2.488 1.096 2.488 2.443v.967c0 .207-.168.375-.375.375zm8.498 4.005v12.111c0 1.596-1.299 2.895-2.895 2.895h-22.462c-1.596 0-2.895-1.299-2.895-2.895v-12.111c0-1.596 1.299-2.895 2.895-2.895h22.463c1.596-.001 2.894 1.298 2.894 2.895zm-25.357 14.256h18.952v-5.449l-.858.858c-.165.165-.384.255-.619.255s-.454-.09-.619-.255l-4.793-4.793c-.264-.264-.463-.745-.463-1.119v-3.5c0-.483.393-.875.875-.875h3.5c.374 0 .854.199 1.119.463l1.858 1.858v-3.846h-15.442v11.473c0 .207-.168.375-.375.375s-.375-.168-.375-.375v-11.472h-2.76c-1.183 0-2.145.962-2.145 2.145v12.111c0 1.183.962 2.146 2.145 2.146zm21.356-8.914l.036-.088-.036-.088-4.793-4.793c-.123-.123-.415-.244-.588-.244h-3.5c-.068 0-.125.057-.125.125v3.5c0 .174.121.465.244.588l4.793 4.793c.063.063.114.063.177 0l3.792-3.793zm3.251-5.342c0-1.183-.962-2.145-2.145-2.145h-2.761v4.49l-.018.088 2.202 2.202c.165.165.255.384.255.619 0 .234-.09.454-.255.619l-2.187 2.187.003.013v6.183h2.761c1.183 0 2.145-.962 2.145-2.145v-12.111zm-9.084 2.085c0 .671-.545 1.216-1.216 1.216-.671 0-1.216-.546-1.216-1.216 0-.671.545-1.216 1.216-1.216.671 0 1.216.546 1.216 1.216zm-.75 0c0-.257-.209-.466-.466-.466s-.466.209-.466.466.209.466.466.466c.257.001.466-.208.466-.466z" fill="#0568ae"/></svg>