<svg xmlns="http://www.w3.org/2000/svg" viewBox="0 0 36 36" enable-background="new 0 0 36 36"><path d="M11.477 10.051v-1.138c0-2.036 1.688-3.692 3.762-3.692h5.52c2.074 0 3.761 1.656 3.761 3.692v1.138h-2.5v-1.138c0-.657-.565-1.192-1.261-1.192h-5.52c-.696 0-1.262.535-1.262 1.192v1.138h-2.5zm-2.5 1.5h-1.934c-1.382 0-2.511 1.13-2.511 2.512v12.954c0 1.381 1.129 2.512 2.511 2.512h1.934v-17.978zm1.5 17.977h15.043v-17.977h-15.043v17.977zm18.478-17.977h-1.934v17.977h1.934c1.382 0 2.513-1.13 2.513-2.512v-12.953c0-1.382-1.132-2.512-2.513-2.512z" fill="#0568ae"/></svg>