<svg xmlns="http://www.w3.org/2000/svg" viewBox="0 0 36 36" enable-background="new 0 0 36 36"><path d="M29.231 11.175h-22.463c-1.596 0-2.895 1.299-2.895 2.895v12.111c0 1.596 1.299 2.895 2.895 2.895h22.463c1.596 0 2.895-1.299 2.895-2.895v-12.11c0-1.597-1.298-2.896-2.895-2.896zm-24.608 15.007v-12.111c0-1.183.962-2.145 2.145-2.145h3.261v11.473c0 .207.168.375.375.375s.375-.168.375-.375v-11.474h14.441v16.401h-18.452c-1.182.001-2.145-.962-2.145-2.144zm26.753 0c0 1.183-.962 2.145-2.145 2.145h-3.261v-16.402h3.261c1.183 0 2.145.962 2.145 2.145v12.112zm-7.748-16.116c-.207 0-.375-.168-.375-.375v-.967c0-.934-.78-1.693-1.738-1.693h-7.03c-.958 0-1.738.76-1.738 1.693v.967c0 .207-.168.375-.375.375s-.375-.168-.375-.375v-.967c0-1.347 1.116-2.443 2.488-2.443h7.03c1.372 0 2.488 1.096 2.488 2.443v.967c0 .207-.168.375-.375.375z" fill="#0568ae"/></svg>