<svg xmlns="http://www.w3.org/2000/svg" viewBox="0 0 36 36" enable-background="new 0 0 36 36"><path d="M11.477 10.051v-1.138c0-2.036 1.688-3.692 3.762-3.692h5.52c2.074 0 3.761 1.656 3.761 3.692v1.138h-2.5v-1.138c0-.657-.565-1.192-1.261-1.192h-5.52c-.696 0-1.262.535-1.262 1.192v1.138h-2.5zm7.932 3.774h3.5c.275 0 .659.159.854.353l1.758 1.758v-4.386h-15.044v17.977h15.043v-6.815l-.758.758c-.194.194-.513.194-.707 0l-4.793-4.793c-.194-.194-.354-.579-.354-.854v-3.5c0-.273.226-.498.501-.498zm-10.432-2.274h-1.934c-1.382 0-2.511 1.13-2.511 2.512v12.954c0 1.381 1.129 2.512 2.511 2.512h1.934v-17.978zm19.978 0h-1.934v5.886l1.535 1.535c.194.194.194.513 0 .707l-1.535 1.535v8.315h1.934c1.382 0 2.513-1.13 2.513-2.512v-12.954c0-1.382-1.132-2.512-2.513-2.512zm-7.714 5.531c.511 0 .925-.414.925-.926 0-.511-.415-.925-.925-.925-.512 0-.925.414-.925.925-.001.512.413.926.925.926z" fill="#0568ae"/></svg>