<svg xmlns="http://www.w3.org/2000/svg" viewBox="0 0 36 36" enable-background="new 0 0 36 36"><path d="M11.477 10.051v-1.138c0-2.036 1.688-3.692 3.762-3.692h5.52c2.074 0 3.761 1.656 3.761 3.692v1.138h-2.5v-1.138c0-.657-.565-1.192-1.261-1.192h-5.52c-.696 0-1.262.535-1.262 1.192v1.138h-2.5zm-1 19.477h9.471c-.285-.791-.448-1.64-.448-2.528 0-3.629 2.591-6.662 6.02-7.352v-8.097h-15.043v17.977zm16.544-10.028c1.667.004 3.202.561 4.447 1.488v-6.926c0-1.382-1.131-2.512-2.513-2.512h-1.934v7.95zm-18.044-7.949h-1.934c-1.382 0-2.511 1.13-2.511 2.512v12.954c0 1.381 1.129 2.512 2.511 2.512h1.934v-17.978zm18.024 9.449c-3.313 0-6 2.686-6 6 0 3.313 2.687 6 6 6 3.314 0 6-2.687 6-6 0-3.315-2.686-6-6-6zm-.511 8.232l-1.409.74c-.109.058-.201.063-.245.011-.035-.041-.045-.115-.029-.21l.271-1.569c.052-.313-.089-.749-.317-.97l-1.139-1.111c-.079-.076-.114-.153-.095-.208.017-.056.091-.098.2-.113l1.575-.228c.32-.047.683-.311.827-.602l.702-1.425c.098-.198.242-.199.339 0l.705 1.425c.14.286.51.556.826.602l1.573.228c.11.016.183.057.202.113.018.056-.017.132-.096.209l-1.14 1.111c-.227.222-.368.657-.313.97l.267 1.569c.016.094.006.169-.029.21-.043.051-.136.047-.245-.011l-1.408-.74c-.138-.073-.32-.113-.511-.113-.192-.001-.374.039-.511.112z" fill="#0568ae"/></svg>