<svg xmlns="http://www.w3.org/2000/svg" viewBox="0 0 36 36" enable-background="new 0 0 36 36"><path d="M23.577 10.066c-.207 0-.375-.168-.375-.375v-.967c0-.934-.78-1.693-1.738-1.693h-7.03c-.958 0-1.738.76-1.738 1.693v.967c0 .207-.168.375-.375.375s-.375-.168-.375-.375v-.967c0-1.347 1.116-2.443 2.488-2.443h7.03c1.372 0 2.488 1.096 2.488 2.443v.967c0 .207-.168.375-.375.375zm9.561 16.968c0-3.515-2.86-6.375-6.375-6.375s-6.375 2.86-6.375 6.375 2.86 6.375 6.375 6.375 6.375-2.86 6.375-6.375zm-.75 0c0 3.102-2.523 5.625-5.625 5.625-3.101 0-5.625-2.523-5.625-5.625 0-3.101 2.524-5.625 5.625-5.625s5.625 2.524 5.625 5.625zm-11.094 1.293h-14.576c-1.183 0-2.145-.962-2.145-2.145v-12.111c0-1.183.962-2.145 2.145-2.145h3.261v11.473c0 .207.168.375.375.375s.375-.168.375-.375v-11.474h14.441v9.717c.243-.072.494-.124.75-.163v-9.554h3.261c1.183 0 2.145.962 2.145 2.145v9.687c.316.439.57.925.75 1.446v-11.132c0-1.596-1.299-2.895-2.895-2.895h-22.463c-1.596 0-2.895 1.299-2.895 2.895v12.111c0 1.596 1.299 2.895 2.895 2.895h14.809c-.095-.243-.173-.493-.233-.75zm5.469-3.772c-.044 0-.087.036-.123.108l-.507 1.028c-.103.21-.365.4-.597.434l-1.136.164c-.079.011-.132.041-.145.082-.013.04.013.095.069.15l.823.802c.164.16.266.474.228.7l-.195 1.132.021.151.064.026.113-.034 1.017-.534c.099-.052.229-.082.368-.082.138 0 .269.029.368.082l1.016.534.113.034.064-.026.021-.151-.193-1.132c-.04-.226.063-.54.227-.7l.822-.802c.057-.055.083-.11.07-.151-.014-.04-.066-.07-.146-.081l-1.135-.165c-.229-.033-.495-.228-.596-.435l-.509-1.028c-.036-.071-.079-.106-.122-.106m0-.75c.337 0 .635.198.794.525l.502 1.014.057.042 1.114.161c.363.052.643.27.753.593.103.318.006.662-.26.919l-.808.788-.022.066.191 1.115c.049.288-.016.558-.188.763-.157.185-.389.291-.636.291-.156 0-.312-.041-.462-.12l-.997-.525-.038-.004h-.021l-.003-.002-1.008.529c-.152.08-.308.121-.464.121-.25 0-.483-.107-.631-.285-.101-.116-.26-.37-.193-.77l.192-1.111-.022-.07-.811-.79c-.264-.259-.36-.602-.259-.91.101-.323.383-.547.753-.6l1.114-.16.053-.028.508-1.031c.161-.326.458-.521.792-.521z" fill="#0568ae"/></svg>