<svg xmlns="http://www.w3.org/2000/svg" viewBox="0 0 36 36">
  <path fill="#0568ae" d="M16.8 18.7v-6.1c0-.7.5-1.2 1.2-1.2s1.2.5 1.2 1.2v6.6c0 .3-.1.6-.4.9L14.7 24c-.2.2-.5.3-.8.3-.3 0-.6-.1-.9-.4-.5-.5-.4-1.2 0-1.7m15.7 5c1.7-2.2 2.7-5 2.7-8 0-7.4-6-13.4-13.4-13.4s-13.4 6-13.4 13.4c0 3 1 5.8 2.7 8L5 29.5c-.4.4-.4 1 0 1.4l1.2 1.2c.4.4 1 .4 1.4 0l2.3-2.3c2.2 1.7 5 2.7 8 2.7s5.8-1 8-2.7l2.3 2.3c.4.4 1 .4 1.4 0l1.2-1.2c.4-.4.4-1 0-1.4l-2.1-2.3zM18 29.6c-5.7 0-10.4-4.7-10.4-10.4S12.3 8.8 18 8.8s10.4 4.7 10.4 10.4c-.1 5.7-4.7 10.4-10.4 10.4zM11.7 3.9l-.3-.1c-.6-.2-1.3-.3-2-.3C5.9 3.4 3 6.3 3 9.8c0 .7.1 1.3.3 1.9l.1.3c.2.4.5.5.7.3l.4-.4 6.9-6.8.4-.4c.4-.3.3-.6-.1-.8zm12.4.7l.4.4 6.9 6.8.4.4c.2.2.6.1.7-.3l.1-.4c.2-.6.3-1.2.3-1.9 0-3.5-2.8-6.3-6.3-6.3-.7 0-1.4.1-2 .3l-.3.1c-.4.4-.5.7-.2.9z"/>
</svg>
