<svg xmlns="http://www.w3.org/2000/svg" viewBox="0 0 36 36">
  <path fill="#0568ae" d="M4.3 12.7c-.1 0-.3-.1-.3-.2-.5-.9-.7-1.9-.7-2.9 0-3.5 2.8-6.3 6.3-6.3 1.1 0 2.1.3 3 .8.2.1.2.3.2.5-.1.2-.3.2-.5.2-.9-.6-1.8-.8-2.7-.8C6.5 4 4 6.5 4 9.6c0 .9.2 1.8.6 2.6.1.2 0 .4-.2.5h-.1zm27.7-.2c.5-.9.7-1.9.7-2.9 0-3.5-2.8-6.3-6.3-6.3-1.1 0-2.1.3-3 .8-.2.1-.2.3-.2.5.1.2.3.2.5.2.9-.6 1.8-.8 2.7-.8C29.5 4 32 6.5 32 9.6c0 .9-.2 1.8-.6 2.6-.1.2 0 .4.2.5h.2l.2-.2zm-2.1 16.9c.1.1.1.4 0 .5 0 .1-.1.1-.2.1s-.2 0-.3-.1l-2.6-2.6c-2.3 2.2-5.4 3.5-8.8 3.5-3.4 0-6.5-1.3-8.8-3.5l-2.6 2.6c-.1.1-.2.1-.3.1-.1 0-.2 0-.3-.1-.1-.1-.1-.4 0-.5l2.6-2.6c-2.2-2.3-3.5-5.4-3.5-8.8 0-7.1 5.8-12.8 12.8-12.8C25 5.2 30.7 11 30.7 18c0 3.4-1.3 6.5-3.5 8.8l2.7 2.6zm-11.9.7c6.7 0 12.1-5.4 12.1-12.1 0-6.7-5.4-12.1-12.1-12.1-6.7 0-12.1 5.4-12.1 12.1 0 6.7 5.4 12.1 12.1 12.1zm-5.1-6.7l5.3-5.1c.1-.1.1-.2.1-.3V9.4c.1-.2-.1-.4-.3-.4-.2 0-.4.2-.4.4v8.4l-5.2 5c-.1.1-.2.4 0 .5.1.1.2.1.3.1.1.1.2 0 .2 0z"/>
</svg>
