<svg xmlns="http://www.w3.org/2000/svg" viewBox="0 0 36 36">
  <path fill="#0568ae" d="M28.147 11c-.438-.392-.726-1.214-.63-1.796.15-.877-.42-1.814-1.266-2.087-.55-.18-1.158-.826-1.3-1.384-.177-.684-.778-1.234-1.494-1.37-.176-.034-.347-.04-.516-.022-.143.016-.305.007-.472-.025-.506-.096-1.02-.38-1.28-.707-.267-.34-.663-.574-1.116-.66-.447-.085-.903-.013-1.287.203-.36.21-.942.286-1.444.193-.175-.034-.326-.084-.452-.15-.153-.08-.317-.136-.482-.165-.72-.137-1.483.154-1.896.726-.338.466-1.138.842-1.72.81-.885-.055-1.757.61-1.943 1.48-.122.565-.702 1.24-1.24 1.44-.833.31-1.36 1.273-1.174 2.144.122.563-.134 1.412-.547 1.817-.637.623-.727 1.716-.203 2.436.34.47.452 1.35.24 1.886-.326.83.035 1.863.806 2.307.496.287.96 1.048.988 1.623.036.844.695 1.6 1.53 1.76l.147.02v.004l.164.032.17.05.103.034.01.005L9.93 31.894l-.073.386c-.026.138.028.28.14.367.112.086.263.102.39.04l.534-.254.124-.07.007.01 1.12-.54 1.743-.846.044-.02 2.24 1.958c.07.06.16.093.25.093l.122-.02c.127-.045.22-.155.246-.287l1.203-6.483 1.146 6.18.054.3c.024.134.118.245.246.29.128.045.27.017.372-.072l2.24-1.96.042.02 1.75.847.528.252.597.29.08.04.01.004.562.27c.128.062.28.045.39-.04.113-.086.168-.228.142-.367L24.195 21.6l.14-.106c.26-.174.518-.284.75-.318.882-.132 1.597-.963 1.594-1.85.003-.58.43-1.36.913-1.67.752-.477 1.068-1.527.704-2.34-.234-.526-.16-1.41.158-1.892.49-.743.353-1.83-.308-2.425zm-11.95 20.925l-1.93-1.687c-.114-.1-.276-.12-.41-.056l-.27.13-1.743.843-.455.22-.628.306-.03.013 1.794-9.655c.188.165.343.346.433.528.314.633 1.026 1.05 1.747 1.027.17-.002.347-.03.51-.084.13-.045.29-.07.465-.075.515-.018 1.076.16 1.4.428.166.133.354.235.556.305l-1.44 7.757zm8.53-.516l-.533-.256-1.75-.847-.27-.127c-.135-.063-.295-.042-.407.057l-1.927 1.686-1.424-7.667c.42-.03.81-.187 1.107-.456.31-.28.865-.477 1.38-.49.167-.005.332.014.467.052.165.046.334.066.51.062.725-.016 1.4-.45 1.69-1.085l1.736 9.348-.58-.28zm3.103-18.4c-.463.7-.56 1.846-.217 2.612.214.478.02 1.118-.422 1.4-.702.45-1.256 1.46-1.26 2.302.002.522-.434 1.03-.95 1.107-.342.05-.708.203-1.066.443l-.27.204c-.084.035-.15.095-.19.172-.247.24-.44.502-.556.765-.167.378-.59.65-1.035.658-.098.004-.193-.008-.288-.034-.207-.06-.445-.085-.687-.08-.703.017-1.418.278-1.867.683-.186.17-.443.267-.722.272-.277.012-.54-.08-.74-.24-.45-.37-1.143-.597-1.827-.597h-.065c-.252.008-.482.046-.682.113-.09.03-.187.046-.287.047-.44.025-.877-.24-1.062-.61-.22-.442-.644-.864-1.17-1.158l-.347-.17-.14-.047-.25-.073-.25-.046v.005-.01l-.083-.013c-.488-.092-.902-.565-.923-1.056-.042-.838-.64-1.82-1.364-2.24-.454-.26-.674-.892-.48-1.38.305-.78.16-1.922-.334-2.602-.31-.424-.254-1.09.12-1.457.6-.588.933-1.692.756-2.51-.11-.512.212-1.098.703-1.28.783-.294 1.534-1.167 1.71-1.99.11-.512.644-.915 1.164-.886.835.053 1.883-.44 2.374-1.12.242-.335.712-.512 1.15-.428.096.017.187.048.27.092.19.1.412.175.662.223.69.132 1.442.024 1.957-.276.23-.128.497-.17.775-.117.274.052.51.19.667.387.374.472 1.036.848 1.727.98.238.044.476.057.694.034.096-.01.19-.007.293.014.43.082.805.418.908.818.208.81.997 1.65 1.798 1.91.498.162.846.734.76 1.25-.138.83.243 1.918.867 2.477.388.35.473 1.015.185 1.452zm-9.766 7.434h-.112c-.207-.004-.373-.175-.37-.383.003-.204.17-.37.375-.37l.107.002c2.995 0 5.57-2.12 6.142-5.077.32-1.644-.02-3.313-.956-4.7-.936-1.388-2.358-2.328-4.003-2.648-3.39-.658-6.686 1.566-7.347 4.96-.337 1.733.077 3.54 1.137 4.953.124.166.09.402-.075.526-.165.124-.4.09-.526-.075-1.187-1.583-1.65-3.605-1.273-5.546.74-3.8 4.432-6.29 8.227-5.555 1.842.357 3.434 1.41 4.483 2.964 1.048 1.554 1.428 3.423 1.07 5.264-.64 3.31-3.524 5.686-6.88 5.686z"/>
</svg>
