<svg xmlns="http://www.w3.org/2000/svg" viewBox="0 0 36 36">
  <path fill="#0568ae" d="M18.08 8.282c2.834 0 5.14 2.307 5.14 5.142 0 2.835-2.306 5.142-5.14 5.142s-5.143-2.307-5.143-5.142c0-2.835 2.307-5.142 5.142-5.142m9.84 2.996c-.533-.475-.866-1.434-.75-2.136.118-.7-.337-1.45-1.013-1.668-.67-.22-1.373-.96-1.55-1.647-.142-.556-.644-.99-1.2-1.094-.135-.026-.268-.034-.406-.018-.18.02-.382.007-.58-.03-.578-.11-1.178-.432-1.505-.844-.22-.277-.545-.456-.89-.522-.353-.067-.715-.018-1.03.158-.45.263-1.127.344-1.703.236-.203-.04-.392-.1-.555-.186-.118-.062-.247-.106-.38-.13-.56-.106-1.186.114-1.52.58-.417.574-1.34 1.006-2.048.964-.708-.043-1.405.49-1.553 1.184-.15.694-.812 1.465-1.475 1.714-.665.247-1.087 1.017-.94 1.71.152.697-.144 1.67-.65 2.166-.508.497-.58 1.373-.16 1.947.414.573.545 1.582.285 2.244-.26.66.027 1.49.643 1.844.613.354 1.14 1.224 1.177 1.933.028.672.57 1.282 1.228 1.407l.11.016.03.005h-.025l.206.04.21.06.125.042.302.147h-.015l-1.964 10.566-.073.386.563-.27.01-.003.013-.01.075-.034.265-.13.856-.41 1.747-.846.267-.127 2.013 1.758.415.364.056-.3 1.516-8.174 1.517 8.173.055.302.416-.364 2.01-1.758.27.127 1.746.845.858.41.264.13.073.036.02.01h.004l.56.27-.07-.385L23.81 21.45l.082-.075.252-.19.007-.003c.292-.195.607-.334.905-.378.7-.105 1.275-.772 1.273-1.48.003-.71.49-1.602 1.087-1.985.597-.38.853-1.223.563-1.87-.29-.65-.204-1.662.187-2.253.39-.593.282-1.464-.246-1.94zm-9.84 8.79c-3.67 0-6.645-2.975-6.645-6.644 0-3.67 2.975-6.644 6.644-6.644 3.67 0 6.643 2.975 6.643 6.644 0 3.67-2.974 6.644-6.644 6.644z"/>
</svg>
