<svg xmlns="http://www.w3.org/2000/svg" viewBox="0 0 36 36">
  <path fill="#0568ae" d="M21.225 31.618H7.47c-.554 0-1.003-.448-1.003-1.002s.448-1.002 1.002-1.002h.172V23.97c-.003-.526-.357-.75-.694-.93l-.013-.01c-.28-.18-.468-.49-.468-.846 0-.553.448-1.002 1.002-1.002h9.077c.415 0 .75-.336.75-.75s-.336-.752-.75-.752H7.643v-4.14c-.003-.526-.357-.75-.694-.932l-.014-.01c-.28-.178-.468-.488-.468-.845 0-.553.448-1.002 1.002-1.002h9.078c.415 0 .75-.335.75-.75s-.336-.75-.75-.75H7.643V7.11c-.003-.527-.357-.75-.694-.932l-.014-.01c-.28-.178-.468-.49-.468-.845 0-.553.448-1.002 1.002-1.002h19.658c.553 0 1.002.45 1.002 1.003 0 .35-.18.657-.452.837l-.025.02c-.338.18-.694.405-.694.936l-.005-.01v4.857c0 .53.356.755.694.937l.014.012c.28.178.466.488.466.844 0 .35-.18.657-.452.836l-.025.02c-.338.18-.694.405-.694.936l-.005-.01v3.945c-4.062.093-7.34 3.42-7.34 7.504 0 1.746.605 3.353 1.61 4.63zm11.913-4.633c0 3.32-2.69 6.01-6.01 6.01s-6.01-2.692-6.01-6.01c0-3.32 2.69-6.01 6.01-6.01s6.01 2.69 6.01 6.01zm-3.69.885c-.044-.254-.122-.498-.233-.724-.28-.568-.54-1.015-.773-1.41-.434-.74-.777-1.325-1.06-2.355-.03-.113-.134-.193-.253-.193-.12 0-.223.08-.255.194-.283 1.03-.626 1.616-1.06 2.356-.23.395-.493.843-.772 1.41-.63 1.278-.07 2.522.807 3.09.383.25.825.38 1.278.38.694 0 1.35-.303 1.798-.834.447-.53.637-1.226.52-1.912z"/>
</svg>
