<svg xmlns="http://www.w3.org/2000/svg" viewBox="0 0 36 36">
  <path fill="#0568ae" d="M7.825 31.845c-1.61 0-3.3-.53-4.746-1.974-.258-.256-.35-.63-.245-.977.107-.347.394-.606.75-.675 1.89-.37 2.156-1.145 2.558-2.318.24-.702.513-1.5 1.182-2.168.87-.868 2.062-1.472 3.274-1.656.336-.05.667-.07.982-.055.207.01.367.186.358.394-.01.207-.192.374-.393.358-.266-.012-.547.003-.835.047-1.057.16-2.098.686-2.856 1.443-.546.546-.768 1.194-1.003 1.88-.415 1.214-.808 2.36-3.126 2.812-.083.016-.15.077-.175.158-.024.08-.002.167.058.227 3.15 3.15 7.6 1.425 9.175-.15.757-.756 1.284-1.797 1.444-2.854.043-.288.06-.57.047-.836-.01-.207.15-.383.358-.392.216-.02.383.15.392.358.014.316-.004.647-.056.984-.183 1.212-.786 2.406-1.655 3.274-1.03 1.032-3.18 2.12-5.49 2.12zM31.407 9.33l-.003.006L17.2 25.042c-.178.195-.418.306-.678.313h-.024c-.25 0-.487-.098-.667-.278l-3.858-3.86c-.186-.184-.285-.43-.278-.69.006-.26.117-.5.312-.675L27.713 5.646l.007-.004c1.018-.97 2.648-.954 3.645.042.493.494.764 1.15.764 1.845 0 .674-.258 1.312-.723 1.8zm-.56-.498l.004-.004.005-.006c.338-.348.524-.808.524-1.294 0-.496-.194-.963-.545-1.315-.714-.712-1.884-.72-2.608-.02l-.005.003-.004.005L12.51 20.408l-.064.137.058.14 3.86 3.86.14.058.138-.065L30.846 8.832z"/>
</svg>
