<svg xmlns="http://www.w3.org/2000/svg" viewBox="0 0 36 36">
  <path fill-rule="evenodd" clip-rule="evenodd" fill="#0568ae" d="M22.408 23.988h-.004c.365-3.066 1.636-4.464 2.724-6.273.936-1.557 1.864-3.102 1.864-5.51h.004c0-2.48-1.01-4.728-2.638-6.357C22.728 4.218 20.48 3.21 18 3.21v.003h-.003V3.21c-2.478 0-4.725 1.008-6.355 2.637-1.63 1.63-2.638 3.878-2.638 6.358h.004c0 2.407.93 3.952 1.864 5.51 1.08 1.793 2.416 3.273 2.723 6.272.075.735.474 1.366 1.273 1.366h6.25c.42 0 1.13-.295 1.29-1.365zm-1.94 7.698s-.46 1.104-1.04 1.104h-2.857c-.58 0-1.037-1.104-1.037-1.104-.076-.183.024-.332.222-.332h4.49c.198 0 .298.15.222.332zm.953-1.332H14.58c-.414 0-.75-.336-.75-.75s.336-.75.75-.75h6.843c.415 0 .75.336.75.75s-.335.75-.75.75zm0-2.5H14.58c-.414 0-.75-.336-.75-.75s.336-.75.75-.75h6.843c.415 0 .75.336.75.75s-.335.75-.75.75z"/>
</svg>
