<svg xmlns="http://www.w3.org/2000/svg" viewBox="0 0 36 36">
  <path fill="#0568ae" d="M27.365 12.103c-.022-2.465-.996-4.783-2.747-6.534-1.772-1.773-4.124-2.75-6.624-2.75h-.003c-2.497.002-4.847.978-6.62 2.748C9.6 7.34 8.625 9.693 8.625 12.19l.004.055c.014 2.48.98 4.087 1.918 5.648l.37.605c1 1.628 2.037 3.313 2.3 5.893.108 1.052.74 1.704 1.648 1.704h6.25c.524 0 1.462-.355 1.66-1.686l.004-.063c.324-2.63 1.336-4.28 2.314-5.875l.354-.58c.93-1.547 1.89-3.146 1.915-5.6l.015-.1-.01-.087zm-.753.09c0 2.3-.88 3.764-1.81 5.314l-.35.572c-1.027 1.674-2.09 3.406-2.426 6.23l-.003.038c-.166.97-.833.997-.91.997h-6.25c-.693 0-.862-.645-.9-1.03-.283-2.75-1.413-4.587-2.41-6.21l-.368-.6c-.93-1.55-1.808-3.01-1.808-5.313l-.004-.053c.014-2.28.91-4.423 2.528-6.04 1.62-1.62 3.765-2.515 6.044-2.528h.1c2.28.013 4.424.91 6.043 2.528 1.618 1.62 2.515 3.763 2.527 6.043l-.002.05zM20.644 31.81c-.154.54-.728 1.34-1.47 1.34H16.74c-.69 0-1.206-.693-1.393-1.338-.058-.2.056-.407.256-.465.2-.06.407.057.465.256.112.385.41.797.673.797h2.436c.28 0 .646-.437.748-.795.056-.2.264-.314.463-.257.198.056.313.264.257.463zm1.648-4.03c0 .208-.168.376-.375.376h-7.843c-.207 0-.375-.168-.375-.375s.167-.374.374-.374h7.843c.206 0 .375.168.375.375zm0 2.04c0 .206-.168.374-.375.374h-7.843c-.207 0-.375-.168-.375-.375s.167-.376.374-.376h7.843c.206 0 .375.168.375.375z"/>
</svg>
