<svg xmlns="http://www.w3.org/2000/svg" viewBox="0 0 36 36">
  <path fill="#0568ae" d="M28.955 11.176h-5.31V8.914c0-1.553-1.294-2.817-2.885-2.817h-5.52c-1.592 0-2.887 1.263-2.887 2.817v2.263h-5.31c-1.59 0-2.886 1.295-2.886 2.887v12.954c0 1.592 1.294 2.887 2.886 2.887h21.912c1.592 0 2.888-1.295 2.888-2.887V14.063c0-1.592-1.296-2.887-2.888-2.887zM13.103 8.914c0-1.14.96-2.067 2.137-2.067h5.52c1.178 0 2.136.927 2.136 2.067v2.263h-9.793V8.914zm17.99 18.103c0 1.178-.96 2.137-2.138 2.137H7.043c-1.178 0-2.136-.958-2.136-2.137V14.063c0-1.178.958-2.137 2.136-2.137h21.912c1.18 0 2.138.958 2.138 2.137v12.954zm-5.126-9.244H10.033c-.207 0-.375-.168-.375-.375s.168-.375.375-.375h15.934c.207 0 .375.168.375.375s-.168.375-.375.375zm0 6.15H10.033c-.207 0-.375-.168-.375-.375s.168-.375.375-.375h15.934c.207 0 .375.168.375.375s-.168.375-.375.375z"/>
</svg>
