<svg xmlns="http://www.w3.org/2000/svg" viewBox="0 0 36 36">
  <path fill="#0568ae" d="M33.375 18.008c0 8.474-6.897 15.368-15.375 15.368S2.625 26.482 2.625 18.008C2.625 9.535 9.52 2.64 18 2.64c.373 0 .748.014 1.116.04.207.016.362.195.347.4-.015.208-.198.365-.4.348-.35-.025-.71-.038-1.063-.038-8.064 0-14.625 6.558-14.625 14.618S9.935 32.626 18 32.626c8.065 0 14.625-6.557 14.625-14.618 0-4.547-2.062-8.755-5.658-11.548l.008.163.604 4.422c.027.205-.117.394-.322.422l-.05.003c-.186 0-.346-.136-.372-.324l-.604-4.422c-.066-.48.072-.934.38-1.243.307-.31.76-.448 1.243-.387l4.427.58c.205.028.35.216.323.42-.027.206-.213.352-.42.324l-4.427-.58c-.125-.017-.24-.01-.343.018 3.787 2.938 5.96 7.367 5.96 12.153zM26.1 15.45v7.423c0 1-.815 1.814-1.815 1.814H11.723c-1 0-1.815-.814-1.815-1.814V15.45c0-1 .814-1.814 1.815-1.814h2.884V12.5c0-.98.814-1.775 1.815-1.775h3.165c1 0 1.814.796 1.814 1.774v1.136h2.885c1 0 1.815.813 1.815 1.814zm-10.743-1.814h5.294V12.5c0-.566-.477-1.025-1.063-1.025h-3.165c-.587 0-1.065.46-1.065 1.024v1.136zm9.993 1.814c0-.587-.478-1.064-1.065-1.064H11.723c-.587 0-1.065.478-1.065 1.064v7.423c0 .587.478 1.064 1.065 1.064h12.562c.587 0 1.065-.477 1.065-1.064V15.45zm-2.403 1.91c0-.206-.168-.374-.375-.374h-9.135c-.207 0-.375.168-.375.375s.168.376.375.376h9.135c.207 0 .375-.168.375-.375zm0 3.525c0-.207-.168-.375-.375-.375h-9.135c-.207 0-.375.168-.375.375s.168.375.375.375h9.135c.207 0 .375-.168.375-.375z"/>
</svg>
