<svg xmlns="http://www.w3.org/2000/svg" viewBox="0 0 36 36">
  <path fill="#0568ae" d="M29.674 25.078c-1.89 3.15-4.895 5.377-8.46 6.27-1.114.278-2.242.415-3.36.415-2.463 0-4.888-.666-7.055-1.966-6.506-3.903-8.623-12.37-4.72-18.875 2.446-4.076 6.747-6.572 11.504-6.678.632-.013 1.543.06 1.543.06.197.016.34.19.317.387l-.148 1.272c-.023.197-.204.344-.4.328 0 0-.724-.06-1.267-.047-4.068.09-7.744 2.224-9.835 5.707-1.616 2.693-2.086 5.854-1.324 8.9.763 3.048 2.665 5.615 5.36 7.23 2.69 1.617 5.853 2.087 8.9 1.325 3.047-.762 5.615-2.664 7.23-5.357 2.172-3.62 2.233-8.152.158-11.833-.356-.632-.773-1.225-1.237-1.777l-1.223 1.045c-.218.186-.416.105-.44-.182l-.348-4.29-.012-.13c-.017-.215.14-.35.35-.298l.126.03 1.995.486 1.335.325.852.207c.28.068.328.276.11.463L28.4 9.14c.547.65 1.04 1.35 1.458 2.094 2.427 4.306 2.357 9.61-.184 13.844zm-5.12-9.338v6.304c0 .672-.55 1.222-1.223 1.222H12.67c-.672 0-1.222-.55-1.222-1.222V15.74c0-.672.55-1.222 1.222-1.222h10.664c.672 0 1.222.55 1.222 1.222zm-2.312 4.616c0-.202-.164-.365-.365-.365h-7.755c-.202 0-.365.164-.365.366 0 .202.163.365.365.365h7.755c.202 0 .365-.162.365-.364zm0-2.993c0-.202-.164-.365-.365-.365h-7.755c-.202 0-.365.163-.365.365 0 .202.163.365.365.365h7.755c.202 0 .365-.163.365-.365zm-6.2-4.13c0-.32.275-.58.614-.58h2.687c.338 0 .613.26.613.58v.555h1.217v-.554c0-.99-.82-1.797-1.83-1.797h-2.687c-1.01 0-1.83.806-1.83 1.797v.554h1.216v-.554z"/>
</svg>
