<svg xmlns="http://www.w3.org/2000/svg" viewBox="0 0 36 36">
  <path fill="#0568ae" d="M17 19c-.5 0-1-.2-1.4-.6-.8-.8-.8-2 0-2.8.7-.7 2.1-.7 2.8 0 .8.8.8 2 0 2.8-.4.4-.9.6-1.4.6zm0-3.2c-.3 0-.6.1-.9.4-.5.5-.5 1.3 0 1.7.5.5 1.3.5 1.7 0 .5-.5.5-1.3 0-1.7-.2-.3-.5-.4-.8-.4zm11.3 10.9l3-.5c.3-.1.6-.2.6-.5.1-.3 0-.5-.2-.8L11.1 4.3c-.4-.4-1.1-.4-1.5 0l-.3.3c-.4.4-.5 1.1-.1 1.6l6 8.1c.1.2.4.2.5.1.2-.1.2-.4.1-.5l-6-8.1c-.1-.2-.1-.4 0-.6l.3-.3c.1-.1.4-.1.5 0l20.6 20.6-3 .5c-.3 0-.7-.1-.9-.3l-.9-.9c-.2-.2-.5-.7-.6-1l-.5-1.9c-.1-.5-.6-1-1.2-1.1l-1.8-.5c-.3-.1-.8-.4-1-.6l-1.1-1.1c-.1-.1-.4-.1-.5 0s-.1.4 0 .5l1.1 1.1c.3.3.9.7 1.4.8l1.8.5c.3.1.5.3.6.6l.5 1.9c.1.4.5 1 .8 1.4l.9.9c.3.3.8.5 1.3.5.1-.1.1-.1.2-.1zM25.7 32c.3-.1.4-.3.5-.6l.5-3c.1-.5-.1-1.2-.5-1.5l-.9-.9c-.3-.3-.9-.7-1.4-.8l-1.9-.7c-.3-.1-.5-.4-.6-.6l-.5-1.8c-.1-.4-.5-1.1-.8-1.4L19 19.6c-.1-.1-.4-.1-.5 0s-.1.4 0 .5l1.1 1.1c.2.2.5.7.6 1l.5 1.8c.1.5.6 1 1.1 1.2l1.9.5c.3.1.8.4 1 .6l.9.9c.2.2.3.6.3.9l-.5 3L4.8 10.6c-.1-.1-.1-.4 0-.5l.3-.3c.1-.1.4-.2.6 0l8.1 6c.2.1.4.1.5-.1.1-.2.1-.4-.1-.5l-8.1-6c-.4-.4-1.1-.3-1.5.1l-.3.3c-.4.4-.4 1.1 0 1.5l20.6 20.6c.2.2.4.3.6.3h.2z"/>
</svg>
