<svg xmlns="http://www.w3.org/2000/svg" viewBox="0 0 36 36">
  <g fill="#0568ae">
    <circle cx="17" cy="17" r="1.6"/>
    <path d="M19.5 18.4l1.5 1.5c.3.3.8.6 1.2.7l1.8.4c.4.1.8.5.9.9l.5 1.9c.1.4.4.9.7 1.2l.9 1c.3.3.8.5 1.2.4l3-.5c.4-.1.5-.3.2-.6L10.8 4.6c-.3-.3-.7-.3-1 0l-.3.2c-.2.3-.3.8 0 1.1l6.3 8.5c.1.2.3.2.4.1.9-.4 2-.1 2.7.6.8.8.9 1.9.6 2.8-.1.2-.2.4 0 .5zm-1.1 1.1l1.5 1.5c.3.3.6.8.7 1.2L21 24c.1.4.5.8.9.9l1.9.5c.4.1.9.4 1.2.7l1 .9c.3.3.5.8.4 1.2l-.5 3c-.1.4-.3.5-.6.2L4.6 10.8c-.3-.3-.3-.7 0-1l.3-.3c.3-.3.8-.3 1.1-.1l8.5 6.3c.2.1.2.3.1.4-.4.9-.1 2 .6 2.7.8.8 1.9.9 2.8.6.1 0 .3-.1.4.1z"/>
  </g>
</svg>
