<svg xmlns="http://www.w3.org/2000/svg" viewBox="0 0 36 36">
  <path fill="#0568ae" d="M18 30.8C8.8 30.8 1.3 25.1 1.3 18c0-3.2 3.5-6.1 7.5-6.1 4.7 0 4.8-1.6 4.9-3.3.2-1.6.3-3.4 4.3-3.4 9.2 0 16.7 5.7 16.7 12.8S27.2 30.8 18 30.8zm0-24.9c-3.3 0-3.4 1.2-3.5 2.8-.2 1.8-.4 4-5.7 4-4 0-6.7 2.8-6.7 5.3 0 6.7 7.2 12.1 16 12.1S34 24.7 34 18 26.8 5.9 18 5.9zm-4.9 12.6c0-1.8-2-3.3-4.4-3.3s-4.4 1.5-4.4 3.3c0 .5.2 1.1.5 1.5.1.2.4.2.5.1.2-.1.2-.4.1-.5-.2-.3-.4-.7-.4-1.1C5 17.1 6.6 16 8.6 16s3.6 1.1 3.6 2.5S10.8 21 8.8 21c-.2 0-.4.2-.4.4s.2.4.4.4c2.4 0 4.3-1.5 4.3-3.3zm16.5 2.2c-1.3 0-2.4-1.1-2.4-2.4s1.1-2.4 2.4-2.4S32 17 32 18.3s-1.1 2.4-2.4 2.4zm0-4.1c-.9 0-1.7.8-1.7 1.7s.8 1.7 1.7 1.7c.9 0 1.7-.8 1.7-1.7s-.8-1.7-1.7-1.7zm-4.2 10.1c-1.3 0-2.4-1.1-2.4-2.4s1.1-2.4 2.4-2.4 2.4 1.1 2.4 2.4-1 2.4-2.4 2.4zm0-4.2c-.9 0-1.7.8-1.7 1.7s.8 1.7 1.7 1.7c.9 0 1.7-.8 1.7-1.7s-.7-1.7-1.7-1.7zm.4-7.7c-1.3 0-2.4-1.1-2.4-2.4s1.1-2.4 2.4-2.4 2.4 1.1 2.4 2.4-1 2.4-2.4 2.4zm0-4.1c-.9 0-1.7.8-1.7 1.7s.8 1.7 1.7 1.7c.9 0 1.7-.8 1.7-1.7s-.7-1.7-1.7-1.7zm-6.8 2c-1.3 0-2.4-1.1-2.4-2.4s1.1-2.4 2.4-2.4 2.4 1.1 2.4 2.4-1.1 2.4-2.4 2.4zm0-4.1c-.9 0-1.7.8-1.7 1.7 0 .9.8 1.7 1.7 1.7s1.7-.8 1.7-1.7c-.1-.9-.8-1.7-1.7-1.7z"/>
</svg>
