<?xml version="1.0" encoding="utf-8"?>
<!-- Generator: Adobe Illustrator 18.1.0, SVG Export Plug-In . SVG Version: 6.00 Build 0)  -->
<svg version="1.1" id="Layer_1" xmlns="http://www.w3.org/2000/svg" xmlns:xlink="http://www.w3.org/1999/xlink" x="0px" y="0px"
	 viewBox="0 0 36 36" enable-background="new 0 0 36 36" xml:space="preserve">
<g>
	<rect fill="none" width="36" height="36"/>
	<path fill="#009FDB" d="M28.9,13.4c-0.1,0-0.2,0-0.3,0c-0.4-5.5-5-9.9-10.6-9.9c-5.6,0-10.2,4.4-10.6,9.9c-0.1,0-0.2,0-0.3,0
		c-0.9,0-1.6,0.8-1.6,1.9v5.6c0,1,0.7,1.9,1.6,1.9c0.1,0,0.2,0,0.3,0c0.3,4.2,3.1,7.8,7,9.2c0,0.6,0.5,1,1.1,1h5.1
		c0.6,0,1.1-0.5,1.1-1.1v-1.5c0-0.6-0.5-1.1-1.1-1.1h-5.1c-0.4,0-0.7,0.2-0.9,0.5c-3-1.3-5.2-4.3-5.2-7.8l0-0.1v-7.8
		c0-4.8,3.9-8.6,8.6-8.6c4.7,0,8.6,3.8,8.6,8.5v8.4c0,0.2,0.2,0.4,0.4,0.4c0,0,1,0,1.9,0c0.9,0,1.6-0.8,1.6-1.9v-5.6
		C30.5,14.3,29.8,13.4,28.9,13.4z M16.6,21v-0.6c0-0.9,0.1-1.7,0.4-2.2c0.3-0.5,0.8-1.1,1.6-1.6l0.3-0.2c0.3-0.2,0.6-0.5,0.8-0.7
		c0.2-0.2,0.3-0.5,0.4-0.7c0.1-0.2,0.1-0.5,0.1-0.8c0-0.5-0.2-1-0.7-1.3c-0.4-0.3-1-0.5-1.7-0.5c-1.1,0-2.3,0.5-3.5,1.5l-1-1.6
		c0.7-0.6,1.4-1.1,2.3-1.4c0.8-0.3,1.7-0.5,2.6-0.5c1.3,0,2.4,0.3,3.2,1c0.8,0.7,1.2,1.6,1.2,2.7c0,0.7-0.2,1.4-0.5,1.9
		c-0.3,0.6-0.9,1.2-1.7,1.7l-0.3,0.2c-0.6,0.4-1,0.8-1.2,1.2c-0.2,0.4-0.3,0.8-0.3,1.4V21H16.6z M19.1,24.4c0,0.4-0.1,0.8-0.4,1
		c-0.3,0.3-0.6,0.4-1.1,0.4c-0.4,0-0.8-0.1-1.1-0.4c-0.3-0.3-0.4-0.6-0.4-1c0-0.4,0.1-0.8,0.4-1c0.3-0.3,0.6-0.4,1.1-0.4
		c0.4,0,0.8,0.1,1.1,0.4C19,23.7,19.1,24,19.1,24.4z"/>
</g>
</svg>
