<?xml version="1.0" encoding="utf-8"?>
<!-- Generator: Adobe Illustrator 18.1.0, SVG Export Plug-In . SVG Version: 6.00 Build 0)  -->
<svg version="1.1" id="Layer_1" xmlns="http://www.w3.org/2000/svg" xmlns:xlink="http://www.w3.org/1999/xlink" x="0px" y="0px"
	 viewBox="0 0 36 36" enable-background="new 0 0 36 36" xml:space="preserve">
<g>
	<rect fill="none" width="36" height="36"/>
	<path fill="#009FDB" d="M31.2,16v5.2c0,1-0.8,1.8-1.7,1.8h-2c-0.2,0-0.4-0.2-0.4-0.4v-9c0-5-4.1-9.1-9.1-9.1c-5,0-9.1,4.1-9.1,9.1
		l0,8.8c0,0,0,0,0,0c0,3.6,2.1,6.7,5.1,8.2v-0.2c0-0.8,0.7-1.5,1.5-1.5h5.1c0.8,0,1.5,0.7,1.5,1.5v1.5c0,0.8-0.7,1.5-1.5,1.5h-5.1
		c-0.8,0-1.5-0.7-1.5-1.5v-0.5C10.7,30,8.3,26.8,8.1,23H6.5c-1,0-1.7-0.8-1.7-1.8V16c0-1,0.8-1.8,1.7-1.8h1.6l0-0.7
		c0-5.5,4.4-9.9,9.9-9.9c5.5,0,9.9,4.4,9.9,9.9v0.7h1.6C30.5,14.2,31.2,15,31.2,16z M14.8,31.9c0,0.4,0.3,0.7,0.7,0.7h5.1
		c0.4,0,0.7-0.3,0.7-0.7v-1.5c0-0.4-0.3-0.7-0.7-0.7h-5.1c-0.4,0-0.7,0.3-0.7,0.7V31.9z M6.5,22.2h1.6l0-7.2H6.5c-0.5,0-1,0.5-1,1
		v5.2C5.5,21.8,5.9,22.2,6.5,22.2z M30.5,16c0-0.6-0.4-1-1-1h-1.6v7.2h1.6c0.5,0,1-0.5,1-1V16z M17.1,20.9v-0.8
		c0-0.7,0.1-1.3,0.4-1.8c0.3-0.5,0.7-1,1.4-1.6l0.3-0.3c0.6-0.4,1-0.9,1.3-1.3c0.3-0.4,0.4-0.9,0.4-1.4c0-0.7-0.3-1.2-0.8-1.7
		c-0.5-0.4-1.2-0.6-2.1-0.6c-1.2,0-2.3,0.5-3.4,1.5l-0.5-0.7c0.5-0.5,1.2-1,1.9-1.3c0.7-0.3,1.4-0.5,2.2-0.5c1.2,0,2.1,0.3,2.8,0.9
		c0.7,0.6,1,1.3,1,2.3c0,0.6-0.2,1.2-0.5,1.7c-0.3,0.5-0.8,1-1.5,1.6l-0.3,0.3c-0.6,0.5-1,0.9-1.3,1.3c-0.2,0.4-0.4,0.9-0.4,1.5v0.8
		H17.1z M18.5,24.2c0,0.2-0.1,0.4-0.2,0.6c-0.2,0.2-0.4,0.2-0.6,0.2c-0.2,0-0.4-0.1-0.6-0.2c-0.2-0.2-0.2-0.3-0.2-0.6
		c0-0.2,0.1-0.4,0.2-0.6c0.2-0.2,0.4-0.2,0.6-0.2c0.2,0,0.4,0.1,0.6,0.2C18.4,23.8,18.5,24,18.5,24.2z"/>
</g>
</svg>
