<svg xmlns="http://www.w3.org/2000/svg" viewBox="0 0 36 36">
  <path fill="#0568ae" d="M32.046 23.22V18l.007-.032-.007-.033V7.2c0-1-.814-1.816-1.815-1.816h-2.674v-1.01c0-.994-.81-1.804-1.804-1.804-.995 0-1.805.81-1.805 1.805v1.01h-12.06v-1.01c0-.995-.81-1.805-1.805-1.805-.995 0-1.804.81-1.804 1.805v1.01H5.602c-1 0-1.815.814-1.815 1.814V28.35c0 1 .814 1.815 1.815 1.815h15.794c1.103 1.91 3.162 3.2 5.52 3.2 3.515 0 6.375-2.86 6.375-6.375.002-1.412-.465-2.713-1.244-3.77zm-10.527.397h-3.195v-5.273H24.5v2.752c-1.238.51-2.277 1.4-2.98 2.52zm-9.978 0v-5.273h6.033v5.273h-6.033zm6.032.75v5.05H11.54v-5.05h6.034zm6.927-12.46v5.686h-6.175v-5.687H24.5zm-6.926 5.686H11.54v-5.687h6.034v5.687zm-6.783 0H4.538v-5.687h6.254v5.687zm-6.253.75h6.254v5.274H4.538v-5.273zm20.714 0h6.046v4.028c-1.143-1.083-2.683-1.753-4.378-1.753-.577 0-1.134.084-1.666.23v-2.503zm-.553-13.968c0-.582.473-1.055 1.055-1.055.58 0 1.054.473 1.054 1.055v2.86c0 .58-.473 1.054-1.054 1.054-.582 0-1.055-.474-1.055-1.056v-2.86zm-15.67 0c0-.582.473-1.055 1.054-1.055.583 0 1.056.473 1.056 1.055v2.86c0 .58-.473 1.054-1.055 1.054-.58 0-1.053-.474-1.053-1.056v-2.86zm-3.425 1.76h2.675v1.1c0 .995.81 1.805 1.804 1.805s1.806-.81 1.806-1.805v-1.1h12.06v1.1c0 .995.81 1.805 1.805 1.805.996 0 1.805-.81 1.805-1.805v-1.1h2.675c.588 0 1.065.478 1.065 1.065v10.394H25.25v-5.687h1.666c.208 0 .375-.168.375-.375s-.166-.375-.374-.375H4.536V7.2c0-.588.48-1.065 1.066-1.065zM4.537 28.352v-3.985h6.254v5.05H5.603c-.587 0-1.065-.478-1.065-1.065zm13.787 1.065v-5.05h2.79c-.364.802-.572 1.69-.572 2.625 0 .858.173 1.677.482 2.425h-2.7zm8.593 3.2c-3.102 0-5.625-2.523-5.625-5.625s2.523-5.625 5.625-5.625 5.625 2.523 5.625 5.625-2.523 5.625-5.625 5.625zm.76-8.625v3.228c0 .12-.06.235-.158.305l-2.674 1.906c-.066.048-.142.07-.217.07-.118 0-.234-.054-.307-.156-.12-.17-.08-.403.087-.523l2.515-1.793v-3.034c0-.207.168-.375.375-.375s.376.167.376.374z"/>
</svg>
