<svg xmlns="http://www.w3.org/2000/svg" viewBox="0 0 36 36">
  <path fill="#0568ae" d="M27 21c-3.314 0-6 2.686-6 6 0 3.313 2.687 6 6 6s6-2.687 6-6c0-3.314-2.687-6-6-6zm0 10.5c-2.48 0-4.5-2.02-4.5-4.5s2.02-4.5 4.5-4.5 4.5 2.02 4.5 4.5-2.02 4.5-4.5 4.5zm-1.72-2.107c-.198 0-.396-.078-.543-.232-.286-.298-.276-.773.024-1.06l1.488-1.42V24.61c0-.414.336-.75.75-.75s.75.336.75.75V27c0 .205-.084.4-.232.542l-1.72 1.644c-.143.138-.33.207-.517.207zm-6.224-.614c-.198 0-.36-.163-.36-.36v-3.825c0-.198.162-.36.36-.36h.98c.223-.563.514-1.092.86-1.578h-1.84c-.198 0-.36-.162-.36-.36v-3.824c0-.198.162-.36.36-.36h3.978c.198 0 .36.162.36.36v1.955c.492-.27 1.02-.483 1.572-.64v-1.314c0-.198.162-.36.36-.36h3.978c.198 0 .36.162.36.36V20c.73.277 1.404.662 2.004 1.14V7.894c0-.594-.486-1.08-1.08-1.08h-3.41v-1.43c0-.81-.675-1.464-1.494-1.428-.78.034-1.365.74-1.365 1.522v1.336H11.51v-1.43c0-.81-.676-1.464-1.495-1.428-.78.034-1.365.74-1.365 1.52v1.338H5.24c-.594 0-1.08.486-1.08 1.08V29.72c0 .594.486 1.08 1.08 1.08h15.306c-.368-.622-.647-1.3-.823-2.02h-.667zm10.247-16.79c.198 0 .36.162.36.36v3.824c0 .198-.162.36-.36.36h-3.978c-.198 0-.36-.162-.36-.36V12.35c0-.198.162-.36.36-.36h3.978zm-2.126-3.748c0 .81-.675 1.464-1.494 1.428-.78-.034-1.365-.647-1.365-1.428h2.86zm-8.48 4.108c0-.198.16-.36.36-.36h3.977c.198 0 .36.162.36.36v3.824c0 .198-.162.36-.36.36h-3.978c-.198 0-.36-.162-.36-.36V12.35zm-7.843 16.07c0 .197-.162.36-.36.36H6.516c-.198 0-.36-.163-.36-.36v-3.825c0-.198.162-.36.36-.36h3.978c.198 0 .36.162.36.36v3.824zm0-6.124c0 .198-.162.36-.36.36H6.516c-.198 0-.36-.162-.36-.36v-3.824c0-.198.162-.36.36-.36h3.978c.198 0 .36.162.36.36v3.824zm-.84-12.626c-.78-.034-1.365-.646-1.365-1.428h2.858c0 .81-.675 1.464-1.493 1.428zm7.11 18.75c0 .197-.162.36-.36.36h-3.978c-.198 0-.36-.163-.36-.36v-3.825c0-.198.162-.36.36-.36h3.978c.198 0 .36.162.36.36v3.824zm0-6.124c0 .198-.162.36-.36.36h-3.978c-.198 0-.36-.162-.36-.36v-3.824c0-.198.162-.36.36-.36h3.978c.198 0 .36.162.36.36v3.824z"/>
</svg>
