<svg xmlns="http://www.w3.org/2000/svg" viewBox="0 0 36 36">
  <path fill-rule="evenodd" clip-rule="evenodd" fill="#0568ae" d="M19.8 28.8c.2 0 .2.1.2.3 0 0-.4.9-.8.9h-2.3c-.5 0-.8-.9-.8-.9-.1-.1 0-.3.2-.3h3.5m1-.8c.3 0 .6-.3.6-.6s-.3-.6-.6-.6h-5.5c-.3 0-.6.3-.6.6s.3.6.6.6h5.5m0-2c.3 0 .6-.3.6-.6s-.3-.6-.6-.6h-5.5c-.3 0-.6.3-.6.6s.3.6.6.6h5.5m4.5-12.7c0 2-.8 3.2-1.5 4.5-.9 1.5-1.9 2.6-2.2 5.1-.1.9-.7 1.1-1 1.1h-5.1c-.6 0-1-.5-1-1.1-.2-2.4-1.3-3.6-2.2-5.1-.8-1.3-1.5-2.5-1.5-4.5s.8-3.8 2.1-5.1C14.2 6.8 16 6 18 6c2 0 3.8.8 5.1 2.1 1.4 1.4 2.2 3.2 2.2 5.2zm-6.1 6.8c0-.5-.4-.9-.9-.9s-.9.4-.9.9.4.9.9.9c.5.1.9-.3.9-.9zm.5-4c0-.8-.6-1.4-1.4-1.4s-1.4.6-1.4 1.4c0 .8.6 1.4 1.4 1.4s1.4-.6 1.4-1.4zm.7-5.1c0-1.2-1-2.1-2.1-2.1s-2.1 1-2.1 2.1c0 1.2 1 2.1 2.1 2.1s2.1-.9 2.1-2.1z"/>
</svg>
