<svg xmlns="http://www.w3.org/2000/svg" viewBox="0 0 36 36">
  <path fill-rule="evenodd" clip-rule="evenodd" fill="#0568ae" d="M19.818 31.837c.16 0 .242.12.18.27 0 0-.37.893-.84.893H16.84c-.47 0-.84-.894-.84-.894-.063-.148.018-.27.18-.27h3.636m.953-.81c.336 0 .608-.27.608-.607s-.272-.608-.607-.608h-5.54c-.337 0-.608.272-.608.607s.272.607.607.607h5.54m0-2.025c.336 0 .608-.272.608-.607 0-.336-.272-.608-.607-.608h-5.54c-.337 0-.608.272-.608.608 0 .335.272.607.607.607h5.54m4.517-12.675h-.003c0 1.95-.752 3.2-1.51 4.463-.88 1.464-1.91 2.597-2.206 5.08h.003c-.128.867-.704 1.107-1.043 1.107h-5.064c-.648 0-.97-.51-1.032-1.107-.248-2.43-1.33-3.627-2.205-5.08-.757-1.26-1.51-2.512-1.51-4.463h-.003c0-2.01.817-3.83 2.136-5.15 1.32-1.32 3.14-2.136 5.148-2.136v.003H18V9.04c2.008 0 3.83.817 5.15 2.137 1.32 1.32 2.137 3.14 2.137 5.15zm-6.113 6.84c0-.506-.41-.917-.917-.917-.506 0-.917.41-.917.917 0 .506.41.917.917.917.507 0 .917-.41.917-.917zm.51-4.074c0-.787-.638-1.426-1.426-1.426-.788 0-1.426.638-1.426 1.426 0 .788.64 1.426 1.426 1.426.787 0 1.426-.64 1.426-1.427zM20.397 14c0-1.18-.958-2.14-2.14-2.14-1.18 0-2.138.96-2.138 2.14s.957 2.14 2.138 2.14c1.18 0 2.14-.958 2.14-2.14zM18.75 6.864V3c0-.414-.335-.75-.75-.75s-.75.336-.75.75v3.864c0 .414.337.75.75.75s.75-.335.75-.75zm13.586 9.722c0-.414-.336-.75-.75-.75h-3.864c-.414 0-.75.336-.75.75s.336.75.75.75h3.864c.414 0 .75-.335.75-.75zm-23.308 0c0-.414-.336-.75-.75-.75H4.413c-.414 0-.75.336-.75.75s.336.75.75.75h3.865c.414 0 .75-.335.75-.75zm2.678-6.26c.293-.294.293-.77 0-1.062L8.973 6.532c-.293-.293-.768-.293-1.06 0-.293.293-.293.768 0 1.06l2.732 2.734c.147.146.338.22.53.22s.384-.074.53-.22zm13.783-.01l2.73-2.73c.294-.294.294-.77 0-1.06-.292-.294-.767-.294-1.06 0l-2.73 2.73c-.294.294-.294.77 0 1.06.146.147.337.22.53.22.19 0 .382-.073.53-.22z"/>
</svg>
