<svg xmlns="http://www.w3.org/2000/svg" viewBox="0 0 36 36">
  <path fill="#0568ae" d="M15.808 30.88l-.136-.002-6.35-.227c-1.184-.072-1.886-1.02-2.366-1.836l-3.585-6.22c-.018-.03-.556-.94-.56-2.178-.002-.63.134-1.233.403-1.793.374-.777.904-1.503 1.218-1.903l-.972-.69c-.028-.02-.2-.143-.293-.334-.067-.14-.1-.28-.1-.416 0-.287.14-.537.39-.685.163-.09.367-.104.474-.104l6.446-.424c.287.01.51.15.673.418l.053.112.02.05 1.79 5.965.074.19.04.205.005.073c-.01.286-.16.54-.4.676-.255.153-.627.13-.892-.064l-1.123-.797c-.826.998-3.704 4.71-3.108 7.382l.092.16c.385.656.933 1.416 1.753 1.466l6.45.23.172-.05c.112-.066.184-.178.198-.308l.006-.068-.007-.083.046-4.932-.002-.047c0-.092-.017-.16-.052-.22-.067-.114-.187-.19-.32-.202l-.522.006c-.763.006-1.762.015-2.775.018-.652 0-1.31 0-1.915-.003-.207-.002-.374-.172-.372-.38.002-.206.165-.352.378-.37.604.004 1.258.004 1.907.002 1.01-.003 2.01-.012 2.77-.018l.56-.005c.407.032.745.245.937.57.102.176.155.377.155.583v.058l-.043 4.92.008.105-.012.16c-.04.358-.246.677-.566.863-.165.095-.354.148-.55.153zM10.36 14.814l-.09.004-6.3.424-.162.014.03.114.048.045 1.305.927c.087.06.144.156.156.26.013.106-.02.212-.09.292-.008.01-.863 1.003-1.37 2.056-.22.458-.33.95-.33 1.466.005 1.023.455 1.794.46 1.8l2.7 4.688c.373-3.164 3.408-6.595 3.558-6.763.127-.143.34-.168.497-.057l1.407.998.07.028.032-.037-.013-.063-.026-.062-.033-.08-1.82-6.03-.026-.022zm2.992-.503c-.2 0-.4-.054-.577-.157l-.056-.03-4.234-2.496-.098-.05-.128-.087c-.288-.212-.46-.55-.463-.92 0-.19.05-.38.142-.55l.07-.118 3.373-5.387c.663-1 1.9-1.123 2.773-1.13l7.177.005c.044-.004 1.097-.01 2.17.604.546.313 1 .733 1.35 1.248.486.71.85 1.533 1.038 2.005l1.085-.497c.03-.015.225-.102.436-.088.153.01.29.052.41.122.248.14.394.388.4.677-.003.205-.108.398-.152.472l-2.852 5.79c-.107.172-.308.366-.7.373l-.12-.008-.054-.01-6.063-1.43-.203-.03-.197-.067-.065-.033c-.243-.153-.387-.41-.386-.684-.002-.128.034-.266.1-.383.09-.156.232-.28.4-.357l1.252-.574c-.45-1.216-2.227-5.564-4.84-6.384h-.184c-.758.005-1.69.098-2.145.785L8.59 10.395l-.042.176c0 .128.062.247.167.325l.05.035.08.038 4.295 2.53c.054.032.125.063.21.063.136 0 .26-.064.337-.176l.293-.522c.37-.655.847-1.496 1.333-2.345.325-.566.654-1.134.96-1.656.105-.178.335-.237.513-.133.18.105.24.335.134.513-.305.52-.633 1.086-.956 1.65-.486.847-.96 1.687-1.33 2.34l-.293.518-.038.065c-.216.308-.57.494-.947.497h-.003zm11.137-.968l.053.004.036-.01.043-.083 2.782-5.666.07-.146-.114-.03-.063.018-1.457.668c-.096.044-.207.046-.304.004-.097-.042-.172-.122-.207-.222-.005-.012-.436-1.25-1.097-2.213-.286-.42-.656-.764-1.104-1.02-.894-.512-1.773-.5-1.79-.505l-5.41-.003c2.554 1.904 4.008 6.248 4.08 6.462.058.18-.028.378-.2.457l-1.567.718-.06.05.017.044.063.02.064.01.088.01 6.074 1.432zm-2.115 19.272c-.132 0-.264-.034-.388-.103-.152-.09-.26-.244-.328-.357l-3.594-5.374c-.137-.254-.125-.518.028-.794l.064-.097.036-.045 4.272-4.537.126-.157.158-.137.06-.04c.253-.134.547-.13.786.006.115.064.218.166.285.285.087.148.126.332.11.517l-.13 1.373c1.277.218 5.932.852 7.947-1l.092-.16c.374-.66.76-1.513.393-2.25l-3.027-5.702-.13-.123c-.113-.065-.246-.07-.365-.02l-.06.03-.068.047-4.34 2.455c-.074.043-.126.093-.16.152-.067.118-.072.256-.015.38l.247.415c.39.66.905 1.536 1.422 2.426.328.563.656 1.133.955 1.66.103.18.04.41-.14.51-.182.103-.41.04-.51-.14-.298-.525-.625-1.092-.95-1.652-.518-.89-1.033-1.763-1.422-2.424l-.198-.336-.057-.096-.024-.045c-.162-.342-.145-.742.042-1.07.1-.174.247-.32.426-.424l.055-.033 4.276-2.417.084-.056.144-.07c.327-.145.715-.125 1.032.057.163.094.304.232.406.397l.067.122 2.98 5.613c.535 1.075.02 2.208-.41 2.967l-3.593 6.213c-.018.033-.537.954-1.607 1.576-.544.315-1.134.498-1.755.545-.858.065-1.753-.03-2.256-.103l-.112 1.187c-.002.032-.023.24-.14.418-.09.13-.192.226-.31.294-.132.075-.268.112-.405.112zm-3.615-6.276l-.03.042-.01.04.05.077 3.516 5.243.033.056.06.08.084-.087.014-.063.15-1.594c.01-.105.064-.202.148-.265.085-.064.193-.088.296-.068.013.002 1.3.246 2.464.157.507-.038.99-.188 1.435-.446.886-.513 1.33-1.29 1.333-1.297l2.707-4.683c-2.926 1.26-7.414.346-7.634.3-.187-.038-.314-.21-.297-.4l.16-1.716-.01-.074-.05-.01-.05.043-.04.052-.052.07-4.278 4.543z"/>
</svg>
