<svg xmlns="http://www.w3.org/2000/svg" viewBox="0 0 36 36">
  <path fill="#0568ae" d="M32.335 22.442l-3.442 5.953s-.478.862-1.47 1.44c-.435.252-.965.45-1.595.496-1.23.095-2.564-.162-2.564-.162l-.15 1.587s-.01.143-.08.248c-.053.077-.117.137-.186.177-.13.076-.278.08-.418.003-.08-.048-.16-.177-.185-.22l-.01-.014-3.528-5.265-.055-.094c-.078-.144-.046-.283.03-.422l.046-.066 4.298-4.565.102-.13.118-.102c.133-.07.29-.077.422 0 .062.035.113.087.147.146.05.087.07.192.06.298l-.16 1.715s6.055 1.172 8.62-1.02zm-.974-1.14c.976-.78 1.51-1.643.992-2.736l-2.44-4.598-.057-.104c-.066-.106-.157-.202-.274-.27-.222-.127-.482-.132-.7-.036l-.1.048-.064.045-4.294 2.43-.05.03-.008.003c-.115.066-.217.162-.287.285-.133.232-.135.5-.03.725l.066.11c.4.682 1.01 1.71 1.62 2.76.225.39.816 1.472 1.257 2.278l.258.005c1.917 0 3.378-.345 4.113-.973zm-20.54-.913l1.404.996c.086.06.188.096.287.096.068 0 .14-.018.2-.054.134-.076.206-.216.212-.366l-.028-.152-.062-.153-1.805-6.005-.034-.072c-.082-.136-.186-.234-.35-.24h-.11l-6.323.425h-.017c-.05 0-.202.006-.283.05-.137.082-.207.213-.206.364 0 .08.02.164.06.25.056.11.175.192.175.192l1.298.923s-.89 1.026-1.423 2.14c-.274.568-.37 1.126-.368 1.628.003 1.15.51 1.994.51 1.994l3.435 5.957c-.615-3.317 3.427-7.975 3.427-7.975zm-1.952 7.7c.188 1.234.67 2.127 1.874 2.226l5.202.186.118.003c.125-.004.253-.035.37-.103.22-.13.355-.352.382-.59l.007-.108-.006-.08.045-4.932-.002-.06v-.007c0-.133-.032-.27-.103-.39-.135-.232-.366-.368-.613-.39l-.128.002c-.79.006-1.987.018-3.2.022-.45 0-1.683-.03-2.602-.05l-.132.222c-.958 1.66-1.39 3.098-1.212 4.048zm11.037-17.374l-1.566.718c-.097.044-.178.115-.228.2-.034.06-.054.13-.053.2 0 .154.083.287.21.367l.147.053.164.022 6.104 1.44.08.006c.16-.002.296-.043.382-.184l.054-.094 2.794-5.688.008-.015c.024-.044.096-.18.098-.27-.003-.16-.08-.287-.212-.36-.07-.04-.153-.066-.246-.073-.125-.007-.255.055-.255.055l-1.45.664s-.443-1.283-1.14-2.302c-.356-.522-.792-.883-1.227-1.133-.997-.57-1.982-.553-1.982-.553l-6.876-.004c3.18 1.124 5.193 6.953 5.193 6.953zm-5.694-5.54c-1.162-.454-2.176-.484-2.864.51l-2.762 4.412-.062.1c-.06.11-.096.238-.096.372 0 .257.126.485.32.626l.09.06.07.035 4.25 2.506.053.03.006.003c.115.066.248.106.39.105.268 0 .5-.133.642-.337l.063-.112c.39-.69.98-1.73 1.583-2.783.223-.39.866-1.443 1.343-2.228l-.126-.226c-.958-1.66-1.988-2.752-2.9-3.074z"/>
</svg>
