<svg xmlns="http://www.w3.org/2000/svg" viewBox="0 0 36 36">
  <path fill="#0568ae" d="M26.064 31.776H13.66c-.208 0-.376-.168-.376-.375s.168-.374.375-.374h12.404c.207 0 .375.168.375.375s-.17.376-.376.376zm5.43-26.413l-3.484 8.31c-.086.204-.227.448-.384.678-.023.067-.065.12-.118.163-.11.148-.22.287-.326.392L13.158 28.928l-.926.926v.002l-.925.924c-.57.57-1.32.852-2.083.852-.8 0-1.612-.312-2.234-.934L5.303 29.01c-1.213-1.213-1.25-3.15-.084-4.317l1.85-1.852L21.095 8.82c.3-.3.843-.665 1.235-.83l8.307-3.484c.443-.186.69-.007.778.078.086.086.266.334.08.78zM11.436 29.59L6.41 24.564l-.66.66c-.875.875-.838 2.336.082 3.257L7.52 30.17c.92.92 2.38.957 3.255.082l.66-.66zM29.242 8.792l-2.034-2.035-4.59 1.924c-.3.127-.764.44-.994.668L7.602 23.37l-.662.663 5.027 5.026.662-.663L26.504 14.52c-1.07-.208-2.213-.85-3.184-1.824-.457-.457-.847-.957-1.158-1.485-.105-.177-.046-.408.133-.513.18-.106.41-.046.514.133.277.473.628.922 1.042 1.335.99.99 2.185 1.6 3.214 1.67.104-.16.198-.324.254-.456l1.922-4.588zm1.47-3.504l-2.757 1.156 1.6 1.6 1.157-2.756z"/>
</svg>
