<svg xmlns="http://www.w3.org/2000/svg" viewBox="0 0 36 36">
  <path fill="#0568ae" d="M33.4 10.3c-.1-.5-.6-.9-1.1-.9h-4.9c-.5 0-1.2.3-1.5.6l-1.7 1.5c-.2-.5-.3-.9-.5-1.2 1-1 1.6-2.4 1.6-3.7 0-.3 0-.5-.3-.7-.3-.1-.7 0-.7.3-.4 1.4-1.9 2.1-3.5 2.3-.9-.2-1.9-.4-2.9-.4s-2.1.2-2.9.4c-1.6-.3-3.1-1-3.5-2.3 0-.2-.3-.3-.6-.2-.3.1-.3.4-.3.7 0 1.3.6 2.7 1.6 3.7-.1.2-.3.7-.5 1.2L10.1 10c-.4-.3-1-.6-1.5-.6H3.7c-.5 0-1 .4-1.1.9 0 0-.8 3.9 8.2 4 0 .1 0 .1-.1.2-.2.5-.2 1.4-.1 1.9l2.6 7.5c-.2.3-.4.8-.4 1.2v1.4c0 1 .4 3.8 5.1 3.8s5.1-2.8 5.1-3.8v-1.4c0-.4-.1-.8-.3-1.1l2.6-7.6c.2-.5.1-1.4-.1-1.9 0 0 0-.1-.1-.2 9.1-.2 8.3-4 8.3-4zm-12.1 3.1c-.8 1.2-1.7 2.9-1.7 4.7 0 2.2-.5 4.7 1.1 6.7l.1.1c.2.2.4.5.4.6v1.1c0 1.2-1 1.8-3.1 1.8s-3.1-.6-3.1-1.8v-1.1s.1-.3.1-.4.1-.1.3-.3c1.5-1.9 1.1-4 1.1-6.7 0-1.7-1-3.7-1.7-4.7-.5-.5.1-1.4 3.2-1.4s3.5 1 3.3 1.4z"/>
</svg>
