<svg xmlns="http://www.w3.org/2000/svg" viewBox="0 0 36 36">
  <g fill="#0568ae">
    <path d="M33.8 10.2C33.6 9.6 33 9 32.3 9h-4.9c-.6 0-1.4.3-1.8.7L24 11.1c-.1-.4-.3-.7-.4-.9-.1-.3-.6-.6-1.1-1 1.7-.6 3.1-1.8 3.8-3.5.1-.2 0-.4-.2-.5-.2-.1-.4 0-.5.2-.7 1.7-2.3 3-4.1 3.3h-.1c-1-.4-2.2-.6-3.5-.6-1.3 0-2.5.3-3.5.6h-.1c-1.8-.3-3.4-1.6-4.1-3.3 0-.1-.2-.2-.4-.1s-.2.3-.2.5c.7 1.7 2.1 2.9 3.8 3.5-.6.3-1 .7-1.1 1-.1.2-.2.5-.4.9l-1.6-1.4C9.9 9.3 9.1 9 8.6 9H3.7c-.7 0-1.3.6-1.5 1.2 0 0-.2 1.1.7 2.1 1.2 1.5 3.8 2.3 7.8 2.4-.1.5-.1 1.2 0 1.7l1.9 5.6c.1.2.2.3.4.3h.1c.2-.1.3-.3.2-.5l-1.9-5.6c-.1-.4-.1-1.1.1-1.4.4-1.2 1.2-3.6 1.5-4.1.2-.6 2.4-1.7 5-1.7s4.8 1.1 5.1 1.6c.3.5 1.1 2.9 1.5 4.1.1.4.2 1 .1 1.4l-1.9 5.6c-.1.2 0 .4.2.5h.1c.2 0 .3-.1.4-.3l1.9-5.6c.1-.5.1-1.2 0-1.7 3.9-.1 6.5-.9 7.8-2.4.8-.9.6-2 .6-2zm-22.9 3.7c-4.7-.1-6.6-1.2-7.4-2.1-.6-.7-.5-1.4-.5-1.4 0-.3.4-.6.7-.6h4.9c.4 0 1 .2 1.3.5l1.8 1.6c-.3.7-.6 1.5-.8 2zm21.6-2c-.8.9-2.7 2-7.4 2.1-.2-.5-.5-1.3-.7-2.1l1.8-1.6c.3-.3.9-.5 1.3-.5h4.9c.3 0 .6.3.7.6-.1 0 0 .7-.6 1.5z"/>
    <path d="M22.8 23.5l-.3-.2c-1.2-1-2.5-2.9-2.5-5.2 0-1.5.2-3.6 1.3-5.5.1-.2 0-.4-.1-.5-.2-.1-.4 0-.5.1-.9 1.6-1.4 3.6-1.4 5.9 0 2.5 1.4 4.6 2.8 5.7l.3.3c.2.1.4.6.4 1.1v1.4c0 1-.5 3.4-4.7 3.4s-4.7-2.4-4.7-3.4v-1.4c0-.5.2-.9.4-1l.3-.2c1.8-1.4 2.8-3.5 2.8-5.8 0-2.2-.5-4.3-1.4-5.9-.3-.3-.5-.3-.7-.2-.2.1-.2.3-.1.5 1.1 1.9 1.3 4 1.3 5.5 0 2.1-.9 4-2.5 5.2l-.2.2c-.5.3-.7 1.1-.7 1.7v1.4c0 1 .4 4.2 5.5 4.2s5.5-3.2 5.5-4.2v-1.4c-.1-.8-.4-1.5-.8-1.7z"/>
  </g>
</svg>
