<svg xmlns="http://www.w3.org/2000/svg" viewBox="0 0 36 36">
  <path fill="#0568ae" d="M30.24 4.027c-4.514.08-10.015 1.316-14.97 4.666-1.088 1.253-2.127 3.066-2.713 4.6.06-.857.284-1.97.508-2.93-.675.57-1.338 1.178-1.978 1.843-3.242 3.37-3.503 7.24-3.134 10.222 3.553-4.7 8.047-8.31 11.58-10.706.962-.667 1.877.65.84 1.24-3.753 2.546-8.622 6.5-12.164 11.68-.59.884-1.155 1.8-1.68 2.746l-.042.077c-.553 1.007-1.063 2.05-1.514 3.127-.213.51.026 1.095.536 1.31.51.213 1.096-.028 1.31-.537.768-1.835 1.712-3.57 2.764-5.194 3.185-.194 7.133-.258 10.924-3.387-1.452.067-3.05-.03-4.01-.618 1.624.093 4.27-.804 6.186-1.564.404-.484.803-1.012 1.198-1.59.4-.582.792-1.214 1.18-1.9-.604.142-1.28.277-1.973.37-.946.13-1.928.18-2.818.074 1.96-.77 4.384-2.004 6.02-2.874.49-1.067.966-2.227 1.425-3.508.658-1.767 2.497-3.96 3.58-4.922 1.707-1.517 3.304-2.362-1.056-2.223z"/>
</svg>
