<svg xmlns="http://www.w3.org/2000/svg" viewBox="0 0 36 36">
  <path fill="#0568ae" d="M30.8 10.1H22c-.4 0-.6-.5-1.3-.5H9.4c-1 .2-1.5.7-1.7 1.7-.1.7-.3 1.9-.3 1.9-.1.5.1 1.2.4 1.6l.3.3c.3.4.2 1.1 0 1.6l-3.3 8.7c-.2.5.1.9.6.9h5.2c.5 0 1.1-.4 1.2-.9l1.7-5.3c.2-.5.7-.9 1.2-.9h1.9c.9 0 1.7-.5 2.4-1.2.8-.6 3-3 3-3 .2-.2.5-.3.7-.3h7.2c.3 0 .5-.2.5-.5V13c0-.2.2-.4.4-.4h.1c.2 0 .4-.2.4-.4v-1.7c0-.3-.2-.4-.5-.4m-11 5.4c-.6.7-1.3 1.4-1.5 1.7-.7.7-1.2.8-1.5.8h-1.6c-.4 0-.7-.2-.8-.8V16c0-.7.3-1.3 1-1.3h3.9c.6 0 .8.4.5.8"/>
</svg>
