<svg xmlns="http://www.w3.org/2000/svg" viewBox="0 0 36 36">
  <g fill="#0568ae">
    <path d="M20.3 14.3h-5c-.7 0-1.1.7-1.1 1.6v1.2c.1.7.5 1.1 1.1 1.1H17c.2 0 .4-.2.4-.4s-.2-.4-.4-.4h-1.7c-.2 0-.4 0-.4-.5V16c0-.4.1-.9.4-.9h5c.2 0 .4-.2.4-.4-.1-.2-.2-.4-.4-.4"/>
    <path d="M30.8 9.8H22c-.1 0-.2-.1-.3-.1-.2-.1-.5-.3-1-.3H10.3c-.7 0-1.3 0-1.8.3-.6.4-.9.9-1 1.7-.1.7-.3 1.8-.3 1.8-.1.6.1 1.5.5 1.9l.3.3c.2.2.1.6-.1 1.2l-3.3 8.7c-.1.3-.1.7.1.9.2.3.5.4.9.4h5.2c.7 0 1.4-.5 1.6-1.1l1.6-4.9c.1-.3.5-.7.9-.7h1.9c.6 0 1.2-.1 1.5-.4.4-.2.8-.5 1.3-.9.9-.9 3.2-3.5 3.2-3.5.1-.1.3-.2.4-.2h6.7c.5 0 .8-.4.8-.8V13h.1c.4 0 .8-.3.8-.8v-1.9c0-.2-.3-.5-.8-.5m.1 2.5c0 .1 0 .1 0 0l-7.3.1c-.2 0-.4.2-.4.4s.2.4.4.4H30v1.1c0 .1-.1.1-.1.1h-6.7c-.3 0-.7.2-1 .4 0 0-2.4 2.5-3.2 3.5-.4.4-.7.6-1.1.8-.2.1-.7.2-1.2.2h-1.9c-.7 0-1.4.5-1.6 1.1l-1.6 4.9c-.2.4-.6.7-1 .7H5.4c-.1 0-.2 0-.3-.1v-.3l3.3-8.7c.3-.9.3-1.5 0-1.9l-.3-.3c-.3-.3-.4-.9-.4-1.3 0 0 .2-1.1.3-1.9.1-.6.3-1 .7-1.2.4-.3 1-.3 1.6-.3h10.4c.3 0 .4.1.6.2.2.1.4.2.6.2h9v1.9z"/>
  </g>
</svg>
