<svg xmlns="http://www.w3.org/2000/svg" viewBox="0 0 36 36">
  <path fill="#0568ae" d="M27 22c-3.313 0-6 2.686-6 6 0 3.313 2.687 6 6 6s6-2.687 6-6c0-3.314-2.687-6-6-6zm1.796 8.792c-.448.53-1.102.833-1.795.833-.45 0-.892-.132-1.274-.38-.875-.567-1.434-1.81-.806-3.084.278-.566.54-1.013.77-1.408.434-.74.776-1.322 1.058-2.35.032-.115.136-.194.253-.194.12 0 .223.08.255.193.282 1.03.624 1.613 1.057 2.352.23.394.494.84.77 1.408.113.226.19.47.233.722.116.687-.073 1.382-.52 1.91zm-4.8-9.66V11.41c0-.792-.65-1.44-1.44-1.44H12.093c-.792 0-1.44.648-1.44 1.44v19.32c0 .79.648 1.44 1.44 1.44h8.675c-.8-1.194-1.27-2.628-1.27-4.17 0-3.067 1.852-5.706 4.495-6.867zm-9.45-3.3c-.226-.44-.345-.933-.345-1.43 0-1.722 1.402-3.123 3.125-3.123s3.123 1.4 3.123 3.122c0 .49-.12.986-.35 1.438-.104.206-.337.344-.582.344l-4.392-.005c-.246 0-.467-.134-.577-.347zM20.42 8.47h-2v-5.3c0-.55.447-1 1-1 .552 0 1 .45 1 1v5.3zm-4.564 0h-2V5.705c0-.44-.36-.8-.8-.8H9.272c-.552 0-1-.448-1-1s.448-1 1-1h3.782c1.544 0 2.8 1.256 2.8 2.8V8.47zm3.13 6.47l-1.26 2.44c-.07.116-.194.195-.338.195-.22 0-.395-.177-.395-.395 0-.098.037-.186.096-.255l1.693-2.118c.036-.057.112-.073.17-.036.056.037.072.113.035.17"/>
</svg>
