<svg xmlns="http://www.w3.org/2000/svg" viewBox="0 0 36 36">
  <path fill="#0568ae" d="M28.182 22.065c2.258 0 4.09 1.83 4.09 4.09 0 2.257-1.83 4.088-4.09 4.088-2.258 0-4.09-1.83-4.09-4.09 0-2.257 1.832-4.088 4.09-4.088m1.733-5.974h-5.23v-4.53c0-3.96-3.223-7.18-7.183-7.18-3.39 0-6.35 2.407-7.042 5.75L7.238 27.624h-3.27c-.48 0-.87.392-.87.87v.88c0 .48.39.87.87.87h8.586c.48 0 .87-.39.87-.87v-.88c0-.478-.39-.87-.87-.87H9.78l3.133-17.01C13.36 8.45 15.29 6.88 17.5 6.88c2.583 0 4.683 2.102 4.683 4.683v4.54c-4.21.122-7.588 3.564-7.588 7.804v3.05c0 1.15.943 2.094 2.096 2.094h6.72c-.515-.845-.818-1.834-.818-2.894 0-3.082 2.507-5.59 5.59-5.59 1.374 0 2.632.502 3.607 1.33v-3.928c0-1.033-.844-1.877-1.875-1.877z"/>
</svg>
