<svg xmlns="http://www.w3.org/2000/svg" viewBox="0 0 36 36">
  <path fill="#0568ae" d="M18 3.072C9.77 3.072 3.072 9.77 3.072 18c0 1.1.12 2.196.357 3.258.044.202.244.327.447.285.202-.045.33-.246.284-.448-.173-.778-.278-1.575-.32-2.378 1.682-.276 5.203-.864 5.597-.936.168.02.47.103.55.27.073.15-.022.44-.26.79-.814 1.192-1.045 2.143-.685 2.823.342.647 1.142.96 2.45.96 1.304 0 2.104-.314 2.446-.96.36-.682.13-1.633-.686-2.826-.238-.35-.332-.637-.258-.79.083-.17.402-.252.565-.268.288.024 2.52.22 4.086.44-.237 1.672-.448 4.12-.458 4.234v.054c.005.092.07.913.687 1.216.418.205.94.1 1.544-.312.918-.627 1.645-.855 2.05-.64.365.192.56.8.563 1.756v.03c0 .972-.194 1.588-.563 1.783-.403.215-1.132-.013-2.05-.64-.605-.412-1.124-.518-1.544-.313-.617.302-.684 1.124-.69 1.216l.007.09c.006.03.654 3.67.96 5.48L18 32.18c-2.413 0-4.795-.617-6.89-1.783-.18-.102-.41-.036-.51.145-.1.18-.035.41.146.51 2.205 1.23 4.714 1.878 7.254 1.878 8.232 0 14.928-6.697 14.928-14.928 0-8.23-6.696-14.928-14.928-14.928zm14.153 14.11L27 18.097c-.146.038-.318.014-.41-.057l-.063-.133c.002-.115.194-.473.334-.735.304-.568.648-1.212.648-1.82 0-1.174-1.314-2.243-2.764-2.243h-.002c-.703 0-1.385.242-1.92.683-.53.437-.834 1.005-.834 1.558 0 .61.343 1.254.646 1.822.14.262.332.62.334.735l-.063.135c-.092.07-.265.094-.458.046l-3.952-.504.488-3.84c.1-.374.027-.78-.187-1.058-.176-.23-.435-.355-.728-.356-.297 0-.647.186-1.09.423-.465.25-1.045.558-1.466.558-.676 0-1.492-.894-1.492-2.012 0-1.112.815-2.007 1.49-2.007.422 0 1.003.31 1.47.56.44.235.79.422 1.09.422.29 0 .548-.126.724-.354.215-.278.287-.685.195-1.033l-.944-5.06c7.522.022 13.682 5.933 14.107 13.357zm-14.4.295c-1.67-.233-4.05-.438-4.16-.447h-.055c-.093.004-.913.07-1.215.686-.206.42-.1.938.31 1.544.63.92.856 1.647.643 2.052-.194.367-.81.56-1.783.56h-.007c-.97 0-1.585-.193-1.78-.56-.213-.404.015-1.133.64-2.05.414-.606.52-1.126.314-1.545-.302-.616-1.124-.684-1.216-.69l-.09.006c-.03.005-3.734.628-5.53.925C3.843 10.4 9.81 4.213 17.283 3.84l.972 5.206c.038.146.014.32-.058.413l-.13.06c-.116 0-.475-.193-.738-.333-.566-.304-1.21-.647-1.82-.647-1.173 0-2.24 1.314-2.24 2.765 0 1.442 1.068 2.756 2.24 2.756.61 0 1.253-.342 1.82-.646.263-.14.623-.332.736-.334l.135.063c.07.092.095.265.047.46l-.495 3.874zm1.154 14.67c-.284-1.702-.896-5.15-.967-5.537.02-.168.102-.47.268-.55.152-.073.44.022.79.26 1.194.815 2.144 1.045 2.825.685.642-.34.956-1.13.96-2.42v-.03c0-1.304-.314-2.104-.96-2.446-.683-.36-1.633-.13-2.825.684-.35.238-.64.334-.79.26-.17-.084-.252-.403-.27-.565.027-.295.23-2.592.45-4.163l3.914.497c.375.1.78.028 1.06-.186.228-.176.354-.435.354-.73 0-.296-.186-.645-.422-1.087-.25-.465-.558-1.045-.558-1.467 0-.323.21-.69.56-.98.396-.325.922-.512 1.45-.512h.002c1.112 0 2.008.817 2.008 1.493 0 .42-.31 1-.56 1.468-.234.443-.42.792-.42 1.09 0 .293.125.55.354.727.278.215.684.286 1.03.194l5.015-.888v.06c.003 7.51-5.87 13.674-13.268 14.144z"/>
</svg>
