<svg xmlns="http://www.w3.org/2000/svg" viewBox="0 0 36 36">
  <path fill="#0568ae" d="M6.51 16.578c-.172.054-2.333.56-3.495.837.293-7.643 6.304-13.817 13.88-14.37.306 1.13 1.01 3.64 1.096 3.91.003.007.14.595-.202.722-.086.032-.105.038-.452-.116-.446-.196-1.116-.493-2.304-.452-.843.03-1.546.358-2.032.95-.906 1.104-.74 2.645-.667 3.09.243 1.495.992 2.55 2.054 2.894 1.15.373 2.55-.3 3.28-.735.178-.105.383-.088.507-.025.108.056.128.125.133.183.01.233-.27 1.083-.492 1.766-.163.498-.338 1.042-.504 1.61-1.288-.3-3.224-.707-3.97-.643-.604.052-1.11.395-1.393.942-.313.608-.287 1.36.07 1.958.488.822.728 1.647.597 2.052-.163.502-.802.89-1.708 1.037-.614.1-1.437.032-1.896-.346-.257-.21-.39-.513-.404-.924-.03-.84.16-1.27.326-1.646.178-.403.4-.903.15-1.576-.436-1.19-1.768-1.368-2.573-1.116zm11.796-7.494c-.672.248-1.174.027-1.576-.15-.377-.168-.802-.353-1.646-.327-.412.014-.714.146-.925.404-.378.46-.446 1.285-.347 1.898.147.907.535 1.545 1.037 1.708.405.13 1.23-.11 2.052-.598.6-.356 1.35-.382 1.958-.07.547.282.89.79.942 1.394.042.487-.164 1.143-.56 2.356-.154.468-.32.978-.474 1.504.71.194 1.388.414 2 .614.683.224 1.556.502 1.766.492.058-.005.127-.025.183-.133.064-.124.08-.33-.024-.507-.435-.73-1.108-2.13-.735-3.28.344-1.063 1.4-1.812 2.894-2.055.447-.072 1.987-.24 3.09.667.592.487.92 1.19.95 2.032.042 1.184-.256 1.858-.453 2.304-.155.348-.148.366-.117.452.127.343.715.204.72.203.26-.08 2.676-.625 3.926-.91-.47-7.715-6.764-13.85-14.542-14.07.308 1.143.94 3.325.994 3.5.252.804.072 2.136-1.116 2.574zm-.612 17.832c.673-.248 1.174-.026 1.576.15.377.168.802.355 1.646.327.412-.014.714-.147.925-.404.378-.46.446-1.285.347-1.898-.147-.907-.535-1.545-1.037-1.708-.404-.13-1.23.11-2.052.598-.6.356-1.35.383-1.958.07-.547-.282-.89-.79-.942-1.394-.07-.83.437-3.12.735-4.368-1.838-.425-3.12-.624-3.464-.6-.062.006-.13.026-.187.134-.064.124-.08.33.024.506.435.73 1.108 2.13.735 3.28-.345 1.063-1.4 1.812-2.894 2.055-.153.025-.434.06-.782.06-.668 0-1.583-.13-2.308-.726-.593-.488-.922-1.19-.95-2.033-.043-1.184.255-1.858.452-2.304.153-.348.147-.366.116-.45-.126-.344-.714-.206-.72-.204-.27.083-2.77.672-3.923.946.483 7.665 6.72 13.764 14.443 14.03-.326-1.292-.85-3.34-.9-3.497-.25-.805-.07-2.137 1.118-2.574zm15.29-8.294c-1.23.284-3.33.75-3.493.8-.805.252-2.137.072-2.574-1.116-.248-.672-.027-1.173.15-1.576.168-.377.356-.805.327-1.646-.014-.41-.146-.714-.404-.925-.46-.378-1.285-.447-1.897-.347-.894.146-1.548.543-1.708 1.037-.13.405.11 1.23.598 2.052.356.6.383 1.35.07 1.96-.282.546-.79.89-1.394.94l-.128.006c-.474 0-1.118-.203-2.23-.566-.588-.193-1.242-.404-1.912-.59-.493 2.062-.728 3.518-.697 3.88.005.06.025.13.133.186.124.064.33.08.506-.025.732-.435 2.132-1.11 3.28-.735 1.064.345 1.812 1.4 2.055 2.894.073.446.24 1.986-.667 3.09-.486.592-1.19.92-2.032.95-1.202.04-1.858-.256-2.305-.453-.348-.155-.366-.15-.45-.117-.344.126-.206.715-.204.72.077.248.67 2.584 1.005 3.918 7.606-.507 13.657-6.68 13.97-14.338z"/>
</svg>
