<svg xmlns="http://www.w3.org/2000/svg" viewBox="0 0 36 36">
  <path fill="#0568ae" d="M30.642 8.244l-4.587-4.58c-.426-.426-1.122-.43-1.55-.006-.016.015-1.58 1.54-2.964 1.54-1.396 0-2.733-1.095-2.746-1.105-.445-.37-1.14-.37-1.586 0-.013.01-1.35 1.106-2.747 1.106-1.38 0-2.948-1.525-2.963-1.54-.428-.423-1.124-.42-1.55.004l-4.59 4.58c-.415.416-.46 1.107-.102 1.574.02.025 1.933 2.538 1.933 4.593 0 1.884-.525 3.404-1.033 4.875-.642 1.86-1.25 3.616-.574 5.707 1.126 3.482 3.77 4.186 6.327 4.866 2.038.542 4.145 1.103 5.777 3l.07.08c.07.06.158.09.243.09H18c.087 0 .173-.03.244-.09l.07-.08c1.633-1.896 3.74-2.457 5.778-3 2.557-.68 5.2-1.384 6.326-4.866.675-2.09.07-3.848-.574-5.707-.508-1.47-1.033-2.99-1.033-4.874 0-2.05 1.915-4.567 1.934-4.592.36-.467.314-1.158-.102-1.574zM30.15 9.36c-.085.112-2.088 2.744-2.088 5.05 0 2.01.57 3.66 1.074 5.12.626 1.813 1.167 3.378.57 5.23-1 3.094-3.228 3.686-5.806 4.373-1.953.52-4.153 1.105-5.9 2.954-1.747-1.85-3.946-2.435-5.9-2.954-2.58-.686-4.806-1.28-5.805-4.372-.598-1.852-.057-3.417.57-5.23.502-1.46 1.073-3.11 1.073-5.12 0-2.307-2.003-4.94-2.088-5.05-.127-.164-.11-.438.038-.585l4.586-4.58c.067-.068.158-.102.25-.102.09 0 .178.033.245.1.072.07 1.8 1.755 3.49 1.755 1.673 0 3.164-1.227 3.227-1.28.164-.135.462-.136.626 0 .062.053 1.555 1.28 3.227 1.28 1.69 0 3.418-1.684 3.49-1.756.135-.132.36-.132.495.002l4.587 4.58c.147.148.165.422.038.587zm-5.61 6.35c.044.135.008.284-.095.384l-2.95 2.876.695 4.06c.024.142-.034.284-.15.368-.115.083-.268.095-.395.03L18 21.507l-3.647 1.918-.174.043c-.136 0-.266-.074-.334-.202-.096-.183-.026-.41.157-.506l3.82-2.01c.11-.056.24-.056.35 0l3.15 1.657-.602-3.507c-.02-.122.02-.246.11-.332l2.547-2.482-3.522-.512c-.122-.018-.228-.095-.282-.205L18 12.18l-1.575 3.19c-.055.11-.16.186-.283.204l-3.52.512 2.547 2.483c.147.144.15.38.006.53-.145.147-.382.15-.53.006l-3.092-3.014c-.102-.1-.14-.25-.095-.385.043-.136.16-.235.302-.255l4.077-.592 1.823-3.695c.064-.128.194-.21.337-.21.143 0 .273.082.336.21l1.823 3.695 4.077.592c.142.022.26.12.303.257z"/>
</svg>
