<svg xmlns="http://www.w3.org/2000/svg" viewBox="0 0 36 36">
  <path fill="#0568ae" d="M30.553 8.35l-4.587-4.582c-.366-.364-1.007-.366-1.374-.004-.016.015-1.616 1.576-3.052 1.576-1.444 0-2.814-1.123-2.827-1.134-.384-.32-1.043-.32-1.426 0-.013.01-1.383 1.134-2.827 1.134-1.435 0-3.036-1.56-3.052-1.576-.368-.362-1.008-.36-1.375.005L5.446 8.35c-.366.366-.407.998-.092 1.408.02.025 1.96 2.572 1.96 4.67 0 1.903-.53 3.433-1.04 4.914-.637 1.84-1.236 3.577-.574 5.628 1.104 3.417 3.598 4.08 6.24 4.784 2.068.55 4.208 1.12 5.87 3.075.046.055.116.087.19.087s.142-.032.19-.088c1.66-1.956 3.8-2.525 5.87-3.076 2.64-.703 5.134-1.366 6.238-4.784.663-2.05.062-3.788-.573-5.628-.51-1.48-1.04-3.01-1.04-4.914 0-2.095 1.94-4.644 1.96-4.67.316-.41.275-1.043-.092-1.41zM23.85 16.41l-1.943 1.893c-.36.35-.585 1.044-.5 1.54l.46 2.672c.083.496-.212.71-.656.476l-2.4-1.262c-.447-.235-1.175-.235-1.62 0l-2.4 1.263c-.447.234-.74.02-.655-.476l.458-2.672c.086-.496-.14-1.19-.5-1.54l-1.943-1.893c-.36-.352-.247-.7.25-.77l2.686-.39c.497-.073 1.087-.5 1.31-.953l1.2-2.433c.223-.452.587-.452.81 0l1.2 2.432c.224.45.813.88 1.31.95l2.684.39c.498.073.61.42.25.772z"/>
</svg>
