<svg xmlns="http://www.w3.org/2000/svg" viewBox="0 0 36 36">
  <path fill="#0568ae" d="M27.083 21.98c3.64 0 6.684-2.366 5.738-4.532L27.97 5.66c-.15-.36-.5-.595-.89-.595l-.145.022v-.01l-7.388 1.256v-1.67c0-.828-.67-1.498-1.498-1.498-.83 0-1.5.67-1.5 1.498v2.18L8.74 8.17l.002.007c-.293.072-.543.274-.66.562L3.232 20.524v.003c-.762 2.277 1.917 4.53 5.74 4.53 3.638 0 6.682-2.366 5.737-4.532L10.346 9.92l6.205-1.057v18.4H10.48c-.396 0-.72.325-.72.72v.783c0 .396-.324.72-.72.72H8.16c-.396 0-.72.324-.72.72v.91c0 .395.324.72.72.72h19.778c.396 0 .72-.325.72-.72v-.91c0-.396-.324-.72-.72-.72h-.76c-.396 0-.72-.324-.72-.72v-.782c0-.396-.324-.72-.72-.72h-6.19V8.354L25.5 7.337l-4.156 10.11v.002c-.763 2.277 1.917 4.53 5.74 4.53zm-21.77-1.455l3.656-8.89 3.654 8.89h-7.31zM27.08 8.557l3.654 8.89h-7.31l3.655-8.89z"/>
</svg>
