<svg xmlns="http://www.w3.org/2000/svg" viewBox="0 0 36 36">
  <path fill="#0568ae" d="M28.927 30.66c0 .208-.168.376-.375.376h-21.1c-.207 0-.375-.168-.375-.375s.168-.374.375-.374h21.1c.207 0 .375.168.375.375zm3.26-11.998v.002c-.812 2.274-2.974 3.8-5.386 3.8-2.41 0-4.57-1.526-5.382-3.8v-.002l-.006-.013-.003-.03-.014-.126.012-.057.013-.06 4.763-11.11-7.65 1.403v19.394h7.82c.206 0 .374.168.374.375s-.168.374-.375.374h-16.7c-.207 0-.375-.168-.375-.375s.168-.376.375-.376h8.132V8.807l-8.052 1.477 4.85 11.32.006.01c.035.087.034.18.005.263-.808 2.28-2.974 3.814-5.392 3.814-2.415 0-4.58-1.532-5.388-3.813-.032-.09-.028-.186.01-.273L8.857 9.852l.023-.036.03-.046.023-.02c.053-.058.12-.104.202-.12l8.65-1.585V5.34c0-.208.167-.376.374-.376s.374.168.374.375v2.567l8.2-1.504c.13-.024.25.027.336.116l.026.026.03.046.02.032 5.038 11.752.013.06.012.058-.014.125-.003.03-.005.012zm-24.956 3.09c0-.207.17-.375.376-.375h6.065L9.203 10.952l-4.634 10.81c.74 1.908 2.582 3.18 4.632 3.18 1.918 0 3.655-1.112 4.477-2.815h-6.07c-.208 0-.376-.168-.376-.375zM26.803 7.724L22.334 18.15h8.937L26.803 7.723zM31.277 18.9h-8.95c.82 1.702 2.557 2.813 4.474 2.813 1.92 0 3.657-1.11 4.477-2.814z"/>
</svg>
