<svg xmlns="http://www.w3.org/2000/svg" viewBox="0 0 36 36">
  <path fill-rule="evenodd" clip-rule="evenodd" fill="#0568ae" d="M21.57 25.87h-.002c.296-2.483 1.325-3.616 2.206-5.08.758-1.262 1.51-2.513 1.51-4.463h.003c0-2.01-.818-3.83-2.137-5.15C21.83 9.857 20.01 9.04 18 9.04v.003h-.003V9.04c-2.007.002-3.827.818-5.148 2.137-1.32 1.32-2.137 3.14-2.137 5.15h.003c0 1.95.752 3.2 1.51 4.462.874 1.452 1.957 2.65 2.206 5.08.06.595.384 1.107 1.03 1.107h5.065c.34 0 .915-.24 1.044-1.107zM20 32.106s-.372.894-.842.894h-2.315c-.47 0-.84-.894-.84-.894-.062-.148.02-.27.18-.27h3.636c.16 0 .24.122.18.27zm.772-1.08H15.23c-.336 0-.608-.27-.608-.606 0-.336.272-.607.607-.607h5.542c.335 0 .607.272.607.607 0 .335-.273.607-.608.607zm0-2.024H15.23c-.336 0-.608-.272-.608-.607 0-.336.272-.608.607-.608h5.542c.335 0 .607.272.607.608 0 .335-.273.607-.608.607zm-2.77-21.388c-.414 0-.75-.336-.75-.75V3c0-.414.336-.75.75-.75s.75.336.75.75v3.864c0 .415-.336.75-.75.75zm13.584 9.722h-3.864c-.414 0-.75-.336-.75-.75s.336-.75.75-.75h3.864c.414 0 .75.336.75.75s-.336.75-.75.75zm-23.308 0H4.414c-.414 0-.75-.336-.75-.75s.336-.75.75-.75h3.864c.414 0 .75.336.75.75s-.336.75-.75.75zm2.898-6.79c-.192 0-.384-.074-.53-.22L7.913 7.592c-.293-.293-.293-.768 0-1.06.293-.293.768-.293 1.06 0l2.733 2.732c.293.293.293.768 0 1.06-.147.147-.338.22-.53.22zm13.783-.01c-.193 0-.385-.073-.53-.22-.294-.293-.294-.768 0-1.06l2.73-2.733c.294-.293.77-.293 1.06 0 .294.293.294.768 0 1.06l-2.73 2.732c-.147.148-.34.22-.53.22z"/>
</svg>
