<svg xmlns="http://www.w3.org/2000/svg" viewBox="0 0 36 36">
  <path fill="#0568ae" d="M19.18 33.165h-2.436c-.69 0-1.206-.693-1.393-1.338-.057-.2.058-.407.257-.465.198-.056.407.057.465.256.112.385.41.797.673.797h2.435c.29 0 .645-.435.748-.795.057-.198.262-.314.464-.258.2.057.314.265.258.464-.16.556-.72 1.34-1.47 1.34zm3.116-5.37c0-.206-.168-.374-.375-.374H14.08c-.207 0-.375.17-.375.376s.168.375.375.375h7.843c.208 0 .376-.167.376-.374zm0 2.04c0-.208-.168-.376-.375-.376H14.08c-.207 0-.375.167-.375.374s.168.375.375.375h7.843c.208 0 .376-.17.376-.376zm.133-5.392c-.196-.07-.41.032-.48.228-.238.67-.77.69-.83.69h-6.25c-.693 0-.862-.645-.9-1.03-.283-2.75-1.413-4.587-2.41-6.21l-.377-.616c-.925-1.544-1.8-3.003-1.8-5.297l-.003-.053.022-.57c.015-.207-.14-.386-.347-.4-.205-.016-.386.14-.4.346-.017.224-.025.45-.025.677l.004.055c.014 2.47.975 4.075 1.917 5.648l.37.604c1.002 1.63 2.038 3.313 2.302 5.893.107 1.05.738 1.703 1.647 1.703h6.25c.514 0 1.225-.31 1.537-1.187.07-.196-.033-.41-.228-.48zm6.834 3.32c-.073.073-.17.11-.265.11s-.193-.037-.266-.11l-24-24c-.147-.147-.147-.384 0-.53.146-.146.384-.146.53 0L9.77 7.74c.433-.79.968-1.518 1.606-2.157 1.772-1.77 4.123-2.746 6.62-2.747h.002c2.502 0 4.854.976 6.625 2.748 1.772 1.772 2.748 4.124 2.748 6.622l-.003.055c-.014 2.482-.982 4.092-1.918 5.648l-.354.58c-.56.914-1.137 1.86-1.584 2.992l5.752 5.752c.147.147.147.384 0 .53zM10.322 8.29l12.62 12.62c.45-1.058.987-1.954 1.515-2.815l.35-.574c.93-1.548 1.81-3.01 1.81-5.314l.005-.053c-.014-2.278-.91-4.422-2.528-6.04-1.617-1.62-3.762-2.515-6.044-2.528h-.1c-2.28.013-4.423.91-6.043 2.527-.64.64-1.172 1.373-1.585 2.178z"/>
</svg>
