<svg xmlns="http://www.w3.org/2000/svg" viewBox="0 0 36 36">
  <path fill-rule="evenodd" clip-rule="evenodd" fill="#0568ae" d="M20.467 31.686s-.458 1.104-1.038 1.104h-2.86c-.58 0-1.037-1.104-1.037-1.104-.076-.183.024-.333.222-.333h4.49c.198 0 .298.15.222.333zm1.704-2.082c0-.414-.335-.75-.75-.75H14.58c-.414 0-.75.336-.75.75s.336.75.75.75h6.843c.415 0 .75-.336.75-.75zm0-2.5c0-.414-.335-.75-.75-.75H14.58c-.414 0-.75.336-.75.75s.336.75.75.75h6.843c.415 0 .75-.336.75-.75zm.288-3.492l-13.26-13.26c-.126.598-.194 1.218-.194 1.853h.004c0 2.407.93 3.952 1.864 5.51 1.08 1.793 2.416 3.273 2.723 6.272.075.735.474 1.366 1.273 1.366h6.25c.42 0 1.13-.296 1.29-1.366h-.004l.054-.375zm7.484 2.534l-6.203-6.203c.44-.773.93-1.466 1.388-2.228.936-1.557 1.864-3.102 1.864-5.51h.004c0-2.48-1.01-4.728-2.638-6.357C22.728 4.218 20.48 3.21 18 3.21v.003h-.003V3.21c-2.478 0-4.725 1.008-6.355 2.637-.335.335-.638.7-.915 1.084L5.942 2.147c-.39-.39-1.023-.39-1.414 0-.39.39-.39 1.024 0 1.414l24 24c.195.195.45.293.707.293s.512-.098.707-.293c.39-.39.39-1.023 0-1.414z"/>
</svg>
