<svg xmlns="http://www.w3.org/2000/svg" viewBox="0 0 36 36">
  <path fill="#0568ae" d="M20.355 7.338H6.087c-.665 0-1.206.54-1.206 1.206v5.264c0 .665.542 1.206 1.207 1.206h14.268c1.703 0 3.088 1.385 3.088 3.088s-1.385 3.088-3.088 3.088H6.087c-.665 0-1.206.54-1.206 1.206v5.264c0 .665.542 1.206 1.207 1.206h14.268c5.936 0 10.765-4.83 10.765-10.764S26.29 7.338 20.355 7.338zM5.63 13.808V8.545c0-.252.205-.456.456-.456h4.7v6.175h-4.7c-.25 0-.456-.205-.456-.457zm14.725 14.31H6.087c-.252 0-.456-.206-.456-.457v-5.263c0-.252.206-.456.457-.456h4.7v3.795c0 .207.17.375.376.375s.375-.168.375-.375V21.94h8.818c2.117 0 3.838-1.72 3.838-3.837s-1.722-3.838-3.838-3.838h-8.818V8.088h8.818c5.522 0 10.015 4.492 10.015 10.014 0 5.523-4.493 10.015-10.015 10.015z"/>
</svg>
