<svg xmlns="http://www.w3.org/2000/svg" viewBox="0 0 36 36">
  <path fill="#0568ae" d="M32.35 27.803c-.006-.16-.024-.32-.054-.48-.09-.482-.274-.97-.553-1.456L20.893 7.08c-.676-1.19-1.713-1.963-2.888-1.963h-.008c-1.175 0-2.212.774-2.887 1.962L4.257 25.866c-.277.48-.46.966-.55 1.445-.037.19-.06.377-.064.564l-.006.074v.017c0 .836.372 1.64 1.018 2.15.654.52 1.52.765 2.498.767h21.693c.98-.002 1.844-.247 2.498-.768.642-.507 1.012-1.302 1.016-2.13l.002-.035-.01-.147zM16.163 13.028c.2-.067.41-.002.537.147l1.44-.483c.014-.196.142-.374.34-.44.263-.087.546.053.634.315l.193.577c.27.805-.05 1.553-.348 2.02l1.708 5.05 1.706-.573c.245-.08.51.05.592.296l.696 2.077c.235.705.17 1.728.036 2.4-.487-.248-1.123-.463-2.038-.463-1.37 0-2.123.48-2.672.832l-.262.163c-.264-.292-.488-.636-.632-1.067l-.696-2.078c-.08-.245.05-.51.295-.59l1.553-.52-1.71-5.05c-.518-.193-1.225-.597-1.495-1.402l-.094-.283v-.002l-.1-.292c-.087-.26.054-.544.316-.632zM30.1 28.55c-.344.274-.874.332-1.253.333H7.157c-.384 0-.913-.06-1.263-.338-.15-.118-.245-.32-.255-.54l.002-.082.028-.237c.05-.265.158-.542.318-.82l.815-1.41.16-.007c1.824 0 1.867 1.14 3.62 1.186 1.75-.047 1.793-1.187 3.62-1.187l3.728 1.19 3.73-1.19 3.728 1.19 3.73-1.19.075.002.816 1.413c.162.282.27.56.32.826l.022.212.007.1c-.008.22-.105.426-.26.55zM17.08 14.1l1.315-.44c.047.435-.19.852-.364 1.093-.284-.087-.725-.278-.95-.652z"/>
</svg>
