<svg xmlns="http://www.w3.org/2000/svg" viewBox="0 0 36 36">
  <path fill="#0568ae" d="M32.738 27.93c.007.96-.426 1.88-1.16 2.46-.694.553-1.64.846-2.73.85h-16.76c-.206 0-.374-.17-.374-.376s.168-.375.375-.375h16.757c.933-.003 1.695-.234 2.264-.688.556-.438.883-1.137.877-1.87 0-.6-.193-1.24-.574-1.897L20.566 7.245c-.64-1.128-1.578-1.774-2.57-1.774-.988 0-1.922.647-2.56 1.773L4.58 26.033c-.376.654-.568 1.292-.57 1.897-.003.734.325 1.434.878 1.87.163.13.19.365.062.528-.128.162-.364.19-.527.06-.733-.578-1.168-1.498-1.163-2.46.002-.738.228-1.502.67-2.27L14.78 6.872c.776-1.364 1.947-2.15 3.213-2.15 1.27 0 2.444.785 3.222 2.153L32.063 25.66c.448.773.675 1.537.675 2.27zm-20.34-2.296c-.568 0-.84.27-1.18.613-.372.37-.834.833-1.713.833-.207 0-.375-.168-.375-.375s.168-.375.375-.375c.568 0 .84-.27 1.18-.613.372-.37.834-.833 1.713-.833.878 0 1.34.462 1.71.833.344.342.615.613 1.183.613s.84-.27 1.182-.613c.357-.357.802-.794 1.618-.827l-.73-2.185c-.067-.197.04-.41.235-.475l2.143-.717-1.793-5.296c-.45-.115-1.447-.47-1.77-1.437l-.095-.283-.098-.293c-.066-.196.04-.41.236-.475.175-.06.356.022.442.177l1.632-.547c-.025-.176.07-.35.245-.41.197-.065.41.042.475.238l.193.577c.324.965-.256 1.85-.547 2.213l1.793 5.296 2.155-.72c.197-.067.41.04.474.236l.744 2.22c.198.594.226 1.224.1 1.878l.05-.003c.877 0 1.34.46 1.71.832.343.343.613.614 1.182.614.207 0 .375.17.375.376s-.167.375-.374.375c-.88 0-1.34-.46-1.712-.832-.343-.343-.613-.613-1.18-.613-.57 0-.84.27-1.183.613-.37.37-.832.833-1.71.833s-1.34-.46-1.71-.832c-.344-.343-.615-.613-1.183-.613s-.84.27-1.182.613c-.37.37-.833.833-1.71.833-.88 0-1.342-.46-1.713-.832-.345-.344-.616-.614-1.184-.614zm5.696-10.155c.203-.263.557-.832.412-1.402l-1.586.53c.227.542.855.784 1.174.87zm.095 7.342l.624 1.866.143.34c.412.167.696.446.94.69.342.342.612.612 1.18.612s.838-.27 1.182-.613c.225-.227.486-.485.854-.654.183-.643.185-1.253-.003-1.814l-.624-1.867-1.796.6.33.977c.066.196-.04.41-.234.476l-.12.02c-.158 0-.303-.1-.356-.255l-.332-.977-1.79.6z"/>
</svg>
