<svg xmlns="http://www.w3.org/2000/svg" viewBox="0 0 36 36">
  <path fill="#0568ae" d="M19.78 18.003l7.136-1.925v6.058c-5.765 0-8.916 2.78-8.916 2.78s-3.292-2.78-8.916-2.78v-6.058l7.135 1.925c.632.17 1.317.206 1.78.206s1.148-.036 1.78-.207zm13.495-5.945L19.39 8.31c-.382-.102-.886-.153-1.39-.153-.504 0-1.008.052-1.39.155L2.725 12.058c-.765.206-.765.544 0 .75l13.885 3.746c.382.103.886.155 1.39.155.504 0 1.008-.052 1.39-.156l10.11-2.728V24.69c0 .552.448 1 1 1s1-.448 1-1V13.287l1.775-.48c.765-.205.765-.543 0-.75z"/>
</svg>
