<svg xmlns="http://www.w3.org/2000/svg" viewBox="0 0 36 36">
  <path fill="#0568ae" d="M32.87 11.65L19.488 8.037c-.834-.226-2.142-.225-2.976 0L3.13 11.648c-.565.153-.85.4-.85.738 0 .337.285.585.85.737l13.382 3.61c.417.114.953.17 1.488.17s1.07-.056 1.488-.17l6.326-1.706v6.59c-4.348.097-7.026 1.847-7.818 2.446-.81-.593-3.556-2.347-7.81-2.446v-3.73c0-.207-.168-.375-.375-.375s-.374.168-.374.375v4.1c0 .208.168.376.375.376 4.955 0 7.92 2.44 7.948 2.464.07.058.156.087.242.087.088 0 .177-.03.247-.093.028-.023 2.867-2.458 7.94-2.458.208 0 .376-.168.376-.375v-7.164l3.342-.902v9.61c0 .207.168.375.375.375s.375-.168.375-.375v-9.812l2.214-.597c.563-.15.85-.4.85-.736 0-.334-.285-.582-.85-.735zm-.195.75l-13.383 3.61c-.7.19-1.884.19-2.585 0L3.325 12.4l-.047-.014.047-.013 13.382-3.61c.7-.19 1.884-.19 2.585 0l13.382 3.61.046.013-.045.013z"/>
</svg>
