<svg xmlns="http://www.w3.org/2000/svg" viewBox="0 0 36 36">
  <path fill="#0568ae" d="M27.8 9.1h-1.9l.3-2.3c.1-.4-.1-.8-.3-1.1-.3-.3-.6-.4-1-.4H6.3c-.4 0-.8.2-1 .4-.3.4-.4.8-.3 1.2l2.9 22.3c.1.8.8 1.4 1.6 1.4h12.3c.8 0 1.5-.6 1.6-1.4l2.5-19.3h2c1.4 0 2.5 1.1 2.5 2.5v7.7c0 1.4-1.1 2.5-2.5 2.5h-1.2c-.2 0-.4.2-.4.4s.2.4.4.4h1.2c1.8 0 3.3-1.5 3.3-3.3v-7.7c-.1-1.8-1.6-3.3-3.4-3.3zm-5.2 20c-.1.4-.4.7-.8.7H9.5c-.4 0-.8-.3-.8-.7l-3-22.3c0-.2 0-.3.1-.5s.3-.2.4-.2h18.6c.2 0 .3.1.4.2.1.1.2.3.1.5l-2.7 22.3z"/>
</svg>
