<svg xmlns="http://www.w3.org/2000/svg" viewBox="0 0 36 36">
  <path fill="#0568ae" d="M8.76 2.79c.102 0 .206.015.307.048L13.8 4.335c.282.09.512.29.63.55.122.264.123.56.006.834L9.114 18.134c-.182.423-.62.706-1.088.706-.116 0-.23-.017-.34-.05l-1.93-.61c-.556-.178-.91-.786-.79-1.357L7.75 3.605c.102-.484.537-.815 1.01-.815m21.977 12.58l-16.563-5.238-1.412 3.293 3.412 1.08-4.88 16.914c-.154.53.152 1.084.683 1.237.53.153 1.085-.153 1.238-.683l.725-2.514.124-.03 9.384-3.188 1.66 5.733c.127.438.527.722.96.722l.28-.04c.53-.154.836-.708.682-1.238l-4.297-14.84 6.93 2.193c.094.03.19.045.29.045.426 0 .798-.272.926-.677l.49-1.55c.163-.51-.12-1.058-.63-1.22zM15.977 22.41l5.578 2.365-6.94 2.357 1.362-4.722zm1.844-1.39l3.712-1.394.98 3.382-4.692-1.99zm3.155-3.32l-4.08 1.53 1.188-4.12 2.358.745.534 1.844zm8.978.868l-.023-.004h.045l-.022.004z"/>
</svg>
