<svg xmlns="http://www.w3.org/2000/svg" viewBox="0 0 36 36">
  <path fill="#0568ae" d="M31.426 15.825l-.118-.182c-.134-.168-.314-.292-.523-.358l-17.988-5.69 1.647-3.842c.118-.274.116-.57-.005-.834-.12-.262-.35-.462-.63-.55L9.074 2.87c-.576-.184-1.19.178-1.315.767L4.973 16.855c-.12.572.235 1.18.792 1.356l.672.213v13.417c0 .207.168.375.375.375s.375-.168.375-.375v-13.18l.507.16c.11.035.224.052.34.052.47 0 .906-.284 1.088-.707l2.165-5.05 5.9 1.867-5.28 16.63c-.062.197.048.408.245.47.197.063.408-.045.47-.243l3.22-10.14 7.475 3.168-6.366 2.162c-.195.066-.3.28-.233.476.067.196.28.302.476.234l6.45-2.19 2.08 6.295c.054.157.2.257.357.257l.118-.02c.197-.064.303-.276.238-.473L24.248 25l-.012-.046-.015-.038-2.846-8.606 8.26 2.613c.108.035.22.05.33.05.103 0 .205-.02.304-.048l.09-.034.11-.04.1-.066.052-.033c.08-.06.15-.13.21-.208l.034-.048c.06-.088.112-.182.145-.285l.49-1.55c.087-.278.06-.575-.074-.835zM8.432 17.873c-.077.18-.322.295-.512.235l-1.93-.61c-.192-.06-.325-.29-.284-.487L8.494 3.795c.03-.135.13-.222.26-.222l.095.016 4.733 1.496c.08.026.143.078.175.147.03.07.03.15-.003.228L8.432 17.873zm14.686 6.1l-6.973-2.957 5.333-2 1.64 4.956zm-1.875-5.67l-4.907 1.84 1.565-4.93 2.592.82.75 2.27zm8.618-.094l-18.276-5.783.917-2.14L30.56 16l.117.065.083.105.038.13-.014.133-.49 1.55c-.028.087-.088.16-.17.2l-.13.04-.133-.014z"/>
</svg>
