<svg xmlns="http://www.w3.org/2000/svg" viewBox="0 0 36 36">
  <path fill="#0568ae" d="M31.58 21.87h-1.754v-1.93c0-1.784-1.306-3.03-3.177-3.03h-7.646V13.93h1.753c.686 0 1.25-.56 1.25-1.247v-5.23c0-.688-.564-1.25-1.25-1.25h-5.5c-.685 0-1.248.563-1.248 1.25v5.23c0 .686.563 1.247 1.248 1.247h1.746v2.977H9.352c-1.87 0-3.176 1.245-3.176 3.03v1.93H4.42c-.686 0-1.25.563-1.25 1.25v5.23c0 .686.564 1.247 1.25 1.247h5.5c.686 0 1.25-.56 1.25-1.247v-5.23c0-.688-.565-1.25-1.25-1.25H8.176v-1.93c0-.852.64-1.03 1.176-1.03h7.652v2.96H15.25c-.686 0-1.25.563-1.25 1.25v5.23c0 .686.564 1.247 1.25 1.247h5.5c.685 0 1.248-.56 1.248-1.247v-5.23c0-.688-.564-1.25-1.25-1.25h-1.745v-2.96h7.645c.537 0 1.177.178 1.177 1.03v1.93h-1.747c-.685 0-1.248.563-1.248 1.25v5.23c0 .686.563 1.247 1.248 1.247h5.5c.687 0 1.25-.56 1.25-1.247v-5.23c0-.688-.563-1.25-1.25-1.25z"/>
</svg>
