<svg xmlns="http://www.w3.org/2000/svg" viewBox="0 0 36 36">
  <path fill="#0568ae" d="M31.44 21.496H29.19v-1.84c0-1.438-1.025-2.405-2.552-2.405h-8.27v-2.746h2.378c.895 0 1.624-.728 1.624-1.622v-5.23c0-.895-.73-1.623-1.624-1.623h-5.5c-.894 0-1.623.727-1.623 1.622v5.23c0 .895.728 1.623 1.624 1.623h2.37v2.747H9.343c-1.526 0-2.55.967-2.55 2.406v1.84H4.558c-.896 0-1.624.727-1.624 1.622v5.23c0 .208.168.376.375.376s.376-.168.376-.375v-5.23c0-.48.392-.873.873-.873h5.498c.482 0 .874.392.874.873v5.23c0 .482-.392.873-.874.873H6.6c-.206 0-.374.168-.374.375s.168.375.375.375h3.458c.895 0 1.624-.728 1.624-1.622v-5.23c0-.895-.728-1.623-1.624-1.623H7.542v-1.84c0-1.22.93-1.655 1.8-1.655h8.278v3.495h-2.37c-.896 0-1.625.728-1.625 1.623v5.23c0 .895.728 1.623 1.624 1.623h5.498c.895 0 1.624-.728 1.624-1.622v-5.23c0-.895-.73-1.623-1.624-1.623H18.37v-3.495h8.27c.87 0 1.802.435 1.802 1.656v1.84H25.94c-.896 0-1.624.727-1.624 1.622v5.23c0 .895.728 1.623 1.623 1.623h5.5c.895 0 1.624-.728 1.624-1.622v-5.23c0-.896-.73-1.624-1.625-1.624zm-9.817 1.623v5.23c0 .48-.392.872-.874.872h-5.5c-.482 0-.874-.39-.874-.872v-5.23c0-.482.392-.874.874-.874h5.5c.48 0 .873.392.873.873zm-6.374-9.366c-.483 0-.875-.39-.875-.872v-5.23c0-.48.392-.873.874-.873h5.498c.482 0 .874.39.874.872v5.23c0 .482-.392.873-.874.873h-5.5zM32.313 28.35c0 .48-.393.872-.875.872h-5.5c-.482 0-.874-.39-.874-.872v-5.23c0-.482.392-.874.873-.874h5.5c.48 0 .874.392.874.873v5.23z"/>
</svg>
