<svg xmlns="http://www.w3.org/2000/svg" viewBox="0 0 36 36">
  <path fill="#0568ae" d="M30.7 14.7c0-4.5-3.1-8.2-7-8.2s-7 3.7-7 8.2c0 4 2.5 7.4 5.7 8.1l-.4 1.6c-.1.2-.1.5.1.7.1.2.4.3.6.3h.1c.1 1.2-.3 2.4-.9 3.3-.9 1.1-1.3 2.7-1.3 4.6 0 .6.4 1 1 1s1-.4 1-1c0-1.4.3-2.6.9-3.3.9-1.2 1.4-2.8 1.3-4.5h.1c.2 0 .5-.1.6-.3.1-.2.2-.5.1-.7l-.6-1.7c3.3-.7 5.7-4 5.7-8.1z"/>
  <path fill="#0568ae" d="M19.6 6.3C18.4 3.7 16.1 2 13.5 2c-3.8 0-7 3.7-7 8.2 0 4 2.5 7.4 5.7 8.1l-.6 1.5c-.1.2-.1.5.1.7.1.2.4.3.6.3h.1c0 2.6.9 5.1 2.4 6.9 1.2 1.4 1.9 3.4 1.9 5.6 0 .6.4 1 1 1s1-.4 1-1c0-2.6-.9-5.1-2.4-6.9-1.2-1.4-1.9-3.4-1.9-5.6h.1c.2 0 .5-.1.6-.3.1-.2.2-.5.1-.7l-.6-1.5c.4-.1.8-.2 1.1-.4-.3-1-.5-2.1-.5-3.1.1-3.7 1.9-6.8 4.4-8.5z"/>
</svg>
