<svg xmlns="http://www.w3.org/2000/svg" viewBox="0 0 36 36">
  <path fill="#0568ae" d="M30.697 6.99L29.01 5.303c-.582-.583-1.352-.914-2.166-.932-.814-.014-1.584.285-2.15.85l-.924.924-.002.002-.926.926L8.82 21.095c-.106.105-.217.244-.327.392l-.12.163c-.156.23-.297.475-.383.68l-3.485 8.308c-.187.445-.007.692.078.778.06.06.192.16.412.16.103 0 .225-.02.366-.08l8.31-3.485c.392-.163.935-.527 1.235-.828L28.927 13.16l1.852-1.852c1.167-1.168 1.13-3.105-.083-4.318zM5.287 30.712l1.157-2.757 1.6 1.6-2.756 1.157zm23.11-18.083l-14.02 14.02c-.23.23-.696.542-.996.668l-4.588 1.924-2.035-2.034 1.925-4.59c.055-.132.15-.297.255-.46 1.03.057 2.223.685 3.212 1.675.413.413.764.862 1.042 1.334.07.12.195.185.323.185l.19-.052c.18-.105.238-.335.133-.513-.31-.528-.7-1.028-1.16-1.485-.973-.976-2.113-1.606-3.19-1.818l13.884-13.88.662-.663 5.026 5.027-.662.662zm1.853-1.853l-.66.66-5.025-5.027.66-.66c.42-.42.973-.644 1.603-.63.62.013 1.207.267 1.653.712l1.687 1.687c.92.92.958 2.382.083 3.257z"/>
</svg>
