<svg xmlns="http://www.w3.org/2000/svg" viewBox="0 0 36 36">
  <path fill="#0568ae" d="M18 4.426c-.207 0-.375.168-.375.375V17.34l-10.42-6.25c1.302-2.034 3.172-3.702 5.446-4.747.19-.085.272-.308.185-.496-.087-.188-.31-.27-.497-.184-2.51 1.152-4.548 3.027-5.93 5.304l-.05.053-.024.07c-1.22 2.06-1.91 4.436-1.91 6.914 0 7.486 6.09 13.576 13.576 13.576S31.576 25.486 31.576 18 25.486 4.427 18 4.427zm-1.354 13.2H5.188c.062-2.1.637-4.117 1.635-5.894l9.823 5.894zM18 30.826c-6.946 0-12.616-5.552-12.816-12.45H18l.166-.044.04-.026.094-.092.022-.02.01-.025.024-.07.015-.075.006-.025V5.186c6.9.2 12.45 5.87 12.45 12.815 0 7.072-5.754 12.825-12.826 12.825z"/>
</svg>
