<svg xmlns="http://www.w3.org/2000/svg" viewBox="0 0 36 36">
  <path fill="#0568ae" d="M17.23 5.006v10.9c0 .136-.107.187-.24.115l-.555-.304-8.77-4.808-.38-.212-.078-.047-.08-.048c.042-.132.076-.24.148-.34 2.185-3.025 5.62-5.087 9.55-5.428.135-.012.257.02.406.062v.11zM15.7 17.003l-.23-.126-.504-.276-8.1-4.424-.374-.207-.07-.043-.07-.042c-.095.1-.17.184-.226.294-.71 1.448-1.165 3.047-1.3 4.735-.008.105.016.2.045.317h10.782c.257 0 .28-.103.05-.23zM19.086 4.83c-.118-.01-.224.017-.354.05v12.74c0 .198-.065.51-.146.69l-.273.274c-.18.08-.49.147-.69.147H4.877c-.032.128-.058.23-.048.346.556 6.778 6.233 12.105 13.154 12.105 7.29 0 13.2-5.91 13.2-13.2 0-6.917-5.323-12.59-12.097-13.15z"/>
</svg>
