<svg xmlns="http://www.w3.org/2000/svg" viewBox="0 0 36 36">
  <path fill="#0568ae" d="M28.594 21.563l-.382.462c-.75.908-1.456 1.3-2.103 1.167-.885-.183-1.215-1.244-1.25-1.365-.373-1.536-.945-2.436-1.66-2.62-1.055-.274-2.233.992-2.245 1.005-.037.036-1.42 1.325-1.127 2.45.185.712 1.063 1.278 2.54 1.637.137.038 1.2.37 1.382 1.252.134.646-.26 1.353-1.167 2.102l-.465.385c-1.51 1.25-2.732 2.264-3.864 2.264-.518 0-1.017-.212-1.515-.71-1.093-1.092-2.417-3.085-2.946-3.908-.18.244-.467.758-.758 1.798-.34 1.213-1.18 2.103-2.242 2.38-1.012.264-2.09-.083-2.957-.95-.934-.934-1.3-2.11-1.008-3.23.274-1.05 1.106-1.864 2.226-2.18.2-.055.407.06.463.26.055.2-.062.408-.26.464-.86.24-1.498.856-1.705 1.646-.224.855.073 1.77.814 2.51.683.685 1.477.953 2.236.755.802-.21 1.44-.905 1.71-1.858.6-2.145 1.278-2.474 1.47-2.524.16-.042.327.025.413.165.017.028 1.762 2.833 3.07 4.14 1.06 1.06 2.106.277 4.37-1.6l.468-.387c.657-.54.98-1.028.91-1.37-.08-.382-.647-.626-.84-.68-1.774-.43-2.814-1.165-3.074-2.177-.402-1.562 1.254-3.102 1.324-3.167.037-.043 1.47-1.586 2.96-1.203 1.016.26 1.755 1.32 2.2 3.155.057.19.3.746.68.823.34.07.828-.253 1.37-.91l.382-.464c1.878-2.266 2.664-3.312 1.602-4.374-1.308-1.308-4.112-3.054-4.14-3.072-.14-.086-.207-.254-.166-.413.05-.193.38-.87 2.525-1.472.862-.24 1.5-.857 1.706-1.647.224-.854-.073-1.77-.813-2.51-.686-.684-1.48-.952-2.24-.753-.8.21-1.44.904-1.706 1.856-.602 2.144-1.28 2.474-1.473 2.524-.16.04-.326-.026-.413-.165-.016-.03-1.763-2.833-3.07-4.14-1.06-1.062-2.108-.277-4.374 1.602l-.464.384c-.656.54-.98 1.027-.91 1.37.078.378.634.62.84.682 1.817.44 2.88 1.18 3.14 2.194.382 1.494-1.162 2.925-1.228 2.985-.04.047-1.58 1.702-3.143 1.3-1.012-.26-1.745-1.3-2.18-3.09-.056-.192-.298-.747-.677-.824-.34-.07-.828.253-1.367.91l-.376.454c-.592.713-1.103 1.33-1.477 1.886-.777 1.148-.813 1.825-.138 2.497.18.18.4.382.68.616.157.134.177.37.044.53-.134.157-.37.178-.53.044-.295-.25-.533-.465-.727-.66-1.208-1.204-.61-2.474.043-3.445.395-.588.917-1.218 1.522-1.947l.375-.453c.747-.907 1.454-1.3 2.1-1.167.884.183 1.214 1.245 1.25 1.365.362 1.494.93 2.373 1.642 2.557.94.243 2.07-.715 2.427-1.104.036-.035 1.3-1.213 1.028-2.27-.184-.714-1.084-1.286-2.604-1.655-.136-.038-1.198-.37-1.38-1.253-.135-.646.258-1.353 1.166-2.1l.462-.383c2.202-1.826 3.794-3.146 5.382-1.556 1.092 1.09 2.416 3.083 2.946 3.907.18-.244.467-.758.76-1.8.34-1.21 1.176-2.1 2.237-2.378 1.013-.264 2.09.08 2.958.95.933.933 1.3 2.11 1.008 3.23-.275 1.05-1.107 1.864-2.227 2.18-1.032.288-1.546.573-1.795.76.827.532 2.814 1.854 3.903 2.943 1.59 1.59.27 3.18-1.554 5.383z"/>
</svg>
