<svg xmlns="http://www.w3.org/2000/svg" viewBox="0 0 36 36">
  <path fill="#0568ae" d="M29.264 16.667c.67.448-3.2-2.177-3.2-2.177-.498-.29-.833-.966-.374-1.425.457-.458 2.517-.65 3.366-1.5.85-.85.762-2.793-.49-4.045l-.006-.006c-1.254-1.252-3.195-1.34-4.044-.49-.85.85-1.043 2.91-1.5 3.367-.46.458-1.135.123-1.426-.374l-2.177-3.2s-.69-1.53-2.506-.218c-1.814 1.31-3.41 2.474-3.692 2.68-.28.204-1.494 1.683.98 2.15 2.476.47 4.425 1.672 1.665 4.43l-.004.004c-2.758 2.76-3.962.813-4.43-1.663-.466-2.477-1.874-1.363-2.152-.982-.278.38-1.37 1.88-2.68 3.692-1.31 1.815.22 2.506.22 2.506l3.2 2.176c.497.29.832.967.372 1.425-.457.46-2.516.65-3.365 1.5-.85.85-.76 2.794.49 4.045l.007.007c1.252 1.25 3.194 1.338 4.044.49.85-.85 1.043-2.91 1.5-3.368.46-.46 1.136-.122 1.425.374 0 0 1.827 2.754 2.177 3.2.35.447 1.2 1.125 2.505.22 1.817-1.31 3.148-2.274 3.696-2.68.548-.404 1.024-1.773-.982-2.153-2.476-.467-4.422-1.67-1.662-4.43l.002-.003c2.76-2.76 3.962-.812 4.43 1.663.392 2.065 1.75 1.506 2.152.98.298-.387 1.37-1.875 2.68-3.69 1.134-1.57-.218-2.506-.218-2.506"/>
</svg>
