<svg xmlns="http://www.w3.org/2000/svg" viewBox="0 0 36 36">
  <path fill="#0568ae" d="M24.7 13.8c0 .1 0 .2-.1.3l-6.3 6.3c-.1.1-.2.1-.3.1h-.1c-.1-.1-.2-.2-.2-.3v-9c0-.1 0-.2.1-.3.1-.1.2-.1.3-.1 2.5 0 4.8 1 6.6 2.7v.3zm7.3 6.4c0 7.7-6.3 14-14 14s-14-6.3-14-14c0-3.3 1.1-6.3 3-8.7L5.1 9.7c-.3-.3-.3-.7 0-1l1.4-1.4c.3-.3.7-.3 1 0l1.8 1.8c2-1.6 4.4-2.6 7.1-2.9V4.6H15c-.4 0-.7-.3-.7-.7V2.5c0-.4.3-.7.7-.7h6.3c.4 0 .7.3.7.7V4c0 .4-.3.7-.7.7h-1.5v1.6c2.6.3 5 1.4 6.9 2.9l1.8-1.8c.3-.3.7-.3 1 0l1.4 1.4c.3.3.3.7 0 1L29 11.5c1.9 2.4 3 5.4 3 8.7zm-3.3 0c0-5.9-4.8-10.7-10.7-10.7-5.9 0-10.7 4.8-10.7 10.7 0 5.9 4.8 10.7 10.7 10.7 5.9 0 10.7-4.8 10.7-10.7z"/>
</svg>
