<svg xmlns="http://www.w3.org/2000/svg" viewBox="0 0 36 36">
  <path fill="#0568ae" d="M29.995 11.808c.96 1.855 1.505 3.96 1.505 6.192 0 7.456-6.044 13.5-13.5 13.5S4.5 25.456 4.5 18 10.544 4.5 18 4.5c2.16 0 4.2.51 6.012 1.413l-.995.995c-.317.316-.557.742-.7 1.196-1.322-.58-2.78-.904-4.317-.904-5.965 0-10.8 4.835-10.8 10.8S12.035 28.8 18 28.8c5.965 0 10.8-4.835 10.8-10.8 0-1.598-.356-3.11-.98-4.474.434-.146.837-.38 1.136-.68l1.04-1.038zM18 12.6c.603 0 1.18.103 1.72.285l2.052-2.05C20.645 10.24 19.362 9.9 18 9.9c-4.474 0-8.1 3.627-8.1 8.1s3.627 8.1 8.1 8.1 8.1-3.627 8.1-8.1c0-1.363-.34-2.645-.934-3.77l-2.05 2.05c.18.54.284 1.117.284 1.72 0 2.982-2.418 5.4-5.4 5.4s-5.4-2.418-5.4-5.4 2.418-5.4 5.4-5.4zm12.61-4.232l-2.21-.2c-.354-.033-.67-.35-.703-.705l-.2-2.21c-.02-.217-.115-.332-.243-.332-.082 0-.177.048-.275.146l-2.903 2.902c-.252.252-.432.75-.4 1.103l.165 1.814-4.685 4.685c-.35-.168-.74-.27-1.157-.27-1.49 0-2.7 1.21-2.7 2.7s1.21 2.7 2.7 2.7 2.7-1.21 2.7-2.7c0-.416-.102-.805-.27-1.157l4.8-4.8 1.562.143.086.004c.346 0 .786-.17 1.018-.403l2.902-2.902c.252-.252.168-.485-.187-.517z"/>
</svg>
