<svg xmlns="http://www.w3.org/2000/svg" viewBox="0 0 36 36">
  <path fill="#0568ae" d="M31.268 13.93c.403 1.313.607 2.683.607 4.07 0 7.65-6.224 13.875-13.875 13.875S4.125 25.65 4.125 18 10.35 4.125 18 4.125c1.407 0 2.795.21 4.126.624.198.06.308.27.247.47-.06.197-.27.31-.47.246-1.258-.392-2.57-.59-3.902-.59-7.237 0-13.125 5.887-13.125 13.124 0 7.237 5.888 13.125 13.125 13.125S31.125 25.237 31.125 18c0-1.313-.193-2.608-.574-3.85-.06-.2.05-.41.25-.47s.408.05.468.25zm-9.665-4.285c.074-.193-.023-.41-.216-.484-1.08-.413-2.22-.623-3.387-.623-5.218 0-9.463 4.245-9.463 9.463 0 5.218 4.245 9.463 9.463 9.463 5.218 0 9.463-4.245 9.463-9.463 0-1.145-.203-2.264-.602-3.326-.072-.194-.288-.292-.482-.22-.194.074-.292.29-.22.484.37.977.555 2.008.555 3.063 0 4.806-3.91 8.714-8.713 8.714-4.804 0-8.713-3.91-8.713-8.713 0-4.803 3.91-8.712 8.713-8.712 1.075 0 2.124.193 3.118.574.194.074.41-.023.485-.217zM18 13.92c.207 0 .375-.168.375-.375s-.168-.375-.375-.375c-2.663 0-4.83 2.167-4.83 4.83 0 2.663 2.167 4.83 4.83 4.83 2.663 0 4.83-2.167 4.83-4.83 0-.207-.168-.375-.375-.375s-.375.168-.375.375c0 2.25-1.83 4.08-4.08 4.08s-4.08-1.83-4.08-4.08 1.83-4.08 4.08-4.08zm14.13-5.67l-2.902 2.9c-.304.305-.837.514-1.283.514l-.12-.005-2.69-.264-6.87 6.87c-.073.073-.17.11-.265.11s-.192-.037-.265-.11c-.146-.146-.146-.384 0-.53l6.882-6.882-.246-2.648c-.04-.468.177-1.07.51-1.403l2.9-2.903c.324-.323.622-.263.735-.22.113.04.38.184.42.64l.202 2.208c.016.175.19.35.364.365l2.21.2c.456.042.6.31.64.423.043.112.103.41-.22.733zm-.638-.424l-2.058-.187c-.536-.05-.995-.508-1.043-1.045l-.186-2.058-2.794 2.795c-.175.175-.313.558-.29.804l.233 2.527 2.543.248c.24.025.627-.115.802-.29l2.794-2.794z"/>
</svg>
