<svg xmlns="http://www.w3.org/2000/svg" viewBox="0 0 36 36">
  <path fill="#0568ae" d="M15.3 11.907c.208 0 .376-.168.376-.375s-.168-.375-.375-.375h-2.234l-.005-2.895h2.24c.208 0 .376-.168.376-.375s-.168-.375-.375-.375h-2.24v-.505c0-1.574-1.284-2.854-2.86-2.854-1.568 0-2.843 1.276-2.843 2.863V21.95c-1.54.98-2.49 2.694-2.49 4.526 0 2.96 2.406 5.37 5.363 5.37 2.956 0 5.36-2.41 5.36-5.37 0-1.837-.954-3.555-2.506-4.536l-.005-2.746h2.22c.208 0 .376-.168.376-.375s-.168-.376-.375-.376H13.08l-.005-2.893H15.3c.208 0 .376-.167.376-.374s-.168-.375-.375-.375h-2.228l-.005-2.892H15.3zm-.458 14.57c0 2.547-2.07 4.62-4.61 4.62-2.544 0-4.614-2.073-4.614-4.62 0-1.64.882-3.167 2.303-3.99.117-.067.188-.19.188-.325V7c0-1.156.94-2.096 2.092-2.096 1.163 0 2.11.944 2.11 2.105l.025 15.143c0 .134.072.258.188.324 1.43.824 2.32 2.356 2.32 4zm-4.23-3.066v-9.937c0-.207-.17-.375-.376-.375s-.375.168-.375.375v9.937c-1.52.183-2.703 1.48-2.703 3.048 0 1.694 1.378 3.073 3.073 3.073s3.074-1.377 3.074-3.072c0-1.565-1.177-2.858-2.693-3.047zm-.38 5.37c-1.282 0-2.324-1.04-2.324-2.322s1.042-2.323 2.323-2.323 2.325 1.042 2.325 2.323c0 1.28-1.043 2.323-2.324 2.323zm14.575-.572c-1.218 0-2.406-.355-3.437-1.024-2.287-1.48-3.942-4.718-2.168-8.32.788-1.608 1.532-2.88 2.19-4 1.198-2.047 2.233-3.815 3.054-6.796.044-.163.192-.276.36-.276.17 0 .318.113.363.276.816 2.983 1.853 4.752 3.054 6.8.656 1.12 1.4 2.39 2.188 3.996.306.616.512 1.257.63 1.957.31 1.85-.2 3.724-1.4 5.144-1.207 1.426-2.97 2.244-4.835 2.244zm0-18.737c-.78 2.376-1.713 3.97-2.77 5.773-.682 1.165-1.387 2.368-2.163 3.95-1.572 3.194-.115 6.055 1.903 7.362.91.59 1.956.904 3.028.904 1.645 0 3.198-.722 4.262-1.98 1.058-1.25 1.508-2.903 1.234-4.534-.105-.627-.29-1.2-.562-1.75-.777-1.582-1.48-2.785-2.164-3.948-1.056-1.806-1.99-3.4-2.768-5.777zm-.313 16.487l-.086-.01c-2.71-.636-3.295-2.605-3.487-3.252-.058-.198.052-.417.25-.476.2-.06.405.043.464.24l.006.022c.178.6.652 2.198 2.94 2.735.2.047.326.25.28.45-.042.174-.196.29-.366.29z"/>
</svg>
