<svg xmlns="http://www.w3.org/2000/svg" viewBox="0 0 36 36">
  <path fill="#0568ae" d="M31.96 20.342c-.12-.725-.343-1.42-.66-2.06-.795-1.62-1.543-2.894-2.203-4.02-1.236-2.11-2.213-3.775-3.018-6.71-.09-.326-.386-.552-.723-.552-.337 0-.634.226-.723.55-.807 2.936-1.782 4.6-3.017 6.71-.66 1.126-1.407 2.402-2.2 4.02-1.792 3.64-.2 7.183 2.3 8.802 1.09.71 2.35 1.084 3.64 1.084 1.976 0 3.843-.867 5.12-2.378 1.273-1.505 1.814-3.49 1.484-5.446zm-6.186 4.995c-.08.345-.39.58-.73.58l-.172-.02c-2.926-.688-3.556-2.815-3.762-3.514-.117-.397.106-.824.504-.94.398-.12.812.1.93.496l.004.018c.176.596.588 1.99 2.666 2.478.405.094.655.497.56.9zm-14.877-.602c.95.5 1.594 1.502 1.594 2.65 0 1.657-1.342 3-3 3s-3-1.343-3-3c0-1.128.625-2.112 1.546-2.624.145-.08.46-.28.46-.653V13.445c0-.552.447-1 1-1s1 .448 1 1v10.662c0 .34.222.534.4.628zM9.49 33.963c-3.61 0-6.546-2.94-6.546-6.557 0-1.81.743-3.514 2.055-4.748V6.48C5 3.997 6.995 2 9.45 2c2.47 0 4.477 2.004 4.477 4.468l.026 16.166c1.33 1.24 2.084 2.953 2.084 4.773 0 3.614-2.936 6.556-6.546 6.556zM9.45 3.998C8.1 3.998 7 5.1 7 6.454V23.11c0 .3-.136.587-.37.776-1.07.87-1.685 2.152-1.685 3.52 0 2.512 2.04 4.556 4.547 4.556 2.507 0 4.547-2.044 4.547-4.557 0-1.374-.624-2.663-1.71-3.537-.237-.19-.374-.475-.374-.778l-.028-16.622c0-1.362-1.11-2.47-2.477-2.47z"/>
</svg>
