<svg xmlns="http://www.w3.org/2000/svg" viewBox="0 0 36 36">
  <path fill="#0568ae" d="M13.45 22.35c-.142-.15-.137-.387.013-.53l4.162-3.98v-6.765c0-.207.168-.375.375-.375s.375.168.375.375V18c0 .102-.042.2-.116.27l-4.28 4.092c-.07.07-.165.104-.258.104-.1 0-.198-.04-.27-.116zM33.474 18c0 8.532-6.942 15.474-15.475 15.474-8.53 0-15.47-6.942-15.47-15.474s6.94-15.474 15.47-15.474c8.532 0 15.475 6.942 15.475 15.474zm-.75 0c0-8.12-6.605-14.724-14.725-14.724C9.88 3.276 3.278 9.88 3.278 18s6.603 14.724 14.72 14.724c8.12 0 14.725-6.605 14.725-14.724zM18.327 6.405c-.208-.022-.38.157-.385.364-.006.206.158.38.365.384 5.91.164 10.54 4.928 10.54 10.846 0 5.982-4.865 10.85-10.847 10.85-3.21 0-6.235-1.41-8.302-3.865-.134-.158-.37-.18-.528-.045-.16.133-.18.37-.045.528 2.21 2.625 5.445 4.13 8.876 4.13 6.396 0 11.6-5.203 11.6-11.6-.002-6.325-4.953-11.418-11.273-11.593z"/>
</svg>
