<svg xmlns="http://www.w3.org/2000/svg" viewBox="0 0 36 36">
  <path fill="#0568ae" d="M13.722 23.34c-.33 0-.658-.128-.903-.385-.478-.5-.46-1.29.04-1.767l3.89-3.72v-6.393c0-.69.56-1.25 1.25-1.25s1.25.56 1.25 1.25V18c0 .34-.14.668-.385.904l-4.278 4.09c-.243.232-.554.347-.865.347zM27 21c-3.314 0-6 2.686-6 6 0 3.313 2.686 6 6 6 3.313 0 6-2.687 6-6 0-3.314-2.687-6-6-6m-.05 8.015c.676 0 1.066-.27 1.066-.71 0-.543-.592-.678-1.287-.83-.847-.187-1.93-.526-1.93-1.78 0-.896.642-1.54 1.658-1.726v-.373c0-.423.17-.643.542-.643h.05c.39 0 .526.203.526.643v.34c1.067.1 1.642.575 1.642 1.066 0 .4-.425.68-.5.68l-.008-.003c-.356-.423-.965-.745-1.608-.745-.643 0-1.033.305-1.033.745 0 .49.524.626 1.27.796.862.186 2.014.542 2.014 1.76 0 .966-.677 1.626-1.778 1.796v.39c0 .422-.17.626-.542.626h-.05c-.39 0-.543-.186-.543-.627v-.354c-1.15-.135-1.794-.66-1.794-1.185 0-.368.41-.645.482-.645l.01.003c.355.42 1.066.777 1.81.777m-7.205-.155c-.568.09-1.15.14-1.743.14-6.065 0-11-4.935-11-11S11.935 7 18 7s11 4.935 11 11c0 .593-.05 1.175-.14 1.743 1.41.362 2.66 1.123 3.624 2.158.335-1.243.516-2.55.516-3.9 0-8.284-6.716-15-15-15C9.716 3 3 9.716 3 18s6.716 15 15 15c1.35 0 2.657-.18 3.9-.516-1.034-.963-1.795-2.212-2.157-3.624z"/>
</svg>
