<svg xmlns="http://www.w3.org/2000/svg" viewBox="0 0 36 36">
  <path fill="#0568ae" d="M13.733 22.466c-.1 0-.197-.04-.27-.116-.144-.15-.14-.387.01-.53l4.162-3.98v-6.766c0-.207.168-.375.375-.375s.375.167.375.374V18c0 .102-.042.2-.116.27l-4.277 4.092c-.074.07-.167.104-.26.104zm18.673 1.17c.61.977.97 2.128.97 3.364 0 3.515-2.858 6.375-6.372 6.375-1.235 0-2.386-.36-3.363-.97-1.746.686-3.645 1.068-5.633 1.068-8.526 0-15.463-6.94-15.463-15.473S9.48 2.526 18.007 2.526c8.53 0 15.468 6.94 15.468 15.474 0 1.988-.382 3.888-1.07 5.635zm-9.494 8.244c-.844-.71-1.497-1.636-1.884-2.69-.964.262-1.974.41-3.02.41-3.428 0-6.662-1.506-8.87-4.13-.134-.16-.114-.396.044-.53.158-.133.395-.112.528.045 2.066 2.456 5.09 3.864 8.298 3.864.97 0 1.907-.135 2.802-.376-.112-.474-.178-.966-.178-1.474 0-3.515 2.858-6.375 6.372-6.375.508 0 1 .066 1.473.18.24-.896.375-1.835.375-2.805 0-5.918-4.628-10.682-10.537-10.846-.207-.006-.37-.178-.364-.385.007-.208.175-.384.386-.365C24.653 6.58 29.602 11.673 29.602 18c0 1.046-.147 2.057-.408 3.02 1.054.39 1.98 1.042 2.688 1.886.544-1.536.843-3.186.843-4.906 0-8.12-6.602-14.724-14.718-14.724C9.894 3.276 3.294 9.88 3.294 18s6.6 14.724 14.714 14.724c1.72 0 3.37-.3 4.904-.844zm9.124-7.374l-.212-.387-.017-.03-.24-.363c-.643-.894-1.54-1.59-2.587-1.986-.233-.087-.47-.16-.717-.217-.405-.093-.825-.147-1.258-.147-3.1 0-5.622 2.523-5.622 5.625 0 .434.054.854.147 1.26.056.246.13.485.218.718.395 1.047 1.09 1.945 1.984 2.588l.364.24.028.017.387.212c.753.375 1.598.59 2.494.59 3.1 0 5.622-2.523 5.622-5.624 0-.896-.215-1.74-.59-2.494zm-2.884 3.93c0 .906-.804 1.608-1.89 1.692v.562c0 .224-.093.29-.252.29h-.065c-.16 0-.243-.066-.243-.29v-.57c-1.142-.113-1.87-.768-1.87-1.17 0-.272.355-.413.373-.385.283.485.808.853 1.522.95V27.2c-.873-.218-1.737-.582-1.737-1.677 0-.842.75-1.525 1.73-1.647v-.543c0-.225.095-.29.253-.29h.066c.157 0 .24.065.24.29v.533c1.086.084 1.752.674 1.752 1.04 0 .27-.356.41-.375.383-.248-.44-.765-.76-1.398-.832v2.228c.934.227 1.892.587 1.892 1.75zm-2.426-1.884V24.45c-.644.098-1.11.524-1.11 1.065 0 .61.44.85 1.11 1.037zm1.8 1.91c0-.672-.57-.935-1.268-1.125v2.207c.747-.066 1.267-.503 1.267-1.082z"/>
</svg>
