<svg xmlns="http://www.w3.org/2000/svg" viewBox="0 0 36 36">
  <path fill="#0568ae" d="M18.725 14.678v3.324c0 .197-.08.388-.224.524l-2.053 1.963c-.136.13-.313.2-.5.2-.198 0-.39-.08-.525-.224-.276-.29-.266-.75.023-1.025l1.83-1.748v-3.014c0-.4.325-.725.725-.725.4 0 .725.325.725.725zM18 12.722c-2.91 0-5.28 2.368-5.28 5.28S15.09 23.28 18 23.28s5.28-2.368 5.28-5.28-2.37-5.278-5.28-5.278m0-1.92c3.976 0 7.2 3.224 7.2 7.2S21.975 25.2 18 25.2s-7.2-3.223-7.2-7.2 3.224-7.197 7.2-7.197zm12.143-.737l-.32-.47c-4.39-6.18-12.914-7.968-19.447-3.924-3.41 2.113-5.74 5.46-6.552 9.334L2.197 15c-.287 0-.385.19-.217.424l1.69 2.35.9 1.25c.126.176.332.176.46.002l.076-.106 2.527-3.485c.168-.233.072-.423-.215-.424l-1.54-.002c.772-3.165 2.733-5.89 5.553-7.636 5.58-3.453 12.843-1.974 16.658 3.23.193.264.356.516.356.516.107.166.333.217.502.113l1.088-.673c.166-.104.216-.326.11-.492zM5.857 25.935l.32.47c4.39 6.18 12.914 7.968 19.447 3.924 3.41-2.113 5.74-5.46 6.552-9.334l1.627.003c.287 0 .385-.19.217-.424l-1.69-2.35-.9-1.25c-.126-.176-.332-.176-.46-.002l-.076.106-2.527 3.485c-.17.232-.072.423.215.424l1.54.002c-.772 3.165-2.733 5.89-5.553 7.636-5.58 3.453-12.843 1.974-16.658-3.23-.193-.264-.356-.516-.356-.516-.108-.166-.333-.217-.5-.113l-1.09.673c-.166.104-.216.326-.11.492z"/>
</svg>
