<svg xmlns="http://www.w3.org/2000/svg" viewBox="0 0 36 36">
  <path fill="#0568ae" d="M6.423 3.587l4.968 3.97c.485.488.62 1.21.442 1.933l4.717 4.755-2.213 2.235-4.72-4.757c-.715.18-1.434.04-1.916-.446l-3.894-4.95c-.166-.24-.24-.557-.044-.754l1.953-1.968c.172-.173.527-.162.708-.018zM31.74 25.834s-8.467-8.514-8.334-8.376l-1.424 1.438 7.97 7.933c.294.297.294.777 0 1.073-.295.296-.772.296-1.068 0l-7.967-7.932-1.06 1.073 7.965 7.93c.294.3.294.78 0 1.077-.295.295-.772.295-1.066 0l-7.965-7.93-1.26 1.27c-.137-.135 8.306 8.393 8.306 8.393 1.07 1.08 2.927.952 4.15-.28l1.476-1.487c1.223-1.232 1.347-3.103.277-4.182zm.565-18.128c.45 1.92-.052 4.025-1.542 5.53-1.756 1.767-4.35 2.17-6.482 1.205L13.365 25.448c.72 1.852.333 4.044-1.157 5.548-2.01 2.022-5.258 2.03-7.255.016-1.997-2.014-1.99-5.288.017-7.31 1.49-1.503 3.665-1.89 5.505-1.166L21.393 11.53c-.96-2.148-.558-4.764 1.198-6.53 1.495-1.507 3.595-2.024 5.5-1.553.213.053.497.332.163.668l-3.268 3.293c-.94.948-.943 2.48-.008 3.42.934.94 2.452.94 3.393-.01l3.2-3.224c.352-.352.672-.156.735.112zM10.3 25.624c-.943-.948-2.47-.944-3.416.008-.944.952-.948 2.493-.008 3.44.942.95 2.468.945 3.413-.007.945-.953.95-2.493.01-3.44z"/>
</svg>
