<svg xmlns="http://www.w3.org/2000/svg" viewBox="0 0 36 36">
  <path fill="#0568ae" d="M3.16 6.3c-.117-.15-.105-.363.03-.498l2.59-2.59c.135-.135.35-.147.498-.03l5.37 4.26c.546.543.757 1.29.616 2.093l4.388 4.387c.147.146.147.384 0 .53-.146.146-.384.146-.53 0l-4.532-4.53c-.093-.093-.13-.228-.1-.355.156-.623.03-1.194-.343-1.566L6.074 3.98 3.957 6.095l4.05 5.106c.346.34.918.466 1.54.312.13-.03.263.006.355.1l4.532 4.533c.147.146.147.384 0 .53-.073.073-.17.11-.265.11s-.193-.037-.266-.11l-4.39-4.39c-.795.135-1.555-.077-2.065-.587L3.16 6.3zm7.42 19.142c1.088 1.088 1.083 2.86-.01 3.954-.547.546-1.266.82-1.983.82-.714 0-1.426-.27-1.97-.812-1.086-1.09-1.083-2.862.01-3.954 1.09-1.09 2.865-1.094 3.953-.008zm-.53.53c-.797-.793-2.095-.79-2.895.01-.8.8-.8 2.097-.008 2.893.795.793 2.093.79 2.895-.008.798-.8.802-2.1.007-2.894zM29.303 28c.097 0 .194-.038.267-.112.147-.147.145-.385-.003-.53l-6.585-6.485c-.148-.145-.385-.144-.53.004-.146.147-.144.385.004.53l6.585 6.485c.074.072.17.108.264.108zm-8.555-5.42c-.146.147-.145.384.003.53l6.586 6.485c.072.072.167.108.262.108.097 0 .194-.038.267-.112.144-.147.143-.384-.005-.53l-6.586-6.485c-.15-.145-.386-.144-.53.004zm-6.928 3.05c.674 1.98.166 4.19-1.33 5.687-1.08 1.08-2.5 1.62-3.918 1.62-1.41 0-2.816-.534-3.885-1.603-2.147-2.148-2.14-5.648.015-7.803 1.497-1.495 3.706-2.003 5.69-1.33l10.6-10.6c-.91-2.276-.37-4.93 1.38-6.677 1.714-1.713 4.28-2.275 6.543-1.434.12.044.208.146.235.27.027.126-.01.256-.1.346l-3.748 3.747c-.385.385-.596.896-.6 1.44 0 .54.21 1.05.592 1.43.38.383.89.593 1.428.593h.004c.542 0 1.052-.214 1.438-.6l3.75-3.744c.088-.09.215-.128.342-.1.124.026.227.115.27.235.843 2.26.282 4.83-1.432 6.543-1.75 1.748-4.404 2.286-6.68 1.378l-10.596 10.6zm-.783.04c-.055-.14-.022-.297.083-.402l10.947-10.95c.11-.11.278-.14.42-.077 2.043.92 4.487.47 6.08-1.122 1.362-1.363 1.897-3.342 1.438-5.178L28.7 11.246c-.526.526-1.225.817-1.967.82h-.006c-.74 0-1.436-.29-1.958-.812-.526-.523-.814-1.22-.813-1.964.003-.742.294-1.44.82-1.967l3.308-3.308c-1.837-.46-3.816.076-5.18 1.44-1.594 1.59-2.045 4.033-1.124 6.077.065.142.035.31-.076.42L10.754 22.9c-.104.105-.262.138-.4.084-.56-.22-1.15-.326-1.732-.326-1.245 0-2.47.488-3.386 1.403-1.863 1.863-1.87 4.888-.017 6.743 1.854 1.854 4.878 1.846 6.743-.017 1.343-1.345 1.765-3.353 1.076-5.117zm10.948-8.11c-.146-.145-.383-.145-.528 0-.148.147-.148.385 0 .53l8.09 8.092c.44.44.66 1.057.615 1.733-.046.695-.363 1.37-.892 1.897l-1.48 1.48c-.53.528-1.204.846-1.898.892-.676.045-1.29-.172-1.732-.614l-8.092-8.093c-.145-.146-.38-.146-.53 0-.146.147-.146.384 0 .53l8.093 8.093c.545.546 1.28.84 2.085.84l.228-.008c.875-.06 1.72-.454 2.378-1.11l1.48-1.48c.656-.656 1.052-1.5 1.11-2.377.06-.895-.237-1.717-.834-2.313l-8.092-8.09z"/>
</svg>
