<svg xmlns="http://www.w3.org/2000/svg" viewBox="0 0 36 36">
  <path fill="#0568ae" d="M8.525 12.708H27.6v16.555c0 1.188-.972 2.16-2.16 2.16H10.685c-1.188 0-2.16-.972-2.16-2.16V12.708zm5.518 14.33v-9.945c0-.414-.336-.75-.75-.75s-.75.336-.75.75v9.944c0 .414.336.75.75.75s.75-.335.75-.75zm4.77 0v-9.945c0-.414-.337-.75-.75-.75s-.75.336-.75.75v9.944c0 .414.335.75.75.75s.75-.335.75-.75zm4.768 0v-9.945c0-.414-.335-.75-.75-.75s-.75.336-.75.75v9.944c0 .414.337.75.75.75s.75-.335.75-.75zM27.883 7.51H22.17c-.198 0-.36-.16-.36-.36v-.776c0-.734-.648-1.335-1.44-1.335h-4.615c-.792 0-1.44.6-1.44 1.334v.777c0 .2-.162.36-.36.36H8.242c-.594 0-1.08.487-1.08 1.08v1.538c0 .594.486 1.08 1.08 1.08h19.64c.594 0 1.08-.486 1.08-1.08V8.59c0-.593-.486-1.08-1.08-1.08zm0 0H22.17c-.198 0-.36-.16-.36-.36v-.776c0-.734-.648-1.335-1.44-1.335h-4.615c-.792 0-1.44.6-1.44 1.334v.777c0 .2-.162.36-.36.36H8.242c-.594 0-1.08.487-1.08 1.08v1.538c0 .594.486 1.08 1.08 1.08h19.64c.594 0 1.08-.486 1.08-1.08V8.59c0-.593-.486-1.08-1.08-1.08z"/>
</svg>
