<svg xmlns="http://www.w3.org/2000/svg" viewBox="0 0 36 36">
  <path fill="#0568ae" d="M28.32 7.055h-6.197v-1.1c0-.942-.814-1.71-1.815-1.71h-4.615c-1 0-1.815.768-1.815 1.71v1.1H7.68c-.802 0-1.455.653-1.455 1.455v1.537c0 .802.653 1.455 1.455 1.455h20.64c.802 0 1.455-.653 1.455-1.455V8.51c0-.802-.653-1.455-1.455-1.455zm-13.693-1.1c0-.528.478-.96 1.065-.96h4.615c.587 0 1.065.432 1.065.96v1.1h-6.745v-1.1zm14.398 4.092c0 .39-.316.705-.705.705H7.68c-.39 0-.705-.316-.705-.705V8.51c0-.39.316-.705.705-.705h20.64c.39 0 .705.316.705.705v1.537zm-1.113 3.263v15.872c0 1.398-1.137 2.535-2.535 2.535H10.623c-1.398 0-2.535-1.137-2.535-2.535V13.31c0-.207.168-.375.375-.375s.375.168.375.375v15.872c0 .984.8 1.785 1.785 1.785h14.754c.984 0 1.785-.8 1.785-1.785V13.31c0-.207.168-.375.375-.375.208 0 .375.168.375.375zm-14.68 14.147c-.208 0-.376-.168-.376-.375V15.235c0-.207.168-.375.375-.375s.376.168.376.375v11.848c0 .206-.168.374-.375.374zm4.768 0c-.207 0-.375-.168-.375-.375V15.235c0-.207.168-.375.375-.375s.375.168.375.375v11.848c0 .206-.168.374-.375.374zm4.768 0c-.207 0-.375-.168-.375-.375V15.235c0-.207.168-.375.375-.375s.375.168.375.375v11.848c0 .206-.167.374-.375.374z"/>
</svg>
