<svg xmlns="http://www.w3.org/2000/svg" viewBox="0 0 36 36">
  <path fill="#0568ae" d="M29.2 23.9l-4-4.8h1.1c.6 0 .8-.3.9-.5.1-.2.2-.5-.2-1l-3.5-4.3h1.1c.6 0 .8-.3.9-.5.1-.2.2-.5-.2-1L19 4.3c-.5-.6-1.4-.6-2 0L10.7 12c-.4.5-.3.8-.2 1 .1.2.3.5.9.5h1.1L9 17.6c-.4.5-.3.8-.2 1 .1.2.3.5.9.5h1.1l-4 4.8c-.4.5-.3.8-.2 1 .1.2.3.5.9.5h7.7v5.9c0 .8.7 1.5 1.5 1.5h2.6c.8 0 1.5-.7 1.5-1.5v-5.9h7.7c.6 0 .8-.3.9-.5.1-.2.2-.5-.2-1zM20 31.2c0 .4-.3.7-.7.7h-2.6c-.4 0-.7-.3-.7-.7v-5.9h4v5.9zm8.5-6.6H7.3s0-.1.1-.2l4.5-5.4c.1-.1.1-.3 0-.4s-.2-.2-.3-.2H9.5s0-.1.1-.2l4-4.9c.1-.1.1-.3 0-.4s-.2-.2-.3-.2h-2.1s0-.1.1-.2l6.3-7.7c.2-.3.6-.3.8 0l6.3 7.7c.1.1.1.2.1.2H19c-.2 0-.4.2-.4.4s.2.4.4.4h3.5l3.9 4.7c.1.1.1.2.1.2h-6.1c-.2 0-.4.2-.4.4s.2.4.4.4h3.9l4.3 5.3c.1.1.1.2.1.2 0-.1-.1-.1-.2-.1z"/>
</svg>
