<svg xmlns="http://www.w3.org/2000/svg" viewBox="0 0 36 36">
  <path fill="#0568ae" d="M22.805 5.003l.903-3.076c.05-.172-.027-.355-.186-.438-.16-.084-.353-.044-.466.095l-2.293 2.832C19.86 4.234 18.93 4.14 18 4.14c-7.65 0-13.875 6.223-13.875 13.874 0 2.46.653 4.877 1.887 6.99.07.12.195.186.324.186l.19-.05c.177-.105.238-.335.133-.514-1.168-1.998-1.786-4.284-1.786-6.61C4.874 10.777 10.762 4.89 18 4.89c.747 0 1.493.066 2.226.19L8.55 19.5c-.09.11-.108.266-.046.396s.194.214.338.214l7.527.015-4.08 13.968c-.05.172.028.354.186.438l.174.044c.11 0 .22-.05.292-.14l2.29-2.826c.906.184 1.836.28 2.77.28 7.65 0 13.874-6.223 13.874-13.874 0-5.82-3.635-11.004-9.07-13.01zM17.23 19.856c.032-.113.01-.235-.06-.33-.072-.094-.183-.15-.3-.15l-7.242-.015L22.46 3.514 18.735 16.2c-.033.113-.01.235.06.33.07.094.182.15.3.15l7.274-.018-12.838 15.85 3.697-12.656zM18 31.14c-.75 0-1.5-.068-2.234-.194L27.45 16.52c.09-.112.108-.266.046-.397-.062-.13-.194-.213-.338-.213l-7.56.02 2.996-10.205c5.115 1.91 8.532 6.8 8.532 12.29 0 7.235-5.89 13.124-13.126 13.124z"/>
</svg>
