<svg xmlns="http://www.w3.org/2000/svg" viewBox="0 0 36 36">
  <path fill="#0568ae" d="M22.936 2.72l.16.04c.146.076.218.244.17.403l-3.793 12.92 6.976-.017c.133 0 .255.076.312.197.058.12.04.263-.043.367L13.33 33.16c-.067.084-.167.13-.268.13l-.16-.04c-.146-.077-.218-.245-.172-.404l3.764-12.89-6.946-.014c-.133 0-.254-.077-.312-.197-.057-.12-.04-.263.044-.367l13.386-16.53c.068-.084.168-.13.27-.13m1.084 3.207l-.575 1.957c3.602 1.944 6.055 5.754 6.055 10.126 0 6.266-5.038 11.374-11.275 11.494l-1.57 1.94c.443.043.89.066 1.346.066 7.457 0 13.5-6.044 13.5-13.5 0-5.292-3.047-9.87-7.48-12.083zM12.545 28.13C8.95 26.182 6.5 22.375 6.5 18.007c0-6.263 5.034-11.37 11.267-11.494l1.57-1.94c-.44-.043-.886-.066-1.337-.066-7.456 0-13.5 6.044-13.5 13.5 0 5.29 3.044 9.865 7.473 12.08l.572-1.96z"/>
</svg>
