<svg xmlns="http://www.w3.org/2000/svg" viewBox="0 0 36 36">
  <path fill="#0568ae" d="M32.3 14.6c-.8-.7-1.3-2.1-1.1-3.1.2-1-.5-2.1-1.5-2.4-1-.3-2-1.4-2.3-2.4-.2-.8-.9-1.4-1.8-1.6h-1.4c-.8-.2-1.7-.6-2.2-1.2-.3-.4-.8-.7-1.3-.8-.5-.1-1 0-1.5.2-.7.4-1.6.5-2.5.3-.3-.1-.6-.1-.8-.3-.2-.1-.4-.2-.6-.2-.6-.1-1.5.2-2 .9-.6.8-1.9 1.5-3 1.4-1-.1-2 .7-2.3 1.7-.2 1-1.2 2.1-2.1 2.5-1 .4-1.6 1.5-1.4 2.5.2 1-.2 2.4-.9 3.2-.7.7-.8 2-.2 2.8.6.8.8 2.3.4 3.3s0 2.2.9 2.7 1.7 1.8 1.7 2.8c0 1 .8 1.9 1.8 2h.2c.1 0 .2 0 .3.1.1 0 .2.1.3.1.1 0 .1 0 .2.1s.3.1.4.2c.6.4 1.2.9 1.5 1.5.4.7 1.2 1.2 2 1.2.2 0 .4 0 .6-.1.3-.1.5-.1.8-.1.9 0 1.8.3 2.4.7.4.3.9.5 1.4.5.5 0 1-.2 1.4-.5.6-.5 1.5-.8 2.4-.9.3 0 .6 0 .8.1.2.1.4.1.6.1.8 0 1.7-.5 2-1.3.2-.4.5-.8.9-1.2.1-.1.2-.2.4-.3.4-.3.9-.5 1.3-.5 1-.2 1.9-1.1 1.9-2.2 0-1 .7-2.3 1.6-2.9.9-.6 1.2-1.8.8-2.7-.4-.9-.3-2.4.3-3.3.6-.9.4-2.2-.4-2.9zM18 28.2c-5.6 0-10.2-4.5-10.2-10.2S12.4 7.8 18 7.8 28.2 12.3 28.2 18 23.6 28.2 18 28.2zm5.8-14.5l-6.1 9.9c-.2.4-.6.6-1 .6s-.7-.2-.9-.5L12 19c-.3-.4-.3-.9.1-1.3.3-.3.9-.3 1.3 0l3.2 2.9 5.7-7.9c.3-.4.9-.5 1.3-.2.3.2.4.8.2 1.2z"/>
</svg>
