<svg xmlns="http://www.w3.org/2000/svg" viewBox="0 0 36 36">
  <path fill="#0568ae" d="M14.103 32.71c-1.608 0-3.177-.468-4.537-1.352-3.02-1.957-5.204-6.23-2.862-10.99 1.054-2.15 2.05-3.85 2.928-5.35 1.612-2.752 3.004-5.13 4.11-9.143.045-.162.193-.275.36-.275.17 0 .318.113.362.276.835 3.046 1.82 5.065 2.675 6.638.098.182.03.41-.152.51-.182.097-.41.03-.51-.152-.753-1.39-1.608-3.118-2.377-5.568-1.065 3.386-2.353 5.587-3.822 8.094-.872 1.49-1.86 3.176-2.902 5.3-2.14 4.35-.155 8.248 2.597 10.03 1.24.807 2.666 1.233 4.13 1.233 3.442 0 6.463-2.317 7.347-5.636.053-.2.258-.318.46-.266.2.053.318.26.265.46-.97 3.646-4.29 6.192-8.072 6.192zm-.053-2.562c.047-.202-.078-.404-.28-.45-3.755-.883-4.533-3.507-4.827-4.495l-.01-.032c-.06-.197-.263-.295-.46-.236-.2.06-.308.283-.25.482.297.997 1.196 4.03 5.376 5.01l.085.01c.17.002.324-.115.365-.288zm14.742-8.387c1.2-1.42 1.71-3.294 1.4-5.14-.116-.7-.322-1.34-.628-1.958-.788-1.605-1.532-2.874-2.188-3.994-1.2-2.048-2.238-3.817-3.056-6.8-.045-.164-.193-.277-.362-.277-.17 0-.317.114-.36.277-.82 2.982-1.857 4.75-3.057 6.798-.655 1.12-1.398 2.39-2.186 3.996-1.773 3.604-.12 6.84 2.168 8.322 1.03.67 2.22 1.024 3.436 1.024 1.865 0 3.627-.82 4.834-2.245zm-2.064-10.714c.682 1.163 1.386 2.365 2.163 3.946.274.553.458 1.126.562 1.75.274 1.63-.175 3.282-1.233 4.534-1.065 1.258-2.62 1.98-4.263 1.98-1.072 0-2.12-.312-3.028-.903-2.02-1.308-3.476-4.17-1.905-7.36.776-1.583 1.48-2.786 2.162-3.95 1.057-1.804 1.99-3.396 2.77-5.773.778 2.377 1.713 3.97 2.77 5.776zm-2.718 10.42c.047-.202-.078-.403-.28-.45-2.29-.538-2.762-2.136-2.94-2.738l-.006-.018c-.058-.198-.265-.303-.463-.244-.198.06-.31.277-.25.475.192.65.775 2.62 3.49 3.256l.085.01c.17 0 .325-.117.365-.29z"/>
</svg>
