<svg xmlns="http://www.w3.org/2000/svg" viewBox="0 0 36 36">
  <path fill="#0568ae" d="M16.5 32.5c.1.1.3.1.4.2.4.1.7.2 1.1.2.9 0 1.7-.4 2.3-1.1.6-.7.8-1.5.7-2.4l-.3-.9c-.4-.7-.7-1.3-1-1.8-.5-.9-1-1.7-1.3-3 0-.1-.2-.2-.3-.2-.1 0-.3.1-.3.2-.4 1.3-.8 2-1.3 3-.3.5-.6 1.1-1 1.8-.8 1.6-.1 3.2 1 3.9-.1.1 0 .1 0 .1"/>
  <path fill="#0568ae" d="M31.5 9c-.9 0-1.5.7-1.5 1.5V12h-4.5c-.1-1.7-1.6-3.1-3.4-3.1H21V6h3c.8 0 1.5-.7 1.5-1.5S24.8 3 24 3H11.9c-.8 0-1.5.7-1.5 1.5S11.1 6 11.9 6H15v2.8h-1.2c-1.8 0-3.2 1.4-3.4 3.1H6v-1.5C6 9.7 5.4 9 4.5 9S3 9.7 3 10.5V24c0 .8.7 1.5 1.5 1.5S6 24.8 6 24v-1.5h9.7l1-2.2c.1-.3.1-.7-.1-.9l-1.2-1.3c-.2-.2-.3-.6-.1-.9l2.1-4.7c.1-.2.4-.2.5.1l-.2 3.6c0 .3.1.7.4.9l2.6 2.5c.2.2.3.6.1.9l-1 2H30V24c0 .8.7 1.5 1.5 1.5S33 24.8 33 24V10.5c0-.8-.7-1.5-1.5-1.5z"/>
</svg>
