<svg xmlns="http://www.w3.org/2000/svg" viewBox="0 0 36 36">
  <path fill="#0568ae" d="M31.174 16.557c-.12-.725-.344-1.42-.662-2.062-.794-1.618-1.542-2.893-2.202-4.018-1.236-2.11-2.213-3.775-3.018-6.71-.09-.326-.385-.55-.723-.552-.338 0-.635.226-.724.55-.807 2.936-1.782 4.6-3.017 6.71-.66 1.125-1.408 2.4-2.202 4.02-1.79 3.638-.198 7.182 2.3 8.8 1.092.71 2.35 1.084 3.64 1.084 1.977 0 3.844-.868 5.122-2.38 1.272-1.502 1.813-3.487 1.484-5.443zm-6.187 4.995c-.08.346-.39.58-.73.58l-.17-.02c-2.927-.688-3.557-2.815-3.763-3.514-.117-.397.106-.823.504-.94.397-.12.81.1.93.496l.004.02c.176.595.588 1.99 2.667 2.477.4.095.65.498.557.902zm-4.874 3.003c-3.055-1.98-5.008-6.298-2.83-10.72.21-.432.418-.838.62-1.224-1-1.843-1.854-3.74-2.598-6.453-.09-.326-.385-.552-.723-.552-.337 0-.634.226-.723.55-1.076 3.91-2.372 6.123-4.013 8.925-.87 1.484-1.855 3.167-2.9 5.297C4.64 25.06 6.687 29.62 9.9 31.7c1.405.912 3.023 1.394 4.68 1.394 2.54 0 4.94-1.114 6.585-3.057 1.045-1.236 1.7-2.726 1.932-4.296-1.056-.193-2.07-.59-2.984-1.185zm-5.087 5.68c-.08.345-.39.578-.73.578l-.172-.02c-4.392-1.03-5.338-4.22-5.65-5.27-.117-.397.105-.83.502-.948s.81.093.928.49l.01.032c.302 1.02 1.01 3.404 4.554 4.236.403.094.653.498.558.9z"/>
</svg>
