<svg xmlns="http://www.w3.org/2000/svg" viewBox="0 0 36 36">
  <path fill="#0568ae" d="M31.5 8.5c-1 0-1.9.8-1.9 1.9v1.1h-3.8c-.3-1.8-1.8-3.2-3.7-3.2h-.9v-2H24c1 0 1.9-.8 1.9-1.9S25 2.6 24 2.6H11.9c-1 0-1.9.8-1.9 1.9s.8 1.9 1.9 1.9h2.7v2.1h-.8c-2 0-3.6 1.3-3.7 3.2H6.4v-1.1c0-1-.8-1.9-1.9-1.9s-1.9.8-1.9 1.9v13.5c0 1 .8 1.9 1.9 1.9s1.9-.8 1.9-1.9v-1.2H16c.1 0 .3-.1.3-.2l.9-1.9c.2-.4.1-.9-.2-1.2l-1-1.4c-.1-.1-.1-.3-.1-.4l2.1-3.7c.1-.2 0-.4-.1-.5-.2-.1-.4 0-.5.1l-2.1 3.7c-.2.4-.1.9.2 1.2l1.1 1.2c.1.1.1.3.1.5l-.9 1.7H6.4v-9.7h23.2V22H20l.7-1.3c.2-.4.1-.9-.2-1.2l-2.3-2.2c-.1-.1-.3-.1-.5 0-.1.1-.1.3 0 .5L20 20c.1.1.1.3.1.4l-.9 1.8c-.1.1 0 .2 0 .3.1.1.2.2.3.2h10.1v1.2c0 1 .8 1.9 1.9 1.9s1.9-.8 1.9-1.9V10.4c-.1-1-.9-1.9-1.9-1.9zM5.7 23.9c0 .6-.5 1.1-1.1 1.1s-1.1-.5-1.1-1.1V10.4c0-.6.5-1.1 1.1-1.1s1.1.5 1.1 1.1v13.5zm5.1-19.5c0-.6.5-1.1 1.1-1.1H24c.6 0 1.1.5 1.1 1.1 0 .6-.5 1.1-1.1 1.1H11.9c-.6.1-1.1-.4-1.1-1.1zm3 4.7H15c.2 0 .4-.2.4-.4V6.3h5.1v2.1h-2.4c-.2 0-.4.2-.4.4s.2.4.4.4h4c1.5 0 2.7 1 3 2.4H10.8c.2-1.5 1.4-2.5 3-2.5zm18.8 14.8c0 .6-.5 1.1-1.1 1.1s-1.1-.5-1.1-1.1V10.4c0-.6.5-1.1 1.1-1.1s1.1.5 1.1 1.1v13.5zm-11.7 4.8c-.4-.8-.7-1.4-1.1-1.9-.6-1-1.1-1.8-1.5-3.2 0-.2-.2-.3-.4-.3s-.3.1-.4.3c-.4 1.4-.9 2.2-1.5 3.2-.3.5-.7 1.2-1.1 1.9-.9 1.8-.1 3.5 1.1 4.3.5.3 1.1.5 1.8.5 1 0 1.9-.4 2.5-1.1.6-.7.9-1.7.7-2.6.1-.5 0-.8-.1-1.1zm-1 3.1c-.5.6-1.2.9-1.9.9-.5 0-.9-.1-1.4-.4-.9-.6-1.6-1.9-.8-3.3.4-.8.7-1.3 1-1.9.4-.7.8-1.4 1.2-2.3.3.9.7 1.6 1.2 2.3.3.6.7 1.1 1 1.9.1.2.2.5.3.8.1.7-.1 1.4-.6 2z"/>
</svg>
