<svg xmlns="http://www.w3.org/2000/svg" viewBox="0 0 36 36">
  <path fill="#0568ae" d="M25.5 14.3c0-2.3-1.3-4.4-3.6-5.9-.9-.6-1-1.1-1-1.5v-.5h.3c.5 0 .8-.4.8-.8s-.3-.8-.8-.8h-.3V3.6c0-.9-.7-1.6-1.6-1.6h-2.7c-.9 0-1.6.7-1.6 1.6v1.3h-.3c-.4 0-.8.3-.8.8s.3.8.8.8h.3V7c0 .4-.1 1-1 1.5-2.3 1.5-3.6 3.6-3.6 5.9v.6c0 .4.2.8.4 1.1-.3.3-.4.7-.4 1.1v3.5c0 .4.2.8.4 1.1-.3.3-.4.7-.4 1.1v3.2c0 .4.2.8.4 1.1-.3.3-.4.7-.4 1.1v1.9c0 2.3 1.8 4.1 4.1 4.1h6.9c2.3 0 4.1-1.8 4.1-4.1V28c0-.4-.2-.8-.4-1.1.3-.3.4-.7.4-1.1v-3.2c0-.4-.2-.8-.4-1.1.3-.3.4-.7.4-1.1V17c0-.4-.2-.8-.4-1.1.3-.3.4-.7.4-1.1v-.5zm-1.9.6s0 .3-.4.3h-4.1c-.4 0-.8.3-.8.8s.3.8.8.8h4.1c.4 0 .4.3.4.3v3.5s0 .3-.4.3h-4.1c-.4 0-.8.3-.8.8s.3.8.8.8h4.1c.4 0 .4.3.4.3V26s0 .3-.4.3h-4.1c-.4 0-.8.3-.8.8s.3.8.8.8h4.1c.4 0 .4.3.4.3v1.9c0 1.2-1 2.1-2.2 2.1h-6.9c-1.2 0-2.1-1-2.1-2.1V28c0-.1.1-.3.4-.3H14c.4 0 .8-.3.8-.8s-.3-.8-.8-.8h-1.2c-.4 0-.4-.2-.4-.3v-3.2c0-.1.1-.3.4-.3H14c.4 0 .8-.3.8-.8s-.3-.8-.8-.8h-1.2c-.4 0-.4-.2-.4-.3V17c0-.1.1-.3.4-.3H14c.4 0 .8-.3.8-.8s-.3-.8-.8-.8h-1.2c-.4 0-.4-.2-.4-.3v-.6c0-1.7.9-3.1 2.7-4.3C16.8 9 17 7.7 17 7.1v-.7h2v.7c0 .6.2 1.9 1.9 2.9 1.8 1.1 2.7 2.6 2.7 4.3v.6z"/>
</svg>
