<svg xmlns="http://www.w3.org/2000/svg" viewBox="0 0 36 36">
  <path fill="#0568ae" d="M25.4 14.9v-.6c0-2.3-1.3-4.3-3.6-5.8-.9-.6-1-1.2-1-1.6V6h.4c.2 0 .4-.2.4-.4s-.2-.4-.4-.4h-.4V3.6c0-.8-.7-1.5-1.5-1.5h-2.7c-.8 0-1.5.7-1.5 1.5v1.7h-.4c-.2 0-.4.2-.4.4s.3.3.5.3h.4v.8c0 .5-.1 1-1 1.6-2.3 1.5-3.6 3.5-3.6 5.8v.6c0 .4.2.8.5 1.1-.3.3-.5.6-.5 1.1v3.5c0 .4.2.8.5 1.1-.3.3-.5.6-.5 1.1v3.2c0 .4.2.8.5 1.1-.3.3-.5.6-.5 1.1V30c0 2.2 1.8 4 4 4h6.9c2.2 0 4-1.8 4-4v-2c0-.4-.2-.8-.5-1.1.3-.3.5-.6.5-1.1v-3.2c0-.4-.2-.8-.5-1.1.3-.3.5-.6.5-1.1V17c0-.4-.2-.8-.5-1.1.2-.2.4-.6.4-1zm-8.8-12h2.7c.4 0 .7.3.7.7v1.7h-4.1V3.6c0-.4.3-.7.7-.7zM24 15.6h-5.3c-.2 0-.4.2-.4.4s.2.4.4.4H24c.4 0 .7.3.7.7v3.5c0 .4-.3.7-.7.7h-5.3c-.2 0-.4.2-.4.4s.2.4.4.4H24c.4 0 .7.3.7.7V26c0 .4-.3.7-.7.7h-5.3c-.2 0-.4.2-.4.4s.2.4.4.4H24c.4 0 .7.3.7.7v1.9c0 1.8-1.4 3.2-3.2 3.2h-6.9c-1.8 0-3.2-1.4-3.2-3.2V28c0-.4.3-.7.7-.7h1.2c.2 0 .4-.2.4-.4s-.2-.4-.4-.4H12c-.4 0-.7-.3-.7-.7v-3.2c0-.4.3-.7.7-.7h1.2c.2 0 .4-.2.4-.4s-.2-.4-.4-.4H12c-.4 0-.7-.3-.7-.7V17c0-.4.3-.7.7-.7h1.2c.2 0 .4-.2.4-.4s-.2-.4-.4-.4H12c-.4 0-.7-.3-.7-.7v-.6c0-2 1.1-3.8 3.2-5.2 1.2-.8 1.4-1.6 1.4-2.3V6H20v.8c0 .7.2 1.5 1.4 2.3 2.1 1.3 3.2 3.1 3.2 5.2v.6c.1.3-.3.7-.6.7z"/>
</svg>
