<svg xmlns="http://www.w3.org/2000/svg" viewBox="0 0 36 36">
  <path fill="#0568ae" d="M31.5 12.4c-1 0-1.9.8-1.9 1.9v1.1h-3.8c-.3-1.8-1.8-3.2-3.7-3.2h-.9v-2.1H24c1 0 1.9-.8 1.9-1.9S25 6.4 24 6.4H11.9c-1 0-1.9.8-1.9 1.9s.8 1.9 1.9 1.9h2.7v2.1h-.8c-2 0-3.6 1.3-3.7 3.2H6.4v-1.1c0-1-.8-1.9-1.9-1.9-1 0-1.9.8-1.9 1.9v13.5c0 1 .8 1.9 1.9 1.9 1 0 1.9-.8 1.9-1.9v-1.1h23.2v1.1c0 1 .8 1.9 1.9 1.9s1.9-.8 1.9-1.9V14.3c-.1-1.1-.9-1.9-1.9-1.9zM10.8 8.3c0-.6.5-1.1 1.1-1.1H24c.6 0 1.1.5 1.1 1.1 0 .6-.5 1.1-1.1 1.1H11.9c-.6 0-1.1-.5-1.1-1.1zm3 4.7H15c.2 0 .4-.2.4-.4v-2.5h5.1v2.1h-2.4c-.2 0-.4.2-.4.4s.2.4.4.4h4c1.5 0 2.7 1 3 2.4H10.8c.2-1.4 1.4-2.4 3-2.4zM5.7 27.7c0 .6-.5 1.1-1.1 1.1-.6 0-1.1-.5-1.1-1.1V14.3c0-.6.5-1.1 1.1-1.1.6 0 1.1.5 1.1 1.1v13.4zm.7-1.9v-9.7h23.2v9.7H6.4zm26.2 1.9c0 .6-.5 1.1-1.1 1.1s-1.1-.5-1.1-1.1V14.3c0-.6.5-1.1 1.1-1.1s1.1.5 1.1 1.1v13.4z"/>
</svg>
