<svg xmlns="http://www.w3.org/2000/svg" viewBox="0 0 36 36">
  <path fill="#0568ae" d="M13.2 13.8l1.9 5.6h-3.8l1.9-5.6zm8.6 7.6c0 .4.1.7.4.9.3.2.7.3 1.2.3.4 0 .7-.1 1.1-.2.4-.1.8-.4 1.1-.6V20h-2.1c-1.1.1-1.7.5-1.7 1.4zM32.2 9.5v17c0 .8-.6 1.4-1.4 1.4H5.3c-.8 0-1.4-.6-1.4-1.4v-17c0-.8.6-1.4 1.4-1.4h25.5c.7 0 1.4.6 1.4 1.4zM18.9 24.1l-4.7-12.4h-2.1L7.5 24.1h2.1l1-3h5.1l1 3h2.2zm8.7-5.8c0-1.2-.3-2.1-.9-2.8-.6-.6-1.5-.9-2.7-.9-.7 0-1.3.1-1.9.2-.6.1-1.2.4-1.8.7l.5 1.5c1-.5 1.9-.7 2.8-.7.7 0 1.2.2 1.5.5.3.3.5.9.5 1.6v.2H23c-1 0-1.8.3-2.3.8-.6.5-.8 1.2-.8 2.1 0 .9.3 1.5.8 2s1.2.7 2.1.7c.5 0 1.1-.1 1.6-.3.6-.2 1-.5 1.5-.9l.2 1h1.6v-5.7z"/>
</svg>
