<svg xmlns="http://www.w3.org/2000/svg" viewBox="0 0 36 36">
  <path fill="#0568ae" d="M32.5 26.4V9.6c0-1-.8-1.9-1.9-1.9H5.3c-1 0-1.9.8-1.9 1.9v15c0 .2.2.4.4.4s.4-.2.4-.4v-15c0-.6.5-1.1 1.1-1.1h25.3c.6 0 1.1.5 1.1 1.1v16.8c0 .6-.5 1.1-1.1 1.1H5.3c-.2 0-.4.2-.4.4s.2.4.4.4h25.3c1.1 0 1.9-.8 1.9-1.9zM13.2 11.7h1L19 24.1h-1l-1.4-3.8h-5.8l-1.4 3.8h-.9l4.7-12.4zm-2.1 7.8h5.1l-2.6-6.9-2.5 6.9zM23 24.3c-.9 0-1.6-.2-2.1-.7-.5-.5-.8-1.1-.8-1.9 0-.9.3-1.6.8-2.1s1.3-.7 2.4-.7h3v-.4c0-1.9-.8-2.9-2.5-2.9-.5 0-1 .1-1.4.2-.5.1-.9.3-1.4.6l-.3-.7c.6-.3 1.1-.6 1.6-.7.5-.1 1.1-.2 1.7-.2 2.2 0 3.3 1.2 3.3 3.6v5.7h-.7l-.3-1.1c-.5.4-1 .7-1.6 1-.6.2-1.1.3-1.7.3zm.1-.8c.5 0 1.1-.1 1.7-.4.6-.2 1.1-.6 1.5-1v-2.5h-2.9c-1.6 0-2.4.7-2.4 2 0 .5.2 1 .6 1.3.4.4.9.6 1.5.6z"/>
</svg>
