<svg xmlns="http://www.w3.org/2000/svg" viewBox="0 0 36 36">
  <path fill="#0568ae" d="M18 3C9.7 3 3 9.7 3 18s6.7 15 15 15 15-6.7 15-15S26.3 3 18 3zm3 22.3c-.8.2-1.6.4-2.5.4-1.5 0-2.8-.3-3.9-1s-2-1.6-2.6-2.8c-.6-1.2-.9-2.5-.9-4s.3-2.9 1-4.1c.6-1.2 1.5-2.1 2.6-2.8 1.1-.6 2.4-1 3.7-1 .8 0 1.6.1 2.4.3.8.2 1.5.5 2.1.9l-.7 2c-1.2-.6-2.4-.9-3.6-.9-1.5 0-2.8.5-3.7 1.5-.9 1-1.4 2.3-1.4 4 0 1.1.2 2.1.7 2.9.4.8 1 1.5 1.8 1.9.8.4 1.6.7 2.6.7.6 0 1.3-.1 1.8-.2.6-.2 1.2-.4 1.8-.8l.7 2c-.4.4-1.1.8-1.9 1z"/>
</svg>
