<svg xmlns="http://www.w3.org/2000/svg" viewBox="0 0 36 36">
  <path fill="#0568ae" d="M18 3C9.7 3 3 9.7 3 18s6.7 15 15 15 15-6.7 15-15S26.3 3 18 3zm4.9 22.4h-9.5v-1.7c0-1 .1-1.8.4-2.5.2-.7.7-1.4 1.2-2 .6-.6 1.4-1.2 2.4-1.8.8-.4 1.4-.8 1.8-1.1.4-.3.7-.6.9-.9.2-.3.3-.7.3-1.1 0-.7-.2-1.2-.7-1.6-.4-.4-1-.6-1.8-.6-.6 0-1.1.1-1.7.3-.6.2-1.2.6-1.8 1l-.9-1.7c.8-.6 1.5-1 2.3-1.3.7-.3 1.5-.4 2.4-.4.9 0 1.7.2 2.4.5.7.4 1.2.9 1.6 1.5.4.6.6 1.3.6 2.1 0 1-.3 1.9-.9 2.6-.6.7-1.7 1.5-3.3 2.4-.7.4-1.3.8-1.7 1.1-.4.4-.7.8-.8 1.2-.2.4-.3 1-.3 1.8h7.1v2.2z"/>
</svg>
