<svg xmlns="http://www.w3.org/2000/svg" viewBox="0 0 36 36">
  <path fill="#0568ae" d="M18 3C9.7 3 3 9.7 3 18s6.7 15 15 15 15-6.7 15-15S26.3 3 18 3zm.7 23.8c-.3.3-.7.5-1.2.5s-.9-.2-1.2-.5c-.3-.3-.5-.7-.5-1.2s.2-.9.5-1.2c.3-.3.7-.5 1.2-.5s.9.2 1.2.5c.3.3.5.7.5 1.2s-.1.9-.5 1.2zm4.1-11.1c-.4.7-1 1.3-1.9 2l-.4.3c-.7.5-1.1.9-1.4 1.4-.3.4-.4.9-.4 1.6v.7h-2.4V21c0-1.1.2-1.9.5-2.5.3-.6.9-1.2 1.8-1.9l.4-.3c.4-.3.7-.6.9-.8.2-.3.4-.5.5-.8.1-.3.2-.6.2-1 0-.6-.3-1.1-.8-1.5-.5-.4-1.2-.6-2-.6-1.3 0-2.6.6-4 1.7l-1.1-1.8c.8-.7 1.7-1.3 2.6-1.7 1-.4 1.9-.6 3-.6 1.5 0 2.8.4 3.7 1.1.9.8 1.4 1.8 1.4 3.1 0 .9-.2 1.6-.6 2.3z"/>
</svg>
