<svg xmlns="http://www.w3.org/2000/svg" viewBox="0 0 36 36">
  <path fill="#0568ae" d="M20.7 19.5c.5.5.8 1.1.8 1.9 0 .9-.3 1.6-.9 2.1-.6.5-1.4.8-2.4.8s-1.9-.3-2.5-.8c-.6-.5-.9-1.2-.9-2.1 0-.7.2-1.3.7-1.9.5-.5 1.1-.9 2-1.2l1 .1c.9.3 1.6.6 2.2 1.1zm-2.8-3l1.1.2c.7-.2 1.2-.6 1.5-1 .4-.5.5-1 .5-1.6 0-.8-.3-1.4-.8-1.9s-1.2-.7-2.1-.7c-.9 0-1.6.2-2.2.7-.5.5-.8 1.1-.8 1.9 0 .7.2 1.2.7 1.6.5.3 1.2.6 2.1.8zM33 18c0 8.3-6.7 15-15 15S3 26.3 3 18 9.7 3 18 3s15 6.7 15 15zm-8.9 3.5c0-1.9-.9-3.2-2.8-4.2.8-.4 1.3-.9 1.7-1.5.4-.6.6-1.3.6-2.1s-.2-1.6-.7-2.2c-.4-.7-1.1-1.2-1.9-1.6-.8-.4-1.8-.6-2.9-.6-1.1 0-2 .2-2.9.6-.8.4-1.5.9-2 1.6-.5.7-.7 1.5-.7 2.4 0 .8.2 1.6.6 2.2.4.6 1 1.2 1.8 1.6-.9.4-1.6 1-2.1 1.7s-.7 1.5-.7 2.4c0 1.4.5 2.5 1.6 3.3 1.1.8 2.5 1.3 4.3 1.3 1.8 0 3.3-.4 4.4-1.3 1.1-.9 1.7-2.1 1.7-3.6z"/>
</svg>
