<svg xmlns="http://www.w3.org/2000/svg" viewBox="0 0 36 36">
  <path fill="#0568ae" d="M20 13.3c.5.8.8 2 .8 3.5v.8c-.8.1-1.8.2-2.8.2-1.1 0-1.9-.2-2.4-.7-.5-.5-.8-1.2-.8-2.2 0-.9.3-1.5.8-2s1.2-.7 2.1-.7c1-.1 1.8.3 2.3 1.1zM33 18c0 8.3-6.7 15-15 15S3 26.3 3 18 9.7 3 18 3s15 6.7 15 15zm-9.9-1c0-2.2-.5-3.9-1.4-5.1-.9-1.2-2.3-1.8-4-1.8-1.5 0-2.8.5-3.7 1.4-1 .9-1.4 2.1-1.4 3.5 0 1.5.4 2.7 1.3 3.5.9.8 2.1 1.2 3.7 1.2 1.3 0 2.4-.1 3.2-.2-.1 1-.3 1.8-.6 2.4-.3.6-.8 1-1.3 1.3-.6.3-1.3.4-2.1.4-.9 0-1.8-.2-2.8-.7l-.6 1.8c1 .6 2.2.9 3.6.9 2 0 3.5-.7 4.6-2.1 1.1-1.4 1.6-3.4 1.6-6V17z"/>
</svg>
