<svg xmlns="http://www.w3.org/2000/svg" viewBox="0 0 36 36">
  <path fill="#0568ae" d="M18.5 16.8h-3.2v-4.4h3.2c.8 0 1.4.2 1.9.6.4.4.7.9.7 1.6 0 .7-.2 1.2-.7 1.6-.5.4-1.1.6-1.9.6zm.1 2h-3.4v4.5h3.6c.8 0 1.4-.2 1.9-.6.4-.4.7-.9.7-1.6 0-.7-.2-1.3-.7-1.7-.4-.4-1.1-.6-2.1-.6zM33 18c0 8.3-6.7 15-15 15S3 26.3 3 18 9.7 3 18 3s15 6.7 15 15zm-9.1 3.2c0-.9-.3-1.7-.7-2.3-.5-.6-1.2-1-2.1-1.2.8-.3 1.4-.7 1.8-1.3.4-.6.7-1.3.7-2.1 0-1.3-.4-2.2-1.3-2.9-.9-.7-2.1-1-3.7-1h-5.7v15H19c1 0 1.9-.2 2.6-.5.8-.3 1.3-.8 1.8-1.4.3-.7.5-1.4.5-2.3z"/>
</svg>
