<svg xmlns="http://www.w3.org/2000/svg" viewBox="0 0 36 36">
  <path fill="#0568ae" d="M21.3 20.8c0 .8-.3 1.5-.8 2s-1.2.8-2.1.8c-1 0-1.8-.4-2.3-1.2-.5-.8-.8-2-.8-3.5V18c1.1-.1 2-.2 2.9-.2 2.1.1 3.1 1.1 3.1 3zM33 18c0 8.3-6.7 15-15 15S3 26.3 3 18 9.7 3 18 3s15 6.7 15 15zm-9.4 2.8c0-1.5-.4-2.7-1.3-3.5-.9-.8-2.1-1.2-3.7-1.2-1.1 0-2.2.1-3.2.2.2-1.4.6-2.4 1.3-3.1.7-.7 1.6-1 2.8-1 .9 0 1.8.2 2.8.7l.6-1.8c-1-.6-2.3-.9-3.6-.9-1.3 0-2.3.3-3.3.9-.9.6-1.6 1.5-2.1 2.8-.7 1.1-.9 2.5-.9 4.2v.6c0 2.2.5 3.9 1.4 5.1.9 1.2 2.3 1.8 4 1.8 1 0 1.9-.2 2.7-.6.8-.4 1.4-1 1.8-1.7.4-.7.7-1.6.7-2.5z"/>
</svg>
