<svg xmlns="http://www.w3.org/2000/svg" viewBox="0 0 36 36">
  <path fill="#0568ae" d="M19 33.4c-.2 0-.4-.2-.4-.4s.1-.4.3-.4c7.7-.5 13.6-6.9 13.6-14.6.1-8-6.4-14.6-14.5-14.6C11.3 3.4 5.4 8 3.8 14.5c-.3 1.1-.4 2.3-.4 3.5 0 1.8.3 3.5.9 5.2 1 2.7 2.8 5 5.2 6.7.2.1.2.4.1.5-.1.2-.4.2-.5.1-2.5-1.8-4.4-4.2-5.4-7.1-.7-1.7-1-3.6-1-5.4 0-1.3.2-2.5.5-3.7C4.8 7.4 10.9 2.6 18 2.6c8.5 0 15.4 6.9 15.4 15.4 0 8.1-6.3 14.8-14.4 15.4zm-1-7.6c-1.6 0-2.8-.6-3.6-1.9-.9-1.3-1.3-3.1-1.3-5.4v-.8c0-2.3.4-4.2 1.3-5.4.9-1.3 2.1-1.9 3.6-1.9 1.6 0 2.8.6 3.6 1.9.9 1.3 1.3 3.1 1.3 5.4v.8c0 2.4-.4 4.2-1.3 5.4-.8 1.3-2 1.9-3.6 1.9zm0-1c1.2 0 2.2-.5 2.8-1.6.6-1.1 1-2.7 1-4.7v-.8c0-2.1-.3-3.6-1-4.7-.6-1.1-1.6-1.6-2.8-1.6-1.2 0-2.2.5-2.8 1.6-.6 1.1-1 2.7-1 4.7v.8c0 2.1.3 3.6 1 4.7.6 1.1 1.6 1.6 2.8 1.6z"/>
</svg>
