<svg xmlns="http://www.w3.org/2000/svg" viewBox="0 0 36 36">
  <path fill="#0568ae" d="M19 33.3c-.2 0-.4-.2-.4-.4s.1-.4.3-.4c7.7-.5 13.6-6.9 13.6-14.6 0-8.1-6.6-14.6-14.6-14.6-6.7 0-12.6 4.6-14.2 11.1-.3 1.1-.4 2.3-.4 3.5 0 1.8.3 3.5.9 5.2 1 2.7 2.8 5 5.2 6.7.2.1.2.4.1.5-.1.2-.4.2-.5.1-2.5-1.8-4.4-4.2-5.4-7.1-.7-1.7-1-3.6-1-5.4 0-1.3.2-2.5.5-3.7C4.8 7.4 10.9 2.6 18 2.6c8.5 0 15.4 6.9 15.4 15.4 0 8.1-6.3 14.8-14.4 15.3zm.1-23.1c1.3 0 2.4.3 3.3.9l-.4.9c-.5-.3-.9-.5-1.4-.6-.5-.1-.9-.2-1.5-.2-1.4 0-2.5.5-3.2 1.4-.8.9-1.3 2.3-1.4 4.1 1.3-.2 2.6-.3 3.7-.3 3.3 0 5 1.5 5 4.6 0 .9-.2 1.7-.6 2.4-.4.7-1 1.3-1.7 1.7-.7.4-1.5.6-2.5.6-1.6 0-2.8-.6-3.7-1.8-.9-1.2-1.3-2.9-1.3-5.1v-.5c0-2.6.5-4.6 1.5-6 .9-1.3 2.3-2.1 4.2-2.1zM18 17.5c-1.2 0-2.4.1-3.7.3V19c0 1.9.3 3.3 1 4.3s1.7 1.5 3 1.5c1.1 0 2-.3 2.7-1 .6-.7 1-1.5 1-2.6 0-1.3-.3-2.2-1-2.8-.6-.6-1.6-.9-3-.9z"/>
</svg>
