<svg xmlns="http://www.w3.org/2000/svg" viewBox="0 0 36 36">
  <path fill="#0568ae" d="M19 33.4c-.2 0-.4-.2-.4-.4s.1-.4.3-.4c7.7-.5 13.6-6.9 13.6-14.6.1-8-6.4-14.6-14.5-14.6C11.3 3.4 5.4 8 3.8 14.5c-.3 1.1-.4 2.3-.4 3.5 0 1.8.3 3.5.9 5.2 1 2.7 2.8 5 5.2 6.7.2.1.2.4.1.5-.1.2-.4.2-.5.1-2.5-1.8-4.4-4.2-5.4-7.1-.7-1.7-1-3.6-1-5.4 0-1.3.2-2.5.5-3.7C4.8 7.4 10.9 2.6 18 2.6c8.5 0 15.4 6.9 15.4 15.4 0 8.1-6.3 14.8-14.4 15.4zm-6-11.7c0-.9.3-1.7.8-2.4s1.2-1.2 2.2-1.6c-.8-.3-1.5-.7-1.9-1.3-.4-.6-.7-1.3-.7-2.1 0-1.2.4-2.1 1.3-2.9.9-.8 2-1.1 3.3-1.1.9 0 1.7.2 2.4.5.7.4 1.2.8 1.6 1.4.4.6.6 1.3.6 2 0 .8-.2 1.5-.6 2.1-.4.6-1 1.1-1.9 1.4.9.4 1.6.9 2.1 1.5.5.7.7 1.4.7 2.4 0 1.3-.5 2.3-1.4 3.1-.9.8-2.1 1.2-3.6 1.2s-2.7-.4-3.6-1.1c-.9-.9-1.3-1.9-1.3-3.1zm5 3.1c1.2 0 2.1-.3 2.8-.9.7-.6 1.1-1.4 1.1-2.4 0-.9-.3-1.6-.9-2.2-.6-.6-1.5-1-2.6-1.1l-1.2-.2c-1 .3-1.8.8-2.3 1.4-.5.6-.8 1.3-.8 2.1 0 1 .4 1.8 1.1 2.4.7.6 1.6.9 2.8.9zm1-7.4c1.7-.7 2.5-1.7 2.5-3.1 0-.9-.3-1.7-1-2.2-.6-.6-1.5-.8-2.6-.8s-1.9.3-2.6.8c-.6.6-1 1.3-1 2.2 0 1.6 1.1 2.6 3.3 2.9l1.4.2z"/>
</svg>
