<svg xmlns="http://www.w3.org/2000/svg" viewBox="0 0 36 36">
  <path fill="#0568ae" d="M33.4 18c0 8.1-6.3 14.8-14.3 15.3-.2 0-.4-.2-.4-.4s.1-.4.3-.4c7.7-.5 13.6-6.9 13.6-14.6C32.6 10 26.1 3.4 18 3.4 11.3 3.4 5.4 8 3.8 14.5c-.3 1.1-.4 2.3-.4 3.5 0 1.8.3 3.5.9 5.2 1 2.7 2.8 5 5.2 6.7.2.1.2.4.1.5-.1.2-.4.2-.5.1-2.5-1.8-4.4-4.2-5.4-7.1-.7-1.7-1-3.6-1-5.4 0-1.3.2-2.5.5-3.7C4.8 7.4 10.9 2.6 18 2.6c8.5 0 15.4 6.9 15.4 15.4zm-16.2-6.7c0-.2.1-.4.2-.5.1-.1.3-.2.6-.2.2 0 .4.1.6.2.1.1.2.3.2.5s-.1.4-.2.5c-.2.2-.4.2-.6.2-.2 0-.4-.1-.6-.2-.1-.1-.2-.3-.2-.5zm.3 3.5h1.1v10.9h-1.1V14.8z"/>
</svg>
