<svg xmlns="http://www.w3.org/2000/svg" viewBox="0 0 36 36">
  <path fill="#0568ae" d="M33.4 18c0 8.1-6.3 14.8-14.3 15.3-.2 0-.4-.2-.4-.4s.1-.4.3-.4c7.7-.5 13.6-6.9 13.6-14.6C32.6 10 26.1 3.4 18 3.4 11.3 3.4 5.4 8 3.8 14.5c-.3 1.1-.4 2.3-.4 3.5 0 1.8.3 3.5.9 5.2 1 2.7 2.8 5 5.2 6.7.2.1.2.4.1.5-.1.2-.4.2-.5.1-2.5-1.8-4.4-4.2-5.4-7.1-.7-1.7-1-3.6-1-5.4 0-1.3.2-2.5.5-3.7C4.8 7.4 10.9 2.6 18 2.6c8.5 0 15.4 6.9 15.4 15.4zm-16.3 4v-.9c0-.8.1-1.5.4-2 .3-.6.8-1.1 1.6-1.8l.4-.3c.6-.5 1.1-1 1.4-1.5.3-.5.4-1 .4-1.6 0-.8-.3-1.4-.9-1.9-.6-.5-1.4-.7-2.3-.7-1.3 0-2.6.6-3.9 1.7l-.5-.8c.6-.6 1.3-1.1 2.1-1.5.8-.3 1.6-.5 2.4-.5 1.3 0 2.3.3 3.1 1 .8.6 1.2 1.5 1.2 2.6 0 .7-.2 1.4-.5 1.9-.3.6-.9 1.2-1.7 1.8l-.3.4c-.7.5-1.2 1-1.4 1.5-.3.5-.4 1-.4 1.7v.9h-1.1zm1.5 3.7c0 .3-.1.5-.3.6-.2.2-.4.3-.7.3-.3 0-.5-.1-.7-.3-.2-.2-.3-.4-.3-.6 0-.3.1-.5.3-.6.2-.2.4-.3.7-.3.3 0 .5.1.7.3.2.2.3.4.3.6z"/>
</svg>
