<svg xmlns="http://www.w3.org/2000/svg" viewBox="0 0 36 36">
  <path fill="#0568ae" d="M19 33.3c-.2 0-.4-.2-.4-.4s.1-.4.3-.4c7.7-.5 13.6-6.9 13.6-14.6 0-8.1-6.6-14.6-14.6-14.6-6.7 0-12.6 4.6-14.2 11.1-.3 1.1-.4 2.3-.4 3.5 0 1.8.3 3.5.9 5.2 1 2.7 2.8 5 5.2 6.7.2.1.2.4.1.5-.1.2-.4.2-.5.1-2.5-1.8-4.4-4.2-5.4-7.1-.7-1.7-1-3.6-1-5.4 0-1.3.2-2.5.5-3.7C4.8 7.4 10.9 2.6 18 2.6c8.5 0 15.4 6.9 15.4 15.4 0 8.1-6.3 14.8-14.4 15.3zm-5.3-7.9v-.8c0-1.2.1-2.1.4-2.9.2-.8.6-1.5 1.2-2.1.6-.6 1.4-1.2 2.4-1.8 1.4-.8 2.3-1.4 2.8-1.9s.7-1.2.7-1.9c0-.9-.3-1.6-.9-2.1-.5-.6-1.3-.9-2.3-.9-.6 0-1.2.1-1.8.4-.6.3-1.2.7-1.7 1.1l-.5-.8c1.3-1.2 2.7-1.8 4.2-1.8.8 0 1.6.2 2.2.5.6.3 1.1.8 1.5 1.4.3.6.5 1.2.5 2 0 .6-.1 1.2-.4 1.7-.3.5-.7 1-1.3 1.5-.6.5-1.4 1-2.5 1.6-.9.5-1.5.9-2 1.4-.5.5-.8 1-1 1.7-.2.7-.3 1.5-.3 2.6h7.6v1h-8.8z"/>
</svg>
