<svg xmlns="http://www.w3.org/2000/svg" viewBox="0 0 36 36">
  <path fill="#0568ae" d="M19.7 6c2.1 0 4 .5 5.6 1.3l-.9 2.8c-1.4-.7-2.9-1-4.3-1-1.9 0-3.3.5-4.3 1.6-1 1-1.7 2.6-1.9 4.8 1.6-.2 3.3-.4 5-.4 2.5 0 4.3.6 5.7 1.9 1.3 1.3 2 3.1 2 5.4 0 1.5-.3 2.8-1 3.9-.7 1.2-1.6 2-2.8 2.7-1.2.6-2.6.9-4.1.9-2.6 0-4.7-.9-6.1-2.8-1.5-1.9-2.2-4.5-2.2-7.8v-1c0-2.6.4-4.8 1.2-6.7.8-1.9 1.9-3.3 3.3-4.3 1.2-.8 2.9-1.3 4.8-1.3zm-1.5 12c-1.3 0-2.8.1-4.4.3v1.3c0 2.4.4 4.2 1.2 5.4.8 1.2 2 1.8 3.6 1.8 1.4 0 2.5-.4 3.2-1.2.8-.8 1.2-1.8 1.2-3.1 0-3-1.6-4.5-4.8-4.5z"/>
</svg>
