<svg xmlns="http://www.w3.org/2000/svg" viewBox="0 0 36 36">
  <path fill="#0568ae" d="M10.8 29.5V27c0-1.5.2-2.8.6-3.9.4-1.1 1-2.1 1.9-3 .9-.9 2.1-1.8 3.7-2.7 1.2-.7 2.2-1.3 2.8-1.7.7-.5 1.2-1 1.4-1.5.3-.5.4-1 .4-1.7 0-1-.3-1.8-1-2.4-.7-.6-1.6-.9-2.8-.9-.9 0-1.7.2-2.6.5-.9.3-1.8.9-2.8 1.6L11 8.7c1.2-.9 2.4-1.6 3.5-2 1.3-.5 2.5-.7 3.8-.7 1.4 0 2.7.3 3.7.8 1.1.6 1.9 1.3 2.5 2.3.6 1 .9 2 .9 3.2 0 1.5-.5 2.9-1.4 4-1 1.1-2.6 2.4-5.1 3.7-1.1.6-2 1.2-2.6 1.8-.6.5-1 1.2-1.3 1.8-.3.7-.4 1.6-.4 2.7h10.9v3.2H10.8z"/>
</svg>
