<svg xmlns="http://www.w3.org/2000/svg" viewBox="0 0 36 36">
  <path fill="#0568ae" d="M17 30c-2.5 0-4.8-.7-6.8-2l1.2-2.7c1.8 1 3.6 1.6 5.5 1.6 1.5 0 2.6-.3 3.5-1 .8-.7 1.3-1.6 1.3-2.8 0-1.3-.4-2.2-1.2-2.9-.8-.7-2-1-3.6-1H14v-2.9h2.9c1.4 0 2.4-.3 3.1-.9.7-.6 1.1-1.5 1.1-2.6 0-1-.4-1.9-1.1-2.5-.8-.6-1.8-.9-3-.9-1.6 0-3.3.6-5.1 1.7l-1.3-2.7C12.7 6.7 14.9 6 17.2 6c1.4 0 2.7.3 3.9.8 1.1.5 2 1.3 2.6 2.2.6.9.9 2 .9 3.3 0 1.1-.3 2-.9 2.9-.6.9-1.4 1.6-2.5 2.1 1.3.5 2.3 1.3 3 2.3.7 1 1 2.2 1 3.6 0 2.1-.8 3.8-2.3 5-1.5 1.2-3.5 1.8-5.9 1.8z"/>
</svg>
