<svg xmlns="http://www.w3.org/2000/svg" viewBox="0 0 36 36">
  <path fill="#0568ae" d="M9.7 23.5c0-1.3.3-2.4 1-3.4s1.7-1.8 2.9-2.3c-1.1-.6-1.9-1.3-2.5-2.2-.6-.9-.9-1.9-.9-3.1 0-1.3.3-2.4 1-3.4s1.6-1.7 2.8-2.3c1.2-.5 2.5-.8 4-.8s2.9.3 4 .8 2 1.3 2.6 2.2c.6.9.9 2 .9 3.1s-.3 2.1-.8 3c-.6.9-1.4 1.6-2.4 2.1 2.6 1.3 3.9 3.3 3.9 5.9 0 2.1-.8 3.7-2.3 5-1.3 1.2-3.3 1.9-5.9 1.9-2.5 0-4.5-.6-6-1.8-1.5-1.2-2.3-2.7-2.3-4.7zm8.4 3.6c1.4 0 2.6-.4 3.4-1.1.8-.7 1.3-1.7 1.3-3 0-1.1-.4-2-1.1-2.7-.7-.7-1.8-1.1-3.2-1.3l-1.4-.2c-1.2.4-2.1.9-2.8 1.6-.7.7-1 1.6-1 2.6 0 1.2.4 2.2 1.3 2.9.9.8 2.1 1.2 3.5 1.2zm1.2-10.8c.9-.3 1.6-.8 2.1-1.5.5-.6.8-1.4.8-2.2 0-1.1-.4-2-1.1-2.7-.7-.7-1.7-1-3-1s-2.3.3-3.1 1c-.8.7-1.1 1.5-1.1 2.6 0 .9.3 1.7 1 2.3.7.6 1.6 1 2.9 1.2l1.5.3z"/>
</svg>
