<svg xmlns="http://www.w3.org/2000/svg" viewBox="0 0 36 36">
  <path fill="#0568ae" d="M16.5 30c-2.1 0-4-.4-5.6-1.3l.9-2.8c1.4.7 2.9 1 4.2 1 1.3 0 2.4-.2 3.3-.6.9-.4 1.6-1.1 2.1-2 .5-.9.8-2.2 1-3.7-1.3.2-2.9.3-5 .3-2.5 0-4.4-.6-5.7-1.9-1.3-1.3-2-3-2-5.4 0-2.2.7-4 2.2-5.4C13.5 6.7 15.4 6 17.7 6c2.6 0 4.7.9 6.1 2.8 1.4 1.8 2.2 4.5 2.2 7.8v1c0 4-.8 7.1-2.4 9.2-1.6 2.1-4 3.2-7.1 3.2zm1.6-12.1c1.6 0 3.1-.1 4.4-.2v-1.2c0-2.4-.4-4.1-1.2-5.4-.8-1.2-2-1.8-3.6-1.8-1.4 0-2.5.4-3.3 1.1-.8.8-1.2 1.8-1.2 3.1 0 1.5.4 2.6 1.2 3.4.8.6 2 1 3.7 1z"/>
</svg>
