<svg xmlns="http://www.w3.org/2000/svg" viewBox="0 0 36 36" enable-background="new 0 0 36 36"><path d="M17.689 26.616c-.262 0-.514-.129-.697-.36l-7.401-9.3c-.129-.162-.102-.398.06-.527.162-.129.398-.102.527.06l7.401 9.301.113.077.103-.09 13.83-22.285c.11-.176.341-.23.517-.121.176.109.23.34.121.516l-13.832 22.284c-.164.266-.418.427-.696.443l-.046.002zm15.74-8.613c0-1.797-.308-3.557-.914-5.233-.07-.195-.286-.296-.48-.225-.195.07-.296.285-.225.48.577 1.593.869 3.267.869 4.977 0 8.064-6.561 14.626-14.625 14.626s-14.625-6.561-14.625-14.626c0-8.064 6.561-14.625 14.625-14.625 2.521 0 5.007.652 7.188 1.885.18.102.409.039.511-.142.102-.18.038-.409-.142-.511-2.293-1.297-4.906-1.983-7.557-1.983-8.478 0-15.375 6.897-15.375 15.375s6.897 15.376 15.375 15.376c8.478.002 15.375-6.896 15.375-15.374z" fill="#0568ae"/></svg>