<svg xmlns="http://www.w3.org/2000/svg" viewBox="0 0 36 36"><path fill="#0568ae" d="M15.8 8.1v19.8c0 .3-.2.6-.4.7-.1.1-.2.1-.4.1s-.3-.1-.5-.2c0 0-7.1-6.3-7.2-6.5H3.6c-.6 0-1.1-.5-1.1-1.1v-5.8c0-.6.5-1.1 1.1-1.1h3.7c.1-.1 7.2-6.6 7.2-6.6.1-.1.3-.2.5-.2.1 0 .3 0 .4.1.3.2.4.5.4.8zM33.5 18c0-.6-.4-1-1-1H18c-.6 0-1 .4-1 1s.4 1 1 1h14.5c.6 0 1-.4 1-1zm-14.8-7.7h3.1v.7h-2.3v1.4h1.8v.7h-1.8v1.4h2.3v.7h-3.1v-4.9zm4.1 4.9v-4.9h.7l2.3 3.6v-3.6h.8v4.9h-.7l-2.3-3.6v3.6h-.8zm7.4.1c-.5 0-.9-.1-1.3-.3-.4-.2-.6-.5-.8-.9-.2-.4-.3-.8-.3-1.3s.1-.9.3-1.3c.2-.4.5-.7.9-.9.4-.2.8-.3 1.2-.3.3 0 .6 0 .8.1.3.1.5.2.7.3l-.2.6c-.2-.1-.4-.2-.6-.2-.2 0-.4-.1-.6-.1-.3 0-.6.1-.9.2-.3.2-.5.4-.6.6-.1.3-.2.6-.2.9 0 .5.1 1 .4 1.3.3.3.7.5 1.2.5.3 0 .6 0 .8-.1v-1.2h-1.1v-.7h1.9v2.4c-.4.2-1 .4-1.6.4zm-11.5 5.5h3.1v.7h-2.3v1.4h1.8v.7h-1.8V25h2.3v.7h-3.1v-4.9zm5.8 5c-.7 0-1.2-.1-1.7-.4l.2-.7c.4.2.9.3 1.4.3.3 0 .6-.1.8-.2.2-.1.3-.3.3-.5 0-.1 0-.2-.1-.3-.1-.1-.1-.2-.3-.2-.1-.1-.3-.1-.6-.2l-.3-.1c-.4-.1-.7-.3-.9-.5-.2-.2-.3-.5-.3-.9s.2-.8.5-1c.3-.3.7-.4 1.2-.4.3 0 .5 0 .8.1.3.1.5.2.7.3l-.2.7c-.2-.1-.4-.2-.6-.2-.2 0-.4-.1-.6-.1-.3 0-.5.1-.7.2-.2.1-.2.3-.2.5s.1.3.2.4c.1.1.3.2.7.3l.3.1c.3.1.6.2.8.3.2.1.3.3.4.4.1.2.1.4.1.6 0 .5-.2.8-.5 1.1-.4.3-.9.4-1.4.4zm3-5h1.7c.6 0 1 .1 1.3.4.3.3.5.7.5 1.2s-.2.9-.5 1.2c-.3.3-.8.4-1.3.4h-.9v1.7h-.8v-4.9zm.8 2.5h.8c.3 0 .6-.1.8-.2.2-.2.3-.4.3-.7 0-.3-.1-.5-.3-.6-.2-.2-.4-.2-.8-.2h-.8v1.7z"/></svg>