<svg xmlns="http://www.w3.org/2000/svg" viewBox="0 0 36 36" enable-background="new 0 0 36 36"><path d="M18.072 9.236c-.207 0-.375-.168-.375-.375v-2.612c0-.207.168-.375.375-.375s.375.168.375.375v2.611c0 .208-.168.376-.375.376zm-5.164 1.631c.168-.122.205-.356.083-.524l-1.537-2.113c-.122-.168-.357-.205-.524-.083-.168.122-.205.356-.083.524l1.537 2.113c.073.101.188.155.303.155.077 0 .155-.024.221-.072zm-3.221 4.356c.064-.197-.044-.409-.241-.473l-2.483-.807c-.197-.064-.409.044-.473.241s.044.409.241.473l2.483.807.116.018c.158 0 .305-.101.357-.259zm-2.77 6.696l2.483-.808c.197-.064.305-.275.241-.473-.064-.197-.275-.305-.473-.24l-2.483.808c-.197.064-.305.275-.241.473.051.158.198.259.357.259l.116-.019zm4.421 5.766l1.534-2.113c.122-.167.084-.402-.083-.523-.168-.122-.402-.085-.524.083l-1.534 2.113c-.122.167-.084.402.083.523.067.048.144.072.22.072.116-.001.23-.054.304-.155zm6.964 2.067v-2.612c0-.207-.168-.375-.375-.375s-.375.168-.375.375v2.611c0 .207.168.375.375.375.207.001.375-.167.375-.374zm6.767-1.899c.168-.122.205-.356.083-.524l-1.535-2.113c-.121-.167-.356-.205-.523-.083-.168.122-.205.356-.083.523l1.535 2.113c.073.101.188.155.304.155.076.001.153-.023.219-.071zm4.442-6.037c.064-.197-.043-.408-.241-.472l-2.484-.807c-.196-.065-.408.043-.472.241-.064.197.044.408.241.472l2.484.807.116.018c.158.001.305-.1.356-.259zm-2.68-6.214l2.483-.808c.197-.064.305-.276.24-.473-.064-.197-.276-.304-.473-.241l-2.483.808c-.197.064-.305.276-.24.473.051.158.198.259.356.259l.117-.018zm-3.097-4.733l1.536-2.113c.122-.167.085-.402-.083-.524-.169-.123-.402-.084-.524.083l-1.536 2.113c-.122.167-.085.402.082.524.067.049.144.072.22.072.118 0 .232-.054.305-.155zm1.477 7.13c0 3.977-3.235 7.213-7.211 7.213-3.977 0-7.212-3.236-7.212-7.213 0-3.976 3.235-7.211 7.212-7.211 3.976 0 7.211 3.235 7.211 7.211zm-11.395-4.835v9.72l-.005.027c.46.393.976.721 1.535.974v-11.77c-.562.254-1.08.585-1.543.981l.013.068zm2.28 11.011c.487.15 1.001.237 1.529.268v-12.886c-.528.031-1.042.118-1.529.268v12.35zm2.279.268c.528-.031 1.041-.117 1.528-.268v-12.35c-.487-.151-1-.237-1.528-.268v12.886zm2.278-.558c.558-.253 1.074-.581 1.535-.974l-.005-.027v-9.8c-.459-.391-.973-.717-1.529-.969v11.77zm-7.587-1.721v-8.328c-.952 1.125-1.528 2.578-1.528 4.163 0 1.587.577 3.039 1.528 4.165zm11.395-4.165c0-1.586-.577-3.038-1.528-4.164v8.328c.951-1.125 1.528-2.577 1.528-4.164z" fill="#0568ae"/></svg>