<svg xmlns="http://www.w3.org/2000/svg" viewBox="0 0 36 36" enable-background="new 0 0 36 36"><path d="M17.643 23.267c-.224 0-.438-.109-.594-.304l-5.513-6.926c-.129-.162-.102-.398.06-.527.163-.129.399-.102.527.06l5.512 6.926 10.682-17.203c.109-.176.34-.231.517-.121.176.109.23.34.121.516l-10.678 17.204c-.139.224-.355.36-.593.375h-.041zm11.532 4.093v-14.899c0-.207-.168-.375-.375-.375s-.375.168-.375.375v14.899c0 .587-.478 1.065-1.065 1.065h-18.72c-.587 0-1.065-.478-1.065-1.065v-18.72c0-.587.478-1.065 1.065-1.065h14.36c.207 0 .375-.168.375-.375s-.168-.375-.375-.375h-14.36c-1.001 0-1.815.814-1.815 1.815v18.72c0 1.001.814 1.815 1.815 1.815h18.72c1.001 0 1.815-.814 1.815-1.815z" fill="#0568ae"/></svg>