<svg xmlns="http://www.w3.org/2000/svg" viewBox="0 0 36 36" enable-background="new 0 0 36 36"><path d="M27.18 7.2h-18.361c-.891 0-1.62.729-1.62 1.62v18.361c0 .891.729 1.62 1.62 1.62h18.361c.891 0 1.62-.729 1.62-1.62v-18.361c0-.891-.729-1.62-1.62-1.62zm-2.018 5.254l-7.339 11.824c-.276.444-.74.709-1.241.709-.444 0-.864-.208-1.152-.571l-4.514-5.673c-.372-.468-.322-1.154.113-1.563.423-.399 1.134-.407 1.567-.017l3.806 3.433 6.841-9.433c.352-.485 1.082-.616 1.582-.281.519.35.667 1.04.337 1.572z" fill="#0568ae"/></svg>