<svg xmlns="http://www.w3.org/2000/svg" viewBox="0 0 36 36" enable-background="new 0 0 36 36"><path d="M25.764 29.922h-.017c-.296-.002-.587-.128-.799-.345l-3.181-3.237-1.215 1.175c-.285.281-.688.39-1.079.288-.224-.056-.429-.188-.589-.38-.105-.13-.176-.258-.218-.395l-1.981-9.087c-.063-.177-.066-.425.006-.657.203-.602.85-.926 1.447-.732l8.983 2.24.026.007c.378.125.654.421.756.813.089.407-.03.808-.317 1.087l-1.22 1.174 3.178 3.233c.217.218.333.511.327.822.002.291-.119.577-.34.796l-2.968 2.874c-.121.122-.278.217-.463.279l-.053.014-.283.031zm-3.989-4.486c.097 0 .194.038.268.112l3.442 3.503c.076.078.178.119.277.12l.123-.011.152-.094 2.969-2.876c.051-.05.115-.141.115-.267.003-.119-.035-.212-.111-.289l-3.445-3.505c-.07-.071-.109-.168-.107-.268.001-.1.043-.195.115-.265l1.491-1.435c.098-.096.139-.237.11-.375-.023-.085-.087-.213-.25-.271l-8.993-2.243c-.235-.076-.456.033-.526.241-.022.072-.022.155.001.225l1.985 9.098.074.109c.055.067.121.111.194.129.133.035.271-.002.37-.098l1.485-1.437c.073-.068.167-.103.261-.103zm-3.44-13.566v-5.416c0-.207-.167-.375-.375-.375-.207 0-.375.168-.375.375v5.415c0 .207.168.375.375.375.207.001.375-.168.375-.374zm-6.041 6.041c0-.207-.168-.375-.375-.375h-5.416c-.207 0-.375.168-.375.375s.168.375.375.375h5.416c.207 0 .375-.168.375-.375zm10.202-4.007l3.83-3.829c.147-.147.147-.384 0-.53-.146-.146-.384-.146-.53 0l-3.83 3.829c-.146.147-.146.384 0 .53.073.073.169.11.265.11s.192-.037.265-.11zm-12.372 12.373l3.83-3.83c.146-.146.146-.384 0-.53-.147-.146-.384-.146-.53 0l-3.83 3.83c-.147.146-.147.384 0 .53.073.073.169.11.265.11.096-.001.192-.037.265-.11zm3.83-12.373c.146-.146.146-.384 0-.53l-3.83-3.829c-.146-.146-.384-.146-.53 0-.147.146-.147.384 0 .53l3.83 3.829c.073.073.169.11.265.11s.192-.037.265-.11z" fill="#0568ae"/></svg>