<svg xmlns="http://www.w3.org/2000/svg" viewBox="0 0 36 36" enable-background="new 0 0 36 36"><path d="M30.611 25.848c.009.228-.074.44-.232.611l-3.168 3.331c-.098.106-.219.18-.351.229l-.251.035c-.22.009-.442-.077-.606-.234l-2.839-2.696-1.587 1.666c-.206.222-.511.311-.796.248-.295-.059-.528-.273-.628-.556l-3.789-11.118c-.057-.157-.068-.339-.02-.516.129-.449.599-.717 1.057-.587l11.306 3.215c.293.083.503.3.591.594.076.287.003.596-.204.814l-1.596 1.666 2.844 2.694c.17.162.263.374.269.604zm-12.467-14.691v-5.117c0-.533-.432-.965-.965-.965-.533 0-.966.432-.966.965v5.117c0 .533.432.965.966.965.533.001.965-.432.965-.965zm-5.708 5.709c0-.533-.432-.965-.965-.965h-5.118c-.533 0-.965.432-.965.965 0 .533.432.965.965.965h5.117c.534 0 .966-.432.966-.965zm9.462-3.354l3.619-3.619c.376-.377.376-.988 0-1.365-.377-.377-.988-.377-1.365 0l-3.619 3.618c-.377.377-.377.989 0 1.365.189.189.435.283.682.283.247.001.494-.094.683-.282zm-11.691 11.692l3.618-3.619c.377-.377.377-.988 0-1.365s-.988-.377-1.365 0l-3.619 3.618c-.377.377-.377.988 0 1.365.188.188.435.283.682.283.248 0 .495-.094.684-.282zm3.618-11.692c.377-.376.377-.988 0-1.365l-3.618-3.618c-.377-.377-.988-.377-1.365 0s-.377.988 0 1.365l3.619 3.618c.189.189.435.283.682.283.247 0 .494-.095.682-.283z" fill="#0568ae"/></svg>