<svg xmlns="http://www.w3.org/2000/svg" viewBox="0 0 36 36" enable-background="new 0 0 36 36"><path d="M23.603 18.518l.013-.26.011-.284-.011-.233-.013-.247c.525-.253 1.022-.544 1.45-.849.103-.074.152-.2.123-.325-.077-.345-.185-.69-.332-1.055-.044-.112-.149-.189-.27-.197-.577-.037-1.159-.016-1.741.06l-.008-.013c-.088-.151-.178-.299-.273-.411-.092-.132-.195-.265-.318-.401.256-.471.472-.966.673-1.537.043-.123.005-.259-.094-.343-.326-.278-.608-.485-.887-.656-.102-.063-.23-.06-.331.005-.497.315-.956.673-1.368 1.065l-.347-.131-.146-.053-.481-.132c-.079-.566-.204-1.129-.364-1.641-.038-.123-.148-.21-.275-.219-.367-.027-.735-.036-1.1-.007-.121.01-.223.086-.267.196-.206.509-.369 1.082-.48 1.669l-.513.141-.13.047-.333.126c-.386-.404-.807-.778-1.255-1.11-.099-.074-.234-.082-.343-.021-.306.174-.581.387-.846.592l-.053.041c-.1.078-.142.208-.108.331.166.616.357 1.141.594 1.632-.125.138-.228.269-.309.388-.11.134-.2.282-.287.43l-.003.007c-.543-.099-1.106-.155-1.674-.166-.137-.007-.256.08-.301.203l-.028.07c-.118.312-.239.634-.315.976-.023.115.016.234.105.31.433.361.916.687 1.44.97l-.014.262-.011.279.011.231.013.253c-.525.253-1.023.543-1.449.848-.104.073-.153.202-.124.325.077.347.185.691.33 1.055.046.113.152.19.273.198.576.037 1.161.014 1.74-.061l.009.016c.087.149.177.296.272.41.092.132.196.265.317.4-.255.467-.47.962-.67 1.537-.045.123-.007.259.092.343.328.279.611.487.887.656.102.06.229.059.331-.005.497-.317.956-.674 1.368-1.066l.347.133.147.053.479.13c.079.563.203 1.126.363 1.64.038.124.148.211.276.221.21.015.419.026.63.026l.471-.019c.117-.01.221-.086.266-.196.206-.51.369-1.083.481-1.668l.511-.141.125-.045.339-.128c.388.407.809.779 1.256 1.112.101.073.235.082.343.021.31-.178.587-.392.897-.635.102-.078.145-.208.11-.33-.168-.616-.358-1.14-.594-1.631.123-.138.227-.269.31-.39.11-.133.2-.282.288-.432l.002-.004c.543.098 1.108.154 1.677.165h.003c.133 0 .271-.131.317-.254.12-.317.245-.646.322-.995.025-.114-.015-.234-.106-.309-.436-.364-.919-.69-1.44-.973zm-5.6 2.435c-1.631 0-2.953-1.322-2.953-2.953 0-1.631 1.322-2.953 2.953-2.953 1.631 0 2.953 1.322 2.953 2.953 0 1.631-1.322 2.953-2.953 2.953zm12.032-10.396l-1.088.674c-.168.104-.394.054-.501-.113 0 0-.163-.252-.356-.515-3.816-5.205-11.08-6.684-16.658-3.231-2.819 1.745-4.78 4.471-5.554 7.636l1.542.003c.287 0 .384.191.215.424l-2.528 3.485-.077.106c-.126.174-.332.174-.458-.001l-.9-1.251-1.69-2.349c-.168-.233-.07-.423.217-.423l1.627.003c.812-3.873 3.141-7.222 6.552-9.333 6.533-4.044 15.058-2.256 19.448 3.923l.319.471c.108.165.058.387-.11.491zm-24.063 14.886l1.088-.673c.168-.104.394-.053.502.113 0 0 .163.252.356.515 3.815 5.205 11.078 6.685 16.657 3.231 2.819-1.745 4.78-4.471 5.554-7.636l-1.542-.003c-.287 0-.384-.191-.215-.424l2.527-3.485.077-.106c.126-.174.333-.174.458.001l.9 1.251 1.69 2.349c.167.233.07.423-.217.423l-1.627-.003c-.812 3.874-3.141 7.222-6.552 9.333-6.533 4.044-15.058 2.256-19.448-3.923l-.319-.471c-.108-.166-.058-.387.111-.492z" fill="#0568ae"/></svg>