<svg xmlns="http://www.w3.org/2000/svg" viewBox="0 0 36 36" enable-background="new 0 0 36 36"><path d="M25.496 7.937l-3.212 3.078s-.421.496-.986.146c-.99-.491-2.063-.75-3.147-.788-1.208-.043-2.425.193-3.544.717-.573.339-.983-.166-.983-.166l-3.145-3.145c-.225-.223-.507-.757.317-1.275 2.16-1.356 4.625-2.008 7.097-1.997l.258-.002v.005c2.471.041 4.923.744 7.056 2.145.815.536.518 1.064.289 1.282zm0 20.128l-3.212-3.08s-.421-.496-.986-.145c-.99.491-2.063.751-3.147.788-1.208.044-2.425-.192-3.544-.717-.573-.34-.983.165-.983.165l-3.145 3.146c-.225.223-.507.758.317 1.275 2.16 1.356 4.625 2.007 7.097 1.994l.258.004v-.004c2.471-.042 4.923-.745 7.056-2.144.815-.535.518-1.063.289-1.282zm2.563-17.567c-.221.226-3.081 3.209-3.081 3.209s-.495.423-.144.988c.488.99.75 2.064.785 3.146.045 1.208-.192 2.427-.719 3.543-.336.574.167.986.167.986l3.146 3.144c.225.223.759.506 1.276-.317 1.355-2.161 2.007-4.627 1.994-7.096l.003-.26h-.004c-.04-2.47-.744-4.923-2.144-7.053-.535-.813-1.065-.518-1.279-.29zm-21.398.29c-1.4 2.13-2.104 4.583-2.144 7.053h-.004l.003.26c-.013 2.469.639 4.936 1.994 7.096.517.823 1.051.54 1.275.317l3.147-3.144s.503-.412.167-.986c-.526-1.116-.763-2.335-.719-3.543.035-1.082.297-2.156.785-3.146.352-.565-.143-.988-.143-.988s-2.86-2.983-3.081-3.209c-.215-.228-.745-.523-1.28.29zm11.331 2.804c-2.435 0-4.407 1.974-4.407 4.408 0 2.436 1.973 4.407 4.407 4.407s4.407-1.971 4.407-4.407c0-2.434-1.973-4.408-4.407-4.408z" fill-rule="evenodd" clip-rule="evenodd" fill="#0568ae"/></svg>