<svg xmlns="http://www.w3.org/2000/svg" viewBox="0 0 36 36" enable-background="new 0 0 36 36"><path d="M19.006 33.376c-.196 0-.36-.152-.374-.35-.014-.207.143-.385.349-.399 7.65-.507 13.643-6.917 13.643-14.593 0-8.064-6.561-14.625-14.625-14.625-6.74 0-12.577 4.562-14.196 11.094-.285 1.148-.429 2.336-.429 3.531 0 1.778.315 3.514.936 5.16 1.02 2.708 2.809 5.035 5.174 6.732.168.121.207.355.086.523-.12.169-.355.207-.523.086-2.485-1.783-4.365-4.231-5.438-7.077-.653-1.731-.984-3.556-.984-5.424 0-1.256.152-2.505.451-3.712 1.701-6.867 7.839-11.664 14.924-11.664 8.478 0 15.375 6.897 15.375 15.375 0 8.069-6.3 14.808-14.344 15.341l-.025.002zm11.369-15.376c0 6.824-5.551 12.375-12.375 12.375-.207 0-.375-.168-.375-.375v-24c0-.207.168-.375.375-.375 6.823 0 12.375 5.552 12.375 12.375zm-2.401-5.963v11.927c1.047-1.745 1.651-3.785 1.651-5.963 0-2.179-.604-4.219-1.651-5.964zm-4.8 16.37c.58-.289 1.131-.626 1.651-1.005v-18.803c-.52-.378-1.071-.715-1.651-1.005v20.813zm-.75-21.154c-.531-.22-1.082-.401-1.65-.541v22.576c.567-.14 1.118-.321 1.65-.541v-21.494zm-4.049 22.367c.561-.018 1.112-.077 1.65-.172v-22.895c-.538-.095-1.089-.154-1.65-.172v23.239zm8.853-4.563l-.004-.018v-14.1c-.489-.638-1.041-1.224-1.649-1.748v17.62c.61-.526 1.163-1.114 1.653-1.754z" fill="#0568ae"/></svg>