<svg xmlns="http://www.w3.org/2000/svg" viewBox="0 0 36 36" enable-background="new 0 0 36 36"><path d="M21.709 11.658c-.188 0-.394-.05-.608-.183-.898-.444-1.905-.696-2.962-.732-1.163-.042-2.33.194-3.372.682-.641.381-1.221-.008-1.433-.269l-3.119-3.117c-.118-.116-.389-.438-.339-.886.041-.37.284-.696.722-.972 2.142-1.345 4.643-2.055 7.236-2.055h.062l.253-.002.071.006c2.593.054 5.079.815 7.195 2.205.433.284.669.616.701.986.04.449-.238.766-.36.881l-3.211 3.077c-.131.156-.443.379-.836.379zm-3.835-1.67l.29.005c1.164.04 2.275.318 3.3.826.313.191.512-.028.534-.053l3.239-3.107c.025-.023.142-.142.13-.272-.011-.127-.141-.278-.366-.426-2.013-1.322-4.384-2.042-6.856-2.083l-.051-.004-.197.002c-2.476-.011-4.863.66-6.901 1.94-.228.143-.361.292-.375.418-.014.13.1.25.123.272l3.147 3.147c.089.101.268.262.527.108 1.09-.512 2.271-.773 3.456-.773zm.277 21.877h-.005l-.258-.004c-2.611-.007-5.13-.696-7.29-2.051-.438-.275-.681-.603-.722-.972-.05-.448.222-.77.341-.888l3.143-3.145c.187-.233.767-.622 1.439-.222 1.008.471 2.171.71 3.339.665 1.058-.036 2.065-.288 2.993-.749.635-.394 1.222-.018 1.438.238l3.186 3.051c.121.115.399.432.359.881-.033.37-.269.701-.701.986-2.118 1.39-4.607 2.151-7.202 2.205l-.06.005zm-.26-.754l.211.003.042-.003c2.472-.042 4.843-.762 6.857-2.083.225-.148.354-.299.366-.425.012-.13-.106-.249-.129-.271l-3.213-3.081c-.09-.098-.276-.255-.529-.097-1.056.525-2.167.804-3.331.844-1.281.047-2.568-.214-3.716-.753-.291-.169-.47-.01-.536.066l-3.168 3.17c-.024.024-.138.144-.124.274.014.127.147.275.375.419 2.02 1.267 4.379 1.937 6.826 1.937h.069zm-9.855-5.337l3.147-3.145-.53-.53-3.147 3.144c-.023.023-.139.14-.277.123-.127-.015-.275-.147-.417-.374-1.279-2.039-1.949-4.423-1.937-6.899l-.001-.221.002-.03c.043-2.476.763-4.846 2.083-6.854.147-.224.298-.354.425-.365.132-.016.248.104.274.131l3.105 3.233c.026.022.246.221.051.536-.508 1.028-.785 2.138-.824 3.298-.018.476.006.957.073 1.433.029.205.219.347.423.319.205-.029.348-.219.319-.424-.06-.429-.083-.866-.067-1.301.036-1.055.288-2.062.729-2.96.416-.664.038-1.254-.192-1.446 0 0-2.861-2.985-3.078-3.208-.115-.122-.437-.401-.881-.358-.37.033-.701.269-.985.7-1.391 2.116-2.153 4.61-2.205 7.214l-.003.047.001.255c-.013 2.615.697 5.138 2.052 7.298.273.436.599.678.967.72l.111.006c.393.001.674-.234.782-.342zm20.693.343c-.389 0-.67-.234-.78-.343l-3.148-3.145c-.233-.188-.62-.767-.226-1.44.475-1.009.71-2.174.668-3.34-.034-1.052-.286-2.058-.747-2.994-.395-.631-.02-1.22.236-1.438-.001-.001 2.837-2.961 3.057-3.186.109-.116.427-.396.873-.355.371.032.704.268.988.7h.001c1.39 2.116 2.152 4.603 2.204 7.197l.005.067-.003.26c.014 2.606-.696 5.13-2.051 7.291-.273.436-.599.678-.966.72l-.111.006zm-.148-15.495c-.122 0-.229.106-.25.128-.226.231-3.083 3.212-3.083 3.212-.098.09-.254.275-.096.53.527 1.064.804 2.175.842 3.332.047 1.284-.214 2.569-.754 3.716-.185.318.039.514.065.535l3.174 3.17c.032.031.143.14.277.123.126-.015.274-.148.416-.374 1.279-2.04 1.949-4.424 1.936-6.895l.003-.209-.004-.046c-.04-2.472-.76-4.842-2.082-6.853-.148-.225-.299-.354-.426-.366l-.018-.003zm-10.589 12.154c-2.637 0-4.782-2.145-4.782-4.782s2.145-4.783 4.782-4.783 4.782 2.146 4.782 4.783c0 2.637-2.145 4.782-4.782 4.782zm0-8.814c-2.223 0-4.032 1.809-4.032 4.033 0 2.223 1.809 4.032 4.032 4.032s4.032-1.809 4.032-4.032c0-2.224-1.809-4.033-4.032-4.033z" fill="#0568ae"/></svg>