<svg xmlns="http://www.w3.org/2000/svg" viewBox="0 0 36 36" enable-background="new 0 0 36 36"><path d="M34.066 23.142v1.28c0 .198-.162.36-.36.36h-4.546c-.552 0-1-.448-1-1v-10.626h-2.906v10.625c0 .552-.448 1-1 1h-4.938c-.552 0-1-.448-1-1v-10.625h-2.922v14.742c0 .313-.174.598-.449.74-.117.064-.247.093-.384.093-.173 0-.337-.052-.477-.151 0 0-7.083-6.318-7.227-6.459h-3.691c-.63 0-1.146-.512-1.146-1.147v-5.76c0-.634.516-1.146 1.146-1.146h3.673c.13-.109 7.235-6.636 7.235-6.636.144-.109.311-.162.487-.162.135 0 .262.032.381.089.278.145.452.429.452.744v3.054h3.922c.552 0 1 .448 1 1v10.625h2.938v-10.626c0-.552.448-1 1-1h4.906c.552 0 1 .448 1 1v10.625h3.546c.198.001.36.163.36.361z" fill="#0568ae"/></svg>