<svg xmlns="http://www.w3.org/2000/svg" viewBox="0 0 36 36" enable-background="new 0 0 36 36"><path d="M24.972 29.69h-13.944c-.802 0-1.455-.653-1.455-1.455v-1.418c0-.802.653-1.455 1.455-1.455h13.944c.802 0 1.455.653 1.455 1.455v1.418c0 .802-.653 1.455-1.455 1.455zm-13.944-3.579c-.389 0-.705.316-.705.705v1.418c0 .389.317.705.705.705h13.944c.389 0 .705-.316.705-.705v-1.418c0-.389-.316-.705-.705-.705h-13.944zm13.255-3.381h-12.566c-.849 0-1.506-.312-1.848-.879-.343-.567-.314-1.294.082-2.047l6.47-12.313c.4-.761.962-1.18 1.581-1.18h.001c.619 0 1.18.42 1.578 1.18l6.47 12.313c.396.753.425 1.48.082 2.047-.343.567-1 .879-1.85.879zm-6.282-15.669c-.323 0-.657.284-.917.779l-6.47 12.313c-.269.512-.306.977-.104 1.311.201.333.63.517 1.207.517h12.566c.577 0 1.006-.184 1.208-.517s.165-.799-.104-1.311l-6.471-12.313c-.259-.495-.592-.778-.915-.779z" fill="#0568ae"/></svg>