<svg xmlns="http://www.w3.org/2000/svg" viewBox="0 0 36 36" enable-background="new 0 0 36 36"><path d="M33.376 18.008c0 8.069-6.3 14.808-14.343 15.342h-.025c-.196 0-.361-.152-.374-.35-.014-.207.143-.386.349-.399 7.65-.507 13.643-6.917 13.643-14.593 0-8.064-6.561-14.625-14.625-14.625-6.739 0-12.577 4.562-14.196 11.094-.285 1.148-.429 2.336-.429 3.531 0 1.779.315 3.515.936 5.16 1.021 2.708 2.81 5.036 5.174 6.732.168.121.207.355.086.524-.122.168-.356.206-.525.086-2.484-1.783-4.365-4.23-5.438-7.077-.653-1.729-.984-3.555-.984-5.424 0-1.256.152-2.505.451-3.712 1.702-6.868 7.839-11.664 14.924-11.664 8.478 0 15.376 6.898 15.376 15.375zm-8.253 7.653c.073.073.169.11.265.11s.192-.037.265-.11c.146-.146.146-.384 0-.53l-7.122-7.122 7.122-7.122c.146-.146.146-.384 0-.53-.147-.146-.384-.146-.53 0l-7.123 7.121-7.122-7.123c-.147-.146-.384-.146-.53 0-.147.147-.147.384 0 .53l7.122 7.122-7.122 7.122c-.147.146-.147.384 0 .53.073.073.169.11.265.11s.192-.037.265-.11l7.122-7.12 7.123 7.122z" fill="#0568ae"/></svg>