<svg xmlns="http://www.w3.org/2000/svg" viewBox="0 0 36 36" enable-background="new 0 0 36 36"><path d="M30.495 25.966h-9.829c-.207 0-.375-.168-.375-.375s.168-.375.375-.375h9.829c.402 0 .729-.327.729-.728v-16.539c0-.402-.327-.729-.729-.729h-19.06c-.402 0-.729.327-.729.729v7.859c0 .207-.168.375-.375.375s-.375-.168-.375-.375v-7.859c0-.815.663-1.479 1.479-1.479h19.06c.815 0 1.479.663 1.479 1.479v16.539c0 .815-.664 1.478-1.479 1.478zm-12.28 2.11v-7.746c0-.802-.653-1.455-1.455-1.455h-11.279c-.802 0-1.455.653-1.455 1.455v7.745c0 .802.653 1.455 1.455 1.455h11.279c.802.001 1.455-.652 1.455-1.454zm-1.455-8.451c.389 0 .705.316.705.705v7.745c0 .389-.316.705-.705.705h-11.279c-.389 0-.705-.316-.705-.705v-7.745c0-.389.316-.705.705-.705h11.279zm11.457-9.365c-.146-.147-.384-.147-.53 0l-6.646 6.646v-5.095c0-.207-.168-.375-.375-.375s-.375.168-.375.375v5.28c0 .604.491 1.095 1.095 1.095h5.28c.207 0 .375-.168.375-.375s-.168-.375-.375-.375h-5.095l6.646-6.646c.147-.146.147-.384 0-.53z" fill="#0568ae"/></svg>