<svg xmlns="http://www.w3.org/2000/svg" viewBox="0 0 36 36" enable-background="new 0 0 36 36"><path d="M30.495 6.618h-20.059c-.607 0-1.103.497-1.103 1.103v10.942h-4.536c-.922 0-1.673.786-1.673 1.752v7.964c0 .966.75 1.752 1.673 1.752h12.002c.922 0 1.673-.786 1.673-1.752v-2.515h12.023c.607 0 1.104-.497 1.104-1.104v-17.038c0-.607-.497-1.104-1.104-1.104zm-14.023 21.514h-11.348v-7.469h11.347v7.469zm10.885-14.424l-3.064 3.064 1.419 1.419c.369.369.244.67-.278.67l-5.122-.006-.569-.001c-.209 0-.38-.171-.38-.38l-.006-4.939-.001-.752c0-.522.301-.647.67-.278l1.419 1.419 3.064-3.064c.132-.132.347-.132.479 0l2.369 2.37c.132.131.132.346 0 .478z" fill="#0568ae"/></svg>