<svg xmlns="http://www.w3.org/2000/svg" viewBox="0 0 36 36" enable-background="new 0 0 36 36"><path d="M16.975 26.37c-.317 0-.613-.079-.875-.237-.567-.342-.88-.999-.88-1.85v-.981c0-.207.168-.375.375-.375s.375.168.375.375v.981c0 .577.184 1.006.517 1.208.333.201.798.164 1.309-.105l12.312-6.47c.496-.26.78-.594.78-.916s-.285-.656-.78-.916l-12.312-6.47c-.511-.269-.976-.305-1.31-.104-.333.201-.517.63-.517 1.207v.961c0 .207-.168.375-.375.375s-.375-.168-.375-.375v-.961c0-.85.312-1.506.879-1.849.567-.343 1.294-.313 2.046.082l12.312 6.47c.762.4 1.182.961 1.182 1.58 0 .619-.42 1.18-1.182 1.58l-12.312 6.47c-.403.213-.8.32-1.169.32zm-9.689-.32l12.312-6.47c.761-.4 1.18-.962 1.18-1.58 0-.619-.419-1.18-1.18-1.58l-12.312-6.47c-.753-.396-1.48-.424-2.047-.082-.567.343-.879.999-.879 1.849v12.566c0 .85.312 1.507.879 1.85.262.158.558.237.875.237.37 0 .767-.107 1.172-.32zm-.349-15.435l12.312 6.47c.495.26.779.594.779.916 0 .322-.284.656-.779.916l-12.312 6.47c-.511.269-.976.306-1.309.105-.334-.202-.518-.632-.518-1.209v-12.566c0-.577.184-1.005.517-1.207.142-.086.307-.128.49-.128.247 0 .526.078.82.233z" fill="#0568ae"/></svg>