<svg xmlns="http://www.w3.org/2000/svg" viewBox="0 0 36 36"><path fill="none" d="M0 0h36v36H0z"/><path fill="#0568ae" d="M21.6 9.4c-.1.1-.1.1-.2.1s-.2-.1-.3-.1L18.5 6l-.1-.1v8.8c0 .2-.2.4-.4.4s-.4-.2-.4-.4V5.8c-.1 0-.1.1-.2.2l-2.6 3.4c-.1.2-.4.2-.5.1-.2-.1-.2-.4-.1-.5l2.6-3.4c.3-.4.7-.6 1.1-.6.4 0 .8.2 1.1.6L21.6 9c.2 0 .2.3 0 .4zm.1 17.2c-.2-.1-.4-.1-.5.1l-2.6 3.4c0 .1-.1.1-.2.2v-8.9c0-.2-.2-.4-.4-.4s-.4.2-.4.4v8.8l-.1-.1-2.6-3.4c-.1-.2-.4-.2-.5-.1-.2.1-.2.4-.1.5l2.6 3.4c.3.4.7.6 1.1.6.4 0 .8-.2 1.1-.6l2.6-3.4c.2-.1.1-.3 0-.5zm8.8-9.7l-3.4-2.6c-.2-.1-.4-.1-.5.1-.1.2-.1.4.1.5l3.4 2.6c.1 0 .1.1.2.2h-8.9c-.2 0-.4.2-.4.4s.2.4.4.4h8.8l-.1.1-3.4 2.6c-.2.1-.2.4-.1.5.1.1.2.1.3.1.1 0 .2 0 .2-.1l3.4-2.6c.4-.3.6-.7.6-1.1 0-.4-.2-.8-.6-1.1zm-15.9.7H5.8l.1-.1 3.4-2.6c.2-.1.2-.4.1-.5-.1-.2-.4-.2-.5-.1l-3.4 2.6c-.4.3-.6.7-.6 1.1 0 .4.2.8.6 1.1l3.4 2.6c.1.1.1.1.2.1s.2-.1.3-.1c.1-.2.1-.4-.1-.5l-3.4-2.6c-.1 0-.1-.1-.2-.2h8.9c.2 0 .4-.2.4-.4s-.2-.4-.4-.4z"/></svg>