<svg xmlns="http://www.w3.org/2000/svg" viewBox="0 0 36 36" enable-background="new 0 0 36 36"><path d="M21.603 10.384c-.068.052-.148.076-.227.076-.113 0-.225-.051-.299-.148l-2.582-3.395-.121-.13v7.826c0 .207-.168.375-.375.375s-.375-.168-.375-.375v-7.859l-.162.161-2.597 3.384c-.126.164-.362.195-.526.069-.164-.126-.195-.361-.069-.526l2.597-3.384c.285-.371.69-.584 1.111-.584h.002c.422.001.828.215 1.112.589l2.582 3.395c.125.165.094.4-.071.526zm.057 15.249c-.166-.126-.4-.095-.526.069l-2.598 3.385-.161.158v-7.858c0-.207-.168-.375-.375-.375s-.375.168-.375.375v7.826l-.12-.13-2.582-3.395c-.126-.165-.361-.197-.526-.071-.165.125-.197.36-.071.525l2.582 3.395c.284.374.69.589 1.112.589h.002c.421 0 .825-.213 1.109-.583l2.598-3.385c.126-.164.095-.399-.069-.525zm7.882-8.765l-3.384-2.597c-.166-.127-.4-.095-.526.069s-.095.4.069.526l3.384 2.597.159.162h-7.858c-.207 0-.375.168-.375.375s.168.375.375.375h7.826l-.13.12-3.395 2.582c-.165.125-.197.36-.071.525.074.097.186.148.299.148.079 0 .159-.025.226-.077l3.395-2.582c.374-.284.589-.689.59-1.112.001-.42-.212-.826-.584-1.111zm-14.929.757h-7.827l.13-.12 3.395-2.582c.165-.125.197-.361.071-.526-.126-.165-.361-.197-.526-.071l-3.395 2.582c-.373.284-.588.69-.589 1.112-.001.422.212.827.584 1.112l3.385 2.597c.068.052.148.078.228.078.113 0 .224-.05.298-.146.126-.165.095-.4-.069-.526l-3.385-2.597-.158-.162h7.858c.207 0 .375-.168.375-.375 0-.208-.168-.376-.375-.376zm18.762.375c0-8.478-6.897-15.375-15.375-15.375s-15.376 6.897-15.376 15.375 6.897 15.375 15.375 15.375c8.479.001 15.376-6.896 15.376-15.375zm-.75 0c0 8.064-6.561 14.625-14.625 14.625-8.065.001-14.626-6.56-14.626-14.625 0-8.064 6.561-14.625 14.626-14.625 8.064 0 14.625 6.561 14.625 14.625z" fill="#0568ae"/></svg>