<svg xmlns="http://www.w3.org/2000/svg" viewBox="0 0 36 36" enable-background="new 0 0 36 36"><path d="M18 3c-8.284 0-15 6.716-15 15s6.716 15 15 15c8.285 0 15-6.716 15-15s-6.716-15-15-15zm-3.543 7.211l3.111-3.63.108-.126c.178-.207.469-.207.647 0l.108.126 3.111 3.63c.237.276.133.503-.231.503h-1.547v3.666c0 .163-.133.296-.296.296h-2.935c-.163 0-.296-.133-.296-.296v-3.666h-1.547c-.365 0-.47-.227-.233-.503zm-3.744 11.1c0 .364-.226.468-.503.231l-3.63-3.111-.126-.108c-.207-.178-.207-.469 0-.647l.126-.108 3.63-3.111c.276-.237.503-.133.503.231v1.547h3.666c.163 0 .296.133.296.296v2.935c0 .163-.133.296-.296.296h-3.666v1.549zm10.829 4.479l-3.111 3.63-.108.126c-.178.207-.469.207-.646 0l-.108-.126-3.111-3.63c-.237-.277-.133-.503.231-.503h1.547v-3.666c0-.163.133-.296.296-.296h2.935c.163 0 .296.133.296.296v3.666h1.547c.365 0 .469.226.232.503zm7.877-7.359l-3.63 3.111c-.277.237-.503.133-.503-.231v-1.547h-3.666c-.163 0-.296-.133-.296-.296v-2.935c0-.163.133-.297.296-.297h3.666v-1.547c0-.364.226-.468.503-.231l3.63 3.111.126.108c.207.178.207.469 0 .647l-.126.107z" fill="#0568ae"/></svg>