<svg xmlns="http://www.w3.org/2000/svg" viewBox="0 0 36 36"><path fill="none" d="M0 0h36v36H0z"/><path fill="#0568ae" d="M13.8 8.7l3.7-4.4.1-.2c.2-.2.6-.2.8 0l.1.2 3.7 4.4c.4.3.2.6-.2.6h-1.9v4.4c0 .2-.2.4-.4.4h-3.5c-.2 0-.4-.2-.4-.4V9.3h-1.9c-.3 0-.4-.3-.1-.6zM9.3 22c0 .4-.3.6-.6.3l-4.4-3.7-.2-.1c-.2-.2-.2-.6 0-.8l.2-.1 4.4-3.7c.3-.4.6-.3.6.1v1.9h4.4c.2 0 .4.2.4.4v3.5c0 .2-.2.4-.4.4H9.3V22zm13 5.3l-3.7 4.4-.1.2c-.2.2-.6.2-.8 0l-.1-.2-3.7-4.4c-.3-.3-.2-.6.3-.6h1.9v-4.4c0-.2.2-.4.4-.4H20c.2 0 .4.2.4.4v4.4H22c.4 0 .6.3.3.6zm9.4-8.8l-4.4 3.7c-.3.3-.6.2-.6-.3V20h-4.4c-.2 0-.4-.2-.4-.4v-3.5c0-.2.2-.4.4-.4h4.4V14c0-.4.3-.6.6-.3l4.4 3.7.2.1c.2.2.2.6 0 .8l-.2.2z"/></svg>