<svg xmlns="http://www.w3.org/2000/svg" viewBox="0 0 36 36" enable-background="new 0 0 36 36"><path d="M30.495 6.619h-20.06c-.607 0-1.103.497-1.103 1.103v11.693h-4.838c-.389 0-.708.356-.708.792v8.383c0 .436.319.792.708.792h12.607c.39 0 .708-.357.708-.792v-2.725h12.686c.607 0 1.104-.497 1.104-1.104v-17.039c0-.607-.497-1.103-1.104-1.103zm-.896 17.246h-11.79v-3.658c0-.436-.319-.792-.708-.792h-5.769v-10.796h18.267v15.246zm-3.581-5.96l-1.419-1.419-3.064 3.064c-.132.132-.347.132-.478 0l-2.37-2.37c-.132-.132-.132-.347 0-.479l3.064-3.064-1.419-1.419c-.369-.369-.244-.671.278-.67l5.122.006.569.001c.209 0 .38.171.38.38l.006 4.939.001.752c.001.523-.301.648-.67.279z" fill="#0568ae"/></svg>