<svg xmlns="http://www.w3.org/2000/svg" viewBox="0 0 36 36" enable-background="new 0 0 36 36"><path d="M19.908 22.006c-.247 0-.494-.097-.678-.29-.358-.374-.344-.968.03-1.326l2.92-2.79v-4.794c0-.518.42-.938.938-.938.517 0 .938.42.938.938v5.194c0 .256-.105.501-.29.678l-3.209 3.068c-.183.174-.416.26-.649.26zm3.209-12.256c-4.549 0-8.25 3.701-8.25 8.25 0 4.549 3.701 8.25 8.25 8.25 4.549 0 8.25-3.701 8.25-8.25 0-4.549-3.701-8.25-8.25-8.25m0-3c6.213 0 11.25 5.037 11.25 11.25s-5.037 11.25-11.25 11.25c-6.214 0-11.25-5.037-11.25-11.25-.001-6.213 5.036-11.25 11.25-11.25zm-17.973 3.112c-2.138 2.065-3.511 4.929-3.512 8.138v.001c0 3.209 1.374 6.073 3.511 8.139.196.19.507.2.274-.214-1.323-2.349-2.14-5.035-2.14-7.925 0-2.89.817-5.576 2.14-7.925.233-.414-.077-.404-.273-.214zm3.641 8.139c0-3.476 1.165-6.658 3.035-9.289.252-.355.046-.555-.36-.309-3.247 1.968-5.426 5.522-5.426 9.597 0 4.076 2.179 7.63 5.426 9.598.406.246.613.046.36-.309-1.87-2.63-3.034-5.812-3.035-9.288z" fill="#0568ae"/></svg>