<svg xmlns="http://www.w3.org/2000/svg" viewBox="0 0 36 36" enable-background="new 0 0 36 36"><path d="M18.035 31.772c-.349 0-.721-.015-1.172-.047-.393-.03-.719-.292-.834-.666-.27-.864-.488-1.823-.636-2.788l-.644-.182-.287-.102-.424-.157c-.716.66-1.511 1.271-2.367 1.817-.307.191-.686.196-.994.015-.537-.329-1.064-.719-1.667-1.231-.3-.254-.411-.672-.277-1.039.341-.98.7-1.82 1.118-2.617-.154-.184-.296-.369-.431-.563-.137-.165-.276-.379-.401-.588-1.014.117-2.019.145-2.989.083-.365-.026-.685-.26-.82-.595-.274-.689-.477-1.336-.618-1.978-.087-.37.06-.756.375-.978.725-.517 1.572-1.02 2.462-1.463l-.009-.22-.02-.401-.001-.051.02-.499.01-.253c-.889-.497-1.718-1.065-2.468-1.689-.268-.227-.389-.582-.319-.927.148-.665.383-1.285.59-1.832l.053-.134c.14-.38.506-.626.916-.606.95.019 1.905.107 2.834.262.126-.207.265-.418.431-.619.108-.159.247-.34.408-.529-.394-.847-.713-1.747-.999-2.807-.103-.369.026-.76.329-.995l.097-.075c.493-.382 1.003-.777 1.582-1.106.33-.184.734-.159 1.033.064.754.56 1.478 1.191 2.154 1.879l.243-.089.378-.137c.247-.075.492-.147.739-.21.208-1.019.499-2.006.847-2.868.132-.333.44-.56.803-.589.612-.05 1.266-.047 2.057.011.383.029.716.295.831.661.272.871.491 1.831.638 2.792l.648.185.285.102.422.155c.726-.668 1.521-1.278 2.37-1.816.301-.194.693-.199.999-.011.537.328 1.064.718 1.661 1.227.297.253.41.669.281 1.034-.345.982-.706 1.821-1.124 2.62.153.182.297.369.434.567.134.156.27.367.4.584 1.006-.117 2.011-.144 2.992-.081.362.023.682.256.815.594.271.676.475 1.323.621 1.974.085.372-.061.756-.372.978-.729.521-1.578 1.024-2.466 1.466l.006.129.003.076.019.408.001.054-.019.45-.005.132-.007.171c.891.5 1.72 1.069 2.466 1.692.274.227.397.585.319.932-.146.656-.375 1.262-.597 1.848-.133.353-.501.717-.932.717-.975-.019-1.934-.107-2.863-.261-.13.214-.267.422-.429.618-.103.152-.243.334-.409.531.39.847.709 1.745.999 2.806.104.37-.027.762-.335.997-.62.486-1.105.857-1.672 1.182-.324.184-.729.161-1.031-.06-.767-.571-1.491-1.203-2.158-1.884l-.36.131-.261.094c-.288.089-.521.156-.735.211-.21 1.023-.502 2.009-.849 2.867-.139.335-.445.56-.801.589-.281.026-.58.038-.887.038zm-4.079-4.754l.148.03.588.226.289.104c.252.074.537.158.829.224.152.034.267.159.289.314.141 1.009.365 2.02.647 2.922.024.08.092.133.173.14.804.057 1.378.061 1.941.012.075-.006.141-.056.17-.126.354-.876.649-1.901.853-2.961.028-.146.14-.261.284-.295.263-.06.541-.137.902-.248l.21-.077c.223-.079.411-.146.599-.225.142-.06.309-.026.417.087.686.72 1.438 1.386 2.237 1.98.061.045.146.051.214.013.522-.3.986-.655 1.585-1.124.066-.051.092-.128.071-.204-.304-1.112-.64-2.034-1.058-2.904-.065-.136-.043-.298.057-.411.217-.246.398-.472.535-.672.195-.238.346-.486.497-.742l.098-.127c.086-.072.198-.1.307-.081.971.176 1.977.275 2.99.294.045-.001.18-.104.223-.22.217-.574.436-1.154.571-1.758.016-.072-.009-.145-.066-.192-.767-.641-1.626-1.221-2.553-1.725-.129-.07-.205-.209-.195-.355l.02-.392.004-.123.017-.442-.018-.381-.004-.11-.02-.363c-.011-.153.073-.298.212-.365.932-.449 1.825-.971 2.582-1.511.064-.046.094-.124.076-.202-.137-.613-.328-1.222-.586-1.863-.028-.071-.092-.118-.166-.123-1.015-.065-2.055-.029-3.094.106-.147.021-.295-.052-.372-.182l-.014-.026h-.001c-.146-.251-.303-.511-.458-.695-.191-.273-.37-.499-.57-.72-.107-.118-.127-.29-.051-.43.453-.831.834-1.702 1.199-2.741.026-.075.002-.161-.06-.214-.566-.483-1.064-.851-1.566-1.159-.063-.038-.141-.036-.204.004-.878.556-1.696 1.193-2.433 1.892-.108.102-.266.131-.403.074-.205-.086-.411-.16-.613-.232l-.267-.096c-.24-.072-.528-.158-.831-.226-.152-.035-.267-.16-.289-.314-.14-1.005-.364-2.017-.647-2.925-.024-.076-.092-.131-.171-.137-.751-.056-1.368-.059-1.941-.012-.076.006-.14.052-.167.12-.357.886-.652 1.911-.852 2.967-.028.146-.139.262-.284.295-.312.072-.618.161-.909.249l-.358.13-.452.172c-.143.058-.307.024-.414-.088-.696-.728-1.447-1.393-2.234-1.977-.061-.046-.148-.051-.217-.013-.531.301-1.019.68-1.491 1.046l-.098.076c-.06.047-.086.127-.065.204.299 1.111.635 2.034 1.057 2.905.066.137.043.301-.059.415-.208.231-.387.455-.531.665-.204.25-.359.505-.501.747l-.072.102c-.087.087-.21.126-.332.104-.971-.176-1.976-.276-2.985-.296-.099-.007-.164.06-.189.125l-.054.137c-.196.518-.421 1.111-.556 1.718-.014.07.011.148.068.196.768.641 1.628 1.22 2.554 1.721.132.071.209.215.195.364l-.025.456-.019.489.019.413.023.444c.012.154-.072.299-.211.366-.935.45-1.826.972-2.58 1.509-.065.046-.095.125-.078.2.134.607.325 1.215.583 1.866.029.071.096.12.175.126.999.063 2.038.027 3.089-.109.164-.02.323.068.391.22.134.226.294.493.456.688.186.265.366.492.567.719.105.118.125.29.049.429-.452.828-.831 1.698-1.193 2.739-.029.08-.006.162.056.215.573.487 1.07.856 1.567 1.16.06.036.143.034.208-.007.884-.563 1.702-1.201 2.428-1.892.07-.071.163-.106.258-.106zm4.22-3.358c-1.57 0-3.043-.61-4.149-1.717-1.107-1.106-1.717-2.58-1.717-4.15 0-1.57.61-3.044 1.718-4.151 1.253-1.252 2.986-1.865 4.752-1.686.206.021.356.205.335.411-.021.206-.202.354-.411.335-1.54-.157-3.053.378-4.145 1.47-.966.965-1.498 2.251-1.498 3.62 0 1.369.531 2.655 1.497 3.62.965.965 2.25 1.497 3.619 1.497h.001c1.369 0 2.655-.532 3.62-1.497.554-.554.964-1.21 1.218-1.948.067-.195.28-.3.476-.233.196.067.3.281.232.477-.291.848-.761 1.599-1.397 2.234-1.107 1.108-2.581 1.718-4.151 1.718z" fill="#0568ae"/></svg>