<svg xmlns="http://www.w3.org/2000/svg" viewBox="0 0 36 36" enable-background="new 0 0 36 36"><path d="M28.183 18.94l.023-.472.021-.516-.021-.425-.023-.449c.955-.46 1.858-.989 2.637-1.544.188-.134.275-.364.224-.591-.14-.628-.337-1.254-.604-1.919-.08-.204-.271-.344-.49-.357-1.049-.067-2.108-.029-3.166.109l-.015-.024c-.16-.274-.323-.544-.496-.748-.167-.241-.355-.482-.578-.73.466-.856.858-1.756 1.223-2.796.079-.223.009-.471-.17-.624-.592-.505-1.106-.882-1.614-1.193-.186-.114-.419-.109-.603.008-.904.573-1.739 1.225-2.488 1.936-.212-.088-.423-.165-.631-.239l-.266-.096c-.266-.08-.563-.168-.875-.239-.143-1.029-.37-2.053-.661-2.985-.07-.223-.27-.381-.5-.399-.667-.049-1.336-.066-2-.012-.22.018-.406.156-.485.356-.374.926-.671 1.968-.873 3.035-.32.074-.634.165-.934.255l-.238.086-.606.229c-.702-.735-1.468-1.415-2.282-2.019-.18-.134-.426-.149-.623-.039-.556.316-1.056.704-1.539 1.077l-.097.074c-.181.141-.258.379-.196.602.302 1.121.649 2.076 1.081 2.968-.227.252-.415.489-.563.705-.201.244-.364.512-.523.782l-.006.013c-.987-.179-2.011-.281-3.045-.302-.25-.013-.465.146-.548.37l-.051.128c-.214.566-.435 1.153-.573 1.775-.043.21.028.425.192.564.787.656 1.666 1.249 2.618 1.764l-.026.478-.02.507.02.419.023.46c-.955.46-1.859.988-2.635 1.542-.189.134-.277.368-.225.591.139.63.336 1.257.6 1.919.083.206.276.345.496.361 1.048.065 2.112.024 3.165-.112l.016.029c.158.27.322.538.494.746.167.239.356.481.576.728-.463.849-.854 1.749-1.218 2.795-.082.224-.012.472.168.624.597.508 1.111.886 1.613 1.194.186.109.417.107.602-.008.903-.576 1.739-1.226 2.488-1.939.212.091.426.168.631.242l.268.096c.278.083.572.169.872.237.143 1.023.368 2.047.66 2.983.069.225.268.384.502.402.382.027.763.046 1.146.046.285 0 .572-.011.857-.035.214-.018.401-.155.484-.356.375-.928.67-1.97.875-3.034.313-.072.619-.16.929-.256l.227-.083c.203-.072.41-.145.616-.232.705.74 1.471 1.417 2.284 2.022.183.134.428.15.624.038.564-.324 1.068-.714 1.631-1.154.184-.141.264-.377.201-.601-.306-1.12-.652-2.073-1.081-2.965.223-.251.413-.489.563-.708.2-.243.363-.513.524-.786l.003-.008c.987.179 2.014.28 3.05.3h.005c.242 0 .492-.238.577-.463.218-.576.444-1.174.586-1.809.046-.208-.027-.425-.193-.563-.788-.657-1.667-1.25-2.614-1.765zm-10.183 4.517c-3.014 0-5.457-2.443-5.457-5.457s2.443-5.457 5.457-5.457 5.457 2.443 5.457 5.457-2.443 5.457-5.457 5.457z" fill="#0568ae"/></svg>