<svg xmlns="http://www.w3.org/2000/svg" viewBox="0 0 36 36"><path fill="#0568ae" d="M18.5 17.4H17v-1.9h1.5c.4 0 .6.1.8.3.2.2.3.4.3.7 0 .3-.1.5-.3.7-.2.1-.5.2-.8.2zm.2 1.5H17v2h1.7c.3 0 .6-.1.8-.3.2-.2.3-.4.3-.7 0-.3-.1-.6-.3-.7-.2-.2-.5-.3-.8-.3zm13.5-7.8v13.8c0 .8-.7 1.5-1.5 1.5H5.3c-.8 0-1.5-.7-1.5-1.5V11.1c0-.8.7-1.5 1.5-1.5h25.4c.8 0 1.5.7 1.5 1.5zM14.1 22.4L10.9 14H9l-3.1 8.4h2l.5-1.7h3l.5 1.7h2.2zm7.6-2.4c0-.5-.1-.9-.4-1.3-.3-.3-.7-.6-1.2-.7.4-.1.7-.4 1-.7.2-.3.4-.7.4-1.2 0-.7-.3-1.2-.8-1.6-.5-.4-1.2-.6-2.2-.6h-3.3v8.4h3.6c.6 0 1.1-.1 1.6-.3.4-.2.8-.5 1-.8.2-.3.3-.7.3-1.2zm8.1 1.8l-.5-1.5c-.6.4-1.3.5-2 .5s-1.3-.2-1.8-.7c-.5-.5-.7-1.1-.7-1.9 0-.8.2-1.4.7-1.9.5-.5 1-.7 1.8-.7.3 0 .7 0 1 .1.3.1.6.2.9.4l.5-1.5c-.4-.2-.8-.4-1.2-.5-.5-.1-.9-.2-1.4-.2-.8 0-1.5.2-2.1.5-.6.4-1.1.9-1.5 1.5-.4.7-.6 1.4-.6 2.3 0 .8.2 1.6.5 2.2.3.7.8 1.2 1.5 1.5.6.4 1.4.6 2.2.6 1 0 1.9-.2 2.7-.7zM8.9 19.1h2l-1-3.2-1 3.2z"/></svg>