<svg xmlns="http://www.w3.org/2000/svg" viewBox="0 0 36 36" enable-background="new 0 0 36 36"><path d="M6.931 30.854c-.469 0-.911-.183-1.243-.514-.333-.333-.516-.774-.515-1.244 0-.47.183-.911.515-1.242l7.48-7.481c-1.115-1.625-1.703-3.515-1.703-5.489 0-2.601 1.013-5.047 2.852-6.886 1.84-1.839 4.284-2.852 6.884-2.852 2.602 0 5.048 1.013 6.887 2.852 1.839 1.841 2.853 4.286 2.853 6.886 0 2.6-1.013 5.046-2.853 6.886-1.837 1.84-4.284 2.852-6.887 2.852-2.003 0-3.917-.605-5.558-1.753l-7.469 7.47c-.334.332-.775.515-1.243.515zm14.269-24.957c-2.399 0-4.655.935-6.353 2.632-1.698 1.697-2.632 3.955-2.632 6.355 0 1.921.603 3.756 1.744 5.308.11.149.094.356-.037.487l-7.704 7.705c-.19.19-.295.443-.295.712 0 .27.105.523.295.713.38.378 1.043.381 1.425 0l7.695-7.696c.132-.132.341-.146.49-.035 1.567 1.174 3.424 1.794 5.372 1.794 2.403 0 4.661-.935 6.357-2.632 1.698-1.699 2.633-3.956 2.633-6.356 0-2.399-.935-4.656-2.633-6.355-1.698-1.698-3.956-2.632-6.357-2.632zm4.931 13.918c1.318-1.317 2.043-3.068 2.043-4.931s-.726-3.613-2.043-4.929c-1.317-1.317-3.068-2.043-4.931-2.043-1.861 0-3.612.725-4.928 2.043-.146.147-.146.384 0 .53.146.147.384.147.53 0 1.175-1.176 2.737-1.823 4.398-1.823 1.663 0 3.226.648 4.401 1.823 1.176 1.174 1.824 2.737 1.824 4.399s-.647 3.225-1.824 4.4c-1.174 1.175-2.737 1.822-4.401 1.822-.207 0-.375.168-.375.375s.168.375.375.375c1.863 0 3.615-.725 4.931-2.041z" fill="#0568ae"/></svg>