<svg xmlns="http://www.w3.org/2000/svg" viewBox="0 0 36 36" enable-background="new 0 0 36 36"><path d="M11.333 18c0 1.473-1.194 2.667-2.667 2.667s-2.667-1.194-2.667-2.667c0-1.473 1.194-2.667 2.667-2.667s2.667 1.195 2.667 2.667zm6.667-2.666c-1.473 0-2.667 1.194-2.667 2.667 0 1.473 1.194 2.667 2.667 2.667 1.473 0 2.667-1.194 2.667-2.667-.001-1.473-1.195-2.667-2.667-2.667zm9.333 0c-1.473 0-2.667 1.194-2.667 2.667 0 1.473 1.194 2.667 2.667 2.667 1.473-.001 2.667-1.195 2.667-2.668 0-1.472-1.194-2.666-2.667-2.666z" fill="#0568ae"/></svg>