<svg xmlns="http://www.w3.org/2000/svg" viewBox="0 0 36 36" enable-background="new 0 0 36 36"><path d="M8.667 21.042c-.304 0-.604-.045-.891-.133-.863-.264-1.56-.892-1.912-1.725-.159-.375-.239-.774-.239-1.184 0-1.677 1.365-3.042 3.042-3.042 1.677 0 3.042 1.365 3.042 3.042-.001 1.678-1.365 3.042-3.042 3.042zm0-5.333c-1.264 0-2.292 1.028-2.292 2.292 0 .309.061.609.18.892.265.627.79 1.101 1.44 1.3.216.066.442.1.672.1 1.264 0 2.292-1.028 2.292-2.292s-1.029-2.292-2.292-2.292zm9.333 5.333c-1.677 0-3.042-1.364-3.042-3.042 0-1.677 1.365-3.042 3.042-3.042 1.677 0 3.042 1.365 3.042 3.042 0 1.678-1.364 3.042-3.042 3.042zm0-5.333c-1.264 0-2.292 1.028-2.292 2.292s1.028 2.292 2.292 2.292c1.264 0 2.292-1.028 2.292-2.292s-1.028-2.292-2.292-2.292zm9.334 5.333c-1.677 0-3.042-1.364-3.042-3.042 0-1.677 1.365-3.042 3.042-3.042 1.677 0 3.042 1.365 3.042 3.042 0 1.678-1.365 3.042-3.042 3.042zm0-5.333c-1.264 0-2.292 1.028-2.292 2.292s1.028 2.292 2.292 2.292c1.264 0 2.292-1.028 2.292-2.292s-1.028-2.292-2.292-2.292z" fill="#0568ae"/></svg>