<svg xmlns="http://www.w3.org/2000/svg" viewBox="0 0 36 36" enable-background="new 0 0 36 36"><path d="M-.001 0h36.001v36.001h-36.001" fill="none"/><path d="M31.23 21.704c.439.439.439 1.151 0 1.591-.22.22-.507.33-.795.33-.288 0-.576-.11-.795-.33l-3.704-3.704-3.705 3.706c-.22.22-.507.33-.795.33-.288 0-.576-.11-.795-.33-.439-.439-.439-1.152 0-1.591l3.705-3.705-3.705-3.705c-.439-.439-.439-1.152 0-1.591.44-.439 1.151-.439 1.591 0l3.705 3.705 3.705-3.705c.44-.439 1.151-.439 1.591 0 .439.439.439 1.152 0 1.591l-3.707 3.704 3.704 3.704zm-26.791.417h3.691c.145.141 7.227 6.459 7.227 6.459.14.099.304.151.477.151.137 0 .267-.029.384-.093.275-.142.449-.426.449-.74v-19.796c0-.315-.174-.599-.452-.744-.119-.057-.246-.089-.381-.089-.176 0-.343.053-.487.162 0 0-7.105 6.527-7.235 6.636h-3.673v8.054z" fill="#0568ae"/></svg>