<svg xmlns="http://www.w3.org/2000/svg" viewBox="0 0 36 36" enable-background="new 0 0 36 36"><path d="M17.03 29.106c-.25 0-.49-.076-.694-.22-.706-.627-6.27-5.591-7.156-6.39h-3.546c-.839 0-1.521-.683-1.521-1.522v-5.76c0-.838.682-1.52 1.521-1.52h3.53c.7-.637 4.866-4.462 7.125-6.538.398-.305.86-.336 1.283-.135l.011.006c.404.209.655.622.655 1.077v19.796c0 .455-.25.866-.653 1.073-.16.086-.35.133-.555.133zm-11.396-14.663c-.425 0-.771.346-.771.77v5.76c0 .426.346.772.771.772h3.691c.097 0 .191.038.261.106.15.143 4.786 4.28 7.216 6.448.08.051.303.079.431.009.16-.083.254-.239.254-.411v-19.795c0-.171-.094-.327-.244-.408-.173-.08-.344-.063-.475.036-.7.646-7.087 6.513-7.22 6.625-.067.057-.153.088-.241.088h-3.673zm22.027 3.557l4.235-4.235c.147-.146.147-.384 0-.53-.146-.146-.384-.146-.53 0l-4.235 4.235-4.235-4.235c-.147-.146-.384-.146-.53 0-.147.147-.147.384 0 .53l4.235 4.235-4.236 4.236c-.147.146-.147.384 0 .53.073.073.169.11.265.11s.192-.037.265-.11l4.236-4.236 4.234 4.234c.073.073.169.11.265.11s.192-.037.265-.11c.146-.146.146-.384 0-.53l-4.234-4.234z" fill="#0568ae"/></svg>