<svg xmlns="http://www.w3.org/2000/svg" viewBox="0 0 36 36"><path fill="#0568ae" d="M32.2 11c0-.8-.6-1.4-1.4-1.4H5.3c-.8 0-1.4.6-1.4 1.4v14c0 .8.6 1.4 1.4 1.4h25.5c.8 0 1.4-.6 1.4-1.4V11zM12.1 22.3h-1.8v-6.4l-1.6 1.2-.8-1.2 2.6-1.9h1.7v8.3zm8.2 0h-5.5v-1.2c0-.5.1-.9.2-1.2.1-.4.4-.7.7-1 .3-.3.8-.6 1.3-1 .4-.2.7-.4.9-.6.2-.2.4-.3.5-.5.1-.1.1-.3.1-.5 0-.3-.1-.5-.3-.7-.2-.2-.5-.3-.8-.3-.5 0-1.2.2-1.8.7l-.6-1.2c.4-.3.9-.6 1.3-.7.4-.2.9-.2 1.4-.2.5 0 1 .1 1.4.3s.7.5 1 .8c.2.3.3.7.3 1.2 0 .6-.2 1-.5 1.5-.3.4-.9.9-1.8 1.4-.5.3-.9.6-1.1.8-.2.2-.3.6-.3 1h3.7v1.4zm7.1-1c-.3.4-.6.7-1.1.9-.5.2-1 .3-1.6.3-.9 0-1.7-.2-2.5-.7l.5-1.3c.6.3 1.2.5 1.8.5.5 0 .9-.1 1.1-.3.3-.2.4-.5.4-.8 0-.7-.5-1.1-1.5-1.1h-1.1v-1.3h1.1c.4 0 .7-.1.9-.3.2-.2.3-.4.3-.8 0-.3-.1-.5-.3-.7-.2-.2-.5-.3-.9-.3-.3 0-.5 0-.8.1-.3.1-.6.2-.9.4l-.6-1.2c.8-.5 1.7-.8 2.5-.8.5 0 1 .1 1.4.3.4.2.8.5 1 .8.2.3.3.7.3 1.2 0 .4-.1.7-.3 1-.2.3-.5.5-.9.7.4.2.8.5 1 .8.2.4.3.8.3 1.2.3.6.2 1.1-.1 1.4z"/></svg>