<svg xmlns="http://www.w3.org/2000/svg" viewBox="0 0 36 36" enable-background="new 0 0 36 36"><path d="M18 27.375c-1.265 0-2.493-.248-3.649-.737-.191-.081-.28-.3-.2-.491.081-.19.301-.282.491-.199 1.063.449 2.192.677 3.357.677 4.756 0 8.625-3.869 8.625-8.625s-3.869-8.625-8.625-8.625-8.625 3.869-8.625 8.625c0 1.027.178 2.032.53 2.985.072.194-.028.41-.222.481-.194.073-.41-.028-.482-.222-.381-1.035-.576-2.127-.576-3.244 0-5.17 4.206-9.375 9.375-9.375 5.17 0 9.375 4.206 9.375 9.375.001 5.17-4.205 9.375-9.374 9.375zm.529-9.373l4.235-4.235c.146-.146.146-.384 0-.53-.147-.146-.384-.146-.53 0l-4.235 4.235-4.235-4.235c-.146-.146-.384-.146-.53 0-.147.146-.147.384 0 .53l4.235 4.235-4.24 4.24c-.147.146-.147.384 0 .53.073.073.169.11.265.11s.192-.037.265-.11l4.24-4.24 4.235 4.235c.073.073.169.11.265.11s.192-.037.265-.11c.146-.146.146-.384 0-.53l-4.235-4.235z" fill="#0568ae"/></svg>