<svg xmlns="http://www.w3.org/2000/svg" viewBox="0 0 36 36" enable-background="new 0 0 36 36"><path d="M18 9c-4.971 0-9 4.03-9 9 0 4.971 4.03 9 9 9s9-4.029 9-9c0-4.97-4.03-9-9-9zm4.756 12.345c.391.391.391 1.024 0 1.414-.195.195-.451.293-.707.293-.256 0-.512-.098-.707-.293l-3.343-3.343-3.347 3.347c-.195.195-.451.293-.707.293-.256 0-.512-.098-.707-.293-.391-.391-.391-1.024 0-1.414l3.347-3.347-3.343-3.343c-.391-.39-.391-1.024 0-1.414.39-.391 1.023-.391 1.414 0l3.343 3.343 3.343-3.343c.391-.391 1.024-.391 1.414 0 .391.39.391 1.024 0 1.414l-3.343 3.343 3.343 3.343z" fill="#0568ae"/></svg>