<svg xmlns="http://www.w3.org/2000/svg" viewBox="0 0 36 36" enable-background="new 0 0 36 36"><path d="M18 27.375c-5.169 0-9.375-4.206-9.375-9.375 0-5.17 4.206-9.375 9.375-9.375 1.265 0 2.493.248 3.649.737.191.08.28.301.2.491-.081.191-.301.281-.491.199-1.064-.449-2.193-.677-3.358-.677-4.756 0-8.625 3.869-8.625 8.625s3.869 8.625 8.625 8.625 8.625-3.869 8.625-8.625c0-1.028-.178-2.032-.531-2.985-.072-.194.028-.41.222-.482.194-.071.41.028.482.222.383 1.037.577 2.129.577 3.245 0 5.169-4.205 9.375-9.375 9.375zm-.205-5.081c.203-.012.385-.126.501-.313l7.963-12.83c.109-.176.055-.407-.121-.516-.175-.109-.407-.055-.516.121l-7.878 12.692-3.699-4.648c-.129-.162-.365-.189-.527-.06-.162.129-.189.365-.06.527l3.801 4.776c.13.163.31.254.5.254l.036-.003z" fill="#0568ae"/></svg>