<svg xmlns="http://www.w3.org/2000/svg" viewBox="0 0 36 36" enable-background="new 0 0 36 36"><path d="M9.674 22.006c-.247 0-.494-.097-.678-.29-.358-.374-.344-.968.03-1.326l2.92-2.791v-4.794c0-.518.42-.938.938-.938s.938.42.938.938v5.195c0 .256-.104.501-.29.678l-3.209 3.068c-.183.174-.416.26-.649.26zm3.209-12.256c-4.549 0-8.25 3.701-8.25 8.25 0 4.549 3.701 8.25 8.25 8.25s8.25-3.701 8.25-8.25c0-4.549-3.702-8.25-8.25-8.25m0-3c6.214 0 11.25 5.037 11.25 11.25s-5.037 11.25-11.25 11.25-11.251-5.036-11.251-11.25c0-6.213 5.037-11.25 11.251-11.25zm17.699 3.326c1.323 2.349 2.14 5.035 2.14 7.925 0 2.89-.817 5.576-2.14 7.925-.233.414.078.404.274.214 2.137-2.065 3.511-4.93 3.511-8.139v-.001c0-3.209-1.374-6.073-3.511-8.139-.197-.189-.507-.199-.274.215zm-6.403 17.214c-.252.356-.046.555.36.309 3.247-1.968 5.426-5.522 5.426-9.598-.001-4.076-2.179-7.63-5.426-9.598-.406-.246-.613-.046-.36.309 1.87 2.631 3.035 5.813 3.035 9.289-.001 3.476-1.165 6.658-3.035 9.289z" fill="#0568ae"/></svg>