<svg xmlns="http://www.w3.org/2000/svg" viewBox="0 0 36 36" enable-background="new 0 0 36 36"><path d="M23.834 29.175h-1.92c-1.001 0-1.816-.814-1.816-1.815v-18.72c0-1.001.815-1.815 1.816-1.815h1.92c1.001 0 1.815.814 1.815 1.815v18.72c0 1.001-.814 1.815-1.815 1.815zm-1.92-21.6c-.587 0-1.066.478-1.066 1.065v18.72c0 .587.478 1.065 1.066 1.065h1.92c.587 0 1.065-.478 1.065-1.065v-18.72c0-.587-.478-1.065-1.065-1.065h-1.92zm-7.829 21.6h-1.92c-1.001 0-1.815-.814-1.815-1.815v-18.72c0-1.001.814-1.815 1.815-1.815h1.92c1.001 0 1.815.814 1.815 1.815v18.72c-.001 1.001-.815 1.815-1.815 1.815zm-1.92-21.6c-.587 0-1.065.478-1.065 1.065v18.72c0 .587.478 1.065 1.065 1.065h1.92c.587 0 1.065-.478 1.065-1.065v-18.72c0-.587-.478-1.065-1.065-1.065h-1.92z" fill="#0568ae"/></svg>