<svg xmlns="http://www.w3.org/2000/svg" viewBox="0 0 36 36" enable-background="new 0 0 36 36"><path d="M4.841 26.37c-.317 0-.613-.079-.875-.237-.568-.342-.88-.999-.88-1.85v-12.565c0-.85.313-1.506.88-1.849.567-.343 1.294-.314 2.045.081l12.312 6.47c.762.4 1.182.961 1.182 1.58-.001.619-.42 1.18-1.182 1.579l-12.312 6.471c-.404.213-.801.32-1.17.32zm.003-15.988c-.183 0-.348.043-.49.128-.333.201-.517.63-.517 1.207v12.566c0 .577.184 1.006.518 1.208.334.201.798.164 1.309-.105l12.312-6.47c.496-.26.78-.594.781-.916 0-.322-.285-.656-.78-.916l-12.312-6.47c-.296-.154-.574-.232-.821-.232zm26.614 16.045h-1.419c-.802 0-1.455-.653-1.455-1.455v-13.944c0-.802.653-1.455 1.455-1.455h1.419c.803 0 1.456.653 1.456 1.455v13.944c-.001.802-.654 1.455-1.456 1.455zm-1.419-16.104c-.389 0-.705.316-.705.705v13.944c0 .389.316.705.705.705h1.419c.389 0 .706-.316.706-.705v-13.944c0-.389-.316-.705-.706-.705h-1.419zm-5.514 16.104h-1.418c-.802 0-1.455-.653-1.455-1.455v-13.944c0-.802.652-1.455 1.455-1.455h1.418c.802 0 1.455.653 1.455 1.455v13.944c0 .802-.653 1.455-1.455 1.455zm-1.418-16.104c-.389 0-.705.316-.705.705v13.944c0 .389.316.705.705.705h1.418c.389 0 .705-.316.705-.705v-13.944c0-.389-.316-.705-.705-.705h-1.418z" fill="#0568ae"/></svg>