<svg xmlns="http://www.w3.org/2000/svg" viewBox="0 0 36 36" enable-background="new 0 0 36 36"><path d="M13.74 24.863c-.27 0-.523-.068-.747-.203-.482-.292-.748-.846-.748-1.561v-10.197c0-.715.266-1.269.747-1.56.482-.292 1.097-.269 1.731.064l9.992 5.25c.642.338.995.815.995 1.345s-.353 1.007-.995 1.345l-9.992 5.25c-.339.177-.673.267-.983.267zm.002-12.974c-.136 0-.258.031-.362.094-.248.15-.385.477-.385.919v10.196c0 .442.137.769.385.919.249.151.602.12.994-.086l9.992-5.25c.377-.198.594-.446.594-.681 0-.234-.217-.482-.594-.681l-9.991-5.25c-.229-.119-.444-.18-.633-.18zm5.266 21.453c8.043-.534 14.344-7.272 14.344-15.342 0-8.478-6.897-15.375-15.375-15.375-7.085 0-13.222 4.796-14.924 11.663-.3 1.207-.452 2.456-.452 3.712 0 1.871.331 3.696.984 5.425 1.073 2.847 2.954 5.294 5.438 7.077.168.121.403.082.523-.086.121-.169.082-.403-.086-.524-2.364-1.696-4.152-4.024-5.173-6.732-.621-1.644-.936-3.38-.936-5.16 0-1.196.144-2.384.429-3.532 1.619-6.531 7.457-11.093 14.196-11.093 8.065 0 14.625 6.561 14.625 14.625 0 7.676-5.993 14.086-13.643 14.593-.207.014-.363.192-.349.399.013.198.178.35.374.35h.025z" fill="#0568ae"/></svg>