<svg xmlns="http://www.w3.org/2000/svg" viewBox="0 0 36 36" enable-background="new 0 0 36 36"><path d="M3.461 11.718c0-1.475 1.071-2.121 2.376-1.435l12.312 6.47c1.308.686 1.308 1.81 0 2.496l-12.312 6.47c-1.305.687-2.376.041-2.376-1.435v-12.566zm29.077-.69c0-.594-.486-1.08-1.081-1.08h-1.419c-.594 0-1.08.486-1.08 1.08v13.944c0 .594.486 1.08 1.08 1.08h1.419c.595 0 1.081-.486 1.081-1.08v-13.944zm-6.933 0c0-.594-.485-1.08-1.08-1.08h-1.418c-.594 0-1.08.486-1.08 1.08v13.944c0 .594.486 1.08 1.08 1.08h1.418c.595 0 1.08-.486 1.08-1.08v-13.944z" fill="#0568ae"/></svg>