<svg xmlns="http://www.w3.org/2000/svg" viewBox="0 0 36 36" enable-background="new 0 0 36 36"><path d="M27.385 16.089l-16.516-8.679c-.52-.273-1.027-.411-1.509-.411-1.332 0-2.227 1.072-2.227 2.668v16.854c0 1.596.895 2.668 2.227 2.668.482 0 .989-.138 1.509-.411l16.515-8.678c.977-.513 1.515-1.225 1.515-2.006 0-.779-.537-1.492-1.514-2.005zm-.349 3.348l-16.516 8.677c-.411.216-.801.325-1.16.325-.911 0-1.477-.735-1.477-1.918v-16.854c0-1.183.566-1.918 1.477-1.918.359 0 .749.109 1.16.325l16.516 8.678c.708.372 1.113.861 1.113 1.342 0 .482-.406.971-1.113 1.343z" fill="#0568ae"/></svg>