<svg xmlns="http://www.w3.org/2000/svg" viewBox="0 0 36 36" enable-background="new 0 0 36 36"><path d="M18 24.286c-3.441 0-6.241-2.799-6.241-6.24 0-.991.24-1.947.675-2.807l8.372 8.373c-.843.428-1.795.674-2.806.674zm0 2.7c-4.93 0-8.941-4.01-8.941-8.94 0-1.72.497-3.37 1.398-4.785l-3.301-3.301c-1.668 2.246-2.656 5.028-2.656 8.041 0 7.456 6.044 13.5 13.5 13.5 3.013 0 5.795-.988 8.041-2.656l-3.258-3.258c-1.385.881-3.023 1.399-4.783 1.399zm13.073 1.941c.391.391.391 1.024 0 1.414-.195.196-.451.293-.707.293s-.511-.097-.707-.293l-24-24c-.391-.39-.391-1.023 0-1.414.391-.39 1.023-.39 1.414 0l2.518 2.518c2.307-1.84 5.228-2.944 8.409-2.944 7.456 0 13.5 6.044 13.5 13.5 0 3.181-1.104 6.102-2.945 8.409l2.518 2.517zm-9.094-15.684c1.437 1.192 2.261 2.943 2.261 4.803 0 1.159-.32 2.244-.874 3.175l1.942 1.942c1.022-1.451 1.632-3.211 1.632-5.117 0-2.667-1.18-5.175-3.238-6.881-.573-.476-1.424-.396-1.9.177-.476.574-.397 1.425.177 1.901zm-5.329 1.261l1.694 1.694c.578-.153 1.006-.674 1.006-1.3v-6.318c0-.746-.604-1.35-1.35-1.35s-1.35.604-1.35 1.35v5.924z" fill="#0568ae"/></svg>