<svg xmlns="http://www.w3.org/2000/svg" viewBox="0 0 36 36" enable-background="new 0 0 36 36"><path d="M18 3c-8.284 0-15 6.716-15 15 0 8.284 6.716 15 15 15s15-6.716 15-15c.001-8.284-6.715-15-15-15zm-1.5 4.533c0-.828.672-1.5 1.5-1.5.829 0 1.5.672 1.5 1.5v7.021c0 .828-.672 1.5-1.5 1.5s-1.5-.672-1.5-1.5v-7.021zm1.5 20.452c-5.477 0-9.934-4.456-9.934-9.934 0-2.963 1.311-5.75 3.598-7.646.638-.528 1.583-.44 2.112.197.529.638.441 1.583-.197 2.112-1.597 1.325-2.513 3.27-2.513 5.337 0 3.823 3.111 6.934 6.934 6.934s6.934-3.111 6.934-6.934c0-2.067-.916-4.012-2.513-5.337-.638-.529-.726-1.475-.197-2.112.528-.637 1.475-.726 2.112-.197 2.287 1.897 3.598 4.683 3.598 7.646.001 5.478-4.456 9.934-9.934 9.934z" fill="#0568ae"/></svg>