<svg xmlns="http://www.w3.org/2000/svg" viewBox="0 0 36 36" enable-background="new 0 0 36 36"><path d="M18 26.853c-4.857 0-8.809-3.952-8.809-8.809 0-3.152 1.701-6.084 4.44-7.651.18-.103.409-.041.512.139.103.18.041.409-.139.512-2.506 1.434-4.062 4.116-4.062 7 0 4.444 3.615 8.059 8.059 8.059 4.444 0 8.059-3.615 8.059-8.059 0-2.875-1.549-5.553-4.044-6.99-.18-.103-.241-.333-.138-.512.104-.18.333-.241.512-.138 2.727 1.57 4.42 4.497 4.42 7.639 0 4.859-3.952 8.81-8.81 8.81zm.375-12.306v-7.702c0-.207-.168-.375-.375-.375s-.375.168-.375.375v7.702c0 .207.168.375.375.375s.375-.168.375-.375zm15.099 3.447c0-8.532-6.942-15.474-15.476-15.474-8.531 0-15.471 6.942-15.471 15.474s6.94 15.474 15.471 15.474c8.534 0 15.476-6.942 15.476-15.474zm-.75 0c0 8.119-6.606 14.724-14.726 14.724-8.117 0-14.721-6.605-14.721-14.724s6.604-14.724 14.721-14.724c8.12 0 14.726 6.605 14.726 14.724z" fill="#0568ae"/></svg>