<svg xmlns="http://www.w3.org/2000/svg" viewBox="0 0 36 36" enable-background="new 0 0 36 36"><path d="M18.079 32.5c-7.995 0-14.5-6.505-14.5-14.5s6.505-14.5 14.5-14.5 14.5 6.505 14.5 14.5-6.505 14.5-14.5 14.5zm0-27c-6.893 0-12.5 5.607-12.5 12.5s5.607 12.5 12.5 12.5 12.5-5.607 12.5-12.5-5.608-12.5-12.5-12.5zm1 9.398v-6.319c0-.552-.448-1-1-1s-1 .448-1 1v6.318c0 .552.448 1 1 1s1-.447 1-.999zm7.59 3.148c0-2.563-1.134-4.973-3.111-6.612-.424-.352-1.055-.293-1.408.131-.353.425-.294 1.056.131 1.408 1.517 1.258 2.388 3.107 2.388 5.073 0 3.634-2.957 6.59-6.59 6.59s-6.59-2.956-6.59-6.59c0-1.965.87-3.814 2.388-5.073.425-.353.484-.983.131-1.408-.352-.426-.983-.484-1.408-.131-1.977 1.64-3.111 4.05-3.111 6.612 0 4.736 3.854 8.59 8.59 8.59 4.737 0 8.59-3.854 8.59-8.59z" fill="#0568ae"/></svg>