<svg xmlns="http://www.w3.org/2000/svg" viewBox="0 0 36 36" enable-background="new 0 0 36 36"><path d="M26.115 11.496c-3.614 0-6.554 2.94-6.554 6.553 0 1.297.383 2.504 1.036 3.522h-5.194c.652-1.018 1.036-2.225 1.036-3.522 0-3.614-2.939-6.553-6.551-6.553-3.614 0-6.554 2.94-6.554 6.553s2.94 6.553 6.554 6.553h16.227c3.613 0 6.551-2.939 6.551-6.553.001-3.613-2.938-6.553-6.551-6.553zm-16.227 10.076c-1.944 0-3.524-1.58-3.524-3.522 0-1.943 1.58-3.523 3.524-3.523 1.941 0 3.521 1.58 3.521 3.523 0 1.941-1.58 3.522-3.521 3.522zm16.227 0c-1.944 0-3.524-1.58-3.524-3.522 0-1.943 1.58-3.523 3.524-3.523 1.941 0 3.521 1.58 3.521 3.523 0 1.941-1.579 3.522-3.521 3.522z" fill="#0568ae"/></svg>