<svg xmlns="http://www.w3.org/2000/svg" viewBox="0 0 36 36" enable-background="new 0 0 36 36"><path d="M26.5 11.625c-3.515 0-6.375 2.86-6.375 6.375 0 2.433 1.372 4.551 3.382 5.625h-11.013c2.01-1.074 3.382-3.192 3.382-5.625 0-3.515-2.86-6.375-6.375-6.375s-6.376 2.86-6.376 6.375 2.86 6.375 6.375 6.375h17c3.515 0 6.375-2.86 6.375-6.375.001-3.515-2.859-6.375-6.375-6.375zm-22.625 6.375c0-3.102 2.524-5.625 5.625-5.625s5.625 2.523 5.625 5.625c0 3.101-2.524 5.625-5.625 5.625s-5.625-2.523-5.625-5.625zm22.625 5.625c-3.102 0-5.625-2.524-5.625-5.625 0-3.102 2.523-5.625 5.625-5.625s5.625 2.523 5.625 5.625c.001 3.102-2.523 5.625-5.625 5.625z" fill="#0568ae"/></svg>