<svg xmlns="http://www.w3.org/2000/svg" viewBox="0 0 36 36"><path fill="#0568ae" d="M18 9c-5 0-9 4-9 9s4 9 9 9 9-4 9-9-4-9-9-9zm-3.6 11.4l-.9-1.6h-.6v1.6h-1v-4.6h1.8c.5 0 1 .1 1.3.4.3.3.5.6.5 1.1 0 .3-.1.6-.2.8-.1.2-.3.4-.6.5l1.1 1.8h-1.4zm5.1 0h-3.1v-4.6h3v.9h-2v1H19v.9h-1.6v1h2v.8zm3.1.1c-.5 0-.9-.1-1.2-.3-.4-.2-.6-.5-.8-.9-.2-.4-.3-.8-.3-1.2 0-.5.1-.9.3-1.3.2-.4.5-.6.8-.8.3-.2.7-.3 1.2-.3.3 0 .5 0 .8.1.3.1.5.2.7.3l-.3.8c-.2-.1-.4-.2-.5-.2-.2 0-.3-.1-.5-.1-.4 0-.7.1-1 .4-.3.3-.4.6-.4 1s.1.8.4 1c.3.3.6.4 1 .4s.8-.1 1.1-.3l.3.8c-.5.5-1 .6-1.6.6zm-8.5-3.7c.1.1.2.3.2.5s-.1.4-.2.5c-.1.1-.3.2-.5.2h-.7v-1.3h.7c.2 0 .4 0 .5.1z"/></svg>