<svg xmlns="http://www.w3.org/2000/svg" viewBox="0 0 36 36"><path fill="#0568ae" d="M10.5 10.5C6.4 10.5 3 13.9 3 18s3.4 7.5 7.5 7.5S18 22.1 18 18s-3.4-7.5-7.5-7.5zm-3 9.5l-.7-1.3h-.6V20h-.8v-3.9h1.5c.5 0 .8.1 1.1.3.3.2.4.5.4.9 0 .3-.1.5-.2.7-.1.2-.3.3-.5.5l.8 1.5h-1zm4.3 0H9.2v-3.9h2.5v.7h-1.6v.8h1.3v.7h-1.3v.8h1.7v.9zm2.5.1c-.4 0-.7-.1-1-.3-.3-.2-.5-.4-.7-.7-.2-.3-.2-.6-.2-1s.1-.7.3-1.1c.2-.3.4-.5.7-.7.3-.2.6-.2 1-.2.2 0 .4 0 .6.1.2.1.4.1.6.2l-.2.7c-.2-.1-.4-.1-.5-.2s-.3 0-.4 0c-.3 0-.6.1-.8.3-.2.2-.3.5-.3.9s.1.7.3.9c.2.2.5.3.8.3.3 0 .6-.1.9-.2l.2.7c-.4.2-.8.3-1.3.3zm-7-3.1c.1.1.2.2.2.4s-.1.3-.2.4c-.1.1-.3.2-.4.2h-.7v-1.1h.6c.2 0 .4 0 .5.1zM33 18c0 4.1-3.4 7.5-7.5 7.5-.7 0-1.4-.1-2.1-.3 2.2-1.6 3.6-4.3 3.6-7.2 0-2.9-1.4-5.5-3.6-7.2.7-.2 1.4-.3 2.1-.3 4.1 0 7.5 3.4 7.5 7.5zm-7.5 0c0 4.1-3.4 7.5-7.5 7.5-.7 0-1.4-.1-2.1-.3 2.2-1.6 3.6-4.3 3.6-7.2 0-2.9-1.4-5.5-3.6-7.2.7-.2 1.4-.3 2.1-.3 4.1 0 7.5 3.4 7.5 7.5z"/></svg>