<svg xmlns="http://www.w3.org/2000/svg" viewBox="0 0 36 36" enable-background="new 0 0 36 36"><path d="M31.875 18c0 2.466-.656 4.889-1.897 7.007-.07.119-.195.185-.324.185l-.189-.051c-.179-.105-.239-.334-.134-.513 1.174-2.003 1.794-4.295 1.794-6.628 0-5.973-4-11.154-9.749-12.68l.042.094 1.942 3.521c.1.181.034.41-.148.51l-.181.047c-.132 0-.261-.07-.329-.194l-1.941-3.519c-.217-.391-.25-.829-.087-1.199.163-.371.507-.645.946-.751l3.903-.947c.201-.048.404.075.453.276.049.201-.075.404-.276.453l-3.904.947-.163.059c6.043 1.633 10.242 7.092 10.242 13.383zm-4.065 9.813c-2.621 2.62-6.105 4.063-9.81 4.063-7.651 0-13.875-6.224-13.875-13.875-.001-7.651 6.224-13.876 13.875-13.876l.006.001.006-.001c.207 0 .375.168.375.375v12.932c0 .219.147.574.303.731l9.12 9.119c.146.147.146.384 0 .531zm-9.81 3.313c3.38 0 6.562-1.272 9.008-3.585l-8.849-8.848c-.298-.299-.523-.841-.523-1.261v-12.548c-7.069.194-12.762 6.001-12.762 13.116 0 7.238 5.888 13.126 13.126 13.126z" fill="#0568ae"/></svg>