<svg xmlns="http://www.w3.org/2000/svg" viewBox="0 0 36 36" enable-background="new 0 0 36 36"><path d="M25.477 8.472c-.005-.113-.06-.217-.15-.285-2.144-1.603-4.678-2.45-7.327-2.45-6.759 0-12.258 5.5-12.258 12.26 0 2.146.569 4.264 1.645 6.125.057.098.154.164.265.182l.06.005c.091 0 .18-.033.249-.095l17.39-15.445c.084-.075.131-.184.126-.297zm-17.664 14.87c-.877-1.66-1.321-3.456-1.321-5.345 0-6.346 5.163-11.51 11.508-11.51 2.333 0 4.571.701 6.502 2.032l-16.689 14.823zm22.447-5.345c0 6.759-5.5 12.258-12.26 12.258l-.308-.003c-.207-.005-.37-.177-.366-.384.005-.207.179-.375.384-.366l.289.003c6.346 0 11.51-5.163 11.51-11.508 0-1.83-.447-3.646-1.294-5.281l-17.031 15.12c-.155.137-.392.123-.53-.031-.137-.155-.123-.392.032-.529l17.384-15.435c.084-.075.199-.106.309-.09.112.018.209.086.265.184 1.058 1.852 1.616 3.947 1.616 6.062zm-12.26-15.402c-8.492 0-15.401 6.909-15.401 15.401 0 3.394 1.085 6.615 3.136 9.313 2.942 3.867 7.413 6.085 12.264 6.085 8.491 0 15.4-6.907 15.4-15.398.001-8.492-6.907-15.401-15.399-15.401zm0 30.05c-4.615 0-8.868-2.11-11.667-5.789-1.952-2.566-2.983-5.63-2.983-8.859-.001-8.079 6.572-14.652 14.65-14.652s14.65 6.572 14.65 14.651c0 8.077-6.572 14.649-14.65 14.649z" fill="#0568ae"/></svg>