<svg xmlns="http://www.w3.org/2000/svg" viewBox="0 0 36 36" enable-background="new 0 0 36 36"><path d="M19.024 26.37c-.369 0-.766-.107-1.171-.32l-12.312-6.47c-.761-.399-1.18-.96-1.18-1.58 0-.619.419-1.18 1.181-1.58l12.312-6.47c.751-.395 1.479-.425 2.046-.082.567.343.879.999.879 1.849v.961c0 .207-.168.375-.375.375s-.375-.168-.375-.375v-.961c0-.577-.184-1.005-.517-1.207-.334-.202-.799-.165-1.309.104l-12.313 6.47c-.495.26-.78.594-.78.916 0 .322.284.656.78.916l12.312 6.47c.511.269.976.306 1.309.105.334-.201.518-.63.518-1.208v-.981c0-.207.168-.375.375-.375s.375.168.375.375v.981c0 .85-.313 1.507-.88 1.85-.261.158-.558.237-.875.237zm11.735-.237c.567-.342.879-.999.879-1.85v-12.566c0-.85-.312-1.506-.879-1.849-.567-.343-1.294-.313-2.046.082l-12.313 6.47c-.761.4-1.18.961-1.18 1.58 0 .619.419 1.18 1.18 1.58l12.313 6.47c.405.213.802.319 1.171.319.317.001.614-.078.875-.236zm-.387-15.623c.333.201.517.63.517 1.207v12.566c0 .577-.184 1.006-.517 1.208-.333.201-.799.164-1.31-.105l-12.313-6.47c-.495-.26-.779-.594-.779-.916 0-.322.284-.656.779-.916l12.313-6.47c.294-.155.573-.232.82-.232.183 0 .348.043.49.128z" fill="#0568ae"/></svg>