<?xml version="1.0" encoding="utf-8"?>
<!-- Generator: Adobe Illustrator 18.1.0, SVG Export Plug-In . SVG Version: 6.00 Build 0)  -->
<svg version="1.1" id="Layer_1" xmlns="http://www.w3.org/2000/svg" xmlns:xlink="http://www.w3.org/1999/xlink" x="0px" y="0px"
	 viewBox="0 0 36 36" enable-background="new 0 0 36 36" xml:space="preserve">
<g>
	<g>
		<rect fill="none" width="36" height="36"/>
		<rect fill="none" width="36" height="36"/>
	</g>
	<path fill="#009FDB" d="M29.8,10.8V25c0,0.5-0.4,0.9-0.9,0.9H9c-0.2,0-0.4-0.2-0.4-0.4c0-0.2,0.2-0.4,0.4-0.4h19.9
		c0.1,0,0.1,0,0.1-0.1V10.8c0-0.1,0-0.1-0.1-0.1H7.1c-0.1,0-0.1,0-0.1,0.1v9.3c0,0.2-0.2,0.4-0.4,0.4s-0.4-0.2-0.4-0.4v-9.3
		c0-0.5,0.4-0.9,0.9-0.9h21.9C29.4,10,29.8,10.4,29.8,10.8z M31.9,9.2v17.7c0,0.7-0.6,1.3-1.3,1.3H5.5c-0.7,0-1.3-0.6-1.3-1.3V9.2
		c0-0.7,0.6-1.3,1.3-1.3h25.1C31.3,7.8,31.9,8.4,31.9,9.2z M31.1,9.2c0-0.3-0.3-0.6-0.6-0.6H5.5c-0.3,0-0.6,0.3-0.6,0.6v17.7
		c0,0.3,0.3,0.6,0.6,0.6h25.1c0.3,0,0.6-0.3,0.6-0.6V9.2z M27.5,18.3l-1.8-1.4c-0.2-0.1-0.4-0.1-0.5,0.1c-0.1,0.2-0.1,0.4,0.1,0.5
		l1.5,1.2l-6.3,0l0-5.6l1.1,1.5c0.1,0.2,0.4,0.2,0.5,0.1c0.2-0.1,0.2-0.4,0.1-0.5l-1.4-1.8c-0.2-0.2-0.5-0.4-0.7-0.4c0,0,0,0,0,0
		c-0.3,0-0.5,0.1-0.7,0.4l-1.4,1.8c-0.1,0.2-0.1,0.4,0.1,0.5c0.1,0.1,0.1,0.1,0.2,0.1c0.1,0,0.2-0.1,0.3-0.1l1.2-1.5l0,5.6l-10.6,0
		c-0.2,0-0.4,0.2-0.4,0.4c0,0.2,0.2,0.4,0.4,0.4h0l10.6,0l0,3.5c0,0.2,0.2,0.4,0.4,0.4h0c0.2,0,0.4-0.2,0.4-0.4l0-3.5l6.3,0
		l-1.5,1.1c-0.2,0.1-0.2,0.4-0.1,0.5c0.1,0.1,0.2,0.1,0.3,0.1c0.1,0,0.2,0,0.2-0.1l1.8-1.4c0.2-0.2,0.4-0.5,0.4-0.7
		C27.9,18.8,27.7,18.5,27.5,18.3z"/>
</g>
</svg>
