<svg xmlns="http://www.w3.org/2000/svg" viewBox="0 0 36 36"><path fill="none" d="M0 0h36v36H0z"/><g fill="#0568ae"><path d="M29.1 19.2l-.8-.6-1-.7-.5-.3c-.1-.1-.3 0-.3.1v.9h-4.4v-4.3h.9c.2 0 .2-.1.1-.3l-.3-.5-1.3-1.9c-.1-.1-.2-.1-.3 0v.1l-.6.8-.7 1-.3.5c-.1.1 0 .3.1.3h.9v4.3H7.5c-.4 0-.8.3-.8.8 0 .4.3.8.8.8h13.1v3.4c0 .4.3.8.8.8.4 0 .8-.3.8-.8v-3.4h4.4v.9c0 .2.1.2.3.1l.5-.3 1.9-1.3c0-.1 0-.3-.2-.4z"/><path d="M30.7 8.5H5.3c-1 0-1.8.8-1.8 1.8v15.5c0 1 .8 1.8 1.8 1.8h25.4c1 0 1.8-.8 1.8-1.8V10.3c0-1-.8-1.8-1.8-1.8zm-.2 16.3c0 .4-.3.7-.7.7H6.2c-.4 0-.7-.3-.7-.7V11.2c0-.4.3-.7.7-.7h23.6c.4 0 .7.3.7.7v13.6z"/></g></svg>