<svg xmlns="http://www.w3.org/2000/svg" viewBox="0 0 36 36" enable-background="new 0 0 36 36"><path d="M33.001 18c0 4.142-3.358 7.5-7.5 7.5-.735 0-1.443-.11-2.113-.307 2.188-1.643 3.612-4.251 3.612-7.193 0-2.942-1.425-5.55-3.613-7.193.671-.197 1.379-.307 2.113-.307 4.143 0 7.501 3.358 7.501 7.5zm-15.001-7.5c-.734 0-1.442.11-2.113.307 2.189 1.644 3.613 4.252 3.613 7.193s-1.425 5.55-3.613 7.193c.671.197 1.379.307 2.113.307 4.142 0 7.5-3.358 7.5-7.5 0-4.142-3.357-7.5-7.5-7.5zm0 7.5c0 4.142-3.358 7.5-7.5 7.5s-7.5-3.358-7.5-7.5c0-4.142 3.358-7.5 7.5-7.5s7.5 3.358 7.5 7.5zm-6.625-4.714c0-.472-.383-.855-.855-.855s-.855.383-.855.855v4.37l-2.66 2.544c-.341.326-.353.867-.027 1.208.168.176.393.264.618.264.212 0 .425-.079.591-.237l2.925-2.797c.169-.161.264-.384.264-.618v-4.734z" fill="#0568ae"/></svg>