<svg xmlns="http://www.w3.org/2000/svg" viewBox="0 0 36 36" enable-background="new 0 0 36 36"><path d="M33.001 18c0 4.142-3.358 7.5-7.5 7.5-.735 0-1.443-.11-2.113-.307 2.188-1.643 3.612-4.251 3.612-7.193 0-2.942-1.425-5.55-3.613-7.193.671-.197 1.379-.307 2.113-.307 4.143 0 7.501 3.358 7.501 7.5zm-15.001-7.5c-.735 0-1.442.11-2.113.307 2.189 1.644 3.613 4.252 3.613 7.193s-1.425 5.55-3.613 7.193c.671.197 1.379.307 2.113.307 4.142 0 7.5-3.358 7.5-7.5 0-4.142-3.358-7.5-7.5-7.5zm0 7.5c0 4.142-3.358 7.5-7.5 7.5-4.142 0-7.5-3.358-7.5-7.5 0-4.142 3.358-7.5 7.5-7.5 4.142 0 7.5 3.358 7.5 7.5zm-3.432-4.14c-.3-.201-.739-.123-.95.169l-4.253 5.864-2.377-2.143c-.26-.235-.687-.23-.941.01-.262.246-.291.658-.068.939l2.797 3.515c.175.22.429.346.697.346.303 0 .584-.16.751-.429l4.547-7.327c.198-.32.109-.734-.203-.944z" fill="#0568ae"/></svg>