<svg xmlns="http://www.w3.org/2000/svg" viewBox="0 0 36 36" enable-background="new 0 0 36 36"><path d="M33.088 18c0 4.142-3.358 7.5-7.5 7.5-.735 0-1.442-.11-2.113-.307 2.189-1.643 3.613-4.252 3.613-7.193s-1.425-5.55-3.613-7.193c.671-.197 1.379-.307 2.113-.307 4.142 0 7.5 3.358 7.5 7.5zm-15-7.5c-.735 0-1.442.11-2.113.307 2.189 1.643 3.614 4.252 3.614 7.193s-1.425 5.55-3.614 7.193c.671.197 1.379.307 2.113.307 4.142 0 7.5-3.358 7.5-7.5s-3.358-7.5-7.5-7.5zm0 7.5c0 4.142-3.358 7.5-7.5 7.5s-7.5-3.358-7.5-7.5 3.358-7.5 7.5-7.5 7.5 3.358 7.5 7.5zm-6.323.001l2.786-2.786c.326-.325.326-.853 0-1.178-.325-.326-.853-.326-1.178 0l-2.786 2.786-2.786-2.786c-.326-.326-.853-.326-1.179 0-.326.325-.326.853 0 1.178l2.786 2.786-2.789 2.79c-.326.325-.326.853 0 1.178.163.163.376.244.589.244.213 0 .426-.081.589-.244l2.79-2.79 2.786 2.786c.163.163.376.244.589.244.213 0 .427-.081.589-.244.326-.325.326-.853 0-1.178l-2.786-2.786z" fill="#0568ae"/></svg>