<svg xmlns="http://www.w3.org/2000/svg" viewBox="0 0 36 36" enable-background="new 0 0 36 36"><path d="M13.984 33.181c-.282 0-.564-.015-.847-.035-.322-.024-.6-.247-.692-.554-.188-.599-.342-1.267-.449-1.944l-.391-.111-.22-.078-.244-.089c-.506.461-1.065.887-1.664 1.269-.254.16-.569.164-.824.013-.39-.239-.772-.521-1.21-.894-.248-.211-.341-.558-.23-.861.237-.68.486-1.269.775-1.827l-.27-.358c-.086-.101-.173-.234-.256-.368-.712.077-1.416.095-2.095.052-.307-.021-.566-.211-.679-.493-.197-.493-.344-.962-.45-1.434-.071-.309.051-.628.311-.812.507-.362 1.098-.714 1.718-1.027l-.003-.09-.013-.287.013-.402.004-.119c-.621-.351-1.201-.751-1.728-1.19-.223-.189-.323-.483-.264-.769.107-.482.277-.932.427-1.329l.04-.1c.115-.313.426-.513.76-.499.657.013 1.323.073 1.974.177.082-.13.173-.266.278-.394l.252-.33c-.271-.593-.494-1.226-.694-1.97-.086-.303.021-.629.275-.825l.066-.052c.358-.277.727-.563 1.15-.803.274-.154.61-.132.857.054.528.391 1.034.831 1.507 1.309l.104-.038.279-.101.474-.136c.148-.713.354-1.404.6-2.011.109-.275.364-.463.665-.488.446-.037.92-.034 1.493.008.322.025.592.24.689.547.189.606.344 1.275.45 1.95l.402.116.211.075.243.089c.511-.466 1.07-.892 1.666-1.27.25-.16.577-.165.83-.008.386.235.769.518 1.204.888.246.211.339.556.231.859-.237.676-.487 1.265-.779 1.83l.272.36c.08.093.164.217.255.367.704-.078 1.407-.097 2.097-.051.301.02.566.213.676.493.196.489.344.958.45 1.432.07.309-.052.627-.31.811-.511.365-1.102.718-1.72 1.028l.003.08.014.287.001.052-.014.326-.006.15c.623.354 1.204.754 1.728 1.192.228.19.329.486.264.774-.108.481-.274.921-.435 1.347-.104.278-.408.574-.764.574-.682-.013-1.351-.072-2.001-.177-.082.131-.173.267-.278.394l-.251.33c.271.598.494 1.23.694 1.968.086.304-.022.63-.276.826-.4.312-.78.608-1.214.857-.266.152-.602.134-.855-.05-.535-.398-1.042-.838-1.512-1.313l-.213.077-.17.061-.472.138c-.151.715-.358 1.406-.602 2.01-.112.276-.366.464-.663.488-.21.021-.428.029-.644.029zm-2.923-3.622l.148.03.414.158.209.076.582.157c.152.034.267.159.289.313.102.722.26 1.441.46 2.079.511.078.95.074 1.405.035.284-.648.495-1.377.64-2.128.028-.146.139-.261.284-.295.214-.049.425-.11.638-.176l.147-.054.423-.159c.144-.061.31-.026.418.087.489.513 1.024.987 1.59 1.408.425-.219.784-.499 1.164-.795-.202-.822-.44-1.477-.739-2.1-.065-.136-.043-.297.057-.41.15-.17.277-.33.378-.474.148-.182.257-.364.357-.538l.022-.033.091-.091c.082-.058.186-.079.283-.063.69.125 1.406.196 2.127.209l.059-.089c.152-.402.309-.817.406-1.247-.558-.489-1.168-.9-1.826-1.258-.13-.07-.206-.21-.195-.357l.017-.326.014-.35-.013-.275-.017-.329c-.012-.154.072-.3.212-.367.662-.318 1.296-.689 1.835-1.074l.013-.035c-.098-.435-.233-.866-.415-1.319-.748-.068-1.486-.043-2.226.054-.153.018-.305-.057-.378-.194-.109-.185-.218-.366-.322-.49-.137-.194-.263-.354-.407-.515-.106-.118-.126-.289-.05-.428.325-.6.596-1.22.851-1.951-.414-.383-.767-.643-1.121-.858-.659.397-1.24.849-1.762 1.345-.108.103-.266.132-.403.074l-.434-.164-.192-.069c-.164-.049-.369-.11-.584-.159-.152-.035-.267-.16-.288-.314-.101-.72-.26-1.439-.46-2.081-.56-.063-.998-.066-1.405-.032-.285.651-.494 1.379-.636 2.127-.028.146-.139.262-.283.296-.22.051-.439.114-.646.177l-.262.093-.313.12c-.142.059-.308.025-.415-.088-.493-.517-1.028-.99-1.588-1.406-.415.211-.762.48-1.098.74l-.066.052c.202.831.44 1.486.74 2.1.067.137.044.302-.059.416-.149.165-.275.322-.375.468-.146.18-.254.359-.353.528l-.034.054c-.085.113-.228.167-.367.144-.693-.125-1.408-.196-2.125-.21l-.074.122c-.145.383-.298.788-.392 1.214.559.491 1.17.903 1.827 1.257.133.072.21.216.195.367l-.018.318-.014.368.014.273.016.313c.011.154-.072.299-.211.366-.665.32-1.299.691-1.835 1.073.083.47.219.901.4 1.356.742.068 1.481.042 2.229-.054.172-.019.336.077.398.237.081.131.194.318.304.451.133.189.263.353.405.513.105.118.125.29.049.429-.322.59-.592 1.209-.849 1.948.416.385.769.646 1.119.86.664-.404 1.245-.856 1.762-1.348.071-.067.164-.102.259-.102zm3.026-2.196c-1.154 0-2.237-.448-3.051-1.262-.814-.813-1.262-1.897-1.262-3.051 0-1.154.448-2.238 1.263-3.052.92-.92 2.192-1.371 3.493-1.239.206.021.356.205.335.411-.021.206-.205.361-.411.335-1.077-.111-2.127.263-2.887 1.024-.672.672-1.043 1.568-1.043 2.522 0 .954.37 1.849 1.042 2.521.672.673 1.567 1.043 2.521 1.043s1.849-.371 2.522-1.043c.386-.386.671-.842.848-1.357.068-.196.283-.301.477-.232.196.067.3.281.233.476-.214.623-.56 1.176-1.027 1.643-.815.812-1.899 1.26-3.053 1.261zm9.902-9.774h-.031l-.086-.01c-.627-.063-1.207-.19-1.736-.381-.274-.1-.469-.342-.509-.632-.089-.667-.098-1.37-.024-2.049-.168-.116-.319-.236-.457-.361-.158-.14-.298-.278-.424-.417-.7.132-1.428.163-2.164.092-.274-.026-.51-.19-.63-.439-.251-.521-.442-1.106-.566-1.741-.061-.291.05-.59.292-.775.554-.423 1.146-.772 1.763-1.041.016-.182.041-.365.074-.552.049-.218.101-.413.16-.596-.463-.54-.854-1.156-1.165-1.834-.116-.261-.084-.561.081-.786.373-.525.786-.979 1.225-1.347.218-.19.528-.239.808-.123.643.27 1.239.607 1.776 1.004.159-.073.333-.143.526-.211.185-.065.38-.119.59-.162.237-.674.575-1.319 1.005-1.922.179-.248.467-.371.747-.322.629.061 1.209.188 1.747.384.271.092.469.336.509.632.091.669.099 1.372.024 2.047.175.121.324.238.461.362.159.143.298.281.422.417.706-.133 1.432-.163 2.164-.092.276.028.511.192.63.44.249.513.44 1.098.567 1.738.057.297-.056.593-.292.776-.553.423-1.146.772-1.765 1.042-.016.17-.039.351-.073.547l-.004.021c-.049.214-.101.405-.156.581.464.54.854 1.157 1.163 1.836.117.256.086.557-.08.784-.375.524-.786.977-1.222 1.346-.229.192-.54.239-.813.123-.639-.269-1.236-.606-1.775-1.004-.159.073-.332.142-.524.21-.181.063-.375.117-.589.163-.241.676-.58 1.321-1.008 1.922-.149.208-.387.33-.641.33zm-3.127-4.636c.111 0 .219.05.29.138.137.167.298.333.494.508.161.146.343.282.557.418.124.079.191.222.171.368-.094.684-.095 1.403-.004 2.08.492.198 1.014.311 1.617.374.459-.616.788-1.265 1.008-1.944.043-.132.155-.229.292-.254.267-.047.486-.103.691-.175.249-.087.459-.176.64-.273.13-.069.289-.055.407.036.536.42 1.139.772 1.793 1.047.425-.333.795-.741 1.135-1.217-.304-.713-.701-1.321-1.178-1.843-.094-.103-.124-.251-.075-.382.073-.198.138-.425.2-.694.043-.256.068-.48.078-.686.007-.147.099-.276.235-.331.635-.255 1.243-.602 1.805-1.032-.101-.612-.272-1.136-.494-1.593-.759-.092-1.483-.05-2.179.103-.138.031-.282-.019-.371-.129-.133-.163-.295-.33-.494-.509-.154-.14-.332-.273-.561-.419-.124-.079-.19-.223-.169-.369.096-.679.098-1.398.005-2.077-.5-.202-1.021-.315-1.614-.374-.465.618-.792 1.266-1.007 1.943-.043.134-.157.233-.296.256-.256.043-.481.099-.689.172-.251.088-.461.178-.641.274-.131.069-.291.056-.408-.036-.532-.418-1.135-.77-1.792-1.046-.427.333-.796.74-1.135 1.217.303.713.702 1.321 1.178 1.843.094.103.123.249.076.38-.078.218-.145.448-.203.705-.039.219-.065.446-.076.676-.007.147-.099.275-.235.33-.633.255-1.241.602-1.805 1.032.1.607.27 1.132.493 1.594.764.091 1.488.049 2.179-.104l.082-.007zm3.712.098l-.111-.002c-.735-.03-1.416-.344-1.916-.886s-.759-1.246-.729-1.981c.029-.734.344-1.414.886-1.914s1.249-.761 1.981-.729c.206.008.368.183.359.39-.008.208-.179.371-.39.36-.54-.025-1.047.167-1.442.531s-.624.858-.645 1.392c-.021.536.167 1.048.531 1.442.364.395.859.624 1.395.645.732.033 1.433-.35 1.81-.991.104-.179.334-.238.514-.133.178.105.238.335.133.514-.499.847-1.402 1.362-2.376 1.362z" fill="#0568ae"/></svg>