<svg xmlns="http://www.w3.org/2000/svg" viewBox="0 0 36 36" enable-background="new 0 0 36 36"><path d="M21.297 23.834l.017-.339.015-.37-.015-.304-.017-.323c.686-.33 1.333-.709 1.891-1.107.135-.096.198-.261.162-.423-.101-.451-.242-.9-.433-1.376-.058-.146-.195-.247-.352-.257-.753-.048-1.512-.021-2.271.079l-.012-.018c-.113-.196-.231-.39-.354-.537-.12-.172-.256-.345-.415-.523.333-.615.615-1.26.876-2.005.057-.16.008-.337-.121-.448-.425-.362-.793-.632-1.158-.855-.132-.082-.3-.079-.432.006-.649.411-1.248.878-1.784 1.388l-.452-.171-.191-.069c-.19-.057-.404-.121-.628-.171-.103-.738-.265-1.472-.474-2.141-.05-.16-.193-.273-.359-.286-.478-.035-.957-.047-1.435-.008-.156.013-.291.112-.347.255-.269.664-.482 1.412-.626 2.177-.229.053-.455.118-.669.183l-.17.061-.435.165c-.503-.528-1.052-1.015-1.637-1.448-.129-.097-.305-.107-.447-.028-.399.227-.757.504-1.103.773l-.068.053c-.131.102-.188.272-.142.431.216.802.464 1.487.775 2.126-.163.181-.298.351-.405.506-.143.175-.26.367-.374.561l-.004.009c-.708-.128-1.441-.201-2.185-.216-.179-.01-.332.104-.392.265l-.036.092c-.153.406-.312.827-.411 1.273-.031.15.02.305.137.404.565.471 1.196.896 1.878 1.265l-.02.342-.014.364.014.301.017.33c-.684.33-1.333.709-1.89 1.106-.135.095-.198.263-.162.423.101.452.242.901.432 1.376.059.148.197.247.355.258.752.048 1.514.018 2.269-.079l.011.021c.113.193.23.386.354.535.119.171.256.346.413.523-.332.608-.613 1.254-.874 2.004-.059.161-.008.338.121.447.429.365.797.636 1.157.856.133.079.299.078.432-.006.647-.413 1.247-.879 1.784-1.39l.453.173.19.069c.201.059.411.121.626.17.103.733.264 1.468.474 2.139.049.162.193.275.36.288.274.02.547.034.82.034.205 0 .412-.008.615-.026.153-.013.288-.111.346-.255.269-.666.482-1.413.629-2.176.223-.051.443-.115.665-.184l.164-.059.441-.167c.506.531 1.055 1.017 1.638 1.45.132.096.308.107.447.027.405-.232.766-.512 1.171-.828.131-.101.188-.271.143-.431-.218-.803-.467-1.487-.774-2.126.159-.181.294-.351.404-.508.144-.174.261-.368.374-.564l.004-.005c.708.128 1.444.201 2.186.215h.004c.173 0 .353-.171.413-.332.156-.413.318-.842.42-1.297.034-.149-.02-.305-.138-.403-.56-.47-1.191-.896-1.871-1.264zm-7.302 3.103c-2.086 0-3.778-1.691-3.778-3.778 0-2.087 1.691-3.778 3.778-3.778s3.778 1.691 3.778 3.778c0 2.087-1.692 3.778-3.778 3.778zm15.32-16.579c.668-.268 1.302-.63 1.893-1.082.124-.096.183-.252.154-.406-.121-.606-.301-1.161-.538-1.649-.062-.129-.187-.215-.329-.229-.777-.076-1.54-.03-2.268.13-.148-.182-.326-.364-.533-.55-.174-.158-.372-.304-.61-.456.102-.718.104-1.466.006-2.181-.021-.151-.121-.28-.266-.33-.508-.185-1.058-.305-1.683-.367-.152-.027-.29.049-.377.17-.453.634-.798 1.318-1.025 2.033-.279.047-.528.109-.752.188-.258.091-.489.188-.693.297-.556-.437-1.185-.806-1.878-1.097-.144-.06-.307-.037-.423.064-.414.347-.806.779-1.163 1.281-.087.119-.102.275-.042.409.327.714.745 1.352 1.249 1.904-.08.225-.152.469-.215.749-.047.264-.074.507-.085.742-.668.268-1.302.632-1.893 1.082-.125.096-.185.253-.153.406.119.608.3 1.162.536 1.649.063.129.187.215.329.229.779.076 1.543.031 2.269-.13.149.183.327.365.535.551.173.157.369.304.606.455-.099.718-.101 1.466-.004 2.181.021.151.123.279.265.331.502.181 1.052.3 1.684.366l.025.002c.138.005.27-.059.351-.173.453-.635.798-1.319 1.028-2.031.281-.05.524-.111.75-.19.256-.09.485-.186.691-.295.559.438 1.188.807 1.879 1.097.142.06.307.035.425-.064.412-.349.803-.78 1.161-1.28.087-.119.102-.275.041-.408-.324-.713-.742-1.353-1.247-1.906.082-.222.151-.468.216-.749.044-.267.073-.51.084-.743zm-4.789 1.954c-1.185 0-2.145-.96-2.145-2.145s.96-2.145 2.145-2.145c1.184 0 2.145.96 2.145 2.145 0 1.184-.96 2.145-2.145 2.145z" fill="#0568ae"/></svg>