<svg xmlns="http://www.w3.org/2000/svg" viewBox="0 0 36 36" enable-background="new 0 0 36 36"><path d="M1.22 11.028c0-.594.486-1.08 1.08-1.08h1.417c.594 0 1.08.486 1.08 1.08v13.944c0 .594-.485 1.08-1.08 1.08h-1.417c-.594 0-1.08-.486-1.08-1.08v-13.944zm31.183-.746l-10.299 5.412v-3.977c0-1.475-1.07-2.121-2.376-1.435l-12.312 6.47c-1.307.687-1.307 1.81 0 2.496l12.312 6.47c1.306.687 2.376.041 2.376-1.435v-3.977l10.299 5.412c1.307.687 2.376.041 2.376-1.435v-12.566c0-1.475-1.069-2.121-2.376-1.435z" fill="#0568ae"/></svg>