<svg xmlns="http://www.w3.org/2000/svg" viewBox="0 0 36 36" enable-background="new 0 0 36 36"><path d="M4.996 26.427h-1.417c-.802 0-1.455-.653-1.455-1.455v-13.944c0-.802.653-1.455 1.455-1.455h1.418c.802 0 1.455.653 1.455 1.455v13.944c-.001.802-.654 1.455-1.456 1.455zm-1.417-16.104c-.389 0-.705.317-.705.705v13.944c0 .389.316.705.705.705h1.418c.388 0 .705-.316.705-.705v-13.944c0-.389-.316-.705-.705-.705h-1.418zm19.557 15.81c.567-.342.879-.999.879-1.85 0-.207-.168-.375-.375-.375s-.375.168-.375.375c0 .577-.184 1.006-.517 1.208-.334.201-.799.165-1.31-.104l-12.312-6.47c-.496-.26-.78-.594-.78-.916 0-.322.285-.656.78-.916l12.311-6.47c.511-.269.976-.306 1.31-.104.333.201.517.63.517 1.207 0 .207.168.375.375.375s.375-.168.375-.375c0-.85-.312-1.506-.879-1.849-.567-.343-1.294-.313-2.046.082l-12.311 6.469c-.762.4-1.181.961-1.181 1.58 0 .619.42 1.18 1.181 1.58l12.312 6.47c.405.213.802.319 1.171.319.317.001.614-.078.875-.236zm8.985.237c-.369 0-.767-.107-1.171-.32l-12.311-6.47c-.762-.4-1.182-.961-1.182-1.58 0-.619.42-1.18 1.182-1.58l12.311-6.47c.752-.396 1.48-.425 2.046-.082.567.342.879.999.879 1.849v12.566c0 .85-.313 1.507-.879 1.85-.262.158-.558.237-.875.237zm-.003-15.988c-.247 0-.526.078-.82.232l-12.311 6.47c-.496.26-.78.594-.78.916 0 .322.284.656.78.916l12.311 6.47c.511.269.976.306 1.31.104.333-.202.517-.63.517-1.208v-12.565c0-.577-.184-1.005-.517-1.207-.142-.085-.307-.128-.49-.128z" fill="#0568ae"/></svg>