<svg xmlns="http://www.w3.org/2000/svg" viewBox="0 0 36 36" enable-background="new 0 0 36 36"><path d="M34.779 24.972c0 .594-.486 1.08-1.08 1.08h-1.417c-.594 0-1.08-.486-1.08-1.08v-13.944c0-.594.485-1.08 1.08-1.08h1.417c.594 0 1.08.486 1.08 1.08v13.944zm-6.195-8.22l-12.312-6.47c-1.306-.687-2.376-.04-2.376 1.434v3.977l-10.3-5.41c-1.307-.687-2.376-.04-2.376 1.434v12.566c0 1.476 1.069 2.122 2.376 1.435l10.299-5.412v3.977c0 1.476 1.07 2.122 2.376 1.435l12.312-6.47c1.308-.686 1.308-1.809.001-2.496z" fill="#0568ae"/></svg>