<svg xmlns="http://www.w3.org/2000/svg" viewBox="0 0 36 36" enable-background="new 0 0 36 36"><path d="M32.421 26.427h-1.419c-.802 0-1.455-.653-1.455-1.455v-13.944c0-.802.652-1.455 1.455-1.455h1.419c.802 0 1.455.653 1.455 1.455v13.944c0 .802-.653 1.455-1.455 1.455zm-1.42-16.104c-.389 0-.705.316-.705.705v13.944c0 .389.316.705.705.705h1.419c.389 0 .705-.316.705-.705v-13.944c0-.389-.316-.705-.705-.705h-1.419zm-16.094 15.727l12.312-6.47c.762-.4 1.181-.961 1.181-1.58 0-.619-.419-1.18-1.181-1.58l-12.312-6.47c-.753-.396-1.479-.425-2.046-.082-.567.343-.879.999-.879 1.849 0 .207.168.375.375.375s.375-.168.375-.375c0-.577.184-1.005.517-1.207.333-.201.798-.165 1.31.104l12.312 6.47c.496.26.78.594.78.916 0 .322-.284.656-.78.916l-12.313 6.47c-.511.269-.976.306-1.309.105-.333-.201-.517-.63-.517-1.208 0-.207-.168-.375-.375-.375s-.375.168-.375.375c0 .85.312 1.507.879 1.85.262.158.558.237.875.237.369 0 .766-.107 1.171-.32zm-11.029.32c-.317 0-.613-.079-.875-.237-.567-.342-.879-.999-.879-1.85v-12.566c0-.85.312-1.506.878-1.849.567-.342 1.294-.313 2.047.082l12.313 6.47c.761.4 1.18.961 1.18 1.58 0 .619-.419 1.18-1.18 1.58l-12.313 6.47c-.405.213-.802.32-1.171.32zm.002-15.988c-.183 0-.348.043-.49.128-.333.202-.516.63-.516 1.207v12.566c0 .578.184 1.006.517 1.208.333.201.798.164 1.31-.105l12.313-6.47c.495-.26.779-.594.779-.916 0-.322-.284-.656-.779-.916l-12.314-6.469c-.294-.155-.573-.233-.82-.233z" fill="#0568ae"/></svg>