<svg xmlns="http://www.w3.org/2000/svg" viewBox="0 0 36 36" enable-background="new 0 0 36 36"><path d="M9.184 26.427h-1.418c-.802 0-1.455-.653-1.455-1.455v-13.944c0-.802.653-1.455 1.455-1.455h1.418c.802 0 1.455.653 1.455 1.455v13.944c0 .802-.653 1.455-1.455 1.455zm-1.418-16.104c-.389 0-.705.316-.705.705v13.944c0 .389.316.705.705.705h1.418c.389 0 .705-.316.705-.705v-13.944c0-.389-.316-.705-.705-.705h-1.418zm7.259 16.047c-.317 0-.614-.079-.876-.237-.567-.343-.879-.999-.879-1.85v-12.566c0-.849.312-1.506.879-1.849.568-.342 1.294-.313 2.048.082l12.312 6.47c.761.4 1.18.961 1.18 1.58 0 .619-.419 1.18-1.18 1.579l-12.312 6.47c-.405.214-.803.321-1.172.321zm.003-15.988c-.183 0-.349.043-.491.128-.333.201-.517.63-.517 1.207v12.566c0 .577.184 1.006.517 1.208.333.201.799.164 1.31-.105l12.313-6.47c.495-.26.778-.594.779-.916 0-.322-.284-.656-.779-.916l-12.313-6.47c-.293-.154-.572-.232-.819-.232z" fill="#0568ae"/></svg>