<svg xmlns="http://www.w3.org/2000/svg" viewBox="0 0 36 36" enable-background="new 0 0 36 36"><path d="M10.561 14.051l8.536 8.536v5.31c0 .313-.174.597-.449.74-.117.064-.247.093-.384.093-.173 0-.337-.052-.477-.152 0 0-7.083-6.318-7.227-6.459h-3.691c-.63 0-1.146-.511-1.146-1.147v-5.76c0-.634.516-1.146 1.146-1.146h3.673l.019-.015zm20.191 15.242l-3.14-3.14.037-.038c2.274-3.01 3.179-6.855 2.485-10.549-.392-2.099-1.249-4.014-2.547-5.691-.38-.491-1.086-.582-1.578-.201-.492.38-.582 1.087-.201 1.578 1.077 1.392 1.788 2.983 2.115 4.728.561 2.988-.139 6.094-1.918 8.566l-1.657-1.657c1.278-1.896 1.777-4.231 1.354-6.49-.256-1.369-.806-2.612-1.634-3.695-.378-.494-1.084-.587-1.577-.21-.493.378-.588 1.084-.21 1.577.613.8 1.019 1.721 1.209 2.741.287 1.533.004 3.114-.769 4.45l-3.625-3.625v-9.535c0-.315-.174-.599-.452-.743-.119-.056-.246-.089-.381-.089-.176 0-.343.053-.487.162 0 0-2.558 2.35-4.633 4.254l-6.391-6.393c-.39-.391-1.024-.391-1.414 0s-.391 1.023 0 1.414l24 24c.196.195.451.293.707.293.256 0 .511-.097.707-.293.391-.391.391-1.024 0-1.414z" fill="#0568ae"/></svg>