<svg xmlns="http://www.w3.org/2000/svg" viewBox="0 0 36 36" enable-background="new 0 0 36 36"><path d="M17.996 3c-8.284 0-15 6.716-15 15s6.716 15 15 15c8.285 0 15-6.716 15-15s-6.716-15-15-15zm4.108 23.498c0 .269-.149.513-.386.635-.1.055-.212.08-.33.08-.148 0-.289-.045-.41-.13 0 0-6.081-5.425-6.205-5.546h-3.169c-.541 0-.984-.439-.984-.985v-4.945c0-.544.443-.984.984-.984h3.153c.112-.094 6.212-5.698 6.212-5.698.124-.094.267-.139.418-.139.116 0 .225.028.327.076.239.124.388.368.388.639v16.997z" fill="#0568ae"/></svg>