<svg xmlns="http://www.w3.org/2000/svg" viewBox="0 0 36 36" enable-background="new 0 0 36 36"><path d="M19.062 33.376c-.196 0-.361-.152-.374-.35-.014-.207.143-.385.349-.399 7.651-.507 13.643-6.917 13.643-14.593 0-8.064-6.561-14.625-14.625-14.625-6.74 0-12.577 4.562-14.196 11.094-.285 1.147-.429 2.336-.429 3.531 0 1.779.315 3.515.936 5.16 1.021 2.708 2.809 5.035 5.174 6.732.168.121.207.355.086.524-.121.168-.354.206-.523.086-2.485-1.783-4.365-4.231-5.438-7.077-.653-1.729-.984-3.554-.984-5.424 0-1.256.152-2.505.451-3.712 1.702-6.868 7.839-11.665 14.924-11.665 8.478 0 15.375 6.897 15.375 15.375 0 8.069-6.3 14.808-14.344 15.341l-.025.002zm7.727-15.376c0-.207-.168-.375-.375-.375h-16.716c-.207 0-.375.168-.375.375s.168.375.375.375h16.716c.207 0 .375-.168.375-.375z" fill="#0568ae"/></svg>