<svg xmlns="http://www.w3.org/2000/svg" viewBox="0 0 36 36" enable-background="new 0 0 36 36"><path d="M23.376 19.673c-.271 1.439-.854 2.75-1.732 3.896-.074.096-.186.147-.298.147-.079 0-.159-.025-.228-.077-.164-.126-.196-.361-.07-.526.806-1.053 1.341-2.257 1.59-3.579.438-2.35-.135-4.786-1.574-6.683-.125-.165-.093-.4.072-.525.166-.125.401-.092.526.072 1.567 2.065 2.191 4.717 1.714 7.275zm-6.732 9.298c.402-.208.652-.619.652-1.073v-19.796c0-.454-.251-.867-.654-1.076l-.012-.006c-.422-.201-.885-.17-1.283.135-2.259 2.076-6.425 5.901-7.125 6.538h-3.529c-.839 0-1.521.682-1.521 1.52v5.76c0 .839.682 1.522 1.521 1.522h3.546c.887.801 6.45 5.763 7.156 6.39.204.144.444.22.694.22.205.001.395-.046.555-.134zm-8.278-14.528c.088 0 .173-.031.241-.088.133-.112 6.52-5.979 7.22-6.625.131-.098.305-.115.475-.036.151.081.244.237.244.408v19.796c0 .172-.094.328-.254.411-.127.069-.351.042-.431-.009-2.429-2.167-7.064-6.304-7.215-6.448-.07-.068-.164-.106-.262-.106h-3.691c-.425 0-.771-.347-.771-.772v-5.76c0-.425.346-.77.771-.77h3.673z" fill="#0568ae"/></svg>