<svg xmlns="http://www.w3.org/2000/svg" viewBox="0 0 36 36" enable-background="new 0 0 36 36"><path d="M16.753 8.102v19.796c0 .313-.174.598-.449.74-.117.064-.247.093-.384.093-.173 0-.337-.052-.477-.151 0 0-7.083-6.318-7.227-6.459h-3.691c-.63 0-1.146-.512-1.146-1.147v-5.76c0-.634.516-1.146 1.146-1.146h3.673c.13-.109 7.235-6.636 7.235-6.636.144-.109.311-.162.487-.162.135 0 .262.032.381.089.278.144.452.428.452.743zm11.903 20.92c3.281-3.999 4.617-9.204 3.665-14.283-.535-2.84-1.772-5.522-3.576-7.754-.391-.483-1.099-.558-1.583-.167-.483.391-.558 1.099-.167 1.582 1.572 1.944 2.649 4.28 3.115 6.755.829 4.422-.335 8.957-3.193 12.441-.394.48-.324 1.189.156 1.583.209.172.461.255.713.255.325 0 .647-.141.87-.412zm-3.351-2.907c2.273-3.011 3.179-6.856 2.485-10.55-.392-2.1-1.249-4.014-2.547-5.691-.38-.491-1.086-.582-1.578-.201-.491.38-.582 1.087-.201 1.578 1.077 1.392 1.789 2.982 2.115 4.728.578 3.073-.177 6.274-2.069 8.779-.374.496-.276 1.202.22 1.576.203.153.441.227.677.227.34.001.677-.153.898-.446zm-3.574-2.823c1.487-1.961 2.08-4.473 1.627-6.893-.256-1.37-.806-2.613-1.634-3.695-.377-.493-1.083-.588-1.577-.21-.493.378-.587 1.084-.209 1.577.611.799 1.018 1.721 1.209 2.741.336 1.798-.104 3.664-1.209 5.12-.376.495-.278 1.201.217 1.576.203.154.442.229.679.229.34.001.676-.153.897-.445z" fill="#0568ae"/></svg>