<svg xmlns="http://www.w3.org/2000/svg" viewBox="0 0 36 36" enable-background="new 0 0 36 36"><path d="M16.921 8.102v19.796c0 .313-.174.598-.449.74-.117.064-.247.093-.384.093-.173 0-.337-.052-.477-.151 0 0-7.083-6.319-7.227-6.459h-3.691c-.63 0-1.146-.512-1.146-1.147v-5.76c0-.634.516-1.145 1.146-1.145h3.673c.13-.109 7.235-6.636 7.235-6.636.144-.109.311-.162.487-.162.135 0 .262.032.381.089.279.143.452.427.452.742zm4.979 15.19c1.487-1.96 2.08-4.473 1.627-6.893-.256-1.37-.806-2.613-1.634-3.695-.377-.493-1.083-.588-1.577-.21-.493.378-.587 1.084-.209 1.577.611.799 1.018 1.721 1.208 2.741.336 1.798-.104 3.664-1.208 5.12-.375.495-.278 1.201.217 1.576.203.154.442.229.679.229.34.001.675-.153.897-.445z" fill="#0568ae"/></svg>