<svg xmlns="http://www.w3.org/2000/svg" viewBox="0 0 36 36" enable-background="new 0 0 36 36"><path d="M32.45 21.066c-.503 2.679-1.668 5.198-3.368 7.285-.074.091-.182.138-.29.138-.084 0-.168-.027-.237-.084-.161-.131-.185-.367-.054-.527 1.622-1.99 2.732-4.393 3.212-6.949.852-4.553-.344-9.219-3.28-12.803-.131-.16-.108-.396.052-.528.16-.131.396-.109.528.052 3.077 3.755 4.33 8.645 3.437 13.416zm-6.982-10.91c-.124-.165-.359-.199-.525-.074-.165.125-.199.36-.074.525 2.072 2.752 2.895 6.269 2.256 9.651-.361 1.92-1.143 3.673-2.324 5.209-.126.164-.095.399.069.526.068.052.149.078.228.078.113 0 .224-.05.298-.146 1.253-1.631 2.083-3.49 2.467-5.526v-.001c.677-3.59-.196-7.323-2.395-10.242zm-3.71 2.243c-.125-.165-.359-.198-.525-.072-.165.125-.197.36-.072.525 1.438 1.896 2.012 4.332 1.574 6.683-.249 1.321-.784 2.525-1.59 3.578-.126.165-.095.4.07.526.068.052.148.077.228.077.113 0 .225-.051.298-.147.878-1.147 1.46-2.458 1.732-3.896.475-2.558-.149-5.21-1.715-7.274zm-5.019 16.572c.402-.208.652-.619.652-1.073v-19.796c0-.454-.251-.867-.654-1.076l-.012-.006c-.422-.201-.885-.17-1.283.135-2.26 2.076-6.425 5.901-7.125 6.538h-3.529c-.839 0-1.521.682-1.521 1.52v5.76c0 .839.682 1.522 1.521 1.522h3.546c.887.801 6.45 5.763 7.156 6.39.204.144.444.22.694.22.205.001.395-.046.555-.134zm-8.278-14.528c.088 0 .174-.031.241-.088.133-.112 6.52-5.979 7.22-6.625.131-.098.304-.115.475-.036.151.081.244.237.244.408v19.796c0 .172-.094.328-.254.411-.127.069-.351.042-.431-.009-2.429-2.167-7.064-6.304-7.215-6.448-.07-.068-.164-.106-.261-.106h-3.692c-.425 0-.771-.347-.771-.772v-5.76c0-.425.346-.77.771-.77h3.673z" fill="#0568ae"/></svg>