<svg xmlns="http://www.w3.org/2000/svg" viewBox="0 0 36 36" enable-background="new 0 0 36 36"><path d="M27.518 24.682c.781.781.781 2.047 0 2.828-.391.391-.902.586-1.414.586s-1.023-.196-1.414-.586l-6.686-6.686-6.695 6.695c-.391.391-.902.586-1.414.586-.512 0-1.024-.195-1.414-.586-.781-.781-.781-2.047 0-2.828l6.695-6.694-6.686-6.687c-.781-.781-.781-2.047 0-2.828.781-.781 2.047-.781 2.828 0l6.686 6.686 6.686-6.686c.781-.781 2.047-.781 2.828 0 .781.781.781 2.047 0 2.828l-6.686 6.686 6.686 6.686z" fill="#0568ae"/></svg>