<svg xmlns="http://www.w3.org/2000/svg" viewBox="0 0 36 36" enable-background="new 0 0 36 36"><path d="M27.768 8.26c-1.805-1.802-4.202-2.795-6.751-2.795-2.548 0-4.945.993-6.749 2.796-1.803 1.803-2.796 4.2-2.796 6.75 0 1.879.543 3.681 1.576 5.242l-7.059 7.059c-.357.356-.554.831-.554 1.335 0 .505.196.98.554 1.337.358.356.832.552 1.336.552.504 0 .977-.196 1.336-.553l7.047-7.048c1.576 1.063 3.402 1.622 5.309 1.622 2.55 0 4.948-.993 6.751-2.796 1.803-1.804 2.796-4.201 2.796-6.751 0-2.548-.993-4.946-2.796-6.75zm-6.761 12.517c-3.187 0-5.778-2.592-5.778-5.778 0-3.186 2.592-5.778 5.778-5.778 3.186 0 5.778 2.592 5.778 5.778 0 3.186-2.592 5.778-5.778 5.778zm3.993-5.777c0 .552-.448 1-1 1h-6c-.552 0-1-.448-1-1s.448-1 1-1h6c.552 0 1 .448 1 1z" fill="#0568ae"/></svg>