<svg xmlns="http://www.w3.org/2000/svg" viewBox="0 0 36 36">
  <path fill="#0568ae" d="M19.503 27H9.058c-.855 0-1.555-.7-1.555-1.555V4.555C7.503 3.7 8.203 3 9.058 3h17.89c.854 0 1.555.7 1.555 1.555V19.65c-.485-.098-.986-.15-1.5-.15-4.136 0-7.5 3.364-7.5 7.5zm4.246-13.604c-.003-1.682-1.332-3.11-3.042-3.116l-.096.003c-1.395 0-2.436 1.342-2.61 1.98-.22-.654-1.226-1.98-2.612-1.98l-.092-.003c-1.71.008-3.04 1.434-3.04 3.116-.01.66.2 1.318.66 1.947.46.637 1.144 1.33 2.22 2.37l.034.03.01.01c.613.575 1.81 1.582 1.842 1.61l.03.02c.232.19.52.31.814.328l.11.01h.045l.11-.01c.287-.017.57-.13.8-.31l.04-.032v-.002l.006-.004c.003-.004 1.225-1.028 1.86-1.622l-.006.003.046-.044c1.068-1.032 1.752-1.723 2.208-2.358.462-.628.67-1.288.66-1.946zm1.773 9.794c.063-.188.252-.298.44-.307.2.006.37.142.422.334l1.535 5.76 1.277-4.48c.055-.19.23-.324.428-.327.193.005.376.127.435.317l.73 2.352h2.206C32.91 23.6 30.262 21 27.003 21c-3.257 0-5.906 2.6-5.992 5.84h3.292l1.22-3.65zm4.935 4.55c-.197 0-.372-.13-.43-.318l-.38-1.225-1.31 4.594c-.055.194-.232.328-.433.328H27.9c-.2-.002-.377-.14-.43-.334l-1.57-5.887-.848 2.535c-.062.184-.233.308-.427.308H21.06c.367 2.962 2.883 5.26 5.943 5.26 3.062 0 5.577-2.297 5.942-5.26h-2.487z"/>
</svg>
