<svg xmlns="http://www.w3.org/2000/svg" viewBox="0 0 36 36">
  <path fill="#0568ae" d="M19.54 27H9.093c-.855 0-1.555-.7-1.555-1.555V4.555C7.54 3.7 8.24 3 9.093 3h17.89c.855 0 1.555.7 1.555 1.555V19.65c-.486-.098-.987-.15-1.5-.15-4.137 0-7.5 3.364-7.5 7.5h.002zm3.004-9.144c-.18-1.008-.51-2.563-.908-3.342-.273-.61-1.094-1.105-2.172-1.345l-.027-.01.04-.03c.512-.34.896-.86 1.07-1.46.065-.23.1-.47.1-.718 0-1.44-1.166-2.6-2.605-2.6-1.438 0-2.605 1.16-2.605 2.6 0 .254.04.5.106.73.172.584.545 1.082 1.037 1.42l.07.05-.05.013c-.918.21-1.65.603-2.007 1.096l-.14.243c-.112.216-.218.494-.316.804-.255.8-.464 1.81-.594 2.535l-.112.647-.03.307c0 .757.8 1.42 2.03 1.814.75.238 1.65.378 2.62.378 2.577 0 4.64-.98 4.64-2.19l-.025-.31-.11-.645-.01.013zm3.015 5.334c.06-.188.25-.298.44-.307.2.006.37.142.42.334l1.53 5.76 1.273-4.48c.055-.19.23-.324.43-.327.192.005.375.127.434.317l.73 2.352h2.206C32.946 23.6 30.3 21 27.04 21s-5.907 2.6-5.993 5.84h3.29l1.222-3.65zm4.93 4.55c-.2 0-.37-.13-.43-.318l-.38-1.225-1.31 4.594c-.06.2-.23.33-.44.33h-.003c-.2 0-.378-.14-.43-.33l-1.57-5.883-.85 2.535c-.06.184-.23.308-.426.308h-3.56c.373 2.953 2.89 5.25 5.95 5.25s5.576-2.297 5.94-5.26h-2.49z"/>
</svg>
