<svg xmlns="http://www.w3.org/2000/svg" viewBox="0 0 36 36">
  <path fill="#0568ae" d="M24.206 8.308l-.217.007c-3.16 0-5.517 3.04-5.908 4.484-.5-1.484-2.778-4.485-5.916-4.485l-.208-.007c-3.87.018-6.884 3.247-6.885 7.055-.014.963.183 1.925.6 2.87h4.288l1.87-5.186c.115-.32.417-.537.764-.517.34.012.633.24.726.57l2.45 8.618 1.306-3.013c.124-.286.406-.472.718-.472h3.968c.433 0 .783.35.783.783s-.35.783-.783.783h-3.454l-1.975 4.552c-.125.288-.408.472-.718.472l-.052-.002c-.33-.022-.61-.25-.7-.567l-2.384-8.388-1.232 3.415c-.112.31-.406.518-.737.518H6.59c1.04 1.436 2.586 3 5.01 5.337l.076.07.025.025c1.386 1.3 4.096 3.58 4.167 3.64l.066.052c.53.43 1.18.697 1.846.74l.25.02h.1l.245-.02c.652-.043 1.294-.295 1.81-.707l.09-.07.005-.005.012-.01c.01-.008 2.775-2.327 4.212-3.67l-.012.006.105-.1c2.417-2.335 3.966-3.9 5-5.336 1.042-1.425 1.516-2.917 1.494-4.41-.002-3.808-3.012-7.037-6.884-7.054z"/>
</svg>
