<svg xmlns="http://www.w3.org/2000/svg" viewBox="0 0 36 36">
  <path fill="#0568ae" d="M30.4 8.3l-2.8-2.8c-.2-.2-.5-.2-.7 0-.2.2-.2.5 0 .7L29.7 9l-.5.5-2.7-2.7c-.2-.2-.5-.2-.7 0-.2.2-.2.5 0 .7l2.7 2.7-.5.5L25.2 8c-.2-.2-.5-.2-.7 0-.2.2-.2.5 0 .7l2.7 2.7-.5.5L24 9.2c-.2-.2-.5-.2-.7 0-.2.2-.2.5 0 .7l2.7 2.7-.5.5-2.7-2.7c-.2-.2-.5-.2-.7 0-.2.2-.2.5 0 .7l2.7 2.7-.5.5-2.7-2.7c-.2-.2-.5-.2-.7 0-.2.2-.2.5 0 .7l2.7 2.7c-.2.2-.5.4-.7.4l-1.6.4c-.6.1-1.3.5-1.7.9L4.4 32c-.4.4-.4 1 0 1.4.4.4 1 .4 1.4 0l15.1-15.1c.2-.2.5-.4.7-.4l1.6-.4c.6-.1 1.3-.5 1.7-.9l6.7-6.7c.4-.4.4-1 0-1.4-.3-.4-.8-.4-1.2-.2zM23 2.9c.3.2.7.6.2 1l-4.6 4.6c-.5.5-.5 1.4 0 2s1.4.5 2 0l4.9-4.9c.8-.8.8-2 0-2.7-.7-.7-1.8-.7-2.6-.2-.1.1 0 .2.1.2z"/>
</svg>
