<svg xmlns="http://www.w3.org/2000/svg" viewBox="0 0 36 36">
  <path fill="#0568ae" d="M31.2 8.9c-.1-.1-.4-.1-.5 0l-.6.6-2.6-2.6c-.1-.1-.4-.1-.5 0s-.1.4 0 .5l2.6 2.6-.8.8-2.6-2.6c-.1-.1-.4-.1-.5 0s-.1.4 0 .5l2.6 2.6-.8.7-2.6-2.6c-.1-.1-.4-.1-.5 0s-.1.4 0 .5l2.6 2.6-.8.8-2.6-2.6c-.1-.1-.4-.1-.5 0s-.1.4 0 .5l2.6 2.6-.8.8-2.6-2.6c-.1-.1-.4-.1-.5 0s-.1.4 0 .5l2.6 2.6-.4.4c-.2.2-.7.5-1 .6l-1.6.4c-.4.1-1.1.5-1.4.8L4.8 32.5c-.1.1-.1.4 0 .5.1.1.2.1.3.1s.2 0 .3-.1l15.1-15.1c.2-.2.7-.5 1-.6l1.6-.4c.4-.1 1.1-.5 1.4-.8l6.7-6.7c.1-.1.1-.4 0-.5zm-11.8 2.5c.1-.1.1-.4 0-.5-.4-.4-.4-1 0-1.4l4.3-4.3c.3-.3.3-.6.3-.8 0-.3-.2-.5-.4-.6.6-.3 1.3-.2 1.8.3.6.6.6 1.6 0 2.2l-4.6 4.6c-.1.1-.1.4 0 .5.1.1.2.1.3.1s.2 0 .3-.1L26 6.8c.9-.9.9-2.4 0-3.3-.8-.8-2.1-.9-3-.2-.1.1-.2.3-.2.4 0 .2.1.3.3.5.2.1.3.2.3.3 0 0 0 .1-.1.1L19 8.9c-.7.7-.7 1.8 0 2.5 0 .2.3.2.4 0z"/>
</svg>
