<svg xmlns="http://www.w3.org/2000/svg" viewBox="0 0 36 36">
  <path fill="#0568ae" d="M22.69 18.474c.004 1.222-.98 2.207-2.2 2.21l-.48.005c.926.255 1.605 1.104 1.61 2.11 0 1.226-.985 2.21-2.203 2.216l-1.275.004c.733.342 1.24 1.08 1.242 1.942.003 1.188-.954 2.15-2.142 2.154h-7.01c-3.872 0-6.94-4.157-6.95-8.83-.005-3.072 1.293-5.785 3.296-7.37.625-.507 2.538-1.684 5.612-2.898 5.516-2.176 6.877-5.378 7.727-4.995.844.38 3.033 3.643-1.447 6.288-.333.196-.635.364-.92.56H30.8c1.218 0 2.198.987 2.198 2.204 0 1.22-.982 2.212-2.198 2.212h-.72l-.107-.36c-.2-.724-.862-1.23-1.612-1.23-.75 0-1.414.506-1.613 1.23l-.107.36H20.84c1.05.17 1.848 1.093 1.85 2.188zm5.672-2.425c-.144 0-.27.095-.308.233-.343 1.248-.758 1.957-1.283 2.853-.28.48-.597 1.022-.935 1.71-.762 1.548-.084 3.055.978 3.743.464.3 1 .46 1.55.46.84 0 1.633-.37 2.177-1.01.54-.64.77-1.485.63-2.317-.05-.308-.145-.603-.28-.877-.338-.688-.656-1.23-.937-1.71-.526-.896-.94-1.604-1.284-2.853-.038-.138-.164-.234-.308-.234m-.132 8.124l-.073-.008c-1.245-.292-1.512-1.197-1.6-1.494-.05-.17.045-.35.214-.4.17-.05.346.042.396.21l.002.01c.075.252.25.846 1.134 1.053.17.04.278.212.238.384-.034.145-.166.244-.31.244z"/>
</svg>
