<svg xmlns="http://www.w3.org/2000/svg" viewBox="0 0 36 36">
  <path fill="#0568ae" d="M29.066 10.722H6.933c-1.543 0-2.798 1.255-2.798 2.798V27.5c0 1.544 1.255 2.8 2.798 2.8h22.133c1.543 0 2.8-1.256 2.8-2.8V13.52c0-1.543-1.257-2.798-2.8-2.798zm2.05 16.778c0 1.13-.92 2.05-2.05 2.05H6.933c-1.13 0-2.048-.92-2.048-2.05V13.52c0-1.13.92-2.05 2.048-2.05h22.133c1.13 0 2.05.92 2.05 2.05V27.5zm-8.683-9.265h-2.155v-2.158c0-.786-.64-1.425-1.426-1.425h-1.7c-.786 0-1.426.64-1.426 1.424l-.004 2.16h-2.155c-.787 0-1.427.64-1.427 1.426v1.697c0 .787.64 1.427 1.427 1.427h2.16v2.155c0 .786.64 1.426 1.426 1.426h1.7c.785 0 1.425-.64 1.425-1.426v-2.155h2.155c.786 0 1.426-.64 1.426-1.428V19.66c0-.787-.64-1.427-1.427-1.427zm.676 3.124c0 .373-.304.677-.677.677h-2.53c-.207 0-.375.168-.375.375v2.53c0 .372-.303.676-.676.676h-1.7c-.372 0-.676-.303-.676-.676v-2.53c0-.207-.168-.375-.375-.375h-2.533c-.373 0-.677-.304-.677-.678V19.66c0-.373.303-.677.677-.677h2.53c.205 0 .373-.167.374-.375l.006-2.534c0-.372.304-.675.677-.675h1.7c.372 0 .675.304.675.676v2.533c0 .206.168.374.375.374h2.53c.372 0 .676.304.676.677v1.7zM11.91 9.13V7.41c0-1.2.976-2.175 2.175-2.175h7.83c1.2 0 2.175.975 2.175 2.175v1.72c0 .208-.168.376-.375.376s-.375-.168-.375-.375V7.41c0-.786-.64-1.425-1.425-1.425h-7.83c-.786 0-1.425.64-1.425 1.425v1.72c0 .208-.168.376-.375.376s-.375-.168-.375-.375z"/>
</svg>
