<svg xmlns="http://www.w3.org/2000/svg" viewBox="0 0 36 36">
  <path fill="#0568ae" d="M11.48 10.05V8.914c0-2.036 1.687-3.692 3.76-3.692h5.52c2.075 0 3.762 1.657 3.762 3.693v1.138h-2.5V8.914c0-.657-.566-1.192-1.26-1.192h-5.52c-.697 0-1.263.536-1.263 1.193v1.138h-2.5zm17.475 1.5H7.045c-1.382 0-2.512 1.13-2.512 2.513v12.953c0 1.38 1.13 2.512 2.51 2.512h21.912c1.382 0 2.512-1.13 2.512-2.512V14.063c0-1.382-1.13-2.512-2.512-2.512m-12.852 10.9H13.57c-.58 0-1.053-.473-1.053-1.052V19.7c0-.578.472-1.05 1.052-1.05h2.528l.005-2.534c0-.576.472-1.05 1.052-1.05h1.7c.578 0 1.05.474 1.05 1.05v2.533h2.53c.58 0 1.05.472 1.05 1.05V21.4c0 .58-.47 1.053-1.05 1.053h-2.53v2.53c0 .58-.472 1.052-1.05 1.052h-1.7c-.58 0-1.052-.473-1.052-1.05v-2.53z"/>
</svg>
