<svg xmlns="http://www.w3.org/2000/svg" viewBox="0 0 36 36">
  <path fill="#0568ae" d="M21.194 18.903H16.24c-.52 0-.945-.426-.945-.945V9.346c0-.52-.414-.845-.92-.723v-3.47c0-.637-.522-1.16-1.16-1.16H8.2c-.637 0-1.16.523-1.16 1.16v5.257c-.444.173-.79.648-.79 1.123v12.5c0 2.162 1.75 3.913 3.912 3.913h11.032c.52 0 .945-.425.945-.945V19.85c0-.52-.426-.945-.946-.945zm-8.82-12.91v3.113l-3.332.807v-3.92h3.333zm12.116 16.71c.175-.175.416-.282.683-.282h5.117c.533 0 .965.433.965.966 0 .533-.432.965-.965.965h-5.117c-.533 0-.966-.43-.965-.964 0-.267.108-.508.282-.683zm0-4.036l3.62-3.618c.376-.378.987-.378 1.364 0s.377.987 0 1.364l-3.618 3.618c-.377.377-.988.377-1.365 0s-.376-.988 0-1.365zm0 8.073c.378-.377.99-.377 1.366 0l3.618 3.618c.377.377.377.988 0 1.365s-.988.377-1.365 0l-3.62-3.618c-.376-.377-.376-.99 0-1.365z"/>
</svg>
