<svg xmlns="http://www.w3.org/2000/svg" viewBox="0 0 36 36">
  <path fill="#0568ae" d="M27.3 11.6h-5.2L27.5 5c.6-.8 1.7-1 2.5-.4s1 1.7.4 2.5l-3.1 4.5zm-11.2 5.3h-.9v2h.9c.4 0 .6-.1.8-.3.2-.2.3-.4.3-.8 0-.3-.1-.6-.3-.7-.2-.1-.5-.2-.8-.2zm15.6-2.8V17c0 5-3.4 9.4-7.9 11.4l.3.6c.2.3.3.8.3 1.1 0 .5-.4.8-.8.8H12.4c-.5 0-.8-.4-.8-.8 0-.3.1-.8.3-1.1l.3-.6c-4.5-2-7.9-6.3-7.9-11.4v-2.9c0-.3.2-.6.4-.8.2-.1.4-.2.6-.2h25.4c.6 0 1 .4 1 1zm-9.6 13l-2.2-3.4 2.1-3.2h-1.7l-1.2 2.1-1.6-2.7c.2-.1.4-.2.5-.3.5-.4.7-1 .7-1.7s-.2-1.3-.7-1.7c-.4-.4-1.1-.6-1.9-.6h-2.5v6.7h1.5v-2.1h.8l2.2 3.6-2.1 3.3h1.7l1.3-2.3 1.3 2.3h1.8z"/>
</svg>
