<svg xmlns="http://www.w3.org/2000/svg" viewBox="0 0 36 36">
  <path fill="#0568ae" d="M19.2 23.5l2.3-3.5h-.9l-1.8 2.9-1.9-3.1h.1c.5-.1.9-.4 1.1-.7.3-.4.4-.8.4-1.3 0-.7-.2-1.2-.6-1.5-.4-.4-1-.5-1.7-.5h-2.3v6.9h.8V20H16l.5.9 1.9 2.8-2.4 3.6h.9l1.9-3 1.9 3h1l-2.5-3.8zm-4.5-7.1h1.5c.5 0 .9.1 1.1.4.3.2.4.6.4 1s-.1.8-.4 1c-.3.2-.6.4-1.1.4h-1.5v-2.8zm8.9 15H12.4c-.7 0-1.2-.5-1.2-1.2 0-.3.1-1 .4-1.3l.1-.2C7 26.4 3.9 21.9 3.9 17.1v-2.9c0-.4.2-.8.5-1.1.3-.2.5-.3.9-.3h25.4c.8 0 1.4.6 1.4 1.4v2.9c0 4.8-3 9.3-7.8 11.6l.1.3c.2.4.3 1 .3 1.3.1.6-.4 1.1-1.1 1.1zM5.3 13.5c-.2 0-.3.1-.4.1-.2.1-.3.3-.3.5V17c0 4.6 3 8.9 7.7 11.1.1 0 .2.1.2.2v.3l-.3.6c-.2.3-.3.8-.3 1 0 .3.2.5.5.5h11.2c.3 0 .5-.2.5-.5 0-.2-.1-.7-.3-.9l-.3-.6c0-.1-.1-.2 0-.3 0-.1.1-.2.2-.2 4.7-2.2 7.7-6.5 7.7-11.1v-2.9c0-.4-.3-.6-.7-.6H5.3zm25.8-7.8c-.1-.6-.4-1.1-.9-1.4-.5-.3-1-.5-1.6-.4-.6.1-1.1.4-1.4.9L22.1 11c-.1.2-.1.4.1.5.1.1.2.1.2.1.1 0 .2 0 .3-.1l5.1-6.2c.2-.3.6-.5.9-.6.4-.1.8 0 1.1.3.3.2.5.6.6.9.1.4 0 .8-.3 1.1l-2.8 4c-.1.2-.1.4.1.5.1 0 .1.1.2.1s.2-.1.3-.2l2.7-4c.5-.6.6-1.1.5-1.7z"/>
</svg>
