<svg xmlns="http://www.w3.org/2000/svg" viewBox="0 0 36 36">
  <g fill="#0568ae">
    <path d="M18.6 23.6H5c-.2 0-.3-.2-.3-.3v-4.4c0-.2.2-.3.3-.3h8.3c.2 0 .4-.2.4-.4s-.2-.4-.4-.4H5c-.6 0-1.1.5-1.1 1.1v4.4c0 .6.5 1.1 1.1 1.1h13.6c.2 0 .4-.2.4-.4s-.2-.4-.4-.4zM31 17.8H17L6.5 7.2c-.1-.1-.4-.1-.5 0s-.1.4 0 .5l24 24c.1.1.2.1.3.1s.2 0 .3-.1c.1-.1.1-.4 0-.5l-6.9-6.9H31c.6 0 1.1-.5 1.1-1.1v-4.4c0-.5-.5-1-1.1-1zm-13.3.7h9.5v5.1h-4.4l-5.1-5.1zm13.6 4.8c0 .2-.2.3-.3.3h-3v-5.1h3c.2 0 .3.2.3.3v4.5z"/>
    <path d="M19.9 13.2h6.5c1.6 0 2.8 1.3 2.8 2.8 0 .2.2.4.4.4s.4-.2.4-.4c0-2-1.6-3.6-3.6-3.6h-6.5c-1.6 0-2.8-1.3-2.8-2.8 0-.2-.2-.4-.4-.4s-.4.2-.4.4c.1 2 1.7 3.6 3.6 3.6z"/>
  </g>
</svg>
