<svg xmlns="http://www.w3.org/2000/svg" viewBox="0 0 36 36">
  <path fill="none" d="M0 0h36v36H0z"/>
  <g fill="#0568ae">
    <path d="M5 18.2c-.4 0-.7.3-.7.7v4.4c0 .4.3.7.7.7h13.7l-5.8-5.8H5zm26 0h-3.6V24H31c.4 0 .7-.3.7-.7v-4.4c0-.4-.3-.7-.7-.7z"/>
    <path d="M23.6 24h2.3v-5.8h-8.1L6.4 6.8c-.4-.4-1-.4-1.4 0-.4.4-.4 1 0 1.4l24 24c.2.2.5.3.7.3s.5-.1.7-.3c.4-.4.4-1 0-1.4L23.6 24zm-3.5-10.7h6.5c1.3 0 2.4 1.1 2.4 2.4 0 .4.3.8.8.8s.8-.3.8-.8c0-2.2-1.8-3.9-3.9-3.9h-6.5c-1.3 0-2.4-1.1-2.4-2.4 0-.4-.3-.8-.8-.8s-.9.4-.9.8c0 2.1 1.8 3.9 4 3.9z"/>
  </g>
</svg>
