<svg xmlns="http://www.w3.org/2000/svg" viewBox="0 0 36 36">
  <path fill="#0568ae" d="M15.077 2.334c-2.106.297-4.002 1.475-5.2 3.23-.623.91-1.032 1.917-1.215 2.993-.062.366-.38.625-.738.625l-.127-.01c-.408-.07-.683-.458-.614-.866.22-1.29.71-2.498 1.454-3.588 1.437-2.103 3.708-3.513 6.23-3.87.412-.056.79.23.848.64.058.408-.228.788-.638.846zm.528 2.362c-.056-.41-.436-.7-.844-.642-1.437.196-2.733.997-3.555 2.198-.462.678-.75 1.43-.854 2.232-.053.41.237.787.648.84l.098.007c.37 0 .694-.274.743-.652.073-.567.277-1.098.604-1.578.583-.852 1.502-1.42 2.52-1.56.41-.056.697-.434.64-.844zm12.472 19.598v5.32c0 2.94-3.155 5.267-6.7 5.274-2.333.004-4.393-.98-5.595-2.5-.386-.476-1.28-1.927-2.2-4.26-1.652-4.187-4.082-5.22-3.79-5.866.288-.64 2.764-2.302 4.77 1.098.15.253.277.48.426.7v-8.536c-.904-.093-1.618-.854-1.618-1.78v-4.64c0-.99.81-1.8 1.8-1.8h3.04c.99 0 1.8.81 1.8 1.8v4.64c0 .945-.742 1.718-1.67 1.786v6.033c.128-.798.83-1.404 1.66-1.405.928-.004 1.675.743 1.678 1.67l.003.363c.195-.7.84-1.217 1.604-1.22.93 0 1.677.748 1.68 1.672l.004.968c.26-.556.82-.942 1.474-.942.902-.002 1.63.724 1.635 1.626zM18.503 10.52c0-1.003-.812-1.815-1.814-1.815s-1.815.812-1.815 1.814.812 1.813 1.814 1.813 1.813-.812 1.813-1.814z"/>
</svg>
