<svg xmlns="http://www.w3.org/2000/svg" viewBox="0 0 36 36">
  <path fill="#0568ae" d="M18.6 15.2c.1.1.1.1 0 0 .3.3.9.8 1.9 1.7h.1c.3.2.7.4 1 .4H21.9c.4 0 .7-.2 1-.4 0 0 .1 0 .1-.1.4-.3 1.4-1.2 1.9-1.7 1.2-1.1 1.9-1.8 2.3-2.5.5-.7.8-1.5.8-2.2 0-2-1.6-3.6-3.5-3.6h-.1c-1.2 0-2.2.8-2.7 1.6-.5-.8-1.5-1.6-2.7-1.6h-.1c-1.9 0-3.5 1.6-3.5 3.6 0 .8.2 1.5.8 2.2.6.8 1.3 1.5 2.4 2.6zm.5-7.5s.1 0 0 0c1.3 0 2.2 1.2 2.4 1.8.1.2.2.3.4.3s.3-.1.4-.3c.1-.5 1.1-1.8 2.4-1.8h.1c1.5 0 2.8 1.3 2.8 2.9 0 .6-.2 1.2-.6 1.8-.4.6-1.1 1.3-2.3 2.4l-.1.1c-.5.5-1.5 1.3-1.9 1.6h-.1c-.2.1-.4.2-.7.2h-.1-.1c-.2 0-.4-.1-.7-.3h-.1c-1.1-.9-1.6-1.4-1.8-1.6-1.1-1.1-1.8-1.8-2.3-2.4-.4-.6-.6-1.2-.6-1.8.1-1.7 1.3-2.9 2.9-2.9zm12.6 9.4c0 .5-.3 1-.7 1.3l-8.3 8.3c-1.3 1.3-2.7 1-2.8.9l-7.8-1.2L9.6 29c-.1.1-.2.1-.3.1-.1 0-.2 0-.3-.1-.1-.1-.1-.4 0-.5l2.7-2.7c.1-.1.2-.1.3-.1l8 1.3c.1 0 1.2.2 2.1-.7l8.3-8.3c.3-.2.4-.5.4-.8s-.1-.6-.3-.9c-.2-.2-.5-.4-.8-.4-.3 0-.6.1-.9.3L23.2 21c.2.6.2 1.2 0 1.8-.4.8-1.2 1.4-2.1 1.4-.3 0-.6-.1-.9-.2l-4.9-2.1c-.2-.1-.3-.3-.2-.5.1-.2.3-.3.5-.2l4.9 2.1c.2.1.4.1.6.1.6 0 1.1-.4 1.4-.9.2-.4.2-.8 0-1.2-.2-.4-.5-.7-.8-.8-2.4-1-6.9-3-7.1-3.1-.7-.3-1.3-.4-1.9-.3-.8.1-1.4.4-2 1L5 23.8c-.1.1-.4.1-.5 0-.1-.1-.1-.4 0-.5l5.7-5.7c.7-.7 1.5-1.1 2.4-1.2.8-.1 1.5 0 2.3.3.2.1.6.2 1.1.5l6 2.6c.3.1.6.3.8.6l5.8-4.9c.4-.3.9-.5 1.4-.5.5 0 1 .3 1.3.7.3.4.5.9.4 1.4z"/>
</svg>
