<svg xmlns="http://www.w3.org/2000/svg" viewBox="0 0 36 36">
  <path fill="#0568ae" d="M31.8 7.3c-.5-.6-1.3-.9-2.1-.9h-5.1c-2.1-1-4.3-1.6-6.7-1.6-2.3 0-4.6.5-6.7 1.6h-5c-.8 0-1.5.3-2.1.9s-.7 1.3-.6 2.2l2 18.7c.2 1.6 1.7 3 3.3 3h18.3c1.6 0 3.1-1.3 3.3-3l2-18.7c.2-.9-.1-1.6-.6-2.2zm0 2.1l-2 18.7c-.1 1.3-1.3 2.3-2.6 2.3H8.9c-1.3 0-2.4-1-2.6-2.3l-2-18.7c-.1-.6.1-1.2.4-1.6.4-.4.9-.6 1.5-.6H10s-.1 0-.1.1c-.6.4-1.4 1-1.4 1-.3.2-.4.7-.2 1.1l3.3 5.2c.1.2.3.2.5.1s.2-.3.1-.5L8.9 9v-.2s.7-.6 1.3-1c2.3-1.5 5-2.2 7.7-2.2 2.8 0 5.5.8 7.8 2.3.6.3 1.3.9 1.3.9s.1.1 0 .2l-3.3 5.2c-.1.1-.2.2-.3.2h-3.9l1.6-6.1c.1-.2-.1-.4-.3-.5-.2-.1-.4.1-.5.3l-1.7 6.3h-3.1c-.2 0-.4.2-.4.4s.2.4.4.4h7.8c.4 0 .8-.2 1-.5l3.3-5.2c.2-.4.1-.9-.2-1.1 0 0-.7-.6-1.3-1-.1 0-.1-.1-.2-.1h3.7c.6 0 1.1.2 1.5.6.5.3.7.9.7 1.5z"/>
</svg>
