<svg xmlns="http://www.w3.org/2000/svg" viewBox="0 0 36 36">
  <path fill="#0568ae" d="M21.2 8.9l-.9 5.4h-2l2.1-5.6c.1-.2.3-.3.5-.3s.4.2.3.5z"/>
  <path fill="#0568ae" d="M30.3 7.3h-3.8c-.1 0-.1-.1-.2-.1-2.5-1.6-5.3-2.4-8.2-2.4-2.9 0-5.7.8-8.2 2.4-.2 0-.2 0-.3.1H5.7c-1.5 0-2.5 1.2-2.4 2.6l2 18.7c.2 1.4 1.5 2.6 2.9 2.6h19.3c1.5 0 2.8-1.2 2.9-2.6l2-18.7c.4-1.4-.7-2.6-2.1-2.6zm-3.9 2.9l-.8 1.2-2.2 3.4c-.1.2-.4.3-.6.3H13c-.2 0-.5-.1-.6-.3l-2.3-3.6-.7-1c-.1-.2-.1-.4.1-.6 0 0 .7-.5 1.2-.9 2-1.3 4.5-2.1 7.1-2.1 2.6 0 5.1.8 7.2 2.1.5.3 1.1.8 1.1.8.4.3.4.6.3.7z"/>
</svg>
