<svg xmlns="http://www.w3.org/2000/svg" viewBox="0 0 36 36">
  <path fill="#0568ae" d="M4.466 29.413l2.12 2.12-1.836 1.84c-.586.585-1.536.585-2.12 0-.587-.587-.587-1.536 0-2.122l1.836-1.837zm11.767-15.835L26.34 3.47c1.71-1.71 4.48-1.71 6.19 0 1.708 1.71 1.708 4.48 0 6.19L22.42 19.766c-.84.84-2.41 1.934-3.49 2.432l-3.627 1.673c-1.08.497-2.65 1.592-3.49 2.432l-4.168 4.17-2.12-2.122 4.168-4.17c.84-.84 1.934-2.41 2.432-3.488l1.674-3.628c.498-1.08 1.593-2.65 2.433-3.49zm11.522-8.693c-.927.927-.927 2.434 0 3.36s2.434.928 3.36 0c.928-.925.927-2.433 0-3.36-.926-.927-2.434-.927-3.36 0zm-9.02 8.788c-.42.42-.42 1.107 0 1.527l2.018 2.018c.42.42 1.108.42 1.528 0l4.98-4.978c.42-.42.42-1.107 0-1.527l-2.02-2.02c-.42-.42-1.107-.42-1.527 0l-4.978 4.98z"/>
</svg>
