<svg xmlns="http://www.w3.org/2000/svg" viewBox="0 0 36 36">
  <path fill="#333" d="M13.4 22.6h-1.3v-.8c-.6.6-1 .9-1.4.9s-.7-.2-.9-.6c-.1-.2-.1-.6-.1-1.1v-5.8H11v5.9c0 .2.1.2.3.2.2 0 .4-.2.8-.7v-5.5h1.3v7.5zm-4.7-4.9c0-.8-.1-1.3-.4-1.8-.3-.4-.9-.7-1.6-.7-.7 0-1.1.2-1.6.7-.3.3-.4 1-.4 1.8v2.5c0 .8.1 1.3.4 1.7.3.4 1 .8 1.6.8s1.2-.2 1.6-.8c.2-.3.4-.9.4-1.7v-2.5zm-1.5 2.7c.1.7-.1 1.1-.6 1.1-.4 0-.7-.3-.6-1.1v-2.9c-.1-.7.1-1.1.6-1.1.4 0 .7.3.6 1.1v2.9zm-4-1.8v4H1.8v-4S.4 13.7 0 12.8h1.6l1 3.8 1-3.8h1.6c-.1.1-2 5.8-2 5.8z"/>
  <path fill="#E62117" d="M32.9 17.4v.8h-1.2v-.8c0-.7.3-.9.7-.9.3 0 .5.2.5.9zm-4.9 0v3.1c0 .8-.2 1-.6 1-.2 0-.4-.1-.7-.3v-4.3c.2-.2.4-.3.7-.3.5-.1.6.1.6.8z"/>
  <path fill="#E62117" d="M35.8 13.7s-.2-1.4-.9-2.1c-.8-.9-1.8-.9-2.1-.9-3-.2-7.6-.2-7.6-.2s-4.6 0-7.6.2c-.4 0-1.3.1-2.1.9-.7.7-.9 2.1-.9 2.1s-.2 1.8-.2 3.4v1.7c0 1.8.2 3.4.2 3.4s.2 1.4.9 2.1c.8.9 1.9.8 2.3.9 1.7.1 7.3.2 7.3.2s4.6 0 7.6-.2c.4 0 1.3-.1 2.1-.9.7-.7.9-2.1.9-2.1s.2-1.8.2-3.4v-1.7c.1-1.7-.1-3.4-.1-3.4zm-16.6 8.9h-1.4v-8.2h-1.6v-1.3h4.6v1.3h-1.6v8.2zm5.2 0h-1.3v-.8c-.6.6-1 .9-1.4.9-.4 0-.7-.2-.9-.6-.1-.2-.1-.6-.1-1.1v-5.6H22v5.9c0 .2.1.2.3.2.2 0 .4-.2.8-.7v-5.4h1.3v7.2zm5-2.2c0 .7-.1 1.1-.1 1.4-.2.6-.6.8-1.1.8-.4 0-.9-.3-1.3-.8v.8h-1.3V13h1.3v3.1c.4-.6.9-.8 1.3-.8.6 0 .9.3 1 .9.1.3.2.8.2 1.4v2.8zm2.8 1.1c.3 0 .6-.2.6-.6V20h1.3v1.1c0 .3-.1.6-.3.8-.3.6-.9.8-1.6.8-.7 0-1.2-.2-1.6-.8-.2-.3-.4-.9-.4-1.7v-2.5c0-.8.1-1.3.4-1.8.3-.4.9-.8 1.6-.8.7 0 1.2.2 1.6.8.2.3.4.9.4 1.7V19h-2.6v1.3c.1.9.2 1.2.6 1.2z"/>
</svg>
