<svg xmlns="http://www.w3.org/2000/svg" viewBox="0 0 36 36">
	<path fill="#066C9A" d="M18 0C8.1 0 0 8.1 0 18s8.1 18 18 18 18-8.1 18-18S27.9 0 18 0zm0 34.9C8.7 34.9 1.1 27.3 1.1 18S8.7 1.1 18 1.1 34.9 8.7 34.9 18 27.3 34.9 18 34.9z"/>
	<path fill="#066C9A" d="M10.9 14.1h3.5v10.6h-3.5V14.1zM12.6 9c-1.2 0-1.9.8-1.9 1.9s.7 1.9 1.9 1.9 1.9-.8 1.9-1.9S13.9 9 12.6 9zm10.2 4.9c-1.9 0-2.7 1-3.2 1.7v-1.5h-3.5v10.6h3.5v-5.9c0-.3 0-.6.1-.8.2-.6.8-1.3 1.9-1.3 1.2 0 1.7.9 1.7 2.4v5.7h3.5v-6.1c.2-3.3-1.5-4.8-4-4.8z"/>
</svg>