<svg xmlns="http://www.w3.org/2000/svg" viewBox="0 0 36 36">
  <path fill="#BD081C" d="M18 .4C8.3.4.4 8.3.4 18S8.3 35.6 18 35.6 35.6 27.7 35.6 18 27.7.4 18 .4zM19.9 22c-1.1 0-2.1-.6-2.4-1.2 0 0-.6 2.3-.6 2.7-.4 1.5-1.8 3.2-1.9 3.3-.2 0-.4 0-.4-.1 0-.2-.4-2.2 0-3.9.2-.8 1.3-5.5 1.3-5.5s-.4-.6-.4-1.7c0-1.5.9-2.7 2-2.7.9 0 1.3.6 1.3 1.5s-.6 2.3-.9 3.7c-.2 1.1.6 2 1.7 2 1.9 0 3.2-2.4 3.2-5.4 0-2.2-1.5-3.9-4.2-3.9-3.1 0-5 2.3-5 4.8 0 .9.2 1.5.6 2 .2.2.2.4.1.6 0 .2-.1.6-.2.8-.1.2-.2.4-.6.2-1.4-.6-2.1-2.1-2.1-3.9 0-2.9 2.4-6.3 7.3-6.3 3.9 0 6.4 2.7 6.4 5.8.2 4.2-2.1 7.2-5.2 7.2z"/>
</svg>
