<svg xmlns="http://www.w3.org/2000/svg" viewBox="0 0 36 36">
  <path fill="#E0E0E0" d="M20.3 18.1l-4.1-2.7 4.7 2.4-.6.3"/>
  <path fill="none" d="M9.4 11.9h17.1v12H9.4z"/>
  <path fill="#CD201F" d="M18 0C8.1 0 0 8.1 0 18s8.1 18 18 18 18-8.1 18-18S27.9 0 18 0zm8.6 18.6c0 1.4-.2 2.8-.2 2.8s-.2 1.2-.7 1.7c-.7.7-1.4.7-1.7.7-2.4.2-6 .2-6 .2s-4.4 0-5.8-.2c-.4-.1-1.2 0-1.9-.7-.5-.5-.6-1.7-.6-1.7s-.1-1.4-.1-2.8v-1.3c0-1.4.1-2.8.1-2.8s.1-1.2.6-1.7c.7-.7 1.4-.8 1.7-.8 2.4-.2 6-.3 6-.3s3.6.1 6 .3c.3 0 1.1.1 1.7.8.5.5.7 1.7.7 1.7s.2 1.4.2 2.8v1.3z"/>
  <path fill="#CD201F" d="M16.2 20.2v-4.8l4.7 2.4"/>
  <path fill="#E0E0E0" d="M20.3 18.1l-4.1-2.7 4.7 2.4-.6.3"/>
</svg>
