<svg xmlns="http://www.w3.org/2000/svg" viewBox="0 0 36 36">
  <g fill="#ea7400">
    <path d="M18.1 13.7c-1.4 0-2.4 1.1-2.4 2.4 0 1.7.9 2.5 2.5 2.5 1.3 0 2.1-.5 2.1-1.1 0-.3-.1-.4-.3-.5-.4-.2-.6.5-1.7.5-.6 0-1.2-.3-1.2-1h3c.3 0 .4-.2.4-.5 0-1.3-1-2.3-2.4-2.3zm-1 2c.1-.5.5-.8 1-.8s.9.3.9.8h-1.9z"/>
    <path d="M18 .4C8.3.4.4 8.3.4 18S8.3 35.6 18 35.6 35.6 27.7 35.6 18 27.8.4 18 .4zm7.9 22.8c0 .5-.4.9-.9.9H11c-.5 0-.9-.4-.9-.9v-6.7l6.8 4.6c.2.1.7.4 1.1.4.4 0 .8-.1 1.1-.4l6.8-4.6v6.7zm-.6-7.5l-6.6 4.5c-.2.2-.5.2-.8.2-.3 0-.5-.1-.7-.2l-6.7-4.6c-.3-.2-.5-.6-.5-1v-1.8c0-.5.4-.9.9-.9h14c.5 0 .9.4.9.9.2 0 .2 1.7.2 1.8-.1.4-.3.8-.7 1.1z"/>
  </g>
</svg>
