<svg xmlns="http://www.w3.org/2000/svg" viewBox="0 0 36 36">
  <g fill="#702F8A">
    <path d="M25 12.7c-.2-.4-.4-.7-.7-1-.3-.3-.6-.5-1-.7-.3-.1-.8-.3-1.7-.3-.9 0-1.2-.1-3.6-.1-2.4 0-2.7 0-3.6.1-.9 0-1.4.2-1.7.3-.4.2-.7.4-1 .7-.3.3-.5.6-.7 1-.1.3-.3.8-.3 1.7 0 .9-.1 1.2-.1 3.6 0 2.4 0 2.7.1 3.6 0 .9.2 1.4.3 1.7.2.4.4.7.7 1 .3.3.6.5 1 .7.3.1.8.3 1.7.3.9 0 1.2.1 3.6.1 2.4 0 2.7 0 3.6-.1.9 0 1.4-.2 1.7-.3.4-.2.7-.4 1-.7.3-.3.5-.6.7-1 .1-.3.3-.8.3-1.7 0-.9.1-1.2.1-3.6 0-2.4 0-2.7-.1-3.6 0-.9-.2-1.4-.3-1.7zm-7 9.9c-2.6 0-4.6-2.1-4.6-4.6s2.1-4.6 4.6-4.6 4.6 2.1 4.6 4.6-2 4.6-4.6 4.6zm4.8-8.3c-.6 0-1.1-.5-1.1-1.1 0-.6.5-1.1 1.1-1.1.6 0 1.1.5 1.1 1.1 0 .6-.5 1.1-1.1 1.1z"/>
    <circle cx="18" cy="18" r="3"/>
    <path d="M18 0C8.1 0 0 8.1 0 18s8.1 18 18 18 18-8.1 18-18S27.9 0 18 0zm8.9 21.7c0 1-.2 1.6-.4 2.2-.2.6-.5 1.1-1 1.6s-1 .8-1.6 1c-.6.2-1.2.4-2.2.4-1 0-1.3.1-3.7.1-2.4 0-2.8 0-3.7-.1-1 0-1.6-.2-2.2-.4-.6-.2-1.1-.5-1.6-1s-.8-1-1-1.6c-.2-.6-.4-1.2-.4-2.2C9 20.8 9 20.4 9 18c0-2.4 0-2.8.1-3.7 0-1 .2-1.6.4-2.2.2-.6.5-1.1 1-1.6s1-.8 1.6-1c.6-.2 1.2-.4 2.2-.4.9-.1 1.3-.1 3.7-.1 2.4 0 2.8 0 3.7.1 1 0 1.6.2 2.2.4.6.2 1.1.5 1.6 1s.8 1 1 1.6c.2.6.4 1.2.4 2.2 0 1 .1 1.3.1 3.7 0 2.4 0 2.8-.1 3.7z"/>
  </g>
</svg>
