<svg xmlns="http://www.w3.org/2000/svg" viewBox="0 0 50 50">
  <path fill="#2AA9E0" d="M25 .5C11.5.5.5 11.5.5 25s11 24.5 24.5 24.5 24.5-11 24.5-24.5S38.5.5 25 .5zm9.8 19.4v.6c0 6.6-5.1 14.2-14.2 14.2-2.9 0-5.5-.8-7.7-2.3h1.2c2.3 0 4.6-.8 6.3-2.1-2.1 0-4-1.5-4.7-3.5.3 0 .6.2.9.2.5 0 .9 0 1.4-.2-2.3-.5-4-2.5-4-4.9.6.3 1.4.6 2.3.6-1.4-.9-2.3-2.5-2.3-4.1 0-.9.3-1.8.6-2.6C17 18.9 20.7 20.9 25 21c-.2-.3-.2-.8-.2-1.1 0-2.8 2.3-5.1 5.1-5.1 1.4 0 2.8.6 3.7 1.5 1.1-.2 2.3-.6 3.2-1.2-.3 1.2-1.2 2.1-2.1 2.8 1.1-.2 2-.5 2.9-.8-1 1.3-1.9 2.2-2.8 2.8z"/>
</svg>
