<svg xmlns="http://www.w3.org/2000/svg" viewBox="0 0 50 50">
  <g fill="#2AA9E0">
    <path d="M24.9.5C11.4.5.4 11.5.4 25s11 24.5 24.5 24.5 24.5-11 24.5-24.5S38.4.5 24.9.5zm0 47.5c-12.6 0-23-10.4-23-23s10.4-23 23-23 23 10.4 23 23-10.4 23-23 23z"/>
    <path d="M36 15.8c-.9.6-1.9 1-3.1 1.2-.9-.9-2.2-1.5-3.6-1.5-2.7 0-4.9 2.2-4.9 4.9 0 .4 0 .7.1 1-4-.3-7.6-2.2-9.9-5.2-.4.8-.6 1.5-.6 2.6 0 1.6.9 3.1 2.2 4-.7 0-1.5-.3-2.2-.6 0 2.4 1.6 4.3 3.9 4.8-.4.1-.9.1-1.3.1-.3 0-.6 0-.9-.1.6 1.9 2.4 3.4 4.6 3.4-1.6 1.3-3.7 2.1-6.1 2.1H13c2.2 1.3 4.8 2.2 7.4 2.2 8.9 0 13.8-7.4 13.8-13.8v-.6c.9-.7 1.8-1.5 2.4-2.5-.9.4-1.8.6-2.8.7 1.2-.6 1.9-1.7 2.2-2.7z"/>
  </g>
</svg>
