<svg xmlns="http://www.w3.org/2000/svg" viewBox="0 0 36 36">
  <path fill="#FFF" d="M18 0C8.1 0 0 8.1 0 18s8.1 18 18 18 18-8.1 18-18S27.9 0 18 0zm0 34.9C8.7 34.9 1.1 27.3 1.1 18S8.7 1.1 18 1.1 34.9 8.7 34.9 18 27.3 34.9 18 34.9z"/>
  <g fill="#FFF">
    <path d="M18 11.1c2.2 0 2.5 0 3.4.1.8.1 1.2.1 1.5.3.4.1.7.4 1 .6.3.3.4.6.6 1 .1.3.2.7.3 1.5.1.9.1 1.2.1 3.4s0 2.5-.1 3.4c-.1.8-.1 1.2-.3 1.5-.1.4-.4.7-.6 1-.3.3-.6.4-1 .6-.3.1-.7.2-1.5.3-.9.1-1.2.1-3.4.1s-2.5 0-3.4-.1c-.8-.1-1.2-.1-1.5-.3-.4-.1-.7-.4-1-.6-.3-.3-.4-.6-.6-1-.1-.3-.2-.7-.3-1.5-.1-.9-.1-1.2-.1-3.4s0-2.5.1-3.4c.1-.8.1-1.2.3-1.5.1-.4.4-.7.6-1 .3-.3.6-.4 1-.6.3-.1.7-.2 1.5-.3.9 0 1.2-.1 3.4-.1m0-1.5c-2.3 0-2.6 0-3.5.1-.9.1-1.5.1-2.1.4-.5.2-1 .5-1.5 1-.4.4-.7 1-1 1.5-.2.5-.4 1.1-.4 2.1-.1.9-.1 1.2-.1 3.5s0 2.6.1 3.5c.1.9.1 1.5.4 2.1.2.5.5 1 1 1.5.4.4 1 .7 1.5 1s1.1.4 2.1.4c.9.1 1.2.1 3.5.1s2.6 0 3.5-.1c.9-.1 1.5-.1 2.1-.4.5-.2 1-.5 1.5-1 .4-.4.7-1 1-1.5.2-.5.4-1.1.4-2.1.1-.9.1-1.2.1-3.5s0-2.6-.1-3.5c-.1-.9-.1-1.5-.4-2.1-.2-.5-.5-1-1-1.5-.4-.4-1-.7-1.5-1s-1.1-.4-2.1-.4c-.9-.1-1.2-.1-3.5-.1z"/>
    <path d="M18 13.7c-2.4 0-4.3 1.9-4.3 4.3s1.9 4.3 4.3 4.3 4.3-1.9 4.3-4.3-1.9-4.3-4.3-4.3zm0 7c-1.5 0-2.8-1.2-2.8-2.8 0-1.5 1.2-2.8 2.8-2.8s2.8 1.2 2.8 2.8c0 1.6-1.3 2.8-2.8 2.8z"/>
    <circle cx="22.4" cy="13.5" r="1"/>
  </g>
</svg>
