<svg xmlns="http://www.w3.org/2000/svg" viewBox="0 0 36 36">
  <path fill="#007A3E" d="M35.7 14.5C34.2 7.2 28.2 1.4 20.8.2 19.9.1 18.9 0 18 0 10.5 0 3.6 4.8 1.1 11.8-1.5 19 .7 27.1 6.5 31.9s14.3 5.4 20.6 1.5c6.7-3.8 10-11.5 8.6-18.9zm-23 6.3c-.7 1.2-2.1 1.4-3.3 1.4-.9 0-2.1-.1-2.8-.7-.4-.3-.5-.7-.4-1.2 0-.1.6-1.1.8-1 .7.6 1.5 1 2.4 1 .3 0 .8 0 1-.3.3-.4.1-.7-.3-.8-.9-.4-1.8-.3-2.7-.8-.8-.5-1.2-1.4-1-2.4.3-1.9 2.3-2.4 3.9-2.2.7.1 1.7.1 2.2.7.3.3.4.7.2 1.2 0 0-.7 1-.8.9-.5-.4-1.2-.8-1.9-.9-.4 0-1.2-.1-1.3.5-.1.7.9.7 1.2.7.7.1 1.3.3 1.9.7 1.2.6 1.5 2.1.9 3.2zm9.6 1.3h-2.4v-4.6l-.9 2.4c-.3.9-1.8.9-2.1 0l-.8-2.3v4.5h-2.4v-7c0-.7.4-1.2 1.1-1.2h.7c.6 0 .9.1 1.1.7l1.3 3.2 1.3-3.2c.2-.5.5-.7 1.1-.7h.7c.7 0 1.2.4 1.2 1.2l.1 7zm7.3-1.3c-.7 1.2-2.1 1.4-3.3 1.4-.9 0-2.1-.1-2.8-.7-.4-.3-.5-.7-.4-1.2 0-.1.6-1.1.8-1 .7.6 1.5 1 2.4 1 .3 0 .8 0 1-.3.3-.4.1-.7-.3-.8-.9-.4-1.8-.3-2.7-.8-.8-.5-1.2-1.4-1-2.4.3-1.9 2.3-2.4 3.9-2.2.7.1 1.7.1 2.2.7.3.3.4.7.2 1.2 0 0-.7 1-.8.9-.5-.4-1.2-.8-1.9-.9-.4 0-1.2-.1-1.3.5-.1.7.9.7 1.2.7.7.1 1.3.3 1.9.7 1.3.6 1.6 2.1.9 3.2z"/>
</svg>
