<svg xmlns="http://www.w3.org/2000/svg" viewBox="0 0 50 50">
   <path fill="#BD081C" d="M24.9.5C11.4.5.4 11.5.4 25s11 24.5 24.5 24.5 24.5-11 24.5-24.5S38.4.5 24.9.5zm0 47.5c-12.6 0-23-10.4-23-23s10.4-23 23-23 23 10.4 23 23-10.4 23-23 23z"/>
   <path fill="#BD081C" d="M26.1 13.1c-6.5 0-9.8 4.6-9.8 8.5 0 2.4.9 4.5 2.8 5.2.3.1.6 0 .7-.3 0-.3.1-.9.3-1 .1-.3 0-.4-.1-.7-.6-.6-.9-1.5-.9-2.7 0-3.4 2.5-6.5 6.7-6.5 3.7 0 5.6 2.2 5.6 5.2 0 4-1.8 7.3-4.3 7.3-1.5 0-2.5-1.2-2.2-2.7.4-1.8 1.2-3.6 1.2-4.9 0-1.2-.6-2.1-1.8-2.1-1.5 0-2.7 1.5-2.7 3.6 0 1.3.4 2.2.4 2.2s-1.5 6.4-1.8 7.4c-.6 2.2-.1 4.9 0 5.2 0 .1.3.1.3.1.1-.1 1.9-2.4 2.5-4.5.1-.6.9-3.7.9-3.7.4.9 1.9 1.6 3.3 1.6 4.5 0 7.4-4 7.4-9.4.1-3.9-3.3-7.8-8.5-7.8z"/>  
</svg>
